G04 #@! TF.GenerationSoftware,KiCad,Pcbnew,5.1.6-c6e7f7d~87~ubuntu18.04.1*
G04 #@! TF.CreationDate,2020-08-14T22:16:59+05:30*
G04 #@! TF.ProjectId,Aardonyx,41617264-6f6e-4797-982e-6b696361645f,v1.0*
G04 #@! TF.SameCoordinates,Original*
G04 #@! TF.FileFunction,Paste,Bot*
G04 #@! TF.FilePolarity,Positive*
%FSLAX46Y46*%
G04 Gerber Fmt 4.6, Leading zero omitted, Abs format (unit mm)*
G04 Created by KiCad (PCBNEW 5.1.6-c6e7f7d~87~ubuntu18.04.1) date 2020-08-14 22:16:59*
%MOMM*%
%LPD*%
G01*
G04 APERTURE LIST*
G04 #@! TA.AperFunction,Profile*
%ADD10C,0.100000*%
G04 #@! TD*
%ADD11R,1.500000X0.400000*%
G04 APERTURE END LIST*
D10*
X43561000Y-162560000D02*
X43561000Y-11684000D01*
X283824680Y-162562540D02*
X43561000Y-162557460D01*
X283824680Y-11684000D02*
X283824680Y-162560000D01*
X43561000Y-11684000D02*
X283824680Y-11684000D01*
G36*
G01*
X54343800Y-144984050D02*
X54343800Y-144471550D01*
G75*
G02*
X54562550Y-144252800I218750J0D01*
G01*
X55000050Y-144252800D01*
G75*
G02*
X55218800Y-144471550I0J-218750D01*
G01*
X55218800Y-144984050D01*
G75*
G02*
X55000050Y-145202800I-218750J0D01*
G01*
X54562550Y-145202800D01*
G75*
G02*
X54343800Y-144984050I0J218750D01*
G01*
G37*
G36*
G01*
X52768800Y-144984050D02*
X52768800Y-144471550D01*
G75*
G02*
X52987550Y-144252800I218750J0D01*
G01*
X53425050Y-144252800D01*
G75*
G02*
X53643800Y-144471550I0J-218750D01*
G01*
X53643800Y-144984050D01*
G75*
G02*
X53425050Y-145202800I-218750J0D01*
G01*
X52987550Y-145202800D01*
G75*
G02*
X52768800Y-144984050I0J218750D01*
G01*
G37*
G36*
G01*
X212397800Y-83171000D02*
X212397800Y-83281000D01*
G75*
G02*
X212342800Y-83336000I-55000J0D01*
G01*
X211052800Y-83336000D01*
G75*
G02*
X210997800Y-83281000I0J55000D01*
G01*
X210997800Y-83171000D01*
G75*
G02*
X211052800Y-83116000I55000J0D01*
G01*
X212342800Y-83116000D01*
G75*
G02*
X212397800Y-83171000I0J-55000D01*
G01*
G37*
G36*
G01*
X212397800Y-83671000D02*
X212397800Y-83781000D01*
G75*
G02*
X212342800Y-83836000I-55000J0D01*
G01*
X211052800Y-83836000D01*
G75*
G02*
X210997800Y-83781000I0J55000D01*
G01*
X210997800Y-83671000D01*
G75*
G02*
X211052800Y-83616000I55000J0D01*
G01*
X212342800Y-83616000D01*
G75*
G02*
X212397800Y-83671000I0J-55000D01*
G01*
G37*
G36*
G01*
X212397800Y-84176000D02*
X212397800Y-84276000D01*
G75*
G02*
X212347800Y-84326000I-50000J0D01*
G01*
X211047800Y-84326000D01*
G75*
G02*
X210997800Y-84276000I0J50000D01*
G01*
X210997800Y-84176000D01*
G75*
G02*
X211047800Y-84126000I50000J0D01*
G01*
X212347800Y-84126000D01*
G75*
G02*
X212397800Y-84176000I0J-50000D01*
G01*
G37*
G36*
G01*
X212397800Y-84671000D02*
X212397800Y-84781000D01*
G75*
G02*
X212342800Y-84836000I-55000J0D01*
G01*
X211052800Y-84836000D01*
G75*
G02*
X210997800Y-84781000I0J55000D01*
G01*
X210997800Y-84671000D01*
G75*
G02*
X211052800Y-84616000I55000J0D01*
G01*
X212342800Y-84616000D01*
G75*
G02*
X212397800Y-84671000I0J-55000D01*
G01*
G37*
G36*
G01*
X212397800Y-85171000D02*
X212397800Y-85281000D01*
G75*
G02*
X212342800Y-85336000I-55000J0D01*
G01*
X211052800Y-85336000D01*
G75*
G02*
X210997800Y-85281000I0J55000D01*
G01*
X210997800Y-85171000D01*
G75*
G02*
X211052800Y-85116000I55000J0D01*
G01*
X212342800Y-85116000D01*
G75*
G02*
X212397800Y-85171000I0J-55000D01*
G01*
G37*
G36*
G01*
X212397800Y-85671000D02*
X212397800Y-85781000D01*
G75*
G02*
X212342800Y-85836000I-55000J0D01*
G01*
X211052800Y-85836000D01*
G75*
G02*
X210997800Y-85781000I0J55000D01*
G01*
X210997800Y-85671000D01*
G75*
G02*
X211052800Y-85616000I55000J0D01*
G01*
X212342800Y-85616000D01*
G75*
G02*
X212397800Y-85671000I0J-55000D01*
G01*
G37*
G36*
G01*
X212397800Y-86171000D02*
X212397800Y-86281000D01*
G75*
G02*
X212342800Y-86336000I-55000J0D01*
G01*
X211052800Y-86336000D01*
G75*
G02*
X210997800Y-86281000I0J55000D01*
G01*
X210997800Y-86171000D01*
G75*
G02*
X211052800Y-86116000I55000J0D01*
G01*
X212342800Y-86116000D01*
G75*
G02*
X212397800Y-86171000I0J-55000D01*
G01*
G37*
G36*
G01*
X212397800Y-86671000D02*
X212397800Y-86781000D01*
G75*
G02*
X212342800Y-86836000I-55000J0D01*
G01*
X211052800Y-86836000D01*
G75*
G02*
X210997800Y-86781000I0J55000D01*
G01*
X210997800Y-86671000D01*
G75*
G02*
X211052800Y-86616000I55000J0D01*
G01*
X212342800Y-86616000D01*
G75*
G02*
X212397800Y-86671000I0J-55000D01*
G01*
G37*
G36*
G01*
X212397800Y-87171000D02*
X212397800Y-87281000D01*
G75*
G02*
X212342800Y-87336000I-55000J0D01*
G01*
X211052800Y-87336000D01*
G75*
G02*
X210997800Y-87281000I0J55000D01*
G01*
X210997800Y-87171000D01*
G75*
G02*
X211052800Y-87116000I55000J0D01*
G01*
X212342800Y-87116000D01*
G75*
G02*
X212397800Y-87171000I0J-55000D01*
G01*
G37*
G36*
G01*
X212397800Y-87671000D02*
X212397800Y-87781000D01*
G75*
G02*
X212342800Y-87836000I-55000J0D01*
G01*
X211052800Y-87836000D01*
G75*
G02*
X210997800Y-87781000I0J55000D01*
G01*
X210997800Y-87671000D01*
G75*
G02*
X211052800Y-87616000I55000J0D01*
G01*
X212342800Y-87616000D01*
G75*
G02*
X212397800Y-87671000I0J-55000D01*
G01*
G37*
G36*
G01*
X212397800Y-88171000D02*
X212397800Y-88281000D01*
G75*
G02*
X212342800Y-88336000I-55000J0D01*
G01*
X211052800Y-88336000D01*
G75*
G02*
X210997800Y-88281000I0J55000D01*
G01*
X210997800Y-88171000D01*
G75*
G02*
X211052800Y-88116000I55000J0D01*
G01*
X212342800Y-88116000D01*
G75*
G02*
X212397800Y-88171000I0J-55000D01*
G01*
G37*
G36*
G01*
X212397800Y-88671000D02*
X212397800Y-88781000D01*
G75*
G02*
X212342800Y-88836000I-55000J0D01*
G01*
X211052800Y-88836000D01*
G75*
G02*
X210997800Y-88781000I0J55000D01*
G01*
X210997800Y-88671000D01*
G75*
G02*
X211052800Y-88616000I55000J0D01*
G01*
X212342800Y-88616000D01*
G75*
G02*
X212397800Y-88671000I0J-55000D01*
G01*
G37*
G36*
G01*
X212397800Y-89171000D02*
X212397800Y-89281000D01*
G75*
G02*
X212342800Y-89336000I-55000J0D01*
G01*
X211052800Y-89336000D01*
G75*
G02*
X210997800Y-89281000I0J55000D01*
G01*
X210997800Y-89171000D01*
G75*
G02*
X211052800Y-89116000I55000J0D01*
G01*
X212342800Y-89116000D01*
G75*
G02*
X212397800Y-89171000I0J-55000D01*
G01*
G37*
G36*
G01*
X212397800Y-89671000D02*
X212397800Y-89781000D01*
G75*
G02*
X212342800Y-89836000I-55000J0D01*
G01*
X211052800Y-89836000D01*
G75*
G02*
X210997800Y-89781000I0J55000D01*
G01*
X210997800Y-89671000D01*
G75*
G02*
X211052800Y-89616000I55000J0D01*
G01*
X212342800Y-89616000D01*
G75*
G02*
X212397800Y-89671000I0J-55000D01*
G01*
G37*
G36*
G01*
X212397800Y-90171000D02*
X212397800Y-90281000D01*
G75*
G02*
X212342800Y-90336000I-55000J0D01*
G01*
X211052800Y-90336000D01*
G75*
G02*
X210997800Y-90281000I0J55000D01*
G01*
X210997800Y-90171000D01*
G75*
G02*
X211052800Y-90116000I55000J0D01*
G01*
X212342800Y-90116000D01*
G75*
G02*
X212397800Y-90171000I0J-55000D01*
G01*
G37*
G36*
G01*
X212397800Y-90671000D02*
X212397800Y-90781000D01*
G75*
G02*
X212342800Y-90836000I-55000J0D01*
G01*
X211052800Y-90836000D01*
G75*
G02*
X210997800Y-90781000I0J55000D01*
G01*
X210997800Y-90671000D01*
G75*
G02*
X211052800Y-90616000I55000J0D01*
G01*
X212342800Y-90616000D01*
G75*
G02*
X212397800Y-90671000I0J-55000D01*
G01*
G37*
G36*
G01*
X212397800Y-91171000D02*
X212397800Y-91281000D01*
G75*
G02*
X212342800Y-91336000I-55000J0D01*
G01*
X211052800Y-91336000D01*
G75*
G02*
X210997800Y-91281000I0J55000D01*
G01*
X210997800Y-91171000D01*
G75*
G02*
X211052800Y-91116000I55000J0D01*
G01*
X212342800Y-91116000D01*
G75*
G02*
X212397800Y-91171000I0J-55000D01*
G01*
G37*
G36*
G01*
X212397800Y-91671000D02*
X212397800Y-91781000D01*
G75*
G02*
X212342800Y-91836000I-55000J0D01*
G01*
X211052800Y-91836000D01*
G75*
G02*
X210997800Y-91781000I0J55000D01*
G01*
X210997800Y-91671000D01*
G75*
G02*
X211052800Y-91616000I55000J0D01*
G01*
X212342800Y-91616000D01*
G75*
G02*
X212397800Y-91671000I0J-55000D01*
G01*
G37*
G36*
G01*
X212397800Y-92171000D02*
X212397800Y-92281000D01*
G75*
G02*
X212342800Y-92336000I-55000J0D01*
G01*
X211052800Y-92336000D01*
G75*
G02*
X210997800Y-92281000I0J55000D01*
G01*
X210997800Y-92171000D01*
G75*
G02*
X211052800Y-92116000I55000J0D01*
G01*
X212342800Y-92116000D01*
G75*
G02*
X212397800Y-92171000I0J-55000D01*
G01*
G37*
G36*
G01*
X212397800Y-92671000D02*
X212397800Y-92781000D01*
G75*
G02*
X212342800Y-92836000I-55000J0D01*
G01*
X211052800Y-92836000D01*
G75*
G02*
X210997800Y-92781000I0J55000D01*
G01*
X210997800Y-92671000D01*
G75*
G02*
X211052800Y-92616000I55000J0D01*
G01*
X212342800Y-92616000D01*
G75*
G02*
X212397800Y-92671000I0J-55000D01*
G01*
G37*
G36*
G01*
X212397800Y-93171000D02*
X212397800Y-93281000D01*
G75*
G02*
X212342800Y-93336000I-55000J0D01*
G01*
X211052800Y-93336000D01*
G75*
G02*
X210997800Y-93281000I0J55000D01*
G01*
X210997800Y-93171000D01*
G75*
G02*
X211052800Y-93116000I55000J0D01*
G01*
X212342800Y-93116000D01*
G75*
G02*
X212397800Y-93171000I0J-55000D01*
G01*
G37*
G36*
G01*
X212397800Y-93671000D02*
X212397800Y-93781000D01*
G75*
G02*
X212342800Y-93836000I-55000J0D01*
G01*
X211052800Y-93836000D01*
G75*
G02*
X210997800Y-93781000I0J55000D01*
G01*
X210997800Y-93671000D01*
G75*
G02*
X211052800Y-93616000I55000J0D01*
G01*
X212342800Y-93616000D01*
G75*
G02*
X212397800Y-93671000I0J-55000D01*
G01*
G37*
G36*
G01*
X212397800Y-94171000D02*
X212397800Y-94281000D01*
G75*
G02*
X212342800Y-94336000I-55000J0D01*
G01*
X211052800Y-94336000D01*
G75*
G02*
X210997800Y-94281000I0J55000D01*
G01*
X210997800Y-94171000D01*
G75*
G02*
X211052800Y-94116000I55000J0D01*
G01*
X212342800Y-94116000D01*
G75*
G02*
X212397800Y-94171000I0J-55000D01*
G01*
G37*
G36*
G01*
X212397800Y-94671000D02*
X212397800Y-94781000D01*
G75*
G02*
X212342800Y-94836000I-55000J0D01*
G01*
X211052800Y-94836000D01*
G75*
G02*
X210997800Y-94781000I0J55000D01*
G01*
X210997800Y-94671000D01*
G75*
G02*
X211052800Y-94616000I55000J0D01*
G01*
X212342800Y-94616000D01*
G75*
G02*
X212397800Y-94671000I0J-55000D01*
G01*
G37*
G36*
G01*
X212397800Y-95171000D02*
X212397800Y-95281000D01*
G75*
G02*
X212342800Y-95336000I-55000J0D01*
G01*
X211052800Y-95336000D01*
G75*
G02*
X210997800Y-95281000I0J55000D01*
G01*
X210997800Y-95171000D01*
G75*
G02*
X211052800Y-95116000I55000J0D01*
G01*
X212342800Y-95116000D01*
G75*
G02*
X212397800Y-95171000I0J-55000D01*
G01*
G37*
G36*
G01*
X212397800Y-95671000D02*
X212397800Y-95781000D01*
G75*
G02*
X212342800Y-95836000I-55000J0D01*
G01*
X211052800Y-95836000D01*
G75*
G02*
X210997800Y-95781000I0J55000D01*
G01*
X210997800Y-95671000D01*
G75*
G02*
X211052800Y-95616000I55000J0D01*
G01*
X212342800Y-95616000D01*
G75*
G02*
X212397800Y-95671000I0J-55000D01*
G01*
G37*
G36*
G01*
X212397800Y-96171000D02*
X212397800Y-96281000D01*
G75*
G02*
X212342800Y-96336000I-55000J0D01*
G01*
X211052800Y-96336000D01*
G75*
G02*
X210997800Y-96281000I0J55000D01*
G01*
X210997800Y-96171000D01*
G75*
G02*
X211052800Y-96116000I55000J0D01*
G01*
X212342800Y-96116000D01*
G75*
G02*
X212397800Y-96171000I0J-55000D01*
G01*
G37*
G36*
G01*
X212397800Y-96671000D02*
X212397800Y-96781000D01*
G75*
G02*
X212342800Y-96836000I-55000J0D01*
G01*
X211052800Y-96836000D01*
G75*
G02*
X210997800Y-96781000I0J55000D01*
G01*
X210997800Y-96671000D01*
G75*
G02*
X211052800Y-96616000I55000J0D01*
G01*
X212342800Y-96616000D01*
G75*
G02*
X212397800Y-96671000I0J-55000D01*
G01*
G37*
G36*
G01*
X212397800Y-97171000D02*
X212397800Y-97281000D01*
G75*
G02*
X212342800Y-97336000I-55000J0D01*
G01*
X211052800Y-97336000D01*
G75*
G02*
X210997800Y-97281000I0J55000D01*
G01*
X210997800Y-97171000D01*
G75*
G02*
X211052800Y-97116000I55000J0D01*
G01*
X212342800Y-97116000D01*
G75*
G02*
X212397800Y-97171000I0J-55000D01*
G01*
G37*
G36*
G01*
X212397800Y-97671000D02*
X212397800Y-97781000D01*
G75*
G02*
X212342800Y-97836000I-55000J0D01*
G01*
X211052800Y-97836000D01*
G75*
G02*
X210997800Y-97781000I0J55000D01*
G01*
X210997800Y-97671000D01*
G75*
G02*
X211052800Y-97616000I55000J0D01*
G01*
X212342800Y-97616000D01*
G75*
G02*
X212397800Y-97671000I0J-55000D01*
G01*
G37*
G36*
G01*
X212397800Y-98171000D02*
X212397800Y-98281000D01*
G75*
G02*
X212342800Y-98336000I-55000J0D01*
G01*
X211052800Y-98336000D01*
G75*
G02*
X210997800Y-98281000I0J55000D01*
G01*
X210997800Y-98171000D01*
G75*
G02*
X211052800Y-98116000I55000J0D01*
G01*
X212342800Y-98116000D01*
G75*
G02*
X212397800Y-98171000I0J-55000D01*
G01*
G37*
G36*
G01*
X212397800Y-98671000D02*
X212397800Y-98781000D01*
G75*
G02*
X212342800Y-98836000I-55000J0D01*
G01*
X211052800Y-98836000D01*
G75*
G02*
X210997800Y-98781000I0J55000D01*
G01*
X210997800Y-98671000D01*
G75*
G02*
X211052800Y-98616000I55000J0D01*
G01*
X212342800Y-98616000D01*
G75*
G02*
X212397800Y-98671000I0J-55000D01*
G01*
G37*
G36*
G01*
X212397800Y-99171000D02*
X212397800Y-99281000D01*
G75*
G02*
X212342800Y-99336000I-55000J0D01*
G01*
X211052800Y-99336000D01*
G75*
G02*
X210997800Y-99281000I0J55000D01*
G01*
X210997800Y-99171000D01*
G75*
G02*
X211052800Y-99116000I55000J0D01*
G01*
X212342800Y-99116000D01*
G75*
G02*
X212397800Y-99171000I0J-55000D01*
G01*
G37*
G36*
G01*
X212397800Y-99671000D02*
X212397800Y-99781000D01*
G75*
G02*
X212342800Y-99836000I-55000J0D01*
G01*
X211052800Y-99836000D01*
G75*
G02*
X210997800Y-99781000I0J55000D01*
G01*
X210997800Y-99671000D01*
G75*
G02*
X211052800Y-99616000I55000J0D01*
G01*
X212342800Y-99616000D01*
G75*
G02*
X212397800Y-99671000I0J-55000D01*
G01*
G37*
G36*
G01*
X212397800Y-100171000D02*
X212397800Y-100281000D01*
G75*
G02*
X212342800Y-100336000I-55000J0D01*
G01*
X211052800Y-100336000D01*
G75*
G02*
X210997800Y-100281000I0J55000D01*
G01*
X210997800Y-100171000D01*
G75*
G02*
X211052800Y-100116000I55000J0D01*
G01*
X212342800Y-100116000D01*
G75*
G02*
X212397800Y-100171000I0J-55000D01*
G01*
G37*
G36*
G01*
X212397800Y-100671000D02*
X212397800Y-100781000D01*
G75*
G02*
X212342800Y-100836000I-55000J0D01*
G01*
X211052800Y-100836000D01*
G75*
G02*
X210997800Y-100781000I0J55000D01*
G01*
X210997800Y-100671000D01*
G75*
G02*
X211052800Y-100616000I55000J0D01*
G01*
X212342800Y-100616000D01*
G75*
G02*
X212397800Y-100671000I0J-55000D01*
G01*
G37*
G36*
G01*
X212397800Y-101171000D02*
X212397800Y-101281000D01*
G75*
G02*
X212342800Y-101336000I-55000J0D01*
G01*
X211052800Y-101336000D01*
G75*
G02*
X210997800Y-101281000I0J55000D01*
G01*
X210997800Y-101171000D01*
G75*
G02*
X211052800Y-101116000I55000J0D01*
G01*
X212342800Y-101116000D01*
G75*
G02*
X212397800Y-101171000I0J-55000D01*
G01*
G37*
G36*
G01*
X212397800Y-101671000D02*
X212397800Y-101781000D01*
G75*
G02*
X212342800Y-101836000I-55000J0D01*
G01*
X211052800Y-101836000D01*
G75*
G02*
X210997800Y-101781000I0J55000D01*
G01*
X210997800Y-101671000D01*
G75*
G02*
X211052800Y-101616000I55000J0D01*
G01*
X212342800Y-101616000D01*
G75*
G02*
X212397800Y-101671000I0J-55000D01*
G01*
G37*
G36*
G01*
X212397800Y-102171000D02*
X212397800Y-102281000D01*
G75*
G02*
X212342800Y-102336000I-55000J0D01*
G01*
X211052800Y-102336000D01*
G75*
G02*
X210997800Y-102281000I0J55000D01*
G01*
X210997800Y-102171000D01*
G75*
G02*
X211052800Y-102116000I55000J0D01*
G01*
X212342800Y-102116000D01*
G75*
G02*
X212397800Y-102171000I0J-55000D01*
G01*
G37*
G36*
G01*
X212397800Y-102671000D02*
X212397800Y-102781000D01*
G75*
G02*
X212342800Y-102836000I-55000J0D01*
G01*
X211052800Y-102836000D01*
G75*
G02*
X210997800Y-102781000I0J55000D01*
G01*
X210997800Y-102671000D01*
G75*
G02*
X211052800Y-102616000I55000J0D01*
G01*
X212342800Y-102616000D01*
G75*
G02*
X212397800Y-102671000I0J-55000D01*
G01*
G37*
G36*
G01*
X200837800Y-104171000D02*
X200837800Y-104281000D01*
G75*
G02*
X200782800Y-104336000I-55000J0D01*
G01*
X199492800Y-104336000D01*
G75*
G02*
X199437800Y-104281000I0J55000D01*
G01*
X199437800Y-104171000D01*
G75*
G02*
X199492800Y-104116000I55000J0D01*
G01*
X200782800Y-104116000D01*
G75*
G02*
X200837800Y-104171000I0J-55000D01*
G01*
G37*
G36*
G01*
X200837800Y-103671000D02*
X200837800Y-103781000D01*
G75*
G02*
X200782800Y-103836000I-55000J0D01*
G01*
X199492800Y-103836000D01*
G75*
G02*
X199437800Y-103781000I0J55000D01*
G01*
X199437800Y-103671000D01*
G75*
G02*
X199492800Y-103616000I55000J0D01*
G01*
X200782800Y-103616000D01*
G75*
G02*
X200837800Y-103671000I0J-55000D01*
G01*
G37*
G36*
G01*
X200837800Y-103171000D02*
X200837800Y-103281000D01*
G75*
G02*
X200782800Y-103336000I-55000J0D01*
G01*
X199492800Y-103336000D01*
G75*
G02*
X199437800Y-103281000I0J55000D01*
G01*
X199437800Y-103171000D01*
G75*
G02*
X199492800Y-103116000I55000J0D01*
G01*
X200782800Y-103116000D01*
G75*
G02*
X200837800Y-103171000I0J-55000D01*
G01*
G37*
G36*
G01*
X200837800Y-102671000D02*
X200837800Y-102781000D01*
G75*
G02*
X200782800Y-102836000I-55000J0D01*
G01*
X199492800Y-102836000D01*
G75*
G02*
X199437800Y-102781000I0J55000D01*
G01*
X199437800Y-102671000D01*
G75*
G02*
X199492800Y-102616000I55000J0D01*
G01*
X200782800Y-102616000D01*
G75*
G02*
X200837800Y-102671000I0J-55000D01*
G01*
G37*
G36*
G01*
X200837800Y-102171000D02*
X200837800Y-102281000D01*
G75*
G02*
X200782800Y-102336000I-55000J0D01*
G01*
X199492800Y-102336000D01*
G75*
G02*
X199437800Y-102281000I0J55000D01*
G01*
X199437800Y-102171000D01*
G75*
G02*
X199492800Y-102116000I55000J0D01*
G01*
X200782800Y-102116000D01*
G75*
G02*
X200837800Y-102171000I0J-55000D01*
G01*
G37*
G36*
G01*
X200837800Y-101671000D02*
X200837800Y-101781000D01*
G75*
G02*
X200782800Y-101836000I-55000J0D01*
G01*
X199492800Y-101836000D01*
G75*
G02*
X199437800Y-101781000I0J55000D01*
G01*
X199437800Y-101671000D01*
G75*
G02*
X199492800Y-101616000I55000J0D01*
G01*
X200782800Y-101616000D01*
G75*
G02*
X200837800Y-101671000I0J-55000D01*
G01*
G37*
G36*
G01*
X200837800Y-101171000D02*
X200837800Y-101281000D01*
G75*
G02*
X200782800Y-101336000I-55000J0D01*
G01*
X199492800Y-101336000D01*
G75*
G02*
X199437800Y-101281000I0J55000D01*
G01*
X199437800Y-101171000D01*
G75*
G02*
X199492800Y-101116000I55000J0D01*
G01*
X200782800Y-101116000D01*
G75*
G02*
X200837800Y-101171000I0J-55000D01*
G01*
G37*
G36*
G01*
X200837800Y-100671000D02*
X200837800Y-100781000D01*
G75*
G02*
X200782800Y-100836000I-55000J0D01*
G01*
X199492800Y-100836000D01*
G75*
G02*
X199437800Y-100781000I0J55000D01*
G01*
X199437800Y-100671000D01*
G75*
G02*
X199492800Y-100616000I55000J0D01*
G01*
X200782800Y-100616000D01*
G75*
G02*
X200837800Y-100671000I0J-55000D01*
G01*
G37*
G36*
G01*
X200837800Y-100171000D02*
X200837800Y-100281000D01*
G75*
G02*
X200782800Y-100336000I-55000J0D01*
G01*
X199492800Y-100336000D01*
G75*
G02*
X199437800Y-100281000I0J55000D01*
G01*
X199437800Y-100171000D01*
G75*
G02*
X199492800Y-100116000I55000J0D01*
G01*
X200782800Y-100116000D01*
G75*
G02*
X200837800Y-100171000I0J-55000D01*
G01*
G37*
G36*
G01*
X200837800Y-99671000D02*
X200837800Y-99781000D01*
G75*
G02*
X200782800Y-99836000I-55000J0D01*
G01*
X199492800Y-99836000D01*
G75*
G02*
X199437800Y-99781000I0J55000D01*
G01*
X199437800Y-99671000D01*
G75*
G02*
X199492800Y-99616000I55000J0D01*
G01*
X200782800Y-99616000D01*
G75*
G02*
X200837800Y-99671000I0J-55000D01*
G01*
G37*
G36*
G01*
X200837800Y-99171000D02*
X200837800Y-99281000D01*
G75*
G02*
X200782800Y-99336000I-55000J0D01*
G01*
X199492800Y-99336000D01*
G75*
G02*
X199437800Y-99281000I0J55000D01*
G01*
X199437800Y-99171000D01*
G75*
G02*
X199492800Y-99116000I55000J0D01*
G01*
X200782800Y-99116000D01*
G75*
G02*
X200837800Y-99171000I0J-55000D01*
G01*
G37*
G36*
G01*
X200837800Y-98671000D02*
X200837800Y-98781000D01*
G75*
G02*
X200782800Y-98836000I-55000J0D01*
G01*
X199492800Y-98836000D01*
G75*
G02*
X199437800Y-98781000I0J55000D01*
G01*
X199437800Y-98671000D01*
G75*
G02*
X199492800Y-98616000I55000J0D01*
G01*
X200782800Y-98616000D01*
G75*
G02*
X200837800Y-98671000I0J-55000D01*
G01*
G37*
G36*
G01*
X200837800Y-98171000D02*
X200837800Y-98281000D01*
G75*
G02*
X200782800Y-98336000I-55000J0D01*
G01*
X199492800Y-98336000D01*
G75*
G02*
X199437800Y-98281000I0J55000D01*
G01*
X199437800Y-98171000D01*
G75*
G02*
X199492800Y-98116000I55000J0D01*
G01*
X200782800Y-98116000D01*
G75*
G02*
X200837800Y-98171000I0J-55000D01*
G01*
G37*
G36*
G01*
X200837800Y-97671000D02*
X200837800Y-97781000D01*
G75*
G02*
X200782800Y-97836000I-55000J0D01*
G01*
X199492800Y-97836000D01*
G75*
G02*
X199437800Y-97781000I0J55000D01*
G01*
X199437800Y-97671000D01*
G75*
G02*
X199492800Y-97616000I55000J0D01*
G01*
X200782800Y-97616000D01*
G75*
G02*
X200837800Y-97671000I0J-55000D01*
G01*
G37*
G36*
G01*
X200837800Y-97171000D02*
X200837800Y-97281000D01*
G75*
G02*
X200782800Y-97336000I-55000J0D01*
G01*
X199492800Y-97336000D01*
G75*
G02*
X199437800Y-97281000I0J55000D01*
G01*
X199437800Y-97171000D01*
G75*
G02*
X199492800Y-97116000I55000J0D01*
G01*
X200782800Y-97116000D01*
G75*
G02*
X200837800Y-97171000I0J-55000D01*
G01*
G37*
G36*
G01*
X200837800Y-96671000D02*
X200837800Y-96781000D01*
G75*
G02*
X200782800Y-96836000I-55000J0D01*
G01*
X199492800Y-96836000D01*
G75*
G02*
X199437800Y-96781000I0J55000D01*
G01*
X199437800Y-96671000D01*
G75*
G02*
X199492800Y-96616000I55000J0D01*
G01*
X200782800Y-96616000D01*
G75*
G02*
X200837800Y-96671000I0J-55000D01*
G01*
G37*
G36*
G01*
X200837800Y-96171000D02*
X200837800Y-96281000D01*
G75*
G02*
X200782800Y-96336000I-55000J0D01*
G01*
X199492800Y-96336000D01*
G75*
G02*
X199437800Y-96281000I0J55000D01*
G01*
X199437800Y-96171000D01*
G75*
G02*
X199492800Y-96116000I55000J0D01*
G01*
X200782800Y-96116000D01*
G75*
G02*
X200837800Y-96171000I0J-55000D01*
G01*
G37*
G36*
G01*
X200837800Y-95671000D02*
X200837800Y-95781000D01*
G75*
G02*
X200782800Y-95836000I-55000J0D01*
G01*
X199492800Y-95836000D01*
G75*
G02*
X199437800Y-95781000I0J55000D01*
G01*
X199437800Y-95671000D01*
G75*
G02*
X199492800Y-95616000I55000J0D01*
G01*
X200782800Y-95616000D01*
G75*
G02*
X200837800Y-95671000I0J-55000D01*
G01*
G37*
G36*
G01*
X200837800Y-95171000D02*
X200837800Y-95281000D01*
G75*
G02*
X200782800Y-95336000I-55000J0D01*
G01*
X199492800Y-95336000D01*
G75*
G02*
X199437800Y-95281000I0J55000D01*
G01*
X199437800Y-95171000D01*
G75*
G02*
X199492800Y-95116000I55000J0D01*
G01*
X200782800Y-95116000D01*
G75*
G02*
X200837800Y-95171000I0J-55000D01*
G01*
G37*
G36*
G01*
X200837800Y-94671000D02*
X200837800Y-94781000D01*
G75*
G02*
X200782800Y-94836000I-55000J0D01*
G01*
X199492800Y-94836000D01*
G75*
G02*
X199437800Y-94781000I0J55000D01*
G01*
X199437800Y-94671000D01*
G75*
G02*
X199492800Y-94616000I55000J0D01*
G01*
X200782800Y-94616000D01*
G75*
G02*
X200837800Y-94671000I0J-55000D01*
G01*
G37*
G36*
G01*
X200837800Y-94171000D02*
X200837800Y-94281000D01*
G75*
G02*
X200782800Y-94336000I-55000J0D01*
G01*
X199492800Y-94336000D01*
G75*
G02*
X199437800Y-94281000I0J55000D01*
G01*
X199437800Y-94171000D01*
G75*
G02*
X199492800Y-94116000I55000J0D01*
G01*
X200782800Y-94116000D01*
G75*
G02*
X200837800Y-94171000I0J-55000D01*
G01*
G37*
G36*
G01*
X200837800Y-93671000D02*
X200837800Y-93781000D01*
G75*
G02*
X200782800Y-93836000I-55000J0D01*
G01*
X199492800Y-93836000D01*
G75*
G02*
X199437800Y-93781000I0J55000D01*
G01*
X199437800Y-93671000D01*
G75*
G02*
X199492800Y-93616000I55000J0D01*
G01*
X200782800Y-93616000D01*
G75*
G02*
X200837800Y-93671000I0J-55000D01*
G01*
G37*
G36*
G01*
X200837800Y-93171000D02*
X200837800Y-93281000D01*
G75*
G02*
X200782800Y-93336000I-55000J0D01*
G01*
X199492800Y-93336000D01*
G75*
G02*
X199437800Y-93281000I0J55000D01*
G01*
X199437800Y-93171000D01*
G75*
G02*
X199492800Y-93116000I55000J0D01*
G01*
X200782800Y-93116000D01*
G75*
G02*
X200837800Y-93171000I0J-55000D01*
G01*
G37*
G36*
G01*
X200837800Y-92671000D02*
X200837800Y-92781000D01*
G75*
G02*
X200782800Y-92836000I-55000J0D01*
G01*
X199492800Y-92836000D01*
G75*
G02*
X199437800Y-92781000I0J55000D01*
G01*
X199437800Y-92671000D01*
G75*
G02*
X199492800Y-92616000I55000J0D01*
G01*
X200782800Y-92616000D01*
G75*
G02*
X200837800Y-92671000I0J-55000D01*
G01*
G37*
G36*
G01*
X200837800Y-92171000D02*
X200837800Y-92281000D01*
G75*
G02*
X200782800Y-92336000I-55000J0D01*
G01*
X199492800Y-92336000D01*
G75*
G02*
X199437800Y-92281000I0J55000D01*
G01*
X199437800Y-92171000D01*
G75*
G02*
X199492800Y-92116000I55000J0D01*
G01*
X200782800Y-92116000D01*
G75*
G02*
X200837800Y-92171000I0J-55000D01*
G01*
G37*
G36*
G01*
X200837800Y-91671000D02*
X200837800Y-91781000D01*
G75*
G02*
X200782800Y-91836000I-55000J0D01*
G01*
X199492800Y-91836000D01*
G75*
G02*
X199437800Y-91781000I0J55000D01*
G01*
X199437800Y-91671000D01*
G75*
G02*
X199492800Y-91616000I55000J0D01*
G01*
X200782800Y-91616000D01*
G75*
G02*
X200837800Y-91671000I0J-55000D01*
G01*
G37*
G36*
G01*
X200837800Y-91171000D02*
X200837800Y-91281000D01*
G75*
G02*
X200782800Y-91336000I-55000J0D01*
G01*
X199492800Y-91336000D01*
G75*
G02*
X199437800Y-91281000I0J55000D01*
G01*
X199437800Y-91171000D01*
G75*
G02*
X199492800Y-91116000I55000J0D01*
G01*
X200782800Y-91116000D01*
G75*
G02*
X200837800Y-91171000I0J-55000D01*
G01*
G37*
G36*
G01*
X200837800Y-90671000D02*
X200837800Y-90781000D01*
G75*
G02*
X200782800Y-90836000I-55000J0D01*
G01*
X199492800Y-90836000D01*
G75*
G02*
X199437800Y-90781000I0J55000D01*
G01*
X199437800Y-90671000D01*
G75*
G02*
X199492800Y-90616000I55000J0D01*
G01*
X200782800Y-90616000D01*
G75*
G02*
X200837800Y-90671000I0J-55000D01*
G01*
G37*
G36*
G01*
X200837800Y-90171000D02*
X200837800Y-90281000D01*
G75*
G02*
X200782800Y-90336000I-55000J0D01*
G01*
X199492800Y-90336000D01*
G75*
G02*
X199437800Y-90281000I0J55000D01*
G01*
X199437800Y-90171000D01*
G75*
G02*
X199492800Y-90116000I55000J0D01*
G01*
X200782800Y-90116000D01*
G75*
G02*
X200837800Y-90171000I0J-55000D01*
G01*
G37*
G36*
G01*
X200837800Y-89671000D02*
X200837800Y-89781000D01*
G75*
G02*
X200782800Y-89836000I-55000J0D01*
G01*
X199492800Y-89836000D01*
G75*
G02*
X199437800Y-89781000I0J55000D01*
G01*
X199437800Y-89671000D01*
G75*
G02*
X199492800Y-89616000I55000J0D01*
G01*
X200782800Y-89616000D01*
G75*
G02*
X200837800Y-89671000I0J-55000D01*
G01*
G37*
G36*
G01*
X200875300Y-89171000D02*
X200875300Y-89281000D01*
G75*
G02*
X200820300Y-89336000I-55000J0D01*
G01*
X199455300Y-89336000D01*
G75*
G02*
X199400300Y-89281000I0J55000D01*
G01*
X199400300Y-89171000D01*
G75*
G02*
X199455300Y-89116000I55000J0D01*
G01*
X200820300Y-89116000D01*
G75*
G02*
X200875300Y-89171000I0J-55000D01*
G01*
G37*
G36*
G01*
X200837800Y-88671000D02*
X200837800Y-88781000D01*
G75*
G02*
X200782800Y-88836000I-55000J0D01*
G01*
X199492800Y-88836000D01*
G75*
G02*
X199437800Y-88781000I0J55000D01*
G01*
X199437800Y-88671000D01*
G75*
G02*
X199492800Y-88616000I55000J0D01*
G01*
X200782800Y-88616000D01*
G75*
G02*
X200837800Y-88671000I0J-55000D01*
G01*
G37*
G36*
G01*
X200837800Y-88171000D02*
X200837800Y-88281000D01*
G75*
G02*
X200782800Y-88336000I-55000J0D01*
G01*
X199492800Y-88336000D01*
G75*
G02*
X199437800Y-88281000I0J55000D01*
G01*
X199437800Y-88171000D01*
G75*
G02*
X199492800Y-88116000I55000J0D01*
G01*
X200782800Y-88116000D01*
G75*
G02*
X200837800Y-88171000I0J-55000D01*
G01*
G37*
G36*
G01*
X200837800Y-87671000D02*
X200837800Y-87781000D01*
G75*
G02*
X200782800Y-87836000I-55000J0D01*
G01*
X199492800Y-87836000D01*
G75*
G02*
X199437800Y-87781000I0J55000D01*
G01*
X199437800Y-87671000D01*
G75*
G02*
X199492800Y-87616000I55000J0D01*
G01*
X200782800Y-87616000D01*
G75*
G02*
X200837800Y-87671000I0J-55000D01*
G01*
G37*
G36*
G01*
X200837800Y-87171000D02*
X200837800Y-87281000D01*
G75*
G02*
X200782800Y-87336000I-55000J0D01*
G01*
X199492800Y-87336000D01*
G75*
G02*
X199437800Y-87281000I0J55000D01*
G01*
X199437800Y-87171000D01*
G75*
G02*
X199492800Y-87116000I55000J0D01*
G01*
X200782800Y-87116000D01*
G75*
G02*
X200837800Y-87171000I0J-55000D01*
G01*
G37*
G36*
G01*
X200837800Y-86671000D02*
X200837800Y-86781000D01*
G75*
G02*
X200782800Y-86836000I-55000J0D01*
G01*
X199492800Y-86836000D01*
G75*
G02*
X199437800Y-86781000I0J55000D01*
G01*
X199437800Y-86671000D01*
G75*
G02*
X199492800Y-86616000I55000J0D01*
G01*
X200782800Y-86616000D01*
G75*
G02*
X200837800Y-86671000I0J-55000D01*
G01*
G37*
G36*
G01*
X200837800Y-86171000D02*
X200837800Y-86281000D01*
G75*
G02*
X200782800Y-86336000I-55000J0D01*
G01*
X199492800Y-86336000D01*
G75*
G02*
X199437800Y-86281000I0J55000D01*
G01*
X199437800Y-86171000D01*
G75*
G02*
X199492800Y-86116000I55000J0D01*
G01*
X200782800Y-86116000D01*
G75*
G02*
X200837800Y-86171000I0J-55000D01*
G01*
G37*
G36*
G01*
X200837800Y-85671000D02*
X200837800Y-85781000D01*
G75*
G02*
X200782800Y-85836000I-55000J0D01*
G01*
X199492800Y-85836000D01*
G75*
G02*
X199437800Y-85781000I0J55000D01*
G01*
X199437800Y-85671000D01*
G75*
G02*
X199492800Y-85616000I55000J0D01*
G01*
X200782800Y-85616000D01*
G75*
G02*
X200837800Y-85671000I0J-55000D01*
G01*
G37*
G36*
G01*
X200837800Y-85171000D02*
X200837800Y-85281000D01*
G75*
G02*
X200782800Y-85336000I-55000J0D01*
G01*
X199492800Y-85336000D01*
G75*
G02*
X199437800Y-85281000I0J55000D01*
G01*
X199437800Y-85171000D01*
G75*
G02*
X199492800Y-85116000I55000J0D01*
G01*
X200782800Y-85116000D01*
G75*
G02*
X200837800Y-85171000I0J-55000D01*
G01*
G37*
G36*
G01*
X200837800Y-84671000D02*
X200837800Y-84781000D01*
G75*
G02*
X200782800Y-84836000I-55000J0D01*
G01*
X199492800Y-84836000D01*
G75*
G02*
X199437800Y-84781000I0J55000D01*
G01*
X199437800Y-84671000D01*
G75*
G02*
X199492800Y-84616000I55000J0D01*
G01*
X200782800Y-84616000D01*
G75*
G02*
X200837800Y-84671000I0J-55000D01*
G01*
G37*
G36*
G01*
X212397800Y-103171000D02*
X212397800Y-103281000D01*
G75*
G02*
X212342800Y-103336000I-55000J0D01*
G01*
X211052800Y-103336000D01*
G75*
G02*
X210997800Y-103281000I0J55000D01*
G01*
X210997800Y-103171000D01*
G75*
G02*
X211052800Y-103116000I55000J0D01*
G01*
X212342800Y-103116000D01*
G75*
G02*
X212397800Y-103171000I0J-55000D01*
G01*
G37*
G36*
G01*
X212397800Y-103671000D02*
X212397800Y-103781000D01*
G75*
G02*
X212342800Y-103836000I-55000J0D01*
G01*
X211052800Y-103836000D01*
G75*
G02*
X210997800Y-103781000I0J55000D01*
G01*
X210997800Y-103671000D01*
G75*
G02*
X211052800Y-103616000I55000J0D01*
G01*
X212342800Y-103616000D01*
G75*
G02*
X212397800Y-103671000I0J-55000D01*
G01*
G37*
G36*
G01*
X212397800Y-104171000D02*
X212397800Y-104281000D01*
G75*
G02*
X212342800Y-104336000I-55000J0D01*
G01*
X211052800Y-104336000D01*
G75*
G02*
X210997800Y-104281000I0J55000D01*
G01*
X210997800Y-104171000D01*
G75*
G02*
X211052800Y-104116000I55000J0D01*
G01*
X212342800Y-104116000D01*
G75*
G02*
X212397800Y-104171000I0J-55000D01*
G01*
G37*
G36*
G01*
X200837800Y-84171000D02*
X200837800Y-84281000D01*
G75*
G02*
X200782800Y-84336000I-55000J0D01*
G01*
X199492800Y-84336000D01*
G75*
G02*
X199437800Y-84281000I0J55000D01*
G01*
X199437800Y-84171000D01*
G75*
G02*
X199492800Y-84116000I55000J0D01*
G01*
X200782800Y-84116000D01*
G75*
G02*
X200837800Y-84171000I0J-55000D01*
G01*
G37*
G36*
G01*
X200837800Y-83671000D02*
X200837800Y-83781000D01*
G75*
G02*
X200782800Y-83836000I-55000J0D01*
G01*
X199492800Y-83836000D01*
G75*
G02*
X199437800Y-83781000I0J55000D01*
G01*
X199437800Y-83671000D01*
G75*
G02*
X199492800Y-83616000I55000J0D01*
G01*
X200782800Y-83616000D01*
G75*
G02*
X200837800Y-83671000I0J-55000D01*
G01*
G37*
G36*
G01*
X200837800Y-83171000D02*
X200837800Y-83281000D01*
G75*
G02*
X200782800Y-83336000I-55000J0D01*
G01*
X199492800Y-83336000D01*
G75*
G02*
X199437800Y-83281000I0J55000D01*
G01*
X199437800Y-83171000D01*
G75*
G02*
X199492800Y-83116000I55000J0D01*
G01*
X200782800Y-83116000D01*
G75*
G02*
X200837800Y-83171000I0J-55000D01*
G01*
G37*
G36*
G01*
X163000200Y-96519700D02*
X163000200Y-96864700D01*
G75*
G02*
X162852700Y-97012200I-147500J0D01*
G01*
X162557700Y-97012200D01*
G75*
G02*
X162410200Y-96864700I0J147500D01*
G01*
X162410200Y-96519700D01*
G75*
G02*
X162557700Y-96372200I147500J0D01*
G01*
X162852700Y-96372200D01*
G75*
G02*
X163000200Y-96519700I0J-147500D01*
G01*
G37*
G36*
G01*
X163970200Y-96519700D02*
X163970200Y-96864700D01*
G75*
G02*
X163822700Y-97012200I-147500J0D01*
G01*
X163527700Y-97012200D01*
G75*
G02*
X163380200Y-96864700I0J147500D01*
G01*
X163380200Y-96519700D01*
G75*
G02*
X163527700Y-96372200I147500J0D01*
G01*
X163822700Y-96372200D01*
G75*
G02*
X163970200Y-96519700I0J-147500D01*
G01*
G37*
G36*
G01*
X139352500Y-95450000D02*
X139007500Y-95450000D01*
G75*
G02*
X138860000Y-95302500I0J147500D01*
G01*
X138860000Y-95007500D01*
G75*
G02*
X139007500Y-94860000I147500J0D01*
G01*
X139352500Y-94860000D01*
G75*
G02*
X139500000Y-95007500I0J-147500D01*
G01*
X139500000Y-95302500D01*
G75*
G02*
X139352500Y-95450000I-147500J0D01*
G01*
G37*
G36*
G01*
X139352500Y-96420000D02*
X139007500Y-96420000D01*
G75*
G02*
X138860000Y-96272500I0J147500D01*
G01*
X138860000Y-95977500D01*
G75*
G02*
X139007500Y-95830000I147500J0D01*
G01*
X139352500Y-95830000D01*
G75*
G02*
X139500000Y-95977500I0J-147500D01*
G01*
X139500000Y-96272500D01*
G75*
G02*
X139352500Y-96420000I-147500J0D01*
G01*
G37*
G36*
G01*
X134533700Y-112066600D02*
X134878700Y-112066600D01*
G75*
G02*
X135026200Y-112214100I0J-147500D01*
G01*
X135026200Y-112509100D01*
G75*
G02*
X134878700Y-112656600I-147500J0D01*
G01*
X134533700Y-112656600D01*
G75*
G02*
X134386200Y-112509100I0J147500D01*
G01*
X134386200Y-112214100D01*
G75*
G02*
X134533700Y-112066600I147500J0D01*
G01*
G37*
G36*
G01*
X134533700Y-111096600D02*
X134878700Y-111096600D01*
G75*
G02*
X135026200Y-111244100I0J-147500D01*
G01*
X135026200Y-111539100D01*
G75*
G02*
X134878700Y-111686600I-147500J0D01*
G01*
X134533700Y-111686600D01*
G75*
G02*
X134386200Y-111539100I0J147500D01*
G01*
X134386200Y-111244100D01*
G75*
G02*
X134533700Y-111096600I147500J0D01*
G01*
G37*
D11*
X64068000Y-33263600D03*
X64068000Y-31963600D03*
X61408000Y-31963600D03*
X61408000Y-32613600D03*
X61408000Y-33263600D03*
G36*
G01*
X56782200Y-51135500D02*
X56782200Y-51480500D01*
G75*
G02*
X56634700Y-51628000I-147500J0D01*
G01*
X56339700Y-51628000D01*
G75*
G02*
X56192200Y-51480500I0J147500D01*
G01*
X56192200Y-51135500D01*
G75*
G02*
X56339700Y-50988000I147500J0D01*
G01*
X56634700Y-50988000D01*
G75*
G02*
X56782200Y-51135500I0J-147500D01*
G01*
G37*
G36*
G01*
X57752200Y-51135500D02*
X57752200Y-51480500D01*
G75*
G02*
X57604700Y-51628000I-147500J0D01*
G01*
X57309700Y-51628000D01*
G75*
G02*
X57162200Y-51480500I0J147500D01*
G01*
X57162200Y-51135500D01*
G75*
G02*
X57309700Y-50988000I147500J0D01*
G01*
X57604700Y-50988000D01*
G75*
G02*
X57752200Y-51135500I0J-147500D01*
G01*
G37*
G36*
G01*
X141788100Y-95211400D02*
X142133100Y-95211400D01*
G75*
G02*
X142280600Y-95358900I0J-147500D01*
G01*
X142280600Y-95653900D01*
G75*
G02*
X142133100Y-95801400I-147500J0D01*
G01*
X141788100Y-95801400D01*
G75*
G02*
X141640600Y-95653900I0J147500D01*
G01*
X141640600Y-95358900D01*
G75*
G02*
X141788100Y-95211400I147500J0D01*
G01*
G37*
G36*
G01*
X141788100Y-94241400D02*
X142133100Y-94241400D01*
G75*
G02*
X142280600Y-94388900I0J-147500D01*
G01*
X142280600Y-94683900D01*
G75*
G02*
X142133100Y-94831400I-147500J0D01*
G01*
X141788100Y-94831400D01*
G75*
G02*
X141640600Y-94683900I0J147500D01*
G01*
X141640600Y-94388900D01*
G75*
G02*
X141788100Y-94241400I147500J0D01*
G01*
G37*
G36*
G01*
X143693100Y-95211400D02*
X144038100Y-95211400D01*
G75*
G02*
X144185600Y-95358900I0J-147500D01*
G01*
X144185600Y-95653900D01*
G75*
G02*
X144038100Y-95801400I-147500J0D01*
G01*
X143693100Y-95801400D01*
G75*
G02*
X143545600Y-95653900I0J147500D01*
G01*
X143545600Y-95358900D01*
G75*
G02*
X143693100Y-95211400I147500J0D01*
G01*
G37*
G36*
G01*
X143693100Y-94241400D02*
X144038100Y-94241400D01*
G75*
G02*
X144185600Y-94388900I0J-147500D01*
G01*
X144185600Y-94683900D01*
G75*
G02*
X144038100Y-94831400I-147500J0D01*
G01*
X143693100Y-94831400D01*
G75*
G02*
X143545600Y-94683900I0J147500D01*
G01*
X143545600Y-94388900D01*
G75*
G02*
X143693100Y-94241400I147500J0D01*
G01*
G37*
G36*
G01*
X145445700Y-95287600D02*
X145790700Y-95287600D01*
G75*
G02*
X145938200Y-95435100I0J-147500D01*
G01*
X145938200Y-95730100D01*
G75*
G02*
X145790700Y-95877600I-147500J0D01*
G01*
X145445700Y-95877600D01*
G75*
G02*
X145298200Y-95730100I0J147500D01*
G01*
X145298200Y-95435100D01*
G75*
G02*
X145445700Y-95287600I147500J0D01*
G01*
G37*
G36*
G01*
X145445700Y-94317600D02*
X145790700Y-94317600D01*
G75*
G02*
X145938200Y-94465100I0J-147500D01*
G01*
X145938200Y-94760100D01*
G75*
G02*
X145790700Y-94907600I-147500J0D01*
G01*
X145445700Y-94907600D01*
G75*
G02*
X145298200Y-94760100I0J147500D01*
G01*
X145298200Y-94465100D01*
G75*
G02*
X145445700Y-94317600I147500J0D01*
G01*
G37*
G36*
G01*
X149593800Y-95991900D02*
X149593800Y-96336900D01*
G75*
G02*
X149446300Y-96484400I-147500J0D01*
G01*
X149151300Y-96484400D01*
G75*
G02*
X149003800Y-96336900I0J147500D01*
G01*
X149003800Y-95991900D01*
G75*
G02*
X149151300Y-95844400I147500J0D01*
G01*
X149446300Y-95844400D01*
G75*
G02*
X149593800Y-95991900I0J-147500D01*
G01*
G37*
G36*
G01*
X150563800Y-95991900D02*
X150563800Y-96336900D01*
G75*
G02*
X150416300Y-96484400I-147500J0D01*
G01*
X150121300Y-96484400D01*
G75*
G02*
X149973800Y-96336900I0J147500D01*
G01*
X149973800Y-95991900D01*
G75*
G02*
X150121300Y-95844400I147500J0D01*
G01*
X150416300Y-95844400D01*
G75*
G02*
X150563800Y-95991900I0J-147500D01*
G01*
G37*
G36*
G01*
X152972000Y-103408700D02*
X152972000Y-103753700D01*
G75*
G02*
X152824500Y-103901200I-147500J0D01*
G01*
X152529500Y-103901200D01*
G75*
G02*
X152382000Y-103753700I0J147500D01*
G01*
X152382000Y-103408700D01*
G75*
G02*
X152529500Y-103261200I147500J0D01*
G01*
X152824500Y-103261200D01*
G75*
G02*
X152972000Y-103408700I0J-147500D01*
G01*
G37*
G36*
G01*
X153942000Y-103408700D02*
X153942000Y-103753700D01*
G75*
G02*
X153794500Y-103901200I-147500J0D01*
G01*
X153499500Y-103901200D01*
G75*
G02*
X153352000Y-103753700I0J147500D01*
G01*
X153352000Y-103408700D01*
G75*
G02*
X153499500Y-103261200I147500J0D01*
G01*
X153794500Y-103261200D01*
G75*
G02*
X153942000Y-103408700I0J-147500D01*
G01*
G37*
G36*
G01*
X152921200Y-105847100D02*
X152921200Y-106192100D01*
G75*
G02*
X152773700Y-106339600I-147500J0D01*
G01*
X152478700Y-106339600D01*
G75*
G02*
X152331200Y-106192100I0J147500D01*
G01*
X152331200Y-105847100D01*
G75*
G02*
X152478700Y-105699600I147500J0D01*
G01*
X152773700Y-105699600D01*
G75*
G02*
X152921200Y-105847100I0J-147500D01*
G01*
G37*
G36*
G01*
X153891200Y-105847100D02*
X153891200Y-106192100D01*
G75*
G02*
X153743700Y-106339600I-147500J0D01*
G01*
X153448700Y-106339600D01*
G75*
G02*
X153301200Y-106192100I0J147500D01*
G01*
X153301200Y-105847100D01*
G75*
G02*
X153448700Y-105699600I147500J0D01*
G01*
X153743700Y-105699600D01*
G75*
G02*
X153891200Y-105847100I0J-147500D01*
G01*
G37*
G36*
G01*
X162975200Y-95149700D02*
X162975200Y-95494700D01*
G75*
G02*
X162827700Y-95642200I-147500J0D01*
G01*
X162532700Y-95642200D01*
G75*
G02*
X162385200Y-95494700I0J147500D01*
G01*
X162385200Y-95149700D01*
G75*
G02*
X162532700Y-95002200I147500J0D01*
G01*
X162827700Y-95002200D01*
G75*
G02*
X162975200Y-95149700I0J-147500D01*
G01*
G37*
G36*
G01*
X163945200Y-95149700D02*
X163945200Y-95494700D01*
G75*
G02*
X163797700Y-95642200I-147500J0D01*
G01*
X163502700Y-95642200D01*
G75*
G02*
X163355200Y-95494700I0J147500D01*
G01*
X163355200Y-95149700D01*
G75*
G02*
X163502700Y-95002200I147500J0D01*
G01*
X163797700Y-95002200D01*
G75*
G02*
X163945200Y-95149700I0J-147500D01*
G01*
G37*
G36*
G01*
X169050200Y-89464100D02*
X169050200Y-89809100D01*
G75*
G02*
X168902700Y-89956600I-147500J0D01*
G01*
X168607700Y-89956600D01*
G75*
G02*
X168460200Y-89809100I0J147500D01*
G01*
X168460200Y-89464100D01*
G75*
G02*
X168607700Y-89316600I147500J0D01*
G01*
X168902700Y-89316600D01*
G75*
G02*
X169050200Y-89464100I0J-147500D01*
G01*
G37*
G36*
G01*
X170020200Y-89464100D02*
X170020200Y-89809100D01*
G75*
G02*
X169872700Y-89956600I-147500J0D01*
G01*
X169577700Y-89956600D01*
G75*
G02*
X169430200Y-89809100I0J147500D01*
G01*
X169430200Y-89464100D01*
G75*
G02*
X169577700Y-89316600I147500J0D01*
G01*
X169872700Y-89316600D01*
G75*
G02*
X170020200Y-89464100I0J-147500D01*
G01*
G37*
G36*
G01*
X169050200Y-88194100D02*
X169050200Y-88539100D01*
G75*
G02*
X168902700Y-88686600I-147500J0D01*
G01*
X168607700Y-88686600D01*
G75*
G02*
X168460200Y-88539100I0J147500D01*
G01*
X168460200Y-88194100D01*
G75*
G02*
X168607700Y-88046600I147500J0D01*
G01*
X168902700Y-88046600D01*
G75*
G02*
X169050200Y-88194100I0J-147500D01*
G01*
G37*
G36*
G01*
X170020200Y-88194100D02*
X170020200Y-88539100D01*
G75*
G02*
X169872700Y-88686600I-147500J0D01*
G01*
X169577700Y-88686600D01*
G75*
G02*
X169430200Y-88539100I0J147500D01*
G01*
X169430200Y-88194100D01*
G75*
G02*
X169577700Y-88046600I147500J0D01*
G01*
X169872700Y-88046600D01*
G75*
G02*
X170020200Y-88194100I0J-147500D01*
G01*
G37*
G36*
G01*
X169050200Y-85654100D02*
X169050200Y-85999100D01*
G75*
G02*
X168902700Y-86146600I-147500J0D01*
G01*
X168607700Y-86146600D01*
G75*
G02*
X168460200Y-85999100I0J147500D01*
G01*
X168460200Y-85654100D01*
G75*
G02*
X168607700Y-85506600I147500J0D01*
G01*
X168902700Y-85506600D01*
G75*
G02*
X169050200Y-85654100I0J-147500D01*
G01*
G37*
G36*
G01*
X170020200Y-85654100D02*
X170020200Y-85999100D01*
G75*
G02*
X169872700Y-86146600I-147500J0D01*
G01*
X169577700Y-86146600D01*
G75*
G02*
X169430200Y-85999100I0J147500D01*
G01*
X169430200Y-85654100D01*
G75*
G02*
X169577700Y-85506600I147500J0D01*
G01*
X169872700Y-85506600D01*
G75*
G02*
X170020200Y-85654100I0J-147500D01*
G01*
G37*
G36*
G01*
X169046200Y-84428100D02*
X169046200Y-84773100D01*
G75*
G02*
X168898700Y-84920600I-147500J0D01*
G01*
X168603700Y-84920600D01*
G75*
G02*
X168456200Y-84773100I0J147500D01*
G01*
X168456200Y-84428100D01*
G75*
G02*
X168603700Y-84280600I147500J0D01*
G01*
X168898700Y-84280600D01*
G75*
G02*
X169046200Y-84428100I0J-147500D01*
G01*
G37*
G36*
G01*
X170016200Y-84428100D02*
X170016200Y-84773100D01*
G75*
G02*
X169868700Y-84920600I-147500J0D01*
G01*
X169573700Y-84920600D01*
G75*
G02*
X169426200Y-84773100I0J147500D01*
G01*
X169426200Y-84428100D01*
G75*
G02*
X169573700Y-84280600I147500J0D01*
G01*
X169868700Y-84280600D01*
G75*
G02*
X170016200Y-84428100I0J-147500D01*
G01*
G37*
G36*
G01*
X169027200Y-82860100D02*
X169027200Y-83205100D01*
G75*
G02*
X168879700Y-83352600I-147500J0D01*
G01*
X168584700Y-83352600D01*
G75*
G02*
X168437200Y-83205100I0J147500D01*
G01*
X168437200Y-82860100D01*
G75*
G02*
X168584700Y-82712600I147500J0D01*
G01*
X168879700Y-82712600D01*
G75*
G02*
X169027200Y-82860100I0J-147500D01*
G01*
G37*
G36*
G01*
X169997200Y-82860100D02*
X169997200Y-83205100D01*
G75*
G02*
X169849700Y-83352600I-147500J0D01*
G01*
X169554700Y-83352600D01*
G75*
G02*
X169407200Y-83205100I0J147500D01*
G01*
X169407200Y-82860100D01*
G75*
G02*
X169554700Y-82712600I147500J0D01*
G01*
X169849700Y-82712600D01*
G75*
G02*
X169997200Y-82860100I0J-147500D01*
G01*
G37*
G36*
G01*
X169050200Y-81336100D02*
X169050200Y-81681100D01*
G75*
G02*
X168902700Y-81828600I-147500J0D01*
G01*
X168607700Y-81828600D01*
G75*
G02*
X168460200Y-81681100I0J147500D01*
G01*
X168460200Y-81336100D01*
G75*
G02*
X168607700Y-81188600I147500J0D01*
G01*
X168902700Y-81188600D01*
G75*
G02*
X169050200Y-81336100I0J-147500D01*
G01*
G37*
G36*
G01*
X170020200Y-81336100D02*
X170020200Y-81681100D01*
G75*
G02*
X169872700Y-81828600I-147500J0D01*
G01*
X169577700Y-81828600D01*
G75*
G02*
X169430200Y-81681100I0J147500D01*
G01*
X169430200Y-81336100D01*
G75*
G02*
X169577700Y-81188600I147500J0D01*
G01*
X169872700Y-81188600D01*
G75*
G02*
X170020200Y-81336100I0J-147500D01*
G01*
G37*
G36*
G01*
X169050200Y-79812100D02*
X169050200Y-80157100D01*
G75*
G02*
X168902700Y-80304600I-147500J0D01*
G01*
X168607700Y-80304600D01*
G75*
G02*
X168460200Y-80157100I0J147500D01*
G01*
X168460200Y-79812100D01*
G75*
G02*
X168607700Y-79664600I147500J0D01*
G01*
X168902700Y-79664600D01*
G75*
G02*
X169050200Y-79812100I0J-147500D01*
G01*
G37*
G36*
G01*
X170020200Y-79812100D02*
X170020200Y-80157100D01*
G75*
G02*
X169872700Y-80304600I-147500J0D01*
G01*
X169577700Y-80304600D01*
G75*
G02*
X169430200Y-80157100I0J147500D01*
G01*
X169430200Y-79812100D01*
G75*
G02*
X169577700Y-79664600I147500J0D01*
G01*
X169872700Y-79664600D01*
G75*
G02*
X170020200Y-79812100I0J-147500D01*
G01*
G37*
G36*
G01*
X168796200Y-77272100D02*
X168796200Y-77617100D01*
G75*
G02*
X168648700Y-77764600I-147500J0D01*
G01*
X168353700Y-77764600D01*
G75*
G02*
X168206200Y-77617100I0J147500D01*
G01*
X168206200Y-77272100D01*
G75*
G02*
X168353700Y-77124600I147500J0D01*
G01*
X168648700Y-77124600D01*
G75*
G02*
X168796200Y-77272100I0J-147500D01*
G01*
G37*
G36*
G01*
X169766200Y-77272100D02*
X169766200Y-77617100D01*
G75*
G02*
X169618700Y-77764600I-147500J0D01*
G01*
X169323700Y-77764600D01*
G75*
G02*
X169176200Y-77617100I0J147500D01*
G01*
X169176200Y-77272100D01*
G75*
G02*
X169323700Y-77124600I147500J0D01*
G01*
X169618700Y-77124600D01*
G75*
G02*
X169766200Y-77272100I0J-147500D01*
G01*
G37*
G36*
G01*
X168796200Y-75748100D02*
X168796200Y-76093100D01*
G75*
G02*
X168648700Y-76240600I-147500J0D01*
G01*
X168353700Y-76240600D01*
G75*
G02*
X168206200Y-76093100I0J147500D01*
G01*
X168206200Y-75748100D01*
G75*
G02*
X168353700Y-75600600I147500J0D01*
G01*
X168648700Y-75600600D01*
G75*
G02*
X168796200Y-75748100I0J-147500D01*
G01*
G37*
G36*
G01*
X169766200Y-75748100D02*
X169766200Y-76093100D01*
G75*
G02*
X169618700Y-76240600I-147500J0D01*
G01*
X169323700Y-76240600D01*
G75*
G02*
X169176200Y-76093100I0J147500D01*
G01*
X169176200Y-75748100D01*
G75*
G02*
X169323700Y-75600600I147500J0D01*
G01*
X169618700Y-75600600D01*
G75*
G02*
X169766200Y-75748100I0J-147500D01*
G01*
G37*
G36*
G01*
X168796200Y-74478100D02*
X168796200Y-74823100D01*
G75*
G02*
X168648700Y-74970600I-147500J0D01*
G01*
X168353700Y-74970600D01*
G75*
G02*
X168206200Y-74823100I0J147500D01*
G01*
X168206200Y-74478100D01*
G75*
G02*
X168353700Y-74330600I147500J0D01*
G01*
X168648700Y-74330600D01*
G75*
G02*
X168796200Y-74478100I0J-147500D01*
G01*
G37*
G36*
G01*
X169766200Y-74478100D02*
X169766200Y-74823100D01*
G75*
G02*
X169618700Y-74970600I-147500J0D01*
G01*
X169323700Y-74970600D01*
G75*
G02*
X169176200Y-74823100I0J147500D01*
G01*
X169176200Y-74478100D01*
G75*
G02*
X169323700Y-74330600I147500J0D01*
G01*
X169618700Y-74330600D01*
G75*
G02*
X169766200Y-74478100I0J-147500D01*
G01*
G37*
G36*
G01*
X168796200Y-73208100D02*
X168796200Y-73553100D01*
G75*
G02*
X168648700Y-73700600I-147500J0D01*
G01*
X168353700Y-73700600D01*
G75*
G02*
X168206200Y-73553100I0J147500D01*
G01*
X168206200Y-73208100D01*
G75*
G02*
X168353700Y-73060600I147500J0D01*
G01*
X168648700Y-73060600D01*
G75*
G02*
X168796200Y-73208100I0J-147500D01*
G01*
G37*
G36*
G01*
X169766200Y-73208100D02*
X169766200Y-73553100D01*
G75*
G02*
X169618700Y-73700600I-147500J0D01*
G01*
X169323700Y-73700600D01*
G75*
G02*
X169176200Y-73553100I0J147500D01*
G01*
X169176200Y-73208100D01*
G75*
G02*
X169323700Y-73060600I147500J0D01*
G01*
X169618700Y-73060600D01*
G75*
G02*
X169766200Y-73208100I0J-147500D01*
G01*
G37*
G36*
G01*
X168796200Y-71684100D02*
X168796200Y-72029100D01*
G75*
G02*
X168648700Y-72176600I-147500J0D01*
G01*
X168353700Y-72176600D01*
G75*
G02*
X168206200Y-72029100I0J147500D01*
G01*
X168206200Y-71684100D01*
G75*
G02*
X168353700Y-71536600I147500J0D01*
G01*
X168648700Y-71536600D01*
G75*
G02*
X168796200Y-71684100I0J-147500D01*
G01*
G37*
G36*
G01*
X169766200Y-71684100D02*
X169766200Y-72029100D01*
G75*
G02*
X169618700Y-72176600I-147500J0D01*
G01*
X169323700Y-72176600D01*
G75*
G02*
X169176200Y-72029100I0J147500D01*
G01*
X169176200Y-71684100D01*
G75*
G02*
X169323700Y-71536600I147500J0D01*
G01*
X169618700Y-71536600D01*
G75*
G02*
X169766200Y-71684100I0J-147500D01*
G01*
G37*
G36*
G01*
X168796200Y-70414100D02*
X168796200Y-70759100D01*
G75*
G02*
X168648700Y-70906600I-147500J0D01*
G01*
X168353700Y-70906600D01*
G75*
G02*
X168206200Y-70759100I0J147500D01*
G01*
X168206200Y-70414100D01*
G75*
G02*
X168353700Y-70266600I147500J0D01*
G01*
X168648700Y-70266600D01*
G75*
G02*
X168796200Y-70414100I0J-147500D01*
G01*
G37*
G36*
G01*
X169766200Y-70414100D02*
X169766200Y-70759100D01*
G75*
G02*
X169618700Y-70906600I-147500J0D01*
G01*
X169323700Y-70906600D01*
G75*
G02*
X169176200Y-70759100I0J147500D01*
G01*
X169176200Y-70414100D01*
G75*
G02*
X169323700Y-70266600I147500J0D01*
G01*
X169618700Y-70266600D01*
G75*
G02*
X169766200Y-70414100I0J-147500D01*
G01*
G37*
G36*
G01*
X168796200Y-67874100D02*
X168796200Y-68219100D01*
G75*
G02*
X168648700Y-68366600I-147500J0D01*
G01*
X168353700Y-68366600D01*
G75*
G02*
X168206200Y-68219100I0J147500D01*
G01*
X168206200Y-67874100D01*
G75*
G02*
X168353700Y-67726600I147500J0D01*
G01*
X168648700Y-67726600D01*
G75*
G02*
X168796200Y-67874100I0J-147500D01*
G01*
G37*
G36*
G01*
X169766200Y-67874100D02*
X169766200Y-68219100D01*
G75*
G02*
X169618700Y-68366600I-147500J0D01*
G01*
X169323700Y-68366600D01*
G75*
G02*
X169176200Y-68219100I0J147500D01*
G01*
X169176200Y-67874100D01*
G75*
G02*
X169323700Y-67726600I147500J0D01*
G01*
X169618700Y-67726600D01*
G75*
G02*
X169766200Y-67874100I0J-147500D01*
G01*
G37*
G36*
G01*
X168796200Y-66096100D02*
X168796200Y-66441100D01*
G75*
G02*
X168648700Y-66588600I-147500J0D01*
G01*
X168353700Y-66588600D01*
G75*
G02*
X168206200Y-66441100I0J147500D01*
G01*
X168206200Y-66096100D01*
G75*
G02*
X168353700Y-65948600I147500J0D01*
G01*
X168648700Y-65948600D01*
G75*
G02*
X168796200Y-66096100I0J-147500D01*
G01*
G37*
G36*
G01*
X169766200Y-66096100D02*
X169766200Y-66441100D01*
G75*
G02*
X169618700Y-66588600I-147500J0D01*
G01*
X169323700Y-66588600D01*
G75*
G02*
X169176200Y-66441100I0J147500D01*
G01*
X169176200Y-66096100D01*
G75*
G02*
X169323700Y-65948600I147500J0D01*
G01*
X169618700Y-65948600D01*
G75*
G02*
X169766200Y-66096100I0J-147500D01*
G01*
G37*
G36*
G01*
X168796200Y-64064100D02*
X168796200Y-64409100D01*
G75*
G02*
X168648700Y-64556600I-147500J0D01*
G01*
X168353700Y-64556600D01*
G75*
G02*
X168206200Y-64409100I0J147500D01*
G01*
X168206200Y-64064100D01*
G75*
G02*
X168353700Y-63916600I147500J0D01*
G01*
X168648700Y-63916600D01*
G75*
G02*
X168796200Y-64064100I0J-147500D01*
G01*
G37*
G36*
G01*
X169766200Y-64064100D02*
X169766200Y-64409100D01*
G75*
G02*
X169618700Y-64556600I-147500J0D01*
G01*
X169323700Y-64556600D01*
G75*
G02*
X169176200Y-64409100I0J147500D01*
G01*
X169176200Y-64064100D01*
G75*
G02*
X169323700Y-63916600I147500J0D01*
G01*
X169618700Y-63916600D01*
G75*
G02*
X169766200Y-64064100I0J-147500D01*
G01*
G37*
G36*
G01*
X168796200Y-62032100D02*
X168796200Y-62377100D01*
G75*
G02*
X168648700Y-62524600I-147500J0D01*
G01*
X168353700Y-62524600D01*
G75*
G02*
X168206200Y-62377100I0J147500D01*
G01*
X168206200Y-62032100D01*
G75*
G02*
X168353700Y-61884600I147500J0D01*
G01*
X168648700Y-61884600D01*
G75*
G02*
X168796200Y-62032100I0J-147500D01*
G01*
G37*
G36*
G01*
X169766200Y-62032100D02*
X169766200Y-62377100D01*
G75*
G02*
X169618700Y-62524600I-147500J0D01*
G01*
X169323700Y-62524600D01*
G75*
G02*
X169176200Y-62377100I0J147500D01*
G01*
X169176200Y-62032100D01*
G75*
G02*
X169323700Y-61884600I147500J0D01*
G01*
X169618700Y-61884600D01*
G75*
G02*
X169766200Y-62032100I0J-147500D01*
G01*
G37*
G36*
G01*
X168519200Y-60508100D02*
X168519200Y-60853100D01*
G75*
G02*
X168371700Y-61000600I-147500J0D01*
G01*
X168076700Y-61000600D01*
G75*
G02*
X167929200Y-60853100I0J147500D01*
G01*
X167929200Y-60508100D01*
G75*
G02*
X168076700Y-60360600I147500J0D01*
G01*
X168371700Y-60360600D01*
G75*
G02*
X168519200Y-60508100I0J-147500D01*
G01*
G37*
G36*
G01*
X169489200Y-60508100D02*
X169489200Y-60853100D01*
G75*
G02*
X169341700Y-61000600I-147500J0D01*
G01*
X169046700Y-61000600D01*
G75*
G02*
X168899200Y-60853100I0J147500D01*
G01*
X168899200Y-60508100D01*
G75*
G02*
X169046700Y-60360600I147500J0D01*
G01*
X169341700Y-60360600D01*
G75*
G02*
X169489200Y-60508100I0J-147500D01*
G01*
G37*
G36*
G01*
X168536200Y-58918100D02*
X168536200Y-59263100D01*
G75*
G02*
X168388700Y-59410600I-147500J0D01*
G01*
X168093700Y-59410600D01*
G75*
G02*
X167946200Y-59263100I0J147500D01*
G01*
X167946200Y-58918100D01*
G75*
G02*
X168093700Y-58770600I147500J0D01*
G01*
X168388700Y-58770600D01*
G75*
G02*
X168536200Y-58918100I0J-147500D01*
G01*
G37*
G36*
G01*
X169506200Y-58918100D02*
X169506200Y-59263100D01*
G75*
G02*
X169358700Y-59410600I-147500J0D01*
G01*
X169063700Y-59410600D01*
G75*
G02*
X168916200Y-59263100I0J147500D01*
G01*
X168916200Y-58918100D01*
G75*
G02*
X169063700Y-58770600I147500J0D01*
G01*
X169358700Y-58770600D01*
G75*
G02*
X169506200Y-58918100I0J-147500D01*
G01*
G37*
G36*
G01*
X153780000Y-45817500D02*
X153780000Y-46162500D01*
G75*
G02*
X153632500Y-46310000I-147500J0D01*
G01*
X153337500Y-46310000D01*
G75*
G02*
X153190000Y-46162500I0J147500D01*
G01*
X153190000Y-45817500D01*
G75*
G02*
X153337500Y-45670000I147500J0D01*
G01*
X153632500Y-45670000D01*
G75*
G02*
X153780000Y-45817500I0J-147500D01*
G01*
G37*
G36*
G01*
X154750000Y-45817500D02*
X154750000Y-46162500D01*
G75*
G02*
X154602500Y-46310000I-147500J0D01*
G01*
X154307500Y-46310000D01*
G75*
G02*
X154160000Y-46162500I0J147500D01*
G01*
X154160000Y-45817500D01*
G75*
G02*
X154307500Y-45670000I147500J0D01*
G01*
X154602500Y-45670000D01*
G75*
G02*
X154750000Y-45817500I0J-147500D01*
G01*
G37*
G36*
G01*
X153730000Y-44607500D02*
X153730000Y-44952500D01*
G75*
G02*
X153582500Y-45100000I-147500J0D01*
G01*
X153287500Y-45100000D01*
G75*
G02*
X153140000Y-44952500I0J147500D01*
G01*
X153140000Y-44607500D01*
G75*
G02*
X153287500Y-44460000I147500J0D01*
G01*
X153582500Y-44460000D01*
G75*
G02*
X153730000Y-44607500I0J-147500D01*
G01*
G37*
G36*
G01*
X154700000Y-44607500D02*
X154700000Y-44952500D01*
G75*
G02*
X154552500Y-45100000I-147500J0D01*
G01*
X154257500Y-45100000D01*
G75*
G02*
X154110000Y-44952500I0J147500D01*
G01*
X154110000Y-44607500D01*
G75*
G02*
X154257500Y-44460000I147500J0D01*
G01*
X154552500Y-44460000D01*
G75*
G02*
X154700000Y-44607500I0J-147500D01*
G01*
G37*
G36*
G01*
X153686200Y-43368100D02*
X153686200Y-43713100D01*
G75*
G02*
X153538700Y-43860600I-147500J0D01*
G01*
X153243700Y-43860600D01*
G75*
G02*
X153096200Y-43713100I0J147500D01*
G01*
X153096200Y-43368100D01*
G75*
G02*
X153243700Y-43220600I147500J0D01*
G01*
X153538700Y-43220600D01*
G75*
G02*
X153686200Y-43368100I0J-147500D01*
G01*
G37*
G36*
G01*
X154656200Y-43368100D02*
X154656200Y-43713100D01*
G75*
G02*
X154508700Y-43860600I-147500J0D01*
G01*
X154213700Y-43860600D01*
G75*
G02*
X154066200Y-43713100I0J147500D01*
G01*
X154066200Y-43368100D01*
G75*
G02*
X154213700Y-43220600I147500J0D01*
G01*
X154508700Y-43220600D01*
G75*
G02*
X154656200Y-43368100I0J-147500D01*
G01*
G37*
G36*
G01*
X133573300Y-39027600D02*
X133228300Y-39027600D01*
G75*
G02*
X133080800Y-38880100I0J147500D01*
G01*
X133080800Y-38585100D01*
G75*
G02*
X133228300Y-38437600I147500J0D01*
G01*
X133573300Y-38437600D01*
G75*
G02*
X133720800Y-38585100I0J-147500D01*
G01*
X133720800Y-38880100D01*
G75*
G02*
X133573300Y-39027600I-147500J0D01*
G01*
G37*
G36*
G01*
X133573300Y-39997600D02*
X133228300Y-39997600D01*
G75*
G02*
X133080800Y-39850100I0J147500D01*
G01*
X133080800Y-39555100D01*
G75*
G02*
X133228300Y-39407600I147500J0D01*
G01*
X133573300Y-39407600D01*
G75*
G02*
X133720800Y-39555100I0J-147500D01*
G01*
X133720800Y-39850100D01*
G75*
G02*
X133573300Y-39997600I-147500J0D01*
G01*
G37*
G36*
G01*
X129712500Y-39027600D02*
X129367500Y-39027600D01*
G75*
G02*
X129220000Y-38880100I0J147500D01*
G01*
X129220000Y-38585100D01*
G75*
G02*
X129367500Y-38437600I147500J0D01*
G01*
X129712500Y-38437600D01*
G75*
G02*
X129860000Y-38585100I0J-147500D01*
G01*
X129860000Y-38880100D01*
G75*
G02*
X129712500Y-39027600I-147500J0D01*
G01*
G37*
G36*
G01*
X129712500Y-39997600D02*
X129367500Y-39997600D01*
G75*
G02*
X129220000Y-39850100I0J147500D01*
G01*
X129220000Y-39555100D01*
G75*
G02*
X129367500Y-39407600I147500J0D01*
G01*
X129712500Y-39407600D01*
G75*
G02*
X129860000Y-39555100I0J-147500D01*
G01*
X129860000Y-39850100D01*
G75*
G02*
X129712500Y-39997600I-147500J0D01*
G01*
G37*
G36*
G01*
X137230900Y-39078400D02*
X136885900Y-39078400D01*
G75*
G02*
X136738400Y-38930900I0J147500D01*
G01*
X136738400Y-38635900D01*
G75*
G02*
X136885900Y-38488400I147500J0D01*
G01*
X137230900Y-38488400D01*
G75*
G02*
X137378400Y-38635900I0J-147500D01*
G01*
X137378400Y-38930900D01*
G75*
G02*
X137230900Y-39078400I-147500J0D01*
G01*
G37*
G36*
G01*
X137230900Y-40048400D02*
X136885900Y-40048400D01*
G75*
G02*
X136738400Y-39900900I0J147500D01*
G01*
X136738400Y-39605900D01*
G75*
G02*
X136885900Y-39458400I147500J0D01*
G01*
X137230900Y-39458400D01*
G75*
G02*
X137378400Y-39605900I0J-147500D01*
G01*
X137378400Y-39900900D01*
G75*
G02*
X137230900Y-40048400I-147500J0D01*
G01*
G37*
G36*
G01*
X141363200Y-39288500D02*
X141363200Y-38943500D01*
G75*
G02*
X141510700Y-38796000I147500J0D01*
G01*
X141805700Y-38796000D01*
G75*
G02*
X141953200Y-38943500I0J-147500D01*
G01*
X141953200Y-39288500D01*
G75*
G02*
X141805700Y-39436000I-147500J0D01*
G01*
X141510700Y-39436000D01*
G75*
G02*
X141363200Y-39288500I0J147500D01*
G01*
G37*
G36*
G01*
X140393200Y-39288500D02*
X140393200Y-38943500D01*
G75*
G02*
X140540700Y-38796000I147500J0D01*
G01*
X140835700Y-38796000D01*
G75*
G02*
X140983200Y-38943500I0J-147500D01*
G01*
X140983200Y-39288500D01*
G75*
G02*
X140835700Y-39436000I-147500J0D01*
G01*
X140540700Y-39436000D01*
G75*
G02*
X140393200Y-39288500I0J147500D01*
G01*
G37*
G36*
G01*
X142887200Y-40914100D02*
X142887200Y-40569100D01*
G75*
G02*
X143034700Y-40421600I147500J0D01*
G01*
X143329700Y-40421600D01*
G75*
G02*
X143477200Y-40569100I0J-147500D01*
G01*
X143477200Y-40914100D01*
G75*
G02*
X143329700Y-41061600I-147500J0D01*
G01*
X143034700Y-41061600D01*
G75*
G02*
X142887200Y-40914100I0J147500D01*
G01*
G37*
G36*
G01*
X141917200Y-40914100D02*
X141917200Y-40569100D01*
G75*
G02*
X142064700Y-40421600I147500J0D01*
G01*
X142359700Y-40421600D01*
G75*
G02*
X142507200Y-40569100I0J-147500D01*
G01*
X142507200Y-40914100D01*
G75*
G02*
X142359700Y-41061600I-147500J0D01*
G01*
X142064700Y-41061600D01*
G75*
G02*
X141917200Y-40914100I0J147500D01*
G01*
G37*
G36*
G01*
X154060000Y-42292500D02*
X154060000Y-41947500D01*
G75*
G02*
X154207500Y-41800000I147500J0D01*
G01*
X154502500Y-41800000D01*
G75*
G02*
X154650000Y-41947500I0J-147500D01*
G01*
X154650000Y-42292500D01*
G75*
G02*
X154502500Y-42440000I-147500J0D01*
G01*
X154207500Y-42440000D01*
G75*
G02*
X154060000Y-42292500I0J147500D01*
G01*
G37*
G36*
G01*
X153090000Y-42292500D02*
X153090000Y-41947500D01*
G75*
G02*
X153237500Y-41800000I147500J0D01*
G01*
X153532500Y-41800000D01*
G75*
G02*
X153680000Y-41947500I0J-147500D01*
G01*
X153680000Y-42292500D01*
G75*
G02*
X153532500Y-42440000I-147500J0D01*
G01*
X153237500Y-42440000D01*
G75*
G02*
X153090000Y-42292500I0J147500D01*
G01*
G37*
G36*
G01*
X138516400Y-56993300D02*
X138516400Y-56648300D01*
G75*
G02*
X138663900Y-56500800I147500J0D01*
G01*
X138958900Y-56500800D01*
G75*
G02*
X139106400Y-56648300I0J-147500D01*
G01*
X139106400Y-56993300D01*
G75*
G02*
X138958900Y-57140800I-147500J0D01*
G01*
X138663900Y-57140800D01*
G75*
G02*
X138516400Y-56993300I0J147500D01*
G01*
G37*
G36*
G01*
X137546400Y-56993300D02*
X137546400Y-56648300D01*
G75*
G02*
X137693900Y-56500800I147500J0D01*
G01*
X137988900Y-56500800D01*
G75*
G02*
X138136400Y-56648300I0J-147500D01*
G01*
X138136400Y-56993300D01*
G75*
G02*
X137988900Y-57140800I-147500J0D01*
G01*
X137693900Y-57140800D01*
G75*
G02*
X137546400Y-56993300I0J147500D01*
G01*
G37*
G36*
G01*
X142125200Y-55771700D02*
X142125200Y-55426700D01*
G75*
G02*
X142272700Y-55279200I147500J0D01*
G01*
X142567700Y-55279200D01*
G75*
G02*
X142715200Y-55426700I0J-147500D01*
G01*
X142715200Y-55771700D01*
G75*
G02*
X142567700Y-55919200I-147500J0D01*
G01*
X142272700Y-55919200D01*
G75*
G02*
X142125200Y-55771700I0J147500D01*
G01*
G37*
G36*
G01*
X141155200Y-55771700D02*
X141155200Y-55426700D01*
G75*
G02*
X141302700Y-55279200I147500J0D01*
G01*
X141597700Y-55279200D01*
G75*
G02*
X141745200Y-55426700I0J-147500D01*
G01*
X141745200Y-55771700D01*
G75*
G02*
X141597700Y-55919200I-147500J0D01*
G01*
X141302700Y-55919200D01*
G75*
G02*
X141155200Y-55771700I0J147500D01*
G01*
G37*
G36*
G01*
X143963600Y-54511700D02*
X143963600Y-54166700D01*
G75*
G02*
X144111100Y-54019200I147500J0D01*
G01*
X144406100Y-54019200D01*
G75*
G02*
X144553600Y-54166700I0J-147500D01*
G01*
X144553600Y-54511700D01*
G75*
G02*
X144406100Y-54659200I-147500J0D01*
G01*
X144111100Y-54659200D01*
G75*
G02*
X143963600Y-54511700I0J147500D01*
G01*
G37*
G36*
G01*
X142993600Y-54511700D02*
X142993600Y-54166700D01*
G75*
G02*
X143141100Y-54019200I147500J0D01*
G01*
X143436100Y-54019200D01*
G75*
G02*
X143583600Y-54166700I0J-147500D01*
G01*
X143583600Y-54511700D01*
G75*
G02*
X143436100Y-54659200I-147500J0D01*
G01*
X143141100Y-54659200D01*
G75*
G02*
X142993600Y-54511700I0J147500D01*
G01*
G37*
G36*
G01*
X134995700Y-39535600D02*
X134650700Y-39535600D01*
G75*
G02*
X134503200Y-39388100I0J147500D01*
G01*
X134503200Y-39093100D01*
G75*
G02*
X134650700Y-38945600I147500J0D01*
G01*
X134995700Y-38945600D01*
G75*
G02*
X135143200Y-39093100I0J-147500D01*
G01*
X135143200Y-39388100D01*
G75*
G02*
X134995700Y-39535600I-147500J0D01*
G01*
G37*
G36*
G01*
X134995700Y-40505600D02*
X134650700Y-40505600D01*
G75*
G02*
X134503200Y-40358100I0J147500D01*
G01*
X134503200Y-40063100D01*
G75*
G02*
X134650700Y-39915600I147500J0D01*
G01*
X134995700Y-39915600D01*
G75*
G02*
X135143200Y-40063100I0J-147500D01*
G01*
X135143200Y-40358100D01*
G75*
G02*
X134995700Y-40505600I-147500J0D01*
G01*
G37*
G36*
G01*
X131795300Y-39535600D02*
X131450300Y-39535600D01*
G75*
G02*
X131302800Y-39388100I0J147500D01*
G01*
X131302800Y-39093100D01*
G75*
G02*
X131450300Y-38945600I147500J0D01*
G01*
X131795300Y-38945600D01*
G75*
G02*
X131942800Y-39093100I0J-147500D01*
G01*
X131942800Y-39388100D01*
G75*
G02*
X131795300Y-39535600I-147500J0D01*
G01*
G37*
G36*
G01*
X131795300Y-40505600D02*
X131450300Y-40505600D01*
G75*
G02*
X131302800Y-40358100I0J147500D01*
G01*
X131302800Y-40063100D01*
G75*
G02*
X131450300Y-39915600I147500J0D01*
G01*
X131795300Y-39915600D01*
G75*
G02*
X131942800Y-40063100I0J-147500D01*
G01*
X131942800Y-40358100D01*
G75*
G02*
X131795300Y-40505600I-147500J0D01*
G01*
G37*
G36*
G01*
X130117500Y-112105000D02*
X130462500Y-112105000D01*
G75*
G02*
X130610000Y-112252500I0J-147500D01*
G01*
X130610000Y-112547500D01*
G75*
G02*
X130462500Y-112695000I-147500J0D01*
G01*
X130117500Y-112695000D01*
G75*
G02*
X129970000Y-112547500I0J147500D01*
G01*
X129970000Y-112252500D01*
G75*
G02*
X130117500Y-112105000I147500J0D01*
G01*
G37*
G36*
G01*
X130117500Y-111135000D02*
X130462500Y-111135000D01*
G75*
G02*
X130610000Y-111282500I0J-147500D01*
G01*
X130610000Y-111577500D01*
G75*
G02*
X130462500Y-111725000I-147500J0D01*
G01*
X130117500Y-111725000D01*
G75*
G02*
X129970000Y-111577500I0J147500D01*
G01*
X129970000Y-111282500D01*
G75*
G02*
X130117500Y-111135000I147500J0D01*
G01*
G37*
G36*
G01*
X131227500Y-112110000D02*
X131572500Y-112110000D01*
G75*
G02*
X131720000Y-112257500I0J-147500D01*
G01*
X131720000Y-112552500D01*
G75*
G02*
X131572500Y-112700000I-147500J0D01*
G01*
X131227500Y-112700000D01*
G75*
G02*
X131080000Y-112552500I0J147500D01*
G01*
X131080000Y-112257500D01*
G75*
G02*
X131227500Y-112110000I147500J0D01*
G01*
G37*
G36*
G01*
X131227500Y-111140000D02*
X131572500Y-111140000D01*
G75*
G02*
X131720000Y-111287500I0J-147500D01*
G01*
X131720000Y-111582500D01*
G75*
G02*
X131572500Y-111730000I-147500J0D01*
G01*
X131227500Y-111730000D01*
G75*
G02*
X131080000Y-111582500I0J147500D01*
G01*
X131080000Y-111287500D01*
G75*
G02*
X131227500Y-111140000I147500J0D01*
G01*
G37*
G36*
G01*
X128997500Y-112180000D02*
X129342500Y-112180000D01*
G75*
G02*
X129490000Y-112327500I0J-147500D01*
G01*
X129490000Y-112622500D01*
G75*
G02*
X129342500Y-112770000I-147500J0D01*
G01*
X128997500Y-112770000D01*
G75*
G02*
X128850000Y-112622500I0J147500D01*
G01*
X128850000Y-112327500D01*
G75*
G02*
X128997500Y-112180000I147500J0D01*
G01*
G37*
G36*
G01*
X128997500Y-111210000D02*
X129342500Y-111210000D01*
G75*
G02*
X129490000Y-111357500I0J-147500D01*
G01*
X129490000Y-111652500D01*
G75*
G02*
X129342500Y-111800000I-147500J0D01*
G01*
X128997500Y-111800000D01*
G75*
G02*
X128850000Y-111652500I0J147500D01*
G01*
X128850000Y-111357500D01*
G75*
G02*
X128997500Y-111210000I147500J0D01*
G01*
G37*
G36*
G01*
X132317500Y-112130000D02*
X132662500Y-112130000D01*
G75*
G02*
X132810000Y-112277500I0J-147500D01*
G01*
X132810000Y-112572500D01*
G75*
G02*
X132662500Y-112720000I-147500J0D01*
G01*
X132317500Y-112720000D01*
G75*
G02*
X132170000Y-112572500I0J147500D01*
G01*
X132170000Y-112277500D01*
G75*
G02*
X132317500Y-112130000I147500J0D01*
G01*
G37*
G36*
G01*
X132317500Y-111160000D02*
X132662500Y-111160000D01*
G75*
G02*
X132810000Y-111307500I0J-147500D01*
G01*
X132810000Y-111602500D01*
G75*
G02*
X132662500Y-111750000I-147500J0D01*
G01*
X132317500Y-111750000D01*
G75*
G02*
X132170000Y-111602500I0J147500D01*
G01*
X132170000Y-111307500D01*
G75*
G02*
X132317500Y-111160000I147500J0D01*
G01*
G37*
G36*
G01*
X133393700Y-112100600D02*
X133738700Y-112100600D01*
G75*
G02*
X133886200Y-112248100I0J-147500D01*
G01*
X133886200Y-112543100D01*
G75*
G02*
X133738700Y-112690600I-147500J0D01*
G01*
X133393700Y-112690600D01*
G75*
G02*
X133246200Y-112543100I0J147500D01*
G01*
X133246200Y-112248100D01*
G75*
G02*
X133393700Y-112100600I147500J0D01*
G01*
G37*
G36*
G01*
X133393700Y-111130600D02*
X133738700Y-111130600D01*
G75*
G02*
X133886200Y-111278100I0J-147500D01*
G01*
X133886200Y-111573100D01*
G75*
G02*
X133738700Y-111720600I-147500J0D01*
G01*
X133393700Y-111720600D01*
G75*
G02*
X133246200Y-111573100I0J147500D01*
G01*
X133246200Y-111278100D01*
G75*
G02*
X133393700Y-111130600I147500J0D01*
G01*
G37*
G36*
G01*
X135663700Y-111979600D02*
X136008700Y-111979600D01*
G75*
G02*
X136156200Y-112127100I0J-147500D01*
G01*
X136156200Y-112422100D01*
G75*
G02*
X136008700Y-112569600I-147500J0D01*
G01*
X135663700Y-112569600D01*
G75*
G02*
X135516200Y-112422100I0J147500D01*
G01*
X135516200Y-112127100D01*
G75*
G02*
X135663700Y-111979600I147500J0D01*
G01*
G37*
G36*
G01*
X135663700Y-111009600D02*
X136008700Y-111009600D01*
G75*
G02*
X136156200Y-111157100I0J-147500D01*
G01*
X136156200Y-111452100D01*
G75*
G02*
X136008700Y-111599600I-147500J0D01*
G01*
X135663700Y-111599600D01*
G75*
G02*
X135516200Y-111452100I0J147500D01*
G01*
X135516200Y-111157100D01*
G75*
G02*
X135663700Y-111009600I147500J0D01*
G01*
G37*
G36*
G01*
X136933700Y-111956600D02*
X137278700Y-111956600D01*
G75*
G02*
X137426200Y-112104100I0J-147500D01*
G01*
X137426200Y-112399100D01*
G75*
G02*
X137278700Y-112546600I-147500J0D01*
G01*
X136933700Y-112546600D01*
G75*
G02*
X136786200Y-112399100I0J147500D01*
G01*
X136786200Y-112104100D01*
G75*
G02*
X136933700Y-111956600I147500J0D01*
G01*
G37*
G36*
G01*
X136933700Y-110986600D02*
X137278700Y-110986600D01*
G75*
G02*
X137426200Y-111134100I0J-147500D01*
G01*
X137426200Y-111429100D01*
G75*
G02*
X137278700Y-111576600I-147500J0D01*
G01*
X136933700Y-111576600D01*
G75*
G02*
X136786200Y-111429100I0J147500D01*
G01*
X136786200Y-111134100D01*
G75*
G02*
X136933700Y-110986600I147500J0D01*
G01*
G37*
G36*
G01*
X138203700Y-111956600D02*
X138548700Y-111956600D01*
G75*
G02*
X138696200Y-112104100I0J-147500D01*
G01*
X138696200Y-112399100D01*
G75*
G02*
X138548700Y-112546600I-147500J0D01*
G01*
X138203700Y-112546600D01*
G75*
G02*
X138056200Y-112399100I0J147500D01*
G01*
X138056200Y-112104100D01*
G75*
G02*
X138203700Y-111956600I147500J0D01*
G01*
G37*
G36*
G01*
X138203700Y-110986600D02*
X138548700Y-110986600D01*
G75*
G02*
X138696200Y-111134100I0J-147500D01*
G01*
X138696200Y-111429100D01*
G75*
G02*
X138548700Y-111576600I-147500J0D01*
G01*
X138203700Y-111576600D01*
G75*
G02*
X138056200Y-111429100I0J147500D01*
G01*
X138056200Y-111134100D01*
G75*
G02*
X138203700Y-110986600I147500J0D01*
G01*
G37*
G36*
G01*
X139473700Y-111956600D02*
X139818700Y-111956600D01*
G75*
G02*
X139966200Y-112104100I0J-147500D01*
G01*
X139966200Y-112399100D01*
G75*
G02*
X139818700Y-112546600I-147500J0D01*
G01*
X139473700Y-112546600D01*
G75*
G02*
X139326200Y-112399100I0J147500D01*
G01*
X139326200Y-112104100D01*
G75*
G02*
X139473700Y-111956600I147500J0D01*
G01*
G37*
G36*
G01*
X139473700Y-110986600D02*
X139818700Y-110986600D01*
G75*
G02*
X139966200Y-111134100I0J-147500D01*
G01*
X139966200Y-111429100D01*
G75*
G02*
X139818700Y-111576600I-147500J0D01*
G01*
X139473700Y-111576600D01*
G75*
G02*
X139326200Y-111429100I0J147500D01*
G01*
X139326200Y-111134100D01*
G75*
G02*
X139473700Y-110986600I147500J0D01*
G01*
G37*
G36*
G01*
X140598500Y-111992400D02*
X140943500Y-111992400D01*
G75*
G02*
X141091000Y-112139900I0J-147500D01*
G01*
X141091000Y-112434900D01*
G75*
G02*
X140943500Y-112582400I-147500J0D01*
G01*
X140598500Y-112582400D01*
G75*
G02*
X140451000Y-112434900I0J147500D01*
G01*
X140451000Y-112139900D01*
G75*
G02*
X140598500Y-111992400I147500J0D01*
G01*
G37*
G36*
G01*
X140598500Y-111022400D02*
X140943500Y-111022400D01*
G75*
G02*
X141091000Y-111169900I0J-147500D01*
G01*
X141091000Y-111464900D01*
G75*
G02*
X140943500Y-111612400I-147500J0D01*
G01*
X140598500Y-111612400D01*
G75*
G02*
X140451000Y-111464900I0J147500D01*
G01*
X140451000Y-111169900D01*
G75*
G02*
X140598500Y-111022400I147500J0D01*
G01*
G37*
G36*
G01*
X141741500Y-111944000D02*
X142086500Y-111944000D01*
G75*
G02*
X142234000Y-112091500I0J-147500D01*
G01*
X142234000Y-112386500D01*
G75*
G02*
X142086500Y-112534000I-147500J0D01*
G01*
X141741500Y-112534000D01*
G75*
G02*
X141594000Y-112386500I0J147500D01*
G01*
X141594000Y-112091500D01*
G75*
G02*
X141741500Y-111944000I147500J0D01*
G01*
G37*
G36*
G01*
X141741500Y-110974000D02*
X142086500Y-110974000D01*
G75*
G02*
X142234000Y-111121500I0J-147500D01*
G01*
X142234000Y-111416500D01*
G75*
G02*
X142086500Y-111564000I-147500J0D01*
G01*
X141741500Y-111564000D01*
G75*
G02*
X141594000Y-111416500I0J147500D01*
G01*
X141594000Y-111121500D01*
G75*
G02*
X141741500Y-110974000I147500J0D01*
G01*
G37*
G36*
G01*
X143023700Y-112019600D02*
X143368700Y-112019600D01*
G75*
G02*
X143516200Y-112167100I0J-147500D01*
G01*
X143516200Y-112462100D01*
G75*
G02*
X143368700Y-112609600I-147500J0D01*
G01*
X143023700Y-112609600D01*
G75*
G02*
X142876200Y-112462100I0J147500D01*
G01*
X142876200Y-112167100D01*
G75*
G02*
X143023700Y-112019600I147500J0D01*
G01*
G37*
G36*
G01*
X143023700Y-111049600D02*
X143368700Y-111049600D01*
G75*
G02*
X143516200Y-111197100I0J-147500D01*
G01*
X143516200Y-111492100D01*
G75*
G02*
X143368700Y-111639600I-147500J0D01*
G01*
X143023700Y-111639600D01*
G75*
G02*
X142876200Y-111492100I0J147500D01*
G01*
X142876200Y-111197100D01*
G75*
G02*
X143023700Y-111049600I147500J0D01*
G01*
G37*
G36*
G01*
X64383700Y-29070800D02*
X64038700Y-29070800D01*
G75*
G02*
X63891200Y-28923300I0J147500D01*
G01*
X63891200Y-28628300D01*
G75*
G02*
X64038700Y-28480800I147500J0D01*
G01*
X64383700Y-28480800D01*
G75*
G02*
X64531200Y-28628300I0J-147500D01*
G01*
X64531200Y-28923300D01*
G75*
G02*
X64383700Y-29070800I-147500J0D01*
G01*
G37*
G36*
G01*
X64383700Y-30040800D02*
X64038700Y-30040800D01*
G75*
G02*
X63891200Y-29893300I0J147500D01*
G01*
X63891200Y-29598300D01*
G75*
G02*
X64038700Y-29450800I147500J0D01*
G01*
X64383700Y-29450800D01*
G75*
G02*
X64531200Y-29598300I0J-147500D01*
G01*
X64531200Y-29893300D01*
G75*
G02*
X64383700Y-30040800I-147500J0D01*
G01*
G37*
G36*
G01*
X56712900Y-32017200D02*
X56367900Y-32017200D01*
G75*
G02*
X56220400Y-31869700I0J147500D01*
G01*
X56220400Y-31574700D01*
G75*
G02*
X56367900Y-31427200I147500J0D01*
G01*
X56712900Y-31427200D01*
G75*
G02*
X56860400Y-31574700I0J-147500D01*
G01*
X56860400Y-31869700D01*
G75*
G02*
X56712900Y-32017200I-147500J0D01*
G01*
G37*
G36*
G01*
X56712900Y-32987200D02*
X56367900Y-32987200D01*
G75*
G02*
X56220400Y-32839700I0J147500D01*
G01*
X56220400Y-32544700D01*
G75*
G02*
X56367900Y-32397200I147500J0D01*
G01*
X56712900Y-32397200D01*
G75*
G02*
X56860400Y-32544700I0J-147500D01*
G01*
X56860400Y-32839700D01*
G75*
G02*
X56712900Y-32987200I-147500J0D01*
G01*
G37*
G36*
G01*
X58236900Y-35166800D02*
X57891900Y-35166800D01*
G75*
G02*
X57744400Y-35019300I0J147500D01*
G01*
X57744400Y-34724300D01*
G75*
G02*
X57891900Y-34576800I147500J0D01*
G01*
X58236900Y-34576800D01*
G75*
G02*
X58384400Y-34724300I0J-147500D01*
G01*
X58384400Y-35019300D01*
G75*
G02*
X58236900Y-35166800I-147500J0D01*
G01*
G37*
G36*
G01*
X58236900Y-36136800D02*
X57891900Y-36136800D01*
G75*
G02*
X57744400Y-35989300I0J147500D01*
G01*
X57744400Y-35694300D01*
G75*
G02*
X57891900Y-35546800I147500J0D01*
G01*
X58236900Y-35546800D01*
G75*
G02*
X58384400Y-35694300I0J-147500D01*
G01*
X58384400Y-35989300D01*
G75*
G02*
X58236900Y-36136800I-147500J0D01*
G01*
G37*
G36*
G01*
X76575700Y-17717000D02*
X76230700Y-17717000D01*
G75*
G02*
X76083200Y-17569500I0J147500D01*
G01*
X76083200Y-17274500D01*
G75*
G02*
X76230700Y-17127000I147500J0D01*
G01*
X76575700Y-17127000D01*
G75*
G02*
X76723200Y-17274500I0J-147500D01*
G01*
X76723200Y-17569500D01*
G75*
G02*
X76575700Y-17717000I-147500J0D01*
G01*
G37*
G36*
G01*
X76575700Y-18687000D02*
X76230700Y-18687000D01*
G75*
G02*
X76083200Y-18539500I0J147500D01*
G01*
X76083200Y-18244500D01*
G75*
G02*
X76230700Y-18097000I147500J0D01*
G01*
X76575700Y-18097000D01*
G75*
G02*
X76723200Y-18244500I0J-147500D01*
G01*
X76723200Y-18539500D01*
G75*
G02*
X76575700Y-18687000I-147500J0D01*
G01*
G37*
G36*
G01*
X81249300Y-18275800D02*
X80904300Y-18275800D01*
G75*
G02*
X80756800Y-18128300I0J147500D01*
G01*
X80756800Y-17833300D01*
G75*
G02*
X80904300Y-17685800I147500J0D01*
G01*
X81249300Y-17685800D01*
G75*
G02*
X81396800Y-17833300I0J-147500D01*
G01*
X81396800Y-18128300D01*
G75*
G02*
X81249300Y-18275800I-147500J0D01*
G01*
G37*
G36*
G01*
X81249300Y-19245800D02*
X80904300Y-19245800D01*
G75*
G02*
X80756800Y-19098300I0J147500D01*
G01*
X80756800Y-18803300D01*
G75*
G02*
X80904300Y-18655800I147500J0D01*
G01*
X81249300Y-18655800D01*
G75*
G02*
X81396800Y-18803300I0J-147500D01*
G01*
X81396800Y-19098300D01*
G75*
G02*
X81249300Y-19245800I-147500J0D01*
G01*
G37*
G36*
G01*
X86202300Y-17818600D02*
X85857300Y-17818600D01*
G75*
G02*
X85709800Y-17671100I0J147500D01*
G01*
X85709800Y-17376100D01*
G75*
G02*
X85857300Y-17228600I147500J0D01*
G01*
X86202300Y-17228600D01*
G75*
G02*
X86349800Y-17376100I0J-147500D01*
G01*
X86349800Y-17671100D01*
G75*
G02*
X86202300Y-17818600I-147500J0D01*
G01*
G37*
G36*
G01*
X86202300Y-18788600D02*
X85857300Y-18788600D01*
G75*
G02*
X85709800Y-18641100I0J147500D01*
G01*
X85709800Y-18346100D01*
G75*
G02*
X85857300Y-18198600I147500J0D01*
G01*
X86202300Y-18198600D01*
G75*
G02*
X86349800Y-18346100I0J-147500D01*
G01*
X86349800Y-18641100D01*
G75*
G02*
X86202300Y-18788600I-147500J0D01*
G01*
G37*
G36*
G01*
X59676800Y-75864500D02*
X59676800Y-75519500D01*
G75*
G02*
X59824300Y-75372000I147500J0D01*
G01*
X60119300Y-75372000D01*
G75*
G02*
X60266800Y-75519500I0J-147500D01*
G01*
X60266800Y-75864500D01*
G75*
G02*
X60119300Y-76012000I-147500J0D01*
G01*
X59824300Y-76012000D01*
G75*
G02*
X59676800Y-75864500I0J147500D01*
G01*
G37*
G36*
G01*
X58706800Y-75864500D02*
X58706800Y-75519500D01*
G75*
G02*
X58854300Y-75372000I147500J0D01*
G01*
X59149300Y-75372000D01*
G75*
G02*
X59296800Y-75519500I0J-147500D01*
G01*
X59296800Y-75864500D01*
G75*
G02*
X59149300Y-76012000I-147500J0D01*
G01*
X58854300Y-76012000D01*
G75*
G02*
X58706800Y-75864500I0J147500D01*
G01*
G37*
G36*
G01*
X58298000Y-99457500D02*
X58298000Y-99802500D01*
G75*
G02*
X58150500Y-99950000I-147500J0D01*
G01*
X57855500Y-99950000D01*
G75*
G02*
X57708000Y-99802500I0J147500D01*
G01*
X57708000Y-99457500D01*
G75*
G02*
X57855500Y-99310000I147500J0D01*
G01*
X58150500Y-99310000D01*
G75*
G02*
X58298000Y-99457500I0J-147500D01*
G01*
G37*
G36*
G01*
X59268000Y-99457500D02*
X59268000Y-99802500D01*
G75*
G02*
X59120500Y-99950000I-147500J0D01*
G01*
X58825500Y-99950000D01*
G75*
G02*
X58678000Y-99802500I0J147500D01*
G01*
X58678000Y-99457500D01*
G75*
G02*
X58825500Y-99310000I147500J0D01*
G01*
X59120500Y-99310000D01*
G75*
G02*
X59268000Y-99457500I0J-147500D01*
G01*
G37*
G36*
G01*
X61015800Y-99432100D02*
X61015800Y-99777100D01*
G75*
G02*
X60868300Y-99924600I-147500J0D01*
G01*
X60573300Y-99924600D01*
G75*
G02*
X60425800Y-99777100I0J147500D01*
G01*
X60425800Y-99432100D01*
G75*
G02*
X60573300Y-99284600I147500J0D01*
G01*
X60868300Y-99284600D01*
G75*
G02*
X61015800Y-99432100I0J-147500D01*
G01*
G37*
G36*
G01*
X61985800Y-99432100D02*
X61985800Y-99777100D01*
G75*
G02*
X61838300Y-99924600I-147500J0D01*
G01*
X61543300Y-99924600D01*
G75*
G02*
X61395800Y-99777100I0J147500D01*
G01*
X61395800Y-99432100D01*
G75*
G02*
X61543300Y-99284600I147500J0D01*
G01*
X61838300Y-99284600D01*
G75*
G02*
X61985800Y-99432100I0J-147500D01*
G01*
G37*
G36*
G01*
X55781000Y-98339900D02*
X55781000Y-98684900D01*
G75*
G02*
X55633500Y-98832400I-147500J0D01*
G01*
X55338500Y-98832400D01*
G75*
G02*
X55191000Y-98684900I0J147500D01*
G01*
X55191000Y-98339900D01*
G75*
G02*
X55338500Y-98192400I147500J0D01*
G01*
X55633500Y-98192400D01*
G75*
G02*
X55781000Y-98339900I0J-147500D01*
G01*
G37*
G36*
G01*
X56751000Y-98339900D02*
X56751000Y-98684900D01*
G75*
G02*
X56603500Y-98832400I-147500J0D01*
G01*
X56308500Y-98832400D01*
G75*
G02*
X56161000Y-98684900I0J147500D01*
G01*
X56161000Y-98339900D01*
G75*
G02*
X56308500Y-98192400I147500J0D01*
G01*
X56603500Y-98192400D01*
G75*
G02*
X56751000Y-98339900I0J-147500D01*
G01*
G37*
G36*
G01*
X56089600Y-99980300D02*
X56089600Y-99635300D01*
G75*
G02*
X56237100Y-99487800I147500J0D01*
G01*
X56532100Y-99487800D01*
G75*
G02*
X56679600Y-99635300I0J-147500D01*
G01*
X56679600Y-99980300D01*
G75*
G02*
X56532100Y-100127800I-147500J0D01*
G01*
X56237100Y-100127800D01*
G75*
G02*
X56089600Y-99980300I0J147500D01*
G01*
G37*
G36*
G01*
X55119600Y-99980300D02*
X55119600Y-99635300D01*
G75*
G02*
X55267100Y-99487800I147500J0D01*
G01*
X55562100Y-99487800D01*
G75*
G02*
X55709600Y-99635300I0J-147500D01*
G01*
X55709600Y-99980300D01*
G75*
G02*
X55562100Y-100127800I-147500J0D01*
G01*
X55267100Y-100127800D01*
G75*
G02*
X55119600Y-99980300I0J147500D01*
G01*
G37*
G36*
G01*
X53192600Y-99686100D02*
X53192600Y-100031100D01*
G75*
G02*
X53045100Y-100178600I-147500J0D01*
G01*
X52750100Y-100178600D01*
G75*
G02*
X52602600Y-100031100I0J147500D01*
G01*
X52602600Y-99686100D01*
G75*
G02*
X52750100Y-99538600I147500J0D01*
G01*
X53045100Y-99538600D01*
G75*
G02*
X53192600Y-99686100I0J-147500D01*
G01*
G37*
G36*
G01*
X54162600Y-99686100D02*
X54162600Y-100031100D01*
G75*
G02*
X54015100Y-100178600I-147500J0D01*
G01*
X53720100Y-100178600D01*
G75*
G02*
X53572600Y-100031100I0J147500D01*
G01*
X53572600Y-99686100D01*
G75*
G02*
X53720100Y-99538600I147500J0D01*
G01*
X54015100Y-99538600D01*
G75*
G02*
X54162600Y-99686100I0J-147500D01*
G01*
G37*
G36*
G01*
X53549600Y-98710300D02*
X53549600Y-98365300D01*
G75*
G02*
X53697100Y-98217800I147500J0D01*
G01*
X53992100Y-98217800D01*
G75*
G02*
X54139600Y-98365300I0J-147500D01*
G01*
X54139600Y-98710300D01*
G75*
G02*
X53992100Y-98857800I-147500J0D01*
G01*
X53697100Y-98857800D01*
G75*
G02*
X53549600Y-98710300I0J147500D01*
G01*
G37*
G36*
G01*
X52579600Y-98710300D02*
X52579600Y-98365300D01*
G75*
G02*
X52727100Y-98217800I147500J0D01*
G01*
X53022100Y-98217800D01*
G75*
G02*
X53169600Y-98365300I0J-147500D01*
G01*
X53169600Y-98710300D01*
G75*
G02*
X53022100Y-98857800I-147500J0D01*
G01*
X52727100Y-98857800D01*
G75*
G02*
X52579600Y-98710300I0J147500D01*
G01*
G37*
G36*
G01*
X50701000Y-99559100D02*
X50701000Y-99904100D01*
G75*
G02*
X50553500Y-100051600I-147500J0D01*
G01*
X50258500Y-100051600D01*
G75*
G02*
X50111000Y-99904100I0J147500D01*
G01*
X50111000Y-99559100D01*
G75*
G02*
X50258500Y-99411600I147500J0D01*
G01*
X50553500Y-99411600D01*
G75*
G02*
X50701000Y-99559100I0J-147500D01*
G01*
G37*
G36*
G01*
X51671000Y-99559100D02*
X51671000Y-99904100D01*
G75*
G02*
X51523500Y-100051600I-147500J0D01*
G01*
X51228500Y-100051600D01*
G75*
G02*
X51081000Y-99904100I0J147500D01*
G01*
X51081000Y-99559100D01*
G75*
G02*
X51228500Y-99411600I147500J0D01*
G01*
X51523500Y-99411600D01*
G75*
G02*
X51671000Y-99559100I0J-147500D01*
G01*
G37*
G36*
G01*
X47553800Y-99355900D02*
X47553800Y-99700900D01*
G75*
G02*
X47406300Y-99848400I-147500J0D01*
G01*
X47111300Y-99848400D01*
G75*
G02*
X46963800Y-99700900I0J147500D01*
G01*
X46963800Y-99355900D01*
G75*
G02*
X47111300Y-99208400I147500J0D01*
G01*
X47406300Y-99208400D01*
G75*
G02*
X47553800Y-99355900I0J-147500D01*
G01*
G37*
G36*
G01*
X48523800Y-99355900D02*
X48523800Y-99700900D01*
G75*
G02*
X48376300Y-99848400I-147500J0D01*
G01*
X48081300Y-99848400D01*
G75*
G02*
X47933800Y-99700900I0J147500D01*
G01*
X47933800Y-99355900D01*
G75*
G02*
X48081300Y-99208400I147500J0D01*
G01*
X48376300Y-99208400D01*
G75*
G02*
X48523800Y-99355900I0J-147500D01*
G01*
G37*
G36*
G01*
X47959200Y-98583300D02*
X47959200Y-98238300D01*
G75*
G02*
X48106700Y-98090800I147500J0D01*
G01*
X48401700Y-98090800D01*
G75*
G02*
X48549200Y-98238300I0J-147500D01*
G01*
X48549200Y-98583300D01*
G75*
G02*
X48401700Y-98730800I-147500J0D01*
G01*
X48106700Y-98730800D01*
G75*
G02*
X47959200Y-98583300I0J147500D01*
G01*
G37*
G36*
G01*
X46989200Y-98583300D02*
X46989200Y-98238300D01*
G75*
G02*
X47136700Y-98090800I147500J0D01*
G01*
X47431700Y-98090800D01*
G75*
G02*
X47579200Y-98238300I0J-147500D01*
G01*
X47579200Y-98583300D01*
G75*
G02*
X47431700Y-98730800I-147500J0D01*
G01*
X47136700Y-98730800D01*
G75*
G02*
X46989200Y-98583300I0J147500D01*
G01*
G37*
G36*
G01*
X100350100Y-145199600D02*
X100005100Y-145199600D01*
G75*
G02*
X99857600Y-145052100I0J147500D01*
G01*
X99857600Y-144757100D01*
G75*
G02*
X100005100Y-144609600I147500J0D01*
G01*
X100350100Y-144609600D01*
G75*
G02*
X100497600Y-144757100I0J-147500D01*
G01*
X100497600Y-145052100D01*
G75*
G02*
X100350100Y-145199600I-147500J0D01*
G01*
G37*
G36*
G01*
X100350100Y-146169600D02*
X100005100Y-146169600D01*
G75*
G02*
X99857600Y-146022100I0J147500D01*
G01*
X99857600Y-145727100D01*
G75*
G02*
X100005100Y-145579600I147500J0D01*
G01*
X100350100Y-145579600D01*
G75*
G02*
X100497600Y-145727100I0J-147500D01*
G01*
X100497600Y-146022100D01*
G75*
G02*
X100350100Y-146169600I-147500J0D01*
G01*
G37*
G36*
G01*
X63725800Y-142362300D02*
X63725800Y-142017300D01*
G75*
G02*
X63873300Y-141869800I147500J0D01*
G01*
X64168300Y-141869800D01*
G75*
G02*
X64315800Y-142017300I0J-147500D01*
G01*
X64315800Y-142362300D01*
G75*
G02*
X64168300Y-142509800I-147500J0D01*
G01*
X63873300Y-142509800D01*
G75*
G02*
X63725800Y-142362300I0J147500D01*
G01*
G37*
G36*
G01*
X62755800Y-142362300D02*
X62755800Y-142017300D01*
G75*
G02*
X62903300Y-141869800I147500J0D01*
G01*
X63198300Y-141869800D01*
G75*
G02*
X63345800Y-142017300I0J-147500D01*
G01*
X63345800Y-142362300D01*
G75*
G02*
X63198300Y-142509800I-147500J0D01*
G01*
X62903300Y-142509800D01*
G75*
G02*
X62755800Y-142362300I0J147500D01*
G01*
G37*
G36*
G01*
X97084100Y-147865600D02*
X97429100Y-147865600D01*
G75*
G02*
X97576600Y-148013100I0J-147500D01*
G01*
X97576600Y-148308100D01*
G75*
G02*
X97429100Y-148455600I-147500J0D01*
G01*
X97084100Y-148455600D01*
G75*
G02*
X96936600Y-148308100I0J147500D01*
G01*
X96936600Y-148013100D01*
G75*
G02*
X97084100Y-147865600I147500J0D01*
G01*
G37*
G36*
G01*
X97084100Y-146895600D02*
X97429100Y-146895600D01*
G75*
G02*
X97576600Y-147043100I0J-147500D01*
G01*
X97576600Y-147338100D01*
G75*
G02*
X97429100Y-147485600I-147500J0D01*
G01*
X97084100Y-147485600D01*
G75*
G02*
X96936600Y-147338100I0J147500D01*
G01*
X96936600Y-147043100D01*
G75*
G02*
X97084100Y-146895600I147500J0D01*
G01*
G37*
G36*
G01*
X62265400Y-147891800D02*
X63515400Y-147891800D01*
G75*
G02*
X63765400Y-148141800I0J-250000D01*
G01*
X63765400Y-148891800D01*
G75*
G02*
X63515400Y-149141800I-250000J0D01*
G01*
X62265400Y-149141800D01*
G75*
G02*
X62015400Y-148891800I0J250000D01*
G01*
X62015400Y-148141800D01*
G75*
G02*
X62265400Y-147891800I250000J0D01*
G01*
G37*
G36*
G01*
X62265400Y-145091800D02*
X63515400Y-145091800D01*
G75*
G02*
X63765400Y-145341800I0J-250000D01*
G01*
X63765400Y-146091800D01*
G75*
G02*
X63515400Y-146341800I-250000J0D01*
G01*
X62265400Y-146341800D01*
G75*
G02*
X62015400Y-146091800I0J250000D01*
G01*
X62015400Y-145341800D01*
G75*
G02*
X62265400Y-145091800I250000J0D01*
G01*
G37*
G36*
G01*
X136142500Y-39600000D02*
X135797500Y-39600000D01*
G75*
G02*
X135650000Y-39452500I0J147500D01*
G01*
X135650000Y-39157500D01*
G75*
G02*
X135797500Y-39010000I147500J0D01*
G01*
X136142500Y-39010000D01*
G75*
G02*
X136290000Y-39157500I0J-147500D01*
G01*
X136290000Y-39452500D01*
G75*
G02*
X136142500Y-39600000I-147500J0D01*
G01*
G37*
G36*
G01*
X136142500Y-40570000D02*
X135797500Y-40570000D01*
G75*
G02*
X135650000Y-40422500I0J147500D01*
G01*
X135650000Y-40127500D01*
G75*
G02*
X135797500Y-39980000I147500J0D01*
G01*
X136142500Y-39980000D01*
G75*
G02*
X136290000Y-40127500I0J-147500D01*
G01*
X136290000Y-40422500D01*
G75*
G02*
X136142500Y-40570000I-147500J0D01*
G01*
G37*
G36*
G01*
X153957800Y-67724300D02*
X153957800Y-68069300D01*
G75*
G02*
X153810300Y-68216800I-147500J0D01*
G01*
X153515300Y-68216800D01*
G75*
G02*
X153367800Y-68069300I0J147500D01*
G01*
X153367800Y-67724300D01*
G75*
G02*
X153515300Y-67576800I147500J0D01*
G01*
X153810300Y-67576800D01*
G75*
G02*
X153957800Y-67724300I0J-147500D01*
G01*
G37*
G36*
G01*
X154927800Y-67724300D02*
X154927800Y-68069300D01*
G75*
G02*
X154780300Y-68216800I-147500J0D01*
G01*
X154485300Y-68216800D01*
G75*
G02*
X154337800Y-68069300I0J147500D01*
G01*
X154337800Y-67724300D01*
G75*
G02*
X154485300Y-67576800I147500J0D01*
G01*
X154780300Y-67576800D01*
G75*
G02*
X154927800Y-67724300I0J-147500D01*
G01*
G37*
G36*
G01*
X155480000Y-50722500D02*
X155480000Y-50377500D01*
G75*
G02*
X155627500Y-50230000I147500J0D01*
G01*
X155922500Y-50230000D01*
G75*
G02*
X156070000Y-50377500I0J-147500D01*
G01*
X156070000Y-50722500D01*
G75*
G02*
X155922500Y-50870000I-147500J0D01*
G01*
X155627500Y-50870000D01*
G75*
G02*
X155480000Y-50722500I0J147500D01*
G01*
G37*
G36*
G01*
X154510000Y-50722500D02*
X154510000Y-50377500D01*
G75*
G02*
X154657500Y-50230000I147500J0D01*
G01*
X154952500Y-50230000D01*
G75*
G02*
X155100000Y-50377500I0J-147500D01*
G01*
X155100000Y-50722500D01*
G75*
G02*
X154952500Y-50870000I-147500J0D01*
G01*
X154657500Y-50870000D01*
G75*
G02*
X154510000Y-50722500I0J147500D01*
G01*
G37*
G36*
G01*
X153935200Y-70517500D02*
X153935200Y-70862500D01*
G75*
G02*
X153787700Y-71010000I-147500J0D01*
G01*
X153492700Y-71010000D01*
G75*
G02*
X153345200Y-70862500I0J147500D01*
G01*
X153345200Y-70517500D01*
G75*
G02*
X153492700Y-70370000I147500J0D01*
G01*
X153787700Y-70370000D01*
G75*
G02*
X153935200Y-70517500I0J-147500D01*
G01*
G37*
G36*
G01*
X154905200Y-70517500D02*
X154905200Y-70862500D01*
G75*
G02*
X154757700Y-71010000I-147500J0D01*
G01*
X154462700Y-71010000D01*
G75*
G02*
X154315200Y-70862500I0J147500D01*
G01*
X154315200Y-70517500D01*
G75*
G02*
X154462700Y-70370000I147500J0D01*
G01*
X154757700Y-70370000D01*
G75*
G02*
X154905200Y-70517500I0J-147500D01*
G01*
G37*
G36*
G01*
X170490000Y-69422500D02*
X170490000Y-69077500D01*
G75*
G02*
X170637500Y-68930000I147500J0D01*
G01*
X170932500Y-68930000D01*
G75*
G02*
X171080000Y-69077500I0J-147500D01*
G01*
X171080000Y-69422500D01*
G75*
G02*
X170932500Y-69570000I-147500J0D01*
G01*
X170637500Y-69570000D01*
G75*
G02*
X170490000Y-69422500I0J147500D01*
G01*
G37*
G36*
G01*
X169520000Y-69422500D02*
X169520000Y-69077500D01*
G75*
G02*
X169667500Y-68930000I147500J0D01*
G01*
X169962500Y-68930000D01*
G75*
G02*
X170110000Y-69077500I0J-147500D01*
G01*
X170110000Y-69422500D01*
G75*
G02*
X169962500Y-69570000I-147500J0D01*
G01*
X169667500Y-69570000D01*
G75*
G02*
X169520000Y-69422500I0J147500D01*
G01*
G37*
G36*
G01*
X153906000Y-73507500D02*
X153906000Y-73852500D01*
G75*
G02*
X153758500Y-74000000I-147500J0D01*
G01*
X153463500Y-74000000D01*
G75*
G02*
X153316000Y-73852500I0J147500D01*
G01*
X153316000Y-73507500D01*
G75*
G02*
X153463500Y-73360000I147500J0D01*
G01*
X153758500Y-73360000D01*
G75*
G02*
X153906000Y-73507500I0J-147500D01*
G01*
G37*
G36*
G01*
X154876000Y-73507500D02*
X154876000Y-73852500D01*
G75*
G02*
X154728500Y-74000000I-147500J0D01*
G01*
X154433500Y-74000000D01*
G75*
G02*
X154286000Y-73852500I0J147500D01*
G01*
X154286000Y-73507500D01*
G75*
G02*
X154433500Y-73360000I147500J0D01*
G01*
X154728500Y-73360000D01*
G75*
G02*
X154876000Y-73507500I0J-147500D01*
G01*
G37*
G36*
G01*
X172500000Y-79832500D02*
X172500000Y-79487500D01*
G75*
G02*
X172647500Y-79340000I147500J0D01*
G01*
X172942500Y-79340000D01*
G75*
G02*
X173090000Y-79487500I0J-147500D01*
G01*
X173090000Y-79832500D01*
G75*
G02*
X172942500Y-79980000I-147500J0D01*
G01*
X172647500Y-79980000D01*
G75*
G02*
X172500000Y-79832500I0J147500D01*
G01*
G37*
G36*
G01*
X171530000Y-79832500D02*
X171530000Y-79487500D01*
G75*
G02*
X171677500Y-79340000I147500J0D01*
G01*
X171972500Y-79340000D01*
G75*
G02*
X172120000Y-79487500I0J-147500D01*
G01*
X172120000Y-79832500D01*
G75*
G02*
X171972500Y-79980000I-147500J0D01*
G01*
X171677500Y-79980000D01*
G75*
G02*
X171530000Y-79832500I0J147500D01*
G01*
G37*
G36*
G01*
X126947500Y-58245200D02*
X127292500Y-58245200D01*
G75*
G02*
X127440000Y-58392700I0J-147500D01*
G01*
X127440000Y-58687700D01*
G75*
G02*
X127292500Y-58835200I-147500J0D01*
G01*
X126947500Y-58835200D01*
G75*
G02*
X126800000Y-58687700I0J147500D01*
G01*
X126800000Y-58392700D01*
G75*
G02*
X126947500Y-58245200I147500J0D01*
G01*
G37*
G36*
G01*
X126947500Y-57275200D02*
X127292500Y-57275200D01*
G75*
G02*
X127440000Y-57422700I0J-147500D01*
G01*
X127440000Y-57717700D01*
G75*
G02*
X127292500Y-57865200I-147500J0D01*
G01*
X126947500Y-57865200D01*
G75*
G02*
X126800000Y-57717700I0J147500D01*
G01*
X126800000Y-57422700D01*
G75*
G02*
X126947500Y-57275200I147500J0D01*
G01*
G37*
G36*
G01*
X154038400Y-76958300D02*
X154038400Y-77303300D01*
G75*
G02*
X153890900Y-77450800I-147500J0D01*
G01*
X153595900Y-77450800D01*
G75*
G02*
X153448400Y-77303300I0J147500D01*
G01*
X153448400Y-76958300D01*
G75*
G02*
X153595900Y-76810800I147500J0D01*
G01*
X153890900Y-76810800D01*
G75*
G02*
X154038400Y-76958300I0J-147500D01*
G01*
G37*
G36*
G01*
X155008400Y-76958300D02*
X155008400Y-77303300D01*
G75*
G02*
X154860900Y-77450800I-147500J0D01*
G01*
X154565900Y-77450800D01*
G75*
G02*
X154418400Y-77303300I0J147500D01*
G01*
X154418400Y-76958300D01*
G75*
G02*
X154565900Y-76810800I147500J0D01*
G01*
X154860900Y-76810800D01*
G75*
G02*
X155008400Y-76958300I0J-147500D01*
G01*
G37*
G36*
G01*
X171030000Y-87282500D02*
X171030000Y-86937500D01*
G75*
G02*
X171177500Y-86790000I147500J0D01*
G01*
X171472500Y-86790000D01*
G75*
G02*
X171620000Y-86937500I0J-147500D01*
G01*
X171620000Y-87282500D01*
G75*
G02*
X171472500Y-87430000I-147500J0D01*
G01*
X171177500Y-87430000D01*
G75*
G02*
X171030000Y-87282500I0J147500D01*
G01*
G37*
G36*
G01*
X170060000Y-87282500D02*
X170060000Y-86937500D01*
G75*
G02*
X170207500Y-86790000I147500J0D01*
G01*
X170502500Y-86790000D01*
G75*
G02*
X170650000Y-86937500I0J-147500D01*
G01*
X170650000Y-87282500D01*
G75*
G02*
X170502500Y-87430000I-147500J0D01*
G01*
X170207500Y-87430000D01*
G75*
G02*
X170060000Y-87282500I0J147500D01*
G01*
G37*
G36*
G01*
X128927500Y-58185200D02*
X129272500Y-58185200D01*
G75*
G02*
X129420000Y-58332700I0J-147500D01*
G01*
X129420000Y-58627700D01*
G75*
G02*
X129272500Y-58775200I-147500J0D01*
G01*
X128927500Y-58775200D01*
G75*
G02*
X128780000Y-58627700I0J147500D01*
G01*
X128780000Y-58332700D01*
G75*
G02*
X128927500Y-58185200I147500J0D01*
G01*
G37*
G36*
G01*
X128927500Y-57215200D02*
X129272500Y-57215200D01*
G75*
G02*
X129420000Y-57362700I0J-147500D01*
G01*
X129420000Y-57657700D01*
G75*
G02*
X129272500Y-57805200I-147500J0D01*
G01*
X128927500Y-57805200D01*
G75*
G02*
X128780000Y-57657700I0J147500D01*
G01*
X128780000Y-57362700D01*
G75*
G02*
X128927500Y-57215200I147500J0D01*
G01*
G37*
G36*
G01*
X153968400Y-82095100D02*
X153968400Y-82440100D01*
G75*
G02*
X153820900Y-82587600I-147500J0D01*
G01*
X153525900Y-82587600D01*
G75*
G02*
X153378400Y-82440100I0J147500D01*
G01*
X153378400Y-82095100D01*
G75*
G02*
X153525900Y-81947600I147500J0D01*
G01*
X153820900Y-81947600D01*
G75*
G02*
X153968400Y-82095100I0J-147500D01*
G01*
G37*
G36*
G01*
X154938400Y-82095100D02*
X154938400Y-82440100D01*
G75*
G02*
X154790900Y-82587600I-147500J0D01*
G01*
X154495900Y-82587600D01*
G75*
G02*
X154348400Y-82440100I0J147500D01*
G01*
X154348400Y-82095100D01*
G75*
G02*
X154495900Y-81947600I147500J0D01*
G01*
X154790900Y-81947600D01*
G75*
G02*
X154938400Y-82095100I0J-147500D01*
G01*
G37*
G36*
G01*
X127717500Y-112225000D02*
X128062500Y-112225000D01*
G75*
G02*
X128210000Y-112372500I0J-147500D01*
G01*
X128210000Y-112667500D01*
G75*
G02*
X128062500Y-112815000I-147500J0D01*
G01*
X127717500Y-112815000D01*
G75*
G02*
X127570000Y-112667500I0J147500D01*
G01*
X127570000Y-112372500D01*
G75*
G02*
X127717500Y-112225000I147500J0D01*
G01*
G37*
G36*
G01*
X127717500Y-111255000D02*
X128062500Y-111255000D01*
G75*
G02*
X128210000Y-111402500I0J-147500D01*
G01*
X128210000Y-111697500D01*
G75*
G02*
X128062500Y-111845000I-147500J0D01*
G01*
X127717500Y-111845000D01*
G75*
G02*
X127570000Y-111697500I0J147500D01*
G01*
X127570000Y-111402500D01*
G75*
G02*
X127717500Y-111255000I147500J0D01*
G01*
G37*
G36*
G01*
X135217500Y-61050000D02*
X135562500Y-61050000D01*
G75*
G02*
X135710000Y-61197500I0J-147500D01*
G01*
X135710000Y-61492500D01*
G75*
G02*
X135562500Y-61640000I-147500J0D01*
G01*
X135217500Y-61640000D01*
G75*
G02*
X135070000Y-61492500I0J147500D01*
G01*
X135070000Y-61197500D01*
G75*
G02*
X135217500Y-61050000I147500J0D01*
G01*
G37*
G36*
G01*
X135217500Y-60080000D02*
X135562500Y-60080000D01*
G75*
G02*
X135710000Y-60227500I0J-147500D01*
G01*
X135710000Y-60522500D01*
G75*
G02*
X135562500Y-60670000I-147500J0D01*
G01*
X135217500Y-60670000D01*
G75*
G02*
X135070000Y-60522500I0J147500D01*
G01*
X135070000Y-60227500D01*
G75*
G02*
X135217500Y-60080000I147500J0D01*
G01*
G37*
G36*
G01*
X153988000Y-88270300D02*
X153988000Y-88615300D01*
G75*
G02*
X153840500Y-88762800I-147500J0D01*
G01*
X153545500Y-88762800D01*
G75*
G02*
X153398000Y-88615300I0J147500D01*
G01*
X153398000Y-88270300D01*
G75*
G02*
X153545500Y-88122800I147500J0D01*
G01*
X153840500Y-88122800D01*
G75*
G02*
X153988000Y-88270300I0J-147500D01*
G01*
G37*
G36*
G01*
X154958000Y-88270300D02*
X154958000Y-88615300D01*
G75*
G02*
X154810500Y-88762800I-147500J0D01*
G01*
X154515500Y-88762800D01*
G75*
G02*
X154368000Y-88615300I0J147500D01*
G01*
X154368000Y-88270300D01*
G75*
G02*
X154515500Y-88122800I147500J0D01*
G01*
X154810500Y-88122800D01*
G75*
G02*
X154958000Y-88270300I0J-147500D01*
G01*
G37*
G36*
G01*
X125557500Y-112220000D02*
X125902500Y-112220000D01*
G75*
G02*
X126050000Y-112367500I0J-147500D01*
G01*
X126050000Y-112662500D01*
G75*
G02*
X125902500Y-112810000I-147500J0D01*
G01*
X125557500Y-112810000D01*
G75*
G02*
X125410000Y-112662500I0J147500D01*
G01*
X125410000Y-112367500D01*
G75*
G02*
X125557500Y-112220000I147500J0D01*
G01*
G37*
G36*
G01*
X125557500Y-111250000D02*
X125902500Y-111250000D01*
G75*
G02*
X126050000Y-111397500I0J-147500D01*
G01*
X126050000Y-111692500D01*
G75*
G02*
X125902500Y-111840000I-147500J0D01*
G01*
X125557500Y-111840000D01*
G75*
G02*
X125410000Y-111692500I0J147500D01*
G01*
X125410000Y-111397500D01*
G75*
G02*
X125557500Y-111250000I147500J0D01*
G01*
G37*
G36*
G01*
X136567500Y-61050000D02*
X136912500Y-61050000D01*
G75*
G02*
X137060000Y-61197500I0J-147500D01*
G01*
X137060000Y-61492500D01*
G75*
G02*
X136912500Y-61640000I-147500J0D01*
G01*
X136567500Y-61640000D01*
G75*
G02*
X136420000Y-61492500I0J147500D01*
G01*
X136420000Y-61197500D01*
G75*
G02*
X136567500Y-61050000I147500J0D01*
G01*
G37*
G36*
G01*
X136567500Y-60080000D02*
X136912500Y-60080000D01*
G75*
G02*
X137060000Y-60227500I0J-147500D01*
G01*
X137060000Y-60522500D01*
G75*
G02*
X136912500Y-60670000I-147500J0D01*
G01*
X136567500Y-60670000D01*
G75*
G02*
X136420000Y-60522500I0J147500D01*
G01*
X136420000Y-60227500D01*
G75*
G02*
X136567500Y-60080000I147500J0D01*
G01*
G37*
G36*
G01*
X97840000Y-85037500D02*
X97840000Y-85382500D01*
G75*
G02*
X97692500Y-85530000I-147500J0D01*
G01*
X97397500Y-85530000D01*
G75*
G02*
X97250000Y-85382500I0J147500D01*
G01*
X97250000Y-85037500D01*
G75*
G02*
X97397500Y-84890000I147500J0D01*
G01*
X97692500Y-84890000D01*
G75*
G02*
X97840000Y-85037500I0J-147500D01*
G01*
G37*
G36*
G01*
X98810000Y-85037500D02*
X98810000Y-85382500D01*
G75*
G02*
X98662500Y-85530000I-147500J0D01*
G01*
X98367500Y-85530000D01*
G75*
G02*
X98220000Y-85382500I0J147500D01*
G01*
X98220000Y-85037500D01*
G75*
G02*
X98367500Y-84890000I147500J0D01*
G01*
X98662500Y-84890000D01*
G75*
G02*
X98810000Y-85037500I0J-147500D01*
G01*
G37*
G36*
G01*
X139737500Y-61095000D02*
X140082500Y-61095000D01*
G75*
G02*
X140230000Y-61242500I0J-147500D01*
G01*
X140230000Y-61537500D01*
G75*
G02*
X140082500Y-61685000I-147500J0D01*
G01*
X139737500Y-61685000D01*
G75*
G02*
X139590000Y-61537500I0J147500D01*
G01*
X139590000Y-61242500D01*
G75*
G02*
X139737500Y-61095000I147500J0D01*
G01*
G37*
G36*
G01*
X139737500Y-60125000D02*
X140082500Y-60125000D01*
G75*
G02*
X140230000Y-60272500I0J-147500D01*
G01*
X140230000Y-60567500D01*
G75*
G02*
X140082500Y-60715000I-147500J0D01*
G01*
X139737500Y-60715000D01*
G75*
G02*
X139590000Y-60567500I0J147500D01*
G01*
X139590000Y-60272500D01*
G75*
G02*
X139737500Y-60125000I147500J0D01*
G01*
G37*
G36*
G01*
X132992500Y-95460000D02*
X132647500Y-95460000D01*
G75*
G02*
X132500000Y-95312500I0J147500D01*
G01*
X132500000Y-95017500D01*
G75*
G02*
X132647500Y-94870000I147500J0D01*
G01*
X132992500Y-94870000D01*
G75*
G02*
X133140000Y-95017500I0J-147500D01*
G01*
X133140000Y-95312500D01*
G75*
G02*
X132992500Y-95460000I-147500J0D01*
G01*
G37*
G36*
G01*
X132992500Y-96430000D02*
X132647500Y-96430000D01*
G75*
G02*
X132500000Y-96282500I0J147500D01*
G01*
X132500000Y-95987500D01*
G75*
G02*
X132647500Y-95840000I147500J0D01*
G01*
X132992500Y-95840000D01*
G75*
G02*
X133140000Y-95987500I0J-147500D01*
G01*
X133140000Y-96282500D01*
G75*
G02*
X132992500Y-96430000I-147500J0D01*
G01*
G37*
G36*
G01*
X98430000Y-76417500D02*
X98430000Y-76762500D01*
G75*
G02*
X98282500Y-76910000I-147500J0D01*
G01*
X97987500Y-76910000D01*
G75*
G02*
X97840000Y-76762500I0J147500D01*
G01*
X97840000Y-76417500D01*
G75*
G02*
X97987500Y-76270000I147500J0D01*
G01*
X98282500Y-76270000D01*
G75*
G02*
X98430000Y-76417500I0J-147500D01*
G01*
G37*
G36*
G01*
X99400000Y-76417500D02*
X99400000Y-76762500D01*
G75*
G02*
X99252500Y-76910000I-147500J0D01*
G01*
X98957500Y-76910000D01*
G75*
G02*
X98810000Y-76762500I0J147500D01*
G01*
X98810000Y-76417500D01*
G75*
G02*
X98957500Y-76270000I147500J0D01*
G01*
X99252500Y-76270000D01*
G75*
G02*
X99400000Y-76417500I0J-147500D01*
G01*
G37*
G36*
G01*
X140817500Y-61090000D02*
X141162500Y-61090000D01*
G75*
G02*
X141310000Y-61237500I0J-147500D01*
G01*
X141310000Y-61532500D01*
G75*
G02*
X141162500Y-61680000I-147500J0D01*
G01*
X140817500Y-61680000D01*
G75*
G02*
X140670000Y-61532500I0J147500D01*
G01*
X140670000Y-61237500D01*
G75*
G02*
X140817500Y-61090000I147500J0D01*
G01*
G37*
G36*
G01*
X140817500Y-60120000D02*
X141162500Y-60120000D01*
G75*
G02*
X141310000Y-60267500I0J-147500D01*
G01*
X141310000Y-60562500D01*
G75*
G02*
X141162500Y-60710000I-147500J0D01*
G01*
X140817500Y-60710000D01*
G75*
G02*
X140670000Y-60562500I0J147500D01*
G01*
X140670000Y-60267500D01*
G75*
G02*
X140817500Y-60120000I147500J0D01*
G01*
G37*
G36*
G01*
X99250000Y-82227500D02*
X99250000Y-82572500D01*
G75*
G02*
X99102500Y-82720000I-147500J0D01*
G01*
X98807500Y-82720000D01*
G75*
G02*
X98660000Y-82572500I0J147500D01*
G01*
X98660000Y-82227500D01*
G75*
G02*
X98807500Y-82080000I147500J0D01*
G01*
X99102500Y-82080000D01*
G75*
G02*
X99250000Y-82227500I0J-147500D01*
G01*
G37*
G36*
G01*
X100220000Y-82227500D02*
X100220000Y-82572500D01*
G75*
G02*
X100072500Y-82720000I-147500J0D01*
G01*
X99777500Y-82720000D01*
G75*
G02*
X99630000Y-82572500I0J147500D01*
G01*
X99630000Y-82227500D01*
G75*
G02*
X99777500Y-82080000I147500J0D01*
G01*
X100072500Y-82080000D01*
G75*
G02*
X100220000Y-82227500I0J-147500D01*
G01*
G37*
G36*
G01*
X99080000Y-66847500D02*
X99080000Y-67192500D01*
G75*
G02*
X98932500Y-67340000I-147500J0D01*
G01*
X98637500Y-67340000D01*
G75*
G02*
X98490000Y-67192500I0J147500D01*
G01*
X98490000Y-66847500D01*
G75*
G02*
X98637500Y-66700000I147500J0D01*
G01*
X98932500Y-66700000D01*
G75*
G02*
X99080000Y-66847500I0J-147500D01*
G01*
G37*
G36*
G01*
X100050000Y-66847500D02*
X100050000Y-67192500D01*
G75*
G02*
X99902500Y-67340000I-147500J0D01*
G01*
X99607500Y-67340000D01*
G75*
G02*
X99460000Y-67192500I0J147500D01*
G01*
X99460000Y-66847500D01*
G75*
G02*
X99607500Y-66700000I147500J0D01*
G01*
X99902500Y-66700000D01*
G75*
G02*
X100050000Y-66847500I0J-147500D01*
G01*
G37*
G36*
G01*
X153759600Y-62439100D02*
X153759600Y-62784100D01*
G75*
G02*
X153612100Y-62931600I-147500J0D01*
G01*
X153317100Y-62931600D01*
G75*
G02*
X153169600Y-62784100I0J147500D01*
G01*
X153169600Y-62439100D01*
G75*
G02*
X153317100Y-62291600I147500J0D01*
G01*
X153612100Y-62291600D01*
G75*
G02*
X153759600Y-62439100I0J-147500D01*
G01*
G37*
G36*
G01*
X154729600Y-62439100D02*
X154729600Y-62784100D01*
G75*
G02*
X154582100Y-62931600I-147500J0D01*
G01*
X154287100Y-62931600D01*
G75*
G02*
X154139600Y-62784100I0J147500D01*
G01*
X154139600Y-62439100D01*
G75*
G02*
X154287100Y-62291600I147500J0D01*
G01*
X154582100Y-62291600D01*
G75*
G02*
X154729600Y-62439100I0J-147500D01*
G01*
G37*
G36*
G01*
X115330000Y-74052500D02*
X115330000Y-73707500D01*
G75*
G02*
X115477500Y-73560000I147500J0D01*
G01*
X115772500Y-73560000D01*
G75*
G02*
X115920000Y-73707500I0J-147500D01*
G01*
X115920000Y-74052500D01*
G75*
G02*
X115772500Y-74200000I-147500J0D01*
G01*
X115477500Y-74200000D01*
G75*
G02*
X115330000Y-74052500I0J147500D01*
G01*
G37*
G36*
G01*
X114360000Y-74052500D02*
X114360000Y-73707500D01*
G75*
G02*
X114507500Y-73560000I147500J0D01*
G01*
X114802500Y-73560000D01*
G75*
G02*
X114950000Y-73707500I0J-147500D01*
G01*
X114950000Y-74052500D01*
G75*
G02*
X114802500Y-74200000I-147500J0D01*
G01*
X114507500Y-74200000D01*
G75*
G02*
X114360000Y-74052500I0J147500D01*
G01*
G37*
G36*
G01*
X63868800Y-34320700D02*
X63868800Y-34665700D01*
G75*
G02*
X63721300Y-34813200I-147500J0D01*
G01*
X63426300Y-34813200D01*
G75*
G02*
X63278800Y-34665700I0J147500D01*
G01*
X63278800Y-34320700D01*
G75*
G02*
X63426300Y-34173200I147500J0D01*
G01*
X63721300Y-34173200D01*
G75*
G02*
X63868800Y-34320700I0J-147500D01*
G01*
G37*
G36*
G01*
X64838800Y-34320700D02*
X64838800Y-34665700D01*
G75*
G02*
X64691300Y-34813200I-147500J0D01*
G01*
X64396300Y-34813200D01*
G75*
G02*
X64248800Y-34665700I0J147500D01*
G01*
X64248800Y-34320700D01*
G75*
G02*
X64396300Y-34173200I147500J0D01*
G01*
X64691300Y-34173200D01*
G75*
G02*
X64838800Y-34320700I0J-147500D01*
G01*
G37*
G36*
G01*
X58287700Y-32700600D02*
X57942700Y-32700600D01*
G75*
G02*
X57795200Y-32553100I0J147500D01*
G01*
X57795200Y-32258100D01*
G75*
G02*
X57942700Y-32110600I147500J0D01*
G01*
X58287700Y-32110600D01*
G75*
G02*
X58435200Y-32258100I0J-147500D01*
G01*
X58435200Y-32553100D01*
G75*
G02*
X58287700Y-32700600I-147500J0D01*
G01*
G37*
G36*
G01*
X58287700Y-33670600D02*
X57942700Y-33670600D01*
G75*
G02*
X57795200Y-33523100I0J147500D01*
G01*
X57795200Y-33228100D01*
G75*
G02*
X57942700Y-33080600I147500J0D01*
G01*
X58287700Y-33080600D01*
G75*
G02*
X58435200Y-33228100I0J-147500D01*
G01*
X58435200Y-33523100D01*
G75*
G02*
X58287700Y-33670600I-147500J0D01*
G01*
G37*
G36*
G01*
X155758100Y-146595600D02*
X156103100Y-146595600D01*
G75*
G02*
X156250600Y-146743100I0J-147500D01*
G01*
X156250600Y-147038100D01*
G75*
G02*
X156103100Y-147185600I-147500J0D01*
G01*
X155758100Y-147185600D01*
G75*
G02*
X155610600Y-147038100I0J147500D01*
G01*
X155610600Y-146743100D01*
G75*
G02*
X155758100Y-146595600I147500J0D01*
G01*
G37*
G36*
G01*
X155758100Y-145625600D02*
X156103100Y-145625600D01*
G75*
G02*
X156250600Y-145773100I0J-147500D01*
G01*
X156250600Y-146068100D01*
G75*
G02*
X156103100Y-146215600I-147500J0D01*
G01*
X155758100Y-146215600D01*
G75*
G02*
X155610600Y-146068100I0J147500D01*
G01*
X155610600Y-145773100D01*
G75*
G02*
X155758100Y-145625600I147500J0D01*
G01*
G37*
G36*
G01*
X59252900Y-78730200D02*
X58907900Y-78730200D01*
G75*
G02*
X58760400Y-78582700I0J147500D01*
G01*
X58760400Y-78287700D01*
G75*
G02*
X58907900Y-78140200I147500J0D01*
G01*
X59252900Y-78140200D01*
G75*
G02*
X59400400Y-78287700I0J-147500D01*
G01*
X59400400Y-78582700D01*
G75*
G02*
X59252900Y-78730200I-147500J0D01*
G01*
G37*
G36*
G01*
X59252900Y-79700200D02*
X58907900Y-79700200D01*
G75*
G02*
X58760400Y-79552700I0J147500D01*
G01*
X58760400Y-79257700D01*
G75*
G02*
X58907900Y-79110200I147500J0D01*
G01*
X59252900Y-79110200D01*
G75*
G02*
X59400400Y-79257700I0J-147500D01*
G01*
X59400400Y-79552700D01*
G75*
G02*
X59252900Y-79700200I-147500J0D01*
G01*
G37*
G36*
G01*
X55493700Y-78651600D02*
X55148700Y-78651600D01*
G75*
G02*
X55001200Y-78504100I0J147500D01*
G01*
X55001200Y-78209100D01*
G75*
G02*
X55148700Y-78061600I147500J0D01*
G01*
X55493700Y-78061600D01*
G75*
G02*
X55641200Y-78209100I0J-147500D01*
G01*
X55641200Y-78504100D01*
G75*
G02*
X55493700Y-78651600I-147500J0D01*
G01*
G37*
G36*
G01*
X55493700Y-79621600D02*
X55148700Y-79621600D01*
G75*
G02*
X55001200Y-79474100I0J147500D01*
G01*
X55001200Y-79179100D01*
G75*
G02*
X55148700Y-79031600I147500J0D01*
G01*
X55493700Y-79031600D01*
G75*
G02*
X55641200Y-79179100I0J-147500D01*
G01*
X55641200Y-79474100D01*
G75*
G02*
X55493700Y-79621600I-147500J0D01*
G01*
G37*
G36*
G01*
X59626000Y-77032900D02*
X59626000Y-76687900D01*
G75*
G02*
X59773500Y-76540400I147500J0D01*
G01*
X60068500Y-76540400D01*
G75*
G02*
X60216000Y-76687900I0J-147500D01*
G01*
X60216000Y-77032900D01*
G75*
G02*
X60068500Y-77180400I-147500J0D01*
G01*
X59773500Y-77180400D01*
G75*
G02*
X59626000Y-77032900I0J147500D01*
G01*
G37*
G36*
G01*
X58656000Y-77032900D02*
X58656000Y-76687900D01*
G75*
G02*
X58803500Y-76540400I147500J0D01*
G01*
X59098500Y-76540400D01*
G75*
G02*
X59246000Y-76687900I0J-147500D01*
G01*
X59246000Y-77032900D01*
G75*
G02*
X59098500Y-77180400I-147500J0D01*
G01*
X58803500Y-77180400D01*
G75*
G02*
X58656000Y-77032900I0J147500D01*
G01*
G37*
G36*
G01*
X215251800Y-97784700D02*
X215251800Y-97439700D01*
G75*
G02*
X215399300Y-97292200I147500J0D01*
G01*
X215694300Y-97292200D01*
G75*
G02*
X215841800Y-97439700I0J-147500D01*
G01*
X215841800Y-97784700D01*
G75*
G02*
X215694300Y-97932200I-147500J0D01*
G01*
X215399300Y-97932200D01*
G75*
G02*
X215251800Y-97784700I0J147500D01*
G01*
G37*
G36*
G01*
X214281800Y-97784700D02*
X214281800Y-97439700D01*
G75*
G02*
X214429300Y-97292200I147500J0D01*
G01*
X214724300Y-97292200D01*
G75*
G02*
X214871800Y-97439700I0J-147500D01*
G01*
X214871800Y-97784700D01*
G75*
G02*
X214724300Y-97932200I-147500J0D01*
G01*
X214429300Y-97932200D01*
G75*
G02*
X214281800Y-97784700I0J147500D01*
G01*
G37*
G36*
G01*
X195610000Y-101547500D02*
X195610000Y-101892500D01*
G75*
G02*
X195462500Y-102040000I-147500J0D01*
G01*
X195167500Y-102040000D01*
G75*
G02*
X195020000Y-101892500I0J147500D01*
G01*
X195020000Y-101547500D01*
G75*
G02*
X195167500Y-101400000I147500J0D01*
G01*
X195462500Y-101400000D01*
G75*
G02*
X195610000Y-101547500I0J-147500D01*
G01*
G37*
G36*
G01*
X196580000Y-101547500D02*
X196580000Y-101892500D01*
G75*
G02*
X196432500Y-102040000I-147500J0D01*
G01*
X196137500Y-102040000D01*
G75*
G02*
X195990000Y-101892500I0J147500D01*
G01*
X195990000Y-101547500D01*
G75*
G02*
X196137500Y-101400000I147500J0D01*
G01*
X196432500Y-101400000D01*
G75*
G02*
X196580000Y-101547500I0J-147500D01*
G01*
G37*
G36*
G01*
X197240000Y-88557500D02*
X197240000Y-88902500D01*
G75*
G02*
X197092500Y-89050000I-147500J0D01*
G01*
X196797500Y-89050000D01*
G75*
G02*
X196650000Y-88902500I0J147500D01*
G01*
X196650000Y-88557500D01*
G75*
G02*
X196797500Y-88410000I147500J0D01*
G01*
X197092500Y-88410000D01*
G75*
G02*
X197240000Y-88557500I0J-147500D01*
G01*
G37*
G36*
G01*
X198210000Y-88557500D02*
X198210000Y-88902500D01*
G75*
G02*
X198062500Y-89050000I-147500J0D01*
G01*
X197767500Y-89050000D01*
G75*
G02*
X197620000Y-88902500I0J147500D01*
G01*
X197620000Y-88557500D01*
G75*
G02*
X197767500Y-88410000I147500J0D01*
G01*
X198062500Y-88410000D01*
G75*
G02*
X198210000Y-88557500I0J-147500D01*
G01*
G37*
G36*
G01*
X215140000Y-83382500D02*
X215140000Y-83037500D01*
G75*
G02*
X215287500Y-82890000I147500J0D01*
G01*
X215582500Y-82890000D01*
G75*
G02*
X215730000Y-83037500I0J-147500D01*
G01*
X215730000Y-83382500D01*
G75*
G02*
X215582500Y-83530000I-147500J0D01*
G01*
X215287500Y-83530000D01*
G75*
G02*
X215140000Y-83382500I0J147500D01*
G01*
G37*
G36*
G01*
X214170000Y-83382500D02*
X214170000Y-83037500D01*
G75*
G02*
X214317500Y-82890000I147500J0D01*
G01*
X214612500Y-82890000D01*
G75*
G02*
X214760000Y-83037500I0J-147500D01*
G01*
X214760000Y-83382500D01*
G75*
G02*
X214612500Y-83530000I-147500J0D01*
G01*
X214317500Y-83530000D01*
G75*
G02*
X214170000Y-83382500I0J147500D01*
G01*
G37*
G36*
G01*
X215251800Y-98927700D02*
X215251800Y-98582700D01*
G75*
G02*
X215399300Y-98435200I147500J0D01*
G01*
X215694300Y-98435200D01*
G75*
G02*
X215841800Y-98582700I0J-147500D01*
G01*
X215841800Y-98927700D01*
G75*
G02*
X215694300Y-99075200I-147500J0D01*
G01*
X215399300Y-99075200D01*
G75*
G02*
X215251800Y-98927700I0J147500D01*
G01*
G37*
G36*
G01*
X214281800Y-98927700D02*
X214281800Y-98582700D01*
G75*
G02*
X214429300Y-98435200I147500J0D01*
G01*
X214724300Y-98435200D01*
G75*
G02*
X214871800Y-98582700I0J-147500D01*
G01*
X214871800Y-98927700D01*
G75*
G02*
X214724300Y-99075200I-147500J0D01*
G01*
X214429300Y-99075200D01*
G75*
G02*
X214281800Y-98927700I0J147500D01*
G01*
G37*
G36*
G01*
X215310000Y-103402500D02*
X215310000Y-103057500D01*
G75*
G02*
X215457500Y-102910000I147500J0D01*
G01*
X215752500Y-102910000D01*
G75*
G02*
X215900000Y-103057500I0J-147500D01*
G01*
X215900000Y-103402500D01*
G75*
G02*
X215752500Y-103550000I-147500J0D01*
G01*
X215457500Y-103550000D01*
G75*
G02*
X215310000Y-103402500I0J147500D01*
G01*
G37*
G36*
G01*
X214340000Y-103402500D02*
X214340000Y-103057500D01*
G75*
G02*
X214487500Y-102910000I147500J0D01*
G01*
X214782500Y-102910000D01*
G75*
G02*
X214930000Y-103057500I0J-147500D01*
G01*
X214930000Y-103402500D01*
G75*
G02*
X214782500Y-103550000I-147500J0D01*
G01*
X214487500Y-103550000D01*
G75*
G02*
X214340000Y-103402500I0J147500D01*
G01*
G37*
G36*
G01*
X215251800Y-91815700D02*
X215251800Y-91470700D01*
G75*
G02*
X215399300Y-91323200I147500J0D01*
G01*
X215694300Y-91323200D01*
G75*
G02*
X215841800Y-91470700I0J-147500D01*
G01*
X215841800Y-91815700D01*
G75*
G02*
X215694300Y-91963200I-147500J0D01*
G01*
X215399300Y-91963200D01*
G75*
G02*
X215251800Y-91815700I0J147500D01*
G01*
G37*
G36*
G01*
X214281800Y-91815700D02*
X214281800Y-91470700D01*
G75*
G02*
X214429300Y-91323200I147500J0D01*
G01*
X214724300Y-91323200D01*
G75*
G02*
X214871800Y-91470700I0J-147500D01*
G01*
X214871800Y-91815700D01*
G75*
G02*
X214724300Y-91963200I-147500J0D01*
G01*
X214429300Y-91963200D01*
G75*
G02*
X214281800Y-91815700I0J147500D01*
G01*
G37*
G36*
G01*
X197670000Y-85567500D02*
X197670000Y-85912500D01*
G75*
G02*
X197522500Y-86060000I-147500J0D01*
G01*
X197227500Y-86060000D01*
G75*
G02*
X197080000Y-85912500I0J147500D01*
G01*
X197080000Y-85567500D01*
G75*
G02*
X197227500Y-85420000I147500J0D01*
G01*
X197522500Y-85420000D01*
G75*
G02*
X197670000Y-85567500I0J-147500D01*
G01*
G37*
G36*
G01*
X198640000Y-85567500D02*
X198640000Y-85912500D01*
G75*
G02*
X198492500Y-86060000I-147500J0D01*
G01*
X198197500Y-86060000D01*
G75*
G02*
X198050000Y-85912500I0J147500D01*
G01*
X198050000Y-85567500D01*
G75*
G02*
X198197500Y-85420000I147500J0D01*
G01*
X198492500Y-85420000D01*
G75*
G02*
X198640000Y-85567500I0J-147500D01*
G01*
G37*
G36*
G01*
X215290000Y-104442500D02*
X215290000Y-104097500D01*
G75*
G02*
X215437500Y-103950000I147500J0D01*
G01*
X215732500Y-103950000D01*
G75*
G02*
X215880000Y-104097500I0J-147500D01*
G01*
X215880000Y-104442500D01*
G75*
G02*
X215732500Y-104590000I-147500J0D01*
G01*
X215437500Y-104590000D01*
G75*
G02*
X215290000Y-104442500I0J147500D01*
G01*
G37*
G36*
G01*
X214320000Y-104442500D02*
X214320000Y-104097500D01*
G75*
G02*
X214467500Y-103950000I147500J0D01*
G01*
X214762500Y-103950000D01*
G75*
G02*
X214910000Y-104097500I0J-147500D01*
G01*
X214910000Y-104442500D01*
G75*
G02*
X214762500Y-104590000I-147500J0D01*
G01*
X214467500Y-104590000D01*
G75*
G02*
X214320000Y-104442500I0J147500D01*
G01*
G37*
G36*
G01*
X215180000Y-87332500D02*
X215180000Y-86987500D01*
G75*
G02*
X215327500Y-86840000I147500J0D01*
G01*
X215622500Y-86840000D01*
G75*
G02*
X215770000Y-86987500I0J-147500D01*
G01*
X215770000Y-87332500D01*
G75*
G02*
X215622500Y-87480000I-147500J0D01*
G01*
X215327500Y-87480000D01*
G75*
G02*
X215180000Y-87332500I0J147500D01*
G01*
G37*
G36*
G01*
X214210000Y-87332500D02*
X214210000Y-86987500D01*
G75*
G02*
X214357500Y-86840000I147500J0D01*
G01*
X214652500Y-86840000D01*
G75*
G02*
X214800000Y-86987500I0J-147500D01*
G01*
X214800000Y-87332500D01*
G75*
G02*
X214652500Y-87480000I-147500J0D01*
G01*
X214357500Y-87480000D01*
G75*
G02*
X214210000Y-87332500I0J147500D01*
G01*
G37*
G36*
G01*
X215140000Y-84422500D02*
X215140000Y-84077500D01*
G75*
G02*
X215287500Y-83930000I147500J0D01*
G01*
X215582500Y-83930000D01*
G75*
G02*
X215730000Y-84077500I0J-147500D01*
G01*
X215730000Y-84422500D01*
G75*
G02*
X215582500Y-84570000I-147500J0D01*
G01*
X215287500Y-84570000D01*
G75*
G02*
X215140000Y-84422500I0J147500D01*
G01*
G37*
G36*
G01*
X214170000Y-84422500D02*
X214170000Y-84077500D01*
G75*
G02*
X214317500Y-83930000I147500J0D01*
G01*
X214612500Y-83930000D01*
G75*
G02*
X214760000Y-84077500I0J-147500D01*
G01*
X214760000Y-84422500D01*
G75*
G02*
X214612500Y-84570000I-147500J0D01*
G01*
X214317500Y-84570000D01*
G75*
G02*
X214170000Y-84422500I0J147500D01*
G01*
G37*
G36*
G01*
X90819600Y-146091700D02*
X90819600Y-145746700D01*
G75*
G02*
X90967100Y-145599200I147500J0D01*
G01*
X91262100Y-145599200D01*
G75*
G02*
X91409600Y-145746700I0J-147500D01*
G01*
X91409600Y-146091700D01*
G75*
G02*
X91262100Y-146239200I-147500J0D01*
G01*
X90967100Y-146239200D01*
G75*
G02*
X90819600Y-146091700I0J147500D01*
G01*
G37*
G36*
G01*
X89849600Y-146091700D02*
X89849600Y-145746700D01*
G75*
G02*
X89997100Y-145599200I147500J0D01*
G01*
X90292100Y-145599200D01*
G75*
G02*
X90439600Y-145746700I0J-147500D01*
G01*
X90439600Y-146091700D01*
G75*
G02*
X90292100Y-146239200I-147500J0D01*
G01*
X89997100Y-146239200D01*
G75*
G02*
X89849600Y-146091700I0J147500D01*
G01*
G37*
G36*
G01*
X88941000Y-137571700D02*
X88941000Y-137916700D01*
G75*
G02*
X88793500Y-138064200I-147500J0D01*
G01*
X88498500Y-138064200D01*
G75*
G02*
X88351000Y-137916700I0J147500D01*
G01*
X88351000Y-137571700D01*
G75*
G02*
X88498500Y-137424200I147500J0D01*
G01*
X88793500Y-137424200D01*
G75*
G02*
X88941000Y-137571700I0J-147500D01*
G01*
G37*
G36*
G01*
X89911000Y-137571700D02*
X89911000Y-137916700D01*
G75*
G02*
X89763500Y-138064200I-147500J0D01*
G01*
X89468500Y-138064200D01*
G75*
G02*
X89321000Y-137916700I0J147500D01*
G01*
X89321000Y-137571700D01*
G75*
G02*
X89468500Y-137424200I147500J0D01*
G01*
X89763500Y-137424200D01*
G75*
G02*
X89911000Y-137571700I0J-147500D01*
G01*
G37*
G36*
G01*
X95954100Y-142313600D02*
X96299100Y-142313600D01*
G75*
G02*
X96446600Y-142461100I0J-147500D01*
G01*
X96446600Y-142756100D01*
G75*
G02*
X96299100Y-142903600I-147500J0D01*
G01*
X95954100Y-142903600D01*
G75*
G02*
X95806600Y-142756100I0J147500D01*
G01*
X95806600Y-142461100D01*
G75*
G02*
X95954100Y-142313600I147500J0D01*
G01*
G37*
G36*
G01*
X95954100Y-141343600D02*
X96299100Y-141343600D01*
G75*
G02*
X96446600Y-141491100I0J-147500D01*
G01*
X96446600Y-141786100D01*
G75*
G02*
X96299100Y-141933600I-147500J0D01*
G01*
X95954100Y-141933600D01*
G75*
G02*
X95806600Y-141786100I0J147500D01*
G01*
X95806600Y-141491100D01*
G75*
G02*
X95954100Y-141343600I147500J0D01*
G01*
G37*
G36*
G01*
X90842600Y-143784100D02*
X90842600Y-143439100D01*
G75*
G02*
X90990100Y-143291600I147500J0D01*
G01*
X91285100Y-143291600D01*
G75*
G02*
X91432600Y-143439100I0J-147500D01*
G01*
X91432600Y-143784100D01*
G75*
G02*
X91285100Y-143931600I-147500J0D01*
G01*
X90990100Y-143931600D01*
G75*
G02*
X90842600Y-143784100I0J147500D01*
G01*
G37*
G36*
G01*
X89872600Y-143784100D02*
X89872600Y-143439100D01*
G75*
G02*
X90020100Y-143291600I147500J0D01*
G01*
X90315100Y-143291600D01*
G75*
G02*
X90462600Y-143439100I0J-147500D01*
G01*
X90462600Y-143784100D01*
G75*
G02*
X90315100Y-143931600I-147500J0D01*
G01*
X90020100Y-143931600D01*
G75*
G02*
X89872600Y-143784100I0J147500D01*
G01*
G37*
G36*
G01*
X97597600Y-143256700D02*
X97597600Y-143601700D01*
G75*
G02*
X97450100Y-143749200I-147500J0D01*
G01*
X97155100Y-143749200D01*
G75*
G02*
X97007600Y-143601700I0J147500D01*
G01*
X97007600Y-143256700D01*
G75*
G02*
X97155100Y-143109200I147500J0D01*
G01*
X97450100Y-143109200D01*
G75*
G02*
X97597600Y-143256700I0J-147500D01*
G01*
G37*
G36*
G01*
X98567600Y-143256700D02*
X98567600Y-143601700D01*
G75*
G02*
X98420100Y-143749200I-147500J0D01*
G01*
X98125100Y-143749200D01*
G75*
G02*
X97977600Y-143601700I0J147500D01*
G01*
X97977600Y-143256700D01*
G75*
G02*
X98125100Y-143109200I147500J0D01*
G01*
X98420100Y-143109200D01*
G75*
G02*
X98567600Y-143256700I0J-147500D01*
G01*
G37*
G36*
G01*
X93746100Y-146977600D02*
X93401100Y-146977600D01*
G75*
G02*
X93253600Y-146830100I0J147500D01*
G01*
X93253600Y-146535100D01*
G75*
G02*
X93401100Y-146387600I147500J0D01*
G01*
X93746100Y-146387600D01*
G75*
G02*
X93893600Y-146535100I0J-147500D01*
G01*
X93893600Y-146830100D01*
G75*
G02*
X93746100Y-146977600I-147500J0D01*
G01*
G37*
G36*
G01*
X93746100Y-147947600D02*
X93401100Y-147947600D01*
G75*
G02*
X93253600Y-147800100I0J147500D01*
G01*
X93253600Y-147505100D01*
G75*
G02*
X93401100Y-147357600I147500J0D01*
G01*
X93746100Y-147357600D01*
G75*
G02*
X93893600Y-147505100I0J-147500D01*
G01*
X93893600Y-147800100D01*
G75*
G02*
X93746100Y-147947600I-147500J0D01*
G01*
G37*
G36*
G01*
X91333100Y-148524600D02*
X90988100Y-148524600D01*
G75*
G02*
X90840600Y-148377100I0J147500D01*
G01*
X90840600Y-148082100D01*
G75*
G02*
X90988100Y-147934600I147500J0D01*
G01*
X91333100Y-147934600D01*
G75*
G02*
X91480600Y-148082100I0J-147500D01*
G01*
X91480600Y-148377100D01*
G75*
G02*
X91333100Y-148524600I-147500J0D01*
G01*
G37*
G36*
G01*
X91333100Y-149494600D02*
X90988100Y-149494600D01*
G75*
G02*
X90840600Y-149347100I0J147500D01*
G01*
X90840600Y-149052100D01*
G75*
G02*
X90988100Y-148904600I147500J0D01*
G01*
X91333100Y-148904600D01*
G75*
G02*
X91480600Y-149052100I0J-147500D01*
G01*
X91480600Y-149347100D01*
G75*
G02*
X91333100Y-149494600I-147500J0D01*
G01*
G37*
G36*
G01*
X95849600Y-146773600D02*
X94599600Y-146773600D01*
G75*
G02*
X94349600Y-146523600I0J250000D01*
G01*
X94349600Y-145773600D01*
G75*
G02*
X94599600Y-145523600I250000J0D01*
G01*
X95849600Y-145523600D01*
G75*
G02*
X96099600Y-145773600I0J-250000D01*
G01*
X96099600Y-146523600D01*
G75*
G02*
X95849600Y-146773600I-250000J0D01*
G01*
G37*
G36*
G01*
X95849600Y-149573600D02*
X94599600Y-149573600D01*
G75*
G02*
X94349600Y-149323600I0J250000D01*
G01*
X94349600Y-148573600D01*
G75*
G02*
X94599600Y-148323600I250000J0D01*
G01*
X95849600Y-148323600D01*
G75*
G02*
X96099600Y-148573600I0J-250000D01*
G01*
X96099600Y-149323600D01*
G75*
G02*
X95849600Y-149573600I-250000J0D01*
G01*
G37*
G36*
G01*
X88362100Y-152945600D02*
X88707100Y-152945600D01*
G75*
G02*
X88854600Y-153093100I0J-147500D01*
G01*
X88854600Y-153388100D01*
G75*
G02*
X88707100Y-153535600I-147500J0D01*
G01*
X88362100Y-153535600D01*
G75*
G02*
X88214600Y-153388100I0J147500D01*
G01*
X88214600Y-153093100D01*
G75*
G02*
X88362100Y-152945600I147500J0D01*
G01*
G37*
G36*
G01*
X88362100Y-151975600D02*
X88707100Y-151975600D01*
G75*
G02*
X88854600Y-152123100I0J-147500D01*
G01*
X88854600Y-152418100D01*
G75*
G02*
X88707100Y-152565600I-147500J0D01*
G01*
X88362100Y-152565600D01*
G75*
G02*
X88214600Y-152418100I0J147500D01*
G01*
X88214600Y-152123100D01*
G75*
G02*
X88362100Y-151975600I147500J0D01*
G01*
G37*
G36*
G01*
X86131600Y-152908600D02*
X87381600Y-152908600D01*
G75*
G02*
X87631600Y-153158600I0J-250000D01*
G01*
X87631600Y-153908600D01*
G75*
G02*
X87381600Y-154158600I-250000J0D01*
G01*
X86131600Y-154158600D01*
G75*
G02*
X85881600Y-153908600I0J250000D01*
G01*
X85881600Y-153158600D01*
G75*
G02*
X86131600Y-152908600I250000J0D01*
G01*
G37*
G36*
G01*
X86131600Y-150108600D02*
X87381600Y-150108600D01*
G75*
G02*
X87631600Y-150358600I0J-250000D01*
G01*
X87631600Y-151108600D01*
G75*
G02*
X87381600Y-151358600I-250000J0D01*
G01*
X86131600Y-151358600D01*
G75*
G02*
X85881600Y-151108600I0J250000D01*
G01*
X85881600Y-150358600D01*
G75*
G02*
X86131600Y-150108600I250000J0D01*
G01*
G37*
G36*
G01*
X162165800Y-142514100D02*
X162165800Y-142169100D01*
G75*
G02*
X162313300Y-142021600I147500J0D01*
G01*
X162608300Y-142021600D01*
G75*
G02*
X162755800Y-142169100I0J-147500D01*
G01*
X162755800Y-142514100D01*
G75*
G02*
X162608300Y-142661600I-147500J0D01*
G01*
X162313300Y-142661600D01*
G75*
G02*
X162165800Y-142514100I0J147500D01*
G01*
G37*
G36*
G01*
X161195800Y-142514100D02*
X161195800Y-142169100D01*
G75*
G02*
X161343300Y-142021600I147500J0D01*
G01*
X161638300Y-142021600D01*
G75*
G02*
X161785800Y-142169100I0J-147500D01*
G01*
X161785800Y-142514100D01*
G75*
G02*
X161638300Y-142661600I-147500J0D01*
G01*
X161343300Y-142661600D01*
G75*
G02*
X161195800Y-142514100I0J147500D01*
G01*
G37*
G36*
G01*
X160718000Y-151759700D02*
X160718000Y-151414700D01*
G75*
G02*
X160865500Y-151267200I147500J0D01*
G01*
X161160500Y-151267200D01*
G75*
G02*
X161308000Y-151414700I0J-147500D01*
G01*
X161308000Y-151759700D01*
G75*
G02*
X161160500Y-151907200I-147500J0D01*
G01*
X160865500Y-151907200D01*
G75*
G02*
X160718000Y-151759700I0J147500D01*
G01*
G37*
G36*
G01*
X159748000Y-151759700D02*
X159748000Y-151414700D01*
G75*
G02*
X159895500Y-151267200I147500J0D01*
G01*
X160190500Y-151267200D01*
G75*
G02*
X160338000Y-151414700I0J-147500D01*
G01*
X160338000Y-151759700D01*
G75*
G02*
X160190500Y-151907200I-147500J0D01*
G01*
X159895500Y-151907200D01*
G75*
G02*
X159748000Y-151759700I0J147500D01*
G01*
G37*
G36*
G01*
X57129900Y-30212800D02*
X57474900Y-30212800D01*
G75*
G02*
X57622400Y-30360300I0J-147500D01*
G01*
X57622400Y-30655300D01*
G75*
G02*
X57474900Y-30802800I-147500J0D01*
G01*
X57129900Y-30802800D01*
G75*
G02*
X56982400Y-30655300I0J147500D01*
G01*
X56982400Y-30360300D01*
G75*
G02*
X57129900Y-30212800I147500J0D01*
G01*
G37*
G36*
G01*
X57129900Y-29242800D02*
X57474900Y-29242800D01*
G75*
G02*
X57622400Y-29390300I0J-147500D01*
G01*
X57622400Y-29685300D01*
G75*
G02*
X57474900Y-29832800I-147500J0D01*
G01*
X57129900Y-29832800D01*
G75*
G02*
X56982400Y-29685300I0J147500D01*
G01*
X56982400Y-29390300D01*
G75*
G02*
X57129900Y-29242800I147500J0D01*
G01*
G37*
G36*
G01*
X62064400Y-30093700D02*
X62064400Y-29748700D01*
G75*
G02*
X62211900Y-29601200I147500J0D01*
G01*
X62506900Y-29601200D01*
G75*
G02*
X62654400Y-29748700I0J-147500D01*
G01*
X62654400Y-30093700D01*
G75*
G02*
X62506900Y-30241200I-147500J0D01*
G01*
X62211900Y-30241200D01*
G75*
G02*
X62064400Y-30093700I0J147500D01*
G01*
G37*
G36*
G01*
X61094400Y-30093700D02*
X61094400Y-29748700D01*
G75*
G02*
X61241900Y-29601200I147500J0D01*
G01*
X61536900Y-29601200D01*
G75*
G02*
X61684400Y-29748700I0J-147500D01*
G01*
X61684400Y-30093700D01*
G75*
G02*
X61536900Y-30241200I-147500J0D01*
G01*
X61241900Y-30241200D01*
G75*
G02*
X61094400Y-30093700I0J147500D01*
G01*
G37*
G36*
G01*
X62064400Y-28722100D02*
X62064400Y-28377100D01*
G75*
G02*
X62211900Y-28229600I147500J0D01*
G01*
X62506900Y-28229600D01*
G75*
G02*
X62654400Y-28377100I0J-147500D01*
G01*
X62654400Y-28722100D01*
G75*
G02*
X62506900Y-28869600I-147500J0D01*
G01*
X62211900Y-28869600D01*
G75*
G02*
X62064400Y-28722100I0J147500D01*
G01*
G37*
G36*
G01*
X61094400Y-28722100D02*
X61094400Y-28377100D01*
G75*
G02*
X61241900Y-28229600I147500J0D01*
G01*
X61536900Y-28229600D01*
G75*
G02*
X61684400Y-28377100I0J-147500D01*
G01*
X61684400Y-28722100D01*
G75*
G02*
X61536900Y-28869600I-147500J0D01*
G01*
X61241900Y-28869600D01*
G75*
G02*
X61094400Y-28722100I0J147500D01*
G01*
G37*
G36*
G01*
X59669900Y-46935800D02*
X60014900Y-46935800D01*
G75*
G02*
X60162400Y-47083300I0J-147500D01*
G01*
X60162400Y-47378300D01*
G75*
G02*
X60014900Y-47525800I-147500J0D01*
G01*
X59669900Y-47525800D01*
G75*
G02*
X59522400Y-47378300I0J147500D01*
G01*
X59522400Y-47083300D01*
G75*
G02*
X59669900Y-46935800I147500J0D01*
G01*
G37*
G36*
G01*
X59669900Y-45965800D02*
X60014900Y-45965800D01*
G75*
G02*
X60162400Y-46113300I0J-147500D01*
G01*
X60162400Y-46408300D01*
G75*
G02*
X60014900Y-46555800I-147500J0D01*
G01*
X59669900Y-46555800D01*
G75*
G02*
X59522400Y-46408300I0J147500D01*
G01*
X59522400Y-46113300D01*
G75*
G02*
X59669900Y-45965800I147500J0D01*
G01*
G37*
G36*
G01*
X60014900Y-49060600D02*
X59669900Y-49060600D01*
G75*
G02*
X59522400Y-48913100I0J147500D01*
G01*
X59522400Y-48618100D01*
G75*
G02*
X59669900Y-48470600I147500J0D01*
G01*
X60014900Y-48470600D01*
G75*
G02*
X60162400Y-48618100I0J-147500D01*
G01*
X60162400Y-48913100D01*
G75*
G02*
X60014900Y-49060600I-147500J0D01*
G01*
G37*
G36*
G01*
X60014900Y-50030600D02*
X59669900Y-50030600D01*
G75*
G02*
X59522400Y-49883100I0J147500D01*
G01*
X59522400Y-49588100D01*
G75*
G02*
X59669900Y-49440600I147500J0D01*
G01*
X60014900Y-49440600D01*
G75*
G02*
X60162400Y-49588100I0J-147500D01*
G01*
X60162400Y-49883100D01*
G75*
G02*
X60014900Y-50030600I-147500J0D01*
G01*
G37*
G36*
G01*
X59669900Y-51980600D02*
X60014900Y-51980600D01*
G75*
G02*
X60162400Y-52128100I0J-147500D01*
G01*
X60162400Y-52423100D01*
G75*
G02*
X60014900Y-52570600I-147500J0D01*
G01*
X59669900Y-52570600D01*
G75*
G02*
X59522400Y-52423100I0J147500D01*
G01*
X59522400Y-52128100D01*
G75*
G02*
X59669900Y-51980600I147500J0D01*
G01*
G37*
G36*
G01*
X59669900Y-51010600D02*
X60014900Y-51010600D01*
G75*
G02*
X60162400Y-51158100I0J-147500D01*
G01*
X60162400Y-51453100D01*
G75*
G02*
X60014900Y-51600600I-147500J0D01*
G01*
X59669900Y-51600600D01*
G75*
G02*
X59522400Y-51453100I0J147500D01*
G01*
X59522400Y-51158100D01*
G75*
G02*
X59669900Y-51010600I147500J0D01*
G01*
G37*
G36*
G01*
X156044400Y-142514100D02*
X156044400Y-142169100D01*
G75*
G02*
X156191900Y-142021600I147500J0D01*
G01*
X156486900Y-142021600D01*
G75*
G02*
X156634400Y-142169100I0J-147500D01*
G01*
X156634400Y-142514100D01*
G75*
G02*
X156486900Y-142661600I-147500J0D01*
G01*
X156191900Y-142661600D01*
G75*
G02*
X156044400Y-142514100I0J147500D01*
G01*
G37*
G36*
G01*
X155074400Y-142514100D02*
X155074400Y-142169100D01*
G75*
G02*
X155221900Y-142021600I147500J0D01*
G01*
X155516900Y-142021600D01*
G75*
G02*
X155664400Y-142169100I0J-147500D01*
G01*
X155664400Y-142514100D01*
G75*
G02*
X155516900Y-142661600I-147500J0D01*
G01*
X155221900Y-142661600D01*
G75*
G02*
X155074400Y-142514100I0J147500D01*
G01*
G37*
G36*
G01*
X51131800Y-98684900D02*
X51131800Y-98339900D01*
G75*
G02*
X51279300Y-98192400I147500J0D01*
G01*
X51574300Y-98192400D01*
G75*
G02*
X51721800Y-98339900I0J-147500D01*
G01*
X51721800Y-98684900D01*
G75*
G02*
X51574300Y-98832400I-147500J0D01*
G01*
X51279300Y-98832400D01*
G75*
G02*
X51131800Y-98684900I0J147500D01*
G01*
G37*
G36*
G01*
X50161800Y-98684900D02*
X50161800Y-98339900D01*
G75*
G02*
X50309300Y-98192400I147500J0D01*
G01*
X50604300Y-98192400D01*
G75*
G02*
X50751800Y-98339900I0J-147500D01*
G01*
X50751800Y-98684900D01*
G75*
G02*
X50604300Y-98832400I-147500J0D01*
G01*
X50309300Y-98832400D01*
G75*
G02*
X50161800Y-98684900I0J147500D01*
G01*
G37*
G36*
G01*
X195950000Y-97447500D02*
X195950000Y-97792500D01*
G75*
G02*
X195802500Y-97940000I-147500J0D01*
G01*
X195507500Y-97940000D01*
G75*
G02*
X195360000Y-97792500I0J147500D01*
G01*
X195360000Y-97447500D01*
G75*
G02*
X195507500Y-97300000I147500J0D01*
G01*
X195802500Y-97300000D01*
G75*
G02*
X195950000Y-97447500I0J-147500D01*
G01*
G37*
G36*
G01*
X196920000Y-97447500D02*
X196920000Y-97792500D01*
G75*
G02*
X196772500Y-97940000I-147500J0D01*
G01*
X196477500Y-97940000D01*
G75*
G02*
X196330000Y-97792500I0J147500D01*
G01*
X196330000Y-97447500D01*
G75*
G02*
X196477500Y-97300000I147500J0D01*
G01*
X196772500Y-97300000D01*
G75*
G02*
X196920000Y-97447500I0J-147500D01*
G01*
G37*
G36*
G01*
X169050200Y-91750100D02*
X169050200Y-92095100D01*
G75*
G02*
X168902700Y-92242600I-147500J0D01*
G01*
X168607700Y-92242600D01*
G75*
G02*
X168460200Y-92095100I0J147500D01*
G01*
X168460200Y-91750100D01*
G75*
G02*
X168607700Y-91602600I147500J0D01*
G01*
X168902700Y-91602600D01*
G75*
G02*
X169050200Y-91750100I0J-147500D01*
G01*
G37*
G36*
G01*
X170020200Y-91750100D02*
X170020200Y-92095100D01*
G75*
G02*
X169872700Y-92242600I-147500J0D01*
G01*
X169577700Y-92242600D01*
G75*
G02*
X169430200Y-92095100I0J147500D01*
G01*
X169430200Y-91750100D01*
G75*
G02*
X169577700Y-91602600I147500J0D01*
G01*
X169872700Y-91602600D01*
G75*
G02*
X170020200Y-91750100I0J-147500D01*
G01*
G37*
G36*
G01*
X136384800Y-58186100D02*
X136384800Y-57841100D01*
G75*
G02*
X136532300Y-57693600I147500J0D01*
G01*
X136827300Y-57693600D01*
G75*
G02*
X136974800Y-57841100I0J-147500D01*
G01*
X136974800Y-58186100D01*
G75*
G02*
X136827300Y-58333600I-147500J0D01*
G01*
X136532300Y-58333600D01*
G75*
G02*
X136384800Y-58186100I0J147500D01*
G01*
G37*
G36*
G01*
X135414800Y-58186100D02*
X135414800Y-57841100D01*
G75*
G02*
X135562300Y-57693600I147500J0D01*
G01*
X135857300Y-57693600D01*
G75*
G02*
X136004800Y-57841100I0J-147500D01*
G01*
X136004800Y-58186100D01*
G75*
G02*
X135857300Y-58333600I-147500J0D01*
G01*
X135562300Y-58333600D01*
G75*
G02*
X135414800Y-58186100I0J147500D01*
G01*
G37*
G36*
G01*
X168506200Y-57308100D02*
X168506200Y-57653100D01*
G75*
G02*
X168358700Y-57800600I-147500J0D01*
G01*
X168063700Y-57800600D01*
G75*
G02*
X167916200Y-57653100I0J147500D01*
G01*
X167916200Y-57308100D01*
G75*
G02*
X168063700Y-57160600I147500J0D01*
G01*
X168358700Y-57160600D01*
G75*
G02*
X168506200Y-57308100I0J-147500D01*
G01*
G37*
G36*
G01*
X169476200Y-57308100D02*
X169476200Y-57653100D01*
G75*
G02*
X169328700Y-57800600I-147500J0D01*
G01*
X169033700Y-57800600D01*
G75*
G02*
X168886200Y-57653100I0J147500D01*
G01*
X168886200Y-57308100D01*
G75*
G02*
X169033700Y-57160600I147500J0D01*
G01*
X169328700Y-57160600D01*
G75*
G02*
X169476200Y-57308100I0J-147500D01*
G01*
G37*
M02*
