G04 #@! TF.GenerationSoftware,KiCad,Pcbnew,5.1.6-c6e7f7d~87~ubuntu18.04.1*
G04 #@! TF.CreationDate,2020-08-14T22:16:59+05:30*
G04 #@! TF.ProjectId,Aardonyx,41617264-6f6e-4797-982e-6b696361645f,v1.0*
G04 #@! TF.SameCoordinates,Original*
G04 #@! TF.FileFunction,Other,Fab,Bot*
%FSLAX46Y46*%
G04 Gerber Fmt 4.6, Leading zero omitted, Abs format (unit mm)*
G04 Created by KiCad (PCBNEW 5.1.6-c6e7f7d~87~ubuntu18.04.1) date 2020-08-14 22:16:59*
%MOMM*%
%LPD*%
G01*
G04 APERTURE LIST*
G04 #@! TA.AperFunction,Profile*
%ADD10C,0.100000*%
G04 #@! TD*
%ADD11C,0.100000*%
%ADD12C,0.060000*%
%ADD13C,0.150000*%
G04 APERTURE END LIST*
D10*
X43561000Y-162560000D02*
X43561000Y-11684000D01*
X283824680Y-162562540D02*
X43561000Y-162557460D01*
X283824680Y-11684000D02*
X283824680Y-162560000D01*
X43561000Y-11684000D02*
X283824680Y-11684000D01*
D11*
X53193800Y-144327800D02*
X53193800Y-145127800D01*
X53193800Y-145127800D02*
X54793800Y-145127800D01*
X54793800Y-145127800D02*
X54793800Y-144327800D01*
X54793800Y-144327800D02*
X53193800Y-144327800D01*
X210999800Y-83622500D02*
X209999800Y-82622500D01*
X210997800Y-104836000D02*
X210997800Y-83616000D01*
X200837800Y-104836000D02*
X210997800Y-104836000D01*
X200837800Y-82616000D02*
X200837800Y-104836000D01*
X209997800Y-82616000D02*
X200837800Y-82616000D01*
X163690200Y-96942200D02*
X163690200Y-96442200D01*
X163690200Y-96442200D02*
X162690200Y-96442200D01*
X162690200Y-96442200D02*
X162690200Y-96942200D01*
X162690200Y-96942200D02*
X163690200Y-96942200D01*
X138930000Y-96140000D02*
X139430000Y-96140000D01*
X139430000Y-96140000D02*
X139430000Y-95140000D01*
X139430000Y-95140000D02*
X138930000Y-95140000D01*
X138930000Y-95140000D02*
X138930000Y-96140000D01*
X134956200Y-111376600D02*
X134456200Y-111376600D01*
X134456200Y-111376600D02*
X134456200Y-112376600D01*
X134456200Y-112376600D02*
X134956200Y-112376600D01*
X134956200Y-112376600D02*
X134956200Y-111376600D01*
X63413000Y-33713600D02*
X62563000Y-33713600D01*
X62063000Y-33213600D02*
X62063000Y-31513600D01*
X63413000Y-33713600D02*
X63413000Y-31513600D01*
X63413000Y-31513600D02*
X62063000Y-31513600D01*
X62563000Y-33713600D02*
X62063000Y-33213600D01*
X57472200Y-51558000D02*
X57472200Y-51058000D01*
X57472200Y-51058000D02*
X56472200Y-51058000D01*
X56472200Y-51058000D02*
X56472200Y-51558000D01*
X56472200Y-51558000D02*
X57472200Y-51558000D01*
X142210600Y-94521400D02*
X141710600Y-94521400D01*
X141710600Y-94521400D02*
X141710600Y-95521400D01*
X141710600Y-95521400D02*
X142210600Y-95521400D01*
X142210600Y-95521400D02*
X142210600Y-94521400D01*
X144115600Y-94521400D02*
X143615600Y-94521400D01*
X143615600Y-94521400D02*
X143615600Y-95521400D01*
X143615600Y-95521400D02*
X144115600Y-95521400D01*
X144115600Y-95521400D02*
X144115600Y-94521400D01*
X145868200Y-94597600D02*
X145368200Y-94597600D01*
X145368200Y-94597600D02*
X145368200Y-95597600D01*
X145368200Y-95597600D02*
X145868200Y-95597600D01*
X145868200Y-95597600D02*
X145868200Y-94597600D01*
X150283800Y-96414400D02*
X150283800Y-95914400D01*
X150283800Y-95914400D02*
X149283800Y-95914400D01*
X149283800Y-95914400D02*
X149283800Y-96414400D01*
X149283800Y-96414400D02*
X150283800Y-96414400D01*
X153662000Y-103831200D02*
X153662000Y-103331200D01*
X153662000Y-103331200D02*
X152662000Y-103331200D01*
X152662000Y-103331200D02*
X152662000Y-103831200D01*
X152662000Y-103831200D02*
X153662000Y-103831200D01*
X153611200Y-106269600D02*
X153611200Y-105769600D01*
X153611200Y-105769600D02*
X152611200Y-105769600D01*
X152611200Y-105769600D02*
X152611200Y-106269600D01*
X152611200Y-106269600D02*
X153611200Y-106269600D01*
X163665200Y-95572200D02*
X163665200Y-95072200D01*
X163665200Y-95072200D02*
X162665200Y-95072200D01*
X162665200Y-95072200D02*
X162665200Y-95572200D01*
X162665200Y-95572200D02*
X163665200Y-95572200D01*
X169740200Y-89886600D02*
X169740200Y-89386600D01*
X169740200Y-89386600D02*
X168740200Y-89386600D01*
X168740200Y-89386600D02*
X168740200Y-89886600D01*
X168740200Y-89886600D02*
X169740200Y-89886600D01*
X169740200Y-88616600D02*
X169740200Y-88116600D01*
X169740200Y-88116600D02*
X168740200Y-88116600D01*
X168740200Y-88116600D02*
X168740200Y-88616600D01*
X168740200Y-88616600D02*
X169740200Y-88616600D01*
X169740200Y-86076600D02*
X169740200Y-85576600D01*
X169740200Y-85576600D02*
X168740200Y-85576600D01*
X168740200Y-85576600D02*
X168740200Y-86076600D01*
X168740200Y-86076600D02*
X169740200Y-86076600D01*
X169736200Y-84850600D02*
X169736200Y-84350600D01*
X169736200Y-84350600D02*
X168736200Y-84350600D01*
X168736200Y-84350600D02*
X168736200Y-84850600D01*
X168736200Y-84850600D02*
X169736200Y-84850600D01*
X169717200Y-83282600D02*
X169717200Y-82782600D01*
X169717200Y-82782600D02*
X168717200Y-82782600D01*
X168717200Y-82782600D02*
X168717200Y-83282600D01*
X168717200Y-83282600D02*
X169717200Y-83282600D01*
X169740200Y-81758600D02*
X169740200Y-81258600D01*
X169740200Y-81258600D02*
X168740200Y-81258600D01*
X168740200Y-81258600D02*
X168740200Y-81758600D01*
X168740200Y-81758600D02*
X169740200Y-81758600D01*
X169740200Y-80234600D02*
X169740200Y-79734600D01*
X169740200Y-79734600D02*
X168740200Y-79734600D01*
X168740200Y-79734600D02*
X168740200Y-80234600D01*
X168740200Y-80234600D02*
X169740200Y-80234600D01*
X169486200Y-77694600D02*
X169486200Y-77194600D01*
X169486200Y-77194600D02*
X168486200Y-77194600D01*
X168486200Y-77194600D02*
X168486200Y-77694600D01*
X168486200Y-77694600D02*
X169486200Y-77694600D01*
X169486200Y-76170600D02*
X169486200Y-75670600D01*
X169486200Y-75670600D02*
X168486200Y-75670600D01*
X168486200Y-75670600D02*
X168486200Y-76170600D01*
X168486200Y-76170600D02*
X169486200Y-76170600D01*
X169486200Y-74900600D02*
X169486200Y-74400600D01*
X169486200Y-74400600D02*
X168486200Y-74400600D01*
X168486200Y-74400600D02*
X168486200Y-74900600D01*
X168486200Y-74900600D02*
X169486200Y-74900600D01*
X169486200Y-73630600D02*
X169486200Y-73130600D01*
X169486200Y-73130600D02*
X168486200Y-73130600D01*
X168486200Y-73130600D02*
X168486200Y-73630600D01*
X168486200Y-73630600D02*
X169486200Y-73630600D01*
X169486200Y-72106600D02*
X169486200Y-71606600D01*
X169486200Y-71606600D02*
X168486200Y-71606600D01*
X168486200Y-71606600D02*
X168486200Y-72106600D01*
X168486200Y-72106600D02*
X169486200Y-72106600D01*
X169486200Y-70836600D02*
X169486200Y-70336600D01*
X169486200Y-70336600D02*
X168486200Y-70336600D01*
X168486200Y-70336600D02*
X168486200Y-70836600D01*
X168486200Y-70836600D02*
X169486200Y-70836600D01*
X169486200Y-68296600D02*
X169486200Y-67796600D01*
X169486200Y-67796600D02*
X168486200Y-67796600D01*
X168486200Y-67796600D02*
X168486200Y-68296600D01*
X168486200Y-68296600D02*
X169486200Y-68296600D01*
X169486200Y-66518600D02*
X169486200Y-66018600D01*
X169486200Y-66018600D02*
X168486200Y-66018600D01*
X168486200Y-66018600D02*
X168486200Y-66518600D01*
X168486200Y-66518600D02*
X169486200Y-66518600D01*
X169486200Y-64486600D02*
X169486200Y-63986600D01*
X169486200Y-63986600D02*
X168486200Y-63986600D01*
X168486200Y-63986600D02*
X168486200Y-64486600D01*
X168486200Y-64486600D02*
X169486200Y-64486600D01*
X169486200Y-62454600D02*
X169486200Y-61954600D01*
X169486200Y-61954600D02*
X168486200Y-61954600D01*
X168486200Y-61954600D02*
X168486200Y-62454600D01*
X168486200Y-62454600D02*
X169486200Y-62454600D01*
X169209200Y-60930600D02*
X169209200Y-60430600D01*
X169209200Y-60430600D02*
X168209200Y-60430600D01*
X168209200Y-60430600D02*
X168209200Y-60930600D01*
X168209200Y-60930600D02*
X169209200Y-60930600D01*
X169226200Y-59340600D02*
X169226200Y-58840600D01*
X169226200Y-58840600D02*
X168226200Y-58840600D01*
X168226200Y-58840600D02*
X168226200Y-59340600D01*
X168226200Y-59340600D02*
X169226200Y-59340600D01*
X154470000Y-46240000D02*
X154470000Y-45740000D01*
X154470000Y-45740000D02*
X153470000Y-45740000D01*
X153470000Y-45740000D02*
X153470000Y-46240000D01*
X153470000Y-46240000D02*
X154470000Y-46240000D01*
X154420000Y-45030000D02*
X154420000Y-44530000D01*
X154420000Y-44530000D02*
X153420000Y-44530000D01*
X153420000Y-44530000D02*
X153420000Y-45030000D01*
X153420000Y-45030000D02*
X154420000Y-45030000D01*
X154376200Y-43790600D02*
X154376200Y-43290600D01*
X154376200Y-43290600D02*
X153376200Y-43290600D01*
X153376200Y-43290600D02*
X153376200Y-43790600D01*
X153376200Y-43790600D02*
X154376200Y-43790600D01*
X133150800Y-39717600D02*
X133650800Y-39717600D01*
X133650800Y-39717600D02*
X133650800Y-38717600D01*
X133650800Y-38717600D02*
X133150800Y-38717600D01*
X133150800Y-38717600D02*
X133150800Y-39717600D01*
X129290000Y-39717600D02*
X129790000Y-39717600D01*
X129790000Y-39717600D02*
X129790000Y-38717600D01*
X129790000Y-38717600D02*
X129290000Y-38717600D01*
X129290000Y-38717600D02*
X129290000Y-39717600D01*
X136808400Y-39768400D02*
X137308400Y-39768400D01*
X137308400Y-39768400D02*
X137308400Y-38768400D01*
X137308400Y-38768400D02*
X136808400Y-38768400D01*
X136808400Y-38768400D02*
X136808400Y-39768400D01*
X140673200Y-38866000D02*
X140673200Y-39366000D01*
X140673200Y-39366000D02*
X141673200Y-39366000D01*
X141673200Y-39366000D02*
X141673200Y-38866000D01*
X141673200Y-38866000D02*
X140673200Y-38866000D01*
X142197200Y-40491600D02*
X142197200Y-40991600D01*
X142197200Y-40991600D02*
X143197200Y-40991600D01*
X143197200Y-40991600D02*
X143197200Y-40491600D01*
X143197200Y-40491600D02*
X142197200Y-40491600D01*
X153370000Y-41870000D02*
X153370000Y-42370000D01*
X153370000Y-42370000D02*
X154370000Y-42370000D01*
X154370000Y-42370000D02*
X154370000Y-41870000D01*
X154370000Y-41870000D02*
X153370000Y-41870000D01*
X137826400Y-56570800D02*
X137826400Y-57070800D01*
X137826400Y-57070800D02*
X138826400Y-57070800D01*
X138826400Y-57070800D02*
X138826400Y-56570800D01*
X138826400Y-56570800D02*
X137826400Y-56570800D01*
X141435200Y-55349200D02*
X141435200Y-55849200D01*
X141435200Y-55849200D02*
X142435200Y-55849200D01*
X142435200Y-55849200D02*
X142435200Y-55349200D01*
X142435200Y-55349200D02*
X141435200Y-55349200D01*
X143273600Y-54089200D02*
X143273600Y-54589200D01*
X143273600Y-54589200D02*
X144273600Y-54589200D01*
X144273600Y-54589200D02*
X144273600Y-54089200D01*
X144273600Y-54089200D02*
X143273600Y-54089200D01*
X134573200Y-40225600D02*
X135073200Y-40225600D01*
X135073200Y-40225600D02*
X135073200Y-39225600D01*
X135073200Y-39225600D02*
X134573200Y-39225600D01*
X134573200Y-39225600D02*
X134573200Y-40225600D01*
X131372800Y-40225600D02*
X131872800Y-40225600D01*
X131872800Y-40225600D02*
X131872800Y-39225600D01*
X131872800Y-39225600D02*
X131372800Y-39225600D01*
X131372800Y-39225600D02*
X131372800Y-40225600D01*
X130540000Y-111415000D02*
X130040000Y-111415000D01*
X130040000Y-111415000D02*
X130040000Y-112415000D01*
X130040000Y-112415000D02*
X130540000Y-112415000D01*
X130540000Y-112415000D02*
X130540000Y-111415000D01*
X131650000Y-111420000D02*
X131150000Y-111420000D01*
X131150000Y-111420000D02*
X131150000Y-112420000D01*
X131150000Y-112420000D02*
X131650000Y-112420000D01*
X131650000Y-112420000D02*
X131650000Y-111420000D01*
X129420000Y-111490000D02*
X128920000Y-111490000D01*
X128920000Y-111490000D02*
X128920000Y-112490000D01*
X128920000Y-112490000D02*
X129420000Y-112490000D01*
X129420000Y-112490000D02*
X129420000Y-111490000D01*
X132740000Y-111440000D02*
X132240000Y-111440000D01*
X132240000Y-111440000D02*
X132240000Y-112440000D01*
X132240000Y-112440000D02*
X132740000Y-112440000D01*
X132740000Y-112440000D02*
X132740000Y-111440000D01*
X133816200Y-111410600D02*
X133316200Y-111410600D01*
X133316200Y-111410600D02*
X133316200Y-112410600D01*
X133316200Y-112410600D02*
X133816200Y-112410600D01*
X133816200Y-112410600D02*
X133816200Y-111410600D01*
X136086200Y-111289600D02*
X135586200Y-111289600D01*
X135586200Y-111289600D02*
X135586200Y-112289600D01*
X135586200Y-112289600D02*
X136086200Y-112289600D01*
X136086200Y-112289600D02*
X136086200Y-111289600D01*
X137356200Y-111266600D02*
X136856200Y-111266600D01*
X136856200Y-111266600D02*
X136856200Y-112266600D01*
X136856200Y-112266600D02*
X137356200Y-112266600D01*
X137356200Y-112266600D02*
X137356200Y-111266600D01*
X138626200Y-111266600D02*
X138126200Y-111266600D01*
X138126200Y-111266600D02*
X138126200Y-112266600D01*
X138126200Y-112266600D02*
X138626200Y-112266600D01*
X138626200Y-112266600D02*
X138626200Y-111266600D01*
X139896200Y-111266600D02*
X139396200Y-111266600D01*
X139396200Y-111266600D02*
X139396200Y-112266600D01*
X139396200Y-112266600D02*
X139896200Y-112266600D01*
X139896200Y-112266600D02*
X139896200Y-111266600D01*
X141021000Y-111302400D02*
X140521000Y-111302400D01*
X140521000Y-111302400D02*
X140521000Y-112302400D01*
X140521000Y-112302400D02*
X141021000Y-112302400D01*
X141021000Y-112302400D02*
X141021000Y-111302400D01*
X142164000Y-111254000D02*
X141664000Y-111254000D01*
X141664000Y-111254000D02*
X141664000Y-112254000D01*
X141664000Y-112254000D02*
X142164000Y-112254000D01*
X142164000Y-112254000D02*
X142164000Y-111254000D01*
X143446200Y-111329600D02*
X142946200Y-111329600D01*
X142946200Y-111329600D02*
X142946200Y-112329600D01*
X142946200Y-112329600D02*
X143446200Y-112329600D01*
X143446200Y-112329600D02*
X143446200Y-111329600D01*
X63961200Y-29760800D02*
X64461200Y-29760800D01*
X64461200Y-29760800D02*
X64461200Y-28760800D01*
X64461200Y-28760800D02*
X63961200Y-28760800D01*
X63961200Y-28760800D02*
X63961200Y-29760800D01*
X56290400Y-32707200D02*
X56790400Y-32707200D01*
X56790400Y-32707200D02*
X56790400Y-31707200D01*
X56790400Y-31707200D02*
X56290400Y-31707200D01*
X56290400Y-31707200D02*
X56290400Y-32707200D01*
X57814400Y-35856800D02*
X58314400Y-35856800D01*
X58314400Y-35856800D02*
X58314400Y-34856800D01*
X58314400Y-34856800D02*
X57814400Y-34856800D01*
X57814400Y-34856800D02*
X57814400Y-35856800D01*
X76153200Y-18407000D02*
X76653200Y-18407000D01*
X76653200Y-18407000D02*
X76653200Y-17407000D01*
X76653200Y-17407000D02*
X76153200Y-17407000D01*
X76153200Y-17407000D02*
X76153200Y-18407000D01*
X80826800Y-18965800D02*
X81326800Y-18965800D01*
X81326800Y-18965800D02*
X81326800Y-17965800D01*
X81326800Y-17965800D02*
X80826800Y-17965800D01*
X80826800Y-17965800D02*
X80826800Y-18965800D01*
X85779800Y-18508600D02*
X86279800Y-18508600D01*
X86279800Y-18508600D02*
X86279800Y-17508600D01*
X86279800Y-17508600D02*
X85779800Y-17508600D01*
X85779800Y-17508600D02*
X85779800Y-18508600D01*
X58986800Y-75442000D02*
X58986800Y-75942000D01*
X58986800Y-75942000D02*
X59986800Y-75942000D01*
X59986800Y-75942000D02*
X59986800Y-75442000D01*
X59986800Y-75442000D02*
X58986800Y-75442000D01*
X58988000Y-99880000D02*
X58988000Y-99380000D01*
X58988000Y-99380000D02*
X57988000Y-99380000D01*
X57988000Y-99380000D02*
X57988000Y-99880000D01*
X57988000Y-99880000D02*
X58988000Y-99880000D01*
X61705800Y-99854600D02*
X61705800Y-99354600D01*
X61705800Y-99354600D02*
X60705800Y-99354600D01*
X60705800Y-99354600D02*
X60705800Y-99854600D01*
X60705800Y-99854600D02*
X61705800Y-99854600D01*
X56471000Y-98762400D02*
X56471000Y-98262400D01*
X56471000Y-98262400D02*
X55471000Y-98262400D01*
X55471000Y-98262400D02*
X55471000Y-98762400D01*
X55471000Y-98762400D02*
X56471000Y-98762400D01*
X55399600Y-99557800D02*
X55399600Y-100057800D01*
X55399600Y-100057800D02*
X56399600Y-100057800D01*
X56399600Y-100057800D02*
X56399600Y-99557800D01*
X56399600Y-99557800D02*
X55399600Y-99557800D01*
X53882600Y-100108600D02*
X53882600Y-99608600D01*
X53882600Y-99608600D02*
X52882600Y-99608600D01*
X52882600Y-99608600D02*
X52882600Y-100108600D01*
X52882600Y-100108600D02*
X53882600Y-100108600D01*
X52859600Y-98287800D02*
X52859600Y-98787800D01*
X52859600Y-98787800D02*
X53859600Y-98787800D01*
X53859600Y-98787800D02*
X53859600Y-98287800D01*
X53859600Y-98287800D02*
X52859600Y-98287800D01*
X51391000Y-99981600D02*
X51391000Y-99481600D01*
X51391000Y-99481600D02*
X50391000Y-99481600D01*
X50391000Y-99481600D02*
X50391000Y-99981600D01*
X50391000Y-99981600D02*
X51391000Y-99981600D01*
X48243800Y-99778400D02*
X48243800Y-99278400D01*
X48243800Y-99278400D02*
X47243800Y-99278400D01*
X47243800Y-99278400D02*
X47243800Y-99778400D01*
X47243800Y-99778400D02*
X48243800Y-99778400D01*
X47269200Y-98160800D02*
X47269200Y-98660800D01*
X47269200Y-98660800D02*
X48269200Y-98660800D01*
X48269200Y-98660800D02*
X48269200Y-98160800D01*
X48269200Y-98160800D02*
X47269200Y-98160800D01*
X99927600Y-145889600D02*
X100427600Y-145889600D01*
X100427600Y-145889600D02*
X100427600Y-144889600D01*
X100427600Y-144889600D02*
X99927600Y-144889600D01*
X99927600Y-144889600D02*
X99927600Y-145889600D01*
X63035800Y-141939800D02*
X63035800Y-142439800D01*
X63035800Y-142439800D02*
X64035800Y-142439800D01*
X64035800Y-142439800D02*
X64035800Y-141939800D01*
X64035800Y-141939800D02*
X63035800Y-141939800D01*
X97506600Y-147175600D02*
X97006600Y-147175600D01*
X97006600Y-147175600D02*
X97006600Y-148175600D01*
X97006600Y-148175600D02*
X97506600Y-148175600D01*
X97506600Y-148175600D02*
X97506600Y-147175600D01*
X63690400Y-145516800D02*
X62090400Y-145516800D01*
X62090400Y-145516800D02*
X62090400Y-148716800D01*
X62090400Y-148716800D02*
X63690400Y-148716800D01*
X63690400Y-148716800D02*
X63690400Y-145516800D01*
X135720000Y-40290000D02*
X136220000Y-40290000D01*
X136220000Y-40290000D02*
X136220000Y-39290000D01*
X136220000Y-39290000D02*
X135720000Y-39290000D01*
X135720000Y-39290000D02*
X135720000Y-40290000D01*
X154647800Y-68146800D02*
X154647800Y-67646800D01*
X154647800Y-67646800D02*
X153647800Y-67646800D01*
X153647800Y-67646800D02*
X153647800Y-68146800D01*
X153647800Y-68146800D02*
X154647800Y-68146800D01*
X154790000Y-50300000D02*
X154790000Y-50800000D01*
X154790000Y-50800000D02*
X155790000Y-50800000D01*
X155790000Y-50800000D02*
X155790000Y-50300000D01*
X155790000Y-50300000D02*
X154790000Y-50300000D01*
X154625200Y-70940000D02*
X154625200Y-70440000D01*
X154625200Y-70440000D02*
X153625200Y-70440000D01*
X153625200Y-70440000D02*
X153625200Y-70940000D01*
X153625200Y-70940000D02*
X154625200Y-70940000D01*
X169800000Y-69000000D02*
X169800000Y-69500000D01*
X169800000Y-69500000D02*
X170800000Y-69500000D01*
X170800000Y-69500000D02*
X170800000Y-69000000D01*
X170800000Y-69000000D02*
X169800000Y-69000000D01*
X154596000Y-73930000D02*
X154596000Y-73430000D01*
X154596000Y-73430000D02*
X153596000Y-73430000D01*
X153596000Y-73430000D02*
X153596000Y-73930000D01*
X153596000Y-73930000D02*
X154596000Y-73930000D01*
X171810000Y-79410000D02*
X171810000Y-79910000D01*
X171810000Y-79910000D02*
X172810000Y-79910000D01*
X172810000Y-79910000D02*
X172810000Y-79410000D01*
X172810000Y-79410000D02*
X171810000Y-79410000D01*
X127370000Y-57555200D02*
X126870000Y-57555200D01*
X126870000Y-57555200D02*
X126870000Y-58555200D01*
X126870000Y-58555200D02*
X127370000Y-58555200D01*
X127370000Y-58555200D02*
X127370000Y-57555200D01*
X154728400Y-77380800D02*
X154728400Y-76880800D01*
X154728400Y-76880800D02*
X153728400Y-76880800D01*
X153728400Y-76880800D02*
X153728400Y-77380800D01*
X153728400Y-77380800D02*
X154728400Y-77380800D01*
X170340000Y-86860000D02*
X170340000Y-87360000D01*
X170340000Y-87360000D02*
X171340000Y-87360000D01*
X171340000Y-87360000D02*
X171340000Y-86860000D01*
X171340000Y-86860000D02*
X170340000Y-86860000D01*
X129350000Y-57495200D02*
X128850000Y-57495200D01*
X128850000Y-57495200D02*
X128850000Y-58495200D01*
X128850000Y-58495200D02*
X129350000Y-58495200D01*
X129350000Y-58495200D02*
X129350000Y-57495200D01*
X154658400Y-82517600D02*
X154658400Y-82017600D01*
X154658400Y-82017600D02*
X153658400Y-82017600D01*
X153658400Y-82017600D02*
X153658400Y-82517600D01*
X153658400Y-82517600D02*
X154658400Y-82517600D01*
X128140000Y-111535000D02*
X127640000Y-111535000D01*
X127640000Y-111535000D02*
X127640000Y-112535000D01*
X127640000Y-112535000D02*
X128140000Y-112535000D01*
X128140000Y-112535000D02*
X128140000Y-111535000D01*
X135640000Y-60360000D02*
X135140000Y-60360000D01*
X135140000Y-60360000D02*
X135140000Y-61360000D01*
X135140000Y-61360000D02*
X135640000Y-61360000D01*
X135640000Y-61360000D02*
X135640000Y-60360000D01*
X154678000Y-88692800D02*
X154678000Y-88192800D01*
X154678000Y-88192800D02*
X153678000Y-88192800D01*
X153678000Y-88192800D02*
X153678000Y-88692800D01*
X153678000Y-88692800D02*
X154678000Y-88692800D01*
X125980000Y-111530000D02*
X125480000Y-111530000D01*
X125480000Y-111530000D02*
X125480000Y-112530000D01*
X125480000Y-112530000D02*
X125980000Y-112530000D01*
X125980000Y-112530000D02*
X125980000Y-111530000D01*
X136990000Y-60360000D02*
X136490000Y-60360000D01*
X136490000Y-60360000D02*
X136490000Y-61360000D01*
X136490000Y-61360000D02*
X136990000Y-61360000D01*
X136990000Y-61360000D02*
X136990000Y-60360000D01*
X98530000Y-85460000D02*
X98530000Y-84960000D01*
X98530000Y-84960000D02*
X97530000Y-84960000D01*
X97530000Y-84960000D02*
X97530000Y-85460000D01*
X97530000Y-85460000D02*
X98530000Y-85460000D01*
X140160000Y-60405000D02*
X139660000Y-60405000D01*
X139660000Y-60405000D02*
X139660000Y-61405000D01*
X139660000Y-61405000D02*
X140160000Y-61405000D01*
X140160000Y-61405000D02*
X140160000Y-60405000D01*
X132570000Y-96150000D02*
X133070000Y-96150000D01*
X133070000Y-96150000D02*
X133070000Y-95150000D01*
X133070000Y-95150000D02*
X132570000Y-95150000D01*
X132570000Y-95150000D02*
X132570000Y-96150000D01*
X99120000Y-76840000D02*
X99120000Y-76340000D01*
X99120000Y-76340000D02*
X98120000Y-76340000D01*
X98120000Y-76340000D02*
X98120000Y-76840000D01*
X98120000Y-76840000D02*
X99120000Y-76840000D01*
X141240000Y-60400000D02*
X140740000Y-60400000D01*
X140740000Y-60400000D02*
X140740000Y-61400000D01*
X140740000Y-61400000D02*
X141240000Y-61400000D01*
X141240000Y-61400000D02*
X141240000Y-60400000D01*
X99940000Y-82650000D02*
X99940000Y-82150000D01*
X99940000Y-82150000D02*
X98940000Y-82150000D01*
X98940000Y-82150000D02*
X98940000Y-82650000D01*
X98940000Y-82650000D02*
X99940000Y-82650000D01*
X99770000Y-67270000D02*
X99770000Y-66770000D01*
X99770000Y-66770000D02*
X98770000Y-66770000D01*
X98770000Y-66770000D02*
X98770000Y-67270000D01*
X98770000Y-67270000D02*
X99770000Y-67270000D01*
X154449600Y-62861600D02*
X154449600Y-62361600D01*
X154449600Y-62361600D02*
X153449600Y-62361600D01*
X153449600Y-62361600D02*
X153449600Y-62861600D01*
X153449600Y-62861600D02*
X154449600Y-62861600D01*
X114640000Y-73630000D02*
X114640000Y-74130000D01*
X114640000Y-74130000D02*
X115640000Y-74130000D01*
X115640000Y-74130000D02*
X115640000Y-73630000D01*
X115640000Y-73630000D02*
X114640000Y-73630000D01*
X64558800Y-34743200D02*
X64558800Y-34243200D01*
X64558800Y-34243200D02*
X63558800Y-34243200D01*
X63558800Y-34243200D02*
X63558800Y-34743200D01*
X63558800Y-34743200D02*
X64558800Y-34743200D01*
X57865200Y-33390600D02*
X58365200Y-33390600D01*
X58365200Y-33390600D02*
X58365200Y-32390600D01*
X58365200Y-32390600D02*
X57865200Y-32390600D01*
X57865200Y-32390600D02*
X57865200Y-33390600D01*
X156180600Y-145905600D02*
X155680600Y-145905600D01*
X155680600Y-145905600D02*
X155680600Y-146905600D01*
X155680600Y-146905600D02*
X156180600Y-146905600D01*
X156180600Y-146905600D02*
X156180600Y-145905600D01*
X58830400Y-79420200D02*
X59330400Y-79420200D01*
X59330400Y-79420200D02*
X59330400Y-78420200D01*
X59330400Y-78420200D02*
X58830400Y-78420200D01*
X58830400Y-78420200D02*
X58830400Y-79420200D01*
X55071200Y-79341600D02*
X55571200Y-79341600D01*
X55571200Y-79341600D02*
X55571200Y-78341600D01*
X55571200Y-78341600D02*
X55071200Y-78341600D01*
X55071200Y-78341600D02*
X55071200Y-79341600D01*
X58936000Y-76610400D02*
X58936000Y-77110400D01*
X58936000Y-77110400D02*
X59936000Y-77110400D01*
X59936000Y-77110400D02*
X59936000Y-76610400D01*
X59936000Y-76610400D02*
X58936000Y-76610400D01*
X214561800Y-97362200D02*
X214561800Y-97862200D01*
X214561800Y-97862200D02*
X215561800Y-97862200D01*
X215561800Y-97862200D02*
X215561800Y-97362200D01*
X215561800Y-97362200D02*
X214561800Y-97362200D01*
X196300000Y-101970000D02*
X196300000Y-101470000D01*
X196300000Y-101470000D02*
X195300000Y-101470000D01*
X195300000Y-101470000D02*
X195300000Y-101970000D01*
X195300000Y-101970000D02*
X196300000Y-101970000D01*
X197930000Y-88980000D02*
X197930000Y-88480000D01*
X197930000Y-88480000D02*
X196930000Y-88480000D01*
X196930000Y-88480000D02*
X196930000Y-88980000D01*
X196930000Y-88980000D02*
X197930000Y-88980000D01*
X214450000Y-82960000D02*
X214450000Y-83460000D01*
X214450000Y-83460000D02*
X215450000Y-83460000D01*
X215450000Y-83460000D02*
X215450000Y-82960000D01*
X215450000Y-82960000D02*
X214450000Y-82960000D01*
X214561800Y-98505200D02*
X214561800Y-99005200D01*
X214561800Y-99005200D02*
X215561800Y-99005200D01*
X215561800Y-99005200D02*
X215561800Y-98505200D01*
X215561800Y-98505200D02*
X214561800Y-98505200D01*
X214620000Y-102980000D02*
X214620000Y-103480000D01*
X214620000Y-103480000D02*
X215620000Y-103480000D01*
X215620000Y-103480000D02*
X215620000Y-102980000D01*
X215620000Y-102980000D02*
X214620000Y-102980000D01*
X214561800Y-91393200D02*
X214561800Y-91893200D01*
X214561800Y-91893200D02*
X215561800Y-91893200D01*
X215561800Y-91893200D02*
X215561800Y-91393200D01*
X215561800Y-91393200D02*
X214561800Y-91393200D01*
X198360000Y-85990000D02*
X198360000Y-85490000D01*
X198360000Y-85490000D02*
X197360000Y-85490000D01*
X197360000Y-85490000D02*
X197360000Y-85990000D01*
X197360000Y-85990000D02*
X198360000Y-85990000D01*
X214600000Y-104020000D02*
X214600000Y-104520000D01*
X214600000Y-104520000D02*
X215600000Y-104520000D01*
X215600000Y-104520000D02*
X215600000Y-104020000D01*
X215600000Y-104020000D02*
X214600000Y-104020000D01*
X214490000Y-86910000D02*
X214490000Y-87410000D01*
X214490000Y-87410000D02*
X215490000Y-87410000D01*
X215490000Y-87410000D02*
X215490000Y-86910000D01*
X215490000Y-86910000D02*
X214490000Y-86910000D01*
X214450000Y-84000000D02*
X214450000Y-84500000D01*
X214450000Y-84500000D02*
X215450000Y-84500000D01*
X215450000Y-84500000D02*
X215450000Y-84000000D01*
X215450000Y-84000000D02*
X214450000Y-84000000D01*
X90129600Y-145669200D02*
X90129600Y-146169200D01*
X90129600Y-146169200D02*
X91129600Y-146169200D01*
X91129600Y-146169200D02*
X91129600Y-145669200D01*
X91129600Y-145669200D02*
X90129600Y-145669200D01*
X89631000Y-137994200D02*
X89631000Y-137494200D01*
X89631000Y-137494200D02*
X88631000Y-137494200D01*
X88631000Y-137494200D02*
X88631000Y-137994200D01*
X88631000Y-137994200D02*
X89631000Y-137994200D01*
X96376600Y-141623600D02*
X95876600Y-141623600D01*
X95876600Y-141623600D02*
X95876600Y-142623600D01*
X95876600Y-142623600D02*
X96376600Y-142623600D01*
X96376600Y-142623600D02*
X96376600Y-141623600D01*
X90152600Y-143361600D02*
X90152600Y-143861600D01*
X90152600Y-143861600D02*
X91152600Y-143861600D01*
X91152600Y-143861600D02*
X91152600Y-143361600D01*
X91152600Y-143361600D02*
X90152600Y-143361600D01*
X98287600Y-143679200D02*
X98287600Y-143179200D01*
X98287600Y-143179200D02*
X97287600Y-143179200D01*
X97287600Y-143179200D02*
X97287600Y-143679200D01*
X97287600Y-143679200D02*
X98287600Y-143679200D01*
X93323600Y-147667600D02*
X93823600Y-147667600D01*
X93823600Y-147667600D02*
X93823600Y-146667600D01*
X93823600Y-146667600D02*
X93323600Y-146667600D01*
X93323600Y-146667600D02*
X93323600Y-147667600D01*
X90910600Y-149214600D02*
X91410600Y-149214600D01*
X91410600Y-149214600D02*
X91410600Y-148214600D01*
X91410600Y-148214600D02*
X90910600Y-148214600D01*
X90910600Y-148214600D02*
X90910600Y-149214600D01*
X94424600Y-149148600D02*
X96024600Y-149148600D01*
X96024600Y-149148600D02*
X96024600Y-145948600D01*
X96024600Y-145948600D02*
X94424600Y-145948600D01*
X94424600Y-145948600D02*
X94424600Y-149148600D01*
X88784600Y-152255600D02*
X88284600Y-152255600D01*
X88284600Y-152255600D02*
X88284600Y-153255600D01*
X88284600Y-153255600D02*
X88784600Y-153255600D01*
X88784600Y-153255600D02*
X88784600Y-152255600D01*
X87556600Y-150533600D02*
X85956600Y-150533600D01*
X85956600Y-150533600D02*
X85956600Y-153733600D01*
X85956600Y-153733600D02*
X87556600Y-153733600D01*
X87556600Y-153733600D02*
X87556600Y-150533600D01*
X161475800Y-142091600D02*
X161475800Y-142591600D01*
X161475800Y-142591600D02*
X162475800Y-142591600D01*
X162475800Y-142591600D02*
X162475800Y-142091600D01*
X162475800Y-142091600D02*
X161475800Y-142091600D01*
X160028000Y-151337200D02*
X160028000Y-151837200D01*
X160028000Y-151837200D02*
X161028000Y-151837200D01*
X161028000Y-151837200D02*
X161028000Y-151337200D01*
X161028000Y-151337200D02*
X160028000Y-151337200D01*
X57552400Y-29522800D02*
X57052400Y-29522800D01*
X57052400Y-29522800D02*
X57052400Y-30522800D01*
X57052400Y-30522800D02*
X57552400Y-30522800D01*
X57552400Y-30522800D02*
X57552400Y-29522800D01*
X61374400Y-29671200D02*
X61374400Y-30171200D01*
X61374400Y-30171200D02*
X62374400Y-30171200D01*
X62374400Y-30171200D02*
X62374400Y-29671200D01*
X62374400Y-29671200D02*
X61374400Y-29671200D01*
X61374400Y-28299600D02*
X61374400Y-28799600D01*
X61374400Y-28799600D02*
X62374400Y-28799600D01*
X62374400Y-28799600D02*
X62374400Y-28299600D01*
X62374400Y-28299600D02*
X61374400Y-28299600D01*
X60092400Y-46245800D02*
X59592400Y-46245800D01*
X59592400Y-46245800D02*
X59592400Y-47245800D01*
X59592400Y-47245800D02*
X60092400Y-47245800D01*
X60092400Y-47245800D02*
X60092400Y-46245800D01*
X59592400Y-49750600D02*
X60092400Y-49750600D01*
X60092400Y-49750600D02*
X60092400Y-48750600D01*
X60092400Y-48750600D02*
X59592400Y-48750600D01*
X59592400Y-48750600D02*
X59592400Y-49750600D01*
X60092400Y-51290600D02*
X59592400Y-51290600D01*
X59592400Y-51290600D02*
X59592400Y-52290600D01*
X59592400Y-52290600D02*
X60092400Y-52290600D01*
X60092400Y-52290600D02*
X60092400Y-51290600D01*
X155354400Y-142091600D02*
X155354400Y-142591600D01*
X155354400Y-142591600D02*
X156354400Y-142591600D01*
X156354400Y-142591600D02*
X156354400Y-142091600D01*
X156354400Y-142091600D02*
X155354400Y-142091600D01*
X50441800Y-98262400D02*
X50441800Y-98762400D01*
X50441800Y-98762400D02*
X51441800Y-98762400D01*
X51441800Y-98762400D02*
X51441800Y-98262400D01*
X51441800Y-98262400D02*
X50441800Y-98262400D01*
X196640000Y-97870000D02*
X196640000Y-97370000D01*
X196640000Y-97370000D02*
X195640000Y-97370000D01*
X195640000Y-97370000D02*
X195640000Y-97870000D01*
X195640000Y-97870000D02*
X196640000Y-97870000D01*
X169740200Y-92172600D02*
X169740200Y-91672600D01*
X169740200Y-91672600D02*
X168740200Y-91672600D01*
X168740200Y-91672600D02*
X168740200Y-92172600D01*
X168740200Y-92172600D02*
X169740200Y-92172600D01*
X135694800Y-57763600D02*
X135694800Y-58263600D01*
X135694800Y-58263600D02*
X136694800Y-58263600D01*
X136694800Y-58263600D02*
X136694800Y-57763600D01*
X136694800Y-57763600D02*
X135694800Y-57763600D01*
X169196200Y-57730600D02*
X169196200Y-57230600D01*
X169196200Y-57230600D02*
X168196200Y-57230600D01*
X168196200Y-57230600D02*
X168196200Y-57730600D01*
X168196200Y-57730600D02*
X169196200Y-57730600D01*
D12*
X54327133Y-144699228D02*
X54460466Y-144699228D01*
X54460466Y-144908752D02*
X54460466Y-144508752D01*
X54269990Y-144508752D01*
X53984276Y-144699228D02*
X53927133Y-144718276D01*
X53908085Y-144737323D01*
X53889038Y-144775419D01*
X53889038Y-144832561D01*
X53908085Y-144870657D01*
X53927133Y-144889704D01*
X53965228Y-144908752D01*
X54117609Y-144908752D01*
X54117609Y-144508752D01*
X53984276Y-144508752D01*
X53946180Y-144527800D01*
X53927133Y-144546847D01*
X53908085Y-144584942D01*
X53908085Y-144623038D01*
X53927133Y-144661133D01*
X53946180Y-144680180D01*
X53984276Y-144699228D01*
X54117609Y-144699228D01*
X53527133Y-144508752D02*
X53717609Y-144508752D01*
X53736657Y-144699228D01*
X53717609Y-144680180D01*
X53679514Y-144661133D01*
X53584276Y-144661133D01*
X53546180Y-144680180D01*
X53527133Y-144699228D01*
X53508085Y-144737323D01*
X53508085Y-144832561D01*
X53527133Y-144870657D01*
X53546180Y-144889704D01*
X53584276Y-144908752D01*
X53679514Y-144908752D01*
X53717609Y-144889704D01*
X53736657Y-144870657D01*
D13*
X206489228Y-93315285D02*
X206489228Y-93922428D01*
X206453514Y-93993857D01*
X206417800Y-94029571D01*
X206346371Y-94065285D01*
X206203514Y-94065285D01*
X206132085Y-94029571D01*
X206096371Y-93993857D01*
X206060657Y-93922428D01*
X206060657Y-93315285D01*
X205774942Y-93315285D02*
X205274942Y-93315285D01*
X205596371Y-94065285D01*
X163672342Y-97031485D02*
X163922342Y-96674342D01*
X164100914Y-97031485D02*
X164100914Y-96281485D01*
X163815200Y-96281485D01*
X163743771Y-96317200D01*
X163708057Y-96352914D01*
X163672342Y-96424342D01*
X163672342Y-96531485D01*
X163708057Y-96602914D01*
X163743771Y-96638628D01*
X163815200Y-96674342D01*
X164100914Y-96674342D01*
X163422342Y-96281485D02*
X162922342Y-96281485D01*
X163243771Y-97031485D01*
X162315200Y-96281485D02*
X162458057Y-96281485D01*
X162529485Y-96317200D01*
X162565200Y-96352914D01*
X162636628Y-96460057D01*
X162672342Y-96602914D01*
X162672342Y-96888628D01*
X162636628Y-96960057D01*
X162600914Y-96995771D01*
X162529485Y-97031485D01*
X162386628Y-97031485D01*
X162315200Y-96995771D01*
X162279485Y-96960057D01*
X162243771Y-96888628D01*
X162243771Y-96710057D01*
X162279485Y-96638628D01*
X162315200Y-96602914D01*
X162386628Y-96567200D01*
X162529485Y-96567200D01*
X162600914Y-96602914D01*
X162636628Y-96638628D01*
X162672342Y-96710057D01*
X139447857Y-95157857D02*
X139483571Y-95122142D01*
X139519285Y-95015000D01*
X139519285Y-94943571D01*
X139483571Y-94836428D01*
X139412142Y-94765000D01*
X139340714Y-94729285D01*
X139197857Y-94693571D01*
X139090714Y-94693571D01*
X138947857Y-94729285D01*
X138876428Y-94765000D01*
X138805000Y-94836428D01*
X138769285Y-94943571D01*
X138769285Y-95015000D01*
X138805000Y-95122142D01*
X138840714Y-95157857D01*
X139019285Y-95800714D02*
X139519285Y-95800714D01*
X138733571Y-95622142D02*
X139269285Y-95443571D01*
X139269285Y-95907857D01*
X138769285Y-96515000D02*
X138769285Y-96372142D01*
X138805000Y-96300714D01*
X138840714Y-96265000D01*
X138947857Y-96193571D01*
X139090714Y-96157857D01*
X139376428Y-96157857D01*
X139447857Y-96193571D01*
X139483571Y-96229285D01*
X139519285Y-96300714D01*
X139519285Y-96443571D01*
X139483571Y-96515000D01*
X139447857Y-96550714D01*
X139376428Y-96586428D01*
X139197857Y-96586428D01*
X139126428Y-96550714D01*
X139090714Y-96515000D01*
X139055000Y-96443571D01*
X139055000Y-96300714D01*
X139090714Y-96229285D01*
X139126428Y-96193571D01*
X139197857Y-96157857D01*
X135045485Y-111394457D02*
X134688342Y-111144457D01*
X135045485Y-110965885D02*
X134295485Y-110965885D01*
X134295485Y-111251600D01*
X134331200Y-111323028D01*
X134366914Y-111358742D01*
X134438342Y-111394457D01*
X134545485Y-111394457D01*
X134616914Y-111358742D01*
X134652628Y-111323028D01*
X134688342Y-111251600D01*
X134688342Y-110965885D01*
X135045485Y-111751600D02*
X135045485Y-111894457D01*
X135009771Y-111965885D01*
X134974057Y-112001600D01*
X134866914Y-112073028D01*
X134724057Y-112108742D01*
X134438342Y-112108742D01*
X134366914Y-112073028D01*
X134331200Y-112037314D01*
X134295485Y-111965885D01*
X134295485Y-111823028D01*
X134331200Y-111751600D01*
X134366914Y-111715885D01*
X134438342Y-111680171D01*
X134616914Y-111680171D01*
X134688342Y-111715885D01*
X134724057Y-111751600D01*
X134759771Y-111823028D01*
X134759771Y-111965885D01*
X134724057Y-112037314D01*
X134688342Y-112073028D01*
X134616914Y-112108742D01*
X134545485Y-112751600D02*
X135045485Y-112751600D01*
X134259771Y-112573028D02*
X134795485Y-112394457D01*
X134795485Y-112858742D01*
X63148714Y-33185028D02*
X62541571Y-33185028D01*
X62470142Y-33149314D01*
X62434428Y-33113600D01*
X62398714Y-33042171D01*
X62398714Y-32899314D01*
X62434428Y-32827885D01*
X62470142Y-32792171D01*
X62541571Y-32756457D01*
X63148714Y-32756457D01*
X63148714Y-32470742D02*
X63148714Y-32006457D01*
X62863000Y-32256457D01*
X62863000Y-32149314D01*
X62827285Y-32077885D01*
X62791571Y-32042171D01*
X62720142Y-32006457D01*
X62541571Y-32006457D01*
X62470142Y-32042171D01*
X62434428Y-32077885D01*
X62398714Y-32149314D01*
X62398714Y-32363600D01*
X62434428Y-32435028D01*
X62470142Y-32470742D01*
X57454342Y-51647285D02*
X57704342Y-51290142D01*
X57882914Y-51647285D02*
X57882914Y-50897285D01*
X57597200Y-50897285D01*
X57525771Y-50933000D01*
X57490057Y-50968714D01*
X57454342Y-51040142D01*
X57454342Y-51147285D01*
X57490057Y-51218714D01*
X57525771Y-51254428D01*
X57597200Y-51290142D01*
X57882914Y-51290142D01*
X57168628Y-50968714D02*
X57132914Y-50933000D01*
X57061485Y-50897285D01*
X56882914Y-50897285D01*
X56811485Y-50933000D01*
X56775771Y-50968714D01*
X56740057Y-51040142D01*
X56740057Y-51111571D01*
X56775771Y-51218714D01*
X57204342Y-51647285D01*
X56740057Y-51647285D01*
X56490057Y-50897285D02*
X55990057Y-50897285D01*
X56311485Y-51647285D01*
X142299885Y-94539257D02*
X141942742Y-94289257D01*
X142299885Y-94110685D02*
X141549885Y-94110685D01*
X141549885Y-94396400D01*
X141585600Y-94467828D01*
X141621314Y-94503542D01*
X141692742Y-94539257D01*
X141799885Y-94539257D01*
X141871314Y-94503542D01*
X141907028Y-94467828D01*
X141942742Y-94396400D01*
X141942742Y-94110685D01*
X141549885Y-94789257D02*
X141549885Y-95289257D01*
X142299885Y-94967828D01*
X142299885Y-95967828D02*
X142299885Y-95539257D01*
X142299885Y-95753542D02*
X141549885Y-95753542D01*
X141657028Y-95682114D01*
X141728457Y-95610685D01*
X141764171Y-95539257D01*
X144204885Y-94539257D02*
X143847742Y-94289257D01*
X144204885Y-94110685D02*
X143454885Y-94110685D01*
X143454885Y-94396400D01*
X143490600Y-94467828D01*
X143526314Y-94503542D01*
X143597742Y-94539257D01*
X143704885Y-94539257D01*
X143776314Y-94503542D01*
X143812028Y-94467828D01*
X143847742Y-94396400D01*
X143847742Y-94110685D01*
X143454885Y-94789257D02*
X143454885Y-95289257D01*
X144204885Y-94967828D01*
X143526314Y-95539257D02*
X143490600Y-95574971D01*
X143454885Y-95646400D01*
X143454885Y-95824971D01*
X143490600Y-95896400D01*
X143526314Y-95932114D01*
X143597742Y-95967828D01*
X143669171Y-95967828D01*
X143776314Y-95932114D01*
X144204885Y-95503542D01*
X144204885Y-95967828D01*
X145957485Y-94615457D02*
X145600342Y-94365457D01*
X145957485Y-94186885D02*
X145207485Y-94186885D01*
X145207485Y-94472600D01*
X145243200Y-94544028D01*
X145278914Y-94579742D01*
X145350342Y-94615457D01*
X145457485Y-94615457D01*
X145528914Y-94579742D01*
X145564628Y-94544028D01*
X145600342Y-94472600D01*
X145600342Y-94186885D01*
X145207485Y-94865457D02*
X145207485Y-95365457D01*
X145957485Y-95044028D01*
X145207485Y-95579742D02*
X145207485Y-96044028D01*
X145493200Y-95794028D01*
X145493200Y-95901171D01*
X145528914Y-95972600D01*
X145564628Y-96008314D01*
X145636057Y-96044028D01*
X145814628Y-96044028D01*
X145886057Y-96008314D01*
X145921771Y-95972600D01*
X145957485Y-95901171D01*
X145957485Y-95686885D01*
X145921771Y-95615457D01*
X145886057Y-95579742D01*
X150265942Y-96503685D02*
X150515942Y-96146542D01*
X150694514Y-96503685D02*
X150694514Y-95753685D01*
X150408800Y-95753685D01*
X150337371Y-95789400D01*
X150301657Y-95825114D01*
X150265942Y-95896542D01*
X150265942Y-96003685D01*
X150301657Y-96075114D01*
X150337371Y-96110828D01*
X150408800Y-96146542D01*
X150694514Y-96146542D01*
X150015942Y-95753685D02*
X149515942Y-95753685D01*
X149837371Y-96503685D01*
X148908800Y-96003685D02*
X148908800Y-96503685D01*
X149087371Y-95717971D02*
X149265942Y-96253685D01*
X148801657Y-96253685D01*
X153644142Y-103920485D02*
X153894142Y-103563342D01*
X154072714Y-103920485D02*
X154072714Y-103170485D01*
X153787000Y-103170485D01*
X153715571Y-103206200D01*
X153679857Y-103241914D01*
X153644142Y-103313342D01*
X153644142Y-103420485D01*
X153679857Y-103491914D01*
X153715571Y-103527628D01*
X153787000Y-103563342D01*
X154072714Y-103563342D01*
X153215571Y-103491914D02*
X153287000Y-103456200D01*
X153322714Y-103420485D01*
X153358428Y-103349057D01*
X153358428Y-103313342D01*
X153322714Y-103241914D01*
X153287000Y-103206200D01*
X153215571Y-103170485D01*
X153072714Y-103170485D01*
X153001285Y-103206200D01*
X152965571Y-103241914D01*
X152929857Y-103313342D01*
X152929857Y-103349057D01*
X152965571Y-103420485D01*
X153001285Y-103456200D01*
X153072714Y-103491914D01*
X153215571Y-103491914D01*
X153287000Y-103527628D01*
X153322714Y-103563342D01*
X153358428Y-103634771D01*
X153358428Y-103777628D01*
X153322714Y-103849057D01*
X153287000Y-103884771D01*
X153215571Y-103920485D01*
X153072714Y-103920485D01*
X153001285Y-103884771D01*
X152965571Y-103849057D01*
X152929857Y-103777628D01*
X152929857Y-103634771D01*
X152965571Y-103563342D01*
X153001285Y-103527628D01*
X153072714Y-103491914D01*
X152501285Y-103491914D02*
X152572714Y-103456200D01*
X152608428Y-103420485D01*
X152644142Y-103349057D01*
X152644142Y-103313342D01*
X152608428Y-103241914D01*
X152572714Y-103206200D01*
X152501285Y-103170485D01*
X152358428Y-103170485D01*
X152287000Y-103206200D01*
X152251285Y-103241914D01*
X152215571Y-103313342D01*
X152215571Y-103349057D01*
X152251285Y-103420485D01*
X152287000Y-103456200D01*
X152358428Y-103491914D01*
X152501285Y-103491914D01*
X152572714Y-103527628D01*
X152608428Y-103563342D01*
X152644142Y-103634771D01*
X152644142Y-103777628D01*
X152608428Y-103849057D01*
X152572714Y-103884771D01*
X152501285Y-103920485D01*
X152358428Y-103920485D01*
X152287000Y-103884771D01*
X152251285Y-103849057D01*
X152215571Y-103777628D01*
X152215571Y-103634771D01*
X152251285Y-103563342D01*
X152287000Y-103527628D01*
X152358428Y-103491914D01*
X153593342Y-106358885D02*
X153843342Y-106001742D01*
X154021914Y-106358885D02*
X154021914Y-105608885D01*
X153736200Y-105608885D01*
X153664771Y-105644600D01*
X153629057Y-105680314D01*
X153593342Y-105751742D01*
X153593342Y-105858885D01*
X153629057Y-105930314D01*
X153664771Y-105966028D01*
X153736200Y-106001742D01*
X154021914Y-106001742D01*
X153164771Y-105930314D02*
X153236200Y-105894600D01*
X153271914Y-105858885D01*
X153307628Y-105787457D01*
X153307628Y-105751742D01*
X153271914Y-105680314D01*
X153236200Y-105644600D01*
X153164771Y-105608885D01*
X153021914Y-105608885D01*
X152950485Y-105644600D01*
X152914771Y-105680314D01*
X152879057Y-105751742D01*
X152879057Y-105787457D01*
X152914771Y-105858885D01*
X152950485Y-105894600D01*
X153021914Y-105930314D01*
X153164771Y-105930314D01*
X153236200Y-105966028D01*
X153271914Y-106001742D01*
X153307628Y-106073171D01*
X153307628Y-106216028D01*
X153271914Y-106287457D01*
X153236200Y-106323171D01*
X153164771Y-106358885D01*
X153021914Y-106358885D01*
X152950485Y-106323171D01*
X152914771Y-106287457D01*
X152879057Y-106216028D01*
X152879057Y-106073171D01*
X152914771Y-106001742D01*
X152950485Y-105966028D01*
X153021914Y-105930314D01*
X152629057Y-105608885D02*
X152129057Y-105608885D01*
X152450485Y-106358885D01*
X163647342Y-95661485D02*
X163897342Y-95304342D01*
X164075914Y-95661485D02*
X164075914Y-94911485D01*
X163790200Y-94911485D01*
X163718771Y-94947200D01*
X163683057Y-94982914D01*
X163647342Y-95054342D01*
X163647342Y-95161485D01*
X163683057Y-95232914D01*
X163718771Y-95268628D01*
X163790200Y-95304342D01*
X164075914Y-95304342D01*
X163397342Y-94911485D02*
X162897342Y-94911485D01*
X163218771Y-95661485D01*
X162254485Y-94911485D02*
X162611628Y-94911485D01*
X162647342Y-95268628D01*
X162611628Y-95232914D01*
X162540200Y-95197200D01*
X162361628Y-95197200D01*
X162290200Y-95232914D01*
X162254485Y-95268628D01*
X162218771Y-95340057D01*
X162218771Y-95518628D01*
X162254485Y-95590057D01*
X162290200Y-95625771D01*
X162361628Y-95661485D01*
X162540200Y-95661485D01*
X162611628Y-95625771D01*
X162647342Y-95590057D01*
X169722342Y-89975885D02*
X169972342Y-89618742D01*
X170150914Y-89975885D02*
X170150914Y-89225885D01*
X169865200Y-89225885D01*
X169793771Y-89261600D01*
X169758057Y-89297314D01*
X169722342Y-89368742D01*
X169722342Y-89475885D01*
X169758057Y-89547314D01*
X169793771Y-89583028D01*
X169865200Y-89618742D01*
X170150914Y-89618742D01*
X169079485Y-89225885D02*
X169222342Y-89225885D01*
X169293771Y-89261600D01*
X169329485Y-89297314D01*
X169400914Y-89404457D01*
X169436628Y-89547314D01*
X169436628Y-89833028D01*
X169400914Y-89904457D01*
X169365200Y-89940171D01*
X169293771Y-89975885D01*
X169150914Y-89975885D01*
X169079485Y-89940171D01*
X169043771Y-89904457D01*
X169008057Y-89833028D01*
X169008057Y-89654457D01*
X169043771Y-89583028D01*
X169079485Y-89547314D01*
X169150914Y-89511600D01*
X169293771Y-89511600D01*
X169365200Y-89547314D01*
X169400914Y-89583028D01*
X169436628Y-89654457D01*
X168758057Y-89225885D02*
X168258057Y-89225885D01*
X168579485Y-89975885D01*
X169722342Y-88705885D02*
X169972342Y-88348742D01*
X170150914Y-88705885D02*
X170150914Y-87955885D01*
X169865200Y-87955885D01*
X169793771Y-87991600D01*
X169758057Y-88027314D01*
X169722342Y-88098742D01*
X169722342Y-88205885D01*
X169758057Y-88277314D01*
X169793771Y-88313028D01*
X169865200Y-88348742D01*
X170150914Y-88348742D01*
X169079485Y-87955885D02*
X169222342Y-87955885D01*
X169293771Y-87991600D01*
X169329485Y-88027314D01*
X169400914Y-88134457D01*
X169436628Y-88277314D01*
X169436628Y-88563028D01*
X169400914Y-88634457D01*
X169365200Y-88670171D01*
X169293771Y-88705885D01*
X169150914Y-88705885D01*
X169079485Y-88670171D01*
X169043771Y-88634457D01*
X169008057Y-88563028D01*
X169008057Y-88384457D01*
X169043771Y-88313028D01*
X169079485Y-88277314D01*
X169150914Y-88241600D01*
X169293771Y-88241600D01*
X169365200Y-88277314D01*
X169400914Y-88313028D01*
X169436628Y-88384457D01*
X168365200Y-87955885D02*
X168508057Y-87955885D01*
X168579485Y-87991600D01*
X168615200Y-88027314D01*
X168686628Y-88134457D01*
X168722342Y-88277314D01*
X168722342Y-88563028D01*
X168686628Y-88634457D01*
X168650914Y-88670171D01*
X168579485Y-88705885D01*
X168436628Y-88705885D01*
X168365200Y-88670171D01*
X168329485Y-88634457D01*
X168293771Y-88563028D01*
X168293771Y-88384457D01*
X168329485Y-88313028D01*
X168365200Y-88277314D01*
X168436628Y-88241600D01*
X168579485Y-88241600D01*
X168650914Y-88277314D01*
X168686628Y-88313028D01*
X168722342Y-88384457D01*
X169722342Y-86165885D02*
X169972342Y-85808742D01*
X170150914Y-86165885D02*
X170150914Y-85415885D01*
X169865200Y-85415885D01*
X169793771Y-85451600D01*
X169758057Y-85487314D01*
X169722342Y-85558742D01*
X169722342Y-85665885D01*
X169758057Y-85737314D01*
X169793771Y-85773028D01*
X169865200Y-85808742D01*
X170150914Y-85808742D01*
X169079485Y-85415885D02*
X169222342Y-85415885D01*
X169293771Y-85451600D01*
X169329485Y-85487314D01*
X169400914Y-85594457D01*
X169436628Y-85737314D01*
X169436628Y-86023028D01*
X169400914Y-86094457D01*
X169365200Y-86130171D01*
X169293771Y-86165885D01*
X169150914Y-86165885D01*
X169079485Y-86130171D01*
X169043771Y-86094457D01*
X169008057Y-86023028D01*
X169008057Y-85844457D01*
X169043771Y-85773028D01*
X169079485Y-85737314D01*
X169150914Y-85701600D01*
X169293771Y-85701600D01*
X169365200Y-85737314D01*
X169400914Y-85773028D01*
X169436628Y-85844457D01*
X168293771Y-86165885D02*
X168722342Y-86165885D01*
X168508057Y-86165885D02*
X168508057Y-85415885D01*
X168579485Y-85523028D01*
X168650914Y-85594457D01*
X168722342Y-85630171D01*
X169718342Y-84939885D02*
X169968342Y-84582742D01*
X170146914Y-84939885D02*
X170146914Y-84189885D01*
X169861200Y-84189885D01*
X169789771Y-84225600D01*
X169754057Y-84261314D01*
X169718342Y-84332742D01*
X169718342Y-84439885D01*
X169754057Y-84511314D01*
X169789771Y-84547028D01*
X169861200Y-84582742D01*
X170146914Y-84582742D01*
X169075485Y-84189885D02*
X169218342Y-84189885D01*
X169289771Y-84225600D01*
X169325485Y-84261314D01*
X169396914Y-84368457D01*
X169432628Y-84511314D01*
X169432628Y-84797028D01*
X169396914Y-84868457D01*
X169361200Y-84904171D01*
X169289771Y-84939885D01*
X169146914Y-84939885D01*
X169075485Y-84904171D01*
X169039771Y-84868457D01*
X169004057Y-84797028D01*
X169004057Y-84618457D01*
X169039771Y-84547028D01*
X169075485Y-84511314D01*
X169146914Y-84475600D01*
X169289771Y-84475600D01*
X169361200Y-84511314D01*
X169396914Y-84547028D01*
X169432628Y-84618457D01*
X168539771Y-84189885D02*
X168468342Y-84189885D01*
X168396914Y-84225600D01*
X168361200Y-84261314D01*
X168325485Y-84332742D01*
X168289771Y-84475600D01*
X168289771Y-84654171D01*
X168325485Y-84797028D01*
X168361200Y-84868457D01*
X168396914Y-84904171D01*
X168468342Y-84939885D01*
X168539771Y-84939885D01*
X168611200Y-84904171D01*
X168646914Y-84868457D01*
X168682628Y-84797028D01*
X168718342Y-84654171D01*
X168718342Y-84475600D01*
X168682628Y-84332742D01*
X168646914Y-84261314D01*
X168611200Y-84225600D01*
X168539771Y-84189885D01*
X169687542Y-83343285D02*
X169937542Y-82986142D01*
X170116114Y-83343285D02*
X170116114Y-82593285D01*
X169830400Y-82593285D01*
X169758971Y-82629000D01*
X169723257Y-82664714D01*
X169687542Y-82736142D01*
X169687542Y-82843285D01*
X169723257Y-82914714D01*
X169758971Y-82950428D01*
X169830400Y-82986142D01*
X170116114Y-82986142D01*
X169008971Y-82593285D02*
X169366114Y-82593285D01*
X169401828Y-82950428D01*
X169366114Y-82914714D01*
X169294685Y-82879000D01*
X169116114Y-82879000D01*
X169044685Y-82914714D01*
X169008971Y-82950428D01*
X168973257Y-83021857D01*
X168973257Y-83200428D01*
X169008971Y-83271857D01*
X169044685Y-83307571D01*
X169116114Y-83343285D01*
X169294685Y-83343285D01*
X169366114Y-83307571D01*
X169401828Y-83271857D01*
X168330400Y-82593285D02*
X168473257Y-82593285D01*
X168544685Y-82629000D01*
X168580400Y-82664714D01*
X168651828Y-82771857D01*
X168687542Y-82914714D01*
X168687542Y-83200428D01*
X168651828Y-83271857D01*
X168616114Y-83307571D01*
X168544685Y-83343285D01*
X168401828Y-83343285D01*
X168330400Y-83307571D01*
X168294685Y-83271857D01*
X168258971Y-83200428D01*
X168258971Y-83021857D01*
X168294685Y-82950428D01*
X168330400Y-82914714D01*
X168401828Y-82879000D01*
X168544685Y-82879000D01*
X168616114Y-82914714D01*
X168651828Y-82950428D01*
X168687542Y-83021857D01*
X169722342Y-81847885D02*
X169972342Y-81490742D01*
X170150914Y-81847885D02*
X170150914Y-81097885D01*
X169865200Y-81097885D01*
X169793771Y-81133600D01*
X169758057Y-81169314D01*
X169722342Y-81240742D01*
X169722342Y-81347885D01*
X169758057Y-81419314D01*
X169793771Y-81455028D01*
X169865200Y-81490742D01*
X170150914Y-81490742D01*
X169043771Y-81097885D02*
X169400914Y-81097885D01*
X169436628Y-81455028D01*
X169400914Y-81419314D01*
X169329485Y-81383600D01*
X169150914Y-81383600D01*
X169079485Y-81419314D01*
X169043771Y-81455028D01*
X169008057Y-81526457D01*
X169008057Y-81705028D01*
X169043771Y-81776457D01*
X169079485Y-81812171D01*
X169150914Y-81847885D01*
X169329485Y-81847885D01*
X169400914Y-81812171D01*
X169436628Y-81776457D01*
X168365200Y-81347885D02*
X168365200Y-81847885D01*
X168543771Y-81062171D02*
X168722342Y-81597885D01*
X168258057Y-81597885D01*
X169722342Y-80323885D02*
X169972342Y-79966742D01*
X170150914Y-80323885D02*
X170150914Y-79573885D01*
X169865200Y-79573885D01*
X169793771Y-79609600D01*
X169758057Y-79645314D01*
X169722342Y-79716742D01*
X169722342Y-79823885D01*
X169758057Y-79895314D01*
X169793771Y-79931028D01*
X169865200Y-79966742D01*
X170150914Y-79966742D01*
X169043771Y-79573885D02*
X169400914Y-79573885D01*
X169436628Y-79931028D01*
X169400914Y-79895314D01*
X169329485Y-79859600D01*
X169150914Y-79859600D01*
X169079485Y-79895314D01*
X169043771Y-79931028D01*
X169008057Y-80002457D01*
X169008057Y-80181028D01*
X169043771Y-80252457D01*
X169079485Y-80288171D01*
X169150914Y-80323885D01*
X169329485Y-80323885D01*
X169400914Y-80288171D01*
X169436628Y-80252457D01*
X168293771Y-80323885D02*
X168722342Y-80323885D01*
X168508057Y-80323885D02*
X168508057Y-79573885D01*
X168579485Y-79681028D01*
X168650914Y-79752457D01*
X168722342Y-79788171D01*
X169468342Y-77783885D02*
X169718342Y-77426742D01*
X169896914Y-77783885D02*
X169896914Y-77033885D01*
X169611200Y-77033885D01*
X169539771Y-77069600D01*
X169504057Y-77105314D01*
X169468342Y-77176742D01*
X169468342Y-77283885D01*
X169504057Y-77355314D01*
X169539771Y-77391028D01*
X169611200Y-77426742D01*
X169896914Y-77426742D01*
X168825485Y-77283885D02*
X168825485Y-77783885D01*
X169004057Y-76998171D02*
X169182628Y-77533885D01*
X168718342Y-77533885D01*
X168325485Y-77355314D02*
X168396914Y-77319600D01*
X168432628Y-77283885D01*
X168468342Y-77212457D01*
X168468342Y-77176742D01*
X168432628Y-77105314D01*
X168396914Y-77069600D01*
X168325485Y-77033885D01*
X168182628Y-77033885D01*
X168111200Y-77069600D01*
X168075485Y-77105314D01*
X168039771Y-77176742D01*
X168039771Y-77212457D01*
X168075485Y-77283885D01*
X168111200Y-77319600D01*
X168182628Y-77355314D01*
X168325485Y-77355314D01*
X168396914Y-77391028D01*
X168432628Y-77426742D01*
X168468342Y-77498171D01*
X168468342Y-77641028D01*
X168432628Y-77712457D01*
X168396914Y-77748171D01*
X168325485Y-77783885D01*
X168182628Y-77783885D01*
X168111200Y-77748171D01*
X168075485Y-77712457D01*
X168039771Y-77641028D01*
X168039771Y-77498171D01*
X168075485Y-77426742D01*
X168111200Y-77391028D01*
X168182628Y-77355314D01*
X169468342Y-76259885D02*
X169718342Y-75902742D01*
X169896914Y-76259885D02*
X169896914Y-75509885D01*
X169611200Y-75509885D01*
X169539771Y-75545600D01*
X169504057Y-75581314D01*
X169468342Y-75652742D01*
X169468342Y-75759885D01*
X169504057Y-75831314D01*
X169539771Y-75867028D01*
X169611200Y-75902742D01*
X169896914Y-75902742D01*
X168825485Y-75759885D02*
X168825485Y-76259885D01*
X169004057Y-75474171D02*
X169182628Y-76009885D01*
X168718342Y-76009885D01*
X168504057Y-75509885D02*
X168004057Y-75509885D01*
X168325485Y-76259885D01*
X169468342Y-74989885D02*
X169718342Y-74632742D01*
X169896914Y-74989885D02*
X169896914Y-74239885D01*
X169611200Y-74239885D01*
X169539771Y-74275600D01*
X169504057Y-74311314D01*
X169468342Y-74382742D01*
X169468342Y-74489885D01*
X169504057Y-74561314D01*
X169539771Y-74597028D01*
X169611200Y-74632742D01*
X169896914Y-74632742D01*
X168825485Y-74489885D02*
X168825485Y-74989885D01*
X169004057Y-74204171D02*
X169182628Y-74739885D01*
X168718342Y-74739885D01*
X168111200Y-74489885D02*
X168111200Y-74989885D01*
X168289771Y-74204171D02*
X168468342Y-74739885D01*
X168004057Y-74739885D01*
X169468342Y-73719885D02*
X169718342Y-73362742D01*
X169896914Y-73719885D02*
X169896914Y-72969885D01*
X169611200Y-72969885D01*
X169539771Y-73005600D01*
X169504057Y-73041314D01*
X169468342Y-73112742D01*
X169468342Y-73219885D01*
X169504057Y-73291314D01*
X169539771Y-73327028D01*
X169611200Y-73362742D01*
X169896914Y-73362742D01*
X168825485Y-73219885D02*
X168825485Y-73719885D01*
X169004057Y-72934171D02*
X169182628Y-73469885D01*
X168718342Y-73469885D01*
X168504057Y-72969885D02*
X168039771Y-72969885D01*
X168289771Y-73255600D01*
X168182628Y-73255600D01*
X168111200Y-73291314D01*
X168075485Y-73327028D01*
X168039771Y-73398457D01*
X168039771Y-73577028D01*
X168075485Y-73648457D01*
X168111200Y-73684171D01*
X168182628Y-73719885D01*
X168396914Y-73719885D01*
X168468342Y-73684171D01*
X168504057Y-73648457D01*
X169468342Y-72195885D02*
X169718342Y-71838742D01*
X169896914Y-72195885D02*
X169896914Y-71445885D01*
X169611200Y-71445885D01*
X169539771Y-71481600D01*
X169504057Y-71517314D01*
X169468342Y-71588742D01*
X169468342Y-71695885D01*
X169504057Y-71767314D01*
X169539771Y-71803028D01*
X169611200Y-71838742D01*
X169896914Y-71838742D01*
X168825485Y-71695885D02*
X168825485Y-72195885D01*
X169004057Y-71410171D02*
X169182628Y-71945885D01*
X168718342Y-71945885D01*
X168468342Y-71517314D02*
X168432628Y-71481600D01*
X168361200Y-71445885D01*
X168182628Y-71445885D01*
X168111200Y-71481600D01*
X168075485Y-71517314D01*
X168039771Y-71588742D01*
X168039771Y-71660171D01*
X168075485Y-71767314D01*
X168504057Y-72195885D01*
X168039771Y-72195885D01*
X169468342Y-70925885D02*
X169718342Y-70568742D01*
X169896914Y-70925885D02*
X169896914Y-70175885D01*
X169611200Y-70175885D01*
X169539771Y-70211600D01*
X169504057Y-70247314D01*
X169468342Y-70318742D01*
X169468342Y-70425885D01*
X169504057Y-70497314D01*
X169539771Y-70533028D01*
X169611200Y-70568742D01*
X169896914Y-70568742D01*
X168825485Y-70425885D02*
X168825485Y-70925885D01*
X169004057Y-70140171D02*
X169182628Y-70675885D01*
X168718342Y-70675885D01*
X168039771Y-70925885D02*
X168468342Y-70925885D01*
X168254057Y-70925885D02*
X168254057Y-70175885D01*
X168325485Y-70283028D01*
X168396914Y-70354457D01*
X168468342Y-70390171D01*
X169468342Y-68385885D02*
X169718342Y-68028742D01*
X169896914Y-68385885D02*
X169896914Y-67635885D01*
X169611200Y-67635885D01*
X169539771Y-67671600D01*
X169504057Y-67707314D01*
X169468342Y-67778742D01*
X169468342Y-67885885D01*
X169504057Y-67957314D01*
X169539771Y-67993028D01*
X169611200Y-68028742D01*
X169896914Y-68028742D01*
X168825485Y-67885885D02*
X168825485Y-68385885D01*
X169004057Y-67600171D02*
X169182628Y-68135885D01*
X168718342Y-68135885D01*
X168289771Y-67635885D02*
X168218342Y-67635885D01*
X168146914Y-67671600D01*
X168111200Y-67707314D01*
X168075485Y-67778742D01*
X168039771Y-67921600D01*
X168039771Y-68100171D01*
X168075485Y-68243028D01*
X168111200Y-68314457D01*
X168146914Y-68350171D01*
X168218342Y-68385885D01*
X168289771Y-68385885D01*
X168361200Y-68350171D01*
X168396914Y-68314457D01*
X168432628Y-68243028D01*
X168468342Y-68100171D01*
X168468342Y-67921600D01*
X168432628Y-67778742D01*
X168396914Y-67707314D01*
X168361200Y-67671600D01*
X168289771Y-67635885D01*
X169468342Y-66607885D02*
X169718342Y-66250742D01*
X169896914Y-66607885D02*
X169896914Y-65857885D01*
X169611200Y-65857885D01*
X169539771Y-65893600D01*
X169504057Y-65929314D01*
X169468342Y-66000742D01*
X169468342Y-66107885D01*
X169504057Y-66179314D01*
X169539771Y-66215028D01*
X169611200Y-66250742D01*
X169896914Y-66250742D01*
X169218342Y-65857885D02*
X168754057Y-65857885D01*
X169004057Y-66143600D01*
X168896914Y-66143600D01*
X168825485Y-66179314D01*
X168789771Y-66215028D01*
X168754057Y-66286457D01*
X168754057Y-66465028D01*
X168789771Y-66536457D01*
X168825485Y-66572171D01*
X168896914Y-66607885D01*
X169111200Y-66607885D01*
X169182628Y-66572171D01*
X169218342Y-66536457D01*
X168325485Y-66179314D02*
X168396914Y-66143600D01*
X168432628Y-66107885D01*
X168468342Y-66036457D01*
X168468342Y-66000742D01*
X168432628Y-65929314D01*
X168396914Y-65893600D01*
X168325485Y-65857885D01*
X168182628Y-65857885D01*
X168111200Y-65893600D01*
X168075485Y-65929314D01*
X168039771Y-66000742D01*
X168039771Y-66036457D01*
X168075485Y-66107885D01*
X168111200Y-66143600D01*
X168182628Y-66179314D01*
X168325485Y-66179314D01*
X168396914Y-66215028D01*
X168432628Y-66250742D01*
X168468342Y-66322171D01*
X168468342Y-66465028D01*
X168432628Y-66536457D01*
X168396914Y-66572171D01*
X168325485Y-66607885D01*
X168182628Y-66607885D01*
X168111200Y-66572171D01*
X168075485Y-66536457D01*
X168039771Y-66465028D01*
X168039771Y-66322171D01*
X168075485Y-66250742D01*
X168111200Y-66215028D01*
X168182628Y-66179314D01*
X169468342Y-64575885D02*
X169718342Y-64218742D01*
X169896914Y-64575885D02*
X169896914Y-63825885D01*
X169611200Y-63825885D01*
X169539771Y-63861600D01*
X169504057Y-63897314D01*
X169468342Y-63968742D01*
X169468342Y-64075885D01*
X169504057Y-64147314D01*
X169539771Y-64183028D01*
X169611200Y-64218742D01*
X169896914Y-64218742D01*
X169218342Y-63825885D02*
X168754057Y-63825885D01*
X169004057Y-64111600D01*
X168896914Y-64111600D01*
X168825485Y-64147314D01*
X168789771Y-64183028D01*
X168754057Y-64254457D01*
X168754057Y-64433028D01*
X168789771Y-64504457D01*
X168825485Y-64540171D01*
X168896914Y-64575885D01*
X169111200Y-64575885D01*
X169182628Y-64540171D01*
X169218342Y-64504457D01*
X168504057Y-63825885D02*
X168004057Y-63825885D01*
X168325485Y-64575885D01*
X169468342Y-62543885D02*
X169718342Y-62186742D01*
X169896914Y-62543885D02*
X169896914Y-61793885D01*
X169611200Y-61793885D01*
X169539771Y-61829600D01*
X169504057Y-61865314D01*
X169468342Y-61936742D01*
X169468342Y-62043885D01*
X169504057Y-62115314D01*
X169539771Y-62151028D01*
X169611200Y-62186742D01*
X169896914Y-62186742D01*
X169218342Y-61793885D02*
X168754057Y-61793885D01*
X169004057Y-62079600D01*
X168896914Y-62079600D01*
X168825485Y-62115314D01*
X168789771Y-62151028D01*
X168754057Y-62222457D01*
X168754057Y-62401028D01*
X168789771Y-62472457D01*
X168825485Y-62508171D01*
X168896914Y-62543885D01*
X169111200Y-62543885D01*
X169182628Y-62508171D01*
X169218342Y-62472457D01*
X168111200Y-61793885D02*
X168254057Y-61793885D01*
X168325485Y-61829600D01*
X168361200Y-61865314D01*
X168432628Y-61972457D01*
X168468342Y-62115314D01*
X168468342Y-62401028D01*
X168432628Y-62472457D01*
X168396914Y-62508171D01*
X168325485Y-62543885D01*
X168182628Y-62543885D01*
X168111200Y-62508171D01*
X168075485Y-62472457D01*
X168039771Y-62401028D01*
X168039771Y-62222457D01*
X168075485Y-62151028D01*
X168111200Y-62115314D01*
X168182628Y-62079600D01*
X168325485Y-62079600D01*
X168396914Y-62115314D01*
X168432628Y-62151028D01*
X168468342Y-62222457D01*
X169191342Y-61019885D02*
X169441342Y-60662742D01*
X169619914Y-61019885D02*
X169619914Y-60269885D01*
X169334200Y-60269885D01*
X169262771Y-60305600D01*
X169227057Y-60341314D01*
X169191342Y-60412742D01*
X169191342Y-60519885D01*
X169227057Y-60591314D01*
X169262771Y-60627028D01*
X169334200Y-60662742D01*
X169619914Y-60662742D01*
X168941342Y-60269885D02*
X168477057Y-60269885D01*
X168727057Y-60555600D01*
X168619914Y-60555600D01*
X168548485Y-60591314D01*
X168512771Y-60627028D01*
X168477057Y-60698457D01*
X168477057Y-60877028D01*
X168512771Y-60948457D01*
X168548485Y-60984171D01*
X168619914Y-61019885D01*
X168834200Y-61019885D01*
X168905628Y-60984171D01*
X168941342Y-60948457D01*
X167798485Y-60269885D02*
X168155628Y-60269885D01*
X168191342Y-60627028D01*
X168155628Y-60591314D01*
X168084200Y-60555600D01*
X167905628Y-60555600D01*
X167834200Y-60591314D01*
X167798485Y-60627028D01*
X167762771Y-60698457D01*
X167762771Y-60877028D01*
X167798485Y-60948457D01*
X167834200Y-60984171D01*
X167905628Y-61019885D01*
X168084200Y-61019885D01*
X168155628Y-60984171D01*
X168191342Y-60948457D01*
X169208342Y-59429885D02*
X169458342Y-59072742D01*
X169636914Y-59429885D02*
X169636914Y-58679885D01*
X169351200Y-58679885D01*
X169279771Y-58715600D01*
X169244057Y-58751314D01*
X169208342Y-58822742D01*
X169208342Y-58929885D01*
X169244057Y-59001314D01*
X169279771Y-59037028D01*
X169351200Y-59072742D01*
X169636914Y-59072742D01*
X168958342Y-58679885D02*
X168494057Y-58679885D01*
X168744057Y-58965600D01*
X168636914Y-58965600D01*
X168565485Y-59001314D01*
X168529771Y-59037028D01*
X168494057Y-59108457D01*
X168494057Y-59287028D01*
X168529771Y-59358457D01*
X168565485Y-59394171D01*
X168636914Y-59429885D01*
X168851200Y-59429885D01*
X168922628Y-59394171D01*
X168958342Y-59358457D01*
X167851200Y-58929885D02*
X167851200Y-59429885D01*
X168029771Y-58644171D02*
X168208342Y-59179885D01*
X167744057Y-59179885D01*
X154452142Y-46329285D02*
X154702142Y-45972142D01*
X154880714Y-46329285D02*
X154880714Y-45579285D01*
X154595000Y-45579285D01*
X154523571Y-45615000D01*
X154487857Y-45650714D01*
X154452142Y-45722142D01*
X154452142Y-45829285D01*
X154487857Y-45900714D01*
X154523571Y-45936428D01*
X154595000Y-45972142D01*
X154880714Y-45972142D01*
X154166428Y-45650714D02*
X154130714Y-45615000D01*
X154059285Y-45579285D01*
X153880714Y-45579285D01*
X153809285Y-45615000D01*
X153773571Y-45650714D01*
X153737857Y-45722142D01*
X153737857Y-45793571D01*
X153773571Y-45900714D01*
X154202142Y-46329285D01*
X153737857Y-46329285D01*
X153487857Y-45579285D02*
X153023571Y-45579285D01*
X153273571Y-45865000D01*
X153166428Y-45865000D01*
X153095000Y-45900714D01*
X153059285Y-45936428D01*
X153023571Y-46007857D01*
X153023571Y-46186428D01*
X153059285Y-46257857D01*
X153095000Y-46293571D01*
X153166428Y-46329285D01*
X153380714Y-46329285D01*
X153452142Y-46293571D01*
X153487857Y-46257857D01*
X154402142Y-45119285D02*
X154652142Y-44762142D01*
X154830714Y-45119285D02*
X154830714Y-44369285D01*
X154545000Y-44369285D01*
X154473571Y-44405000D01*
X154437857Y-44440714D01*
X154402142Y-44512142D01*
X154402142Y-44619285D01*
X154437857Y-44690714D01*
X154473571Y-44726428D01*
X154545000Y-44762142D01*
X154830714Y-44762142D01*
X154116428Y-44440714D02*
X154080714Y-44405000D01*
X154009285Y-44369285D01*
X153830714Y-44369285D01*
X153759285Y-44405000D01*
X153723571Y-44440714D01*
X153687857Y-44512142D01*
X153687857Y-44583571D01*
X153723571Y-44690714D01*
X154152142Y-45119285D01*
X153687857Y-45119285D01*
X153402142Y-44440714D02*
X153366428Y-44405000D01*
X153295000Y-44369285D01*
X153116428Y-44369285D01*
X153045000Y-44405000D01*
X153009285Y-44440714D01*
X152973571Y-44512142D01*
X152973571Y-44583571D01*
X153009285Y-44690714D01*
X153437857Y-45119285D01*
X152973571Y-45119285D01*
X154358342Y-43879885D02*
X154608342Y-43522742D01*
X154786914Y-43879885D02*
X154786914Y-43129885D01*
X154501200Y-43129885D01*
X154429771Y-43165600D01*
X154394057Y-43201314D01*
X154358342Y-43272742D01*
X154358342Y-43379885D01*
X154394057Y-43451314D01*
X154429771Y-43487028D01*
X154501200Y-43522742D01*
X154786914Y-43522742D01*
X154072628Y-43201314D02*
X154036914Y-43165600D01*
X153965485Y-43129885D01*
X153786914Y-43129885D01*
X153715485Y-43165600D01*
X153679771Y-43201314D01*
X153644057Y-43272742D01*
X153644057Y-43344171D01*
X153679771Y-43451314D01*
X154108342Y-43879885D01*
X153644057Y-43879885D01*
X153179771Y-43129885D02*
X153108342Y-43129885D01*
X153036914Y-43165600D01*
X153001200Y-43201314D01*
X152965485Y-43272742D01*
X152929771Y-43415600D01*
X152929771Y-43594171D01*
X152965485Y-43737028D01*
X153001200Y-43808457D01*
X153036914Y-43844171D01*
X153108342Y-43879885D01*
X153179771Y-43879885D01*
X153251200Y-43844171D01*
X153286914Y-43808457D01*
X153322628Y-43737028D01*
X153358342Y-43594171D01*
X153358342Y-43415600D01*
X153322628Y-43272742D01*
X153286914Y-43201314D01*
X153251200Y-43165600D01*
X153179771Y-43129885D01*
X133740085Y-38735457D02*
X133382942Y-38485457D01*
X133740085Y-38306885D02*
X132990085Y-38306885D01*
X132990085Y-38592600D01*
X133025800Y-38664028D01*
X133061514Y-38699742D01*
X133132942Y-38735457D01*
X133240085Y-38735457D01*
X133311514Y-38699742D01*
X133347228Y-38664028D01*
X133382942Y-38592600D01*
X133382942Y-38306885D01*
X133740085Y-39449742D02*
X133740085Y-39021171D01*
X133740085Y-39235457D02*
X132990085Y-39235457D01*
X133097228Y-39164028D01*
X133168657Y-39092600D01*
X133204371Y-39021171D01*
X133240085Y-40092600D02*
X133740085Y-40092600D01*
X132954371Y-39914028D02*
X133490085Y-39735457D01*
X133490085Y-40199742D01*
X129879285Y-38735457D02*
X129522142Y-38485457D01*
X129879285Y-38306885D02*
X129129285Y-38306885D01*
X129129285Y-38592600D01*
X129165000Y-38664028D01*
X129200714Y-38699742D01*
X129272142Y-38735457D01*
X129379285Y-38735457D01*
X129450714Y-38699742D01*
X129486428Y-38664028D01*
X129522142Y-38592600D01*
X129522142Y-38306885D01*
X129879285Y-39449742D02*
X129879285Y-39021171D01*
X129879285Y-39235457D02*
X129129285Y-39235457D01*
X129236428Y-39164028D01*
X129307857Y-39092600D01*
X129343571Y-39021171D01*
X129200714Y-39735457D02*
X129165000Y-39771171D01*
X129129285Y-39842600D01*
X129129285Y-40021171D01*
X129165000Y-40092600D01*
X129200714Y-40128314D01*
X129272142Y-40164028D01*
X129343571Y-40164028D01*
X129450714Y-40128314D01*
X129879285Y-39699742D01*
X129879285Y-40164028D01*
X137397685Y-38786257D02*
X137040542Y-38536257D01*
X137397685Y-38357685D02*
X136647685Y-38357685D01*
X136647685Y-38643400D01*
X136683400Y-38714828D01*
X136719114Y-38750542D01*
X136790542Y-38786257D01*
X136897685Y-38786257D01*
X136969114Y-38750542D01*
X137004828Y-38714828D01*
X137040542Y-38643400D01*
X137040542Y-38357685D01*
X137397685Y-39500542D02*
X137397685Y-39071971D01*
X137397685Y-39286257D02*
X136647685Y-39286257D01*
X136754828Y-39214828D01*
X136826257Y-39143400D01*
X136861971Y-39071971D01*
X136647685Y-40143400D02*
X136647685Y-40000542D01*
X136683400Y-39929114D01*
X136719114Y-39893400D01*
X136826257Y-39821971D01*
X136969114Y-39786257D01*
X137254828Y-39786257D01*
X137326257Y-39821971D01*
X137361971Y-39857685D01*
X137397685Y-39929114D01*
X137397685Y-40071971D01*
X137361971Y-40143400D01*
X137326257Y-40179114D01*
X137254828Y-40214828D01*
X137076257Y-40214828D01*
X137004828Y-40179114D01*
X136969114Y-40143400D01*
X136933400Y-40071971D01*
X136933400Y-39929114D01*
X136969114Y-39857685D01*
X137004828Y-39821971D01*
X137076257Y-39786257D01*
X141655342Y-39455285D02*
X141905342Y-39098142D01*
X142083914Y-39455285D02*
X142083914Y-38705285D01*
X141798200Y-38705285D01*
X141726771Y-38741000D01*
X141691057Y-38776714D01*
X141655342Y-38848142D01*
X141655342Y-38955285D01*
X141691057Y-39026714D01*
X141726771Y-39062428D01*
X141798200Y-39098142D01*
X142083914Y-39098142D01*
X140941057Y-39455285D02*
X141369628Y-39455285D01*
X141155342Y-39455285D02*
X141155342Y-38705285D01*
X141226771Y-38812428D01*
X141298200Y-38883857D01*
X141369628Y-38919571D01*
X140691057Y-38705285D02*
X140191057Y-38705285D01*
X140512485Y-39455285D01*
X143179342Y-41080885D02*
X143429342Y-40723742D01*
X143607914Y-41080885D02*
X143607914Y-40330885D01*
X143322200Y-40330885D01*
X143250771Y-40366600D01*
X143215057Y-40402314D01*
X143179342Y-40473742D01*
X143179342Y-40580885D01*
X143215057Y-40652314D01*
X143250771Y-40688028D01*
X143322200Y-40723742D01*
X143607914Y-40723742D01*
X142465057Y-41080885D02*
X142893628Y-41080885D01*
X142679342Y-41080885D02*
X142679342Y-40330885D01*
X142750771Y-40438028D01*
X142822200Y-40509457D01*
X142893628Y-40545171D01*
X142036485Y-40652314D02*
X142107914Y-40616600D01*
X142143628Y-40580885D01*
X142179342Y-40509457D01*
X142179342Y-40473742D01*
X142143628Y-40402314D01*
X142107914Y-40366600D01*
X142036485Y-40330885D01*
X141893628Y-40330885D01*
X141822200Y-40366600D01*
X141786485Y-40402314D01*
X141750771Y-40473742D01*
X141750771Y-40509457D01*
X141786485Y-40580885D01*
X141822200Y-40616600D01*
X141893628Y-40652314D01*
X142036485Y-40652314D01*
X142107914Y-40688028D01*
X142143628Y-40723742D01*
X142179342Y-40795171D01*
X142179342Y-40938028D01*
X142143628Y-41009457D01*
X142107914Y-41045171D01*
X142036485Y-41080885D01*
X141893628Y-41080885D01*
X141822200Y-41045171D01*
X141786485Y-41009457D01*
X141750771Y-40938028D01*
X141750771Y-40795171D01*
X141786485Y-40723742D01*
X141822200Y-40688028D01*
X141893628Y-40652314D01*
X154352142Y-42459285D02*
X154602142Y-42102142D01*
X154780714Y-42459285D02*
X154780714Y-41709285D01*
X154495000Y-41709285D01*
X154423571Y-41745000D01*
X154387857Y-41780714D01*
X154352142Y-41852142D01*
X154352142Y-41959285D01*
X154387857Y-42030714D01*
X154423571Y-42066428D01*
X154495000Y-42102142D01*
X154780714Y-42102142D01*
X153637857Y-42459285D02*
X154066428Y-42459285D01*
X153852142Y-42459285D02*
X153852142Y-41709285D01*
X153923571Y-41816428D01*
X153995000Y-41887857D01*
X154066428Y-41923571D01*
X153280714Y-42459285D02*
X153137857Y-42459285D01*
X153066428Y-42423571D01*
X153030714Y-42387857D01*
X152959285Y-42280714D01*
X152923571Y-42137857D01*
X152923571Y-41852142D01*
X152959285Y-41780714D01*
X152995000Y-41745000D01*
X153066428Y-41709285D01*
X153209285Y-41709285D01*
X153280714Y-41745000D01*
X153316428Y-41780714D01*
X153352142Y-41852142D01*
X153352142Y-42030714D01*
X153316428Y-42102142D01*
X153280714Y-42137857D01*
X153209285Y-42173571D01*
X153066428Y-42173571D01*
X152995000Y-42137857D01*
X152959285Y-42102142D01*
X152923571Y-42030714D01*
X138808542Y-57160085D02*
X139058542Y-56802942D01*
X139237114Y-57160085D02*
X139237114Y-56410085D01*
X138951400Y-56410085D01*
X138879971Y-56445800D01*
X138844257Y-56481514D01*
X138808542Y-56552942D01*
X138808542Y-56660085D01*
X138844257Y-56731514D01*
X138879971Y-56767228D01*
X138951400Y-56802942D01*
X139237114Y-56802942D01*
X138558542Y-56410085D02*
X138094257Y-56410085D01*
X138344257Y-56695800D01*
X138237114Y-56695800D01*
X138165685Y-56731514D01*
X138129971Y-56767228D01*
X138094257Y-56838657D01*
X138094257Y-57017228D01*
X138129971Y-57088657D01*
X138165685Y-57124371D01*
X138237114Y-57160085D01*
X138451400Y-57160085D01*
X138522828Y-57124371D01*
X138558542Y-57088657D01*
X137379971Y-57160085D02*
X137808542Y-57160085D01*
X137594257Y-57160085D02*
X137594257Y-56410085D01*
X137665685Y-56517228D01*
X137737114Y-56588657D01*
X137808542Y-56624371D01*
X142417342Y-55938485D02*
X142667342Y-55581342D01*
X142845914Y-55938485D02*
X142845914Y-55188485D01*
X142560200Y-55188485D01*
X142488771Y-55224200D01*
X142453057Y-55259914D01*
X142417342Y-55331342D01*
X142417342Y-55438485D01*
X142453057Y-55509914D01*
X142488771Y-55545628D01*
X142560200Y-55581342D01*
X142845914Y-55581342D01*
X142167342Y-55188485D02*
X141703057Y-55188485D01*
X141953057Y-55474200D01*
X141845914Y-55474200D01*
X141774485Y-55509914D01*
X141738771Y-55545628D01*
X141703057Y-55617057D01*
X141703057Y-55795628D01*
X141738771Y-55867057D01*
X141774485Y-55902771D01*
X141845914Y-55938485D01*
X142060200Y-55938485D01*
X142131628Y-55902771D01*
X142167342Y-55867057D01*
X141238771Y-55188485D02*
X141167342Y-55188485D01*
X141095914Y-55224200D01*
X141060200Y-55259914D01*
X141024485Y-55331342D01*
X140988771Y-55474200D01*
X140988771Y-55652771D01*
X141024485Y-55795628D01*
X141060200Y-55867057D01*
X141095914Y-55902771D01*
X141167342Y-55938485D01*
X141238771Y-55938485D01*
X141310200Y-55902771D01*
X141345914Y-55867057D01*
X141381628Y-55795628D01*
X141417342Y-55652771D01*
X141417342Y-55474200D01*
X141381628Y-55331342D01*
X141345914Y-55259914D01*
X141310200Y-55224200D01*
X141238771Y-55188485D01*
X144255742Y-54678485D02*
X144505742Y-54321342D01*
X144684314Y-54678485D02*
X144684314Y-53928485D01*
X144398600Y-53928485D01*
X144327171Y-53964200D01*
X144291457Y-53999914D01*
X144255742Y-54071342D01*
X144255742Y-54178485D01*
X144291457Y-54249914D01*
X144327171Y-54285628D01*
X144398600Y-54321342D01*
X144684314Y-54321342D01*
X143970028Y-53999914D02*
X143934314Y-53964200D01*
X143862885Y-53928485D01*
X143684314Y-53928485D01*
X143612885Y-53964200D01*
X143577171Y-53999914D01*
X143541457Y-54071342D01*
X143541457Y-54142771D01*
X143577171Y-54249914D01*
X144005742Y-54678485D01*
X143541457Y-54678485D01*
X143184314Y-54678485D02*
X143041457Y-54678485D01*
X142970028Y-54642771D01*
X142934314Y-54607057D01*
X142862885Y-54499914D01*
X142827171Y-54357057D01*
X142827171Y-54071342D01*
X142862885Y-53999914D01*
X142898600Y-53964200D01*
X142970028Y-53928485D01*
X143112885Y-53928485D01*
X143184314Y-53964200D01*
X143220028Y-53999914D01*
X143255742Y-54071342D01*
X143255742Y-54249914D01*
X143220028Y-54321342D01*
X143184314Y-54357057D01*
X143112885Y-54392771D01*
X142970028Y-54392771D01*
X142898600Y-54357057D01*
X142862885Y-54321342D01*
X142827171Y-54249914D01*
X135162485Y-39243457D02*
X134805342Y-38993457D01*
X135162485Y-38814885D02*
X134412485Y-38814885D01*
X134412485Y-39100600D01*
X134448200Y-39172028D01*
X134483914Y-39207742D01*
X134555342Y-39243457D01*
X134662485Y-39243457D01*
X134733914Y-39207742D01*
X134769628Y-39172028D01*
X134805342Y-39100600D01*
X134805342Y-38814885D01*
X135162485Y-39957742D02*
X135162485Y-39529171D01*
X135162485Y-39743457D02*
X134412485Y-39743457D01*
X134519628Y-39672028D01*
X134591057Y-39600600D01*
X134626771Y-39529171D01*
X134412485Y-40636314D02*
X134412485Y-40279171D01*
X134769628Y-40243457D01*
X134733914Y-40279171D01*
X134698200Y-40350600D01*
X134698200Y-40529171D01*
X134733914Y-40600600D01*
X134769628Y-40636314D01*
X134841057Y-40672028D01*
X135019628Y-40672028D01*
X135091057Y-40636314D01*
X135126771Y-40600600D01*
X135162485Y-40529171D01*
X135162485Y-40350600D01*
X135126771Y-40279171D01*
X135091057Y-40243457D01*
X131962085Y-39243457D02*
X131604942Y-38993457D01*
X131962085Y-38814885D02*
X131212085Y-38814885D01*
X131212085Y-39100600D01*
X131247800Y-39172028D01*
X131283514Y-39207742D01*
X131354942Y-39243457D01*
X131462085Y-39243457D01*
X131533514Y-39207742D01*
X131569228Y-39172028D01*
X131604942Y-39100600D01*
X131604942Y-38814885D01*
X131962085Y-39957742D02*
X131962085Y-39529171D01*
X131962085Y-39743457D02*
X131212085Y-39743457D01*
X131319228Y-39672028D01*
X131390657Y-39600600D01*
X131426371Y-39529171D01*
X131212085Y-40207742D02*
X131212085Y-40672028D01*
X131497800Y-40422028D01*
X131497800Y-40529171D01*
X131533514Y-40600600D01*
X131569228Y-40636314D01*
X131640657Y-40672028D01*
X131819228Y-40672028D01*
X131890657Y-40636314D01*
X131926371Y-40600600D01*
X131962085Y-40529171D01*
X131962085Y-40314885D01*
X131926371Y-40243457D01*
X131890657Y-40207742D01*
X130629285Y-111432857D02*
X130272142Y-111182857D01*
X130629285Y-111004285D02*
X129879285Y-111004285D01*
X129879285Y-111290000D01*
X129915000Y-111361428D01*
X129950714Y-111397142D01*
X130022142Y-111432857D01*
X130129285Y-111432857D01*
X130200714Y-111397142D01*
X130236428Y-111361428D01*
X130272142Y-111290000D01*
X130272142Y-111004285D01*
X130629285Y-111790000D02*
X130629285Y-111932857D01*
X130593571Y-112004285D01*
X130557857Y-112040000D01*
X130450714Y-112111428D01*
X130307857Y-112147142D01*
X130022142Y-112147142D01*
X129950714Y-112111428D01*
X129915000Y-112075714D01*
X129879285Y-112004285D01*
X129879285Y-111861428D01*
X129915000Y-111790000D01*
X129950714Y-111754285D01*
X130022142Y-111718571D01*
X130200714Y-111718571D01*
X130272142Y-111754285D01*
X130307857Y-111790000D01*
X130343571Y-111861428D01*
X130343571Y-112004285D01*
X130307857Y-112075714D01*
X130272142Y-112111428D01*
X130200714Y-112147142D01*
X129879285Y-112611428D02*
X129879285Y-112682857D01*
X129915000Y-112754285D01*
X129950714Y-112790000D01*
X130022142Y-112825714D01*
X130165000Y-112861428D01*
X130343571Y-112861428D01*
X130486428Y-112825714D01*
X130557857Y-112790000D01*
X130593571Y-112754285D01*
X130629285Y-112682857D01*
X130629285Y-112611428D01*
X130593571Y-112540000D01*
X130557857Y-112504285D01*
X130486428Y-112468571D01*
X130343571Y-112432857D01*
X130165000Y-112432857D01*
X130022142Y-112468571D01*
X129950714Y-112504285D01*
X129915000Y-112540000D01*
X129879285Y-112611428D01*
X131739285Y-111437857D02*
X131382142Y-111187857D01*
X131739285Y-111009285D02*
X130989285Y-111009285D01*
X130989285Y-111295000D01*
X131025000Y-111366428D01*
X131060714Y-111402142D01*
X131132142Y-111437857D01*
X131239285Y-111437857D01*
X131310714Y-111402142D01*
X131346428Y-111366428D01*
X131382142Y-111295000D01*
X131382142Y-111009285D01*
X131739285Y-111795000D02*
X131739285Y-111937857D01*
X131703571Y-112009285D01*
X131667857Y-112045000D01*
X131560714Y-112116428D01*
X131417857Y-112152142D01*
X131132142Y-112152142D01*
X131060714Y-112116428D01*
X131025000Y-112080714D01*
X130989285Y-112009285D01*
X130989285Y-111866428D01*
X131025000Y-111795000D01*
X131060714Y-111759285D01*
X131132142Y-111723571D01*
X131310714Y-111723571D01*
X131382142Y-111759285D01*
X131417857Y-111795000D01*
X131453571Y-111866428D01*
X131453571Y-112009285D01*
X131417857Y-112080714D01*
X131382142Y-112116428D01*
X131310714Y-112152142D01*
X131739285Y-112866428D02*
X131739285Y-112437857D01*
X131739285Y-112652142D02*
X130989285Y-112652142D01*
X131096428Y-112580714D01*
X131167857Y-112509285D01*
X131203571Y-112437857D01*
X129509285Y-111507857D02*
X129152142Y-111257857D01*
X129509285Y-111079285D02*
X128759285Y-111079285D01*
X128759285Y-111365000D01*
X128795000Y-111436428D01*
X128830714Y-111472142D01*
X128902142Y-111507857D01*
X129009285Y-111507857D01*
X129080714Y-111472142D01*
X129116428Y-111436428D01*
X129152142Y-111365000D01*
X129152142Y-111079285D01*
X129080714Y-111936428D02*
X129045000Y-111865000D01*
X129009285Y-111829285D01*
X128937857Y-111793571D01*
X128902142Y-111793571D01*
X128830714Y-111829285D01*
X128795000Y-111865000D01*
X128759285Y-111936428D01*
X128759285Y-112079285D01*
X128795000Y-112150714D01*
X128830714Y-112186428D01*
X128902142Y-112222142D01*
X128937857Y-112222142D01*
X129009285Y-112186428D01*
X129045000Y-112150714D01*
X129080714Y-112079285D01*
X129080714Y-111936428D01*
X129116428Y-111865000D01*
X129152142Y-111829285D01*
X129223571Y-111793571D01*
X129366428Y-111793571D01*
X129437857Y-111829285D01*
X129473571Y-111865000D01*
X129509285Y-111936428D01*
X129509285Y-112079285D01*
X129473571Y-112150714D01*
X129437857Y-112186428D01*
X129366428Y-112222142D01*
X129223571Y-112222142D01*
X129152142Y-112186428D01*
X129116428Y-112150714D01*
X129080714Y-112079285D01*
X129509285Y-112579285D02*
X129509285Y-112722142D01*
X129473571Y-112793571D01*
X129437857Y-112829285D01*
X129330714Y-112900714D01*
X129187857Y-112936428D01*
X128902142Y-112936428D01*
X128830714Y-112900714D01*
X128795000Y-112865000D01*
X128759285Y-112793571D01*
X128759285Y-112650714D01*
X128795000Y-112579285D01*
X128830714Y-112543571D01*
X128902142Y-112507857D01*
X129080714Y-112507857D01*
X129152142Y-112543571D01*
X129187857Y-112579285D01*
X129223571Y-112650714D01*
X129223571Y-112793571D01*
X129187857Y-112865000D01*
X129152142Y-112900714D01*
X129080714Y-112936428D01*
X132829285Y-111457857D02*
X132472142Y-111207857D01*
X132829285Y-111029285D02*
X132079285Y-111029285D01*
X132079285Y-111315000D01*
X132115000Y-111386428D01*
X132150714Y-111422142D01*
X132222142Y-111457857D01*
X132329285Y-111457857D01*
X132400714Y-111422142D01*
X132436428Y-111386428D01*
X132472142Y-111315000D01*
X132472142Y-111029285D01*
X132829285Y-111815000D02*
X132829285Y-111957857D01*
X132793571Y-112029285D01*
X132757857Y-112065000D01*
X132650714Y-112136428D01*
X132507857Y-112172142D01*
X132222142Y-112172142D01*
X132150714Y-112136428D01*
X132115000Y-112100714D01*
X132079285Y-112029285D01*
X132079285Y-111886428D01*
X132115000Y-111815000D01*
X132150714Y-111779285D01*
X132222142Y-111743571D01*
X132400714Y-111743571D01*
X132472142Y-111779285D01*
X132507857Y-111815000D01*
X132543571Y-111886428D01*
X132543571Y-112029285D01*
X132507857Y-112100714D01*
X132472142Y-112136428D01*
X132400714Y-112172142D01*
X132150714Y-112457857D02*
X132115000Y-112493571D01*
X132079285Y-112565000D01*
X132079285Y-112743571D01*
X132115000Y-112815000D01*
X132150714Y-112850714D01*
X132222142Y-112886428D01*
X132293571Y-112886428D01*
X132400714Y-112850714D01*
X132829285Y-112422142D01*
X132829285Y-112886428D01*
X133905485Y-111428457D02*
X133548342Y-111178457D01*
X133905485Y-110999885D02*
X133155485Y-110999885D01*
X133155485Y-111285600D01*
X133191200Y-111357028D01*
X133226914Y-111392742D01*
X133298342Y-111428457D01*
X133405485Y-111428457D01*
X133476914Y-111392742D01*
X133512628Y-111357028D01*
X133548342Y-111285600D01*
X133548342Y-110999885D01*
X133905485Y-111785600D02*
X133905485Y-111928457D01*
X133869771Y-111999885D01*
X133834057Y-112035600D01*
X133726914Y-112107028D01*
X133584057Y-112142742D01*
X133298342Y-112142742D01*
X133226914Y-112107028D01*
X133191200Y-112071314D01*
X133155485Y-111999885D01*
X133155485Y-111857028D01*
X133191200Y-111785600D01*
X133226914Y-111749885D01*
X133298342Y-111714171D01*
X133476914Y-111714171D01*
X133548342Y-111749885D01*
X133584057Y-111785600D01*
X133619771Y-111857028D01*
X133619771Y-111999885D01*
X133584057Y-112071314D01*
X133548342Y-112107028D01*
X133476914Y-112142742D01*
X133155485Y-112392742D02*
X133155485Y-112857028D01*
X133441200Y-112607028D01*
X133441200Y-112714171D01*
X133476914Y-112785600D01*
X133512628Y-112821314D01*
X133584057Y-112857028D01*
X133762628Y-112857028D01*
X133834057Y-112821314D01*
X133869771Y-112785600D01*
X133905485Y-112714171D01*
X133905485Y-112499885D01*
X133869771Y-112428457D01*
X133834057Y-112392742D01*
X136175485Y-111307457D02*
X135818342Y-111057457D01*
X136175485Y-110878885D02*
X135425485Y-110878885D01*
X135425485Y-111164600D01*
X135461200Y-111236028D01*
X135496914Y-111271742D01*
X135568342Y-111307457D01*
X135675485Y-111307457D01*
X135746914Y-111271742D01*
X135782628Y-111236028D01*
X135818342Y-111164600D01*
X135818342Y-110878885D01*
X136175485Y-111664600D02*
X136175485Y-111807457D01*
X136139771Y-111878885D01*
X136104057Y-111914600D01*
X135996914Y-111986028D01*
X135854057Y-112021742D01*
X135568342Y-112021742D01*
X135496914Y-111986028D01*
X135461200Y-111950314D01*
X135425485Y-111878885D01*
X135425485Y-111736028D01*
X135461200Y-111664600D01*
X135496914Y-111628885D01*
X135568342Y-111593171D01*
X135746914Y-111593171D01*
X135818342Y-111628885D01*
X135854057Y-111664600D01*
X135889771Y-111736028D01*
X135889771Y-111878885D01*
X135854057Y-111950314D01*
X135818342Y-111986028D01*
X135746914Y-112021742D01*
X135425485Y-112700314D02*
X135425485Y-112343171D01*
X135782628Y-112307457D01*
X135746914Y-112343171D01*
X135711200Y-112414600D01*
X135711200Y-112593171D01*
X135746914Y-112664600D01*
X135782628Y-112700314D01*
X135854057Y-112736028D01*
X136032628Y-112736028D01*
X136104057Y-112700314D01*
X136139771Y-112664600D01*
X136175485Y-112593171D01*
X136175485Y-112414600D01*
X136139771Y-112343171D01*
X136104057Y-112307457D01*
X137445485Y-111284457D02*
X137088342Y-111034457D01*
X137445485Y-110855885D02*
X136695485Y-110855885D01*
X136695485Y-111141600D01*
X136731200Y-111213028D01*
X136766914Y-111248742D01*
X136838342Y-111284457D01*
X136945485Y-111284457D01*
X137016914Y-111248742D01*
X137052628Y-111213028D01*
X137088342Y-111141600D01*
X137088342Y-110855885D01*
X137445485Y-111641600D02*
X137445485Y-111784457D01*
X137409771Y-111855885D01*
X137374057Y-111891600D01*
X137266914Y-111963028D01*
X137124057Y-111998742D01*
X136838342Y-111998742D01*
X136766914Y-111963028D01*
X136731200Y-111927314D01*
X136695485Y-111855885D01*
X136695485Y-111713028D01*
X136731200Y-111641600D01*
X136766914Y-111605885D01*
X136838342Y-111570171D01*
X137016914Y-111570171D01*
X137088342Y-111605885D01*
X137124057Y-111641600D01*
X137159771Y-111713028D01*
X137159771Y-111855885D01*
X137124057Y-111927314D01*
X137088342Y-111963028D01*
X137016914Y-111998742D01*
X136695485Y-112641600D02*
X136695485Y-112498742D01*
X136731200Y-112427314D01*
X136766914Y-112391600D01*
X136874057Y-112320171D01*
X137016914Y-112284457D01*
X137302628Y-112284457D01*
X137374057Y-112320171D01*
X137409771Y-112355885D01*
X137445485Y-112427314D01*
X137445485Y-112570171D01*
X137409771Y-112641600D01*
X137374057Y-112677314D01*
X137302628Y-112713028D01*
X137124057Y-112713028D01*
X137052628Y-112677314D01*
X137016914Y-112641600D01*
X136981200Y-112570171D01*
X136981200Y-112427314D01*
X137016914Y-112355885D01*
X137052628Y-112320171D01*
X137124057Y-112284457D01*
X138715485Y-111284457D02*
X138358342Y-111034457D01*
X138715485Y-110855885D02*
X137965485Y-110855885D01*
X137965485Y-111141600D01*
X138001200Y-111213028D01*
X138036914Y-111248742D01*
X138108342Y-111284457D01*
X138215485Y-111284457D01*
X138286914Y-111248742D01*
X138322628Y-111213028D01*
X138358342Y-111141600D01*
X138358342Y-110855885D01*
X138715485Y-111641600D02*
X138715485Y-111784457D01*
X138679771Y-111855885D01*
X138644057Y-111891600D01*
X138536914Y-111963028D01*
X138394057Y-111998742D01*
X138108342Y-111998742D01*
X138036914Y-111963028D01*
X138001200Y-111927314D01*
X137965485Y-111855885D01*
X137965485Y-111713028D01*
X138001200Y-111641600D01*
X138036914Y-111605885D01*
X138108342Y-111570171D01*
X138286914Y-111570171D01*
X138358342Y-111605885D01*
X138394057Y-111641600D01*
X138429771Y-111713028D01*
X138429771Y-111855885D01*
X138394057Y-111927314D01*
X138358342Y-111963028D01*
X138286914Y-111998742D01*
X137965485Y-112248742D02*
X137965485Y-112748742D01*
X138715485Y-112427314D01*
X139985485Y-111284457D02*
X139628342Y-111034457D01*
X139985485Y-110855885D02*
X139235485Y-110855885D01*
X139235485Y-111141600D01*
X139271200Y-111213028D01*
X139306914Y-111248742D01*
X139378342Y-111284457D01*
X139485485Y-111284457D01*
X139556914Y-111248742D01*
X139592628Y-111213028D01*
X139628342Y-111141600D01*
X139628342Y-110855885D01*
X139985485Y-111641600D02*
X139985485Y-111784457D01*
X139949771Y-111855885D01*
X139914057Y-111891600D01*
X139806914Y-111963028D01*
X139664057Y-111998742D01*
X139378342Y-111998742D01*
X139306914Y-111963028D01*
X139271200Y-111927314D01*
X139235485Y-111855885D01*
X139235485Y-111713028D01*
X139271200Y-111641600D01*
X139306914Y-111605885D01*
X139378342Y-111570171D01*
X139556914Y-111570171D01*
X139628342Y-111605885D01*
X139664057Y-111641600D01*
X139699771Y-111713028D01*
X139699771Y-111855885D01*
X139664057Y-111927314D01*
X139628342Y-111963028D01*
X139556914Y-111998742D01*
X139556914Y-112427314D02*
X139521200Y-112355885D01*
X139485485Y-112320171D01*
X139414057Y-112284457D01*
X139378342Y-112284457D01*
X139306914Y-112320171D01*
X139271200Y-112355885D01*
X139235485Y-112427314D01*
X139235485Y-112570171D01*
X139271200Y-112641600D01*
X139306914Y-112677314D01*
X139378342Y-112713028D01*
X139414057Y-112713028D01*
X139485485Y-112677314D01*
X139521200Y-112641600D01*
X139556914Y-112570171D01*
X139556914Y-112427314D01*
X139592628Y-112355885D01*
X139628342Y-112320171D01*
X139699771Y-112284457D01*
X139842628Y-112284457D01*
X139914057Y-112320171D01*
X139949771Y-112355885D01*
X139985485Y-112427314D01*
X139985485Y-112570171D01*
X139949771Y-112641600D01*
X139914057Y-112677314D01*
X139842628Y-112713028D01*
X139699771Y-112713028D01*
X139628342Y-112677314D01*
X139592628Y-112641600D01*
X139556914Y-112570171D01*
X141110285Y-111320257D02*
X140753142Y-111070257D01*
X141110285Y-110891685D02*
X140360285Y-110891685D01*
X140360285Y-111177400D01*
X140396000Y-111248828D01*
X140431714Y-111284542D01*
X140503142Y-111320257D01*
X140610285Y-111320257D01*
X140681714Y-111284542D01*
X140717428Y-111248828D01*
X140753142Y-111177400D01*
X140753142Y-110891685D01*
X141110285Y-111677400D02*
X141110285Y-111820257D01*
X141074571Y-111891685D01*
X141038857Y-111927400D01*
X140931714Y-111998828D01*
X140788857Y-112034542D01*
X140503142Y-112034542D01*
X140431714Y-111998828D01*
X140396000Y-111963114D01*
X140360285Y-111891685D01*
X140360285Y-111748828D01*
X140396000Y-111677400D01*
X140431714Y-111641685D01*
X140503142Y-111605971D01*
X140681714Y-111605971D01*
X140753142Y-111641685D01*
X140788857Y-111677400D01*
X140824571Y-111748828D01*
X140824571Y-111891685D01*
X140788857Y-111963114D01*
X140753142Y-111998828D01*
X140681714Y-112034542D01*
X141110285Y-112391685D02*
X141110285Y-112534542D01*
X141074571Y-112605971D01*
X141038857Y-112641685D01*
X140931714Y-112713114D01*
X140788857Y-112748828D01*
X140503142Y-112748828D01*
X140431714Y-112713114D01*
X140396000Y-112677400D01*
X140360285Y-112605971D01*
X140360285Y-112463114D01*
X140396000Y-112391685D01*
X140431714Y-112355971D01*
X140503142Y-112320257D01*
X140681714Y-112320257D01*
X140753142Y-112355971D01*
X140788857Y-112391685D01*
X140824571Y-112463114D01*
X140824571Y-112605971D01*
X140788857Y-112677400D01*
X140753142Y-112713114D01*
X140681714Y-112748828D01*
X142253285Y-110914714D02*
X141896142Y-110664714D01*
X142253285Y-110486142D02*
X141503285Y-110486142D01*
X141503285Y-110771857D01*
X141539000Y-110843285D01*
X141574714Y-110879000D01*
X141646142Y-110914714D01*
X141753285Y-110914714D01*
X141824714Y-110879000D01*
X141860428Y-110843285D01*
X141896142Y-110771857D01*
X141896142Y-110486142D01*
X142253285Y-111629000D02*
X142253285Y-111200428D01*
X142253285Y-111414714D02*
X141503285Y-111414714D01*
X141610428Y-111343285D01*
X141681857Y-111271857D01*
X141717571Y-111200428D01*
X141503285Y-112093285D02*
X141503285Y-112164714D01*
X141539000Y-112236142D01*
X141574714Y-112271857D01*
X141646142Y-112307571D01*
X141789000Y-112343285D01*
X141967571Y-112343285D01*
X142110428Y-112307571D01*
X142181857Y-112271857D01*
X142217571Y-112236142D01*
X142253285Y-112164714D01*
X142253285Y-112093285D01*
X142217571Y-112021857D01*
X142181857Y-111986142D01*
X142110428Y-111950428D01*
X141967571Y-111914714D01*
X141789000Y-111914714D01*
X141646142Y-111950428D01*
X141574714Y-111986142D01*
X141539000Y-112021857D01*
X141503285Y-112093285D01*
X141503285Y-112807571D02*
X141503285Y-112879000D01*
X141539000Y-112950428D01*
X141574714Y-112986142D01*
X141646142Y-113021857D01*
X141789000Y-113057571D01*
X141967571Y-113057571D01*
X142110428Y-113021857D01*
X142181857Y-112986142D01*
X142217571Y-112950428D01*
X142253285Y-112879000D01*
X142253285Y-112807571D01*
X142217571Y-112736142D01*
X142181857Y-112700428D01*
X142110428Y-112664714D01*
X141967571Y-112629000D01*
X141789000Y-112629000D01*
X141646142Y-112664714D01*
X141574714Y-112700428D01*
X141539000Y-112736142D01*
X141503285Y-112807571D01*
X143535485Y-110990314D02*
X143178342Y-110740314D01*
X143535485Y-110561742D02*
X142785485Y-110561742D01*
X142785485Y-110847457D01*
X142821200Y-110918885D01*
X142856914Y-110954600D01*
X142928342Y-110990314D01*
X143035485Y-110990314D01*
X143106914Y-110954600D01*
X143142628Y-110918885D01*
X143178342Y-110847457D01*
X143178342Y-110561742D01*
X143535485Y-111704600D02*
X143535485Y-111276028D01*
X143535485Y-111490314D02*
X142785485Y-111490314D01*
X142892628Y-111418885D01*
X142964057Y-111347457D01*
X142999771Y-111276028D01*
X142785485Y-112168885D02*
X142785485Y-112240314D01*
X142821200Y-112311742D01*
X142856914Y-112347457D01*
X142928342Y-112383171D01*
X143071200Y-112418885D01*
X143249771Y-112418885D01*
X143392628Y-112383171D01*
X143464057Y-112347457D01*
X143499771Y-112311742D01*
X143535485Y-112240314D01*
X143535485Y-112168885D01*
X143499771Y-112097457D01*
X143464057Y-112061742D01*
X143392628Y-112026028D01*
X143249771Y-111990314D01*
X143071200Y-111990314D01*
X142928342Y-112026028D01*
X142856914Y-112061742D01*
X142821200Y-112097457D01*
X142785485Y-112168885D01*
X143535485Y-113133171D02*
X143535485Y-112704600D01*
X143535485Y-112918885D02*
X142785485Y-112918885D01*
X142892628Y-112847457D01*
X142964057Y-112776028D01*
X142999771Y-112704600D01*
X64550485Y-29135800D02*
X64193342Y-28885800D01*
X64550485Y-28707228D02*
X63800485Y-28707228D01*
X63800485Y-28992942D01*
X63836200Y-29064371D01*
X63871914Y-29100085D01*
X63943342Y-29135800D01*
X64050485Y-29135800D01*
X64121914Y-29100085D01*
X64157628Y-29064371D01*
X64193342Y-28992942D01*
X64193342Y-28707228D01*
X63800485Y-29814371D02*
X63800485Y-29457228D01*
X64157628Y-29421514D01*
X64121914Y-29457228D01*
X64086200Y-29528657D01*
X64086200Y-29707228D01*
X64121914Y-29778657D01*
X64157628Y-29814371D01*
X64229057Y-29850085D01*
X64407628Y-29850085D01*
X64479057Y-29814371D01*
X64514771Y-29778657D01*
X64550485Y-29707228D01*
X64550485Y-29528657D01*
X64514771Y-29457228D01*
X64479057Y-29421514D01*
X56201114Y-32332200D02*
X56558257Y-32582200D01*
X56201114Y-32760771D02*
X56951114Y-32760771D01*
X56951114Y-32475057D01*
X56915400Y-32403628D01*
X56879685Y-32367914D01*
X56808257Y-32332200D01*
X56701114Y-32332200D01*
X56629685Y-32367914D01*
X56593971Y-32403628D01*
X56558257Y-32475057D01*
X56558257Y-32760771D01*
X56629685Y-31903628D02*
X56665400Y-31975057D01*
X56701114Y-32010771D01*
X56772542Y-32046485D01*
X56808257Y-32046485D01*
X56879685Y-32010771D01*
X56915400Y-31975057D01*
X56951114Y-31903628D01*
X56951114Y-31760771D01*
X56915400Y-31689342D01*
X56879685Y-31653628D01*
X56808257Y-31617914D01*
X56772542Y-31617914D01*
X56701114Y-31653628D01*
X56665400Y-31689342D01*
X56629685Y-31760771D01*
X56629685Y-31903628D01*
X56593971Y-31975057D01*
X56558257Y-32010771D01*
X56486828Y-32046485D01*
X56343971Y-32046485D01*
X56272542Y-32010771D01*
X56236828Y-31975057D01*
X56201114Y-31903628D01*
X56201114Y-31760771D01*
X56236828Y-31689342D01*
X56272542Y-31653628D01*
X56343971Y-31617914D01*
X56486828Y-31617914D01*
X56558257Y-31653628D01*
X56593971Y-31689342D01*
X56629685Y-31760771D01*
X58403685Y-34874657D02*
X58046542Y-34624657D01*
X58403685Y-34446085D02*
X57653685Y-34446085D01*
X57653685Y-34731800D01*
X57689400Y-34803228D01*
X57725114Y-34838942D01*
X57796542Y-34874657D01*
X57903685Y-34874657D01*
X57975114Y-34838942D01*
X58010828Y-34803228D01*
X58046542Y-34731800D01*
X58046542Y-34446085D01*
X58403685Y-35588942D02*
X58403685Y-35160371D01*
X58403685Y-35374657D02*
X57653685Y-35374657D01*
X57760828Y-35303228D01*
X57832257Y-35231800D01*
X57867971Y-35160371D01*
X57653685Y-36053228D02*
X57653685Y-36124657D01*
X57689400Y-36196085D01*
X57725114Y-36231800D01*
X57796542Y-36267514D01*
X57939400Y-36303228D01*
X58117971Y-36303228D01*
X58260828Y-36267514D01*
X58332257Y-36231800D01*
X58367971Y-36196085D01*
X58403685Y-36124657D01*
X58403685Y-36053228D01*
X58367971Y-35981800D01*
X58332257Y-35946085D01*
X58260828Y-35910371D01*
X58117971Y-35874657D01*
X57939400Y-35874657D01*
X57796542Y-35910371D01*
X57725114Y-35946085D01*
X57689400Y-35981800D01*
X57653685Y-36053228D01*
X76742485Y-17782000D02*
X76385342Y-17532000D01*
X76742485Y-17353428D02*
X75992485Y-17353428D01*
X75992485Y-17639142D01*
X76028200Y-17710571D01*
X76063914Y-17746285D01*
X76135342Y-17782000D01*
X76242485Y-17782000D01*
X76313914Y-17746285D01*
X76349628Y-17710571D01*
X76385342Y-17639142D01*
X76385342Y-17353428D01*
X76742485Y-18496285D02*
X76742485Y-18067714D01*
X76742485Y-18282000D02*
X75992485Y-18282000D01*
X76099628Y-18210571D01*
X76171057Y-18139142D01*
X76206771Y-18067714D01*
X81416085Y-18340800D02*
X81058942Y-18090800D01*
X81416085Y-17912228D02*
X80666085Y-17912228D01*
X80666085Y-18197942D01*
X80701800Y-18269371D01*
X80737514Y-18305085D01*
X80808942Y-18340800D01*
X80916085Y-18340800D01*
X80987514Y-18305085D01*
X81023228Y-18269371D01*
X81058942Y-18197942D01*
X81058942Y-17912228D01*
X80737514Y-18626514D02*
X80701800Y-18662228D01*
X80666085Y-18733657D01*
X80666085Y-18912228D01*
X80701800Y-18983657D01*
X80737514Y-19019371D01*
X80808942Y-19055085D01*
X80880371Y-19055085D01*
X80987514Y-19019371D01*
X81416085Y-18590800D01*
X81416085Y-19055085D01*
X85690514Y-18133600D02*
X86047657Y-18383600D01*
X85690514Y-18562171D02*
X86440514Y-18562171D01*
X86440514Y-18276457D01*
X86404800Y-18205028D01*
X86369085Y-18169314D01*
X86297657Y-18133600D01*
X86190514Y-18133600D01*
X86119085Y-18169314D01*
X86083371Y-18205028D01*
X86047657Y-18276457D01*
X86047657Y-18562171D01*
X86440514Y-17883600D02*
X86440514Y-17419314D01*
X86154800Y-17669314D01*
X86154800Y-17562171D01*
X86119085Y-17490742D01*
X86083371Y-17455028D01*
X86011942Y-17419314D01*
X85833371Y-17419314D01*
X85761942Y-17455028D01*
X85726228Y-17490742D01*
X85690514Y-17562171D01*
X85690514Y-17776457D01*
X85726228Y-17847885D01*
X85761942Y-17883600D01*
X59968942Y-76031285D02*
X60218942Y-75674142D01*
X60397514Y-76031285D02*
X60397514Y-75281285D01*
X60111800Y-75281285D01*
X60040371Y-75317000D01*
X60004657Y-75352714D01*
X59968942Y-75424142D01*
X59968942Y-75531285D01*
X60004657Y-75602714D01*
X60040371Y-75638428D01*
X60111800Y-75674142D01*
X60397514Y-75674142D01*
X59326085Y-75531285D02*
X59326085Y-76031285D01*
X59504657Y-75245571D02*
X59683228Y-75781285D01*
X59218942Y-75781285D01*
X58611800Y-75281285D02*
X58754657Y-75281285D01*
X58826085Y-75317000D01*
X58861800Y-75352714D01*
X58933228Y-75459857D01*
X58968942Y-75602714D01*
X58968942Y-75888428D01*
X58933228Y-75959857D01*
X58897514Y-75995571D01*
X58826085Y-76031285D01*
X58683228Y-76031285D01*
X58611800Y-75995571D01*
X58576085Y-75959857D01*
X58540371Y-75888428D01*
X58540371Y-75709857D01*
X58576085Y-75638428D01*
X58611800Y-75602714D01*
X58683228Y-75567000D01*
X58826085Y-75567000D01*
X58897514Y-75602714D01*
X58933228Y-75638428D01*
X58968942Y-75709857D01*
X58970142Y-99969285D02*
X59220142Y-99612142D01*
X59398714Y-99969285D02*
X59398714Y-99219285D01*
X59113000Y-99219285D01*
X59041571Y-99255000D01*
X59005857Y-99290714D01*
X58970142Y-99362142D01*
X58970142Y-99469285D01*
X59005857Y-99540714D01*
X59041571Y-99576428D01*
X59113000Y-99612142D01*
X59398714Y-99612142D01*
X58541571Y-99540714D02*
X58613000Y-99505000D01*
X58648714Y-99469285D01*
X58684428Y-99397857D01*
X58684428Y-99362142D01*
X58648714Y-99290714D01*
X58613000Y-99255000D01*
X58541571Y-99219285D01*
X58398714Y-99219285D01*
X58327285Y-99255000D01*
X58291571Y-99290714D01*
X58255857Y-99362142D01*
X58255857Y-99397857D01*
X58291571Y-99469285D01*
X58327285Y-99505000D01*
X58398714Y-99540714D01*
X58541571Y-99540714D01*
X58613000Y-99576428D01*
X58648714Y-99612142D01*
X58684428Y-99683571D01*
X58684428Y-99826428D01*
X58648714Y-99897857D01*
X58613000Y-99933571D01*
X58541571Y-99969285D01*
X58398714Y-99969285D01*
X58327285Y-99933571D01*
X58291571Y-99897857D01*
X58255857Y-99826428D01*
X58255857Y-99683571D01*
X58291571Y-99612142D01*
X58327285Y-99576428D01*
X58398714Y-99540714D01*
X57577285Y-99219285D02*
X57934428Y-99219285D01*
X57970142Y-99576428D01*
X57934428Y-99540714D01*
X57863000Y-99505000D01*
X57684428Y-99505000D01*
X57613000Y-99540714D01*
X57577285Y-99576428D01*
X57541571Y-99647857D01*
X57541571Y-99826428D01*
X57577285Y-99897857D01*
X57613000Y-99933571D01*
X57684428Y-99969285D01*
X57863000Y-99969285D01*
X57934428Y-99933571D01*
X57970142Y-99897857D01*
X61687942Y-99943885D02*
X61937942Y-99586742D01*
X62116514Y-99943885D02*
X62116514Y-99193885D01*
X61830800Y-99193885D01*
X61759371Y-99229600D01*
X61723657Y-99265314D01*
X61687942Y-99336742D01*
X61687942Y-99443885D01*
X61723657Y-99515314D01*
X61759371Y-99551028D01*
X61830800Y-99586742D01*
X62116514Y-99586742D01*
X61259371Y-99515314D02*
X61330800Y-99479600D01*
X61366514Y-99443885D01*
X61402228Y-99372457D01*
X61402228Y-99336742D01*
X61366514Y-99265314D01*
X61330800Y-99229600D01*
X61259371Y-99193885D01*
X61116514Y-99193885D01*
X61045085Y-99229600D01*
X61009371Y-99265314D01*
X60973657Y-99336742D01*
X60973657Y-99372457D01*
X61009371Y-99443885D01*
X61045085Y-99479600D01*
X61116514Y-99515314D01*
X61259371Y-99515314D01*
X61330800Y-99551028D01*
X61366514Y-99586742D01*
X61402228Y-99658171D01*
X61402228Y-99801028D01*
X61366514Y-99872457D01*
X61330800Y-99908171D01*
X61259371Y-99943885D01*
X61116514Y-99943885D01*
X61045085Y-99908171D01*
X61009371Y-99872457D01*
X60973657Y-99801028D01*
X60973657Y-99658171D01*
X61009371Y-99586742D01*
X61045085Y-99551028D01*
X61116514Y-99515314D01*
X60330800Y-99193885D02*
X60473657Y-99193885D01*
X60545085Y-99229600D01*
X60580800Y-99265314D01*
X60652228Y-99372457D01*
X60687942Y-99515314D01*
X60687942Y-99801028D01*
X60652228Y-99872457D01*
X60616514Y-99908171D01*
X60545085Y-99943885D01*
X60402228Y-99943885D01*
X60330800Y-99908171D01*
X60295085Y-99872457D01*
X60259371Y-99801028D01*
X60259371Y-99622457D01*
X60295085Y-99551028D01*
X60330800Y-99515314D01*
X60402228Y-99479600D01*
X60545085Y-99479600D01*
X60616514Y-99515314D01*
X60652228Y-99551028D01*
X60687942Y-99622457D01*
X56453142Y-98851685D02*
X56703142Y-98494542D01*
X56881714Y-98851685D02*
X56881714Y-98101685D01*
X56596000Y-98101685D01*
X56524571Y-98137400D01*
X56488857Y-98173114D01*
X56453142Y-98244542D01*
X56453142Y-98351685D01*
X56488857Y-98423114D01*
X56524571Y-98458828D01*
X56596000Y-98494542D01*
X56881714Y-98494542D01*
X56024571Y-98423114D02*
X56096000Y-98387400D01*
X56131714Y-98351685D01*
X56167428Y-98280257D01*
X56167428Y-98244542D01*
X56131714Y-98173114D01*
X56096000Y-98137400D01*
X56024571Y-98101685D01*
X55881714Y-98101685D01*
X55810285Y-98137400D01*
X55774571Y-98173114D01*
X55738857Y-98244542D01*
X55738857Y-98280257D01*
X55774571Y-98351685D01*
X55810285Y-98387400D01*
X55881714Y-98423114D01*
X56024571Y-98423114D01*
X56096000Y-98458828D01*
X56131714Y-98494542D01*
X56167428Y-98565971D01*
X56167428Y-98708828D01*
X56131714Y-98780257D01*
X56096000Y-98815971D01*
X56024571Y-98851685D01*
X55881714Y-98851685D01*
X55810285Y-98815971D01*
X55774571Y-98780257D01*
X55738857Y-98708828D01*
X55738857Y-98565971D01*
X55774571Y-98494542D01*
X55810285Y-98458828D01*
X55881714Y-98423114D01*
X55274571Y-98101685D02*
X55203142Y-98101685D01*
X55131714Y-98137400D01*
X55096000Y-98173114D01*
X55060285Y-98244542D01*
X55024571Y-98387400D01*
X55024571Y-98565971D01*
X55060285Y-98708828D01*
X55096000Y-98780257D01*
X55131714Y-98815971D01*
X55203142Y-98851685D01*
X55274571Y-98851685D01*
X55346000Y-98815971D01*
X55381714Y-98780257D01*
X55417428Y-98708828D01*
X55453142Y-98565971D01*
X55453142Y-98387400D01*
X55417428Y-98244542D01*
X55381714Y-98173114D01*
X55346000Y-98137400D01*
X55274571Y-98101685D01*
X56381742Y-100147085D02*
X56631742Y-99789942D01*
X56810314Y-100147085D02*
X56810314Y-99397085D01*
X56524600Y-99397085D01*
X56453171Y-99432800D01*
X56417457Y-99468514D01*
X56381742Y-99539942D01*
X56381742Y-99647085D01*
X56417457Y-99718514D01*
X56453171Y-99754228D01*
X56524600Y-99789942D01*
X56810314Y-99789942D01*
X55953171Y-99718514D02*
X56024600Y-99682800D01*
X56060314Y-99647085D01*
X56096028Y-99575657D01*
X56096028Y-99539942D01*
X56060314Y-99468514D01*
X56024600Y-99432800D01*
X55953171Y-99397085D01*
X55810314Y-99397085D01*
X55738885Y-99432800D01*
X55703171Y-99468514D01*
X55667457Y-99539942D01*
X55667457Y-99575657D01*
X55703171Y-99647085D01*
X55738885Y-99682800D01*
X55810314Y-99718514D01*
X55953171Y-99718514D01*
X56024600Y-99754228D01*
X56060314Y-99789942D01*
X56096028Y-99861371D01*
X56096028Y-100004228D01*
X56060314Y-100075657D01*
X56024600Y-100111371D01*
X55953171Y-100147085D01*
X55810314Y-100147085D01*
X55738885Y-100111371D01*
X55703171Y-100075657D01*
X55667457Y-100004228D01*
X55667457Y-99861371D01*
X55703171Y-99789942D01*
X55738885Y-99754228D01*
X55810314Y-99718514D01*
X55024600Y-99647085D02*
X55024600Y-100147085D01*
X55203171Y-99361371D02*
X55381742Y-99897085D01*
X54917457Y-99897085D01*
X53864742Y-100197885D02*
X54114742Y-99840742D01*
X54293314Y-100197885D02*
X54293314Y-99447885D01*
X54007600Y-99447885D01*
X53936171Y-99483600D01*
X53900457Y-99519314D01*
X53864742Y-99590742D01*
X53864742Y-99697885D01*
X53900457Y-99769314D01*
X53936171Y-99805028D01*
X54007600Y-99840742D01*
X54293314Y-99840742D01*
X53436171Y-99769314D02*
X53507600Y-99733600D01*
X53543314Y-99697885D01*
X53579028Y-99626457D01*
X53579028Y-99590742D01*
X53543314Y-99519314D01*
X53507600Y-99483600D01*
X53436171Y-99447885D01*
X53293314Y-99447885D01*
X53221885Y-99483600D01*
X53186171Y-99519314D01*
X53150457Y-99590742D01*
X53150457Y-99626457D01*
X53186171Y-99697885D01*
X53221885Y-99733600D01*
X53293314Y-99769314D01*
X53436171Y-99769314D01*
X53507600Y-99805028D01*
X53543314Y-99840742D01*
X53579028Y-99912171D01*
X53579028Y-100055028D01*
X53543314Y-100126457D01*
X53507600Y-100162171D01*
X53436171Y-100197885D01*
X53293314Y-100197885D01*
X53221885Y-100162171D01*
X53186171Y-100126457D01*
X53150457Y-100055028D01*
X53150457Y-99912171D01*
X53186171Y-99840742D01*
X53221885Y-99805028D01*
X53293314Y-99769314D01*
X52900457Y-99447885D02*
X52436171Y-99447885D01*
X52686171Y-99733600D01*
X52579028Y-99733600D01*
X52507600Y-99769314D01*
X52471885Y-99805028D01*
X52436171Y-99876457D01*
X52436171Y-100055028D01*
X52471885Y-100126457D01*
X52507600Y-100162171D01*
X52579028Y-100197885D01*
X52793314Y-100197885D01*
X52864742Y-100162171D01*
X52900457Y-100126457D01*
X53841742Y-98877085D02*
X54091742Y-98519942D01*
X54270314Y-98877085D02*
X54270314Y-98127085D01*
X53984600Y-98127085D01*
X53913171Y-98162800D01*
X53877457Y-98198514D01*
X53841742Y-98269942D01*
X53841742Y-98377085D01*
X53877457Y-98448514D01*
X53913171Y-98484228D01*
X53984600Y-98519942D01*
X54270314Y-98519942D01*
X53591742Y-98127085D02*
X53091742Y-98127085D01*
X53413171Y-98877085D01*
X52770314Y-98877085D02*
X52627457Y-98877085D01*
X52556028Y-98841371D01*
X52520314Y-98805657D01*
X52448885Y-98698514D01*
X52413171Y-98555657D01*
X52413171Y-98269942D01*
X52448885Y-98198514D01*
X52484600Y-98162800D01*
X52556028Y-98127085D01*
X52698885Y-98127085D01*
X52770314Y-98162800D01*
X52806028Y-98198514D01*
X52841742Y-98269942D01*
X52841742Y-98448514D01*
X52806028Y-98519942D01*
X52770314Y-98555657D01*
X52698885Y-98591371D01*
X52556028Y-98591371D01*
X52484600Y-98555657D01*
X52448885Y-98519942D01*
X52413171Y-98448514D01*
X51278742Y-100124285D02*
X51528742Y-99767142D01*
X51707314Y-100124285D02*
X51707314Y-99374285D01*
X51421600Y-99374285D01*
X51350171Y-99410000D01*
X51314457Y-99445714D01*
X51278742Y-99517142D01*
X51278742Y-99624285D01*
X51314457Y-99695714D01*
X51350171Y-99731428D01*
X51421600Y-99767142D01*
X51707314Y-99767142D01*
X50850171Y-99695714D02*
X50921600Y-99660000D01*
X50957314Y-99624285D01*
X50993028Y-99552857D01*
X50993028Y-99517142D01*
X50957314Y-99445714D01*
X50921600Y-99410000D01*
X50850171Y-99374285D01*
X50707314Y-99374285D01*
X50635885Y-99410000D01*
X50600171Y-99445714D01*
X50564457Y-99517142D01*
X50564457Y-99552857D01*
X50600171Y-99624285D01*
X50635885Y-99660000D01*
X50707314Y-99695714D01*
X50850171Y-99695714D01*
X50921600Y-99731428D01*
X50957314Y-99767142D01*
X50993028Y-99838571D01*
X50993028Y-99981428D01*
X50957314Y-100052857D01*
X50921600Y-100088571D01*
X50850171Y-100124285D01*
X50707314Y-100124285D01*
X50635885Y-100088571D01*
X50600171Y-100052857D01*
X50564457Y-99981428D01*
X50564457Y-99838571D01*
X50600171Y-99767142D01*
X50635885Y-99731428D01*
X50707314Y-99695714D01*
X50278742Y-99445714D02*
X50243028Y-99410000D01*
X50171600Y-99374285D01*
X49993028Y-99374285D01*
X49921600Y-99410000D01*
X49885885Y-99445714D01*
X49850171Y-99517142D01*
X49850171Y-99588571D01*
X49885885Y-99695714D01*
X50314457Y-100124285D01*
X49850171Y-100124285D01*
X48225942Y-99867685D02*
X48475942Y-99510542D01*
X48654514Y-99867685D02*
X48654514Y-99117685D01*
X48368800Y-99117685D01*
X48297371Y-99153400D01*
X48261657Y-99189114D01*
X48225942Y-99260542D01*
X48225942Y-99367685D01*
X48261657Y-99439114D01*
X48297371Y-99474828D01*
X48368800Y-99510542D01*
X48654514Y-99510542D01*
X47797371Y-99439114D02*
X47868800Y-99403400D01*
X47904514Y-99367685D01*
X47940228Y-99296257D01*
X47940228Y-99260542D01*
X47904514Y-99189114D01*
X47868800Y-99153400D01*
X47797371Y-99117685D01*
X47654514Y-99117685D01*
X47583085Y-99153400D01*
X47547371Y-99189114D01*
X47511657Y-99260542D01*
X47511657Y-99296257D01*
X47547371Y-99367685D01*
X47583085Y-99403400D01*
X47654514Y-99439114D01*
X47797371Y-99439114D01*
X47868800Y-99474828D01*
X47904514Y-99510542D01*
X47940228Y-99581971D01*
X47940228Y-99724828D01*
X47904514Y-99796257D01*
X47868800Y-99831971D01*
X47797371Y-99867685D01*
X47654514Y-99867685D01*
X47583085Y-99831971D01*
X47547371Y-99796257D01*
X47511657Y-99724828D01*
X47511657Y-99581971D01*
X47547371Y-99510542D01*
X47583085Y-99474828D01*
X47654514Y-99439114D01*
X46797371Y-99867685D02*
X47225942Y-99867685D01*
X47011657Y-99867685D02*
X47011657Y-99117685D01*
X47083085Y-99224828D01*
X47154514Y-99296257D01*
X47225942Y-99331971D01*
X48251342Y-98750085D02*
X48501342Y-98392942D01*
X48679914Y-98750085D02*
X48679914Y-98000085D01*
X48394200Y-98000085D01*
X48322771Y-98035800D01*
X48287057Y-98071514D01*
X48251342Y-98142942D01*
X48251342Y-98250085D01*
X48287057Y-98321514D01*
X48322771Y-98357228D01*
X48394200Y-98392942D01*
X48679914Y-98392942D01*
X48001342Y-98000085D02*
X47501342Y-98000085D01*
X47822771Y-98750085D01*
X47287057Y-98000085D02*
X46787057Y-98000085D01*
X47108485Y-98750085D01*
X100516885Y-144550314D02*
X100159742Y-144300314D01*
X100516885Y-144121742D02*
X99766885Y-144121742D01*
X99766885Y-144407457D01*
X99802600Y-144478885D01*
X99838314Y-144514600D01*
X99909742Y-144550314D01*
X100016885Y-144550314D01*
X100088314Y-144514600D01*
X100124028Y-144478885D01*
X100159742Y-144407457D01*
X100159742Y-144121742D01*
X100516885Y-145264600D02*
X100516885Y-144836028D01*
X100516885Y-145050314D02*
X99766885Y-145050314D01*
X99874028Y-144978885D01*
X99945457Y-144907457D01*
X99981171Y-144836028D01*
X100016885Y-145907457D02*
X100516885Y-145907457D01*
X99731171Y-145728885D02*
X100266885Y-145550314D01*
X100266885Y-146014600D01*
X99766885Y-146228885D02*
X99766885Y-146693171D01*
X100052600Y-146443171D01*
X100052600Y-146550314D01*
X100088314Y-146621742D01*
X100124028Y-146657457D01*
X100195457Y-146693171D01*
X100374028Y-146693171D01*
X100445457Y-146657457D01*
X100481171Y-146621742D01*
X100516885Y-146550314D01*
X100516885Y-146336028D01*
X100481171Y-146264600D01*
X100445457Y-146228885D01*
X64160800Y-142136228D02*
X64410800Y-142136228D01*
X64410800Y-142529085D02*
X64410800Y-141779085D01*
X64053657Y-141779085D01*
X63517942Y-142136228D02*
X63410800Y-142171942D01*
X63375085Y-142207657D01*
X63339371Y-142279085D01*
X63339371Y-142386228D01*
X63375085Y-142457657D01*
X63410800Y-142493371D01*
X63482228Y-142529085D01*
X63767942Y-142529085D01*
X63767942Y-141779085D01*
X63517942Y-141779085D01*
X63446514Y-141814800D01*
X63410800Y-141850514D01*
X63375085Y-141921942D01*
X63375085Y-141993371D01*
X63410800Y-142064800D01*
X63446514Y-142100514D01*
X63517942Y-142136228D01*
X63767942Y-142136228D01*
X62696514Y-142029085D02*
X62696514Y-142529085D01*
X62875085Y-141743371D02*
X63053657Y-142279085D01*
X62589371Y-142279085D01*
X97881600Y-147622028D02*
X98131600Y-147622028D01*
X98131600Y-148014885D02*
X98131600Y-147264885D01*
X97774457Y-147264885D01*
X97238742Y-147622028D02*
X97131600Y-147657742D01*
X97095885Y-147693457D01*
X97060171Y-147764885D01*
X97060171Y-147872028D01*
X97095885Y-147943457D01*
X97131600Y-147979171D01*
X97203028Y-148014885D01*
X97488742Y-148014885D01*
X97488742Y-147264885D01*
X97238742Y-147264885D01*
X97167314Y-147300600D01*
X97131600Y-147336314D01*
X97095885Y-147407742D01*
X97095885Y-147479171D01*
X97131600Y-147550600D01*
X97167314Y-147586314D01*
X97238742Y-147622028D01*
X97488742Y-147622028D01*
X96417314Y-147264885D02*
X96560171Y-147264885D01*
X96631600Y-147300600D01*
X96667314Y-147336314D01*
X96738742Y-147443457D01*
X96774457Y-147586314D01*
X96774457Y-147872028D01*
X96738742Y-147943457D01*
X96703028Y-147979171D01*
X96631600Y-148014885D01*
X96488742Y-148014885D01*
X96417314Y-147979171D01*
X96381600Y-147943457D01*
X96345885Y-147872028D01*
X96345885Y-147693457D01*
X96381600Y-147622028D01*
X96417314Y-147586314D01*
X96488742Y-147550600D01*
X96631600Y-147550600D01*
X96703028Y-147586314D01*
X96738742Y-147622028D01*
X96774457Y-147693457D01*
X61097857Y-146587857D02*
X61133571Y-146552142D01*
X61169285Y-146445000D01*
X61169285Y-146373571D01*
X61133571Y-146266428D01*
X61062142Y-146195000D01*
X60990714Y-146159285D01*
X60847857Y-146123571D01*
X60740714Y-146123571D01*
X60597857Y-146159285D01*
X60526428Y-146195000D01*
X60455000Y-146266428D01*
X60419285Y-146373571D01*
X60419285Y-146445000D01*
X60455000Y-146552142D01*
X60490714Y-146587857D01*
X60740714Y-147016428D02*
X60705000Y-146945000D01*
X60669285Y-146909285D01*
X60597857Y-146873571D01*
X60562142Y-146873571D01*
X60490714Y-146909285D01*
X60455000Y-146945000D01*
X60419285Y-147016428D01*
X60419285Y-147159285D01*
X60455000Y-147230714D01*
X60490714Y-147266428D01*
X60562142Y-147302142D01*
X60597857Y-147302142D01*
X60669285Y-147266428D01*
X60705000Y-147230714D01*
X60740714Y-147159285D01*
X60740714Y-147016428D01*
X60776428Y-146945000D01*
X60812142Y-146909285D01*
X60883571Y-146873571D01*
X61026428Y-146873571D01*
X61097857Y-146909285D01*
X61133571Y-146945000D01*
X61169285Y-147016428D01*
X61169285Y-147159285D01*
X61133571Y-147230714D01*
X61097857Y-147266428D01*
X61026428Y-147302142D01*
X60883571Y-147302142D01*
X60812142Y-147266428D01*
X60776428Y-147230714D01*
X60740714Y-147159285D01*
X60419285Y-147552142D02*
X60419285Y-148016428D01*
X60705000Y-147766428D01*
X60705000Y-147873571D01*
X60740714Y-147945000D01*
X60776428Y-147980714D01*
X60847857Y-148016428D01*
X61026428Y-148016428D01*
X61097857Y-147980714D01*
X61133571Y-147945000D01*
X61169285Y-147873571D01*
X61169285Y-147659285D01*
X61133571Y-147587857D01*
X61097857Y-147552142D01*
X136237857Y-39665000D02*
X136273571Y-39629285D01*
X136309285Y-39522142D01*
X136309285Y-39450714D01*
X136273571Y-39343571D01*
X136202142Y-39272142D01*
X136130714Y-39236428D01*
X135987857Y-39200714D01*
X135880714Y-39200714D01*
X135737857Y-39236428D01*
X135666428Y-39272142D01*
X135595000Y-39343571D01*
X135559285Y-39450714D01*
X135559285Y-39522142D01*
X135595000Y-39629285D01*
X135630714Y-39665000D01*
X135809285Y-40307857D02*
X136309285Y-40307857D01*
X135523571Y-40129285D02*
X136059285Y-39950714D01*
X136059285Y-40415000D01*
X154629942Y-68164657D02*
X154665657Y-68200371D01*
X154772800Y-68236085D01*
X154844228Y-68236085D01*
X154951371Y-68200371D01*
X155022800Y-68128942D01*
X155058514Y-68057514D01*
X155094228Y-67914657D01*
X155094228Y-67807514D01*
X155058514Y-67664657D01*
X155022800Y-67593228D01*
X154951371Y-67521800D01*
X154844228Y-67486085D01*
X154772800Y-67486085D01*
X154665657Y-67521800D01*
X154629942Y-67557514D01*
X154344228Y-67557514D02*
X154308514Y-67521800D01*
X154237085Y-67486085D01*
X154058514Y-67486085D01*
X153987085Y-67521800D01*
X153951371Y-67557514D01*
X153915657Y-67628942D01*
X153915657Y-67700371D01*
X153951371Y-67807514D01*
X154379942Y-68236085D01*
X153915657Y-68236085D01*
X153451371Y-67486085D02*
X153379942Y-67486085D01*
X153308514Y-67521800D01*
X153272800Y-67557514D01*
X153237085Y-67628942D01*
X153201371Y-67771800D01*
X153201371Y-67950371D01*
X153237085Y-68093228D01*
X153272800Y-68164657D01*
X153308514Y-68200371D01*
X153379942Y-68236085D01*
X153451371Y-68236085D01*
X153522800Y-68200371D01*
X153558514Y-68164657D01*
X153594228Y-68093228D01*
X153629942Y-67950371D01*
X153629942Y-67771800D01*
X153594228Y-67628942D01*
X153558514Y-67557514D01*
X153522800Y-67521800D01*
X153451371Y-67486085D01*
X155415000Y-50817857D02*
X155450714Y-50853571D01*
X155557857Y-50889285D01*
X155629285Y-50889285D01*
X155736428Y-50853571D01*
X155807857Y-50782142D01*
X155843571Y-50710714D01*
X155879285Y-50567857D01*
X155879285Y-50460714D01*
X155843571Y-50317857D01*
X155807857Y-50246428D01*
X155736428Y-50175000D01*
X155629285Y-50139285D01*
X155557857Y-50139285D01*
X155450714Y-50175000D01*
X155415000Y-50210714D01*
X154772142Y-50139285D02*
X154915000Y-50139285D01*
X154986428Y-50175000D01*
X155022142Y-50210714D01*
X155093571Y-50317857D01*
X155129285Y-50460714D01*
X155129285Y-50746428D01*
X155093571Y-50817857D01*
X155057857Y-50853571D01*
X154986428Y-50889285D01*
X154843571Y-50889285D01*
X154772142Y-50853571D01*
X154736428Y-50817857D01*
X154700714Y-50746428D01*
X154700714Y-50567857D01*
X154736428Y-50496428D01*
X154772142Y-50460714D01*
X154843571Y-50425000D01*
X154986428Y-50425000D01*
X155057857Y-50460714D01*
X155093571Y-50496428D01*
X155129285Y-50567857D01*
X154607342Y-70957857D02*
X154643057Y-70993571D01*
X154750200Y-71029285D01*
X154821628Y-71029285D01*
X154928771Y-70993571D01*
X155000200Y-70922142D01*
X155035914Y-70850714D01*
X155071628Y-70707857D01*
X155071628Y-70600714D01*
X155035914Y-70457857D01*
X155000200Y-70386428D01*
X154928771Y-70315000D01*
X154821628Y-70279285D01*
X154750200Y-70279285D01*
X154643057Y-70315000D01*
X154607342Y-70350714D01*
X154321628Y-70350714D02*
X154285914Y-70315000D01*
X154214485Y-70279285D01*
X154035914Y-70279285D01*
X153964485Y-70315000D01*
X153928771Y-70350714D01*
X153893057Y-70422142D01*
X153893057Y-70493571D01*
X153928771Y-70600714D01*
X154357342Y-71029285D01*
X153893057Y-71029285D01*
X153607342Y-70350714D02*
X153571628Y-70315000D01*
X153500200Y-70279285D01*
X153321628Y-70279285D01*
X153250200Y-70315000D01*
X153214485Y-70350714D01*
X153178771Y-70422142D01*
X153178771Y-70493571D01*
X153214485Y-70600714D01*
X153643057Y-71029285D01*
X153178771Y-71029285D01*
X170782142Y-69517857D02*
X170817857Y-69553571D01*
X170925000Y-69589285D01*
X170996428Y-69589285D01*
X171103571Y-69553571D01*
X171175000Y-69482142D01*
X171210714Y-69410714D01*
X171246428Y-69267857D01*
X171246428Y-69160714D01*
X171210714Y-69017857D01*
X171175000Y-68946428D01*
X171103571Y-68875000D01*
X170996428Y-68839285D01*
X170925000Y-68839285D01*
X170817857Y-68875000D01*
X170782142Y-68910714D01*
X170496428Y-68910714D02*
X170460714Y-68875000D01*
X170389285Y-68839285D01*
X170210714Y-68839285D01*
X170139285Y-68875000D01*
X170103571Y-68910714D01*
X170067857Y-68982142D01*
X170067857Y-69053571D01*
X170103571Y-69160714D01*
X170532142Y-69589285D01*
X170067857Y-69589285D01*
X169353571Y-69589285D02*
X169782142Y-69589285D01*
X169567857Y-69589285D02*
X169567857Y-68839285D01*
X169639285Y-68946428D01*
X169710714Y-69017857D01*
X169782142Y-69053571D01*
X154578142Y-73947857D02*
X154613857Y-73983571D01*
X154721000Y-74019285D01*
X154792428Y-74019285D01*
X154899571Y-73983571D01*
X154971000Y-73912142D01*
X155006714Y-73840714D01*
X155042428Y-73697857D01*
X155042428Y-73590714D01*
X155006714Y-73447857D01*
X154971000Y-73376428D01*
X154899571Y-73305000D01*
X154792428Y-73269285D01*
X154721000Y-73269285D01*
X154613857Y-73305000D01*
X154578142Y-73340714D01*
X154292428Y-73340714D02*
X154256714Y-73305000D01*
X154185285Y-73269285D01*
X154006714Y-73269285D01*
X153935285Y-73305000D01*
X153899571Y-73340714D01*
X153863857Y-73412142D01*
X153863857Y-73483571D01*
X153899571Y-73590714D01*
X154328142Y-74019285D01*
X153863857Y-74019285D01*
X153185285Y-73269285D02*
X153542428Y-73269285D01*
X153578142Y-73626428D01*
X153542428Y-73590714D01*
X153471000Y-73555000D01*
X153292428Y-73555000D01*
X153221000Y-73590714D01*
X153185285Y-73626428D01*
X153149571Y-73697857D01*
X153149571Y-73876428D01*
X153185285Y-73947857D01*
X153221000Y-73983571D01*
X153292428Y-74019285D01*
X153471000Y-74019285D01*
X153542428Y-73983571D01*
X153578142Y-73947857D01*
X172792142Y-79927857D02*
X172827857Y-79963571D01*
X172935000Y-79999285D01*
X173006428Y-79999285D01*
X173113571Y-79963571D01*
X173185000Y-79892142D01*
X173220714Y-79820714D01*
X173256428Y-79677857D01*
X173256428Y-79570714D01*
X173220714Y-79427857D01*
X173185000Y-79356428D01*
X173113571Y-79285000D01*
X173006428Y-79249285D01*
X172935000Y-79249285D01*
X172827857Y-79285000D01*
X172792142Y-79320714D01*
X172542142Y-79249285D02*
X172077857Y-79249285D01*
X172327857Y-79535000D01*
X172220714Y-79535000D01*
X172149285Y-79570714D01*
X172113571Y-79606428D01*
X172077857Y-79677857D01*
X172077857Y-79856428D01*
X172113571Y-79927857D01*
X172149285Y-79963571D01*
X172220714Y-79999285D01*
X172435000Y-79999285D01*
X172506428Y-79963571D01*
X172542142Y-79927857D01*
X171363571Y-79999285D02*
X171792142Y-79999285D01*
X171577857Y-79999285D02*
X171577857Y-79249285D01*
X171649285Y-79356428D01*
X171720714Y-79427857D01*
X171792142Y-79463571D01*
X127387857Y-57930200D02*
X127423571Y-57894485D01*
X127459285Y-57787342D01*
X127459285Y-57715914D01*
X127423571Y-57608771D01*
X127352142Y-57537342D01*
X127280714Y-57501628D01*
X127137857Y-57465914D01*
X127030714Y-57465914D01*
X126887857Y-57501628D01*
X126816428Y-57537342D01*
X126745000Y-57608771D01*
X126709285Y-57715914D01*
X126709285Y-57787342D01*
X126745000Y-57894485D01*
X126780714Y-57930200D01*
X127459285Y-58287342D02*
X127459285Y-58430200D01*
X127423571Y-58501628D01*
X127387857Y-58537342D01*
X127280714Y-58608771D01*
X127137857Y-58644485D01*
X126852142Y-58644485D01*
X126780714Y-58608771D01*
X126745000Y-58573057D01*
X126709285Y-58501628D01*
X126709285Y-58358771D01*
X126745000Y-58287342D01*
X126780714Y-58251628D01*
X126852142Y-58215914D01*
X127030714Y-58215914D01*
X127102142Y-58251628D01*
X127137857Y-58287342D01*
X127173571Y-58358771D01*
X127173571Y-58501628D01*
X127137857Y-58573057D01*
X127102142Y-58608771D01*
X127030714Y-58644485D01*
X154710542Y-77398657D02*
X154746257Y-77434371D01*
X154853400Y-77470085D01*
X154924828Y-77470085D01*
X155031971Y-77434371D01*
X155103400Y-77362942D01*
X155139114Y-77291514D01*
X155174828Y-77148657D01*
X155174828Y-77041514D01*
X155139114Y-76898657D01*
X155103400Y-76827228D01*
X155031971Y-76755800D01*
X154924828Y-76720085D01*
X154853400Y-76720085D01*
X154746257Y-76755800D01*
X154710542Y-76791514D01*
X154424828Y-76791514D02*
X154389114Y-76755800D01*
X154317685Y-76720085D01*
X154139114Y-76720085D01*
X154067685Y-76755800D01*
X154031971Y-76791514D01*
X153996257Y-76862942D01*
X153996257Y-76934371D01*
X154031971Y-77041514D01*
X154460542Y-77470085D01*
X153996257Y-77470085D01*
X153567685Y-77041514D02*
X153639114Y-77005800D01*
X153674828Y-76970085D01*
X153710542Y-76898657D01*
X153710542Y-76862942D01*
X153674828Y-76791514D01*
X153639114Y-76755800D01*
X153567685Y-76720085D01*
X153424828Y-76720085D01*
X153353400Y-76755800D01*
X153317685Y-76791514D01*
X153281971Y-76862942D01*
X153281971Y-76898657D01*
X153317685Y-76970085D01*
X153353400Y-77005800D01*
X153424828Y-77041514D01*
X153567685Y-77041514D01*
X153639114Y-77077228D01*
X153674828Y-77112942D01*
X153710542Y-77184371D01*
X153710542Y-77327228D01*
X153674828Y-77398657D01*
X153639114Y-77434371D01*
X153567685Y-77470085D01*
X153424828Y-77470085D01*
X153353400Y-77434371D01*
X153317685Y-77398657D01*
X153281971Y-77327228D01*
X153281971Y-77184371D01*
X153317685Y-77112942D01*
X153353400Y-77077228D01*
X153424828Y-77041514D01*
X171322142Y-87377857D02*
X171357857Y-87413571D01*
X171465000Y-87449285D01*
X171536428Y-87449285D01*
X171643571Y-87413571D01*
X171715000Y-87342142D01*
X171750714Y-87270714D01*
X171786428Y-87127857D01*
X171786428Y-87020714D01*
X171750714Y-86877857D01*
X171715000Y-86806428D01*
X171643571Y-86735000D01*
X171536428Y-86699285D01*
X171465000Y-86699285D01*
X171357857Y-86735000D01*
X171322142Y-86770714D01*
X170679285Y-86949285D02*
X170679285Y-87449285D01*
X170857857Y-86663571D02*
X171036428Y-87199285D01*
X170572142Y-87199285D01*
X170143571Y-86699285D02*
X170072142Y-86699285D01*
X170000714Y-86735000D01*
X169965000Y-86770714D01*
X169929285Y-86842142D01*
X169893571Y-86985000D01*
X169893571Y-87163571D01*
X169929285Y-87306428D01*
X169965000Y-87377857D01*
X170000714Y-87413571D01*
X170072142Y-87449285D01*
X170143571Y-87449285D01*
X170215000Y-87413571D01*
X170250714Y-87377857D01*
X170286428Y-87306428D01*
X170322142Y-87163571D01*
X170322142Y-86985000D01*
X170286428Y-86842142D01*
X170250714Y-86770714D01*
X170215000Y-86735000D01*
X170143571Y-86699285D01*
X129367857Y-57513057D02*
X129403571Y-57477342D01*
X129439285Y-57370200D01*
X129439285Y-57298771D01*
X129403571Y-57191628D01*
X129332142Y-57120200D01*
X129260714Y-57084485D01*
X129117857Y-57048771D01*
X129010714Y-57048771D01*
X128867857Y-57084485D01*
X128796428Y-57120200D01*
X128725000Y-57191628D01*
X128689285Y-57298771D01*
X128689285Y-57370200D01*
X128725000Y-57477342D01*
X128760714Y-57513057D01*
X129439285Y-58227342D02*
X129439285Y-57798771D01*
X129439285Y-58013057D02*
X128689285Y-58013057D01*
X128796428Y-57941628D01*
X128867857Y-57870200D01*
X128903571Y-57798771D01*
X128689285Y-58691628D02*
X128689285Y-58763057D01*
X128725000Y-58834485D01*
X128760714Y-58870200D01*
X128832142Y-58905914D01*
X128975000Y-58941628D01*
X129153571Y-58941628D01*
X129296428Y-58905914D01*
X129367857Y-58870200D01*
X129403571Y-58834485D01*
X129439285Y-58763057D01*
X129439285Y-58691628D01*
X129403571Y-58620200D01*
X129367857Y-58584485D01*
X129296428Y-58548771D01*
X129153571Y-58513057D01*
X128975000Y-58513057D01*
X128832142Y-58548771D01*
X128760714Y-58584485D01*
X128725000Y-58620200D01*
X128689285Y-58691628D01*
X154640542Y-82535457D02*
X154676257Y-82571171D01*
X154783400Y-82606885D01*
X154854828Y-82606885D01*
X154961971Y-82571171D01*
X155033400Y-82499742D01*
X155069114Y-82428314D01*
X155104828Y-82285457D01*
X155104828Y-82178314D01*
X155069114Y-82035457D01*
X155033400Y-81964028D01*
X154961971Y-81892600D01*
X154854828Y-81856885D01*
X154783400Y-81856885D01*
X154676257Y-81892600D01*
X154640542Y-81928314D01*
X154390542Y-81856885D02*
X153926257Y-81856885D01*
X154176257Y-82142600D01*
X154069114Y-82142600D01*
X153997685Y-82178314D01*
X153961971Y-82214028D01*
X153926257Y-82285457D01*
X153926257Y-82464028D01*
X153961971Y-82535457D01*
X153997685Y-82571171D01*
X154069114Y-82606885D01*
X154283400Y-82606885D01*
X154354828Y-82571171D01*
X154390542Y-82535457D01*
X153283400Y-82106885D02*
X153283400Y-82606885D01*
X153461971Y-81821171D02*
X153640542Y-82356885D01*
X153176257Y-82356885D01*
X128538857Y-111756057D02*
X128574571Y-111720342D01*
X128610285Y-111613200D01*
X128610285Y-111541771D01*
X128574571Y-111434628D01*
X128503142Y-111363200D01*
X128431714Y-111327485D01*
X128288857Y-111291771D01*
X128181714Y-111291771D01*
X128038857Y-111327485D01*
X127967428Y-111363200D01*
X127896000Y-111434628D01*
X127860285Y-111541771D01*
X127860285Y-111613200D01*
X127896000Y-111720342D01*
X127931714Y-111756057D01*
X127860285Y-112434628D02*
X127860285Y-112077485D01*
X128217428Y-112041771D01*
X128181714Y-112077485D01*
X128146000Y-112148914D01*
X128146000Y-112327485D01*
X128181714Y-112398914D01*
X128217428Y-112434628D01*
X128288857Y-112470342D01*
X128467428Y-112470342D01*
X128538857Y-112434628D01*
X128574571Y-112398914D01*
X128610285Y-112327485D01*
X128610285Y-112148914D01*
X128574571Y-112077485D01*
X128538857Y-112041771D01*
X128110285Y-113113200D02*
X128610285Y-113113200D01*
X127824571Y-112934628D02*
X128360285Y-112756057D01*
X128360285Y-113220342D01*
X135657857Y-60377857D02*
X135693571Y-60342142D01*
X135729285Y-60235000D01*
X135729285Y-60163571D01*
X135693571Y-60056428D01*
X135622142Y-59985000D01*
X135550714Y-59949285D01*
X135407857Y-59913571D01*
X135300714Y-59913571D01*
X135157857Y-59949285D01*
X135086428Y-59985000D01*
X135015000Y-60056428D01*
X134979285Y-60163571D01*
X134979285Y-60235000D01*
X135015000Y-60342142D01*
X135050714Y-60377857D01*
X135729285Y-61092142D02*
X135729285Y-60663571D01*
X135729285Y-60877857D02*
X134979285Y-60877857D01*
X135086428Y-60806428D01*
X135157857Y-60735000D01*
X135193571Y-60663571D01*
X135050714Y-61377857D02*
X135015000Y-61413571D01*
X134979285Y-61485000D01*
X134979285Y-61663571D01*
X135015000Y-61735000D01*
X135050714Y-61770714D01*
X135122142Y-61806428D01*
X135193571Y-61806428D01*
X135300714Y-61770714D01*
X135729285Y-61342142D01*
X135729285Y-61806428D01*
X154660142Y-88710657D02*
X154695857Y-88746371D01*
X154803000Y-88782085D01*
X154874428Y-88782085D01*
X154981571Y-88746371D01*
X155053000Y-88674942D01*
X155088714Y-88603514D01*
X155124428Y-88460657D01*
X155124428Y-88353514D01*
X155088714Y-88210657D01*
X155053000Y-88139228D01*
X154981571Y-88067800D01*
X154874428Y-88032085D01*
X154803000Y-88032085D01*
X154695857Y-88067800D01*
X154660142Y-88103514D01*
X154017285Y-88282085D02*
X154017285Y-88782085D01*
X154195857Y-87996371D02*
X154374428Y-88532085D01*
X153910142Y-88532085D01*
X153231571Y-88782085D02*
X153660142Y-88782085D01*
X153445857Y-88782085D02*
X153445857Y-88032085D01*
X153517285Y-88139228D01*
X153588714Y-88210657D01*
X153660142Y-88246371D01*
X125997857Y-111547857D02*
X126033571Y-111512142D01*
X126069285Y-111405000D01*
X126069285Y-111333571D01*
X126033571Y-111226428D01*
X125962142Y-111155000D01*
X125890714Y-111119285D01*
X125747857Y-111083571D01*
X125640714Y-111083571D01*
X125497857Y-111119285D01*
X125426428Y-111155000D01*
X125355000Y-111226428D01*
X125319285Y-111333571D01*
X125319285Y-111405000D01*
X125355000Y-111512142D01*
X125390714Y-111547857D01*
X125319285Y-112226428D02*
X125319285Y-111869285D01*
X125676428Y-111833571D01*
X125640714Y-111869285D01*
X125605000Y-111940714D01*
X125605000Y-112119285D01*
X125640714Y-112190714D01*
X125676428Y-112226428D01*
X125747857Y-112262142D01*
X125926428Y-112262142D01*
X125997857Y-112226428D01*
X126033571Y-112190714D01*
X126069285Y-112119285D01*
X126069285Y-111940714D01*
X126033571Y-111869285D01*
X125997857Y-111833571D01*
X125319285Y-112512142D02*
X125319285Y-112976428D01*
X125605000Y-112726428D01*
X125605000Y-112833571D01*
X125640714Y-112905000D01*
X125676428Y-112940714D01*
X125747857Y-112976428D01*
X125926428Y-112976428D01*
X125997857Y-112940714D01*
X126033571Y-112905000D01*
X126069285Y-112833571D01*
X126069285Y-112619285D01*
X126033571Y-112547857D01*
X125997857Y-112512142D01*
X137007857Y-60377857D02*
X137043571Y-60342142D01*
X137079285Y-60235000D01*
X137079285Y-60163571D01*
X137043571Y-60056428D01*
X136972142Y-59985000D01*
X136900714Y-59949285D01*
X136757857Y-59913571D01*
X136650714Y-59913571D01*
X136507857Y-59949285D01*
X136436428Y-59985000D01*
X136365000Y-60056428D01*
X136329285Y-60163571D01*
X136329285Y-60235000D01*
X136365000Y-60342142D01*
X136400714Y-60377857D01*
X137079285Y-61092142D02*
X137079285Y-60663571D01*
X137079285Y-60877857D02*
X136329285Y-60877857D01*
X136436428Y-60806428D01*
X136507857Y-60735000D01*
X136543571Y-60663571D01*
X136329285Y-61342142D02*
X136329285Y-61806428D01*
X136615000Y-61556428D01*
X136615000Y-61663571D01*
X136650714Y-61735000D01*
X136686428Y-61770714D01*
X136757857Y-61806428D01*
X136936428Y-61806428D01*
X137007857Y-61770714D01*
X137043571Y-61735000D01*
X137079285Y-61663571D01*
X137079285Y-61449285D01*
X137043571Y-61377857D01*
X137007857Y-61342142D01*
X98512142Y-85477857D02*
X98547857Y-85513571D01*
X98655000Y-85549285D01*
X98726428Y-85549285D01*
X98833571Y-85513571D01*
X98905000Y-85442142D01*
X98940714Y-85370714D01*
X98976428Y-85227857D01*
X98976428Y-85120714D01*
X98940714Y-84977857D01*
X98905000Y-84906428D01*
X98833571Y-84835000D01*
X98726428Y-84799285D01*
X98655000Y-84799285D01*
X98547857Y-84835000D01*
X98512142Y-84870714D01*
X98262142Y-84799285D02*
X97797857Y-84799285D01*
X98047857Y-85085000D01*
X97940714Y-85085000D01*
X97869285Y-85120714D01*
X97833571Y-85156428D01*
X97797857Y-85227857D01*
X97797857Y-85406428D01*
X97833571Y-85477857D01*
X97869285Y-85513571D01*
X97940714Y-85549285D01*
X98155000Y-85549285D01*
X98226428Y-85513571D01*
X98262142Y-85477857D01*
X97547857Y-84799285D02*
X97047857Y-84799285D01*
X97369285Y-85549285D01*
X140177857Y-60422857D02*
X140213571Y-60387142D01*
X140249285Y-60280000D01*
X140249285Y-60208571D01*
X140213571Y-60101428D01*
X140142142Y-60030000D01*
X140070714Y-59994285D01*
X139927857Y-59958571D01*
X139820714Y-59958571D01*
X139677857Y-59994285D01*
X139606428Y-60030000D01*
X139535000Y-60101428D01*
X139499285Y-60208571D01*
X139499285Y-60280000D01*
X139535000Y-60387142D01*
X139570714Y-60422857D01*
X140249285Y-61137142D02*
X140249285Y-60708571D01*
X140249285Y-60922857D02*
X139499285Y-60922857D01*
X139606428Y-60851428D01*
X139677857Y-60780000D01*
X139713571Y-60708571D01*
X139749285Y-61780000D02*
X140249285Y-61780000D01*
X139463571Y-61601428D02*
X139999285Y-61422857D01*
X139999285Y-61887142D01*
X133087857Y-95167857D02*
X133123571Y-95132142D01*
X133159285Y-95025000D01*
X133159285Y-94953571D01*
X133123571Y-94846428D01*
X133052142Y-94775000D01*
X132980714Y-94739285D01*
X132837857Y-94703571D01*
X132730714Y-94703571D01*
X132587857Y-94739285D01*
X132516428Y-94775000D01*
X132445000Y-94846428D01*
X132409285Y-94953571D01*
X132409285Y-95025000D01*
X132445000Y-95132142D01*
X132480714Y-95167857D01*
X132659285Y-95810714D02*
X133159285Y-95810714D01*
X132373571Y-95632142D02*
X132909285Y-95453571D01*
X132909285Y-95917857D01*
X133159285Y-96239285D02*
X133159285Y-96382142D01*
X133123571Y-96453571D01*
X133087857Y-96489285D01*
X132980714Y-96560714D01*
X132837857Y-96596428D01*
X132552142Y-96596428D01*
X132480714Y-96560714D01*
X132445000Y-96525000D01*
X132409285Y-96453571D01*
X132409285Y-96310714D01*
X132445000Y-96239285D01*
X132480714Y-96203571D01*
X132552142Y-96167857D01*
X132730714Y-96167857D01*
X132802142Y-96203571D01*
X132837857Y-96239285D01*
X132873571Y-96310714D01*
X132873571Y-96453571D01*
X132837857Y-96525000D01*
X132802142Y-96560714D01*
X132730714Y-96596428D01*
X99102142Y-76857857D02*
X99137857Y-76893571D01*
X99245000Y-76929285D01*
X99316428Y-76929285D01*
X99423571Y-76893571D01*
X99495000Y-76822142D01*
X99530714Y-76750714D01*
X99566428Y-76607857D01*
X99566428Y-76500714D01*
X99530714Y-76357857D01*
X99495000Y-76286428D01*
X99423571Y-76215000D01*
X99316428Y-76179285D01*
X99245000Y-76179285D01*
X99137857Y-76215000D01*
X99102142Y-76250714D01*
X98816428Y-76250714D02*
X98780714Y-76215000D01*
X98709285Y-76179285D01*
X98530714Y-76179285D01*
X98459285Y-76215000D01*
X98423571Y-76250714D01*
X98387857Y-76322142D01*
X98387857Y-76393571D01*
X98423571Y-76500714D01*
X98852142Y-76929285D01*
X98387857Y-76929285D01*
X98137857Y-76179285D02*
X97637857Y-76179285D01*
X97959285Y-76929285D01*
X141257857Y-60417857D02*
X141293571Y-60382142D01*
X141329285Y-60275000D01*
X141329285Y-60203571D01*
X141293571Y-60096428D01*
X141222142Y-60025000D01*
X141150714Y-59989285D01*
X141007857Y-59953571D01*
X140900714Y-59953571D01*
X140757857Y-59989285D01*
X140686428Y-60025000D01*
X140615000Y-60096428D01*
X140579285Y-60203571D01*
X140579285Y-60275000D01*
X140615000Y-60382142D01*
X140650714Y-60417857D01*
X141329285Y-61132142D02*
X141329285Y-60703571D01*
X141329285Y-60917857D02*
X140579285Y-60917857D01*
X140686428Y-60846428D01*
X140757857Y-60775000D01*
X140793571Y-60703571D01*
X140579285Y-61810714D02*
X140579285Y-61453571D01*
X140936428Y-61417857D01*
X140900714Y-61453571D01*
X140865000Y-61525000D01*
X140865000Y-61703571D01*
X140900714Y-61775000D01*
X140936428Y-61810714D01*
X141007857Y-61846428D01*
X141186428Y-61846428D01*
X141257857Y-61810714D01*
X141293571Y-61775000D01*
X141329285Y-61703571D01*
X141329285Y-61525000D01*
X141293571Y-61453571D01*
X141257857Y-61417857D01*
X99922142Y-82667857D02*
X99957857Y-82703571D01*
X100065000Y-82739285D01*
X100136428Y-82739285D01*
X100243571Y-82703571D01*
X100315000Y-82632142D01*
X100350714Y-82560714D01*
X100386428Y-82417857D01*
X100386428Y-82310714D01*
X100350714Y-82167857D01*
X100315000Y-82096428D01*
X100243571Y-82025000D01*
X100136428Y-81989285D01*
X100065000Y-81989285D01*
X99957857Y-82025000D01*
X99922142Y-82060714D01*
X99672142Y-81989285D02*
X99207857Y-81989285D01*
X99457857Y-82275000D01*
X99350714Y-82275000D01*
X99279285Y-82310714D01*
X99243571Y-82346428D01*
X99207857Y-82417857D01*
X99207857Y-82596428D01*
X99243571Y-82667857D01*
X99279285Y-82703571D01*
X99350714Y-82739285D01*
X99565000Y-82739285D01*
X99636428Y-82703571D01*
X99672142Y-82667857D01*
X98957857Y-81989285D02*
X98493571Y-81989285D01*
X98743571Y-82275000D01*
X98636428Y-82275000D01*
X98565000Y-82310714D01*
X98529285Y-82346428D01*
X98493571Y-82417857D01*
X98493571Y-82596428D01*
X98529285Y-82667857D01*
X98565000Y-82703571D01*
X98636428Y-82739285D01*
X98850714Y-82739285D01*
X98922142Y-82703571D01*
X98957857Y-82667857D01*
X99752142Y-67287857D02*
X99787857Y-67323571D01*
X99895000Y-67359285D01*
X99966428Y-67359285D01*
X100073571Y-67323571D01*
X100145000Y-67252142D01*
X100180714Y-67180714D01*
X100216428Y-67037857D01*
X100216428Y-66930714D01*
X100180714Y-66787857D01*
X100145000Y-66716428D01*
X100073571Y-66645000D01*
X99966428Y-66609285D01*
X99895000Y-66609285D01*
X99787857Y-66645000D01*
X99752142Y-66680714D01*
X99037857Y-67359285D02*
X99466428Y-67359285D01*
X99252142Y-67359285D02*
X99252142Y-66609285D01*
X99323571Y-66716428D01*
X99395000Y-66787857D01*
X99466428Y-66823571D01*
X98680714Y-67359285D02*
X98537857Y-67359285D01*
X98466428Y-67323571D01*
X98430714Y-67287857D01*
X98359285Y-67180714D01*
X98323571Y-67037857D01*
X98323571Y-66752142D01*
X98359285Y-66680714D01*
X98395000Y-66645000D01*
X98466428Y-66609285D01*
X98609285Y-66609285D01*
X98680714Y-66645000D01*
X98716428Y-66680714D01*
X98752142Y-66752142D01*
X98752142Y-66930714D01*
X98716428Y-67002142D01*
X98680714Y-67037857D01*
X98609285Y-67073571D01*
X98466428Y-67073571D01*
X98395000Y-67037857D01*
X98359285Y-67002142D01*
X98323571Y-66930714D01*
X154431742Y-62879457D02*
X154467457Y-62915171D01*
X154574600Y-62950885D01*
X154646028Y-62950885D01*
X154753171Y-62915171D01*
X154824600Y-62843742D01*
X154860314Y-62772314D01*
X154896028Y-62629457D01*
X154896028Y-62522314D01*
X154860314Y-62379457D01*
X154824600Y-62308028D01*
X154753171Y-62236600D01*
X154646028Y-62200885D01*
X154574600Y-62200885D01*
X154467457Y-62236600D01*
X154431742Y-62272314D01*
X153717457Y-62950885D02*
X154146028Y-62950885D01*
X153931742Y-62950885D02*
X153931742Y-62200885D01*
X154003171Y-62308028D01*
X154074600Y-62379457D01*
X154146028Y-62415171D01*
X153074600Y-62200885D02*
X153217457Y-62200885D01*
X153288885Y-62236600D01*
X153324600Y-62272314D01*
X153396028Y-62379457D01*
X153431742Y-62522314D01*
X153431742Y-62808028D01*
X153396028Y-62879457D01*
X153360314Y-62915171D01*
X153288885Y-62950885D01*
X153146028Y-62950885D01*
X153074600Y-62915171D01*
X153038885Y-62879457D01*
X153003171Y-62808028D01*
X153003171Y-62629457D01*
X153038885Y-62558028D01*
X153074600Y-62522314D01*
X153146028Y-62486600D01*
X153288885Y-62486600D01*
X153360314Y-62522314D01*
X153396028Y-62558028D01*
X153431742Y-62629457D01*
X115622142Y-74147857D02*
X115657857Y-74183571D01*
X115765000Y-74219285D01*
X115836428Y-74219285D01*
X115943571Y-74183571D01*
X116015000Y-74112142D01*
X116050714Y-74040714D01*
X116086428Y-73897857D01*
X116086428Y-73790714D01*
X116050714Y-73647857D01*
X116015000Y-73576428D01*
X115943571Y-73505000D01*
X115836428Y-73469285D01*
X115765000Y-73469285D01*
X115657857Y-73505000D01*
X115622142Y-73540714D01*
X115336428Y-73540714D02*
X115300714Y-73505000D01*
X115229285Y-73469285D01*
X115050714Y-73469285D01*
X114979285Y-73505000D01*
X114943571Y-73540714D01*
X114907857Y-73612142D01*
X114907857Y-73683571D01*
X114943571Y-73790714D01*
X115372142Y-74219285D01*
X114907857Y-74219285D01*
X114265000Y-73719285D02*
X114265000Y-74219285D01*
X114443571Y-73433571D02*
X114622142Y-73969285D01*
X114157857Y-73969285D01*
X64165000Y-34837857D02*
X64200714Y-34873571D01*
X64307857Y-34909285D01*
X64379285Y-34909285D01*
X64486428Y-34873571D01*
X64557857Y-34802142D01*
X64593571Y-34730714D01*
X64629285Y-34587857D01*
X64629285Y-34480714D01*
X64593571Y-34337857D01*
X64557857Y-34266428D01*
X64486428Y-34195000D01*
X64379285Y-34159285D01*
X64307857Y-34159285D01*
X64200714Y-34195000D01*
X64165000Y-34230714D01*
X63879285Y-34230714D02*
X63843571Y-34195000D01*
X63772142Y-34159285D01*
X63593571Y-34159285D01*
X63522142Y-34195000D01*
X63486428Y-34230714D01*
X63450714Y-34302142D01*
X63450714Y-34373571D01*
X63486428Y-34480714D01*
X63915000Y-34909285D01*
X63450714Y-34909285D01*
X58383057Y-32765600D02*
X58418771Y-32729885D01*
X58454485Y-32622742D01*
X58454485Y-32551314D01*
X58418771Y-32444171D01*
X58347342Y-32372742D01*
X58275914Y-32337028D01*
X58133057Y-32301314D01*
X58025914Y-32301314D01*
X57883057Y-32337028D01*
X57811628Y-32372742D01*
X57740200Y-32444171D01*
X57704485Y-32551314D01*
X57704485Y-32622742D01*
X57740200Y-32729885D01*
X57775914Y-32765600D01*
X58454485Y-33479885D02*
X58454485Y-33051314D01*
X58454485Y-33265600D02*
X57704485Y-33265600D01*
X57811628Y-33194171D01*
X57883057Y-33122742D01*
X57918771Y-33051314D01*
X156198457Y-145923457D02*
X156234171Y-145887742D01*
X156269885Y-145780600D01*
X156269885Y-145709171D01*
X156234171Y-145602028D01*
X156162742Y-145530600D01*
X156091314Y-145494885D01*
X155948457Y-145459171D01*
X155841314Y-145459171D01*
X155698457Y-145494885D01*
X155627028Y-145530600D01*
X155555600Y-145602028D01*
X155519885Y-145709171D01*
X155519885Y-145780600D01*
X155555600Y-145887742D01*
X155591314Y-145923457D01*
X155519885Y-146173457D02*
X155519885Y-146673457D01*
X156269885Y-146352028D01*
X155519885Y-147280600D02*
X155519885Y-147137742D01*
X155555600Y-147066314D01*
X155591314Y-147030600D01*
X155698457Y-146959171D01*
X155841314Y-146923457D01*
X156127028Y-146923457D01*
X156198457Y-146959171D01*
X156234171Y-146994885D01*
X156269885Y-147066314D01*
X156269885Y-147209171D01*
X156234171Y-147280600D01*
X156198457Y-147316314D01*
X156127028Y-147352028D01*
X155948457Y-147352028D01*
X155877028Y-147316314D01*
X155841314Y-147280600D01*
X155805600Y-147209171D01*
X155805600Y-147066314D01*
X155841314Y-146994885D01*
X155877028Y-146959171D01*
X155948457Y-146923457D01*
X59348257Y-78438057D02*
X59383971Y-78402342D01*
X59419685Y-78295200D01*
X59419685Y-78223771D01*
X59383971Y-78116628D01*
X59312542Y-78045200D01*
X59241114Y-78009485D01*
X59098257Y-77973771D01*
X58991114Y-77973771D01*
X58848257Y-78009485D01*
X58776828Y-78045200D01*
X58705400Y-78116628D01*
X58669685Y-78223771D01*
X58669685Y-78295200D01*
X58705400Y-78402342D01*
X58741114Y-78438057D01*
X58669685Y-78688057D02*
X58669685Y-79152342D01*
X58955400Y-78902342D01*
X58955400Y-79009485D01*
X58991114Y-79080914D01*
X59026828Y-79116628D01*
X59098257Y-79152342D01*
X59276828Y-79152342D01*
X59348257Y-79116628D01*
X59383971Y-79080914D01*
X59419685Y-79009485D01*
X59419685Y-78795200D01*
X59383971Y-78723771D01*
X59348257Y-78688057D01*
X58669685Y-79616628D02*
X58669685Y-79688057D01*
X58705400Y-79759485D01*
X58741114Y-79795200D01*
X58812542Y-79830914D01*
X58955400Y-79866628D01*
X59133971Y-79866628D01*
X59276828Y-79830914D01*
X59348257Y-79795200D01*
X59383971Y-79759485D01*
X59419685Y-79688057D01*
X59419685Y-79616628D01*
X59383971Y-79545200D01*
X59348257Y-79509485D01*
X59276828Y-79473771D01*
X59133971Y-79438057D01*
X58955400Y-79438057D01*
X58812542Y-79473771D01*
X58741114Y-79509485D01*
X58705400Y-79545200D01*
X58669685Y-79616628D01*
X55589057Y-78359457D02*
X55624771Y-78323742D01*
X55660485Y-78216600D01*
X55660485Y-78145171D01*
X55624771Y-78038028D01*
X55553342Y-77966600D01*
X55481914Y-77930885D01*
X55339057Y-77895171D01*
X55231914Y-77895171D01*
X55089057Y-77930885D01*
X55017628Y-77966600D01*
X54946200Y-78038028D01*
X54910485Y-78145171D01*
X54910485Y-78216600D01*
X54946200Y-78323742D01*
X54981914Y-78359457D01*
X54981914Y-78645171D02*
X54946200Y-78680885D01*
X54910485Y-78752314D01*
X54910485Y-78930885D01*
X54946200Y-79002314D01*
X54981914Y-79038028D01*
X55053342Y-79073742D01*
X55124771Y-79073742D01*
X55231914Y-79038028D01*
X55660485Y-78609457D01*
X55660485Y-79073742D01*
X55660485Y-79430885D02*
X55660485Y-79573742D01*
X55624771Y-79645171D01*
X55589057Y-79680885D01*
X55481914Y-79752314D01*
X55339057Y-79788028D01*
X55053342Y-79788028D01*
X54981914Y-79752314D01*
X54946200Y-79716600D01*
X54910485Y-79645171D01*
X54910485Y-79502314D01*
X54946200Y-79430885D01*
X54981914Y-79395171D01*
X55053342Y-79359457D01*
X55231914Y-79359457D01*
X55303342Y-79395171D01*
X55339057Y-79430885D01*
X55374771Y-79502314D01*
X55374771Y-79645171D01*
X55339057Y-79716600D01*
X55303342Y-79752314D01*
X55231914Y-79788028D01*
X59918142Y-77128257D02*
X59953857Y-77163971D01*
X60061000Y-77199685D01*
X60132428Y-77199685D01*
X60239571Y-77163971D01*
X60311000Y-77092542D01*
X60346714Y-77021114D01*
X60382428Y-76878257D01*
X60382428Y-76771114D01*
X60346714Y-76628257D01*
X60311000Y-76556828D01*
X60239571Y-76485400D01*
X60132428Y-76449685D01*
X60061000Y-76449685D01*
X59953857Y-76485400D01*
X59918142Y-76521114D01*
X59632428Y-76521114D02*
X59596714Y-76485400D01*
X59525285Y-76449685D01*
X59346714Y-76449685D01*
X59275285Y-76485400D01*
X59239571Y-76521114D01*
X59203857Y-76592542D01*
X59203857Y-76663971D01*
X59239571Y-76771114D01*
X59668142Y-77199685D01*
X59203857Y-77199685D01*
X58561000Y-76449685D02*
X58703857Y-76449685D01*
X58775285Y-76485400D01*
X58811000Y-76521114D01*
X58882428Y-76628257D01*
X58918142Y-76771114D01*
X58918142Y-77056828D01*
X58882428Y-77128257D01*
X58846714Y-77163971D01*
X58775285Y-77199685D01*
X58632428Y-77199685D01*
X58561000Y-77163971D01*
X58525285Y-77128257D01*
X58489571Y-77056828D01*
X58489571Y-76878257D01*
X58525285Y-76806828D01*
X58561000Y-76771114D01*
X58632428Y-76735400D01*
X58775285Y-76735400D01*
X58846714Y-76771114D01*
X58882428Y-76806828D01*
X58918142Y-76878257D01*
X215543942Y-97880057D02*
X215579657Y-97915771D01*
X215686800Y-97951485D01*
X215758228Y-97951485D01*
X215865371Y-97915771D01*
X215936800Y-97844342D01*
X215972514Y-97772914D01*
X216008228Y-97630057D01*
X216008228Y-97522914D01*
X215972514Y-97380057D01*
X215936800Y-97308628D01*
X215865371Y-97237200D01*
X215758228Y-97201485D01*
X215686800Y-97201485D01*
X215579657Y-97237200D01*
X215543942Y-97272914D01*
X214901085Y-97451485D02*
X214901085Y-97951485D01*
X215079657Y-97165771D02*
X215258228Y-97701485D01*
X214793942Y-97701485D01*
X214401085Y-97522914D02*
X214472514Y-97487200D01*
X214508228Y-97451485D01*
X214543942Y-97380057D01*
X214543942Y-97344342D01*
X214508228Y-97272914D01*
X214472514Y-97237200D01*
X214401085Y-97201485D01*
X214258228Y-97201485D01*
X214186800Y-97237200D01*
X214151085Y-97272914D01*
X214115371Y-97344342D01*
X214115371Y-97380057D01*
X214151085Y-97451485D01*
X214186800Y-97487200D01*
X214258228Y-97522914D01*
X214401085Y-97522914D01*
X214472514Y-97558628D01*
X214508228Y-97594342D01*
X214543942Y-97665771D01*
X214543942Y-97808628D01*
X214508228Y-97880057D01*
X214472514Y-97915771D01*
X214401085Y-97951485D01*
X214258228Y-97951485D01*
X214186800Y-97915771D01*
X214151085Y-97880057D01*
X214115371Y-97808628D01*
X214115371Y-97665771D01*
X214151085Y-97594342D01*
X214186800Y-97558628D01*
X214258228Y-97522914D01*
X196282142Y-101987857D02*
X196317857Y-102023571D01*
X196425000Y-102059285D01*
X196496428Y-102059285D01*
X196603571Y-102023571D01*
X196675000Y-101952142D01*
X196710714Y-101880714D01*
X196746428Y-101737857D01*
X196746428Y-101630714D01*
X196710714Y-101487857D01*
X196675000Y-101416428D01*
X196603571Y-101345000D01*
X196496428Y-101309285D01*
X196425000Y-101309285D01*
X196317857Y-101345000D01*
X196282142Y-101380714D01*
X195603571Y-101309285D02*
X195960714Y-101309285D01*
X195996428Y-101666428D01*
X195960714Y-101630714D01*
X195889285Y-101595000D01*
X195710714Y-101595000D01*
X195639285Y-101630714D01*
X195603571Y-101666428D01*
X195567857Y-101737857D01*
X195567857Y-101916428D01*
X195603571Y-101987857D01*
X195639285Y-102023571D01*
X195710714Y-102059285D01*
X195889285Y-102059285D01*
X195960714Y-102023571D01*
X195996428Y-101987857D01*
X195103571Y-101309285D02*
X195032142Y-101309285D01*
X194960714Y-101345000D01*
X194925000Y-101380714D01*
X194889285Y-101452142D01*
X194853571Y-101595000D01*
X194853571Y-101773571D01*
X194889285Y-101916428D01*
X194925000Y-101987857D01*
X194960714Y-102023571D01*
X195032142Y-102059285D01*
X195103571Y-102059285D01*
X195175000Y-102023571D01*
X195210714Y-101987857D01*
X195246428Y-101916428D01*
X195282142Y-101773571D01*
X195282142Y-101595000D01*
X195246428Y-101452142D01*
X195210714Y-101380714D01*
X195175000Y-101345000D01*
X195103571Y-101309285D01*
X197912142Y-88997857D02*
X197947857Y-89033571D01*
X198055000Y-89069285D01*
X198126428Y-89069285D01*
X198233571Y-89033571D01*
X198305000Y-88962142D01*
X198340714Y-88890714D01*
X198376428Y-88747857D01*
X198376428Y-88640714D01*
X198340714Y-88497857D01*
X198305000Y-88426428D01*
X198233571Y-88355000D01*
X198126428Y-88319285D01*
X198055000Y-88319285D01*
X197947857Y-88355000D01*
X197912142Y-88390714D01*
X197269285Y-88569285D02*
X197269285Y-89069285D01*
X197447857Y-88283571D02*
X197626428Y-88819285D01*
X197162142Y-88819285D01*
X196947857Y-88319285D02*
X196483571Y-88319285D01*
X196733571Y-88605000D01*
X196626428Y-88605000D01*
X196555000Y-88640714D01*
X196519285Y-88676428D01*
X196483571Y-88747857D01*
X196483571Y-88926428D01*
X196519285Y-88997857D01*
X196555000Y-89033571D01*
X196626428Y-89069285D01*
X196840714Y-89069285D01*
X196912142Y-89033571D01*
X196947857Y-88997857D01*
X215432142Y-83477857D02*
X215467857Y-83513571D01*
X215575000Y-83549285D01*
X215646428Y-83549285D01*
X215753571Y-83513571D01*
X215825000Y-83442142D01*
X215860714Y-83370714D01*
X215896428Y-83227857D01*
X215896428Y-83120714D01*
X215860714Y-82977857D01*
X215825000Y-82906428D01*
X215753571Y-82835000D01*
X215646428Y-82799285D01*
X215575000Y-82799285D01*
X215467857Y-82835000D01*
X215432142Y-82870714D01*
X215182142Y-82799285D02*
X214717857Y-82799285D01*
X214967857Y-83085000D01*
X214860714Y-83085000D01*
X214789285Y-83120714D01*
X214753571Y-83156428D01*
X214717857Y-83227857D01*
X214717857Y-83406428D01*
X214753571Y-83477857D01*
X214789285Y-83513571D01*
X214860714Y-83549285D01*
X215075000Y-83549285D01*
X215146428Y-83513571D01*
X215182142Y-83477857D01*
X214039285Y-82799285D02*
X214396428Y-82799285D01*
X214432142Y-83156428D01*
X214396428Y-83120714D01*
X214325000Y-83085000D01*
X214146428Y-83085000D01*
X214075000Y-83120714D01*
X214039285Y-83156428D01*
X214003571Y-83227857D01*
X214003571Y-83406428D01*
X214039285Y-83477857D01*
X214075000Y-83513571D01*
X214146428Y-83549285D01*
X214325000Y-83549285D01*
X214396428Y-83513571D01*
X214432142Y-83477857D01*
X215543942Y-99023057D02*
X215579657Y-99058771D01*
X215686800Y-99094485D01*
X215758228Y-99094485D01*
X215865371Y-99058771D01*
X215936800Y-98987342D01*
X215972514Y-98915914D01*
X216008228Y-98773057D01*
X216008228Y-98665914D01*
X215972514Y-98523057D01*
X215936800Y-98451628D01*
X215865371Y-98380200D01*
X215758228Y-98344485D01*
X215686800Y-98344485D01*
X215579657Y-98380200D01*
X215543942Y-98415914D01*
X214901085Y-98594485D02*
X214901085Y-99094485D01*
X215079657Y-98308771D02*
X215258228Y-98844485D01*
X214793942Y-98844485D01*
X214151085Y-98344485D02*
X214508228Y-98344485D01*
X214543942Y-98701628D01*
X214508228Y-98665914D01*
X214436800Y-98630200D01*
X214258228Y-98630200D01*
X214186800Y-98665914D01*
X214151085Y-98701628D01*
X214115371Y-98773057D01*
X214115371Y-98951628D01*
X214151085Y-99023057D01*
X214186800Y-99058771D01*
X214258228Y-99094485D01*
X214436800Y-99094485D01*
X214508228Y-99058771D01*
X214543942Y-99023057D01*
X215602142Y-103497857D02*
X215637857Y-103533571D01*
X215745000Y-103569285D01*
X215816428Y-103569285D01*
X215923571Y-103533571D01*
X215995000Y-103462142D01*
X216030714Y-103390714D01*
X216066428Y-103247857D01*
X216066428Y-103140714D01*
X216030714Y-102997857D01*
X215995000Y-102926428D01*
X215923571Y-102855000D01*
X215816428Y-102819285D01*
X215745000Y-102819285D01*
X215637857Y-102855000D01*
X215602142Y-102890714D01*
X214923571Y-102819285D02*
X215280714Y-102819285D01*
X215316428Y-103176428D01*
X215280714Y-103140714D01*
X215209285Y-103105000D01*
X215030714Y-103105000D01*
X214959285Y-103140714D01*
X214923571Y-103176428D01*
X214887857Y-103247857D01*
X214887857Y-103426428D01*
X214923571Y-103497857D01*
X214959285Y-103533571D01*
X215030714Y-103569285D01*
X215209285Y-103569285D01*
X215280714Y-103533571D01*
X215316428Y-103497857D01*
X214173571Y-103569285D02*
X214602142Y-103569285D01*
X214387857Y-103569285D02*
X214387857Y-102819285D01*
X214459285Y-102926428D01*
X214530714Y-102997857D01*
X214602142Y-103033571D01*
X215543942Y-91911057D02*
X215579657Y-91946771D01*
X215686800Y-91982485D01*
X215758228Y-91982485D01*
X215865371Y-91946771D01*
X215936800Y-91875342D01*
X215972514Y-91803914D01*
X216008228Y-91661057D01*
X216008228Y-91553914D01*
X215972514Y-91411057D01*
X215936800Y-91339628D01*
X215865371Y-91268200D01*
X215758228Y-91232485D01*
X215686800Y-91232485D01*
X215579657Y-91268200D01*
X215543942Y-91303914D01*
X214901085Y-91482485D02*
X214901085Y-91982485D01*
X215079657Y-91196771D02*
X215258228Y-91732485D01*
X214793942Y-91732485D01*
X214186800Y-91482485D02*
X214186800Y-91982485D01*
X214365371Y-91196771D02*
X214543942Y-91732485D01*
X214079657Y-91732485D01*
X198342142Y-86007857D02*
X198377857Y-86043571D01*
X198485000Y-86079285D01*
X198556428Y-86079285D01*
X198663571Y-86043571D01*
X198735000Y-85972142D01*
X198770714Y-85900714D01*
X198806428Y-85757857D01*
X198806428Y-85650714D01*
X198770714Y-85507857D01*
X198735000Y-85436428D01*
X198663571Y-85365000D01*
X198556428Y-85329285D01*
X198485000Y-85329285D01*
X198377857Y-85365000D01*
X198342142Y-85400714D01*
X198092142Y-85329285D02*
X197627857Y-85329285D01*
X197877857Y-85615000D01*
X197770714Y-85615000D01*
X197699285Y-85650714D01*
X197663571Y-85686428D01*
X197627857Y-85757857D01*
X197627857Y-85936428D01*
X197663571Y-86007857D01*
X197699285Y-86043571D01*
X197770714Y-86079285D01*
X197985000Y-86079285D01*
X198056428Y-86043571D01*
X198092142Y-86007857D01*
X197199285Y-85650714D02*
X197270714Y-85615000D01*
X197306428Y-85579285D01*
X197342142Y-85507857D01*
X197342142Y-85472142D01*
X197306428Y-85400714D01*
X197270714Y-85365000D01*
X197199285Y-85329285D01*
X197056428Y-85329285D01*
X196985000Y-85365000D01*
X196949285Y-85400714D01*
X196913571Y-85472142D01*
X196913571Y-85507857D01*
X196949285Y-85579285D01*
X196985000Y-85615000D01*
X197056428Y-85650714D01*
X197199285Y-85650714D01*
X197270714Y-85686428D01*
X197306428Y-85722142D01*
X197342142Y-85793571D01*
X197342142Y-85936428D01*
X197306428Y-86007857D01*
X197270714Y-86043571D01*
X197199285Y-86079285D01*
X197056428Y-86079285D01*
X196985000Y-86043571D01*
X196949285Y-86007857D01*
X196913571Y-85936428D01*
X196913571Y-85793571D01*
X196949285Y-85722142D01*
X196985000Y-85686428D01*
X197056428Y-85650714D01*
X215582142Y-104537857D02*
X215617857Y-104573571D01*
X215725000Y-104609285D01*
X215796428Y-104609285D01*
X215903571Y-104573571D01*
X215975000Y-104502142D01*
X216010714Y-104430714D01*
X216046428Y-104287857D01*
X216046428Y-104180714D01*
X216010714Y-104037857D01*
X215975000Y-103966428D01*
X215903571Y-103895000D01*
X215796428Y-103859285D01*
X215725000Y-103859285D01*
X215617857Y-103895000D01*
X215582142Y-103930714D01*
X214903571Y-103859285D02*
X215260714Y-103859285D01*
X215296428Y-104216428D01*
X215260714Y-104180714D01*
X215189285Y-104145000D01*
X215010714Y-104145000D01*
X214939285Y-104180714D01*
X214903571Y-104216428D01*
X214867857Y-104287857D01*
X214867857Y-104466428D01*
X214903571Y-104537857D01*
X214939285Y-104573571D01*
X215010714Y-104609285D01*
X215189285Y-104609285D01*
X215260714Y-104573571D01*
X215296428Y-104537857D01*
X214582142Y-103930714D02*
X214546428Y-103895000D01*
X214475000Y-103859285D01*
X214296428Y-103859285D01*
X214225000Y-103895000D01*
X214189285Y-103930714D01*
X214153571Y-104002142D01*
X214153571Y-104073571D01*
X214189285Y-104180714D01*
X214617857Y-104609285D01*
X214153571Y-104609285D01*
X215521342Y-87479457D02*
X215557057Y-87515171D01*
X215664200Y-87550885D01*
X215735628Y-87550885D01*
X215842771Y-87515171D01*
X215914200Y-87443742D01*
X215949914Y-87372314D01*
X215985628Y-87229457D01*
X215985628Y-87122314D01*
X215949914Y-86979457D01*
X215914200Y-86908028D01*
X215842771Y-86836600D01*
X215735628Y-86800885D01*
X215664200Y-86800885D01*
X215557057Y-86836600D01*
X215521342Y-86872314D01*
X214878485Y-87050885D02*
X214878485Y-87550885D01*
X215057057Y-86765171D02*
X215235628Y-87300885D01*
X214771342Y-87300885D01*
X214521342Y-86872314D02*
X214485628Y-86836600D01*
X214414200Y-86800885D01*
X214235628Y-86800885D01*
X214164200Y-86836600D01*
X214128485Y-86872314D01*
X214092771Y-86943742D01*
X214092771Y-87015171D01*
X214128485Y-87122314D01*
X214557057Y-87550885D01*
X214092771Y-87550885D01*
X215432142Y-84517857D02*
X215467857Y-84553571D01*
X215575000Y-84589285D01*
X215646428Y-84589285D01*
X215753571Y-84553571D01*
X215825000Y-84482142D01*
X215860714Y-84410714D01*
X215896428Y-84267857D01*
X215896428Y-84160714D01*
X215860714Y-84017857D01*
X215825000Y-83946428D01*
X215753571Y-83875000D01*
X215646428Y-83839285D01*
X215575000Y-83839285D01*
X215467857Y-83875000D01*
X215432142Y-83910714D01*
X215182142Y-83839285D02*
X214717857Y-83839285D01*
X214967857Y-84125000D01*
X214860714Y-84125000D01*
X214789285Y-84160714D01*
X214753571Y-84196428D01*
X214717857Y-84267857D01*
X214717857Y-84446428D01*
X214753571Y-84517857D01*
X214789285Y-84553571D01*
X214860714Y-84589285D01*
X215075000Y-84589285D01*
X215146428Y-84553571D01*
X215182142Y-84517857D01*
X214360714Y-84589285D02*
X214217857Y-84589285D01*
X214146428Y-84553571D01*
X214110714Y-84517857D01*
X214039285Y-84410714D01*
X214003571Y-84267857D01*
X214003571Y-83982142D01*
X214039285Y-83910714D01*
X214075000Y-83875000D01*
X214146428Y-83839285D01*
X214289285Y-83839285D01*
X214360714Y-83875000D01*
X214396428Y-83910714D01*
X214432142Y-83982142D01*
X214432142Y-84160714D01*
X214396428Y-84232142D01*
X214360714Y-84267857D01*
X214289285Y-84303571D01*
X214146428Y-84303571D01*
X214075000Y-84267857D01*
X214039285Y-84232142D01*
X214003571Y-84160714D01*
X91111742Y-146187057D02*
X91147457Y-146222771D01*
X91254600Y-146258485D01*
X91326028Y-146258485D01*
X91433171Y-146222771D01*
X91504600Y-146151342D01*
X91540314Y-146079914D01*
X91576028Y-145937057D01*
X91576028Y-145829914D01*
X91540314Y-145687057D01*
X91504600Y-145615628D01*
X91433171Y-145544200D01*
X91326028Y-145508485D01*
X91254600Y-145508485D01*
X91147457Y-145544200D01*
X91111742Y-145579914D01*
X90683171Y-145829914D02*
X90754600Y-145794200D01*
X90790314Y-145758485D01*
X90826028Y-145687057D01*
X90826028Y-145651342D01*
X90790314Y-145579914D01*
X90754600Y-145544200D01*
X90683171Y-145508485D01*
X90540314Y-145508485D01*
X90468885Y-145544200D01*
X90433171Y-145579914D01*
X90397457Y-145651342D01*
X90397457Y-145687057D01*
X90433171Y-145758485D01*
X90468885Y-145794200D01*
X90540314Y-145829914D01*
X90683171Y-145829914D01*
X90754600Y-145865628D01*
X90790314Y-145901342D01*
X90826028Y-145972771D01*
X90826028Y-146115628D01*
X90790314Y-146187057D01*
X90754600Y-146222771D01*
X90683171Y-146258485D01*
X90540314Y-146258485D01*
X90468885Y-146222771D01*
X90433171Y-146187057D01*
X90397457Y-146115628D01*
X90397457Y-145972771D01*
X90433171Y-145901342D01*
X90468885Y-145865628D01*
X90540314Y-145829914D01*
X89754600Y-145758485D02*
X89754600Y-146258485D01*
X89933171Y-145472771D02*
X90111742Y-146008485D01*
X89647457Y-146008485D01*
X89613142Y-138012057D02*
X89648857Y-138047771D01*
X89756000Y-138083485D01*
X89827428Y-138083485D01*
X89934571Y-138047771D01*
X90006000Y-137976342D01*
X90041714Y-137904914D01*
X90077428Y-137762057D01*
X90077428Y-137654914D01*
X90041714Y-137512057D01*
X90006000Y-137440628D01*
X89934571Y-137369200D01*
X89827428Y-137333485D01*
X89756000Y-137333485D01*
X89648857Y-137369200D01*
X89613142Y-137404914D01*
X88970285Y-137333485D02*
X89113142Y-137333485D01*
X89184571Y-137369200D01*
X89220285Y-137404914D01*
X89291714Y-137512057D01*
X89327428Y-137654914D01*
X89327428Y-137940628D01*
X89291714Y-138012057D01*
X89256000Y-138047771D01*
X89184571Y-138083485D01*
X89041714Y-138083485D01*
X88970285Y-138047771D01*
X88934571Y-138012057D01*
X88898857Y-137940628D01*
X88898857Y-137762057D01*
X88934571Y-137690628D01*
X88970285Y-137654914D01*
X89041714Y-137619200D01*
X89184571Y-137619200D01*
X89256000Y-137654914D01*
X89291714Y-137690628D01*
X89327428Y-137762057D01*
X88470285Y-137654914D02*
X88541714Y-137619200D01*
X88577428Y-137583485D01*
X88613142Y-137512057D01*
X88613142Y-137476342D01*
X88577428Y-137404914D01*
X88541714Y-137369200D01*
X88470285Y-137333485D01*
X88327428Y-137333485D01*
X88256000Y-137369200D01*
X88220285Y-137404914D01*
X88184571Y-137476342D01*
X88184571Y-137512057D01*
X88220285Y-137583485D01*
X88256000Y-137619200D01*
X88327428Y-137654914D01*
X88470285Y-137654914D01*
X88541714Y-137690628D01*
X88577428Y-137726342D01*
X88613142Y-137797771D01*
X88613142Y-137940628D01*
X88577428Y-138012057D01*
X88541714Y-138047771D01*
X88470285Y-138083485D01*
X88327428Y-138083485D01*
X88256000Y-138047771D01*
X88220285Y-138012057D01*
X88184571Y-137940628D01*
X88184571Y-137797771D01*
X88220285Y-137726342D01*
X88256000Y-137690628D01*
X88327428Y-137654914D01*
X96394457Y-141641457D02*
X96430171Y-141605742D01*
X96465885Y-141498600D01*
X96465885Y-141427171D01*
X96430171Y-141320028D01*
X96358742Y-141248600D01*
X96287314Y-141212885D01*
X96144457Y-141177171D01*
X96037314Y-141177171D01*
X95894457Y-141212885D01*
X95823028Y-141248600D01*
X95751600Y-141320028D01*
X95715885Y-141427171D01*
X95715885Y-141498600D01*
X95751600Y-141605742D01*
X95787314Y-141641457D01*
X95715885Y-141891457D02*
X95715885Y-142391457D01*
X96465885Y-142070028D01*
X96465885Y-143070028D02*
X96465885Y-142641457D01*
X96465885Y-142855742D02*
X95715885Y-142855742D01*
X95823028Y-142784314D01*
X95894457Y-142712885D01*
X95930171Y-142641457D01*
X91134742Y-143879457D02*
X91170457Y-143915171D01*
X91277600Y-143950885D01*
X91349028Y-143950885D01*
X91456171Y-143915171D01*
X91527600Y-143843742D01*
X91563314Y-143772314D01*
X91599028Y-143629457D01*
X91599028Y-143522314D01*
X91563314Y-143379457D01*
X91527600Y-143308028D01*
X91456171Y-143236600D01*
X91349028Y-143200885D01*
X91277600Y-143200885D01*
X91170457Y-143236600D01*
X91134742Y-143272314D01*
X90884742Y-143200885D02*
X90384742Y-143200885D01*
X90706171Y-143950885D01*
X90134742Y-143272314D02*
X90099028Y-143236600D01*
X90027600Y-143200885D01*
X89849028Y-143200885D01*
X89777600Y-143236600D01*
X89741885Y-143272314D01*
X89706171Y-143343742D01*
X89706171Y-143415171D01*
X89741885Y-143522314D01*
X90170457Y-143950885D01*
X89706171Y-143950885D01*
X98269742Y-143697057D02*
X98305457Y-143732771D01*
X98412600Y-143768485D01*
X98484028Y-143768485D01*
X98591171Y-143732771D01*
X98662600Y-143661342D01*
X98698314Y-143589914D01*
X98734028Y-143447057D01*
X98734028Y-143339914D01*
X98698314Y-143197057D01*
X98662600Y-143125628D01*
X98591171Y-143054200D01*
X98484028Y-143018485D01*
X98412600Y-143018485D01*
X98305457Y-143054200D01*
X98269742Y-143089914D01*
X98019742Y-143018485D02*
X97519742Y-143018485D01*
X97841171Y-143768485D01*
X97305457Y-143018485D02*
X96841171Y-143018485D01*
X97091171Y-143304200D01*
X96984028Y-143304200D01*
X96912600Y-143339914D01*
X96876885Y-143375628D01*
X96841171Y-143447057D01*
X96841171Y-143625628D01*
X96876885Y-143697057D01*
X96912600Y-143732771D01*
X96984028Y-143768485D01*
X97198314Y-143768485D01*
X97269742Y-143732771D01*
X97305457Y-143697057D01*
X93841457Y-146685457D02*
X93877171Y-146649742D01*
X93912885Y-146542600D01*
X93912885Y-146471171D01*
X93877171Y-146364028D01*
X93805742Y-146292600D01*
X93734314Y-146256885D01*
X93591457Y-146221171D01*
X93484314Y-146221171D01*
X93341457Y-146256885D01*
X93270028Y-146292600D01*
X93198600Y-146364028D01*
X93162885Y-146471171D01*
X93162885Y-146542600D01*
X93198600Y-146649742D01*
X93234314Y-146685457D01*
X93484314Y-147114028D02*
X93448600Y-147042600D01*
X93412885Y-147006885D01*
X93341457Y-146971171D01*
X93305742Y-146971171D01*
X93234314Y-147006885D01*
X93198600Y-147042600D01*
X93162885Y-147114028D01*
X93162885Y-147256885D01*
X93198600Y-147328314D01*
X93234314Y-147364028D01*
X93305742Y-147399742D01*
X93341457Y-147399742D01*
X93412885Y-147364028D01*
X93448600Y-147328314D01*
X93484314Y-147256885D01*
X93484314Y-147114028D01*
X93520028Y-147042600D01*
X93555742Y-147006885D01*
X93627171Y-146971171D01*
X93770028Y-146971171D01*
X93841457Y-147006885D01*
X93877171Y-147042600D01*
X93912885Y-147114028D01*
X93912885Y-147256885D01*
X93877171Y-147328314D01*
X93841457Y-147364028D01*
X93770028Y-147399742D01*
X93627171Y-147399742D01*
X93555742Y-147364028D01*
X93520028Y-147328314D01*
X93484314Y-147256885D01*
X93162885Y-148078314D02*
X93162885Y-147721171D01*
X93520028Y-147685457D01*
X93484314Y-147721171D01*
X93448600Y-147792600D01*
X93448600Y-147971171D01*
X93484314Y-148042600D01*
X93520028Y-148078314D01*
X93591457Y-148114028D01*
X93770028Y-148114028D01*
X93841457Y-148078314D01*
X93877171Y-148042600D01*
X93912885Y-147971171D01*
X93912885Y-147792600D01*
X93877171Y-147721171D01*
X93841457Y-147685457D01*
X91428457Y-148232457D02*
X91464171Y-148196742D01*
X91499885Y-148089600D01*
X91499885Y-148018171D01*
X91464171Y-147911028D01*
X91392742Y-147839600D01*
X91321314Y-147803885D01*
X91178457Y-147768171D01*
X91071314Y-147768171D01*
X90928457Y-147803885D01*
X90857028Y-147839600D01*
X90785600Y-147911028D01*
X90749885Y-148018171D01*
X90749885Y-148089600D01*
X90785600Y-148196742D01*
X90821314Y-148232457D01*
X91071314Y-148661028D02*
X91035600Y-148589600D01*
X90999885Y-148553885D01*
X90928457Y-148518171D01*
X90892742Y-148518171D01*
X90821314Y-148553885D01*
X90785600Y-148589600D01*
X90749885Y-148661028D01*
X90749885Y-148803885D01*
X90785600Y-148875314D01*
X90821314Y-148911028D01*
X90892742Y-148946742D01*
X90928457Y-148946742D01*
X90999885Y-148911028D01*
X91035600Y-148875314D01*
X91071314Y-148803885D01*
X91071314Y-148661028D01*
X91107028Y-148589600D01*
X91142742Y-148553885D01*
X91214171Y-148518171D01*
X91357028Y-148518171D01*
X91428457Y-148553885D01*
X91464171Y-148589600D01*
X91499885Y-148661028D01*
X91499885Y-148803885D01*
X91464171Y-148875314D01*
X91428457Y-148911028D01*
X91357028Y-148946742D01*
X91214171Y-148946742D01*
X91142742Y-148911028D01*
X91107028Y-148875314D01*
X91071314Y-148803885D01*
X90749885Y-149196742D02*
X90749885Y-149696742D01*
X91499885Y-149375314D01*
X95492457Y-147066457D02*
X95528171Y-147030742D01*
X95563885Y-146923600D01*
X95563885Y-146852171D01*
X95528171Y-146745028D01*
X95456742Y-146673600D01*
X95385314Y-146637885D01*
X95242457Y-146602171D01*
X95135314Y-146602171D01*
X94992457Y-146637885D01*
X94921028Y-146673600D01*
X94849600Y-146745028D01*
X94813885Y-146852171D01*
X94813885Y-146923600D01*
X94849600Y-147030742D01*
X94885314Y-147066457D01*
X95135314Y-147495028D02*
X95099600Y-147423600D01*
X95063885Y-147387885D01*
X94992457Y-147352171D01*
X94956742Y-147352171D01*
X94885314Y-147387885D01*
X94849600Y-147423600D01*
X94813885Y-147495028D01*
X94813885Y-147637885D01*
X94849600Y-147709314D01*
X94885314Y-147745028D01*
X94956742Y-147780742D01*
X94992457Y-147780742D01*
X95063885Y-147745028D01*
X95099600Y-147709314D01*
X95135314Y-147637885D01*
X95135314Y-147495028D01*
X95171028Y-147423600D01*
X95206742Y-147387885D01*
X95278171Y-147352171D01*
X95421028Y-147352171D01*
X95492457Y-147387885D01*
X95528171Y-147423600D01*
X95563885Y-147495028D01*
X95563885Y-147637885D01*
X95528171Y-147709314D01*
X95492457Y-147745028D01*
X95421028Y-147780742D01*
X95278171Y-147780742D01*
X95206742Y-147745028D01*
X95171028Y-147709314D01*
X95135314Y-147637885D01*
X94813885Y-148423600D02*
X94813885Y-148280742D01*
X94849600Y-148209314D01*
X94885314Y-148173600D01*
X94992457Y-148102171D01*
X95135314Y-148066457D01*
X95421028Y-148066457D01*
X95492457Y-148102171D01*
X95528171Y-148137885D01*
X95563885Y-148209314D01*
X95563885Y-148352171D01*
X95528171Y-148423600D01*
X95492457Y-148459314D01*
X95421028Y-148495028D01*
X95242457Y-148495028D01*
X95171028Y-148459314D01*
X95135314Y-148423600D01*
X95099600Y-148352171D01*
X95099600Y-148209314D01*
X95135314Y-148137885D01*
X95171028Y-148102171D01*
X95242457Y-148066457D01*
X88802457Y-152273457D02*
X88838171Y-152237742D01*
X88873885Y-152130600D01*
X88873885Y-152059171D01*
X88838171Y-151952028D01*
X88766742Y-151880600D01*
X88695314Y-151844885D01*
X88552457Y-151809171D01*
X88445314Y-151809171D01*
X88302457Y-151844885D01*
X88231028Y-151880600D01*
X88159600Y-151952028D01*
X88123885Y-152059171D01*
X88123885Y-152130600D01*
X88159600Y-152237742D01*
X88195314Y-152273457D01*
X88873885Y-152630600D02*
X88873885Y-152773457D01*
X88838171Y-152844885D01*
X88802457Y-152880600D01*
X88695314Y-152952028D01*
X88552457Y-152987742D01*
X88266742Y-152987742D01*
X88195314Y-152952028D01*
X88159600Y-152916314D01*
X88123885Y-152844885D01*
X88123885Y-152702028D01*
X88159600Y-152630600D01*
X88195314Y-152594885D01*
X88266742Y-152559171D01*
X88445314Y-152559171D01*
X88516742Y-152594885D01*
X88552457Y-152630600D01*
X88588171Y-152702028D01*
X88588171Y-152844885D01*
X88552457Y-152916314D01*
X88516742Y-152952028D01*
X88445314Y-152987742D01*
X88195314Y-153273457D02*
X88159600Y-153309171D01*
X88123885Y-153380600D01*
X88123885Y-153559171D01*
X88159600Y-153630600D01*
X88195314Y-153666314D01*
X88266742Y-153702028D01*
X88338171Y-153702028D01*
X88445314Y-153666314D01*
X88873885Y-153237742D01*
X88873885Y-153702028D01*
X87024457Y-151651457D02*
X87060171Y-151615742D01*
X87095885Y-151508600D01*
X87095885Y-151437171D01*
X87060171Y-151330028D01*
X86988742Y-151258600D01*
X86917314Y-151222885D01*
X86774457Y-151187171D01*
X86667314Y-151187171D01*
X86524457Y-151222885D01*
X86453028Y-151258600D01*
X86381600Y-151330028D01*
X86345885Y-151437171D01*
X86345885Y-151508600D01*
X86381600Y-151615742D01*
X86417314Y-151651457D01*
X87095885Y-152008600D02*
X87095885Y-152151457D01*
X87060171Y-152222885D01*
X87024457Y-152258600D01*
X86917314Y-152330028D01*
X86774457Y-152365742D01*
X86488742Y-152365742D01*
X86417314Y-152330028D01*
X86381600Y-152294314D01*
X86345885Y-152222885D01*
X86345885Y-152080028D01*
X86381600Y-152008600D01*
X86417314Y-151972885D01*
X86488742Y-151937171D01*
X86667314Y-151937171D01*
X86738742Y-151972885D01*
X86774457Y-152008600D01*
X86810171Y-152080028D01*
X86810171Y-152222885D01*
X86774457Y-152294314D01*
X86738742Y-152330028D01*
X86667314Y-152365742D01*
X87095885Y-153080028D02*
X87095885Y-152651457D01*
X87095885Y-152865742D02*
X86345885Y-152865742D01*
X86453028Y-152794314D01*
X86524457Y-152722885D01*
X86560171Y-152651457D01*
X162815085Y-142680885D02*
X163065085Y-142323742D01*
X163243657Y-142680885D02*
X163243657Y-141930885D01*
X162957942Y-141930885D01*
X162886514Y-141966600D01*
X162850800Y-142002314D01*
X162815085Y-142073742D01*
X162815085Y-142180885D01*
X162850800Y-142252314D01*
X162886514Y-142288028D01*
X162957942Y-142323742D01*
X163243657Y-142323742D01*
X162100800Y-142680885D02*
X162529371Y-142680885D01*
X162315085Y-142680885D02*
X162315085Y-141930885D01*
X162386514Y-142038028D01*
X162457942Y-142109457D01*
X162529371Y-142145171D01*
X161850800Y-141930885D02*
X161386514Y-141930885D01*
X161636514Y-142216600D01*
X161529371Y-142216600D01*
X161457942Y-142252314D01*
X161422228Y-142288028D01*
X161386514Y-142359457D01*
X161386514Y-142538028D01*
X161422228Y-142609457D01*
X161457942Y-142645171D01*
X161529371Y-142680885D01*
X161743657Y-142680885D01*
X161815085Y-142645171D01*
X161850800Y-142609457D01*
X160672228Y-142680885D02*
X161100800Y-142680885D01*
X160886514Y-142680885D02*
X160886514Y-141930885D01*
X160957942Y-142038028D01*
X161029371Y-142109457D01*
X161100800Y-142145171D01*
X161367285Y-151926485D02*
X161617285Y-151569342D01*
X161795857Y-151926485D02*
X161795857Y-151176485D01*
X161510142Y-151176485D01*
X161438714Y-151212200D01*
X161403000Y-151247914D01*
X161367285Y-151319342D01*
X161367285Y-151426485D01*
X161403000Y-151497914D01*
X161438714Y-151533628D01*
X161510142Y-151569342D01*
X161795857Y-151569342D01*
X160653000Y-151926485D02*
X161081571Y-151926485D01*
X160867285Y-151926485D02*
X160867285Y-151176485D01*
X160938714Y-151283628D01*
X161010142Y-151355057D01*
X161081571Y-151390771D01*
X160403000Y-151176485D02*
X159938714Y-151176485D01*
X160188714Y-151462200D01*
X160081571Y-151462200D01*
X160010142Y-151497914D01*
X159974428Y-151533628D01*
X159938714Y-151605057D01*
X159938714Y-151783628D01*
X159974428Y-151855057D01*
X160010142Y-151890771D01*
X160081571Y-151926485D01*
X160295857Y-151926485D01*
X160367285Y-151890771D01*
X160403000Y-151855057D01*
X159688714Y-151176485D02*
X159224428Y-151176485D01*
X159474428Y-151462200D01*
X159367285Y-151462200D01*
X159295857Y-151497914D01*
X159260142Y-151533628D01*
X159224428Y-151605057D01*
X159224428Y-151783628D01*
X159260142Y-151855057D01*
X159295857Y-151890771D01*
X159367285Y-151926485D01*
X159581571Y-151926485D01*
X159653000Y-151890771D01*
X159688714Y-151855057D01*
X57641685Y-29897800D02*
X57284542Y-29647800D01*
X57641685Y-29469228D02*
X56891685Y-29469228D01*
X56891685Y-29754942D01*
X56927400Y-29826371D01*
X56963114Y-29862085D01*
X57034542Y-29897800D01*
X57141685Y-29897800D01*
X57213114Y-29862085D01*
X57248828Y-29826371D01*
X57284542Y-29754942D01*
X57284542Y-29469228D01*
X56891685Y-30540657D02*
X56891685Y-30397800D01*
X56927400Y-30326371D01*
X56963114Y-30290657D01*
X57070257Y-30219228D01*
X57213114Y-30183514D01*
X57498828Y-30183514D01*
X57570257Y-30219228D01*
X57605971Y-30254942D01*
X57641685Y-30326371D01*
X57641685Y-30469228D01*
X57605971Y-30540657D01*
X57570257Y-30576371D01*
X57498828Y-30612085D01*
X57320257Y-30612085D01*
X57248828Y-30576371D01*
X57213114Y-30540657D01*
X57177400Y-30469228D01*
X57177400Y-30326371D01*
X57213114Y-30254942D01*
X57248828Y-30219228D01*
X57320257Y-30183514D01*
X61999400Y-30260485D02*
X62249400Y-29903342D01*
X62427971Y-30260485D02*
X62427971Y-29510485D01*
X62142257Y-29510485D01*
X62070828Y-29546200D01*
X62035114Y-29581914D01*
X61999400Y-29653342D01*
X61999400Y-29760485D01*
X62035114Y-29831914D01*
X62070828Y-29867628D01*
X62142257Y-29903342D01*
X62427971Y-29903342D01*
X61749400Y-29510485D02*
X61249400Y-29510485D01*
X61570828Y-30260485D01*
X61999400Y-28888885D02*
X62249400Y-28531742D01*
X62427971Y-28888885D02*
X62427971Y-28138885D01*
X62142257Y-28138885D01*
X62070828Y-28174600D01*
X62035114Y-28210314D01*
X61999400Y-28281742D01*
X61999400Y-28388885D01*
X62035114Y-28460314D01*
X62070828Y-28496028D01*
X62142257Y-28531742D01*
X62427971Y-28531742D01*
X61356542Y-28388885D02*
X61356542Y-28888885D01*
X61535114Y-28103171D02*
X61713685Y-28638885D01*
X61249400Y-28638885D01*
X60181685Y-46263657D02*
X59824542Y-46013657D01*
X60181685Y-45835085D02*
X59431685Y-45835085D01*
X59431685Y-46120800D01*
X59467400Y-46192228D01*
X59503114Y-46227942D01*
X59574542Y-46263657D01*
X59681685Y-46263657D01*
X59753114Y-46227942D01*
X59788828Y-46192228D01*
X59824542Y-46120800D01*
X59824542Y-45835085D01*
X59503114Y-46549371D02*
X59467400Y-46585085D01*
X59431685Y-46656514D01*
X59431685Y-46835085D01*
X59467400Y-46906514D01*
X59503114Y-46942228D01*
X59574542Y-46977942D01*
X59645971Y-46977942D01*
X59753114Y-46942228D01*
X60181685Y-46513657D01*
X60181685Y-46977942D01*
X59681685Y-47620800D02*
X60181685Y-47620800D01*
X59395971Y-47442228D02*
X59931685Y-47263657D01*
X59931685Y-47727942D01*
X60181685Y-48768457D02*
X59824542Y-48518457D01*
X60181685Y-48339885D02*
X59431685Y-48339885D01*
X59431685Y-48625600D01*
X59467400Y-48697028D01*
X59503114Y-48732742D01*
X59574542Y-48768457D01*
X59681685Y-48768457D01*
X59753114Y-48732742D01*
X59788828Y-48697028D01*
X59824542Y-48625600D01*
X59824542Y-48339885D01*
X59503114Y-49054171D02*
X59467400Y-49089885D01*
X59431685Y-49161314D01*
X59431685Y-49339885D01*
X59467400Y-49411314D01*
X59503114Y-49447028D01*
X59574542Y-49482742D01*
X59645971Y-49482742D01*
X59753114Y-49447028D01*
X60181685Y-49018457D01*
X60181685Y-49482742D01*
X59431685Y-50125600D02*
X59431685Y-49982742D01*
X59467400Y-49911314D01*
X59503114Y-49875600D01*
X59610257Y-49804171D01*
X59753114Y-49768457D01*
X60038828Y-49768457D01*
X60110257Y-49804171D01*
X60145971Y-49839885D01*
X60181685Y-49911314D01*
X60181685Y-50054171D01*
X60145971Y-50125600D01*
X60110257Y-50161314D01*
X60038828Y-50197028D01*
X59860257Y-50197028D01*
X59788828Y-50161314D01*
X59753114Y-50125600D01*
X59717400Y-50054171D01*
X59717400Y-49911314D01*
X59753114Y-49839885D01*
X59788828Y-49804171D01*
X59860257Y-49768457D01*
X60181685Y-51308457D02*
X59824542Y-51058457D01*
X60181685Y-50879885D02*
X59431685Y-50879885D01*
X59431685Y-51165600D01*
X59467400Y-51237028D01*
X59503114Y-51272742D01*
X59574542Y-51308457D01*
X59681685Y-51308457D01*
X59753114Y-51272742D01*
X59788828Y-51237028D01*
X59824542Y-51165600D01*
X59824542Y-50879885D01*
X59503114Y-51594171D02*
X59467400Y-51629885D01*
X59431685Y-51701314D01*
X59431685Y-51879885D01*
X59467400Y-51951314D01*
X59503114Y-51987028D01*
X59574542Y-52022742D01*
X59645971Y-52022742D01*
X59753114Y-51987028D01*
X60181685Y-51558457D01*
X60181685Y-52022742D01*
X59753114Y-52451314D02*
X59717400Y-52379885D01*
X59681685Y-52344171D01*
X59610257Y-52308457D01*
X59574542Y-52308457D01*
X59503114Y-52344171D01*
X59467400Y-52379885D01*
X59431685Y-52451314D01*
X59431685Y-52594171D01*
X59467400Y-52665600D01*
X59503114Y-52701314D01*
X59574542Y-52737028D01*
X59610257Y-52737028D01*
X59681685Y-52701314D01*
X59717400Y-52665600D01*
X59753114Y-52594171D01*
X59753114Y-52451314D01*
X59788828Y-52379885D01*
X59824542Y-52344171D01*
X59895971Y-52308457D01*
X60038828Y-52308457D01*
X60110257Y-52344171D01*
X60145971Y-52379885D01*
X60181685Y-52451314D01*
X60181685Y-52594171D01*
X60145971Y-52665600D01*
X60110257Y-52701314D01*
X60038828Y-52737028D01*
X59895971Y-52737028D01*
X59824542Y-52701314D01*
X59788828Y-52665600D01*
X59753114Y-52594171D01*
X156693685Y-142680885D02*
X156943685Y-142323742D01*
X157122257Y-142680885D02*
X157122257Y-141930885D01*
X156836542Y-141930885D01*
X156765114Y-141966600D01*
X156729400Y-142002314D01*
X156693685Y-142073742D01*
X156693685Y-142180885D01*
X156729400Y-142252314D01*
X156765114Y-142288028D01*
X156836542Y-142323742D01*
X157122257Y-142323742D01*
X155979400Y-142680885D02*
X156407971Y-142680885D01*
X156193685Y-142680885D02*
X156193685Y-141930885D01*
X156265114Y-142038028D01*
X156336542Y-142109457D01*
X156407971Y-142145171D01*
X155729400Y-141930885D02*
X155265114Y-141930885D01*
X155515114Y-142216600D01*
X155407971Y-142216600D01*
X155336542Y-142252314D01*
X155300828Y-142288028D01*
X155265114Y-142359457D01*
X155265114Y-142538028D01*
X155300828Y-142609457D01*
X155336542Y-142645171D01*
X155407971Y-142680885D01*
X155622257Y-142680885D01*
X155693685Y-142645171D01*
X155729400Y-142609457D01*
X154800828Y-141930885D02*
X154729400Y-141930885D01*
X154657971Y-141966600D01*
X154622257Y-142002314D01*
X154586542Y-142073742D01*
X154550828Y-142216600D01*
X154550828Y-142395171D01*
X154586542Y-142538028D01*
X154622257Y-142609457D01*
X154657971Y-142645171D01*
X154729400Y-142680885D01*
X154800828Y-142680885D01*
X154872257Y-142645171D01*
X154907971Y-142609457D01*
X154943685Y-142538028D01*
X154979400Y-142395171D01*
X154979400Y-142216600D01*
X154943685Y-142073742D01*
X154907971Y-142002314D01*
X154872257Y-141966600D01*
X154800828Y-141930885D01*
X51423942Y-98851685D02*
X51673942Y-98494542D01*
X51852514Y-98851685D02*
X51852514Y-98101685D01*
X51566800Y-98101685D01*
X51495371Y-98137400D01*
X51459657Y-98173114D01*
X51423942Y-98244542D01*
X51423942Y-98351685D01*
X51459657Y-98423114D01*
X51495371Y-98458828D01*
X51566800Y-98494542D01*
X51852514Y-98494542D01*
X51173942Y-98101685D02*
X50673942Y-98101685D01*
X50995371Y-98851685D01*
X50281085Y-98423114D02*
X50352514Y-98387400D01*
X50388228Y-98351685D01*
X50423942Y-98280257D01*
X50423942Y-98244542D01*
X50388228Y-98173114D01*
X50352514Y-98137400D01*
X50281085Y-98101685D01*
X50138228Y-98101685D01*
X50066800Y-98137400D01*
X50031085Y-98173114D01*
X49995371Y-98244542D01*
X49995371Y-98280257D01*
X50031085Y-98351685D01*
X50066800Y-98387400D01*
X50138228Y-98423114D01*
X50281085Y-98423114D01*
X50352514Y-98458828D01*
X50388228Y-98494542D01*
X50423942Y-98565971D01*
X50423942Y-98708828D01*
X50388228Y-98780257D01*
X50352514Y-98815971D01*
X50281085Y-98851685D01*
X50138228Y-98851685D01*
X50066800Y-98815971D01*
X50031085Y-98780257D01*
X49995371Y-98708828D01*
X49995371Y-98565971D01*
X50031085Y-98494542D01*
X50066800Y-98458828D01*
X50138228Y-98423114D01*
X196622142Y-97887857D02*
X196657857Y-97923571D01*
X196765000Y-97959285D01*
X196836428Y-97959285D01*
X196943571Y-97923571D01*
X197015000Y-97852142D01*
X197050714Y-97780714D01*
X197086428Y-97637857D01*
X197086428Y-97530714D01*
X197050714Y-97387857D01*
X197015000Y-97316428D01*
X196943571Y-97245000D01*
X196836428Y-97209285D01*
X196765000Y-97209285D01*
X196657857Y-97245000D01*
X196622142Y-97280714D01*
X195979285Y-97459285D02*
X195979285Y-97959285D01*
X196157857Y-97173571D02*
X196336428Y-97709285D01*
X195872142Y-97709285D01*
X195657857Y-97209285D02*
X195157857Y-97209285D01*
X195479285Y-97959285D01*
X169722342Y-92261885D02*
X169972342Y-91904742D01*
X170150914Y-92261885D02*
X170150914Y-91511885D01*
X169865200Y-91511885D01*
X169793771Y-91547600D01*
X169758057Y-91583314D01*
X169722342Y-91654742D01*
X169722342Y-91761885D01*
X169758057Y-91833314D01*
X169793771Y-91869028D01*
X169865200Y-91904742D01*
X170150914Y-91904742D01*
X169472342Y-91511885D02*
X168972342Y-91511885D01*
X169293771Y-92261885D01*
X168543771Y-91511885D02*
X168472342Y-91511885D01*
X168400914Y-91547600D01*
X168365200Y-91583314D01*
X168329485Y-91654742D01*
X168293771Y-91797600D01*
X168293771Y-91976171D01*
X168329485Y-92119028D01*
X168365200Y-92190457D01*
X168400914Y-92226171D01*
X168472342Y-92261885D01*
X168543771Y-92261885D01*
X168615200Y-92226171D01*
X168650914Y-92190457D01*
X168686628Y-92119028D01*
X168722342Y-91976171D01*
X168722342Y-91797600D01*
X168686628Y-91654742D01*
X168650914Y-91583314D01*
X168615200Y-91547600D01*
X168543771Y-91511885D01*
X136676942Y-58352885D02*
X136926942Y-57995742D01*
X137105514Y-58352885D02*
X137105514Y-57602885D01*
X136819800Y-57602885D01*
X136748371Y-57638600D01*
X136712657Y-57674314D01*
X136676942Y-57745742D01*
X136676942Y-57852885D01*
X136712657Y-57924314D01*
X136748371Y-57960028D01*
X136819800Y-57995742D01*
X137105514Y-57995742D01*
X136426942Y-57602885D02*
X135962657Y-57602885D01*
X136212657Y-57888600D01*
X136105514Y-57888600D01*
X136034085Y-57924314D01*
X135998371Y-57960028D01*
X135962657Y-58031457D01*
X135962657Y-58210028D01*
X135998371Y-58281457D01*
X136034085Y-58317171D01*
X136105514Y-58352885D01*
X136319800Y-58352885D01*
X136391228Y-58317171D01*
X136426942Y-58281457D01*
X135712657Y-57602885D02*
X135248371Y-57602885D01*
X135498371Y-57888600D01*
X135391228Y-57888600D01*
X135319800Y-57924314D01*
X135284085Y-57960028D01*
X135248371Y-58031457D01*
X135248371Y-58210028D01*
X135284085Y-58281457D01*
X135319800Y-58317171D01*
X135391228Y-58352885D01*
X135605514Y-58352885D01*
X135676942Y-58317171D01*
X135712657Y-58281457D01*
X169178342Y-57819885D02*
X169428342Y-57462742D01*
X169606914Y-57819885D02*
X169606914Y-57069885D01*
X169321200Y-57069885D01*
X169249771Y-57105600D01*
X169214057Y-57141314D01*
X169178342Y-57212742D01*
X169178342Y-57319885D01*
X169214057Y-57391314D01*
X169249771Y-57427028D01*
X169321200Y-57462742D01*
X169606914Y-57462742D01*
X168928342Y-57069885D02*
X168464057Y-57069885D01*
X168714057Y-57355600D01*
X168606914Y-57355600D01*
X168535485Y-57391314D01*
X168499771Y-57427028D01*
X168464057Y-57498457D01*
X168464057Y-57677028D01*
X168499771Y-57748457D01*
X168535485Y-57784171D01*
X168606914Y-57819885D01*
X168821200Y-57819885D01*
X168892628Y-57784171D01*
X168928342Y-57748457D01*
X168178342Y-57141314D02*
X168142628Y-57105600D01*
X168071200Y-57069885D01*
X167892628Y-57069885D01*
X167821200Y-57105600D01*
X167785485Y-57141314D01*
X167749771Y-57212742D01*
X167749771Y-57284171D01*
X167785485Y-57391314D01*
X168214057Y-57819885D01*
X167749771Y-57819885D01*
M02*
