G04 #@! TF.GenerationSoftware,KiCad,Pcbnew,5.1.6-c6e7f7d~87~ubuntu18.04.1*
G04 #@! TF.CreationDate,2020-08-14T22:16:59+05:30*
G04 #@! TF.ProjectId,Aardonyx,41617264-6f6e-4797-982e-6b696361645f,v1.0*
G04 #@! TF.SameCoordinates,Original*
G04 #@! TF.FileFunction,Other,User*
%FSLAX46Y46*%
G04 Gerber Fmt 4.6, Leading zero omitted, Abs format (unit mm)*
G04 Created by KiCad (PCBNEW 5.1.6-c6e7f7d~87~ubuntu18.04.1) date 2020-08-14 22:16:59*
%MOMM*%
%LPD*%
G01*
G04 APERTURE LIST*
G04 #@! TA.AperFunction,Profile*
%ADD10C,0.100000*%
G04 #@! TD*
%ADD11C,0.050000*%
G04 APERTURE END LIST*
D10*
X43561000Y-162560000D02*
X43561000Y-11684000D01*
X283824680Y-162562540D02*
X43561000Y-162557460D01*
X283824680Y-11684000D02*
X283824680Y-162560000D01*
X43561000Y-11684000D02*
X283824680Y-11684000D01*
D11*
X52513800Y-143997800D02*
X52513800Y-145457800D01*
X52513800Y-145457800D02*
X55473800Y-145457800D01*
X55473800Y-145457800D02*
X55473800Y-143997800D01*
X55473800Y-143997800D02*
X52513800Y-143997800D01*
X199417800Y-81726000D02*
X212417800Y-81726000D01*
X199417800Y-105726000D02*
X199417800Y-81726000D01*
X212417800Y-105726000D02*
X199417800Y-105726000D01*
X212417800Y-81726000D02*
X212417800Y-105726000D01*
X164120200Y-97162200D02*
X164120200Y-96222200D01*
X164120200Y-96222200D02*
X162260200Y-96222200D01*
X162260200Y-96222200D02*
X162260200Y-97162200D01*
X162260200Y-97162200D02*
X164120200Y-97162200D01*
X138710000Y-96570000D02*
X139650000Y-96570000D01*
X139650000Y-96570000D02*
X139650000Y-94710000D01*
X139650000Y-94710000D02*
X138710000Y-94710000D01*
X138710000Y-94710000D02*
X138710000Y-96570000D01*
X135176200Y-110946600D02*
X134236200Y-110946600D01*
X134236200Y-110946600D02*
X134236200Y-112806600D01*
X134236200Y-112806600D02*
X135176200Y-112806600D01*
X135176200Y-112806600D02*
X135176200Y-110946600D01*
X65138000Y-31213600D02*
X65138000Y-34013600D01*
X60338000Y-34013600D02*
X60338000Y-31213600D01*
X60338000Y-34013600D02*
X65138000Y-34013600D01*
X60338000Y-31213600D02*
X65138000Y-31213600D01*
X57902200Y-51778000D02*
X57902200Y-50838000D01*
X57902200Y-50838000D02*
X56042200Y-50838000D01*
X56042200Y-50838000D02*
X56042200Y-51778000D01*
X56042200Y-51778000D02*
X57902200Y-51778000D01*
X142430600Y-94091400D02*
X141490600Y-94091400D01*
X141490600Y-94091400D02*
X141490600Y-95951400D01*
X141490600Y-95951400D02*
X142430600Y-95951400D01*
X142430600Y-95951400D02*
X142430600Y-94091400D01*
X144335600Y-94091400D02*
X143395600Y-94091400D01*
X143395600Y-94091400D02*
X143395600Y-95951400D01*
X143395600Y-95951400D02*
X144335600Y-95951400D01*
X144335600Y-95951400D02*
X144335600Y-94091400D01*
X146088200Y-94167600D02*
X145148200Y-94167600D01*
X145148200Y-94167600D02*
X145148200Y-96027600D01*
X145148200Y-96027600D02*
X146088200Y-96027600D01*
X146088200Y-96027600D02*
X146088200Y-94167600D01*
X150713800Y-96634400D02*
X150713800Y-95694400D01*
X150713800Y-95694400D02*
X148853800Y-95694400D01*
X148853800Y-95694400D02*
X148853800Y-96634400D01*
X148853800Y-96634400D02*
X150713800Y-96634400D01*
X154092000Y-104051200D02*
X154092000Y-103111200D01*
X154092000Y-103111200D02*
X152232000Y-103111200D01*
X152232000Y-103111200D02*
X152232000Y-104051200D01*
X152232000Y-104051200D02*
X154092000Y-104051200D01*
X154041200Y-106489600D02*
X154041200Y-105549600D01*
X154041200Y-105549600D02*
X152181200Y-105549600D01*
X152181200Y-105549600D02*
X152181200Y-106489600D01*
X152181200Y-106489600D02*
X154041200Y-106489600D01*
X164095200Y-95792200D02*
X164095200Y-94852200D01*
X164095200Y-94852200D02*
X162235200Y-94852200D01*
X162235200Y-94852200D02*
X162235200Y-95792200D01*
X162235200Y-95792200D02*
X164095200Y-95792200D01*
X170170200Y-90106600D02*
X170170200Y-89166600D01*
X170170200Y-89166600D02*
X168310200Y-89166600D01*
X168310200Y-89166600D02*
X168310200Y-90106600D01*
X168310200Y-90106600D02*
X170170200Y-90106600D01*
X170170200Y-88836600D02*
X170170200Y-87896600D01*
X170170200Y-87896600D02*
X168310200Y-87896600D01*
X168310200Y-87896600D02*
X168310200Y-88836600D01*
X168310200Y-88836600D02*
X170170200Y-88836600D01*
X170170200Y-86296600D02*
X170170200Y-85356600D01*
X170170200Y-85356600D02*
X168310200Y-85356600D01*
X168310200Y-85356600D02*
X168310200Y-86296600D01*
X168310200Y-86296600D02*
X170170200Y-86296600D01*
X170166200Y-85070600D02*
X170166200Y-84130600D01*
X170166200Y-84130600D02*
X168306200Y-84130600D01*
X168306200Y-84130600D02*
X168306200Y-85070600D01*
X168306200Y-85070600D02*
X170166200Y-85070600D01*
X170147200Y-83502600D02*
X170147200Y-82562600D01*
X170147200Y-82562600D02*
X168287200Y-82562600D01*
X168287200Y-82562600D02*
X168287200Y-83502600D01*
X168287200Y-83502600D02*
X170147200Y-83502600D01*
X170170200Y-81978600D02*
X170170200Y-81038600D01*
X170170200Y-81038600D02*
X168310200Y-81038600D01*
X168310200Y-81038600D02*
X168310200Y-81978600D01*
X168310200Y-81978600D02*
X170170200Y-81978600D01*
X170170200Y-80454600D02*
X170170200Y-79514600D01*
X170170200Y-79514600D02*
X168310200Y-79514600D01*
X168310200Y-79514600D02*
X168310200Y-80454600D01*
X168310200Y-80454600D02*
X170170200Y-80454600D01*
X169916200Y-77914600D02*
X169916200Y-76974600D01*
X169916200Y-76974600D02*
X168056200Y-76974600D01*
X168056200Y-76974600D02*
X168056200Y-77914600D01*
X168056200Y-77914600D02*
X169916200Y-77914600D01*
X169916200Y-76390600D02*
X169916200Y-75450600D01*
X169916200Y-75450600D02*
X168056200Y-75450600D01*
X168056200Y-75450600D02*
X168056200Y-76390600D01*
X168056200Y-76390600D02*
X169916200Y-76390600D01*
X169916200Y-75120600D02*
X169916200Y-74180600D01*
X169916200Y-74180600D02*
X168056200Y-74180600D01*
X168056200Y-74180600D02*
X168056200Y-75120600D01*
X168056200Y-75120600D02*
X169916200Y-75120600D01*
X169916200Y-73850600D02*
X169916200Y-72910600D01*
X169916200Y-72910600D02*
X168056200Y-72910600D01*
X168056200Y-72910600D02*
X168056200Y-73850600D01*
X168056200Y-73850600D02*
X169916200Y-73850600D01*
X169916200Y-72326600D02*
X169916200Y-71386600D01*
X169916200Y-71386600D02*
X168056200Y-71386600D01*
X168056200Y-71386600D02*
X168056200Y-72326600D01*
X168056200Y-72326600D02*
X169916200Y-72326600D01*
X169916200Y-71056600D02*
X169916200Y-70116600D01*
X169916200Y-70116600D02*
X168056200Y-70116600D01*
X168056200Y-70116600D02*
X168056200Y-71056600D01*
X168056200Y-71056600D02*
X169916200Y-71056600D01*
X169916200Y-68516600D02*
X169916200Y-67576600D01*
X169916200Y-67576600D02*
X168056200Y-67576600D01*
X168056200Y-67576600D02*
X168056200Y-68516600D01*
X168056200Y-68516600D02*
X169916200Y-68516600D01*
X169916200Y-66738600D02*
X169916200Y-65798600D01*
X169916200Y-65798600D02*
X168056200Y-65798600D01*
X168056200Y-65798600D02*
X168056200Y-66738600D01*
X168056200Y-66738600D02*
X169916200Y-66738600D01*
X169916200Y-64706600D02*
X169916200Y-63766600D01*
X169916200Y-63766600D02*
X168056200Y-63766600D01*
X168056200Y-63766600D02*
X168056200Y-64706600D01*
X168056200Y-64706600D02*
X169916200Y-64706600D01*
X169916200Y-62674600D02*
X169916200Y-61734600D01*
X169916200Y-61734600D02*
X168056200Y-61734600D01*
X168056200Y-61734600D02*
X168056200Y-62674600D01*
X168056200Y-62674600D02*
X169916200Y-62674600D01*
X169639200Y-61150600D02*
X169639200Y-60210600D01*
X169639200Y-60210600D02*
X167779200Y-60210600D01*
X167779200Y-60210600D02*
X167779200Y-61150600D01*
X167779200Y-61150600D02*
X169639200Y-61150600D01*
X169656200Y-59560600D02*
X169656200Y-58620600D01*
X169656200Y-58620600D02*
X167796200Y-58620600D01*
X167796200Y-58620600D02*
X167796200Y-59560600D01*
X167796200Y-59560600D02*
X169656200Y-59560600D01*
X154900000Y-46460000D02*
X154900000Y-45520000D01*
X154900000Y-45520000D02*
X153040000Y-45520000D01*
X153040000Y-45520000D02*
X153040000Y-46460000D01*
X153040000Y-46460000D02*
X154900000Y-46460000D01*
X154850000Y-45250000D02*
X154850000Y-44310000D01*
X154850000Y-44310000D02*
X152990000Y-44310000D01*
X152990000Y-44310000D02*
X152990000Y-45250000D01*
X152990000Y-45250000D02*
X154850000Y-45250000D01*
X154806200Y-44010600D02*
X154806200Y-43070600D01*
X154806200Y-43070600D02*
X152946200Y-43070600D01*
X152946200Y-43070600D02*
X152946200Y-44010600D01*
X152946200Y-44010600D02*
X154806200Y-44010600D01*
X132930800Y-40147600D02*
X133870800Y-40147600D01*
X133870800Y-40147600D02*
X133870800Y-38287600D01*
X133870800Y-38287600D02*
X132930800Y-38287600D01*
X132930800Y-38287600D02*
X132930800Y-40147600D01*
X129070000Y-40147600D02*
X130010000Y-40147600D01*
X130010000Y-40147600D02*
X130010000Y-38287600D01*
X130010000Y-38287600D02*
X129070000Y-38287600D01*
X129070000Y-38287600D02*
X129070000Y-40147600D01*
X136588400Y-40198400D02*
X137528400Y-40198400D01*
X137528400Y-40198400D02*
X137528400Y-38338400D01*
X137528400Y-38338400D02*
X136588400Y-38338400D01*
X136588400Y-38338400D02*
X136588400Y-40198400D01*
X140243200Y-38646000D02*
X140243200Y-39586000D01*
X140243200Y-39586000D02*
X142103200Y-39586000D01*
X142103200Y-39586000D02*
X142103200Y-38646000D01*
X142103200Y-38646000D02*
X140243200Y-38646000D01*
X141767200Y-40271600D02*
X141767200Y-41211600D01*
X141767200Y-41211600D02*
X143627200Y-41211600D01*
X143627200Y-41211600D02*
X143627200Y-40271600D01*
X143627200Y-40271600D02*
X141767200Y-40271600D01*
X152940000Y-41650000D02*
X152940000Y-42590000D01*
X152940000Y-42590000D02*
X154800000Y-42590000D01*
X154800000Y-42590000D02*
X154800000Y-41650000D01*
X154800000Y-41650000D02*
X152940000Y-41650000D01*
X137396400Y-56350800D02*
X137396400Y-57290800D01*
X137396400Y-57290800D02*
X139256400Y-57290800D01*
X139256400Y-57290800D02*
X139256400Y-56350800D01*
X139256400Y-56350800D02*
X137396400Y-56350800D01*
X141005200Y-55129200D02*
X141005200Y-56069200D01*
X141005200Y-56069200D02*
X142865200Y-56069200D01*
X142865200Y-56069200D02*
X142865200Y-55129200D01*
X142865200Y-55129200D02*
X141005200Y-55129200D01*
X142843600Y-53869200D02*
X142843600Y-54809200D01*
X142843600Y-54809200D02*
X144703600Y-54809200D01*
X144703600Y-54809200D02*
X144703600Y-53869200D01*
X144703600Y-53869200D02*
X142843600Y-53869200D01*
X134353200Y-40655600D02*
X135293200Y-40655600D01*
X135293200Y-40655600D02*
X135293200Y-38795600D01*
X135293200Y-38795600D02*
X134353200Y-38795600D01*
X134353200Y-38795600D02*
X134353200Y-40655600D01*
X131152800Y-40655600D02*
X132092800Y-40655600D01*
X132092800Y-40655600D02*
X132092800Y-38795600D01*
X132092800Y-38795600D02*
X131152800Y-38795600D01*
X131152800Y-38795600D02*
X131152800Y-40655600D01*
X130760000Y-110985000D02*
X129820000Y-110985000D01*
X129820000Y-110985000D02*
X129820000Y-112845000D01*
X129820000Y-112845000D02*
X130760000Y-112845000D01*
X130760000Y-112845000D02*
X130760000Y-110985000D01*
X131870000Y-110990000D02*
X130930000Y-110990000D01*
X130930000Y-110990000D02*
X130930000Y-112850000D01*
X130930000Y-112850000D02*
X131870000Y-112850000D01*
X131870000Y-112850000D02*
X131870000Y-110990000D01*
X129640000Y-111060000D02*
X128700000Y-111060000D01*
X128700000Y-111060000D02*
X128700000Y-112920000D01*
X128700000Y-112920000D02*
X129640000Y-112920000D01*
X129640000Y-112920000D02*
X129640000Y-111060000D01*
X132960000Y-111010000D02*
X132020000Y-111010000D01*
X132020000Y-111010000D02*
X132020000Y-112870000D01*
X132020000Y-112870000D02*
X132960000Y-112870000D01*
X132960000Y-112870000D02*
X132960000Y-111010000D01*
X134036200Y-110980600D02*
X133096200Y-110980600D01*
X133096200Y-110980600D02*
X133096200Y-112840600D01*
X133096200Y-112840600D02*
X134036200Y-112840600D01*
X134036200Y-112840600D02*
X134036200Y-110980600D01*
X136306200Y-110859600D02*
X135366200Y-110859600D01*
X135366200Y-110859600D02*
X135366200Y-112719600D01*
X135366200Y-112719600D02*
X136306200Y-112719600D01*
X136306200Y-112719600D02*
X136306200Y-110859600D01*
X137576200Y-110836600D02*
X136636200Y-110836600D01*
X136636200Y-110836600D02*
X136636200Y-112696600D01*
X136636200Y-112696600D02*
X137576200Y-112696600D01*
X137576200Y-112696600D02*
X137576200Y-110836600D01*
X138846200Y-110836600D02*
X137906200Y-110836600D01*
X137906200Y-110836600D02*
X137906200Y-112696600D01*
X137906200Y-112696600D02*
X138846200Y-112696600D01*
X138846200Y-112696600D02*
X138846200Y-110836600D01*
X140116200Y-110836600D02*
X139176200Y-110836600D01*
X139176200Y-110836600D02*
X139176200Y-112696600D01*
X139176200Y-112696600D02*
X140116200Y-112696600D01*
X140116200Y-112696600D02*
X140116200Y-110836600D01*
X141241000Y-110872400D02*
X140301000Y-110872400D01*
X140301000Y-110872400D02*
X140301000Y-112732400D01*
X140301000Y-112732400D02*
X141241000Y-112732400D01*
X141241000Y-112732400D02*
X141241000Y-110872400D01*
X142384000Y-110824000D02*
X141444000Y-110824000D01*
X141444000Y-110824000D02*
X141444000Y-112684000D01*
X141444000Y-112684000D02*
X142384000Y-112684000D01*
X142384000Y-112684000D02*
X142384000Y-110824000D01*
X143666200Y-110899600D02*
X142726200Y-110899600D01*
X142726200Y-110899600D02*
X142726200Y-112759600D01*
X142726200Y-112759600D02*
X143666200Y-112759600D01*
X143666200Y-112759600D02*
X143666200Y-110899600D01*
X63741200Y-30190800D02*
X64681200Y-30190800D01*
X64681200Y-30190800D02*
X64681200Y-28330800D01*
X64681200Y-28330800D02*
X63741200Y-28330800D01*
X63741200Y-28330800D02*
X63741200Y-30190800D01*
X56070400Y-33137200D02*
X57010400Y-33137200D01*
X57010400Y-33137200D02*
X57010400Y-31277200D01*
X57010400Y-31277200D02*
X56070400Y-31277200D01*
X56070400Y-31277200D02*
X56070400Y-33137200D01*
X57594400Y-36286800D02*
X58534400Y-36286800D01*
X58534400Y-36286800D02*
X58534400Y-34426800D01*
X58534400Y-34426800D02*
X57594400Y-34426800D01*
X57594400Y-34426800D02*
X57594400Y-36286800D01*
X75933200Y-18837000D02*
X76873200Y-18837000D01*
X76873200Y-18837000D02*
X76873200Y-16977000D01*
X76873200Y-16977000D02*
X75933200Y-16977000D01*
X75933200Y-16977000D02*
X75933200Y-18837000D01*
X80606800Y-19395800D02*
X81546800Y-19395800D01*
X81546800Y-19395800D02*
X81546800Y-17535800D01*
X81546800Y-17535800D02*
X80606800Y-17535800D01*
X80606800Y-17535800D02*
X80606800Y-19395800D01*
X85559800Y-18938600D02*
X86499800Y-18938600D01*
X86499800Y-18938600D02*
X86499800Y-17078600D01*
X86499800Y-17078600D02*
X85559800Y-17078600D01*
X85559800Y-17078600D02*
X85559800Y-18938600D01*
X58556800Y-75222000D02*
X58556800Y-76162000D01*
X58556800Y-76162000D02*
X60416800Y-76162000D01*
X60416800Y-76162000D02*
X60416800Y-75222000D01*
X60416800Y-75222000D02*
X58556800Y-75222000D01*
X59418000Y-100100000D02*
X59418000Y-99160000D01*
X59418000Y-99160000D02*
X57558000Y-99160000D01*
X57558000Y-99160000D02*
X57558000Y-100100000D01*
X57558000Y-100100000D02*
X59418000Y-100100000D01*
X62135800Y-100074600D02*
X62135800Y-99134600D01*
X62135800Y-99134600D02*
X60275800Y-99134600D01*
X60275800Y-99134600D02*
X60275800Y-100074600D01*
X60275800Y-100074600D02*
X62135800Y-100074600D01*
X56901000Y-98982400D02*
X56901000Y-98042400D01*
X56901000Y-98042400D02*
X55041000Y-98042400D01*
X55041000Y-98042400D02*
X55041000Y-98982400D01*
X55041000Y-98982400D02*
X56901000Y-98982400D01*
X54969600Y-99337800D02*
X54969600Y-100277800D01*
X54969600Y-100277800D02*
X56829600Y-100277800D01*
X56829600Y-100277800D02*
X56829600Y-99337800D01*
X56829600Y-99337800D02*
X54969600Y-99337800D01*
X54312600Y-100328600D02*
X54312600Y-99388600D01*
X54312600Y-99388600D02*
X52452600Y-99388600D01*
X52452600Y-99388600D02*
X52452600Y-100328600D01*
X52452600Y-100328600D02*
X54312600Y-100328600D01*
X52429600Y-98067800D02*
X52429600Y-99007800D01*
X52429600Y-99007800D02*
X54289600Y-99007800D01*
X54289600Y-99007800D02*
X54289600Y-98067800D01*
X54289600Y-98067800D02*
X52429600Y-98067800D01*
X51821000Y-100201600D02*
X51821000Y-99261600D01*
X51821000Y-99261600D02*
X49961000Y-99261600D01*
X49961000Y-99261600D02*
X49961000Y-100201600D01*
X49961000Y-100201600D02*
X51821000Y-100201600D01*
X48673800Y-99998400D02*
X48673800Y-99058400D01*
X48673800Y-99058400D02*
X46813800Y-99058400D01*
X46813800Y-99058400D02*
X46813800Y-99998400D01*
X46813800Y-99998400D02*
X48673800Y-99998400D01*
X46839200Y-97940800D02*
X46839200Y-98880800D01*
X46839200Y-98880800D02*
X48699200Y-98880800D01*
X48699200Y-98880800D02*
X48699200Y-97940800D01*
X48699200Y-97940800D02*
X46839200Y-97940800D01*
X99707600Y-146319600D02*
X100647600Y-146319600D01*
X100647600Y-146319600D02*
X100647600Y-144459600D01*
X100647600Y-144459600D02*
X99707600Y-144459600D01*
X99707600Y-144459600D02*
X99707600Y-146319600D01*
X62605800Y-141719800D02*
X62605800Y-142659800D01*
X62605800Y-142659800D02*
X64465800Y-142659800D01*
X64465800Y-142659800D02*
X64465800Y-141719800D01*
X64465800Y-141719800D02*
X62605800Y-141719800D01*
X97726600Y-146745600D02*
X96786600Y-146745600D01*
X96786600Y-146745600D02*
X96786600Y-148605600D01*
X96786600Y-148605600D02*
X97726600Y-148605600D01*
X97726600Y-148605600D02*
X97726600Y-146745600D01*
X64010400Y-144836800D02*
X61770400Y-144836800D01*
X61770400Y-144836800D02*
X61770400Y-149396800D01*
X61770400Y-149396800D02*
X64010400Y-149396800D01*
X64010400Y-149396800D02*
X64010400Y-144836800D01*
X135500000Y-40720000D02*
X136440000Y-40720000D01*
X136440000Y-40720000D02*
X136440000Y-38860000D01*
X136440000Y-38860000D02*
X135500000Y-38860000D01*
X135500000Y-38860000D02*
X135500000Y-40720000D01*
X155077800Y-68366800D02*
X155077800Y-67426800D01*
X155077800Y-67426800D02*
X153217800Y-67426800D01*
X153217800Y-67426800D02*
X153217800Y-68366800D01*
X153217800Y-68366800D02*
X155077800Y-68366800D01*
X154360000Y-50080000D02*
X154360000Y-51020000D01*
X154360000Y-51020000D02*
X156220000Y-51020000D01*
X156220000Y-51020000D02*
X156220000Y-50080000D01*
X156220000Y-50080000D02*
X154360000Y-50080000D01*
X155055200Y-71160000D02*
X155055200Y-70220000D01*
X155055200Y-70220000D02*
X153195200Y-70220000D01*
X153195200Y-70220000D02*
X153195200Y-71160000D01*
X153195200Y-71160000D02*
X155055200Y-71160000D01*
X169370000Y-68780000D02*
X169370000Y-69720000D01*
X169370000Y-69720000D02*
X171230000Y-69720000D01*
X171230000Y-69720000D02*
X171230000Y-68780000D01*
X171230000Y-68780000D02*
X169370000Y-68780000D01*
X155026000Y-74150000D02*
X155026000Y-73210000D01*
X155026000Y-73210000D02*
X153166000Y-73210000D01*
X153166000Y-73210000D02*
X153166000Y-74150000D01*
X153166000Y-74150000D02*
X155026000Y-74150000D01*
X171380000Y-79190000D02*
X171380000Y-80130000D01*
X171380000Y-80130000D02*
X173240000Y-80130000D01*
X173240000Y-80130000D02*
X173240000Y-79190000D01*
X173240000Y-79190000D02*
X171380000Y-79190000D01*
X127590000Y-57125200D02*
X126650000Y-57125200D01*
X126650000Y-57125200D02*
X126650000Y-58985200D01*
X126650000Y-58985200D02*
X127590000Y-58985200D01*
X127590000Y-58985200D02*
X127590000Y-57125200D01*
X155158400Y-77600800D02*
X155158400Y-76660800D01*
X155158400Y-76660800D02*
X153298400Y-76660800D01*
X153298400Y-76660800D02*
X153298400Y-77600800D01*
X153298400Y-77600800D02*
X155158400Y-77600800D01*
X169910000Y-86640000D02*
X169910000Y-87580000D01*
X169910000Y-87580000D02*
X171770000Y-87580000D01*
X171770000Y-87580000D02*
X171770000Y-86640000D01*
X171770000Y-86640000D02*
X169910000Y-86640000D01*
X129570000Y-57065200D02*
X128630000Y-57065200D01*
X128630000Y-57065200D02*
X128630000Y-58925200D01*
X128630000Y-58925200D02*
X129570000Y-58925200D01*
X129570000Y-58925200D02*
X129570000Y-57065200D01*
X155088400Y-82737600D02*
X155088400Y-81797600D01*
X155088400Y-81797600D02*
X153228400Y-81797600D01*
X153228400Y-81797600D02*
X153228400Y-82737600D01*
X153228400Y-82737600D02*
X155088400Y-82737600D01*
X128360000Y-111105000D02*
X127420000Y-111105000D01*
X127420000Y-111105000D02*
X127420000Y-112965000D01*
X127420000Y-112965000D02*
X128360000Y-112965000D01*
X128360000Y-112965000D02*
X128360000Y-111105000D01*
X135860000Y-59930000D02*
X134920000Y-59930000D01*
X134920000Y-59930000D02*
X134920000Y-61790000D01*
X134920000Y-61790000D02*
X135860000Y-61790000D01*
X135860000Y-61790000D02*
X135860000Y-59930000D01*
X155108000Y-88912800D02*
X155108000Y-87972800D01*
X155108000Y-87972800D02*
X153248000Y-87972800D01*
X153248000Y-87972800D02*
X153248000Y-88912800D01*
X153248000Y-88912800D02*
X155108000Y-88912800D01*
X126200000Y-111100000D02*
X125260000Y-111100000D01*
X125260000Y-111100000D02*
X125260000Y-112960000D01*
X125260000Y-112960000D02*
X126200000Y-112960000D01*
X126200000Y-112960000D02*
X126200000Y-111100000D01*
X137210000Y-59930000D02*
X136270000Y-59930000D01*
X136270000Y-59930000D02*
X136270000Y-61790000D01*
X136270000Y-61790000D02*
X137210000Y-61790000D01*
X137210000Y-61790000D02*
X137210000Y-59930000D01*
X98960000Y-85680000D02*
X98960000Y-84740000D01*
X98960000Y-84740000D02*
X97100000Y-84740000D01*
X97100000Y-84740000D02*
X97100000Y-85680000D01*
X97100000Y-85680000D02*
X98960000Y-85680000D01*
X140380000Y-59975000D02*
X139440000Y-59975000D01*
X139440000Y-59975000D02*
X139440000Y-61835000D01*
X139440000Y-61835000D02*
X140380000Y-61835000D01*
X140380000Y-61835000D02*
X140380000Y-59975000D01*
X132350000Y-96580000D02*
X133290000Y-96580000D01*
X133290000Y-96580000D02*
X133290000Y-94720000D01*
X133290000Y-94720000D02*
X132350000Y-94720000D01*
X132350000Y-94720000D02*
X132350000Y-96580000D01*
X99550000Y-77060000D02*
X99550000Y-76120000D01*
X99550000Y-76120000D02*
X97690000Y-76120000D01*
X97690000Y-76120000D02*
X97690000Y-77060000D01*
X97690000Y-77060000D02*
X99550000Y-77060000D01*
X141460000Y-59970000D02*
X140520000Y-59970000D01*
X140520000Y-59970000D02*
X140520000Y-61830000D01*
X140520000Y-61830000D02*
X141460000Y-61830000D01*
X141460000Y-61830000D02*
X141460000Y-59970000D01*
X100370000Y-82870000D02*
X100370000Y-81930000D01*
X100370000Y-81930000D02*
X98510000Y-81930000D01*
X98510000Y-81930000D02*
X98510000Y-82870000D01*
X98510000Y-82870000D02*
X100370000Y-82870000D01*
X100200000Y-67490000D02*
X100200000Y-66550000D01*
X100200000Y-66550000D02*
X98340000Y-66550000D01*
X98340000Y-66550000D02*
X98340000Y-67490000D01*
X98340000Y-67490000D02*
X100200000Y-67490000D01*
X154879600Y-63081600D02*
X154879600Y-62141600D01*
X154879600Y-62141600D02*
X153019600Y-62141600D01*
X153019600Y-62141600D02*
X153019600Y-63081600D01*
X153019600Y-63081600D02*
X154879600Y-63081600D01*
X114210000Y-73410000D02*
X114210000Y-74350000D01*
X114210000Y-74350000D02*
X116070000Y-74350000D01*
X116070000Y-74350000D02*
X116070000Y-73410000D01*
X116070000Y-73410000D02*
X114210000Y-73410000D01*
X64988800Y-34963200D02*
X64988800Y-34023200D01*
X64988800Y-34023200D02*
X63128800Y-34023200D01*
X63128800Y-34023200D02*
X63128800Y-34963200D01*
X63128800Y-34963200D02*
X64988800Y-34963200D01*
X57645200Y-33820600D02*
X58585200Y-33820600D01*
X58585200Y-33820600D02*
X58585200Y-31960600D01*
X58585200Y-31960600D02*
X57645200Y-31960600D01*
X57645200Y-31960600D02*
X57645200Y-33820600D01*
X156400600Y-145475600D02*
X155460600Y-145475600D01*
X155460600Y-145475600D02*
X155460600Y-147335600D01*
X155460600Y-147335600D02*
X156400600Y-147335600D01*
X156400600Y-147335600D02*
X156400600Y-145475600D01*
X58610400Y-79850200D02*
X59550400Y-79850200D01*
X59550400Y-79850200D02*
X59550400Y-77990200D01*
X59550400Y-77990200D02*
X58610400Y-77990200D01*
X58610400Y-77990200D02*
X58610400Y-79850200D01*
X54851200Y-79771600D02*
X55791200Y-79771600D01*
X55791200Y-79771600D02*
X55791200Y-77911600D01*
X55791200Y-77911600D02*
X54851200Y-77911600D01*
X54851200Y-77911600D02*
X54851200Y-79771600D01*
X58506000Y-76390400D02*
X58506000Y-77330400D01*
X58506000Y-77330400D02*
X60366000Y-77330400D01*
X60366000Y-77330400D02*
X60366000Y-76390400D01*
X60366000Y-76390400D02*
X58506000Y-76390400D01*
X214131800Y-97142200D02*
X214131800Y-98082200D01*
X214131800Y-98082200D02*
X215991800Y-98082200D01*
X215991800Y-98082200D02*
X215991800Y-97142200D01*
X215991800Y-97142200D02*
X214131800Y-97142200D01*
X196730000Y-102190000D02*
X196730000Y-101250000D01*
X196730000Y-101250000D02*
X194870000Y-101250000D01*
X194870000Y-101250000D02*
X194870000Y-102190000D01*
X194870000Y-102190000D02*
X196730000Y-102190000D01*
X198360000Y-89200000D02*
X198360000Y-88260000D01*
X198360000Y-88260000D02*
X196500000Y-88260000D01*
X196500000Y-88260000D02*
X196500000Y-89200000D01*
X196500000Y-89200000D02*
X198360000Y-89200000D01*
X214020000Y-82740000D02*
X214020000Y-83680000D01*
X214020000Y-83680000D02*
X215880000Y-83680000D01*
X215880000Y-83680000D02*
X215880000Y-82740000D01*
X215880000Y-82740000D02*
X214020000Y-82740000D01*
X214131800Y-98285200D02*
X214131800Y-99225200D01*
X214131800Y-99225200D02*
X215991800Y-99225200D01*
X215991800Y-99225200D02*
X215991800Y-98285200D01*
X215991800Y-98285200D02*
X214131800Y-98285200D01*
X214190000Y-102760000D02*
X214190000Y-103700000D01*
X214190000Y-103700000D02*
X216050000Y-103700000D01*
X216050000Y-103700000D02*
X216050000Y-102760000D01*
X216050000Y-102760000D02*
X214190000Y-102760000D01*
X214131800Y-91173200D02*
X214131800Y-92113200D01*
X214131800Y-92113200D02*
X215991800Y-92113200D01*
X215991800Y-92113200D02*
X215991800Y-91173200D01*
X215991800Y-91173200D02*
X214131800Y-91173200D01*
X198790000Y-86210000D02*
X198790000Y-85270000D01*
X198790000Y-85270000D02*
X196930000Y-85270000D01*
X196930000Y-85270000D02*
X196930000Y-86210000D01*
X196930000Y-86210000D02*
X198790000Y-86210000D01*
X214170000Y-103800000D02*
X214170000Y-104740000D01*
X214170000Y-104740000D02*
X216030000Y-104740000D01*
X216030000Y-104740000D02*
X216030000Y-103800000D01*
X216030000Y-103800000D02*
X214170000Y-103800000D01*
X214060000Y-86690000D02*
X214060000Y-87630000D01*
X214060000Y-87630000D02*
X215920000Y-87630000D01*
X215920000Y-87630000D02*
X215920000Y-86690000D01*
X215920000Y-86690000D02*
X214060000Y-86690000D01*
X214020000Y-83780000D02*
X214020000Y-84720000D01*
X214020000Y-84720000D02*
X215880000Y-84720000D01*
X215880000Y-84720000D02*
X215880000Y-83780000D01*
X215880000Y-83780000D02*
X214020000Y-83780000D01*
X89699600Y-145449200D02*
X89699600Y-146389200D01*
X89699600Y-146389200D02*
X91559600Y-146389200D01*
X91559600Y-146389200D02*
X91559600Y-145449200D01*
X91559600Y-145449200D02*
X89699600Y-145449200D01*
X90061000Y-138214200D02*
X90061000Y-137274200D01*
X90061000Y-137274200D02*
X88201000Y-137274200D01*
X88201000Y-137274200D02*
X88201000Y-138214200D01*
X88201000Y-138214200D02*
X90061000Y-138214200D01*
X96596600Y-141193600D02*
X95656600Y-141193600D01*
X95656600Y-141193600D02*
X95656600Y-143053600D01*
X95656600Y-143053600D02*
X96596600Y-143053600D01*
X96596600Y-143053600D02*
X96596600Y-141193600D01*
X89722600Y-143141600D02*
X89722600Y-144081600D01*
X89722600Y-144081600D02*
X91582600Y-144081600D01*
X91582600Y-144081600D02*
X91582600Y-143141600D01*
X91582600Y-143141600D02*
X89722600Y-143141600D01*
X98717600Y-143899200D02*
X98717600Y-142959200D01*
X98717600Y-142959200D02*
X96857600Y-142959200D01*
X96857600Y-142959200D02*
X96857600Y-143899200D01*
X96857600Y-143899200D02*
X98717600Y-143899200D01*
X93103600Y-148097600D02*
X94043600Y-148097600D01*
X94043600Y-148097600D02*
X94043600Y-146237600D01*
X94043600Y-146237600D02*
X93103600Y-146237600D01*
X93103600Y-146237600D02*
X93103600Y-148097600D01*
X90690600Y-149644600D02*
X91630600Y-149644600D01*
X91630600Y-149644600D02*
X91630600Y-147784600D01*
X91630600Y-147784600D02*
X90690600Y-147784600D01*
X90690600Y-147784600D02*
X90690600Y-149644600D01*
X94104600Y-149828600D02*
X96344600Y-149828600D01*
X96344600Y-149828600D02*
X96344600Y-145268600D01*
X96344600Y-145268600D02*
X94104600Y-145268600D01*
X94104600Y-145268600D02*
X94104600Y-149828600D01*
X89004600Y-151825600D02*
X88064600Y-151825600D01*
X88064600Y-151825600D02*
X88064600Y-153685600D01*
X88064600Y-153685600D02*
X89004600Y-153685600D01*
X89004600Y-153685600D02*
X89004600Y-151825600D01*
X87876600Y-149853600D02*
X85636600Y-149853600D01*
X85636600Y-149853600D02*
X85636600Y-154413600D01*
X85636600Y-154413600D02*
X87876600Y-154413600D01*
X87876600Y-154413600D02*
X87876600Y-149853600D01*
X161045800Y-141871600D02*
X161045800Y-142811600D01*
X161045800Y-142811600D02*
X162905800Y-142811600D01*
X162905800Y-142811600D02*
X162905800Y-141871600D01*
X162905800Y-141871600D02*
X161045800Y-141871600D01*
X159598000Y-151117200D02*
X159598000Y-152057200D01*
X159598000Y-152057200D02*
X161458000Y-152057200D01*
X161458000Y-152057200D02*
X161458000Y-151117200D01*
X161458000Y-151117200D02*
X159598000Y-151117200D01*
X57772400Y-29092800D02*
X56832400Y-29092800D01*
X56832400Y-29092800D02*
X56832400Y-30952800D01*
X56832400Y-30952800D02*
X57772400Y-30952800D01*
X57772400Y-30952800D02*
X57772400Y-29092800D01*
X60944400Y-29451200D02*
X60944400Y-30391200D01*
X60944400Y-30391200D02*
X62804400Y-30391200D01*
X62804400Y-30391200D02*
X62804400Y-29451200D01*
X62804400Y-29451200D02*
X60944400Y-29451200D01*
X60944400Y-28079600D02*
X60944400Y-29019600D01*
X60944400Y-29019600D02*
X62804400Y-29019600D01*
X62804400Y-29019600D02*
X62804400Y-28079600D01*
X62804400Y-28079600D02*
X60944400Y-28079600D01*
X60312400Y-45815800D02*
X59372400Y-45815800D01*
X59372400Y-45815800D02*
X59372400Y-47675800D01*
X59372400Y-47675800D02*
X60312400Y-47675800D01*
X60312400Y-47675800D02*
X60312400Y-45815800D01*
X59372400Y-50180600D02*
X60312400Y-50180600D01*
X60312400Y-50180600D02*
X60312400Y-48320600D01*
X60312400Y-48320600D02*
X59372400Y-48320600D01*
X59372400Y-48320600D02*
X59372400Y-50180600D01*
X60312400Y-50860600D02*
X59372400Y-50860600D01*
X59372400Y-50860600D02*
X59372400Y-52720600D01*
X59372400Y-52720600D02*
X60312400Y-52720600D01*
X60312400Y-52720600D02*
X60312400Y-50860600D01*
X154924400Y-141871600D02*
X154924400Y-142811600D01*
X154924400Y-142811600D02*
X156784400Y-142811600D01*
X156784400Y-142811600D02*
X156784400Y-141871600D01*
X156784400Y-141871600D02*
X154924400Y-141871600D01*
X50011800Y-98042400D02*
X50011800Y-98982400D01*
X50011800Y-98982400D02*
X51871800Y-98982400D01*
X51871800Y-98982400D02*
X51871800Y-98042400D01*
X51871800Y-98042400D02*
X50011800Y-98042400D01*
X197070000Y-98090000D02*
X197070000Y-97150000D01*
X197070000Y-97150000D02*
X195210000Y-97150000D01*
X195210000Y-97150000D02*
X195210000Y-98090000D01*
X195210000Y-98090000D02*
X197070000Y-98090000D01*
X170170200Y-92392600D02*
X170170200Y-91452600D01*
X170170200Y-91452600D02*
X168310200Y-91452600D01*
X168310200Y-91452600D02*
X168310200Y-92392600D01*
X168310200Y-92392600D02*
X170170200Y-92392600D01*
X135264800Y-57543600D02*
X135264800Y-58483600D01*
X135264800Y-58483600D02*
X137124800Y-58483600D01*
X137124800Y-58483600D02*
X137124800Y-57543600D01*
X137124800Y-57543600D02*
X135264800Y-57543600D01*
X169626200Y-57950600D02*
X169626200Y-57010600D01*
X169626200Y-57010600D02*
X167766200Y-57010600D01*
X167766200Y-57010600D02*
X167766200Y-57950600D01*
X167766200Y-57950600D02*
X169626200Y-57950600D01*
M02*
