G04 #@! TF.GenerationSoftware,KiCad,Pcbnew,5.1.6-c6e7f7d~87~ubuntu18.04.1*
G04 #@! TF.CreationDate,2020-08-14T22:16:59+05:30*
G04 #@! TF.ProjectId,Aardonyx,41617264-6f6e-4797-982e-6b696361645f,v1.0*
G04 #@! TF.SameCoordinates,Original*
G04 #@! TF.FileFunction,Other,User*
%FSLAX46Y46*%
G04 Gerber Fmt 4.6, Leading zero omitted, Abs format (unit mm)*
G04 Created by KiCad (PCBNEW 5.1.6-c6e7f7d~87~ubuntu18.04.1) date 2020-08-14 22:16:59*
%MOMM*%
%LPD*%
G01*
G04 APERTURE LIST*
G04 #@! TA.AperFunction,Profile*
%ADD10C,0.100000*%
G04 #@! TD*
%ADD11C,0.050000*%
G04 APERTURE END LIST*
D10*
X43561000Y-162560000D02*
X43561000Y-11684000D01*
X283824680Y-162562540D02*
X43561000Y-162557460D01*
X283824680Y-11684000D02*
X283824680Y-162560000D01*
X43561000Y-11684000D02*
X283824680Y-11684000D01*
D11*
X282275000Y-16564000D02*
G75*
G03*
X282275000Y-16564000I-3450000J0D01*
G01*
X47225200Y-107968600D02*
X48685200Y-107968600D01*
X48685200Y-107968600D02*
X48685200Y-110928600D01*
X48685200Y-110928600D02*
X47225200Y-110928600D01*
X47225200Y-110928600D02*
X47225200Y-107968600D01*
X133590000Y-146180000D02*
X133590000Y-140460000D01*
X133590000Y-140460000D02*
X124290000Y-140460000D01*
X124290000Y-140460000D02*
X124290000Y-146180000D01*
X124290000Y-146180000D02*
X133590000Y-146180000D01*
X269646400Y-124968000D02*
X278297640Y-124968000D01*
X269641320Y-124968000D02*
X269634600Y-130037840D01*
X278299600Y-130048000D02*
X278297640Y-124968000D01*
X278299600Y-130048000D02*
X269634600Y-130048000D01*
X181584200Y-123570600D02*
X181584200Y-28270600D01*
X86284200Y-123570600D02*
X86284200Y-28270600D01*
X181584200Y-123570600D02*
X86284200Y-123570600D01*
X181584200Y-28270600D02*
X86284200Y-28270600D01*
X265235000Y-126055000D02*
X265235000Y-138055000D01*
X256735000Y-126055000D02*
X265235000Y-126055000D01*
X256735000Y-136055000D02*
X256735000Y-126055000D01*
X258165000Y-138065000D02*
X265235000Y-138055000D01*
X256735000Y-136055000D02*
X258165000Y-138065000D01*
X121745600Y-158949800D02*
X132945600Y-158949800D01*
X132945600Y-158949800D02*
X132945600Y-155349800D01*
X132945600Y-155349800D02*
X121745600Y-155349800D01*
X121745600Y-155349800D02*
X121745600Y-158949800D01*
X265382000Y-107371000D02*
X266782000Y-107371000D01*
X266782000Y-107371000D02*
X266782000Y-106021000D01*
X266782000Y-106021000D02*
X271882000Y-106021000D01*
X271882000Y-106021000D02*
X271882000Y-107371000D01*
X271882000Y-107371000D02*
X280332000Y-107371000D01*
X280332000Y-107371000D02*
X280332000Y-116871000D01*
X280332000Y-116871000D02*
X265382000Y-116871000D01*
X265382000Y-116871000D02*
X265382000Y-114471000D01*
X265382000Y-109871000D02*
X265382000Y-107371000D01*
X265382000Y-109871000D02*
X264782000Y-109871000D01*
X264782000Y-109871000D02*
X264782000Y-114471000D01*
X264782000Y-114471000D02*
X265382000Y-114471000D01*
X224732600Y-75947200D02*
G75*
G03*
X224732600Y-75947200I-3450000J0D01*
G01*
X253025000Y-82308600D02*
X253025000Y-83248600D01*
X253025000Y-83248600D02*
X251165000Y-83248600D01*
X251165000Y-83248600D02*
X251165000Y-82308600D01*
X251165000Y-82308600D02*
X253025000Y-82308600D01*
X253950500Y-79568000D02*
X253950500Y-81468000D01*
X253950500Y-81468000D02*
X250590500Y-81468000D01*
X250590500Y-81468000D02*
X250590500Y-79568000D01*
X250590500Y-79568000D02*
X253950500Y-79568000D01*
X221919200Y-141130800D02*
X221919200Y-135730800D01*
X221919200Y-135730800D02*
X214519200Y-135730800D01*
X214519200Y-135730800D02*
X214519200Y-141130800D01*
X214519200Y-141130800D02*
X221919200Y-141130800D01*
X222539000Y-155758200D02*
X222539000Y-150358200D01*
X222539000Y-150358200D02*
X215139000Y-150358200D01*
X215139000Y-150358200D02*
X215139000Y-155758200D01*
X215139000Y-155758200D02*
X222539000Y-155758200D01*
X241988800Y-42205200D02*
X248988800Y-42205200D01*
X248988800Y-42205200D02*
X248988800Y-34505200D01*
X248988800Y-34505200D02*
X241988800Y-34505200D01*
X241988800Y-34505200D02*
X241988800Y-42205200D01*
X256452400Y-54582700D02*
X263452400Y-54582700D01*
X263452400Y-54582700D02*
X263452400Y-46882700D01*
X263452400Y-46882700D02*
X256452400Y-46882700D01*
X256452400Y-46882700D02*
X256452400Y-54582700D01*
X261079000Y-68019000D02*
X266579000Y-68019000D01*
X266579000Y-68019000D02*
X266579000Y-60319000D01*
X266579000Y-60319000D02*
X261079000Y-60319000D01*
X261079000Y-60319000D02*
X261079000Y-68019000D01*
X244573800Y-143426200D02*
X244573800Y-148826200D01*
X244573800Y-148826200D02*
X251973800Y-148826200D01*
X251973800Y-148826200D02*
X251973800Y-143426200D01*
X251973800Y-143426200D02*
X244573800Y-143426200D01*
X56398800Y-74720000D02*
X56398800Y-80220000D01*
X56398800Y-80220000D02*
X64098800Y-80220000D01*
X64098800Y-80220000D02*
X64098800Y-74720000D01*
X64098800Y-74720000D02*
X56398800Y-74720000D01*
X63309800Y-53717800D02*
X63309800Y-43867800D01*
X63309800Y-43867800D02*
X53509800Y-43867800D01*
X53509800Y-43867800D02*
X53509800Y-53717800D01*
X53509800Y-53717800D02*
X63309800Y-53717800D01*
X54119800Y-40735800D02*
X55059800Y-40735800D01*
X55059800Y-40735800D02*
X55059800Y-42595800D01*
X55059800Y-42595800D02*
X54119800Y-42595800D01*
X54119800Y-42595800D02*
X54119800Y-40735800D01*
X118130000Y-134070000D02*
X117190000Y-134070000D01*
X117190000Y-134070000D02*
X117190000Y-132210000D01*
X117190000Y-132210000D02*
X118130000Y-132210000D01*
X118130000Y-132210000D02*
X118130000Y-134070000D01*
X123130000Y-134050000D02*
X122190000Y-134050000D01*
X122190000Y-134050000D02*
X122190000Y-132190000D01*
X122190000Y-132190000D02*
X123130000Y-132190000D01*
X123130000Y-132190000D02*
X123130000Y-134050000D01*
X119230000Y-134050000D02*
X118290000Y-134050000D01*
X118290000Y-134050000D02*
X118290000Y-132190000D01*
X118290000Y-132190000D02*
X119230000Y-132190000D01*
X119230000Y-132190000D02*
X119230000Y-134050000D01*
X121740000Y-134070000D02*
X120800000Y-134070000D01*
X120800000Y-134070000D02*
X120800000Y-132210000D01*
X120800000Y-132210000D02*
X121740000Y-132210000D01*
X121740000Y-132210000D02*
X121740000Y-134070000D01*
X124370000Y-133995000D02*
X123430000Y-133995000D01*
X123430000Y-133995000D02*
X123430000Y-132135000D01*
X123430000Y-132135000D02*
X124370000Y-132135000D01*
X124370000Y-132135000D02*
X124370000Y-133995000D01*
X120420000Y-134080000D02*
X119480000Y-134080000D01*
X119480000Y-134080000D02*
X119480000Y-132220000D01*
X119480000Y-132220000D02*
X120420000Y-132220000D01*
X120420000Y-132220000D02*
X120420000Y-134080000D01*
X75582000Y-82731000D02*
X75582000Y-83671000D01*
X75582000Y-83671000D02*
X73722000Y-83671000D01*
X73722000Y-83671000D02*
X73722000Y-82731000D01*
X73722000Y-82731000D02*
X75582000Y-82731000D01*
X75572000Y-84011000D02*
X75572000Y-84951000D01*
X75572000Y-84951000D02*
X73712000Y-84951000D01*
X73712000Y-84951000D02*
X73712000Y-84011000D01*
X73712000Y-84011000D02*
X75572000Y-84011000D01*
X75622000Y-80621000D02*
X75622000Y-81561000D01*
X75622000Y-81561000D02*
X73762000Y-81561000D01*
X73762000Y-81561000D02*
X73762000Y-80621000D01*
X73762000Y-80621000D02*
X75622000Y-80621000D01*
X75582000Y-81641000D02*
X75582000Y-82581000D01*
X75582000Y-82581000D02*
X73722000Y-82581000D01*
X73722000Y-82581000D02*
X73722000Y-81641000D01*
X73722000Y-81641000D02*
X75582000Y-81641000D01*
X75699000Y-87660000D02*
X75699000Y-88600000D01*
X75699000Y-88600000D02*
X73839000Y-88600000D01*
X73839000Y-88600000D02*
X73839000Y-87660000D01*
X73839000Y-87660000D02*
X75699000Y-87660000D01*
X75644000Y-88810000D02*
X75644000Y-89750000D01*
X75644000Y-89750000D02*
X73784000Y-89750000D01*
X73784000Y-89750000D02*
X73784000Y-88810000D01*
X73784000Y-88810000D02*
X75644000Y-88810000D01*
X75720000Y-91070000D02*
X75720000Y-92010000D01*
X75720000Y-92010000D02*
X73860000Y-92010000D01*
X73860000Y-92010000D02*
X73860000Y-91070000D01*
X73860000Y-91070000D02*
X75720000Y-91070000D01*
X75700000Y-89970000D02*
X75700000Y-90910000D01*
X75700000Y-90910000D02*
X73840000Y-90910000D01*
X73840000Y-90910000D02*
X73840000Y-89970000D01*
X73840000Y-89970000D02*
X75700000Y-89970000D01*
X89908600Y-153682600D02*
X89908600Y-154622600D01*
X89908600Y-154622600D02*
X88048600Y-154622600D01*
X88048600Y-154622600D02*
X88048600Y-153682600D01*
X88048600Y-153682600D02*
X89908600Y-153682600D01*
X88071600Y-155765600D02*
X88071600Y-154825600D01*
X88071600Y-154825600D02*
X89931600Y-154825600D01*
X89931600Y-154825600D02*
X89931600Y-155765600D01*
X89931600Y-155765600D02*
X88071600Y-155765600D01*
X99501600Y-139789000D02*
X99501600Y-138849000D01*
X99501600Y-138849000D02*
X101361600Y-138849000D01*
X101361600Y-138849000D02*
X101361600Y-139789000D01*
X101361600Y-139789000D02*
X99501600Y-139789000D01*
X59880600Y-40122200D02*
X58940600Y-40122200D01*
X58940600Y-40122200D02*
X58940600Y-38262200D01*
X58940600Y-38262200D02*
X59880600Y-38262200D01*
X59880600Y-38262200D02*
X59880600Y-40122200D01*
X65276800Y-133455800D02*
X65276800Y-134395800D01*
X65276800Y-134395800D02*
X63416800Y-134395800D01*
X63416800Y-134395800D02*
X63416800Y-133455800D01*
X63416800Y-133455800D02*
X65276800Y-133455800D01*
X65303800Y-132467800D02*
X65303800Y-133407800D01*
X65303800Y-133407800D02*
X63443800Y-133407800D01*
X63443800Y-133407800D02*
X63443800Y-132467800D01*
X63443800Y-132467800D02*
X65303800Y-132467800D01*
X241632600Y-37083000D02*
X240692600Y-37083000D01*
X240692600Y-37083000D02*
X240692600Y-35223000D01*
X240692600Y-35223000D02*
X241632600Y-35223000D01*
X241632600Y-35223000D02*
X241632600Y-37083000D01*
X200978000Y-142278000D02*
X200978000Y-143218000D01*
X200978000Y-143218000D02*
X199118000Y-143218000D01*
X199118000Y-143218000D02*
X199118000Y-142278000D01*
X199118000Y-142278000D02*
X200978000Y-142278000D01*
X240218000Y-151872500D02*
X238318000Y-151872500D01*
X238318000Y-151872500D02*
X238318000Y-148512500D01*
X238318000Y-148512500D02*
X240218000Y-148512500D01*
X240218000Y-148512500D02*
X240218000Y-151872500D01*
X239297000Y-145862000D02*
X239297000Y-147762000D01*
X239297000Y-147762000D02*
X235937000Y-147762000D01*
X235937000Y-147762000D02*
X235937000Y-145862000D01*
X235937000Y-145862000D02*
X239297000Y-145862000D01*
X52419600Y-84239200D02*
X52419600Y-83299200D01*
X52419600Y-83299200D02*
X54279600Y-83299200D01*
X54279600Y-83299200D02*
X54279600Y-84239200D01*
X54279600Y-84239200D02*
X52419600Y-84239200D01*
X52470400Y-81648000D02*
X52470400Y-80708000D01*
X52470400Y-80708000D02*
X54330400Y-80708000D01*
X54330400Y-80708000D02*
X54330400Y-81648000D01*
X54330400Y-81648000D02*
X52470400Y-81648000D01*
X66794600Y-77203200D02*
X66794600Y-78143200D01*
X66794600Y-78143200D02*
X64934600Y-78143200D01*
X64934600Y-78143200D02*
X64934600Y-77203200D01*
X64934600Y-77203200D02*
X66794600Y-77203200D01*
X52968800Y-77940000D02*
X52968800Y-77000000D01*
X52968800Y-77000000D02*
X54828800Y-77000000D01*
X54828800Y-77000000D02*
X54828800Y-77940000D01*
X54828800Y-77940000D02*
X52968800Y-77940000D01*
X56200400Y-93103600D02*
X56200400Y-94043600D01*
X56200400Y-94043600D02*
X54340400Y-94043600D01*
X54340400Y-94043600D02*
X54340400Y-93103600D01*
X54340400Y-93103600D02*
X56200400Y-93103600D01*
X50784400Y-94145200D02*
X50784400Y-93205200D01*
X50784400Y-93205200D02*
X52644400Y-93205200D01*
X52644400Y-93205200D02*
X52644400Y-94145200D01*
X52644400Y-94145200D02*
X50784400Y-94145200D01*
X83454600Y-146799200D02*
X83454600Y-147739200D01*
X83454600Y-147739200D02*
X81594600Y-147739200D01*
X81594600Y-147739200D02*
X81594600Y-146799200D01*
X81594600Y-146799200D02*
X83454600Y-146799200D01*
X86121600Y-146813600D02*
X86121600Y-147753600D01*
X86121600Y-147753600D02*
X84261600Y-147753600D01*
X84261600Y-147753600D02*
X84261600Y-146813600D01*
X84261600Y-146813600D02*
X86121600Y-146813600D01*
X83476600Y-141653600D02*
X83476600Y-142593600D01*
X83476600Y-142593600D02*
X81616600Y-142593600D01*
X81616600Y-142593600D02*
X81616600Y-141653600D01*
X81616600Y-141653600D02*
X83476600Y-141653600D01*
X86196600Y-141653600D02*
X86196600Y-142593600D01*
X86196600Y-142593600D02*
X84336600Y-142593600D01*
X84336600Y-142593600D02*
X84336600Y-141653600D01*
X84336600Y-141653600D02*
X86196600Y-141653600D01*
X86136600Y-145043600D02*
X86136600Y-145983600D01*
X86136600Y-145983600D02*
X84276600Y-145983600D01*
X84276600Y-145983600D02*
X84276600Y-145043600D01*
X84276600Y-145043600D02*
X86136600Y-145043600D01*
X86196600Y-143513600D02*
X86196600Y-144453600D01*
X86196600Y-144453600D02*
X84336600Y-144453600D01*
X84336600Y-144453600D02*
X84336600Y-143513600D01*
X84336600Y-143513600D02*
X86196600Y-143513600D01*
X99501600Y-138519000D02*
X99501600Y-137579000D01*
X99501600Y-137579000D02*
X101361600Y-137579000D01*
X101361600Y-137579000D02*
X101361600Y-138519000D01*
X101361600Y-138519000D02*
X99501600Y-138519000D01*
X189914000Y-133713000D02*
X189914000Y-137813000D01*
X189914000Y-133713000D02*
X186514000Y-133713000D01*
X186514000Y-137813000D02*
X189914000Y-137813000D01*
X186514000Y-137813000D02*
X186514000Y-133713000D01*
X192242800Y-135851800D02*
X192242800Y-136791800D01*
X192242800Y-136791800D02*
X190382800Y-136791800D01*
X190382800Y-136791800D02*
X190382800Y-135851800D01*
X190382800Y-135851800D02*
X192242800Y-135851800D01*
X212029000Y-141400500D02*
X213929000Y-141400500D01*
X213929000Y-141400500D02*
X213929000Y-144760500D01*
X213929000Y-144760500D02*
X212029000Y-144760500D01*
X212029000Y-144760500D02*
X212029000Y-141400500D01*
X210488500Y-140650000D02*
X210488500Y-138750000D01*
X210488500Y-138750000D02*
X213848500Y-138750000D01*
X213848500Y-138750000D02*
X213848500Y-140650000D01*
X213848500Y-140650000D02*
X210488500Y-140650000D01*
X192364000Y-142837000D02*
X192364000Y-141897000D01*
X192364000Y-141897000D02*
X194224000Y-141897000D01*
X194224000Y-141897000D02*
X194224000Y-142837000D01*
X194224000Y-142837000D02*
X192364000Y-142837000D01*
X212156000Y-155975500D02*
X214056000Y-155975500D01*
X214056000Y-155975500D02*
X214056000Y-159335500D01*
X214056000Y-159335500D02*
X212156000Y-159335500D01*
X212156000Y-159335500D02*
X212156000Y-155975500D01*
X210537000Y-155509000D02*
X210537000Y-153609000D01*
X210537000Y-153609000D02*
X213897000Y-153609000D01*
X213897000Y-153609000D02*
X213897000Y-155509000D01*
X213897000Y-155509000D02*
X210537000Y-155509000D01*
X238699000Y-135685500D02*
X240599000Y-135685500D01*
X240599000Y-135685500D02*
X240599000Y-139045500D01*
X240599000Y-139045500D02*
X238699000Y-139045500D01*
X238699000Y-139045500D02*
X238699000Y-135685500D01*
X201610800Y-138318000D02*
X201610800Y-134478000D01*
X201610800Y-134478000D02*
X209250800Y-134478000D01*
X209250800Y-134478000D02*
X209250800Y-138318000D01*
X209250800Y-138318000D02*
X201610800Y-138318000D01*
X201645000Y-152923000D02*
X201645000Y-149083000D01*
X201645000Y-149083000D02*
X209285000Y-149083000D01*
X209285000Y-149083000D02*
X209285000Y-152923000D01*
X209285000Y-152923000D02*
X201645000Y-152923000D01*
X243106800Y-101317200D02*
X251756800Y-101317200D01*
X251756800Y-101317200D02*
X251756800Y-97717200D01*
X251756800Y-97717200D02*
X243106800Y-97717200D01*
X243106800Y-97717200D02*
X243106800Y-101317200D01*
X65002000Y-129968400D02*
X73652000Y-129968400D01*
X73652000Y-129968400D02*
X73652000Y-126368400D01*
X73652000Y-126368400D02*
X65002000Y-126368400D01*
X65002000Y-126368400D02*
X65002000Y-129968400D01*
X49844600Y-111490800D02*
X49844600Y-119760800D01*
X49844600Y-111490800D02*
X43384600Y-111490800D01*
X43384600Y-119760800D02*
X49844600Y-119760800D01*
X43384600Y-119760800D02*
X43384600Y-111490800D01*
X272614000Y-25884000D02*
X272614000Y-29434000D01*
X272614000Y-29434000D02*
X251264000Y-29434000D01*
X251264000Y-29434000D02*
X251264000Y-25884000D01*
X251264000Y-25884000D02*
X272614000Y-25884000D01*
X250770000Y-25884000D02*
X250770000Y-29434000D01*
X250770000Y-29434000D02*
X224370000Y-29434000D01*
X224370000Y-29434000D02*
X224370000Y-25884000D01*
X224370000Y-25884000D02*
X250770000Y-25884000D01*
X256312600Y-77747200D02*
X256312600Y-74197200D01*
X256312600Y-74197200D02*
X272562600Y-74197200D01*
X272562600Y-74197200D02*
X272562600Y-77747200D01*
X272562600Y-77747200D02*
X256312600Y-77747200D01*
X233452600Y-77747200D02*
X233452600Y-74197200D01*
X233452600Y-74197200D02*
X254802600Y-74197200D01*
X254802600Y-74197200D02*
X254802600Y-77747200D01*
X254802600Y-77747200D02*
X233452600Y-77747200D01*
X243081400Y-91843000D02*
X251731400Y-91843000D01*
X251731400Y-91843000D02*
X251731400Y-88243000D01*
X251731400Y-88243000D02*
X243081400Y-88243000D01*
X243081400Y-88243000D02*
X243081400Y-91843000D01*
X146434400Y-158949800D02*
X167784400Y-158949800D01*
X167784400Y-158949800D02*
X167784400Y-155349800D01*
X167784400Y-155349800D02*
X146434400Y-155349800D01*
X146434400Y-155349800D02*
X146434400Y-158949800D01*
X170056400Y-158949800D02*
X178706400Y-158949800D01*
X178706400Y-158949800D02*
X178706400Y-155349800D01*
X178706400Y-155349800D02*
X170056400Y-155349800D01*
X170056400Y-155349800D02*
X170056400Y-158949800D01*
X229162200Y-160524600D02*
X237812200Y-160524600D01*
X237812200Y-160524600D02*
X237812200Y-156924600D01*
X237812200Y-156924600D02*
X229162200Y-156924600D01*
X229162200Y-156924600D02*
X229162200Y-160524600D01*
X47882400Y-92573600D02*
X59082400Y-92573600D01*
X59082400Y-92573600D02*
X59082400Y-88973600D01*
X59082400Y-88973600D02*
X47882400Y-88973600D01*
X47882400Y-88973600D02*
X47882400Y-92573600D01*
X65916400Y-119910000D02*
X74566400Y-119910000D01*
X74566400Y-119910000D02*
X74566400Y-116310000D01*
X74566400Y-116310000D02*
X65916400Y-116310000D01*
X65916400Y-116310000D02*
X65916400Y-119910000D01*
X44329600Y-105960800D02*
X65679600Y-105960800D01*
X65679600Y-105960800D02*
X65679600Y-102360800D01*
X65679600Y-102360800D02*
X44329600Y-102360800D01*
X44329600Y-102360800D02*
X44329600Y-105960800D01*
X103870400Y-138163400D02*
X103870400Y-137223400D01*
X103870400Y-137223400D02*
X105730400Y-137223400D01*
X105730400Y-137223400D02*
X105730400Y-138163400D01*
X105730400Y-138163400D02*
X103870400Y-138163400D01*
X99710600Y-157492600D02*
X99710600Y-158432600D01*
X99710600Y-158432600D02*
X97850600Y-158432600D01*
X97850600Y-158432600D02*
X97850600Y-157492600D01*
X97850600Y-157492600D02*
X99710600Y-157492600D01*
X56489200Y-117683600D02*
X55549200Y-117683600D01*
X55549200Y-117683600D02*
X55549200Y-115823600D01*
X55549200Y-115823600D02*
X56489200Y-115823600D01*
X56489200Y-115823600D02*
X56489200Y-117683600D01*
X80491400Y-16720000D02*
X80491400Y-18180000D01*
X80491400Y-18180000D02*
X77531400Y-18180000D01*
X77531400Y-18180000D02*
X77531400Y-16720000D01*
X77531400Y-16720000D02*
X80491400Y-16720000D01*
X85190400Y-16720000D02*
X85190400Y-18180000D01*
X85190400Y-18180000D02*
X82230400Y-18180000D01*
X82230400Y-18180000D02*
X82230400Y-16720000D01*
X82230400Y-16720000D02*
X85190400Y-16720000D01*
X89889400Y-16720000D02*
X89889400Y-18180000D01*
X89889400Y-18180000D02*
X86929400Y-18180000D01*
X86929400Y-18180000D02*
X86929400Y-16720000D01*
X86929400Y-16720000D02*
X89889400Y-16720000D01*
X188080100Y-140938000D02*
X188080100Y-139478000D01*
X188080100Y-139478000D02*
X191040100Y-139478000D01*
X191040100Y-139478000D02*
X191040100Y-140938000D01*
X191040100Y-140938000D02*
X188080100Y-140938000D01*
X193185500Y-140938000D02*
X193185500Y-139478000D01*
X193185500Y-139478000D02*
X196145500Y-139478000D01*
X196145500Y-139478000D02*
X196145500Y-140938000D01*
X196145500Y-140938000D02*
X193185500Y-140938000D01*
X197681500Y-140938000D02*
X197681500Y-139478000D01*
X197681500Y-139478000D02*
X200641500Y-139478000D01*
X200641500Y-139478000D02*
X200641500Y-140938000D01*
X200641500Y-140938000D02*
X197681500Y-140938000D01*
X62297800Y-136391800D02*
X63757800Y-136391800D01*
X63757800Y-136391800D02*
X63757800Y-139351800D01*
X63757800Y-139351800D02*
X62297800Y-139351800D01*
X62297800Y-139351800D02*
X62297800Y-136391800D01*
X63387800Y-134441300D02*
X61927800Y-134441300D01*
X61927800Y-134441300D02*
X61927800Y-131481300D01*
X61927800Y-131481300D02*
X63387800Y-131481300D01*
X63387800Y-131481300D02*
X63387800Y-134441300D01*
X94929600Y-159524800D02*
X94929600Y-158584800D01*
X94929600Y-158584800D02*
X96789600Y-158584800D01*
X96789600Y-158584800D02*
X96789600Y-159524800D01*
X96789600Y-159524800D02*
X94929600Y-159524800D01*
X213464000Y-136008000D02*
X211224000Y-136008000D01*
X211224000Y-136008000D02*
X211224000Y-131448000D01*
X211224000Y-131448000D02*
X213464000Y-131448000D01*
X213464000Y-131448000D02*
X213464000Y-136008000D01*
X223416000Y-139455000D02*
X225656000Y-139455000D01*
X225656000Y-139455000D02*
X225656000Y-144015000D01*
X225656000Y-144015000D02*
X223416000Y-144015000D01*
X223416000Y-144015000D02*
X223416000Y-139455000D01*
X214353000Y-151000000D02*
X212113000Y-151000000D01*
X212113000Y-151000000D02*
X212113000Y-146440000D01*
X212113000Y-146440000D02*
X214353000Y-146440000D01*
X214353000Y-146440000D02*
X214353000Y-151000000D01*
X224559000Y-152917000D02*
X226799000Y-152917000D01*
X226799000Y-152917000D02*
X226799000Y-157477000D01*
X226799000Y-157477000D02*
X224559000Y-157477000D01*
X224559000Y-157477000D02*
X224559000Y-152917000D01*
X240516600Y-37140400D02*
X239576600Y-37140400D01*
X239576600Y-37140400D02*
X239576600Y-35280400D01*
X239576600Y-35280400D02*
X240516600Y-35280400D01*
X240516600Y-35280400D02*
X240516600Y-37140400D01*
X241640800Y-42841200D02*
X240700800Y-42841200D01*
X240700800Y-42841200D02*
X240700800Y-40981200D01*
X240700800Y-40981200D02*
X241640800Y-40981200D01*
X241640800Y-40981200D02*
X241640800Y-42841200D01*
X254061200Y-48448800D02*
X255001200Y-48448800D01*
X255001200Y-48448800D02*
X255001200Y-50308800D01*
X255001200Y-50308800D02*
X254061200Y-50308800D01*
X254061200Y-50308800D02*
X254061200Y-48448800D01*
X255356600Y-52182600D02*
X256296600Y-52182600D01*
X256296600Y-52182600D02*
X256296600Y-54042600D01*
X256296600Y-54042600D02*
X255356600Y-54042600D01*
X255356600Y-54042600D02*
X255356600Y-52182600D01*
X263099000Y-59264000D02*
X263099000Y-58324000D01*
X263099000Y-58324000D02*
X264959000Y-58324000D01*
X264959000Y-58324000D02*
X264959000Y-59264000D01*
X264959000Y-59264000D02*
X263099000Y-59264000D01*
X261526000Y-70676800D02*
X261526000Y-69736800D01*
X261526000Y-69736800D02*
X263386000Y-69736800D01*
X263386000Y-69736800D02*
X263386000Y-70676800D01*
X263386000Y-70676800D02*
X261526000Y-70676800D01*
X122370000Y-145540000D02*
X121430000Y-145540000D01*
X121430000Y-145540000D02*
X121430000Y-143680000D01*
X121430000Y-143680000D02*
X122370000Y-143680000D01*
X122370000Y-143680000D02*
X122370000Y-145540000D01*
X255435000Y-155938000D02*
X256375000Y-155938000D01*
X256375000Y-155938000D02*
X256375000Y-157798000D01*
X256375000Y-157798000D02*
X255435000Y-157798000D01*
X255435000Y-157798000D02*
X255435000Y-155938000D01*
X261312800Y-154181000D02*
X263552800Y-154181000D01*
X263552800Y-154181000D02*
X263552800Y-158741000D01*
X263552800Y-158741000D02*
X261312800Y-158741000D01*
X261312800Y-158741000D02*
X261312800Y-154181000D01*
X233896000Y-131717000D02*
X232956000Y-131717000D01*
X232956000Y-131717000D02*
X232956000Y-129857000D01*
X232956000Y-129857000D02*
X233896000Y-129857000D01*
X233896000Y-129857000D02*
X233896000Y-131717000D01*
X256563000Y-154435000D02*
X258803000Y-154435000D01*
X258803000Y-154435000D02*
X258803000Y-158995000D01*
X258803000Y-158995000D02*
X256563000Y-158995000D01*
X256563000Y-158995000D02*
X256563000Y-154435000D01*
X236535000Y-132490000D02*
X234635000Y-132490000D01*
X234635000Y-132490000D02*
X234635000Y-129130000D01*
X234635000Y-129130000D02*
X236535000Y-129130000D01*
X236535000Y-129130000D02*
X236535000Y-132490000D01*
X242631000Y-151872500D02*
X240731000Y-151872500D01*
X240731000Y-151872500D02*
X240731000Y-148512500D01*
X240731000Y-148512500D02*
X242631000Y-148512500D01*
X242631000Y-148512500D02*
X242631000Y-151872500D01*
X252866800Y-146215200D02*
X252866800Y-145275200D01*
X252866800Y-145275200D02*
X254726800Y-145275200D01*
X254726800Y-145275200D02*
X254726800Y-146215200D01*
X254726800Y-146215200D02*
X252866800Y-146215200D01*
X253200000Y-131463000D02*
X252260000Y-131463000D01*
X252260000Y-131463000D02*
X252260000Y-129603000D01*
X252260000Y-129603000D02*
X253200000Y-129603000D01*
X253200000Y-129603000D02*
X253200000Y-131463000D01*
X255839000Y-132284500D02*
X253939000Y-132284500D01*
X253939000Y-132284500D02*
X253939000Y-128924500D01*
X253939000Y-128924500D02*
X255839000Y-128924500D01*
X255839000Y-128924500D02*
X255839000Y-132284500D01*
X244392000Y-150463000D02*
X244392000Y-149003000D01*
X244392000Y-149003000D02*
X247352000Y-149003000D01*
X247352000Y-149003000D02*
X247352000Y-150463000D01*
X247352000Y-150463000D02*
X244392000Y-150463000D01*
X244074500Y-146116000D02*
X244074500Y-148016000D01*
X244074500Y-148016000D02*
X240714500Y-148016000D01*
X240714500Y-148016000D02*
X240714500Y-146116000D01*
X240714500Y-146116000D02*
X244074500Y-146116000D01*
X251424800Y-141465200D02*
X251424800Y-142405200D01*
X251424800Y-142405200D02*
X249564800Y-142405200D01*
X249564800Y-142405200D02*
X249564800Y-141465200D01*
X249564800Y-141465200D02*
X251424800Y-141465200D01*
X252774800Y-138529200D02*
X252774800Y-140769200D01*
X252774800Y-140769200D02*
X248214800Y-140769200D01*
X248214800Y-140769200D02*
X248214800Y-138529200D01*
X248214800Y-138529200D02*
X252774800Y-138529200D01*
X97619600Y-153225600D02*
X97619600Y-152285600D01*
X97619600Y-152285600D02*
X99479600Y-152285600D01*
X99479600Y-152285600D02*
X99479600Y-153225600D01*
X99479600Y-153225600D02*
X97619600Y-153225600D01*
X100068600Y-153682600D02*
X100068600Y-154622600D01*
X100068600Y-154622600D02*
X98208600Y-154622600D01*
X98208600Y-154622600D02*
X98208600Y-153682600D01*
X98208600Y-153682600D02*
X100068600Y-153682600D01*
X101009800Y-154785200D02*
X101009800Y-157025200D01*
X101009800Y-157025200D02*
X96449800Y-157025200D01*
X96449800Y-157025200D02*
X96449800Y-154785200D01*
X96449800Y-154785200D02*
X101009800Y-154785200D01*
X109994600Y-143951600D02*
X110934600Y-143951600D01*
X110934600Y-143951600D02*
X110934600Y-145811600D01*
X110934600Y-145811600D02*
X109994600Y-145811600D01*
X109994600Y-145811600D02*
X109994600Y-143951600D01*
X110934600Y-153027600D02*
X109994600Y-153027600D01*
X109994600Y-153027600D02*
X109994600Y-151167600D01*
X109994600Y-151167600D02*
X110934600Y-151167600D01*
X110934600Y-151167600D02*
X110934600Y-153027600D01*
X55117200Y-118016600D02*
X52877200Y-118016600D01*
X52877200Y-118016600D02*
X52877200Y-113456600D01*
X52877200Y-113456600D02*
X55117200Y-113456600D01*
X55117200Y-113456600D02*
X55117200Y-118016600D01*
X52198000Y-72958000D02*
X68198000Y-72958000D01*
X52198000Y-67758000D02*
X52198000Y-72958000D01*
X68198000Y-67758000D02*
X52198000Y-67758000D01*
X68198000Y-72958000D02*
X68198000Y-67758000D01*
X276330200Y-34964600D02*
G75*
G03*
X276330200Y-34964600I-1750000J0D01*
G01*
X63152000Y-154354000D02*
G75*
G03*
X63152000Y-154354000I-1750000J0D01*
G01*
X276804000Y-42924000D02*
G75*
G03*
X276804000Y-42924000I-3450000J0D01*
G01*
X276802600Y-70867200D02*
G75*
G03*
X276802600Y-70867200I-3450000J0D01*
G01*
X52010000Y-16684000D02*
G75*
G03*
X52010000Y-16684000I-3450000J0D01*
G01*
X282274600Y-157560000D02*
G75*
G03*
X282274600Y-157560000I-3450000J0D01*
G01*
X52011000Y-157560000D02*
G75*
G03*
X52011000Y-157560000I-3450000J0D01*
G01*
X226004000Y-27684000D02*
G75*
G03*
X226004000Y-27684000I-3450000J0D01*
G01*
X216525200Y-119189400D02*
X216525200Y-120129400D01*
X216525200Y-120129400D02*
X214665200Y-120129400D01*
X214665200Y-120129400D02*
X214665200Y-119189400D01*
X214665200Y-119189400D02*
X216525200Y-119189400D01*
X216522800Y-118046400D02*
X216522800Y-118986400D01*
X216522800Y-118986400D02*
X214662800Y-118986400D01*
X214662800Y-118986400D02*
X214662800Y-118046400D01*
X214662800Y-118046400D02*
X216522800Y-118046400D01*
X153022400Y-149367600D02*
X152082400Y-149367600D01*
X152082400Y-149367600D02*
X152082400Y-147507600D01*
X152082400Y-147507600D02*
X153022400Y-147507600D01*
X153022400Y-147507600D02*
X153022400Y-149367600D01*
X121434200Y-141646200D02*
X121434200Y-140706200D01*
X121434200Y-140706200D02*
X123294200Y-140706200D01*
X123294200Y-140706200D02*
X123294200Y-141646200D01*
X123294200Y-141646200D02*
X121434200Y-141646200D01*
X121421800Y-143116400D02*
X121421800Y-142176400D01*
X121421800Y-142176400D02*
X123281800Y-142176400D01*
X123281800Y-142176400D02*
X123281800Y-143116400D01*
X123281800Y-143116400D02*
X121421800Y-143116400D01*
X260386400Y-65749000D02*
X260386400Y-66689000D01*
X260386400Y-66689000D02*
X258526400Y-66689000D01*
X258526400Y-66689000D02*
X258526400Y-65749000D01*
X258526400Y-65749000D02*
X260386400Y-65749000D01*
X208622800Y-127644800D02*
X209562800Y-127644800D01*
X209562800Y-127644800D02*
X209562800Y-129504800D01*
X209562800Y-129504800D02*
X208622800Y-129504800D01*
X208622800Y-129504800D02*
X208622800Y-127644800D01*
X210654800Y-127621800D02*
X211594800Y-127621800D01*
X211594800Y-127621800D02*
X211594800Y-129481800D01*
X211594800Y-129481800D02*
X210654800Y-129481800D01*
X210654800Y-129481800D02*
X210654800Y-127621800D01*
X212686800Y-127644800D02*
X213626800Y-127644800D01*
X213626800Y-127644800D02*
X213626800Y-129504800D01*
X213626800Y-129504800D02*
X212686800Y-129504800D01*
X212686800Y-129504800D02*
X212686800Y-127644800D01*
X214718800Y-127667800D02*
X215658800Y-127667800D01*
X215658800Y-127667800D02*
X215658800Y-129527800D01*
X215658800Y-129527800D02*
X214718800Y-129527800D01*
X214718800Y-129527800D02*
X214718800Y-127667800D01*
X216750800Y-127667800D02*
X217690800Y-127667800D01*
X217690800Y-127667800D02*
X217690800Y-129527800D01*
X217690800Y-129527800D02*
X216750800Y-129527800D01*
X216750800Y-129527800D02*
X216750800Y-127667800D01*
X204075800Y-120916800D02*
X204075800Y-119976800D01*
X204075800Y-119976800D02*
X205935800Y-119976800D01*
X205935800Y-119976800D02*
X205935800Y-120916800D01*
X205935800Y-120916800D02*
X204075800Y-120916800D01*
X206661800Y-120916800D02*
X206661800Y-119976800D01*
X206661800Y-119976800D02*
X208521800Y-119976800D01*
X208521800Y-119976800D02*
X208521800Y-120916800D01*
X208521800Y-120916800D02*
X206661800Y-120916800D01*
X206661800Y-124472800D02*
X206661800Y-123532800D01*
X206661800Y-123532800D02*
X208521800Y-123532800D01*
X208521800Y-123532800D02*
X208521800Y-124472800D01*
X208521800Y-124472800D02*
X206661800Y-124472800D01*
X208498800Y-122008800D02*
X208498800Y-122948800D01*
X208498800Y-122948800D02*
X206638800Y-122948800D01*
X206638800Y-122948800D02*
X206638800Y-122008800D01*
X206638800Y-122008800D02*
X208498800Y-122008800D01*
X204606800Y-125996800D02*
X204606800Y-125056800D01*
X204606800Y-125056800D02*
X206466800Y-125056800D01*
X206466800Y-125056800D02*
X206466800Y-125996800D01*
X206466800Y-125996800D02*
X204606800Y-125996800D01*
X207169800Y-125996800D02*
X207169800Y-125056800D01*
X207169800Y-125056800D02*
X209029800Y-125056800D01*
X209029800Y-125056800D02*
X209029800Y-125996800D01*
X209029800Y-125996800D02*
X207169800Y-125996800D01*
X218935200Y-119389800D02*
X219875200Y-119389800D01*
X219875200Y-119389800D02*
X219875200Y-121249800D01*
X219875200Y-121249800D02*
X218935200Y-121249800D01*
X218935200Y-121249800D02*
X218935200Y-119389800D01*
X220306800Y-119339000D02*
X221246800Y-119339000D01*
X221246800Y-119339000D02*
X221246800Y-121199000D01*
X221246800Y-121199000D02*
X220306800Y-121199000D01*
X220306800Y-121199000D02*
X220306800Y-119339000D01*
X225285800Y-122516800D02*
X225285800Y-123456800D01*
X225285800Y-123456800D02*
X223425800Y-123456800D01*
X223425800Y-123456800D02*
X223425800Y-122516800D01*
X223425800Y-122516800D02*
X225285800Y-122516800D01*
X225288200Y-123609000D02*
X225288200Y-124549000D01*
X225288200Y-124549000D02*
X223428200Y-124549000D01*
X223428200Y-124549000D02*
X223428200Y-123609000D01*
X223428200Y-123609000D02*
X225288200Y-123609000D01*
X225313600Y-124777400D02*
X225313600Y-125717400D01*
X225313600Y-125717400D02*
X223453600Y-125717400D01*
X223453600Y-125717400D02*
X223453600Y-124777400D01*
X223453600Y-124777400D02*
X225313600Y-124777400D01*
X191861800Y-132372000D02*
X191861800Y-133312000D01*
X191861800Y-133312000D02*
X190001800Y-133312000D01*
X190001800Y-133312000D02*
X190001800Y-132372000D01*
X190001800Y-132372000D02*
X191861800Y-132372000D01*
X190382800Y-135217000D02*
X190382800Y-134277000D01*
X190382800Y-134277000D02*
X192242800Y-134277000D01*
X192242800Y-134277000D02*
X192242800Y-135217000D01*
X192242800Y-135217000D02*
X190382800Y-135217000D01*
X237962600Y-156733000D02*
X237962600Y-152893000D01*
X237962600Y-152893000D02*
X245602600Y-152893000D01*
X245602600Y-152893000D02*
X245602600Y-156733000D01*
X245602600Y-156733000D02*
X237962600Y-156733000D01*
X89595200Y-158165800D02*
G75*
G03*
X89595200Y-158165800I-1000000J0D01*
G01*
X86046600Y-140053600D02*
G75*
G03*
X86046600Y-140053600I-1000000J0D01*
G01*
X49269600Y-81178000D02*
G75*
G03*
X49269600Y-81178000I-1000000J0D01*
G01*
X49269600Y-83464400D02*
G75*
G03*
X49269600Y-83464400I-1000000J0D01*
G01*
X267319000Y-155067000D02*
G75*
G03*
X267319000Y-155067000I-1000000J0D01*
G01*
X103717600Y-137337800D02*
G75*
G03*
X103717600Y-137337800I-1000000J0D01*
G01*
X222792800Y-122986800D02*
G75*
G03*
X222792800Y-122986800I-1000000J0D01*
G01*
X222792800Y-125526800D02*
G75*
G03*
X222792800Y-125526800I-1000000J0D01*
G01*
X222792800Y-128066800D02*
G75*
G03*
X222792800Y-128066800I-1000000J0D01*
G01*
X57534400Y-19351400D02*
X73834400Y-19351400D01*
X73834400Y-19351400D02*
X73834400Y-15751400D01*
X73834400Y-15751400D02*
X57534400Y-15751400D01*
X57534400Y-15751400D02*
X57534400Y-19351400D01*
X223117000Y-101672800D02*
X239417000Y-101672800D01*
X239417000Y-101672800D02*
X239417000Y-98072800D01*
X239417000Y-98072800D02*
X223117000Y-98072800D01*
X223117000Y-98072800D02*
X223117000Y-101672800D01*
X153629400Y-150405200D02*
X164429400Y-150405200D01*
X164429400Y-150405200D02*
X164429400Y-138545200D01*
X164429400Y-138545200D02*
X153629400Y-138545200D01*
X153629400Y-138545200D02*
X153629400Y-150405200D01*
X254058400Y-48248600D02*
X254058400Y-47308600D01*
X254058400Y-47308600D02*
X255918400Y-47308600D01*
X255918400Y-47308600D02*
X255918400Y-48248600D01*
X255918400Y-48248600D02*
X254058400Y-48248600D01*
X94142600Y-151953200D02*
X98292600Y-151953200D01*
X98292600Y-151953200D02*
X98292600Y-150503200D01*
X98292600Y-150503200D02*
X99392600Y-150503200D01*
X99392600Y-150503200D02*
X99392600Y-149403200D01*
X99392600Y-149403200D02*
X100842600Y-149403200D01*
X100842600Y-149403200D02*
X100842600Y-145253200D01*
X94142600Y-151953200D02*
X89992600Y-151953200D01*
X89992600Y-151953200D02*
X89992600Y-150503200D01*
X89992600Y-150503200D02*
X88892600Y-150503200D01*
X88892600Y-150503200D02*
X88892600Y-149403200D01*
X88892600Y-149403200D02*
X87442600Y-149403200D01*
X87442600Y-149403200D02*
X87442600Y-145253200D01*
X94142600Y-138553200D02*
X98292600Y-138553200D01*
X98292600Y-138553200D02*
X98292600Y-140003200D01*
X98292600Y-140003200D02*
X99392600Y-140003200D01*
X99392600Y-140003200D02*
X99392600Y-141103200D01*
X99392600Y-141103200D02*
X100842600Y-141103200D01*
X100842600Y-141103200D02*
X100842600Y-145253200D01*
X94142600Y-138553200D02*
X89992600Y-138553200D01*
X89992600Y-138553200D02*
X89992600Y-140003200D01*
X89992600Y-140003200D02*
X88892600Y-140003200D01*
X88892600Y-140003200D02*
X88892600Y-141103200D01*
X88892600Y-141103200D02*
X87442600Y-141103200D01*
X87442600Y-141103200D02*
X87442600Y-145253200D01*
X60953800Y-143621800D02*
X60953800Y-127081800D01*
X60953800Y-127081800D02*
X43453800Y-127081800D01*
X43453800Y-127081800D02*
X43453800Y-143621800D01*
X43453800Y-143621800D02*
X60953800Y-143621800D01*
X91859600Y-152666600D02*
X91859600Y-153606600D01*
X91859600Y-153606600D02*
X89999600Y-153606600D01*
X89999600Y-153606600D02*
X89999600Y-152666600D01*
X89999600Y-152666600D02*
X91859600Y-152666600D01*
X94296600Y-159692600D02*
X94296600Y-155892600D01*
X90696600Y-159692600D02*
X94296600Y-159692600D01*
X90696600Y-155892600D02*
X90696600Y-159692600D01*
X94296600Y-155892600D02*
X90696600Y-155892600D01*
X103292600Y-140183600D02*
X103292600Y-156183600D01*
X108492600Y-140183600D02*
X103292600Y-140183600D01*
X108492600Y-156183600D02*
X108492600Y-140183600D01*
X103292600Y-156183600D02*
X108492600Y-156183600D01*
X243647000Y-144887500D02*
X241747000Y-144887500D01*
X241747000Y-144887500D02*
X241747000Y-141527500D01*
X241747000Y-141527500D02*
X243647000Y-141527500D01*
X243647000Y-141527500D02*
X243647000Y-144887500D01*
X53199800Y-76644600D02*
X53199800Y-75704600D01*
X53199800Y-75704600D02*
X55059800Y-75704600D01*
X55059800Y-75704600D02*
X55059800Y-76644600D01*
X55059800Y-76644600D02*
X53199800Y-76644600D01*
X209571100Y-120530500D02*
X209571100Y-126180500D01*
X216971100Y-120530500D02*
X216971100Y-126180500D01*
X209571100Y-120530500D02*
X216971100Y-120530500D01*
X209571100Y-126180500D02*
X216971100Y-126180500D01*
X55127800Y-66992600D02*
X55127800Y-66052600D01*
X55127800Y-66052600D02*
X56987800Y-66052600D01*
X56987800Y-66052600D02*
X56987800Y-66992600D01*
X56987800Y-66992600D02*
X55127800Y-66992600D01*
X65143600Y-66052600D02*
X65143600Y-66992600D01*
X65143600Y-66992600D02*
X63283600Y-66992600D01*
X63283600Y-66992600D02*
X63283600Y-66052600D01*
X63283600Y-66052600D02*
X65143600Y-66052600D01*
M02*
