M48
; DRILL file {KiCad 5.1.6-c6e7f7d~87~ubuntu18.04.1} date Fri Aug 14 22:17:18 2020
; FORMAT={-:-/ absolute / inch / decimal}
; #@! TF.CreationDate,2020-08-14T22:17:18+05:30
; #@! TF.GenerationSoftware,Kicad,Pcbnew,5.1.6-c6e7f7d~87~ubuntu18.04.1
; #@! TF.FileFunction,Plated,1,4,PTH
FMAT,2
INCH
T1C0.0079
T2C0.0080
T3C0.0120
T4C0.0157
T5C0.0158
T6C0.0160
T7C0.0256
T8C0.0276
T9C0.0315
T10C0.0354
T11C0.0362
T12C0.0374
T13C0.0394
T14C0.0610
T15C0.0917
T16C0.1378
%
G90
G05
T1
X8.5901Y-5.9865
X8.5901Y-6.0259
X8.5901Y-6.0653
X8.6413Y-5.9865
X8.6413Y-6.0259
X8.6413Y-6.0653
X9.749Y-5.7136
X9.749Y-5.753
X9.749Y-5.7924
X9.8001Y-5.7136
X9.8001Y-5.753
X9.8001Y-5.7924
X8.5657Y-5.4107
X8.5657Y-5.45
X8.5657Y-5.4894
X8.6169Y-5.4107
X8.6169Y-5.45
X8.6169Y-5.4894
T2
X1.8256Y-4.2776
X1.8344Y-3.8744
X1.86Y-3.232
X1.8606Y-3.9454
X1.9567Y-3.9054
X1.9831Y-4.6035
X1.9865Y-3.8545
X1.987Y-3.689
X2.079Y-3.0
X2.0817Y-3.8557
X2.0826Y-3.9105
X2.15Y-3.086
X2.172Y-1.528
X2.178Y-3.148
X2.1827Y-3.9074
X2.1845Y-3.8485
X2.1962Y-2.9988
X2.2054Y-3.0756
X2.231Y-3.684
X2.258Y-1.122
X2.259Y-2.619
X2.2621Y-2.1319
X2.288Y-1.238
X2.2927Y-3.8944
X2.296Y-1.454
X2.319Y-2.073
X2.322Y-1.929
X2.326Y-3.058
X2.3373Y-1.6033
X2.35Y-3.126
X2.39Y-3.005
X2.408Y-1.224
X2.418Y-1.086
X2.4228Y-2.99
X2.426Y-5.274
X2.43Y-3.176
X2.4367Y-3.8924
X2.4387Y-3.029
X2.478Y-1.359
X2.4917Y-2.619
X2.539Y-3.0795
X2.542Y-5.852
X2.544Y-3.118
X2.58Y-1.308
X2.625Y-3.02
X2.63Y-3.1
X2.64Y-1.284
X2.772Y-3.148
X2.8Y-3.152
X2.844Y-3.188
X2.8642Y-3.5214
X2.866Y-3.132
X2.8669Y-3.5602
X2.8756Y-3.6051
X2.886Y-3.16
X2.8872Y-3.4889
X2.906Y-3.132
X3.0419Y-0.6859
X3.1417Y-0.6364
X3.19Y-2.724
X3.192Y-0.679
X3.196Y-5.595
X3.23Y-5.775
X3.24Y-2.696
X3.248Y-2.754
X3.2685Y-5.5587
X3.2957Y-5.7217
X3.3017Y-0.6434
X3.382Y-5.625
X3.391Y-0.662
X3.3934Y-5.7986
X3.394Y-6.094
X3.4264Y-5.8466
X3.466Y-5.423
X3.484Y-5.964
X3.5121Y-0.6443
X3.524Y-6.029
X3.549Y-5.719
X3.559Y-5.423
X3.559Y-5.689
X3.589Y-5.814
X3.6131Y-5.7449
X3.619Y-5.879
X3.636Y-6.019
X3.648Y-3.952
X3.6547Y-6.1244
X3.69Y-5.734
X3.696Y-5.433
X3.754Y-6.292
X3.7575Y-5.5775
X3.784Y-5.639
X3.794Y-6.232
X3.7953Y-3.3559
X3.8295Y-3.0122
X3.8308Y-5.6745
X3.834Y-6.219
X3.8365Y-6.0715
X3.842Y-5.593
X3.874Y-5.624
X3.876Y-5.7043
X3.8898Y-2.6772
X3.9063Y-3.2867
X3.91Y-5.974
X3.9106Y-3.3539
X3.926Y-6.016
X3.9291Y-2.6016
X3.936Y-5.401
X3.9386Y-3.0169
X3.954Y-5.913
X3.9614Y-2.7767
X3.9638Y-2.8167
X3.989Y-5.7049
X3.99Y-5.787
X3.9913Y-5.7484
X4.179Y-5.421
X4.3157Y-3.7059
X4.348Y-5.758
X4.348Y-5.934
X4.376Y-3.7004
X4.4197Y-2.8173
X4.4429Y-2.5795
X4.4717Y-2.5177
X4.514Y-2.874
X4.5831Y-2.9102
X4.6008Y-1.65
X4.6275Y-1.6283
X4.7681Y-5.5581
X4.772Y-5.616
X4.9311Y-4.9665
X4.9457Y-4.937
X4.95Y-4.4752
X4.9504Y-4.3567
X4.972Y-2.266
X5.0Y-5.6772
X5.0047Y-2.3273
X5.0358Y-4.3535
X5.0827Y-2.3227
X5.0988Y-4.4677
X5.124Y-2.264
X5.1295Y-4.4583
X5.1535Y-5.665
X5.1724Y-4.4819
X5.1894Y-3.7835
X5.2195Y-4.464
X5.228Y-3.72
X5.2587Y-4.4665
X5.2606Y-4.3512
X5.2976Y-1.4102
X5.304Y-1.468
X5.3047Y-4.4677
X5.3055Y-4.3413
X5.306Y-2.376
X5.33Y-2.446
X5.3524Y-4.4673
X5.3531Y-1.6193
X5.384Y-2.446
X5.3917Y-1.4909
X5.3984Y-4.4642
X5.406Y-2.376
X5.446Y-3.782
X5.4472Y-4.335
X5.4488Y-4.46
X5.4795Y-3.7256
X5.482Y-2.378
X5.482Y-2.418
X5.518Y-4.44
X5.5449Y-4.3398
X5.574Y-2.378
X5.589Y-4.3398
X5.5984Y-2.4161
X5.628Y-4.688
X5.635Y-4.3358
X5.696Y-4.716
X5.722Y-3.828
X5.746Y-4.724
X5.8067Y-1.4555
X5.987Y-2.235
X5.9874Y-2.1913
X5.9894Y-2.2846
X6.006Y-5.89
X6.0121Y-3.4816
X6.0185Y-2.3098
X6.0419Y-2.436
X6.048Y-2.816
X6.05Y-1.9882
X6.05Y-2.644
X6.05Y-2.874
X6.0501Y-3.2699
X6.0529Y-3.0111
X6.078Y-5.602
X6.082Y-2.438
X6.086Y-2.926
X6.088Y-3.274
X6.09Y-2.702
X6.09Y-3.452
X6.0911Y-3.0031
X6.092Y-2.752
X6.1083Y-5.7854
X6.114Y-5.65
X6.126Y-3.902
X6.13Y-3.74
X6.136Y-3.834
X6.1386Y-1.5594
X6.139Y-5.72
X6.151Y-1.4985
X6.1555Y-1.6217
X6.162Y-5.96
X6.164Y-3.714
X6.1752Y-1.6771
X6.176Y-1.9945
X6.188Y-5.604
X6.19Y-3.8
X6.202Y-3.766
X6.207Y-1.507
X6.268Y-5.968
X6.327Y-5.604
X6.384Y-5.976
X6.386Y-5.438
X6.4362Y-5.5689
X6.652Y-2.726
X6.6681Y-3.4291
X6.7319Y-3.1346
X6.7345Y-3.7477
X6.7361Y-3.8028
X6.763Y-3.4661
X6.7945Y-2.7079
X6.8386Y-3.1382
X7.4563Y-5.2291
X7.6339Y-5.5669
X7.6701Y-3.8425
X7.6894Y-3.4913
X7.762Y-5.326
X7.764Y-3.81
X7.771Y-3.573
X7.7843Y-3.8437
X7.786Y-3.904
X7.791Y-4.025
X7.792Y-4.08
X7.792Y-5.414
X7.7933Y-3.5311
X7.7935Y-3.9659
X7.8091Y-3.3417
X7.813Y-5.5732
X7.8134Y-4.1091
X7.8159Y-3.985
X7.8159Y-4.0447
X7.816Y-3.9259
X7.816Y-3.87
X7.818Y-5.232
X7.822Y-3.731
X7.823Y-3.77
X7.9272Y-3.8862
X7.9402Y-3.9823
X7.96Y-3.635
X7.964Y-3.754
X7.968Y-3.803
X7.9955Y-3.7265
X8.012Y-4.738
X8.042Y-4.942
X8.054Y-3.75
X8.074Y-3.644
X8.092Y-3.748
X8.1Y-3.722
X8.1126Y-4.8205
X8.1284Y-3.7064
X8.145Y-5.905
X8.1603Y-3.6637
X8.18Y-6.065
X8.185Y-5.745
X8.199Y-4.981
X8.213Y-4.742
X8.2134Y-3.6427
X8.2145Y-3.5455
X8.24Y-5.71
X8.243Y-3.67
X8.2441Y-3.5779
X8.2561Y-3.7881
X8.26Y-5.185
X8.264Y-3.562
X8.265Y-3.611
X8.265Y-6.005
X8.2718Y-3.7491
X8.3Y-5.75
X8.348Y-5.116
X8.384Y-3.788
X8.389Y-3.633
X8.3945Y-3.3169
X8.396Y-3.718
X8.4102Y-3.8874
X8.4276Y-4.8256
X8.435Y-5.18
X8.4449Y-3.4677
X8.447Y-3.929
X8.4504Y-4.0268
X8.455Y-5.7
X8.4688Y-4.6412
X8.485Y-3.58
X8.485Y-6.23
X8.487Y-3.926
X8.507Y-4.644
X8.5232Y-3.3165
X8.5287Y-4.0638
X8.555Y-6.16
X8.596Y-5.118
X8.6339Y-4.8004
X8.638Y-4.688
X8.665Y-6.22
X8.692Y-4.685
X8.724Y-5.238
X8.79Y-5.67
X8.8Y-5.775
X8.82Y-6.17
X8.846Y-5.148
X8.875Y-5.72
X8.995Y-5.625
X9.065Y-5.82
X9.18Y-5.51
X9.185Y-5.685
X9.22Y-5.24
X9.256Y-4.999
X9.295Y-5.205
X9.315Y-6.14
X9.32Y-5.73
X9.345Y-6.05
X9.41Y-5.29
X9.41Y-6.255
X9.4519Y-1.374
X9.46Y-5.79
X9.4629Y-1.672
X9.48Y-4.97
X9.4949Y-1.598
X9.52Y-5.27
X9.555Y-5.54
X9.59Y-5.365
X9.5984Y-1.7201
X9.62Y-5.495
X9.6272Y-1.6976
X9.6496Y-2.4728
X9.6843Y-2.5386
X9.685Y-6.305
X9.7Y-5.555
X9.7331Y-2.5114
X9.755Y-5.51
X9.76Y-6.09
X9.78Y-6.245
X9.794Y-2.456
X9.811Y-5.587
X9.825Y-5.9
X9.844Y-3.17
X9.86Y-5.865
X9.865Y-5.015
X9.88Y-6.305
X9.885Y-6.015
X9.92Y-5.89
X9.94Y-6.25
X9.951Y-5.095
X10.02Y-6.09
X10.0209Y-1.998
X10.03Y-6.31
X10.0719Y-2.136
X10.0739Y-2.038
X10.143Y-2.815
X10.1957Y-2.6339
X10.205Y-4.97
X10.24Y-5.51
X10.255Y-6.265
X10.273Y-6.105
X10.345Y-5.45
X10.3459Y-2.314
X10.3519Y-2.795
X10.38Y-2.522
X10.41Y-2.476
X10.425Y-6.33
X10.432Y-5.758
X10.4399Y-2.3147
X10.445Y-5.52
X10.445Y-5.99
X10.505Y-6.255
X10.514Y-5.718
X10.54Y-5.455
X10.602Y-5.768
X10.61Y-5.53
X10.895Y-5.165
X10.895Y-5.285
X10.9Y-5.415
X10.9476Y-2.4496
X10.96Y-5.355
X10.97Y-5.22
T3
X2.149Y-1.593
X2.171Y-0.996
X2.53Y-5.45
X3.589Y-5.621
X8.758Y-5.476
X8.758Y-5.476
X8.852Y-4.795
X9.4942Y-1.4033
X10.1718Y-2.5539
T4
X2.172Y-5.697
X2.467Y-5.147
T5
X3.8286Y-5.855
T6
X1.984Y-3.074
X2.1259Y-4.4481
X2.881Y-3.897
X3.428Y-6.124
X7.14Y-5.322
X7.206Y-5.98
X7.352Y-5.792
X7.56Y-6.08
X7.724Y-5.894
X7.939Y-5.615
X8.19Y-5.495
X8.285Y-5.335
X8.39Y-5.39
X9.902Y-1.927
X10.1412Y-2.764
X10.375Y-4.545
X10.435Y-4.625
X10.535Y-4.175
X10.59Y-4.66
X10.61Y-4.115
X10.66Y-4.18
X10.69Y-4.86
X10.735Y-4.12
X10.8Y-4.19
X10.875Y-4.14
T9
X2.1492Y-1.8204
X2.1492Y-1.9204
X2.1492Y-2.0204
X2.4492Y-1.8204
X2.4492Y-1.9204
X2.4492Y-2.0204
T10
X4.0409Y-2.3591
X4.0409Y-2.4394
X4.0409Y-2.6
X4.0409Y-2.6803
X4.0409Y-2.7607
X4.0409Y-2.841
X4.0409Y-2.9213
X4.0409Y-3.0016
X4.0409Y-3.0819
X4.0409Y-3.3229
X4.0409Y-3.4032
X4.0409Y-3.4835
X4.0409Y-3.5638
X4.0423Y-2.5197
X4.1409Y-2.4193
X4.1409Y-2.4996
X4.1409Y-2.5799
X4.1409Y-2.6603
X4.1409Y-2.7406
X4.1409Y-2.8209
X4.1409Y-2.9012
X4.1409Y-2.9815
X4.1409Y-3.0618
X4.1409Y-3.1421
X4.1409Y-3.2225
X4.1409Y-3.3028
X4.1409Y-3.3831
X4.1409Y-3.4634
X4.1409Y-3.5437
X4.1409Y-3.624
X4.2409Y-2.3992
X4.2409Y-2.4796
X4.2409Y-2.5599
X4.2409Y-2.6402
X4.2409Y-2.7205
X4.2409Y-2.8008
X4.2409Y-2.8811
X4.2409Y-2.9614
X4.2409Y-3.0418
X4.2409Y-3.1221
X4.2409Y-3.2024
X4.2409Y-3.2827
X4.2409Y-3.363
X4.2409Y-3.4433
X4.2409Y-3.5236
X4.2409Y-3.604
X4.3409Y-2.3792
X4.3409Y-2.4595
X4.3409Y-2.5398
X4.3409Y-2.6201
X4.3409Y-2.7004
X4.3409Y-2.7807
X4.3409Y-2.861
X4.3409Y-2.9414
X4.3409Y-3.0217
X4.3409Y-3.102
X4.3409Y-3.1823
X4.3409Y-3.2626
X4.3409Y-3.3429
X4.3409Y-3.4233
X4.3409Y-3.5036
X4.3409Y-3.5839
X4.638Y-1.8569
X4.6431Y-4.2211
X4.658Y-1.9569
X4.6632Y-3.9211
X4.6781Y-2.0569
X4.6832Y-4.0211
X4.6982Y-1.7569
X4.7033Y-4.1211
X4.7183Y-1.8569
X4.7234Y-4.2211
X4.7384Y-1.9569
X4.7435Y-3.9211
X4.7584Y-2.0569
X4.7636Y-4.0211
X4.7785Y-1.7569
X4.7836Y-4.1211
X4.7986Y-1.8569
X4.8037Y-4.2211
X4.8187Y-1.9569
X4.8238Y-3.9211
X4.8387Y-2.0569
X4.8439Y-4.0211
X4.8588Y-1.7569
X4.8639Y-4.1211
X4.8789Y-1.8569
X4.884Y-4.2211
X4.899Y-1.9569
X4.9041Y-3.9211
X4.9191Y-2.0569
X4.9242Y-4.0211
X4.9391Y-1.7569
X4.9443Y-4.1211
X4.9592Y-1.8569
X4.9643Y-4.2211
X4.9793Y-1.9569
X4.9844Y-3.9211
X4.9994Y-2.0569
X5.0045Y-4.0211
X5.0195Y-1.7569
X5.0246Y-4.1211
X5.0395Y-1.8569
X5.0447Y-4.2211
X5.0596Y-1.9569
X5.0647Y-3.9211
X5.0797Y-2.0569
X5.0848Y-4.0211
X5.0998Y-1.7569
X5.1049Y-4.1211
X5.1199Y-1.8569
X5.125Y-4.2211
X5.1399Y-1.9569
X5.145Y-3.9211
X5.16Y-2.0569
X5.1651Y-4.0211
X5.1801Y-1.7569
X5.1852Y-4.1211
X5.2002Y-1.8569
X5.2053Y-4.2211
X5.2202Y-1.9569
X5.2254Y-3.9211
X5.2403Y-2.0569
X5.2454Y-4.0211
X5.2604Y-1.7569
X5.2655Y-4.1211
X5.2805Y-1.8569
X5.2856Y-4.2211
X5.3006Y-1.9569
X5.3057Y-3.9211
X5.3206Y-2.0569
X5.3258Y-4.0211
X5.3407Y-1.7569
X5.3458Y-4.1211
X5.3608Y-1.8569
X5.3659Y-4.2211
X5.3809Y-1.9569
X5.386Y-3.9211
X5.401Y-2.0569
X5.4061Y-4.0211
X5.421Y-1.7569
X5.4261Y-4.1211
X5.4411Y-1.8569
X5.4462Y-4.2211
X5.4612Y-1.9569
X5.4663Y-3.9211
X5.4813Y-2.0569
X5.4864Y-4.0211
X5.5013Y-1.7569
X5.5065Y-4.1211
X5.5214Y-1.8569
X5.5265Y-4.2211
X5.5415Y-1.9569
X5.5466Y-3.9211
X5.5667Y-4.0211
X5.5817Y-1.7569
X5.5868Y-4.1211
X5.6017Y-1.8569
X5.6069Y-4.2211
X5.6218Y-1.9569
X5.6269Y-3.9211
X5.6419Y-2.0569
X5.647Y-4.0211
X5.662Y-1.7569
X5.6671Y-4.1211
X5.6821Y-1.8569
X5.6872Y-4.2211
X5.7021Y-1.9569
X5.7073Y-3.9211
X5.7222Y-2.0569
X5.7273Y-4.0211
X5.7423Y-1.7569
X5.7474Y-4.1211
X5.7624Y-1.8569
X5.7675Y-4.2211
X5.7824Y-1.9569
X5.7876Y-3.9211
X5.8025Y-2.0569
X5.8076Y-4.0211
X5.8226Y-1.7569
X5.8277Y-4.1211
X5.8427Y-1.8569
X5.8478Y-4.2211
X5.8628Y-1.9569
X5.8679Y-3.9211
X5.8828Y-2.0569
X5.888Y-4.0211
X5.9029Y-1.7569
X5.908Y-4.1211
X6.2051Y-2.3941
X6.2051Y-2.4744
X6.2051Y-2.5547
X6.2051Y-2.6351
X6.2051Y-2.7154
X6.2051Y-2.7957
X6.2051Y-2.876
X6.2051Y-2.9563
X6.2051Y-3.0366
X6.2051Y-3.117
X6.2051Y-3.1973
X6.2051Y-3.2776
X6.2051Y-3.3579
X6.2051Y-3.4382
X6.2051Y-3.5185
X6.2051Y-3.5988
X6.3051Y-2.374
X6.3051Y-2.4544
X6.3051Y-2.5347
X6.3051Y-2.615
X6.3051Y-2.7756
X6.3051Y-2.8559
X6.3051Y-2.9362
X6.3051Y-3.0166
X6.3051Y-3.0969
X6.3051Y-3.1772
X6.3051Y-3.2575
X6.3051Y-3.3378
X6.3051Y-3.4181
X6.3051Y-3.4984
X6.3051Y-3.5788
X6.4051Y-2.354
X6.4051Y-2.4343
X6.4051Y-2.5146
X6.4051Y-2.5949
X6.4051Y-2.6752
X6.4051Y-2.7555
X6.4051Y-2.8359
X6.4051Y-2.9162
X6.4051Y-2.9965
X6.4051Y-3.0768
X6.4051Y-3.1571
X6.4051Y-3.2374
X6.4051Y-3.3177
X6.4051Y-3.3981
X6.4051Y-3.4784
X6.4051Y-3.5587
X6.5037Y-3.5386
X6.5051Y-2.4142
X6.5051Y-2.4945
X6.5051Y-2.5748
X6.5051Y-2.6551
X6.5051Y-2.7355
X6.5051Y-2.8158
X6.5051Y-2.8961
X6.5051Y-2.9764
X6.5051Y-3.0567
X6.5051Y-3.137
X6.5051Y-3.2173
X6.5051Y-3.2977
X6.5051Y-3.378
X6.5051Y-3.4583
X6.5051Y-3.6189
T11
X6.3051Y-2.6953
X2.2427Y-5.2796
X2.2427Y-5.378
X2.3214Y-5.2796
X2.3214Y-5.378
T12
X4.0409Y-3.2425
T13
X9.642Y-3.918
X9.742Y-3.918
X9.842Y-3.918
X1.956Y-3.5738
X2.056Y-3.5738
X2.156Y-3.5738
X2.256Y-3.5738
X10.695Y-5.524
X10.8919Y-5.524
X2.336Y-0.691
X2.436Y-0.691
X2.536Y-0.691
X2.636Y-0.691
X2.736Y-0.691
X2.836Y-0.691
X9.2619Y-2.99
X9.3619Y-2.99
X9.4619Y-2.99
X9.5619Y-2.99
X9.6619Y-2.99
X9.7619Y-2.99
X9.8619Y-2.99
X9.9619Y-2.99
X6.766Y-6.187
X6.866Y-6.187
X6.966Y-6.187
X9.641Y-3.545
X9.741Y-3.545
X9.841Y-3.545
X4.0409Y-3.1622
X5.5616Y-2.0569
X9.093Y-6.249
X9.193Y-6.249
X9.293Y-6.249
X2.666Y-4.65
X2.766Y-4.65
X2.866Y-4.65
X1.8161Y-4.1008
X1.9161Y-4.1008
X2.0161Y-4.1008
X2.1161Y-4.1008
X2.2161Y-4.1008
X2.3161Y-4.1008
X2.4161Y-4.1008
X2.5161Y-4.1008
X4.864Y-6.187
X4.964Y-6.187
X5.064Y-6.187
X5.164Y-6.187
X8.855Y-3.932
X8.955Y-3.932
X9.055Y-3.932
X9.155Y-3.932
X9.255Y-3.932
X9.355Y-3.932
X8.902Y-1.0899
X9.002Y-1.0899
X9.102Y-1.0899
X9.202Y-1.0899
X9.302Y-1.0899
X9.402Y-1.0899
X9.502Y-1.0899
X9.602Y-1.0899
X9.702Y-1.0899
X9.802Y-1.0899
X10.1619Y-2.99
X10.2619Y-2.99
X10.3619Y-2.99
X10.4619Y-2.99
X10.5619Y-2.99
X10.6619Y-2.99
X2.63Y-5.046
X2.73Y-5.046
X2.83Y-5.046
X5.836Y-6.187
X5.936Y-6.187
X6.036Y-6.187
X6.136Y-6.187
X6.236Y-6.187
X6.336Y-6.187
X6.436Y-6.187
X6.536Y-6.187
X9.962Y-1.0899
X10.062Y-1.0899
X10.162Y-1.0899
X10.262Y-1.0899
X10.362Y-1.0899
X10.462Y-1.0899
X10.562Y-1.0899
X10.662Y-1.0899
T14
X10.674Y-5.02
X10.874Y-5.02
T15
X2.136Y-5.0918
X2.136Y-5.5658
T16
X3.773Y-1.489
X3.773Y-4.489
X6.773Y-1.489
X6.773Y-4.489
T7
G00X1.9153Y-4.4557
M15
G01X1.9311Y-4.4557
M16
G05
G00X1.9153Y-4.6463
M15
G01X1.9311Y-4.6463
M16
G05
T8
G00X1.7953Y-4.4435
M15
G01X1.8149Y-4.4435
M16
G05
G00X1.7953Y-4.6585
M15
G01X1.8149Y-4.6585
M16
G05
T13
G00X10.4855Y-4.365
M15
G01X10.4855Y-4.4634
M16
G05
G00X10.5643Y-4.2292
M15
G01X10.643Y-4.2292
M16
G05
G00X10.7217Y-4.3748
M15
G01X10.7217Y-4.4536
M16
G05
T0
M30
