%FSLAX45Y45*%
G04 Gerber Fmt 4.5, Leading zero omitted, Abs format (unit mm)*
G04 Created by KiCad (PCBNEW 5.1.6-c6e7f7d~87~ubuntu16.04.1) date 2020-08-04 23:09:04*
%MOMM*%
%LPD*%
G01*
G04 APERTURE LIST*
%TA.AperFunction,Profile*%
%ADD10C,0.100000*%
%TD*%
%ADD11C,0.200000*%
%ADD12C,0.300000*%
G04 APERTURE END LIST*
D10*
X28170620Y-4568060D02*
X28170620Y-16221060D01*
X12310620Y-4568060D02*
X28170620Y-4568060D01*
X12310620Y-16221060D02*
X12310620Y-4568060D01*
X28170620Y-16221060D02*
X12310620Y-16221060D01*
D11*
X21938900Y-15195820D02*
X21958900Y-15215820D01*
X21958900Y-15195820D02*
X21938900Y-15215820D01*
X24882380Y-14502620D02*
X24902380Y-14522620D01*
X24902380Y-14502620D02*
X24882380Y-14522620D01*
X21746920Y-13733080D02*
X21766920Y-13753080D01*
X21766920Y-13733080D02*
X21746920Y-13753080D01*
X21746920Y-13833080D02*
X21766920Y-13853080D01*
X21766920Y-13833080D02*
X21746920Y-13853080D01*
X21746920Y-13933080D02*
X21766920Y-13953080D01*
X21766920Y-13933080D02*
X21746920Y-13953080D01*
X21876920Y-13733080D02*
X21896920Y-13753080D01*
X21896920Y-13733080D02*
X21876920Y-13753080D01*
X21876920Y-13833080D02*
X21896920Y-13853080D01*
X21896920Y-13833080D02*
X21876920Y-13853080D01*
X21876920Y-13933080D02*
X21896920Y-13953080D01*
X21896920Y-13933080D02*
X21876920Y-13953080D01*
X21808900Y-15195820D02*
X21828900Y-15215820D01*
X21828900Y-15195820D02*
X21808900Y-15215820D01*
X21808900Y-15295820D02*
X21828900Y-15315820D01*
X21828900Y-15295820D02*
X21808900Y-15315820D01*
X21808900Y-15395820D02*
X21828900Y-15415820D01*
X21828900Y-15395820D02*
X21808900Y-15415820D01*
X21938900Y-15295820D02*
X21958900Y-15315820D01*
X21958900Y-15295820D02*
X21938900Y-15315820D01*
X21938900Y-15395820D02*
X21958900Y-15415820D01*
X21958900Y-15395820D02*
X21938900Y-15415820D01*
X24752380Y-14502620D02*
X24772380Y-14522620D01*
X24772380Y-14502620D02*
X24752380Y-14522620D01*
X24752380Y-14602620D02*
X24772380Y-14622620D01*
X24772380Y-14602620D02*
X24752380Y-14622620D01*
X24752380Y-14702620D02*
X24772380Y-14722620D01*
X24772380Y-14702620D02*
X24752380Y-14722620D01*
X24882380Y-14602620D02*
X24902380Y-14622620D01*
X24902380Y-14602620D02*
X24882380Y-14622620D01*
X24882380Y-14702620D02*
X24902380Y-14722620D01*
X24902380Y-14702620D02*
X24882380Y-14722620D01*
X12509500Y-11976100D02*
G75*
G03*
X12509500Y-11976100I-10160J0D01*
G01*
X12512040Y-12090400D02*
G75*
G03*
X12512040Y-12090400I-10160J0D01*
G01*
X12743180Y-10253980D02*
G75*
G03*
X12743180Y-10253980I-10160J0D01*
G01*
X12793980Y-7627620D02*
G75*
G03*
X12793980Y-7627620I-10160J0D01*
G01*
X12832080Y-12057380D02*
G75*
G03*
X12832080Y-12057380I-10160J0D01*
G01*
X12834620Y-7848600D02*
G75*
G03*
X12834620Y-7848600I-10160J0D01*
G01*
X12895580Y-8059420D02*
G75*
G03*
X12895580Y-8059420I-10160J0D01*
G01*
X12910820Y-11915140D02*
G75*
G03*
X12910820Y-11915140I-10160J0D01*
G01*
X12961620Y-9222740D02*
G75*
G03*
X12961620Y-9222740I-10160J0D01*
G01*
X12961620Y-10518140D02*
G75*
G03*
X12961620Y-10518140I-10160J0D01*
G01*
X12976860Y-5621020D02*
G75*
G03*
X12976860Y-5621020I-10160J0D01*
G01*
X12994640Y-5750560D02*
G75*
G03*
X12994640Y-5750560I-10160J0D01*
G01*
X13037820Y-9517380D02*
G75*
G03*
X13037820Y-9517380I-10160J0D01*
G01*
X13058140Y-10066020D02*
G75*
G03*
X13058140Y-10066020I-10160J0D01*
G01*
X13086080Y-8163560D02*
G75*
G03*
X13086080Y-8163560I-10160J0D01*
G01*
X13116560Y-11638280D02*
G75*
G03*
X13116560Y-11638280I-10160J0D01*
G01*
X13124180Y-11272520D02*
G75*
G03*
X13124180Y-11272520I-10160J0D01*
G01*
X13132260Y-7845600D02*
G75*
G03*
X13132260Y-7845600I-10160J0D01*
G01*
X13151880Y-12070320D02*
G75*
G03*
X13151880Y-12070320I-10160J0D01*
G01*
X13155700Y-8040600D02*
G75*
G03*
X13155700Y-8040600I-10160J0D01*
G01*
X13163160Y-10445360D02*
G75*
G03*
X13163160Y-10445360I-10160J0D01*
G01*
X13169900Y-11910060D02*
G75*
G03*
X13169900Y-11910060I-10160J0D01*
G01*
X13340980Y-5549000D02*
G75*
G03*
X13340980Y-5549000I-10160J0D01*
G01*
X13342620Y-9481820D02*
G75*
G03*
X13342620Y-9481820I-10160J0D01*
G01*
X13368020Y-9131300D02*
G75*
G03*
X13368020Y-9131300I-10160J0D01*
G01*
X13401040Y-5768340D02*
G75*
G03*
X13401040Y-5768340I-10160J0D01*
G01*
X13406120Y-12062460D02*
G75*
G03*
X13406120Y-12062460I-10160J0D01*
G01*
X13433535Y-11935141D02*
G75*
G03*
X13433535Y-11935141I-10160J0D01*
G01*
X13464540Y-7983220D02*
G75*
G03*
X13464540Y-7983220I-10160J0D01*
G01*
X13510260Y-10553700D02*
G75*
G03*
X13510260Y-10553700I-10160J0D01*
G01*
X13520420Y-9824720D02*
G75*
G03*
X13520420Y-9824720I-10160J0D01*
G01*
X13555980Y-10487660D02*
G75*
G03*
X13555980Y-10487660I-10160J0D01*
G01*
X13611860Y-10431780D02*
G75*
G03*
X13611860Y-10431780I-10160J0D01*
G01*
X13647420Y-7917180D02*
G75*
G03*
X13647420Y-7917180I-10160J0D01*
G01*
X13647420Y-9039860D02*
G75*
G03*
X13647420Y-9039860I-10160J0D01*
G01*
X13655550Y-8166610D02*
G75*
G03*
X13655550Y-8166610I-10160J0D01*
G01*
X13685520Y-12029440D02*
G75*
G03*
X13685520Y-12029440I-10160J0D01*
G01*
X13779500Y-9695180D02*
G75*
G03*
X13779500Y-9695180I-10160J0D01*
G01*
X13865860Y-5575300D02*
G75*
G03*
X13865860Y-5575300I-10160J0D01*
G01*
X13883640Y-8265479D02*
G75*
G03*
X13883640Y-8265479I-10160J0D01*
G01*
X13947140Y-11940540D02*
G75*
G03*
X13947140Y-11940540I-10160J0D01*
G01*
X14007772Y-8069908D02*
G75*
G03*
X14007772Y-8069908I-10160J0D01*
G01*
X14051280Y-12024360D02*
G75*
G03*
X14051280Y-12024360I-10160J0D01*
G01*
X14069060Y-5346700D02*
G75*
G03*
X14069060Y-5346700I-10160J0D01*
G01*
X14119860Y-5875020D02*
G75*
G03*
X14119860Y-5875020I-10160J0D01*
G01*
X14238688Y-8736369D02*
G75*
G03*
X14238688Y-8736369I-10160J0D01*
G01*
X14241160Y-8989000D02*
G75*
G03*
X14241160Y-8989000I-10160J0D01*
G01*
X14244550Y-8882610D02*
G75*
G03*
X14244550Y-8882610I-10160J0D01*
G01*
X14249400Y-7912100D02*
G75*
G03*
X14249400Y-7912100I-10160J0D01*
G01*
X14287500Y-8496300D02*
G75*
G03*
X14287500Y-8496300I-10160J0D01*
G01*
X14296562Y-8359808D02*
G75*
G03*
X14296562Y-8359808I-10160J0D01*
G01*
X14300953Y-8645440D02*
G75*
G03*
X14300953Y-8645440I-10160J0D01*
G01*
X14303059Y-8420100D02*
G75*
G03*
X14303059Y-8420100I-10160J0D01*
G01*
X14303059Y-8567420D02*
G75*
G03*
X14303059Y-8567420I-10160J0D01*
G01*
X14343380Y-7632700D02*
G75*
G03*
X14343380Y-7632700I-10160J0D01*
G01*
X14450379Y-8930498D02*
G75*
G03*
X14450379Y-8930498I-10160J0D01*
G01*
X14550776Y-8011992D02*
G75*
G03*
X14550776Y-8011992I-10160J0D01*
G01*
X14551660Y-8856980D02*
G75*
G03*
X14551660Y-8856980I-10160J0D01*
G01*
X14643100Y-10594340D02*
G75*
G03*
X14643100Y-10594340I-10160J0D01*
G01*
X14688820Y-5334000D02*
G75*
G03*
X14688820Y-5334000I-10160J0D01*
G01*
X14734360Y-9481100D02*
G75*
G03*
X14734360Y-9481100I-10160J0D01*
G01*
X14738160Y-7896000D02*
G75*
G03*
X14738160Y-7896000I-10160J0D01*
G01*
X14741360Y-9593100D02*
G75*
G03*
X14741360Y-9593100I-10160J0D01*
G01*
X14743360Y-9707100D02*
G75*
G03*
X14743360Y-9707100I-10160J0D01*
G01*
X14836360Y-8996100D02*
G75*
G03*
X14836360Y-8996100I-10160J0D01*
G01*
X14838360Y-9099100D02*
G75*
G03*
X14838360Y-9099100I-10160J0D01*
G01*
X14838360Y-9209100D02*
G75*
G03*
X14838360Y-9209100I-10160J0D01*
G01*
X14840360Y-9340100D02*
G75*
G03*
X14840360Y-9340100I-10160J0D01*
G01*
X14858360Y-7665100D02*
G75*
G03*
X14858360Y-7665100I-10160J0D01*
G01*
X14874240Y-8221980D02*
G75*
G03*
X14874240Y-8221980I-10160J0D01*
G01*
X14881860Y-8115300D02*
G75*
G03*
X14881860Y-8115300I-10160J0D01*
G01*
X14912340Y-13616940D02*
G75*
G03*
X14912340Y-13616940I-10160J0D01*
G01*
X14913660Y-7575500D02*
G75*
G03*
X14913660Y-7575500I-10160J0D01*
G01*
X14919960Y-7495540D02*
G75*
G03*
X14919960Y-7495540I-10160J0D01*
G01*
X14922500Y-9999980D02*
G75*
G03*
X14922500Y-9999980I-10160J0D01*
G01*
X14998700Y-14063980D02*
G75*
G03*
X14998700Y-14063980I-10160J0D01*
G01*
X15049500Y-13088620D02*
G75*
G03*
X15049500Y-13088620I-10160J0D01*
G01*
X15095220Y-13530580D02*
G75*
G03*
X15095220Y-13530580I-10160J0D01*
G01*
X15151160Y-13070900D02*
G75*
G03*
X15151160Y-13070900I-10160J0D01*
G01*
X15206980Y-13962380D02*
G75*
G03*
X15206980Y-13962380I-10160J0D01*
G01*
X15262860Y-11280140D02*
G75*
G03*
X15262860Y-11280140I-10160J0D01*
G01*
X15384780Y-13693140D02*
G75*
G03*
X15384780Y-13693140I-10160J0D01*
G01*
X15413820Y-14134000D02*
G75*
G03*
X15413820Y-14134000I-10160J0D01*
G01*
X15415260Y-14884400D02*
G75*
G03*
X15415260Y-14884400I-10160J0D01*
G01*
X15496360Y-9939100D02*
G75*
G03*
X15496360Y-9939100I-10160J0D01*
G01*
X15497600Y-14255960D02*
G75*
G03*
X15497600Y-14255960I-10160J0D01*
G01*
X15504160Y-7866380D02*
G75*
G03*
X15504160Y-7866380I-10160J0D01*
G01*
X15546360Y-9740100D02*
G75*
G03*
X15546360Y-9740100I-10160J0D01*
G01*
X15547360Y-9505100D02*
G75*
G03*
X15547360Y-9505100I-10160J0D01*
G01*
X15577360Y-8737100D02*
G75*
G03*
X15577360Y-8737100I-10160J0D01*
G01*
X15578360Y-7666100D02*
G75*
G03*
X15578360Y-7666100I-10160J0D01*
G01*
X15598140Y-13180060D02*
G75*
G03*
X15598140Y-13180060I-10160J0D01*
G01*
X15643860Y-14554200D02*
G75*
G03*
X15643860Y-14554200I-10160J0D01*
G01*
X15661360Y-9524100D02*
G75*
G03*
X15661360Y-9524100I-10160J0D01*
G01*
X15676360Y-7859100D02*
G75*
G03*
X15676360Y-7859100I-10160J0D01*
G01*
X15682360Y-8717100D02*
G75*
G03*
X15682360Y-8717100I-10160J0D01*
G01*
X15745460Y-14719300D02*
G75*
G03*
X15745460Y-14719300I-10160J0D01*
G01*
X15768320Y-9166860D02*
G75*
G03*
X15768320Y-9166860I-10160J0D01*
G01*
X15793720Y-8404860D02*
G75*
G03*
X15793720Y-8404860I-10160J0D01*
G01*
X15803880Y-14056360D02*
G75*
G03*
X15803880Y-14056360I-10160J0D01*
G01*
X15834360Y-13180060D02*
G75*
G03*
X15834360Y-13180060I-10160J0D01*
G01*
X15834360Y-13855700D02*
G75*
G03*
X15834360Y-13855700I-10160J0D01*
G01*
X15910560Y-14173200D02*
G75*
G03*
X15910560Y-14173200I-10160J0D01*
G01*
X15918180Y-15923260D02*
G75*
G03*
X15918180Y-15923260I-10160J0D01*
G01*
X15971900Y-13997560D02*
G75*
G03*
X15971900Y-13997560I-10160J0D01*
G01*
X15986760Y-14338300D02*
G75*
G03*
X15986760Y-14338300I-10160J0D01*
G01*
X16029940Y-14693900D02*
G75*
G03*
X16029940Y-14693900I-10160J0D01*
G01*
X16044160Y-14979400D02*
G75*
G03*
X16044160Y-14979400I-10160J0D01*
G01*
X16182340Y-13205460D02*
G75*
G03*
X16182340Y-13205460I-10160J0D01*
G01*
X16202660Y-15430500D02*
G75*
G03*
X16202660Y-15430500I-10160J0D01*
G01*
X16215360Y-10350500D02*
G75*
G03*
X16215360Y-10350500I-10160J0D01*
G01*
X16240760Y-13538200D02*
G75*
G03*
X16240760Y-13538200I-10160J0D01*
G01*
X16281400Y-11219180D02*
G75*
G03*
X16281400Y-11219180I-10160J0D01*
G01*
X16291560Y-10363200D02*
G75*
G03*
X16291560Y-10363200I-10160J0D01*
G01*
X16291560Y-15240000D02*
G75*
G03*
X16291560Y-15240000I-10160J0D01*
G01*
X16295758Y-10431427D02*
G75*
G03*
X16295758Y-10431427I-10160J0D01*
G01*
X16334740Y-13215620D02*
G75*
G03*
X16334740Y-13215620I-10160J0D01*
G01*
X16338550Y-13572490D02*
G75*
G03*
X16338550Y-13572490I-10160J0D01*
G01*
X16349980Y-11874500D02*
G75*
G03*
X16349980Y-11874500I-10160J0D01*
G01*
X16355060Y-12661900D02*
G75*
G03*
X16355060Y-12661900I-10160J0D01*
G01*
X16388080Y-10370820D02*
G75*
G03*
X16388080Y-10370820I-10160J0D01*
G01*
X16405860Y-13728700D02*
G75*
G03*
X16405860Y-13728700I-10160J0D01*
G01*
X16423640Y-11203940D02*
G75*
G03*
X16423640Y-11203940I-10160J0D01*
G01*
X16482060Y-13500100D02*
G75*
G03*
X16482060Y-13500100I-10160J0D01*
G01*
X16524760Y-13818972D02*
G75*
G03*
X16524760Y-13818972I-10160J0D01*
G01*
X16532860Y-15201900D02*
G75*
G03*
X16532860Y-15201900I-10160J0D01*
G01*
X16533761Y-13214719D02*
G75*
G03*
X16533761Y-13214719I-10160J0D01*
G01*
X16539210Y-14827250D02*
G75*
G03*
X16539210Y-14827250I-10160J0D01*
G01*
X16553180Y-13611860D02*
G75*
G03*
X16553180Y-13611860I-10160J0D01*
G01*
X16603980Y-13495020D02*
G75*
G03*
X16603980Y-13495020I-10160J0D01*
G01*
X16633760Y-13880400D02*
G75*
G03*
X16633760Y-13880400I-10160J0D01*
G01*
X16634460Y-13690600D02*
G75*
G03*
X16634460Y-13690600I-10160J0D01*
G01*
X16647160Y-14055960D02*
G75*
G03*
X16647160Y-14055960I-10160J0D01*
G01*
X16704360Y-6286500D02*
G75*
G03*
X16704360Y-6286500I-10160J0D01*
G01*
X16725900Y-14579600D02*
G75*
G03*
X16725900Y-14579600I-10160J0D01*
G01*
X16761460Y-6362700D02*
G75*
G03*
X16761460Y-6362700I-10160J0D01*
G01*
X16766540Y-12026900D02*
G75*
G03*
X16766540Y-12026900I-10160J0D01*
G01*
X16766540Y-12026900D02*
G75*
G03*
X16766540Y-12026900I-10160J0D01*
G01*
X16791940Y-13124180D02*
G75*
G03*
X16791940Y-13124180I-10160J0D01*
G01*
X16837660Y-14424660D02*
G75*
G03*
X16837660Y-14424660I-10160J0D01*
G01*
X16880840Y-11178540D02*
G75*
G03*
X16880840Y-11178540I-10160J0D01*
G01*
X16891000Y-12019280D02*
G75*
G03*
X16891000Y-12019280I-10160J0D01*
G01*
X16898620Y-12412980D02*
G75*
G03*
X16898620Y-12412980I-10160J0D01*
G01*
X16904841Y-7112000D02*
G75*
G03*
X16904841Y-7112000I-10160J0D01*
G01*
X16926560Y-13896100D02*
G75*
G03*
X16926560Y-13896100I-10160J0D01*
G01*
X16929100Y-14104620D02*
G75*
G03*
X16929100Y-14104620I-10160J0D01*
G01*
X16951960Y-11330940D02*
G75*
G03*
X16951960Y-11330940I-10160J0D01*
G01*
X16979900Y-12575540D02*
G75*
G03*
X16979900Y-12575540I-10160J0D01*
G01*
X16990061Y-7188200D02*
G75*
G03*
X16990061Y-7188200I-10160J0D01*
G01*
X17033240Y-11172939D02*
G75*
G03*
X17033240Y-11172939I-10160J0D01*
G01*
X17155160Y-7091182D02*
G75*
G03*
X17155160Y-7091182I-10160J0D01*
G01*
X17185360Y-6965100D02*
G75*
G03*
X17185360Y-6965100I-10160J0D01*
G01*
X17218660Y-12590780D02*
G75*
G03*
X17218660Y-12590780I-10160J0D01*
G01*
X17219740Y-10455720D02*
G75*
G03*
X17219740Y-10455720I-10160J0D01*
G01*
X17222154Y-6848794D02*
G75*
G03*
X17222154Y-6848794I-10160J0D01*
G01*
X17301420Y-10453160D02*
G75*
G03*
X17301420Y-10453160I-10160J0D01*
G01*
X17376140Y-12118340D02*
G75*
G03*
X17376140Y-12118340I-10160J0D01*
G01*
X17409160Y-13174980D02*
G75*
G03*
X17409160Y-13174980I-10160J0D01*
G01*
X17482360Y-6963100D02*
G75*
G03*
X17482360Y-6963100I-10160J0D01*
G01*
X17487900Y-12613640D02*
G75*
G03*
X17487900Y-12613640I-10160J0D01*
G01*
X17500600Y-6860540D02*
G75*
G03*
X17500600Y-6860540I-10160J0D01*
G01*
X17528540Y-12026900D02*
G75*
G03*
X17528540Y-12026900I-10160J0D01*
G01*
X17538700Y-6207760D02*
G75*
G03*
X17538700Y-6207760I-10160J0D01*
G01*
X17602200Y-6860540D02*
G75*
G03*
X17602200Y-6860540I-10160J0D01*
G01*
X17655540Y-12062460D02*
G75*
G03*
X17655540Y-12062460I-10160J0D01*
G01*
X17765360Y-6977100D02*
G75*
G03*
X17765360Y-6977100I-10160J0D01*
G01*
X17787620Y-14452600D02*
G75*
G03*
X17787620Y-14452600I-10160J0D01*
G01*
X17800320Y-13977620D02*
G75*
G03*
X17800320Y-13977620I-10160J0D01*
G01*
X17881600Y-6941820D02*
G75*
G03*
X17881600Y-6941820I-10160J0D01*
G01*
X17937480Y-7175500D02*
G75*
G03*
X17937480Y-7175500I-10160J0D01*
G01*
X17940375Y-10394016D02*
G75*
G03*
X17940375Y-10394016I-10160J0D01*
G01*
X17972160Y-10859380D02*
G75*
G03*
X17972160Y-10859380I-10160J0D01*
G01*
X18018760Y-10287000D02*
G75*
G03*
X18018760Y-10287000I-10160J0D01*
G01*
X18027141Y-10896922D02*
G75*
G03*
X18027141Y-10896922I-10160J0D01*
G01*
X18031460Y-10197781D02*
G75*
G03*
X18031460Y-10197781I-10160J0D01*
G01*
X18044160Y-10436860D02*
G75*
G03*
X18044160Y-10436860I-10160J0D01*
G01*
X18077622Y-10951600D02*
G75*
G03*
X18077622Y-10951600I-10160J0D01*
G01*
X18082260Y-10147300D02*
G75*
G03*
X18082260Y-10147300I-10160J0D01*
G01*
X18105120Y-7175500D02*
G75*
G03*
X18105120Y-7175500I-10160J0D01*
G01*
X18110200Y-6911340D02*
G75*
G03*
X18110200Y-6911340I-10160J0D01*
G01*
X18125440Y-6428740D02*
G75*
G03*
X18125440Y-6428740I-10160J0D01*
G01*
X18128102Y-10892400D02*
G75*
G03*
X18128102Y-10892400I-10160J0D01*
G01*
X18145760Y-11117580D02*
G75*
G03*
X18145760Y-11117580I-10160J0D01*
G01*
X18148300Y-11991340D02*
G75*
G03*
X18148300Y-11991340I-10160J0D01*
G01*
X18211800Y-6423660D02*
G75*
G03*
X18211800Y-6423660I-10160J0D01*
G01*
X18219420Y-12062460D02*
G75*
G03*
X18219420Y-12062460I-10160J0D01*
G01*
X18219818Y-13012420D02*
G75*
G03*
X18219818Y-13012420I-10160J0D01*
G01*
X18237360Y-6894100D02*
G75*
G03*
X18237360Y-6894100I-10160J0D01*
G01*
X18254360Y-7191100D02*
G75*
G03*
X18254360Y-7191100I-10160J0D01*
G01*
X18362050Y-12201770D02*
G75*
G03*
X18362050Y-12201770I-10160J0D01*
G01*
X18378560Y-6925700D02*
G75*
G03*
X18378560Y-6925700I-10160J0D01*
G01*
X18399760Y-10274300D02*
G75*
G03*
X18399760Y-10274300I-10160J0D01*
G01*
X18420080Y-11102340D02*
G75*
G03*
X18420080Y-11102340I-10160J0D01*
G01*
X18450560Y-12522200D02*
G75*
G03*
X18450560Y-12522200I-10160J0D01*
G01*
X18480160Y-6866500D02*
G75*
G03*
X18480160Y-6866500I-10160J0D01*
G01*
X18482560Y-13392400D02*
G75*
G03*
X18482560Y-13392400I-10160J0D01*
G01*
X18530960Y-10367400D02*
G75*
G03*
X18530960Y-10367400I-10160J0D01*
G01*
X18581760Y-6917300D02*
G75*
G03*
X18581760Y-6917300I-10160J0D01*
G01*
X18608610Y-12400850D02*
G75*
G03*
X18608610Y-12400850I-10160J0D01*
G01*
X18704560Y-9065260D02*
G75*
G03*
X18704560Y-9065260I-10160J0D01*
G01*
X18740120Y-13340080D02*
G75*
G03*
X18740120Y-13340080I-10160J0D01*
G01*
X18742660Y-8968740D02*
G75*
G03*
X18742660Y-8968740I-10160J0D01*
G01*
X18780760Y-8120380D02*
G75*
G03*
X18780760Y-8120380I-10160J0D01*
G01*
X18801080Y-9949180D02*
G75*
G03*
X18801080Y-9949180I-10160J0D01*
G01*
X18846800Y-10198100D02*
G75*
G03*
X18846800Y-10198100I-10160J0D01*
G01*
X18881596Y-7879370D02*
G75*
G03*
X18881596Y-7879370I-10160J0D01*
G01*
X18884660Y-9706800D02*
G75*
G03*
X18884660Y-9706800I-10160J0D01*
G01*
X18920460Y-7759700D02*
G75*
G03*
X18920460Y-7759700I-10160J0D01*
G01*
X18920460Y-15265400D02*
G75*
G03*
X18920460Y-15265400I-10160J0D01*
G01*
X18938240Y-10083800D02*
G75*
G03*
X18938240Y-10083800I-10160J0D01*
G01*
X18945860Y-7556500D02*
G75*
G03*
X18945860Y-7556500I-10160J0D01*
G01*
X18945860Y-8521700D02*
G75*
G03*
X18945860Y-8521700I-10160J0D01*
G01*
X18956360Y-8671100D02*
G75*
G03*
X18956360Y-8671100I-10160J0D01*
G01*
X18971260Y-7200900D02*
G75*
G03*
X18971260Y-7200900I-10160J0D01*
G01*
X18971260Y-8318500D02*
G75*
G03*
X18971260Y-8318500I-10160J0D01*
G01*
X18978880Y-9913620D02*
G75*
G03*
X18978880Y-9913620I-10160J0D01*
G01*
X19003149Y-8129060D02*
G75*
G03*
X19003149Y-8129060I-10160J0D01*
G01*
X19009360Y-7708900D02*
G75*
G03*
X19009360Y-7708900I-10160J0D01*
G01*
X19022060Y-7099300D02*
G75*
G03*
X19022060Y-7099300I-10160J0D01*
G01*
X19022060Y-7505700D02*
G75*
G03*
X19022060Y-7505700I-10160J0D01*
G01*
X19022060Y-14071600D02*
G75*
G03*
X19022060Y-14071600I-10160J0D01*
G01*
X19034760Y-8470900D02*
G75*
G03*
X19034760Y-8470900I-10160J0D01*
G01*
X19034761Y-7302500D02*
G75*
G03*
X19034761Y-7302500I-10160J0D01*
G01*
X19060160Y-8216900D02*
G75*
G03*
X19060160Y-8216900I-10160J0D01*
G01*
X19060160Y-9702800D02*
G75*
G03*
X19060160Y-9702800I-10160J0D01*
G01*
X19094060Y-8614800D02*
G75*
G03*
X19094060Y-8614800I-10160J0D01*
G01*
X19149060Y-15074900D02*
G75*
G03*
X19149060Y-15074900I-10160J0D01*
G01*
X19276060Y-13804900D02*
G75*
G03*
X19276060Y-13804900I-10160J0D01*
G01*
X19328360Y-15315100D02*
G75*
G03*
X19328360Y-15315100I-10160J0D01*
G01*
X19423380Y-12438380D02*
G75*
G03*
X19423380Y-12438380I-10160J0D01*
G01*
X19428460Y-13258800D02*
G75*
G03*
X19428460Y-13258800I-10160J0D01*
G01*
X19476720Y-14071600D02*
G75*
G03*
X19476720Y-14071600I-10160J0D01*
G01*
X19491960Y-13576300D02*
G75*
G03*
X19491960Y-13576300I-10160J0D01*
G01*
X19517360Y-9568180D02*
G75*
G03*
X19517360Y-9568180I-10160J0D01*
G01*
X19542760Y-10883900D02*
G75*
G03*
X19542760Y-10883900I-10160J0D01*
G01*
X19606260Y-15113000D02*
G75*
G03*
X19606260Y-15113000I-10160J0D01*
G01*
X19631660Y-10795000D02*
G75*
G03*
X19631660Y-10795000I-10160J0D01*
G01*
X19695160Y-10680700D02*
G75*
G03*
X19695160Y-10680700I-10160J0D01*
G01*
X19733260Y-14198600D02*
G75*
G03*
X19733260Y-14198600I-10160J0D01*
G01*
X19758660Y-10337800D02*
G75*
G03*
X19758660Y-10337800I-10160J0D01*
G01*
X19758660Y-15265400D02*
G75*
G03*
X19758660Y-15265400I-10160J0D01*
G01*
X19817080Y-8562340D02*
G75*
G03*
X19817080Y-8562340I-10160J0D01*
G01*
X19822160Y-10617200D02*
G75*
G03*
X19822160Y-10617200I-10160J0D01*
G01*
X19834860Y-14071600D02*
G75*
G03*
X19834860Y-14071600I-10160J0D01*
G01*
X19911060Y-10198100D02*
G75*
G03*
X19911060Y-10198100I-10160J0D01*
G01*
X19961860Y-9969500D02*
G75*
G03*
X19961860Y-9969500I-10160J0D01*
G01*
X19961860Y-15100300D02*
G75*
G03*
X19961860Y-15100300I-10160J0D01*
G01*
X19987260Y-9842500D02*
G75*
G03*
X19987260Y-9842500I-10160J0D01*
G01*
X20025360Y-13335000D02*
G75*
G03*
X20025360Y-13335000I-10160J0D01*
G01*
X20025360Y-13652500D02*
G75*
G03*
X20025360Y-13652500I-10160J0D01*
G01*
X20165060Y-15265400D02*
G75*
G03*
X20165060Y-15265400I-10160J0D01*
G01*
X20256500Y-12402820D02*
G75*
G03*
X20256500Y-12402820I-10160J0D01*
G01*
X20279360Y-13169900D02*
G75*
G03*
X20279360Y-13169900I-10160J0D01*
G01*
X20360640Y-12034520D02*
G75*
G03*
X20360640Y-12034520I-10160J0D01*
G01*
X20436840Y-12552680D02*
G75*
G03*
X20436840Y-12552680I-10160J0D01*
G01*
X20680680Y-8727440D02*
G75*
G03*
X20680680Y-8727440I-10160J0D01*
G01*
X20683220Y-9039860D02*
G75*
G03*
X20683220Y-9039860I-10160J0D01*
G01*
X20698460Y-14998700D02*
G75*
G03*
X20698460Y-14998700I-10160J0D01*
G01*
X20787360Y-15405100D02*
G75*
G03*
X20787360Y-15405100I-10160J0D01*
G01*
X20800060Y-14592300D02*
G75*
G03*
X20800060Y-14592300I-10160J0D01*
G01*
X20817840Y-7381240D02*
G75*
G03*
X20817840Y-7381240I-10160J0D01*
G01*
X20817840Y-7673340D02*
G75*
G03*
X20817840Y-7673340I-10160J0D01*
G01*
X20835620Y-12651740D02*
G75*
G03*
X20835620Y-12651740I-10160J0D01*
G01*
X20855940Y-8694420D02*
G75*
G03*
X20855940Y-8694420I-10160J0D01*
G01*
X20871180Y-12044680D02*
G75*
G03*
X20871180Y-12044680I-10160J0D01*
G01*
X20911820Y-7515860D02*
G75*
G03*
X20911820Y-7515860I-10160J0D01*
G01*
X20911820Y-7833360D02*
G75*
G03*
X20911820Y-7833360I-10160J0D01*
G01*
X20914360Y-8356600D02*
G75*
G03*
X20914360Y-8356600I-10160J0D01*
G01*
X20927060Y-8458200D02*
G75*
G03*
X20927060Y-8458200I-10160J0D01*
G01*
X20939760Y-14503400D02*
G75*
G03*
X20939760Y-14503400I-10160J0D01*
G01*
X20942300Y-9029700D02*
G75*
G03*
X20942300Y-9029700I-10160J0D01*
G01*
X20955000Y-7305040D02*
G75*
G03*
X20955000Y-7305040I-10160J0D01*
G01*
X20957540Y-7208520D02*
G75*
G03*
X20957540Y-7208520I-10160J0D01*
G01*
X20960080Y-7609840D02*
G75*
G03*
X20960080Y-7609840I-10160J0D01*
G01*
X20990560Y-13169900D02*
G75*
G03*
X20990560Y-13169900I-10160J0D01*
G01*
X21003260Y-15252700D02*
G75*
G03*
X21003260Y-15252700I-10160J0D01*
G01*
X21092160Y-14605000D02*
G75*
G03*
X21092160Y-14605000I-10160J0D01*
G01*
X21226540Y-8905000D02*
G75*
G03*
X21226540Y-8905000I-10160J0D01*
G01*
X21231860Y-13068300D02*
G75*
G03*
X21231860Y-13068300I-10160J0D01*
G01*
X21254720Y-8204200D02*
G75*
G03*
X21254720Y-8204200I-10160J0D01*
G01*
X21308059Y-8509001D02*
G75*
G03*
X21308059Y-8509001I-10160J0D01*
G01*
X21341081Y-8249921D02*
G75*
G03*
X21341081Y-8249921I-10160J0D01*
G01*
X21371560Y-8420100D02*
G75*
G03*
X21371560Y-8420100I-10160J0D01*
G01*
X21426360Y-12397727D02*
G75*
G03*
X21426360Y-12397727I-10160J0D01*
G01*
X21435060Y-8318500D02*
G75*
G03*
X21435060Y-8318500I-10160J0D01*
G01*
X21435060Y-13157200D02*
G75*
G03*
X21435060Y-13157200I-10160J0D01*
G01*
X21485860Y-14478000D02*
G75*
G03*
X21485860Y-14478000I-10160J0D01*
G01*
X21520940Y-11788620D02*
G75*
G03*
X21520940Y-11788620I-10160J0D01*
G01*
X21562060Y-15824200D02*
G75*
G03*
X21562060Y-15824200I-10160J0D01*
G01*
X21612860Y-13068300D02*
G75*
G03*
X21612860Y-13068300I-10160J0D01*
G01*
X21617940Y-11795760D02*
G75*
G03*
X21617940Y-11795760I-10160J0D01*
G01*
X21638260Y-7569200D02*
G75*
G03*
X21638260Y-7569200I-10160J0D01*
G01*
X21683980Y-13124180D02*
G75*
G03*
X21683980Y-13124180I-10160J0D01*
G01*
X21701760Y-7581900D02*
G75*
G03*
X21701760Y-7581900I-10160J0D01*
G01*
X21739860Y-15646400D02*
G75*
G03*
X21739860Y-15646400I-10160J0D01*
G01*
X21762717Y-7681341D02*
G75*
G03*
X21762717Y-7681341I-10160J0D01*
G01*
X21828760Y-7607301D02*
G75*
G03*
X21828760Y-7607301I-10160J0D01*
G01*
X21895557Y-8563097D02*
G75*
G03*
X21895557Y-8563097I-10160J0D01*
G01*
X21902420Y-13116560D02*
G75*
G03*
X21902420Y-13116560I-10160J0D01*
G01*
X21940360Y-12193100D02*
G75*
G03*
X21940360Y-12193100I-10160J0D01*
G01*
X21950680Y-11907519D02*
G75*
G03*
X21950680Y-11907519I-10160J0D01*
G01*
X21955760Y-7734300D02*
G75*
G03*
X21955760Y-7734300I-10160J0D01*
G01*
X21993860Y-8304199D02*
G75*
G03*
X21993860Y-8304199I-10160J0D01*
G01*
X22019260Y-15798800D02*
G75*
G03*
X22019260Y-15798800I-10160J0D01*
G01*
X22070060Y-8254199D02*
G75*
G03*
X22070060Y-8254199I-10160J0D01*
G01*
X22087840Y-11899900D02*
G75*
G03*
X22087840Y-11899900I-10160J0D01*
G01*
X22108160Y-13081000D02*
G75*
G03*
X22108160Y-13081000I-10160J0D01*
G01*
X22238360Y-12129444D02*
G75*
G03*
X22238360Y-12129444I-10160J0D01*
G01*
X22311360Y-13195300D02*
G75*
G03*
X22311360Y-13195300I-10160J0D01*
G01*
X22336760Y-14401800D02*
G75*
G03*
X22336760Y-14401800I-10160J0D01*
G01*
X22362160Y-14668500D02*
G75*
G03*
X22362160Y-14668500I-10160J0D01*
G01*
X22369780Y-7754620D02*
G75*
G03*
X22369780Y-7754620I-10160J0D01*
G01*
X22390000Y-7455000D02*
G75*
G03*
X22390000Y-7455000I-10160J0D01*
G01*
X22390100Y-8755380D02*
G75*
G03*
X22390100Y-8755380I-10160J0D01*
G01*
X22412960Y-15671800D02*
G75*
G03*
X22412960Y-15671800I-10160J0D01*
G01*
X22451060Y-9425940D02*
G75*
G03*
X22451060Y-9425940I-10160J0D01*
G01*
X22453600Y-7526020D02*
G75*
G03*
X22453600Y-7526020I-10160J0D01*
G01*
X22453600Y-7843520D02*
G75*
G03*
X22453600Y-7843520I-10160J0D01*
G01*
X22453600Y-8539480D02*
G75*
G03*
X22453600Y-8539480I-10160J0D01*
G01*
X22453600Y-8823960D02*
G75*
G03*
X22453600Y-8823960I-10160J0D01*
G01*
X22453600Y-9126220D02*
G75*
G03*
X22453600Y-9126220I-10160J0D01*
G01*
X22547580Y-7132320D02*
G75*
G03*
X22547580Y-7132320I-10160J0D01*
G01*
X22547580Y-7848600D02*
G75*
G03*
X22547580Y-7848600I-10160J0D01*
G01*
X22547580Y-8539480D02*
G75*
G03*
X22547580Y-8539480I-10160J0D01*
G01*
X22550120Y-7404100D02*
G75*
G03*
X22550120Y-7404100I-10160J0D01*
G01*
X22550120Y-7538720D02*
G75*
G03*
X22550120Y-7538720I-10160J0D01*
G01*
X22552660Y-8806180D02*
G75*
G03*
X22552660Y-8806180I-10160J0D01*
G01*
X22552660Y-9131300D02*
G75*
G03*
X22552660Y-9131300I-10160J0D01*
G01*
X22552660Y-9418320D02*
G75*
G03*
X22552660Y-9418320I-10160J0D01*
G01*
X22552660Y-14528800D02*
G75*
G03*
X22552660Y-14528800I-10160J0D01*
G01*
X22857460Y-14287500D02*
G75*
G03*
X22857460Y-14287500I-10160J0D01*
G01*
X22895560Y-13855700D02*
G75*
G03*
X22895560Y-13855700I-10160J0D01*
G01*
X22933660Y-7848600D02*
G75*
G03*
X22933660Y-7848600I-10160J0D01*
G01*
X22997161Y-7785100D02*
G75*
G03*
X22997161Y-7785100I-10160J0D01*
G01*
X23035260Y-14782800D02*
G75*
G03*
X23035260Y-14782800I-10160J0D01*
G01*
X23327360Y-13995400D02*
G75*
G03*
X23327360Y-13995400I-10160J0D01*
G01*
X23340060Y-14439900D02*
G75*
G03*
X23340060Y-14439900I-10160J0D01*
G01*
X23428960Y-13309600D02*
G75*
G03*
X23428960Y-13309600I-10160J0D01*
G01*
X23520400Y-12697460D02*
G75*
G03*
X23520400Y-12697460I-10160J0D01*
G01*
X23619460Y-13220700D02*
G75*
G03*
X23619460Y-13220700I-10160J0D01*
G01*
X23670260Y-15595600D02*
G75*
G03*
X23670260Y-15595600I-10160J0D01*
G01*
X23682960Y-14554200D02*
G75*
G03*
X23682960Y-14554200I-10160J0D01*
G01*
X23746460Y-15367000D02*
G75*
G03*
X23746460Y-15367000I-10160J0D01*
G01*
X23911560Y-13436600D02*
G75*
G03*
X23911560Y-13436600I-10160J0D01*
G01*
X23911560Y-15887700D02*
G75*
G03*
X23911560Y-15887700I-10160J0D01*
G01*
X24010620Y-5821680D02*
G75*
G03*
X24010620Y-5821680I-10160J0D01*
G01*
X24038560Y-6578600D02*
G75*
G03*
X24038560Y-6578600I-10160J0D01*
G01*
X24038560Y-14706600D02*
G75*
G03*
X24038560Y-14706600I-10160J0D01*
G01*
X24089360Y-12623800D02*
G75*
G03*
X24089360Y-12623800I-10160J0D01*
G01*
X24119840Y-6390640D02*
G75*
G03*
X24119840Y-6390640I-10160J0D01*
G01*
X24190960Y-13385800D02*
G75*
G03*
X24190960Y-13385800I-10160J0D01*
G01*
X24279860Y-14071600D02*
G75*
G03*
X24279860Y-14071600I-10160J0D01*
G01*
X24364616Y-6591038D02*
G75*
G03*
X24364616Y-6591038I-10160J0D01*
G01*
X24368760Y-13627100D02*
G75*
G03*
X24368760Y-13627100I-10160J0D01*
G01*
X24419560Y-6616700D02*
G75*
G03*
X24419560Y-6616700I-10160J0D01*
G01*
X24444960Y-13957300D02*
G75*
G03*
X24444960Y-13957300I-10160J0D01*
G01*
X24610060Y-16014700D02*
G75*
G03*
X24610060Y-16014700I-10160J0D01*
G01*
X24648160Y-14109700D02*
G75*
G03*
X24648160Y-14109700I-10160J0D01*
G01*
X24673360Y-9176100D02*
G75*
G03*
X24673360Y-9176100I-10160J0D01*
G01*
X24677360Y-9079100D02*
G75*
G03*
X24677360Y-9079100I-10160J0D01*
G01*
X24690360Y-8985100D02*
G75*
G03*
X24690360Y-8985100I-10160J0D01*
G01*
X24787860Y-13995400D02*
G75*
G03*
X24787860Y-13995400I-10160J0D01*
G01*
X24800560Y-15468600D02*
G75*
G03*
X24800560Y-15468600I-10160J0D01*
G01*
X24851360Y-15862300D02*
G75*
G03*
X24851360Y-15862300I-10160J0D01*
G01*
X24914860Y-8877300D02*
G75*
G03*
X24914860Y-8877300I-10160J0D01*
G01*
X24930100Y-14190980D02*
G75*
G03*
X24930100Y-14190980I-10160J0D01*
G01*
X24965660Y-14986000D02*
G75*
G03*
X24965660Y-14986000I-10160J0D01*
G01*
X25054560Y-14897100D02*
G75*
G03*
X25054560Y-14897100I-10160J0D01*
G01*
X25067260Y-12738100D02*
G75*
G03*
X25067260Y-12738100I-10160J0D01*
G01*
X25105360Y-16014700D02*
G75*
G03*
X25105360Y-16014700I-10160J0D01*
G01*
X25118060Y-15278100D02*
G75*
G03*
X25118060Y-15278100I-10160J0D01*
G01*
X25206960Y-14960600D02*
G75*
G03*
X25206960Y-14960600I-10160J0D01*
G01*
X25257760Y-15875000D02*
G75*
G03*
X25257760Y-15875000I-10160J0D01*
G01*
X25285700Y-12941300D02*
G75*
G03*
X25285700Y-12941300I-10160J0D01*
G01*
X25455880Y-7406640D02*
G75*
G03*
X25455880Y-7406640I-10160J0D01*
G01*
X25460960Y-15468600D02*
G75*
G03*
X25460960Y-15468600I-10160J0D01*
G01*
X25486360Y-16027400D02*
G75*
G03*
X25486360Y-16027400I-10160J0D01*
G01*
X25585420Y-7757160D02*
G75*
G03*
X25585420Y-7757160I-10160J0D01*
G01*
X25590500Y-7508240D02*
G75*
G03*
X25590500Y-7508240I-10160J0D01*
G01*
X25899900Y-9021600D02*
G75*
G03*
X25899900Y-9021600I-10160J0D01*
G01*
X25930860Y-12623800D02*
G75*
G03*
X25930860Y-12623800I-10160J0D01*
G01*
X26019760Y-13995400D02*
G75*
G03*
X26019760Y-13995400I-10160J0D01*
G01*
X26057860Y-15913100D02*
G75*
G03*
X26057860Y-15913100I-10160J0D01*
G01*
X26103580Y-15506700D02*
G75*
G03*
X26103580Y-15506700I-10160J0D01*
G01*
X26281380Y-8209280D02*
G75*
G03*
X26281380Y-8209280I-10160J0D01*
G01*
X26286460Y-13843000D02*
G75*
G03*
X26286460Y-13843000I-10160J0D01*
G01*
X26296620Y-9431020D02*
G75*
G03*
X26296620Y-9431020I-10160J0D01*
G01*
X26485850Y-8743950D02*
G75*
G03*
X26485850Y-8743950I-10160J0D01*
G01*
X26489660Y-16078200D02*
G75*
G03*
X26489660Y-16078200I-10160J0D01*
G01*
X26520140Y-8211000D02*
G75*
G03*
X26520140Y-8211000I-10160J0D01*
G01*
X26540460Y-14020800D02*
G75*
G03*
X26540460Y-14020800I-10160J0D01*
G01*
X26540460Y-15214600D02*
G75*
G03*
X26540460Y-15214600I-10160J0D01*
G01*
X26550620Y-8590280D02*
G75*
G03*
X26550620Y-8590280I-10160J0D01*
G01*
X26692860Y-15887700D02*
G75*
G03*
X26692860Y-15887700I-10160J0D01*
G01*
X26781760Y-13855700D02*
G75*
G03*
X26781760Y-13855700I-10160J0D01*
G01*
X26959560Y-14046200D02*
G75*
G03*
X26959560Y-14046200I-10160J0D01*
G01*
X27683460Y-13119100D02*
G75*
G03*
X27683460Y-13119100I-10160J0D01*
G01*
X27683460Y-13423900D02*
G75*
G03*
X27683460Y-13423900I-10160J0D01*
G01*
X27696160Y-13754100D02*
G75*
G03*
X27696160Y-13754100I-10160J0D01*
G01*
X27848560Y-13601700D02*
G75*
G03*
X27848560Y-13601700I-10160J0D01*
G01*
X27873960Y-13258800D02*
G75*
G03*
X27873960Y-13258800I-10160J0D01*
G01*
X12730480Y-8887460D02*
X12730480Y-8917940D01*
X12715240Y-8902700D02*
X12745720Y-8902700D01*
X12783820Y-8620760D02*
X12783820Y-8651240D01*
X12768580Y-8636000D02*
X12799060Y-8636000D01*
X12795250Y-8322310D02*
X12795250Y-8352790D01*
X12780010Y-8337550D02*
X12810490Y-8337550D01*
X14389100Y-13139420D02*
X14389100Y-13169900D01*
X14373860Y-13154660D02*
X14404340Y-13154660D01*
X14404340Y-13444220D02*
X14404340Y-13474700D01*
X14389100Y-13459460D02*
X14419580Y-13459460D01*
X14434820Y-13809980D02*
X14434820Y-13840460D01*
X14419580Y-13825220D02*
X14450060Y-13825220D01*
X15900400Y-13667740D02*
X15900400Y-13698220D01*
X15885160Y-13682980D02*
X15915640Y-13682980D01*
X16306800Y-14071600D02*
X16306800Y-14102080D01*
X16291560Y-14086840D02*
X16322040Y-14086840D01*
X16311880Y-7297420D02*
X16311880Y-7327900D01*
X16296640Y-7312660D02*
X16327120Y-7312660D01*
X16494760Y-7292340D02*
X16494760Y-7322820D01*
X16479520Y-7307580D02*
X16510000Y-7307580D01*
X16607560Y-7138900D02*
X16607560Y-7169380D01*
X16592320Y-7154140D02*
X16622800Y-7154140D01*
X16621760Y-6388100D02*
X16621760Y-6418580D01*
X16606520Y-6403340D02*
X16637000Y-6403340D01*
X16654780Y-16088360D02*
X16654780Y-16118840D01*
X16639540Y-16103600D02*
X16670020Y-16103600D01*
X17358360Y-6184900D02*
X17358360Y-6215380D01*
X17343120Y-6200140D02*
X17373600Y-6200140D01*
X18094960Y-7399020D02*
X18094960Y-7429500D01*
X18079720Y-7414260D02*
X18110200Y-7414260D01*
X18369280Y-7744460D02*
X18369280Y-7774940D01*
X18354040Y-7759700D02*
X18384520Y-7759700D01*
X18902680Y-16088360D02*
X18902680Y-16118840D01*
X18887440Y-16103600D02*
X18917920Y-16103600D01*
X19629120Y-8983980D02*
X19629120Y-9014460D01*
X19613880Y-8999220D02*
X19644360Y-8999220D01*
X19641820Y-7995920D02*
X19641820Y-8026400D01*
X19626580Y-8011160D02*
X19657060Y-8011160D01*
X19913200Y-8983580D02*
X19913200Y-9014060D01*
X19897960Y-8998820D02*
X19928440Y-8998820D01*
X19916200Y-8503860D02*
X19916200Y-8534340D01*
X19900960Y-8519100D02*
X19931440Y-8519100D01*
X20106640Y-7287260D02*
X20106640Y-7317740D01*
X20091400Y-7302500D02*
X20121880Y-7302500D01*
X20126960Y-7800340D02*
X20126960Y-7830820D01*
X20111720Y-7815580D02*
X20142200Y-7815580D01*
X20126960Y-7927340D02*
X20126960Y-7957820D01*
X20111720Y-7942580D02*
X20142200Y-7942580D01*
X22245320Y-13893800D02*
X22245320Y-13924280D01*
X22230080Y-13909040D02*
X22260560Y-13909040D01*
X22245320Y-13893800D02*
X22245320Y-13924280D01*
X22230080Y-13909040D02*
X22260560Y-13909040D01*
X22484080Y-12164060D02*
X22484080Y-12194540D01*
X22468840Y-12179300D02*
X22499320Y-12179300D01*
X22509480Y-16088360D02*
X22509480Y-16118840D01*
X22494240Y-16103600D02*
X22524720Y-16103600D01*
X24107860Y-5880660D02*
X24107860Y-5911140D01*
X24092620Y-5895900D02*
X24123100Y-5895900D01*
X24114760Y-6062980D02*
X24114760Y-6093460D01*
X24099520Y-6078220D02*
X24130000Y-6078220D01*
X25107900Y-7198360D02*
X25107900Y-7228840D01*
X25092660Y-7213600D02*
X25123140Y-7213600D01*
X25300940Y-11049000D02*
X25300940Y-11079480D01*
X25285700Y-11064240D02*
X25316180Y-11064240D01*
X25529540Y-11224260D02*
X25529540Y-11254740D01*
X25514300Y-11239500D02*
X25544780Y-11239500D01*
X26029920Y-9502140D02*
X26029920Y-9532620D01*
X26014680Y-9517380D02*
X26045160Y-9517380D01*
X12688742Y-10433222D02*
X12688742Y-10404938D01*
X12660458Y-10404938D01*
X12660458Y-10433222D01*
X12688742Y-10433222D01*
X13539642Y-14466742D02*
X13539642Y-14438458D01*
X13511358Y-14438458D01*
X13511358Y-14466742D01*
X13539642Y-14466742D01*
X14288942Y-13069742D02*
X14288942Y-13041458D01*
X14260658Y-13041458D01*
X14260658Y-13069742D01*
X14288942Y-13069742D01*
X14392842Y-15739042D02*
X14392842Y-15710758D01*
X14364558Y-15710758D01*
X14364558Y-15739042D01*
X14392842Y-15739042D01*
X14415942Y-15343042D02*
X14415942Y-15314758D01*
X14387658Y-15314758D01*
X14387658Y-15343042D01*
X14415942Y-15343042D01*
X14586122Y-14200042D02*
X14586122Y-14171758D01*
X14557838Y-14171758D01*
X14557838Y-14200042D01*
X14586122Y-14200042D01*
X15177942Y-15495442D02*
X15177942Y-15467158D01*
X15149658Y-15467158D01*
X15149658Y-15495442D01*
X15177942Y-15495442D01*
X16509052Y-14297420D02*
X16529131Y-14277340D01*
X16509052Y-14257260D01*
X16488972Y-14277340D01*
X16509052Y-14297420D01*
X16512000Y-14143080D02*
X16532080Y-14123000D01*
X16512000Y-14102920D01*
X16491920Y-14123000D01*
X16512000Y-14143080D01*
X15229840Y-15245080D02*
X15270480Y-15285720D01*
X15270480Y-15245080D02*
X15229840Y-15285720D01*
X15270480Y-15265400D02*
G75*
G03*
X15270480Y-15265400I-20320J0D01*
G01*
X16116300Y-9796780D02*
X16156940Y-9837420D01*
X16156940Y-9796780D02*
X16116300Y-9837420D01*
X16156940Y-9817100D02*
G75*
G03*
X16156940Y-9817100I-20320J0D01*
G01*
X18755360Y-9537700D02*
X18796000Y-9578340D01*
X18796000Y-9537700D02*
X18755360Y-9578340D01*
X18796000Y-9558020D02*
G75*
G03*
X18796000Y-9558020I-20320J0D01*
G01*
X18892520Y-14267180D02*
X18933160Y-14307820D01*
X18933160Y-14267180D02*
X18892520Y-14307820D01*
X18933160Y-14287500D02*
G75*
G03*
X18933160Y-14287500I-20320J0D01*
G01*
X18905220Y-11544300D02*
X18945860Y-11584940D01*
X18945860Y-11544300D02*
X18905220Y-11584940D01*
X18945860Y-11564620D02*
G75*
G03*
X18945860Y-11564620I-20320J0D01*
G01*
X19573240Y-12550140D02*
X19613880Y-12590780D01*
X19613880Y-12550140D02*
X19573240Y-12590780D01*
X19613880Y-12570460D02*
G75*
G03*
X19613880Y-12570460I-20320J0D01*
G01*
X20855940Y-13942060D02*
X20896580Y-13982700D01*
X20896580Y-13942060D02*
X20855940Y-13982700D01*
X20896580Y-13962380D02*
G75*
G03*
X20896580Y-13962380I-20320J0D01*
G01*
X20977860Y-13484860D02*
X21018500Y-13525500D01*
X21018500Y-13484860D02*
X20977860Y-13525500D01*
X21018500Y-13505180D02*
G75*
G03*
X21018500Y-13505180I-20320J0D01*
G01*
X21038820Y-13764260D02*
X21079460Y-13804900D01*
X21079460Y-13764260D02*
X21038820Y-13804900D01*
X21079460Y-13784580D02*
G75*
G03*
X21079460Y-13784580I-20320J0D01*
G01*
X21323300Y-13703300D02*
X21363940Y-13743940D01*
X21363940Y-13703300D02*
X21323300Y-13743940D01*
X21363940Y-13723620D02*
G75*
G03*
X21363940Y-13723620I-20320J0D01*
G01*
X26311860Y-11508740D02*
X26352500Y-11549380D01*
X26352500Y-11508740D02*
X26311860Y-11549380D01*
X26352500Y-11529060D02*
G75*
G03*
X26352500Y-11529060I-20320J0D01*
G01*
X26494740Y-11742420D02*
X26535380Y-11783060D01*
X26535380Y-11742420D02*
X26494740Y-11783060D01*
X26535380Y-11762740D02*
G75*
G03*
X26535380Y-11762740I-20320J0D01*
G01*
X26738580Y-10584180D02*
X26779220Y-10624820D01*
X26779220Y-10584180D02*
X26738580Y-10624820D01*
X26779220Y-10604500D02*
G75*
G03*
X26779220Y-10604500I-20320J0D01*
G01*
X26880820Y-11793220D02*
X26921460Y-11833860D01*
X26921460Y-11793220D02*
X26880820Y-11833860D01*
X26921460Y-11813540D02*
G75*
G03*
X26921460Y-11813540I-20320J0D01*
G01*
X26929080Y-10431780D02*
X26969720Y-10472420D01*
X26969720Y-10431780D02*
X26929080Y-10472420D01*
X26969720Y-10452100D02*
G75*
G03*
X26969720Y-10452100I-20320J0D01*
G01*
X27056080Y-10596880D02*
X27096720Y-10637520D01*
X27096720Y-10596880D02*
X27056080Y-10637520D01*
X27096720Y-10617200D02*
G75*
G03*
X27096720Y-10617200I-20320J0D01*
G01*
X27129740Y-12321540D02*
X27170380Y-12362180D01*
X27170380Y-12321540D02*
X27129740Y-12362180D01*
X27170380Y-12341860D02*
G75*
G03*
X27170380Y-12341860I-20320J0D01*
G01*
X27246580Y-10444480D02*
X27287220Y-10485120D01*
X27287220Y-10444480D02*
X27246580Y-10485120D01*
X27287220Y-10464800D02*
G75*
G03*
X27287220Y-10464800I-20320J0D01*
G01*
X27411680Y-10622280D02*
X27452320Y-10662920D01*
X27452320Y-10622280D02*
X27411680Y-10662920D01*
X27452320Y-10642600D02*
G75*
G03*
X27452320Y-10642600I-20320J0D01*
G01*
X27602180Y-10495280D02*
X27642820Y-10535920D01*
X27642820Y-10495280D02*
X27602180Y-10535920D01*
X27642820Y-10515600D02*
G75*
G03*
X27642820Y-10515600I-20320J0D01*
G01*
X14755000Y-15642000D02*
X14820000Y-15707000D01*
X14820000Y-15642000D02*
X14755000Y-15707000D01*
X14787500Y-15642000D02*
X14787500Y-15707000D01*
X14755000Y-15674500D02*
X14820000Y-15674500D01*
X14810000Y-15694500D02*
X14810000Y-15654500D01*
X14765000Y-15694500D02*
X14765000Y-15654500D01*
X14810000Y-15654500D02*
G75*
G03*
X14765000Y-15654500I-22500J0D01*
G01*
X14765000Y-15694500D02*
G75*
G03*
X14810000Y-15694500I22500J0D01*
G01*
X15239000Y-15642000D02*
X15304000Y-15707000D01*
X15304000Y-15642000D02*
X15239000Y-15707000D01*
X15271500Y-15642000D02*
X15271500Y-15707000D01*
X15239000Y-15674500D02*
X15304000Y-15674500D01*
X15294000Y-15694500D02*
X15294000Y-15654500D01*
X15249000Y-15694500D02*
X15249000Y-15654500D01*
X15294000Y-15654500D02*
G75*
G03*
X15249000Y-15654500I-22500J0D01*
G01*
X15249000Y-15694500D02*
G75*
G03*
X15294000Y-15694500I22500J0D01*
G01*
X14721500Y-15939500D02*
X14791500Y-16009500D01*
X14791500Y-15939500D02*
X14721500Y-16009500D01*
X14781249Y-15999249D02*
X14781249Y-15949751D01*
X14731751Y-15949751D01*
X14731751Y-15999249D01*
X14781249Y-15999249D01*
X14781500Y-15999500D02*
X14781500Y-15949500D01*
X14731500Y-15999500D02*
X14731500Y-15949500D01*
X14781500Y-15949500D02*
G75*
G03*
X14731500Y-15949500I-25000J0D01*
G01*
X14731500Y-15999500D02*
G75*
G03*
X14781500Y-15999500I25000J0D01*
G01*
X15267500Y-15939500D02*
X15337500Y-16009500D01*
X15337500Y-15939500D02*
X15267500Y-16009500D01*
X15327249Y-15999249D02*
X15327249Y-15949751D01*
X15277751Y-15949751D01*
X15277751Y-15999249D01*
X15327249Y-15999249D01*
X15327500Y-15999500D02*
X15327500Y-15949500D01*
X15277500Y-15999500D02*
X15277500Y-15949500D01*
X15327500Y-15949500D02*
G75*
G03*
X15277500Y-15949500I-25000J0D01*
G01*
X15277500Y-15999500D02*
G75*
G03*
X15327500Y-15999500I25000J0D01*
G01*
X12635120Y-10956640D02*
X12715120Y-11036640D01*
X12715120Y-10956640D02*
X12635120Y-11036640D01*
X12675120Y-11036640D02*
X12715120Y-10996640D01*
X12675120Y-10956640D01*
X12635120Y-10996640D01*
X12675120Y-11036640D01*
X12635120Y-11210640D02*
X12715120Y-11290640D01*
X12715120Y-11210640D02*
X12635120Y-11290640D01*
X12675120Y-11290640D02*
X12715120Y-11250640D01*
X12675120Y-11210640D01*
X12635120Y-11250640D01*
X12675120Y-11290640D01*
X12635120Y-11464640D02*
X12715120Y-11544640D01*
X12715120Y-11464640D02*
X12635120Y-11544640D01*
X12675120Y-11544640D02*
X12715120Y-11504640D01*
X12675120Y-11464640D01*
X12635120Y-11504640D01*
X12675120Y-11544640D01*
X13397120Y-10956640D02*
X13477120Y-11036640D01*
X13477120Y-10956640D02*
X13397120Y-11036640D01*
X13437120Y-11036640D02*
X13477120Y-10996640D01*
X13437120Y-10956640D01*
X13397120Y-10996640D01*
X13437120Y-11036640D01*
X13397120Y-11210640D02*
X13477120Y-11290640D01*
X13477120Y-11210640D02*
X13397120Y-11290640D01*
X13437120Y-11290640D02*
X13477120Y-11250640D01*
X13437120Y-11210640D01*
X13397120Y-11250640D01*
X13437120Y-11290640D01*
X13397120Y-11464640D02*
X13477120Y-11544640D01*
X13477120Y-11464640D02*
X13397120Y-11544640D01*
X13437120Y-11544640D02*
X13477120Y-11504640D01*
X13437120Y-11464640D01*
X13397120Y-11504640D01*
X13437120Y-11544640D01*
X27111960Y-12710160D02*
X27111960Y-12791440D01*
X27071320Y-12750800D02*
X27152600Y-12750800D01*
X27152600Y-12750800D02*
G75*
G03*
X27152600Y-12750800I-40640J0D01*
G01*
X27619960Y-12710160D02*
X27619960Y-12791440D01*
X27579320Y-12750800D02*
X27660600Y-12750800D01*
X27660600Y-12750800D02*
G75*
G03*
X27660600Y-12750800I-40640J0D01*
G01*
X13737527Y-13424927D02*
X13737527Y-13359873D01*
X13672473Y-13359873D01*
X13672473Y-13424927D01*
X13737527Y-13424927D01*
X13751000Y-13392400D02*
G75*
G03*
X13751000Y-13392400I-46000J0D01*
G01*
X13737527Y-13674927D02*
X13737527Y-13609873D01*
X13672473Y-13609873D01*
X13672473Y-13674927D01*
X13737527Y-13674927D01*
X13751000Y-13642400D02*
G75*
G03*
X13751000Y-13642400I-46000J0D01*
G01*
X13937527Y-13424927D02*
X13937527Y-13359873D01*
X13872473Y-13359873D01*
X13872473Y-13424927D01*
X13937527Y-13424927D01*
X13951000Y-13392400D02*
G75*
G03*
X13951000Y-13392400I-46000J0D01*
G01*
X13937527Y-13674927D02*
X13937527Y-13609873D01*
X13872473Y-13609873D01*
X13872473Y-13674927D01*
X13937527Y-13674927D01*
X13951000Y-13642400D02*
G75*
G03*
X13951000Y-13642400I-46000J0D01*
G01*
X26676620Y-11232060D02*
X26726620Y-11182060D01*
X26676620Y-11132060D01*
X26626620Y-11182060D01*
X26676620Y-11232060D01*
X26726620Y-11182060D02*
G75*
G03*
X26726620Y-11182060I-50000J0D01*
G01*
X26636620Y-11057060D02*
X26636620Y-11307060D01*
X26716620Y-11057060D02*
X26716620Y-11307060D01*
X26636620Y-11307060D02*
G75*
G03*
X26716620Y-11307060I40000J0D01*
G01*
X26716620Y-11057060D02*
G75*
G03*
X26636620Y-11057060I-40000J0D01*
G01*
X26976620Y-10762060D02*
X27026620Y-10712060D01*
X26976620Y-10662060D01*
X26926620Y-10712060D01*
X26976620Y-10762060D01*
X27026620Y-10712060D02*
G75*
G03*
X27026620Y-10712060I-50000J0D01*
G01*
X26876620Y-10752060D02*
X27076620Y-10752060D01*
X26876620Y-10672060D02*
X27076620Y-10672060D01*
X27076620Y-10752060D02*
G75*
G03*
X27076620Y-10672060I0J40000D01*
G01*
X26876620Y-10672060D02*
G75*
G03*
X26876620Y-10752060I0J-40000D01*
G01*
X27276620Y-11232060D02*
X27326620Y-11182060D01*
X27276620Y-11132060D01*
X27226620Y-11182060D01*
X27276620Y-11232060D01*
X27326620Y-11182060D02*
G75*
G03*
X27326620Y-11182060I-50000J0D01*
G01*
X27236620Y-11082060D02*
X27236620Y-11282060D01*
X27316620Y-11082060D02*
X27316620Y-11282060D01*
X27236620Y-11282060D02*
G75*
G03*
X27316620Y-11282060I40000J0D01*
G01*
X27316620Y-11082060D02*
G75*
G03*
X27236620Y-11082060I-40000J0D01*
G01*
X14224000Y-14731200D02*
X14274000Y-14681200D01*
X14224000Y-14631200D01*
X14174000Y-14681200D01*
X14224000Y-14731200D01*
X14274000Y-14681200D02*
G75*
G03*
X14274000Y-14681200I-50000J0D01*
G01*
X14478000Y-14731200D02*
X14528000Y-14681200D01*
X14478000Y-14631200D01*
X14428000Y-14681200D01*
X14478000Y-14731200D01*
X14528000Y-14681200D02*
G75*
G03*
X14528000Y-14681200I-50000J0D01*
G01*
X14732000Y-14731200D02*
X14782000Y-14681200D01*
X14732000Y-14631200D01*
X14682000Y-14681200D01*
X14732000Y-14731200D01*
X14782000Y-14681200D02*
G75*
G03*
X14782000Y-14681200I-50000J0D01*
G01*
X24460200Y-10972000D02*
X24510200Y-10922000D01*
X24460200Y-10872000D01*
X24410200Y-10922000D01*
X24460200Y-10972000D01*
X24510200Y-10922000D02*
G75*
G03*
X24510200Y-10922000I-50000J0D01*
G01*
X24714200Y-10972000D02*
X24764200Y-10922000D01*
X24714200Y-10872000D01*
X24664200Y-10922000D01*
X24714200Y-10972000D01*
X24764200Y-10922000D02*
G75*
G03*
X24764200Y-10922000I-50000J0D01*
G01*
X24968200Y-10972000D02*
X25018200Y-10922000D01*
X24968200Y-10872000D01*
X24918200Y-10922000D01*
X24968200Y-10972000D01*
X25018200Y-10922000D02*
G75*
G03*
X25018200Y-10922000I-50000J0D01*
G01*
X15405100Y-5091900D02*
X15455100Y-5041900D01*
X15405100Y-4991900D01*
X15355100Y-5041900D01*
X15405100Y-5091900D01*
X15455100Y-5041900D02*
G75*
G03*
X15455100Y-5041900I-50000J0D01*
G01*
X15659100Y-5091900D02*
X15709100Y-5041900D01*
X15659100Y-4991900D01*
X15609100Y-5041900D01*
X15659100Y-5091900D01*
X15709100Y-5041900D02*
G75*
G03*
X15709100Y-5041900I-50000J0D01*
G01*
X15913100Y-5091900D02*
X15963100Y-5041900D01*
X15913100Y-4991900D01*
X15863100Y-5041900D01*
X15913100Y-5091900D01*
X15963100Y-5041900D02*
G75*
G03*
X15963100Y-5041900I-50000J0D01*
G01*
X16167100Y-5091900D02*
X16217100Y-5041900D01*
X16167100Y-4991900D01*
X16117100Y-5041900D01*
X16167100Y-5091900D01*
X16217100Y-5041900D02*
G75*
G03*
X16217100Y-5041900I-50000J0D01*
G01*
X16421100Y-5091900D02*
X16471100Y-5041900D01*
X16421100Y-4991900D01*
X16371100Y-5041900D01*
X16421100Y-5091900D01*
X16471100Y-5041900D02*
G75*
G03*
X16471100Y-5041900I-50000J0D01*
G01*
X16675100Y-5091900D02*
X16725100Y-5041900D01*
X16675100Y-4991900D01*
X16625100Y-5041900D01*
X16675100Y-5091900D01*
X16725100Y-5041900D02*
G75*
G03*
X16725100Y-5041900I-50000J0D01*
G01*
X25296000Y-5150000D02*
X25346000Y-5100000D01*
X25296000Y-5050000D01*
X25246000Y-5100000D01*
X25296000Y-5150000D01*
X25346000Y-5100000D02*
G75*
G03*
X25346000Y-5100000I-50000J0D01*
G01*
X25550000Y-5150000D02*
X25600000Y-5100000D01*
X25550000Y-5050000D01*
X25500000Y-5100000D01*
X25550000Y-5150000D01*
X25600000Y-5100000D02*
G75*
G03*
X25600000Y-5100000I-50000J0D01*
G01*
X25804000Y-5150000D02*
X25854000Y-5100000D01*
X25804000Y-5050000D01*
X25754000Y-5100000D01*
X25804000Y-5150000D01*
X25854000Y-5100000D02*
G75*
G03*
X25854000Y-5100000I-50000J0D01*
G01*
X26058000Y-5150000D02*
X26108000Y-5100000D01*
X26058000Y-5050000D01*
X26008000Y-5100000D01*
X26058000Y-5150000D01*
X26108000Y-5100000D02*
G75*
G03*
X26108000Y-5100000I-50000J0D01*
G01*
X26312000Y-5150000D02*
X26362000Y-5100000D01*
X26312000Y-5050000D01*
X26262000Y-5100000D01*
X26312000Y-5150000D01*
X26362000Y-5100000D02*
G75*
G03*
X26362000Y-5100000I-50000J0D01*
G01*
X26566000Y-5150000D02*
X26616000Y-5100000D01*
X26566000Y-5050000D01*
X26516000Y-5100000D01*
X26566000Y-5150000D01*
X26616000Y-5100000D02*
G75*
G03*
X26616000Y-5100000I-50000J0D01*
G01*
X26820000Y-5150000D02*
X26870000Y-5100000D01*
X26820000Y-5050000D01*
X26770000Y-5100000D01*
X26820000Y-5150000D01*
X26870000Y-5100000D02*
G75*
G03*
X26870000Y-5100000I-50000J0D01*
G01*
X27074000Y-5150000D02*
X27124000Y-5100000D01*
X27074000Y-5050000D01*
X27024000Y-5100000D01*
X27074000Y-5150000D01*
X27124000Y-5100000D02*
G75*
G03*
X27124000Y-5100000I-50000J0D01*
G01*
X12547920Y-12406640D02*
X12597920Y-12356640D01*
X12547920Y-12306640D01*
X12497920Y-12356640D01*
X12547920Y-12406640D01*
X12597920Y-12356640D02*
G75*
G03*
X12597920Y-12356640I-50000J0D01*
G01*
X12801920Y-12406640D02*
X12851920Y-12356640D01*
X12801920Y-12306640D01*
X12751920Y-12356640D01*
X12801920Y-12406640D01*
X12851920Y-12356640D02*
G75*
G03*
X12851920Y-12356640I-50000J0D01*
G01*
X13055920Y-12406640D02*
X13105920Y-12356640D01*
X13055920Y-12306640D01*
X13005920Y-12356640D01*
X13055920Y-12406640D01*
X13105920Y-12356640D02*
G75*
G03*
X13105920Y-12356640I-50000J0D01*
G01*
X13309920Y-12406640D02*
X13359920Y-12356640D01*
X13309920Y-12306640D01*
X13259920Y-12356640D01*
X13309920Y-12406640D01*
X13359920Y-12356640D02*
G75*
G03*
X13359920Y-12356640I-50000J0D01*
G01*
X13563920Y-12406640D02*
X13613920Y-12356640D01*
X13563920Y-12306640D01*
X13513920Y-12356640D01*
X13563920Y-12406640D01*
X13613920Y-12356640D02*
G75*
G03*
X13613920Y-12356640I-50000J0D01*
G01*
X13817920Y-12406640D02*
X13867920Y-12356640D01*
X13817920Y-12306640D01*
X13767920Y-12356640D01*
X13817920Y-12406640D01*
X13867920Y-12356640D02*
G75*
G03*
X13867920Y-12356640I-50000J0D01*
G01*
X14071920Y-12406640D02*
X14121920Y-12356640D01*
X14071920Y-12306640D01*
X14021920Y-12356640D01*
X14071920Y-12406640D01*
X14121920Y-12356640D02*
G75*
G03*
X14121920Y-12356640I-50000J0D01*
G01*
X14325920Y-12406640D02*
X14375920Y-12356640D01*
X14325920Y-12306640D01*
X14275920Y-12356640D01*
X14325920Y-12406640D01*
X14375920Y-12356640D02*
G75*
G03*
X14375920Y-12356640I-50000J0D01*
G01*
X20281900Y-15823400D02*
X20331900Y-15773400D01*
X20281900Y-15723400D01*
X20231900Y-15773400D01*
X20281900Y-15823400D01*
X20331900Y-15773400D02*
G75*
G03*
X20331900Y-15773400I-50000J0D01*
G01*
X20535900Y-15823400D02*
X20585900Y-15773400D01*
X20535900Y-15723400D01*
X20485900Y-15773400D01*
X20535900Y-15823400D01*
X20585900Y-15773400D02*
G75*
G03*
X20585900Y-15773400I-50000J0D01*
G01*
X20789900Y-15823400D02*
X20839900Y-15773400D01*
X20789900Y-15723400D01*
X20739900Y-15773400D01*
X20789900Y-15823400D01*
X20839900Y-15773400D02*
G75*
G03*
X20839900Y-15773400I-50000J0D01*
G01*
X25803860Y-9976320D02*
X25853860Y-9926320D01*
X25803860Y-9876320D01*
X25753860Y-9926320D01*
X25803860Y-9976320D01*
X25853860Y-9926320D02*
G75*
G03*
X25853860Y-9926320I-50000J0D01*
G01*
X26057860Y-9976320D02*
X26107860Y-9926320D01*
X26057860Y-9876320D01*
X26007860Y-9926320D01*
X26057860Y-9976320D01*
X26107860Y-9926320D02*
G75*
G03*
X26107860Y-9926320I-50000J0D01*
G01*
X26311860Y-9976320D02*
X26361860Y-9926320D01*
X26311860Y-9876320D01*
X26261860Y-9926320D01*
X26311860Y-9976320D01*
X26361860Y-9926320D02*
G75*
G03*
X26361860Y-9926320I-50000J0D01*
G01*
X26565860Y-9976320D02*
X26615860Y-9926320D01*
X26565860Y-9876320D01*
X26515860Y-9926320D01*
X26565860Y-9976320D01*
X26615860Y-9926320D02*
G75*
G03*
X26615860Y-9926320I-50000J0D01*
G01*
X26819860Y-9976320D02*
X26869860Y-9926320D01*
X26819860Y-9876320D01*
X26769860Y-9926320D01*
X26819860Y-9976320D01*
X26869860Y-9926320D02*
G75*
G03*
X26869860Y-9926320I-50000J0D01*
G01*
X27073860Y-9976320D02*
X27123860Y-9926320D01*
X27073860Y-9876320D01*
X27023860Y-9926320D01*
X27073860Y-9976320D01*
X27123860Y-9926320D02*
G75*
G03*
X27123860Y-9926320I-50000J0D01*
G01*
X23517860Y-9976320D02*
X23567860Y-9926320D01*
X23517860Y-9876320D01*
X23467860Y-9926320D01*
X23517860Y-9976320D01*
X23567860Y-9926320D02*
G75*
G03*
X23567860Y-9926320I-50000J0D01*
G01*
X23771860Y-9976320D02*
X23821860Y-9926320D01*
X23771860Y-9876320D01*
X23721860Y-9926320D01*
X23771860Y-9976320D01*
X23821860Y-9926320D02*
G75*
G03*
X23821860Y-9926320I-50000J0D01*
G01*
X24025860Y-9976320D02*
X24075860Y-9926320D01*
X24025860Y-9876320D01*
X23975860Y-9926320D01*
X24025860Y-9976320D01*
X24075860Y-9926320D02*
G75*
G03*
X24075860Y-9926320I-50000J0D01*
G01*
X24279860Y-9976320D02*
X24329860Y-9926320D01*
X24279860Y-9876320D01*
X24229860Y-9926320D01*
X24279860Y-9976320D01*
X24329860Y-9926320D02*
G75*
G03*
X24329860Y-9926320I-50000J0D01*
G01*
X24533860Y-9976320D02*
X24583860Y-9926320D01*
X24533860Y-9876320D01*
X24483860Y-9926320D01*
X24533860Y-9976320D01*
X24583860Y-9926320D02*
G75*
G03*
X24583860Y-9926320I-50000J0D01*
G01*
X24787860Y-9976320D02*
X24837860Y-9926320D01*
X24787860Y-9876320D01*
X24737860Y-9926320D01*
X24787860Y-9976320D01*
X24837860Y-9926320D02*
G75*
G03*
X24837860Y-9926320I-50000J0D01*
G01*
X25041860Y-9976320D02*
X25091860Y-9926320D01*
X25041860Y-9876320D01*
X24991860Y-9926320D01*
X25041860Y-9976320D01*
X25091860Y-9926320D02*
G75*
G03*
X25091860Y-9926320I-50000J0D01*
G01*
X25295860Y-9976320D02*
X25345860Y-9926320D01*
X25295860Y-9876320D01*
X25245860Y-9926320D01*
X25295860Y-9976320D01*
X25345860Y-9926320D02*
G75*
G03*
X25345860Y-9926320I-50000J0D01*
G01*
X23096220Y-15922460D02*
X23146220Y-15872460D01*
X23096220Y-15822460D01*
X23046220Y-15872460D01*
X23096220Y-15922460D01*
X23146220Y-15872460D02*
G75*
G03*
X23146220Y-15872460I-50000J0D01*
G01*
X23350220Y-15922460D02*
X23400220Y-15872460D01*
X23350220Y-15822460D01*
X23300220Y-15872460D01*
X23350220Y-15922460D01*
X23400220Y-15872460D02*
G75*
G03*
X23400220Y-15872460I-50000J0D01*
G01*
X23604220Y-15922460D02*
X23654220Y-15872460D01*
X23604220Y-15822460D01*
X23554220Y-15872460D01*
X23604220Y-15922460D01*
X23654220Y-15872460D02*
G75*
G03*
X23654220Y-15872460I-50000J0D01*
G01*
X22603600Y-5150000D02*
X22653600Y-5100000D01*
X22603600Y-5050000D01*
X22553600Y-5100000D01*
X22603600Y-5150000D01*
X22653600Y-5100000D02*
G75*
G03*
X22653600Y-5100000I-50000J0D01*
G01*
X22857600Y-5150000D02*
X22907600Y-5100000D01*
X22857600Y-5050000D01*
X22807600Y-5100000D01*
X22857600Y-5150000D01*
X22907600Y-5100000D02*
G75*
G03*
X22907600Y-5100000I-50000J0D01*
G01*
X23111600Y-5150000D02*
X23161600Y-5100000D01*
X23111600Y-5050000D01*
X23061600Y-5100000D01*
X23111600Y-5150000D01*
X23161600Y-5100000D02*
G75*
G03*
X23161600Y-5100000I-50000J0D01*
G01*
X23365600Y-5150000D02*
X23415600Y-5100000D01*
X23365600Y-5050000D01*
X23315600Y-5100000D01*
X23365600Y-5150000D01*
X23415600Y-5100000D02*
G75*
G03*
X23415600Y-5100000I-50000J0D01*
G01*
X23619600Y-5150000D02*
X23669600Y-5100000D01*
X23619600Y-5050000D01*
X23569600Y-5100000D01*
X23619600Y-5150000D01*
X23669600Y-5100000D02*
G75*
G03*
X23669600Y-5100000I-50000J0D01*
G01*
X23873600Y-5150000D02*
X23923600Y-5100000D01*
X23873600Y-5050000D01*
X23823600Y-5100000D01*
X23873600Y-5150000D01*
X23923600Y-5100000D02*
G75*
G03*
X23923600Y-5100000I-50000J0D01*
G01*
X24127600Y-5150000D02*
X24177600Y-5100000D01*
X24127600Y-5050000D01*
X24077600Y-5100000D01*
X24127600Y-5150000D01*
X24177600Y-5100000D02*
G75*
G03*
X24177600Y-5100000I-50000J0D01*
G01*
X24381600Y-5150000D02*
X24431600Y-5100000D01*
X24381600Y-5050000D01*
X24331600Y-5100000D01*
X24381600Y-5150000D01*
X24431600Y-5100000D02*
G75*
G03*
X24431600Y-5100000I-50000J0D01*
G01*
X24635600Y-5150000D02*
X24685600Y-5100000D01*
X24635600Y-5050000D01*
X24585600Y-5100000D01*
X24635600Y-5150000D01*
X24685600Y-5100000D02*
G75*
G03*
X24685600Y-5100000I-50000J0D01*
G01*
X24889600Y-5150000D02*
X24939600Y-5100000D01*
X24889600Y-5050000D01*
X24839600Y-5100000D01*
X24889600Y-5150000D01*
X24939600Y-5100000D02*
G75*
G03*
X24939600Y-5100000I-50000J0D01*
G01*
X13980160Y-5104000D02*
X14030160Y-5054000D01*
X13980160Y-5004000D01*
X13930160Y-5054000D01*
X13980160Y-5104000D01*
X14030160Y-5054000D02*
G75*
G03*
X14030160Y-5054000I-50000J0D01*
G01*
X14234160Y-5104000D02*
X14284160Y-5054000D01*
X14234160Y-5004000D01*
X14184160Y-5054000D01*
X14234160Y-5104000D01*
X14284160Y-5054000D02*
G75*
G03*
X14284160Y-5054000I-50000J0D01*
G01*
X14488160Y-5104000D02*
X14538160Y-5054000D01*
X14488160Y-5004000D01*
X14438160Y-5054000D01*
X14488160Y-5104000D01*
X14538160Y-5054000D02*
G75*
G03*
X14538160Y-5054000I-50000J0D01*
G01*
X14742160Y-5104000D02*
X14792160Y-5054000D01*
X14742160Y-5004000D01*
X14692160Y-5054000D01*
X14742160Y-5104000D01*
X14792160Y-5054000D02*
G75*
G03*
X14792160Y-5054000I-50000J0D01*
G01*
X24472900Y-11670500D02*
X24522900Y-11620500D01*
X24472900Y-11570500D01*
X24422900Y-11620500D01*
X24472900Y-11670500D01*
X24522900Y-11620500D02*
G75*
G03*
X24522900Y-11620500I-50000J0D01*
G01*
X24726900Y-11670500D02*
X24776900Y-11620500D01*
X24726900Y-11570500D01*
X24676900Y-11620500D01*
X24726900Y-11670500D01*
X24776900Y-11620500D02*
G75*
G03*
X24776900Y-11620500I-50000J0D01*
G01*
X24980900Y-11670500D02*
X25030900Y-11620500D01*
X24980900Y-11570500D01*
X24930900Y-11620500D01*
X24980900Y-11670500D01*
X25030900Y-11620500D02*
G75*
G03*
X25030900Y-11620500I-50000J0D01*
G01*
X18554700Y-12889700D02*
X18604700Y-12839700D01*
X18554700Y-12789700D01*
X18504700Y-12839700D01*
X18554700Y-12889700D01*
X18604700Y-12839700D02*
G75*
G03*
X18604700Y-12839700I-50000J0D01*
G01*
X18808700Y-12889700D02*
X18858700Y-12839700D01*
X18808700Y-12789700D01*
X18758700Y-12839700D01*
X18808700Y-12889700D01*
X18858700Y-12839700D02*
G75*
G03*
X18858700Y-12839700I-50000J0D01*
G01*
X19062700Y-12889700D02*
X19112700Y-12839700D01*
X19062700Y-12789700D01*
X19012700Y-12839700D01*
X19062700Y-12889700D01*
X19112700Y-12839700D02*
G75*
G03*
X19112700Y-12839700I-50000J0D01*
G01*
X19316700Y-12889700D02*
X19366700Y-12839700D01*
X19316700Y-12789700D01*
X19266700Y-12839700D01*
X19316700Y-12889700D01*
X19366700Y-12839700D02*
G75*
G03*
X19366700Y-12839700I-50000J0D01*
G01*
X18059400Y-15810700D02*
X18109400Y-15760700D01*
X18059400Y-15710700D01*
X18009400Y-15760700D01*
X18059400Y-15810700D01*
X18109400Y-15760700D02*
G75*
G03*
X18109400Y-15760700I-50000J0D01*
G01*
X18313400Y-15810700D02*
X18363400Y-15760700D01*
X18313400Y-15710700D01*
X18263400Y-15760700D01*
X18313400Y-15810700D01*
X18363400Y-15760700D02*
G75*
G03*
X18363400Y-15760700I-50000J0D01*
G01*
X18567400Y-15810700D02*
X18617400Y-15760700D01*
X18567400Y-15710700D01*
X18517400Y-15760700D01*
X18567400Y-15810700D01*
X18617400Y-15760700D02*
G75*
G03*
X18617400Y-15760700I-50000J0D01*
G01*
X18821400Y-15810700D02*
X18871400Y-15760700D01*
X18821400Y-15710700D01*
X18771400Y-15760700D01*
X18821400Y-15810700D01*
X18871400Y-15760700D02*
G75*
G03*
X18871400Y-15760700I-50000J0D01*
G01*
X19075400Y-15810700D02*
X19125400Y-15760700D01*
X19075400Y-15710700D01*
X19025400Y-15760700D01*
X19075400Y-15810700D01*
X19125400Y-15760700D02*
G75*
G03*
X19125400Y-15760700I-50000J0D01*
G01*
X19329400Y-15810700D02*
X19379400Y-15760700D01*
X19329400Y-15710700D01*
X19279400Y-15760700D01*
X19329400Y-15810700D01*
X19379400Y-15760700D02*
G75*
G03*
X19379400Y-15760700I-50000J0D01*
G01*
X19583400Y-15810700D02*
X19633400Y-15760700D01*
X19583400Y-15710700D01*
X19533400Y-15760700D01*
X19583400Y-15810700D01*
X19633400Y-15760700D02*
G75*
G03*
X19633400Y-15760700I-50000J0D01*
G01*
X19837400Y-15810700D02*
X19887400Y-15760700D01*
X19837400Y-15710700D01*
X19787400Y-15760700D01*
X19837400Y-15810700D01*
X19887400Y-15760700D02*
G75*
G03*
X19887400Y-15760700I-50000J0D01*
G01*
X27165300Y-14080960D02*
X27215300Y-14030960D01*
X27165300Y-13980960D01*
X27115300Y-14030960D01*
X27165300Y-14080960D01*
X27215300Y-14030960D02*
G75*
G03*
X27215300Y-14030960I-50000J0D01*
G01*
X27665300Y-14080960D02*
X27715300Y-14030960D01*
X27665300Y-13980960D01*
X27615300Y-14030960D01*
X27665300Y-14080960D01*
X27715300Y-14030960D02*
G75*
G03*
X27715300Y-14030960I-50000J0D01*
G01*
X15085060Y-12371540D02*
X15135060Y-12321540D01*
X15085060Y-12271540D01*
X15035060Y-12321540D01*
X15085060Y-12371540D01*
X15135060Y-12321540D02*
G75*
G03*
X15135060Y-12321540I-50000J0D01*
G01*
X15339060Y-12371540D02*
X15389060Y-12321540D01*
X15339060Y-12271540D01*
X15289060Y-12321540D01*
X15339060Y-12371540D01*
X15389060Y-12321540D02*
G75*
G03*
X15389060Y-12321540I-50000J0D01*
G01*
X15593060Y-12371540D02*
X15643060Y-12321540D01*
X15593060Y-12271540D01*
X15543060Y-12321540D01*
X15593060Y-12371540D01*
X15643060Y-12321540D02*
G75*
G03*
X15643060Y-12321540I-50000J0D01*
G01*
X22707600Y-11365700D02*
X22757600Y-11315700D01*
X22707600Y-11265700D01*
X22657600Y-11315700D01*
X22707600Y-11365700D01*
X22757600Y-11315700D02*
G75*
G03*
X22757600Y-11315700I-50000J0D01*
G01*
X22961600Y-11365700D02*
X23011600Y-11315700D01*
X22961600Y-11265700D01*
X22911600Y-11315700D01*
X22961600Y-11365700D01*
X23011600Y-11315700D02*
G75*
G03*
X23011600Y-11315700I-50000J0D01*
G01*
X23215600Y-11365700D02*
X23265600Y-11315700D01*
X23215600Y-11265700D01*
X23165600Y-11315700D01*
X23215600Y-11365700D01*
X23265600Y-11315700D02*
G75*
G03*
X23265600Y-11315700I-50000J0D01*
G01*
X23469600Y-11365700D02*
X23519600Y-11315700D01*
X23469600Y-11265700D01*
X23419600Y-11315700D01*
X23469600Y-11365700D01*
X23519600Y-11315700D02*
G75*
G03*
X23519600Y-11315700I-50000J0D01*
G01*
X23723600Y-11365700D02*
X23773600Y-11315700D01*
X23723600Y-11265700D01*
X23673600Y-11315700D01*
X23723600Y-11365700D01*
X23773600Y-11315700D02*
G75*
G03*
X23773600Y-11315700I-50000J0D01*
G01*
X23977600Y-11365700D02*
X24027600Y-11315700D01*
X23977600Y-11265700D01*
X23927600Y-11315700D01*
X23977600Y-11365700D01*
X24027600Y-11315700D02*
G75*
G03*
X24027600Y-11315700I-50000J0D01*
G01*
X13434000Y-12798900D02*
X13434000Y-13031900D01*
X13317500Y-12915400D02*
X13550500Y-12915400D01*
X13516379Y-12997779D02*
X13516379Y-12833021D01*
X13351621Y-12833021D01*
X13351621Y-12997779D01*
X13516379Y-12997779D01*
X13434000Y-14002900D02*
X13434000Y-14235900D01*
X13317500Y-14119400D02*
X13550500Y-14119400D01*
X13516379Y-14201779D02*
X13516379Y-14037021D01*
X13351621Y-14037021D01*
X13351621Y-14201779D01*
X13516379Y-14201779D01*
D12*
X12592048Y-16691774D02*
X12592048Y-16391774D01*
X12663477Y-16391774D01*
X12706334Y-16406060D01*
X12734906Y-16434631D01*
X12749191Y-16463203D01*
X12763477Y-16520346D01*
X12763477Y-16563203D01*
X12749191Y-16620346D01*
X12734906Y-16648917D01*
X12706334Y-16677489D01*
X12663477Y-16691774D01*
X12592048Y-16691774D01*
X12892048Y-16691774D02*
X12892048Y-16491774D01*
X12892048Y-16548917D02*
X12906334Y-16520346D01*
X12920620Y-16506060D01*
X12949191Y-16491774D01*
X12977763Y-16491774D01*
X13077763Y-16691774D02*
X13077763Y-16491774D01*
X13077763Y-16391774D02*
X13063477Y-16406060D01*
X13077763Y-16420346D01*
X13092048Y-16406060D01*
X13077763Y-16391774D01*
X13077763Y-16420346D01*
X13263477Y-16691774D02*
X13234906Y-16677489D01*
X13220620Y-16648917D01*
X13220620Y-16391774D01*
X13420620Y-16691774D02*
X13392048Y-16677489D01*
X13377763Y-16648917D01*
X13377763Y-16391774D01*
X13763477Y-16691774D02*
X13763477Y-16391774D01*
X13863477Y-16606060D01*
X13963477Y-16391774D01*
X13963477Y-16691774D01*
X14234906Y-16691774D02*
X14234906Y-16534631D01*
X14220620Y-16506060D01*
X14192048Y-16491774D01*
X14134906Y-16491774D01*
X14106334Y-16506060D01*
X14234906Y-16677489D02*
X14206334Y-16691774D01*
X14134906Y-16691774D01*
X14106334Y-16677489D01*
X14092048Y-16648917D01*
X14092048Y-16620346D01*
X14106334Y-16591774D01*
X14134906Y-16577489D01*
X14206334Y-16577489D01*
X14234906Y-16563203D01*
X14377763Y-16491774D02*
X14377763Y-16791774D01*
X14377763Y-16506060D02*
X14406334Y-16491774D01*
X14463477Y-16491774D01*
X14492048Y-16506060D01*
X14506334Y-16520346D01*
X14520620Y-16548917D01*
X14520620Y-16634631D01*
X14506334Y-16663203D01*
X14492048Y-16677489D01*
X14463477Y-16691774D01*
X14406334Y-16691774D01*
X14377763Y-16677489D01*
X14649191Y-16663203D02*
X14663477Y-16677489D01*
X14649191Y-16691774D01*
X14634906Y-16677489D01*
X14649191Y-16663203D01*
X14649191Y-16691774D01*
X14649191Y-16506060D02*
X14663477Y-16520346D01*
X14649191Y-16534631D01*
X14634906Y-16520346D01*
X14649191Y-16506060D01*
X14649191Y-16534631D01*
X12285620Y-17176060D02*
X12305620Y-17196060D01*
X12305620Y-17176060D02*
X12285620Y-17196060D01*
X12649191Y-17021774D02*
X12677763Y-17021774D01*
X12706334Y-17036060D01*
X12720620Y-17050346D01*
X12734906Y-17078917D01*
X12749191Y-17136060D01*
X12749191Y-17207489D01*
X12734906Y-17264632D01*
X12720620Y-17293203D01*
X12706334Y-17307489D01*
X12677763Y-17321774D01*
X12649191Y-17321774D01*
X12620620Y-17307489D01*
X12606334Y-17293203D01*
X12592048Y-17264632D01*
X12577763Y-17207489D01*
X12577763Y-17136060D01*
X12592048Y-17078917D01*
X12606334Y-17050346D01*
X12620620Y-17036060D01*
X12649191Y-17021774D01*
X12877763Y-17293203D02*
X12892048Y-17307489D01*
X12877763Y-17321774D01*
X12863477Y-17307489D01*
X12877763Y-17293203D01*
X12877763Y-17321774D01*
X13006334Y-17050346D02*
X13020620Y-17036060D01*
X13049191Y-17021774D01*
X13120620Y-17021774D01*
X13149191Y-17036060D01*
X13163477Y-17050346D01*
X13177763Y-17078917D01*
X13177763Y-17107489D01*
X13163477Y-17150346D01*
X12992048Y-17321774D01*
X13177763Y-17321774D01*
X13363477Y-17021774D02*
X13392048Y-17021774D01*
X13420620Y-17036060D01*
X13434906Y-17050346D01*
X13449191Y-17078917D01*
X13463477Y-17136060D01*
X13463477Y-17207489D01*
X13449191Y-17264632D01*
X13434906Y-17293203D01*
X13420620Y-17307489D01*
X13392048Y-17321774D01*
X13363477Y-17321774D01*
X13334906Y-17307489D01*
X13320620Y-17293203D01*
X13306334Y-17264632D01*
X13292048Y-17207489D01*
X13292048Y-17136060D01*
X13306334Y-17078917D01*
X13320620Y-17050346D01*
X13334906Y-17036060D01*
X13363477Y-17021774D01*
X13592048Y-17321774D02*
X13592048Y-17121774D01*
X13592048Y-17150346D02*
X13606334Y-17136060D01*
X13634906Y-17121774D01*
X13677763Y-17121774D01*
X13706334Y-17136060D01*
X13720620Y-17164632D01*
X13720620Y-17321774D01*
X13720620Y-17164632D02*
X13734906Y-17136060D01*
X13763477Y-17121774D01*
X13806334Y-17121774D01*
X13834906Y-17136060D01*
X13849191Y-17164632D01*
X13849191Y-17321774D01*
X13992048Y-17321774D02*
X13992048Y-17121774D01*
X13992048Y-17150346D02*
X14006334Y-17136060D01*
X14034906Y-17121774D01*
X14077763Y-17121774D01*
X14106334Y-17136060D01*
X14120620Y-17164632D01*
X14120620Y-17321774D01*
X14120620Y-17164632D02*
X14134906Y-17136060D01*
X14163477Y-17121774D01*
X14206334Y-17121774D01*
X14234906Y-17136060D01*
X14249191Y-17164632D01*
X14249191Y-17321774D01*
X14834906Y-17007489D02*
X14577763Y-17393203D01*
X15220620Y-17021774D02*
X15249191Y-17021774D01*
X15277763Y-17036060D01*
X15292048Y-17050346D01*
X15306334Y-17078917D01*
X15320620Y-17136060D01*
X15320620Y-17207489D01*
X15306334Y-17264632D01*
X15292048Y-17293203D01*
X15277763Y-17307489D01*
X15249191Y-17321774D01*
X15220620Y-17321774D01*
X15192048Y-17307489D01*
X15177763Y-17293203D01*
X15163477Y-17264632D01*
X15149191Y-17207489D01*
X15149191Y-17136060D01*
X15163477Y-17078917D01*
X15177763Y-17050346D01*
X15192048Y-17036060D01*
X15220620Y-17021774D01*
X15449191Y-17293203D02*
X15463477Y-17307489D01*
X15449191Y-17321774D01*
X15434906Y-17307489D01*
X15449191Y-17293203D01*
X15449191Y-17321774D01*
X15649191Y-17021774D02*
X15677763Y-17021774D01*
X15706334Y-17036060D01*
X15720620Y-17050346D01*
X15734906Y-17078917D01*
X15749191Y-17136060D01*
X15749191Y-17207489D01*
X15734906Y-17264632D01*
X15720620Y-17293203D01*
X15706334Y-17307489D01*
X15677763Y-17321774D01*
X15649191Y-17321774D01*
X15620620Y-17307489D01*
X15606334Y-17293203D01*
X15592048Y-17264632D01*
X15577763Y-17207489D01*
X15577763Y-17136060D01*
X15592048Y-17078917D01*
X15606334Y-17050346D01*
X15620620Y-17036060D01*
X15649191Y-17021774D01*
X15934906Y-17021774D02*
X15963477Y-17021774D01*
X15992048Y-17036060D01*
X16006334Y-17050346D01*
X16020620Y-17078917D01*
X16034906Y-17136060D01*
X16034906Y-17207489D01*
X16020620Y-17264632D01*
X16006334Y-17293203D01*
X15992048Y-17307489D01*
X15963477Y-17321774D01*
X15934906Y-17321774D01*
X15906334Y-17307489D01*
X15892048Y-17293203D01*
X15877763Y-17264632D01*
X15863477Y-17207489D01*
X15863477Y-17136060D01*
X15877763Y-17078917D01*
X15892048Y-17050346D01*
X15906334Y-17036060D01*
X15934906Y-17021774D01*
X16206334Y-17150346D02*
X16177763Y-17136060D01*
X16163477Y-17121774D01*
X16149191Y-17093203D01*
X16149191Y-17078917D01*
X16163477Y-17050346D01*
X16177763Y-17036060D01*
X16206334Y-17021774D01*
X16263477Y-17021774D01*
X16292048Y-17036060D01*
X16306334Y-17050346D01*
X16320620Y-17078917D01*
X16320620Y-17093203D01*
X16306334Y-17121774D01*
X16292048Y-17136060D01*
X16263477Y-17150346D01*
X16206334Y-17150346D01*
X16177763Y-17164632D01*
X16163477Y-17178917D01*
X16149191Y-17207489D01*
X16149191Y-17264632D01*
X16163477Y-17293203D01*
X16177763Y-17307489D01*
X16206334Y-17321774D01*
X16263477Y-17321774D01*
X16292048Y-17307489D01*
X16306334Y-17293203D01*
X16320620Y-17264632D01*
X16320620Y-17207489D01*
X16306334Y-17178917D01*
X16292048Y-17164632D01*
X16263477Y-17150346D01*
X16434906Y-17021774D02*
X16434906Y-17078917D01*
X16549191Y-17021774D02*
X16549191Y-17078917D01*
X16992048Y-17436060D02*
X16977763Y-17421774D01*
X16949191Y-17378917D01*
X16934906Y-17350346D01*
X16920620Y-17307489D01*
X16906334Y-17236060D01*
X16906334Y-17178917D01*
X16920620Y-17107489D01*
X16934906Y-17064632D01*
X16949191Y-17036060D01*
X16977763Y-16993203D01*
X16992048Y-16978917D01*
X17263477Y-17321774D02*
X17092048Y-17321774D01*
X17177763Y-17321774D02*
X17177763Y-17021774D01*
X17149191Y-17064632D01*
X17120620Y-17093203D01*
X17092048Y-17107489D01*
X17434906Y-17150346D02*
X17406334Y-17136060D01*
X17392048Y-17121774D01*
X17377763Y-17093203D01*
X17377763Y-17078917D01*
X17392048Y-17050346D01*
X17406334Y-17036060D01*
X17434906Y-17021774D01*
X17492048Y-17021774D01*
X17520620Y-17036060D01*
X17534906Y-17050346D01*
X17549191Y-17078917D01*
X17549191Y-17093203D01*
X17534906Y-17121774D01*
X17520620Y-17136060D01*
X17492048Y-17150346D01*
X17434906Y-17150346D01*
X17406334Y-17164632D01*
X17392048Y-17178917D01*
X17377763Y-17207489D01*
X17377763Y-17264632D01*
X17392048Y-17293203D01*
X17406334Y-17307489D01*
X17434906Y-17321774D01*
X17492048Y-17321774D01*
X17520620Y-17307489D01*
X17534906Y-17293203D01*
X17549191Y-17264632D01*
X17549191Y-17207489D01*
X17534906Y-17178917D01*
X17520620Y-17164632D01*
X17492048Y-17150346D01*
X17906334Y-17321774D02*
X17906334Y-17021774D01*
X18034906Y-17321774D02*
X18034906Y-17164632D01*
X18020620Y-17136060D01*
X17992048Y-17121774D01*
X17949191Y-17121774D01*
X17920620Y-17136060D01*
X17906334Y-17150346D01*
X18220620Y-17321774D02*
X18192048Y-17307489D01*
X18177763Y-17293203D01*
X18163477Y-17264632D01*
X18163477Y-17178917D01*
X18177763Y-17150346D01*
X18192048Y-17136060D01*
X18220620Y-17121774D01*
X18263477Y-17121774D01*
X18292048Y-17136060D01*
X18306334Y-17150346D01*
X18320620Y-17178917D01*
X18320620Y-17264632D01*
X18306334Y-17293203D01*
X18292048Y-17307489D01*
X18263477Y-17321774D01*
X18220620Y-17321774D01*
X18492048Y-17321774D02*
X18463477Y-17307489D01*
X18449191Y-17278917D01*
X18449191Y-17021774D01*
X18720620Y-17307489D02*
X18692048Y-17321774D01*
X18634906Y-17321774D01*
X18606334Y-17307489D01*
X18592048Y-17278917D01*
X18592048Y-17164632D01*
X18606334Y-17136060D01*
X18634906Y-17121774D01*
X18692048Y-17121774D01*
X18720620Y-17136060D01*
X18734906Y-17164632D01*
X18734906Y-17193203D01*
X18592048Y-17221774D01*
X18849191Y-17307489D02*
X18877763Y-17321774D01*
X18934906Y-17321774D01*
X18963477Y-17307489D01*
X18977763Y-17278917D01*
X18977763Y-17264632D01*
X18963477Y-17236060D01*
X18934906Y-17221774D01*
X18892048Y-17221774D01*
X18863477Y-17207489D01*
X18849191Y-17178917D01*
X18849191Y-17164632D01*
X18863477Y-17136060D01*
X18892048Y-17121774D01*
X18934906Y-17121774D01*
X18963477Y-17136060D01*
X19077763Y-17436060D02*
X19092048Y-17421774D01*
X19120620Y-17378917D01*
X19134906Y-17350346D01*
X19149191Y-17307489D01*
X19163477Y-17236060D01*
X19163477Y-17178917D01*
X19149191Y-17107489D01*
X19134906Y-17064632D01*
X19120620Y-17036060D01*
X19092048Y-16993203D01*
X19077763Y-16978917D01*
X12305620Y-17582060D02*
G75*
G03*
X12305620Y-17582060I-10160J0D01*
G01*
X12649191Y-17417774D02*
X12677763Y-17417774D01*
X12706334Y-17432060D01*
X12720620Y-17446346D01*
X12734906Y-17474917D01*
X12749191Y-17532060D01*
X12749191Y-17603489D01*
X12734906Y-17660632D01*
X12720620Y-17689203D01*
X12706334Y-17703489D01*
X12677763Y-17717774D01*
X12649191Y-17717774D01*
X12620620Y-17703489D01*
X12606334Y-17689203D01*
X12592048Y-17660632D01*
X12577763Y-17603489D01*
X12577763Y-17532060D01*
X12592048Y-17474917D01*
X12606334Y-17446346D01*
X12620620Y-17432060D01*
X12649191Y-17417774D01*
X12877763Y-17689203D02*
X12892048Y-17703489D01*
X12877763Y-17717774D01*
X12863477Y-17703489D01*
X12877763Y-17689203D01*
X12877763Y-17717774D01*
X13006334Y-17446346D02*
X13020620Y-17432060D01*
X13049191Y-17417774D01*
X13120620Y-17417774D01*
X13149191Y-17432060D01*
X13163477Y-17446346D01*
X13177763Y-17474917D01*
X13177763Y-17503489D01*
X13163477Y-17546346D01*
X12992048Y-17717774D01*
X13177763Y-17717774D01*
X13363477Y-17417774D02*
X13392048Y-17417774D01*
X13420620Y-17432060D01*
X13434906Y-17446346D01*
X13449191Y-17474917D01*
X13463477Y-17532060D01*
X13463477Y-17603489D01*
X13449191Y-17660632D01*
X13434906Y-17689203D01*
X13420620Y-17703489D01*
X13392048Y-17717774D01*
X13363477Y-17717774D01*
X13334906Y-17703489D01*
X13320620Y-17689203D01*
X13306334Y-17660632D01*
X13292048Y-17603489D01*
X13292048Y-17532060D01*
X13306334Y-17474917D01*
X13320620Y-17446346D01*
X13334906Y-17432060D01*
X13363477Y-17417774D01*
X13592048Y-17717774D02*
X13592048Y-17517774D01*
X13592048Y-17546346D02*
X13606334Y-17532060D01*
X13634906Y-17517774D01*
X13677763Y-17517774D01*
X13706334Y-17532060D01*
X13720620Y-17560632D01*
X13720620Y-17717774D01*
X13720620Y-17560632D02*
X13734906Y-17532060D01*
X13763477Y-17517774D01*
X13806334Y-17517774D01*
X13834906Y-17532060D01*
X13849191Y-17560632D01*
X13849191Y-17717774D01*
X13992048Y-17717774D02*
X13992048Y-17517774D01*
X13992048Y-17546346D02*
X14006334Y-17532060D01*
X14034906Y-17517774D01*
X14077763Y-17517774D01*
X14106334Y-17532060D01*
X14120620Y-17560632D01*
X14120620Y-17717774D01*
X14120620Y-17560632D02*
X14134906Y-17532060D01*
X14163477Y-17517774D01*
X14206334Y-17517774D01*
X14234906Y-17532060D01*
X14249191Y-17560632D01*
X14249191Y-17717774D01*
X14834906Y-17403489D02*
X14577763Y-17789203D01*
X15220620Y-17417774D02*
X15249191Y-17417774D01*
X15277763Y-17432060D01*
X15292048Y-17446346D01*
X15306334Y-17474917D01*
X15320620Y-17532060D01*
X15320620Y-17603489D01*
X15306334Y-17660632D01*
X15292048Y-17689203D01*
X15277763Y-17703489D01*
X15249191Y-17717774D01*
X15220620Y-17717774D01*
X15192048Y-17703489D01*
X15177763Y-17689203D01*
X15163477Y-17660632D01*
X15149191Y-17603489D01*
X15149191Y-17532060D01*
X15163477Y-17474917D01*
X15177763Y-17446346D01*
X15192048Y-17432060D01*
X15220620Y-17417774D01*
X15449191Y-17689203D02*
X15463477Y-17703489D01*
X15449191Y-17717774D01*
X15434906Y-17703489D01*
X15449191Y-17689203D01*
X15449191Y-17717774D01*
X15649191Y-17417774D02*
X15677763Y-17417774D01*
X15706334Y-17432060D01*
X15720620Y-17446346D01*
X15734906Y-17474917D01*
X15749191Y-17532060D01*
X15749191Y-17603489D01*
X15734906Y-17660632D01*
X15720620Y-17689203D01*
X15706334Y-17703489D01*
X15677763Y-17717774D01*
X15649191Y-17717774D01*
X15620620Y-17703489D01*
X15606334Y-17689203D01*
X15592048Y-17660632D01*
X15577763Y-17603489D01*
X15577763Y-17532060D01*
X15592048Y-17474917D01*
X15606334Y-17446346D01*
X15620620Y-17432060D01*
X15649191Y-17417774D01*
X15934906Y-17417774D02*
X15963477Y-17417774D01*
X15992048Y-17432060D01*
X16006334Y-17446346D01*
X16020620Y-17474917D01*
X16034906Y-17532060D01*
X16034906Y-17603489D01*
X16020620Y-17660632D01*
X16006334Y-17689203D01*
X15992048Y-17703489D01*
X15963477Y-17717774D01*
X15934906Y-17717774D01*
X15906334Y-17703489D01*
X15892048Y-17689203D01*
X15877763Y-17660632D01*
X15863477Y-17603489D01*
X15863477Y-17532060D01*
X15877763Y-17474917D01*
X15892048Y-17446346D01*
X15906334Y-17432060D01*
X15934906Y-17417774D01*
X16206334Y-17546346D02*
X16177763Y-17532060D01*
X16163477Y-17517774D01*
X16149191Y-17489203D01*
X16149191Y-17474917D01*
X16163477Y-17446346D01*
X16177763Y-17432060D01*
X16206334Y-17417774D01*
X16263477Y-17417774D01*
X16292048Y-17432060D01*
X16306334Y-17446346D01*
X16320620Y-17474917D01*
X16320620Y-17489203D01*
X16306334Y-17517774D01*
X16292048Y-17532060D01*
X16263477Y-17546346D01*
X16206334Y-17546346D01*
X16177763Y-17560632D01*
X16163477Y-17574917D01*
X16149191Y-17603489D01*
X16149191Y-17660632D01*
X16163477Y-17689203D01*
X16177763Y-17703489D01*
X16206334Y-17717774D01*
X16263477Y-17717774D01*
X16292048Y-17703489D01*
X16306334Y-17689203D01*
X16320620Y-17660632D01*
X16320620Y-17603489D01*
X16306334Y-17574917D01*
X16292048Y-17560632D01*
X16263477Y-17546346D01*
X16434906Y-17417774D02*
X16434906Y-17474917D01*
X16549191Y-17417774D02*
X16549191Y-17474917D01*
X16992048Y-17832060D02*
X16977763Y-17817774D01*
X16949191Y-17774917D01*
X16934906Y-17746346D01*
X16920620Y-17703489D01*
X16906334Y-17632060D01*
X16906334Y-17574917D01*
X16920620Y-17503489D01*
X16934906Y-17460632D01*
X16949191Y-17432060D01*
X16977763Y-17389203D01*
X16992048Y-17374917D01*
X17234906Y-17517774D02*
X17234906Y-17717774D01*
X17163477Y-17403489D02*
X17092048Y-17617774D01*
X17277763Y-17617774D01*
X17449191Y-17417774D02*
X17477763Y-17417774D01*
X17506334Y-17432060D01*
X17520620Y-17446346D01*
X17534906Y-17474917D01*
X17549191Y-17532060D01*
X17549191Y-17603489D01*
X17534906Y-17660632D01*
X17520620Y-17689203D01*
X17506334Y-17703489D01*
X17477763Y-17717774D01*
X17449191Y-17717774D01*
X17420620Y-17703489D01*
X17406334Y-17689203D01*
X17392048Y-17660632D01*
X17377763Y-17603489D01*
X17377763Y-17532060D01*
X17392048Y-17474917D01*
X17406334Y-17446346D01*
X17420620Y-17432060D01*
X17449191Y-17417774D01*
X17834906Y-17717774D02*
X17663477Y-17717774D01*
X17749191Y-17717774D02*
X17749191Y-17417774D01*
X17720620Y-17460632D01*
X17692048Y-17489203D01*
X17663477Y-17503489D01*
X18192048Y-17717774D02*
X18192048Y-17417774D01*
X18320620Y-17717774D02*
X18320620Y-17560632D01*
X18306334Y-17532060D01*
X18277763Y-17517774D01*
X18234906Y-17517774D01*
X18206334Y-17532060D01*
X18192048Y-17546346D01*
X18506334Y-17717774D02*
X18477763Y-17703489D01*
X18463477Y-17689203D01*
X18449191Y-17660632D01*
X18449191Y-17574917D01*
X18463477Y-17546346D01*
X18477763Y-17532060D01*
X18506334Y-17517774D01*
X18549191Y-17517774D01*
X18577763Y-17532060D01*
X18592048Y-17546346D01*
X18606334Y-17574917D01*
X18606334Y-17660632D01*
X18592048Y-17689203D01*
X18577763Y-17703489D01*
X18549191Y-17717774D01*
X18506334Y-17717774D01*
X18777763Y-17717774D02*
X18749191Y-17703489D01*
X18734906Y-17674917D01*
X18734906Y-17417774D01*
X19006334Y-17703489D02*
X18977763Y-17717774D01*
X18920620Y-17717774D01*
X18892048Y-17703489D01*
X18877763Y-17674917D01*
X18877763Y-17560632D01*
X18892048Y-17532060D01*
X18920620Y-17517774D01*
X18977763Y-17517774D01*
X19006334Y-17532060D01*
X19020620Y-17560632D01*
X19020620Y-17589203D01*
X18877763Y-17617774D01*
X19134906Y-17703489D02*
X19163477Y-17717774D01*
X19220620Y-17717774D01*
X19249191Y-17703489D01*
X19263477Y-17674917D01*
X19263477Y-17660632D01*
X19249191Y-17632060D01*
X19220620Y-17617774D01*
X19177763Y-17617774D01*
X19149191Y-17603489D01*
X19134906Y-17574917D01*
X19134906Y-17560632D01*
X19149191Y-17532060D01*
X19177763Y-17517774D01*
X19220620Y-17517774D01*
X19249191Y-17532060D01*
X19363477Y-17832060D02*
X19377763Y-17817774D01*
X19406334Y-17774917D01*
X19420620Y-17746346D01*
X19434906Y-17703489D01*
X19449191Y-17632060D01*
X19449191Y-17574917D01*
X19434906Y-17503489D01*
X19420620Y-17460632D01*
X19406334Y-17432060D01*
X19377763Y-17389203D01*
X19363477Y-17374917D01*
X12290380Y-17962820D02*
X12290380Y-17993300D01*
X12275140Y-17978060D02*
X12305620Y-17978060D01*
X12649191Y-17813774D02*
X12677763Y-17813774D01*
X12706334Y-17828060D01*
X12720620Y-17842346D01*
X12734906Y-17870917D01*
X12749191Y-17928060D01*
X12749191Y-17999489D01*
X12734906Y-18056632D01*
X12720620Y-18085203D01*
X12706334Y-18099489D01*
X12677763Y-18113774D01*
X12649191Y-18113774D01*
X12620620Y-18099489D01*
X12606334Y-18085203D01*
X12592048Y-18056632D01*
X12577763Y-17999489D01*
X12577763Y-17928060D01*
X12592048Y-17870917D01*
X12606334Y-17842346D01*
X12620620Y-17828060D01*
X12649191Y-17813774D01*
X12877763Y-18085203D02*
X12892048Y-18099489D01*
X12877763Y-18113774D01*
X12863477Y-18099489D01*
X12877763Y-18085203D01*
X12877763Y-18113774D01*
X12992048Y-17813774D02*
X13177763Y-17813774D01*
X13077763Y-17928060D01*
X13120620Y-17928060D01*
X13149191Y-17942346D01*
X13163477Y-17956632D01*
X13177763Y-17985203D01*
X13177763Y-18056632D01*
X13163477Y-18085203D01*
X13149191Y-18099489D01*
X13120620Y-18113774D01*
X13034906Y-18113774D01*
X13006334Y-18099489D01*
X12992048Y-18085203D01*
X13363477Y-17813774D02*
X13392048Y-17813774D01*
X13420620Y-17828060D01*
X13434906Y-17842346D01*
X13449191Y-17870917D01*
X13463477Y-17928060D01*
X13463477Y-17999489D01*
X13449191Y-18056632D01*
X13434906Y-18085203D01*
X13420620Y-18099489D01*
X13392048Y-18113774D01*
X13363477Y-18113774D01*
X13334906Y-18099489D01*
X13320620Y-18085203D01*
X13306334Y-18056632D01*
X13292048Y-17999489D01*
X13292048Y-17928060D01*
X13306334Y-17870917D01*
X13320620Y-17842346D01*
X13334906Y-17828060D01*
X13363477Y-17813774D01*
X13592048Y-18113774D02*
X13592048Y-17913774D01*
X13592048Y-17942346D02*
X13606334Y-17928060D01*
X13634906Y-17913774D01*
X13677763Y-17913774D01*
X13706334Y-17928060D01*
X13720620Y-17956632D01*
X13720620Y-18113774D01*
X13720620Y-17956632D02*
X13734906Y-17928060D01*
X13763477Y-17913774D01*
X13806334Y-17913774D01*
X13834906Y-17928060D01*
X13849191Y-17956632D01*
X13849191Y-18113774D01*
X13992048Y-18113774D02*
X13992048Y-17913774D01*
X13992048Y-17942346D02*
X14006334Y-17928060D01*
X14034906Y-17913774D01*
X14077763Y-17913774D01*
X14106334Y-17928060D01*
X14120620Y-17956632D01*
X14120620Y-18113774D01*
X14120620Y-17956632D02*
X14134906Y-17928060D01*
X14163477Y-17913774D01*
X14206334Y-17913774D01*
X14234906Y-17928060D01*
X14249191Y-17956632D01*
X14249191Y-18113774D01*
X14834906Y-17799489D02*
X14577763Y-18185203D01*
X15220620Y-17813774D02*
X15249191Y-17813774D01*
X15277763Y-17828060D01*
X15292048Y-17842346D01*
X15306334Y-17870917D01*
X15320620Y-17928060D01*
X15320620Y-17999489D01*
X15306334Y-18056632D01*
X15292048Y-18085203D01*
X15277763Y-18099489D01*
X15249191Y-18113774D01*
X15220620Y-18113774D01*
X15192048Y-18099489D01*
X15177763Y-18085203D01*
X15163477Y-18056632D01*
X15149191Y-17999489D01*
X15149191Y-17928060D01*
X15163477Y-17870917D01*
X15177763Y-17842346D01*
X15192048Y-17828060D01*
X15220620Y-17813774D01*
X15449191Y-18085203D02*
X15463477Y-18099489D01*
X15449191Y-18113774D01*
X15434906Y-18099489D01*
X15449191Y-18085203D01*
X15449191Y-18113774D01*
X15649191Y-17813774D02*
X15677763Y-17813774D01*
X15706334Y-17828060D01*
X15720620Y-17842346D01*
X15734906Y-17870917D01*
X15749191Y-17928060D01*
X15749191Y-17999489D01*
X15734906Y-18056632D01*
X15720620Y-18085203D01*
X15706334Y-18099489D01*
X15677763Y-18113774D01*
X15649191Y-18113774D01*
X15620620Y-18099489D01*
X15606334Y-18085203D01*
X15592048Y-18056632D01*
X15577763Y-17999489D01*
X15577763Y-17928060D01*
X15592048Y-17870917D01*
X15606334Y-17842346D01*
X15620620Y-17828060D01*
X15649191Y-17813774D01*
X16034906Y-18113774D02*
X15863477Y-18113774D01*
X15949191Y-18113774D02*
X15949191Y-17813774D01*
X15920620Y-17856632D01*
X15892048Y-17885203D01*
X15863477Y-17899489D01*
X16149191Y-17842346D02*
X16163477Y-17828060D01*
X16192048Y-17813774D01*
X16263477Y-17813774D01*
X16292048Y-17828060D01*
X16306334Y-17842346D01*
X16320620Y-17870917D01*
X16320620Y-17899489D01*
X16306334Y-17942346D01*
X16134906Y-18113774D01*
X16320620Y-18113774D01*
X16434906Y-17813774D02*
X16434906Y-17870917D01*
X16549191Y-17813774D02*
X16549191Y-17870917D01*
X16992048Y-18228060D02*
X16977763Y-18213774D01*
X16949191Y-18170917D01*
X16934906Y-18142346D01*
X16920620Y-18099489D01*
X16906334Y-18028060D01*
X16906334Y-17970917D01*
X16920620Y-17899489D01*
X16934906Y-17856632D01*
X16949191Y-17828060D01*
X16977763Y-17785203D01*
X16992048Y-17770917D01*
X17077763Y-17813774D02*
X17263477Y-17813774D01*
X17163477Y-17928060D01*
X17206334Y-17928060D01*
X17234906Y-17942346D01*
X17249191Y-17956632D01*
X17263477Y-17985203D01*
X17263477Y-18056632D01*
X17249191Y-18085203D01*
X17234906Y-18099489D01*
X17206334Y-18113774D01*
X17120620Y-18113774D01*
X17092048Y-18099489D01*
X17077763Y-18085203D01*
X17520620Y-17913774D02*
X17520620Y-18113774D01*
X17449191Y-17799489D02*
X17377763Y-18013774D01*
X17563477Y-18013774D01*
X17906334Y-18113774D02*
X17906334Y-17813774D01*
X18034906Y-18113774D02*
X18034906Y-17956632D01*
X18020620Y-17928060D01*
X17992048Y-17913774D01*
X17949191Y-17913774D01*
X17920620Y-17928060D01*
X17906334Y-17942346D01*
X18220620Y-18113774D02*
X18192048Y-18099489D01*
X18177763Y-18085203D01*
X18163477Y-18056632D01*
X18163477Y-17970917D01*
X18177763Y-17942346D01*
X18192048Y-17928060D01*
X18220620Y-17913774D01*
X18263477Y-17913774D01*
X18292048Y-17928060D01*
X18306334Y-17942346D01*
X18320620Y-17970917D01*
X18320620Y-18056632D01*
X18306334Y-18085203D01*
X18292048Y-18099489D01*
X18263477Y-18113774D01*
X18220620Y-18113774D01*
X18492048Y-18113774D02*
X18463477Y-18099489D01*
X18449191Y-18070917D01*
X18449191Y-17813774D01*
X18720620Y-18099489D02*
X18692048Y-18113774D01*
X18634906Y-18113774D01*
X18606334Y-18099489D01*
X18592048Y-18070917D01*
X18592048Y-17956632D01*
X18606334Y-17928060D01*
X18634906Y-17913774D01*
X18692048Y-17913774D01*
X18720620Y-17928060D01*
X18734906Y-17956632D01*
X18734906Y-17985203D01*
X18592048Y-18013774D01*
X18849191Y-18099489D02*
X18877763Y-18113774D01*
X18934906Y-18113774D01*
X18963477Y-18099489D01*
X18977763Y-18070917D01*
X18977763Y-18056632D01*
X18963477Y-18028060D01*
X18934906Y-18013774D01*
X18892048Y-18013774D01*
X18863477Y-17999489D01*
X18849191Y-17970917D01*
X18849191Y-17956632D01*
X18863477Y-17928060D01*
X18892048Y-17913774D01*
X18934906Y-17913774D01*
X18963477Y-17928060D01*
X19077763Y-18228060D02*
X19092048Y-18213774D01*
X19120620Y-18170917D01*
X19134906Y-18142346D01*
X19149191Y-18099489D01*
X19163477Y-18028060D01*
X19163477Y-17970917D01*
X19149191Y-17899489D01*
X19134906Y-17856632D01*
X19120620Y-17828060D01*
X19092048Y-17785203D01*
X19077763Y-17770917D01*
X12299762Y-18388202D02*
X12299762Y-18359918D01*
X12271478Y-18359918D01*
X12271478Y-18388202D01*
X12299762Y-18388202D01*
X12649191Y-18209774D02*
X12677763Y-18209774D01*
X12706334Y-18224060D01*
X12720620Y-18238346D01*
X12734906Y-18266917D01*
X12749191Y-18324060D01*
X12749191Y-18395489D01*
X12734906Y-18452632D01*
X12720620Y-18481203D01*
X12706334Y-18495489D01*
X12677763Y-18509774D01*
X12649191Y-18509774D01*
X12620620Y-18495489D01*
X12606334Y-18481203D01*
X12592048Y-18452632D01*
X12577763Y-18395489D01*
X12577763Y-18324060D01*
X12592048Y-18266917D01*
X12606334Y-18238346D01*
X12620620Y-18224060D01*
X12649191Y-18209774D01*
X12877763Y-18481203D02*
X12892048Y-18495489D01*
X12877763Y-18509774D01*
X12863477Y-18495489D01*
X12877763Y-18481203D01*
X12877763Y-18509774D01*
X13149191Y-18309774D02*
X13149191Y-18509774D01*
X13077763Y-18195489D02*
X13006334Y-18409774D01*
X13192048Y-18409774D01*
X13363477Y-18209774D02*
X13392048Y-18209774D01*
X13420620Y-18224060D01*
X13434906Y-18238346D01*
X13449191Y-18266917D01*
X13463477Y-18324060D01*
X13463477Y-18395489D01*
X13449191Y-18452632D01*
X13434906Y-18481203D01*
X13420620Y-18495489D01*
X13392048Y-18509774D01*
X13363477Y-18509774D01*
X13334906Y-18495489D01*
X13320620Y-18481203D01*
X13306334Y-18452632D01*
X13292048Y-18395489D01*
X13292048Y-18324060D01*
X13306334Y-18266917D01*
X13320620Y-18238346D01*
X13334906Y-18224060D01*
X13363477Y-18209774D01*
X13592048Y-18509774D02*
X13592048Y-18309774D01*
X13592048Y-18338346D02*
X13606334Y-18324060D01*
X13634906Y-18309774D01*
X13677763Y-18309774D01*
X13706334Y-18324060D01*
X13720620Y-18352632D01*
X13720620Y-18509774D01*
X13720620Y-18352632D02*
X13734906Y-18324060D01*
X13763477Y-18309774D01*
X13806334Y-18309774D01*
X13834906Y-18324060D01*
X13849191Y-18352632D01*
X13849191Y-18509774D01*
X13992048Y-18509774D02*
X13992048Y-18309774D01*
X13992048Y-18338346D02*
X14006334Y-18324060D01*
X14034906Y-18309774D01*
X14077763Y-18309774D01*
X14106334Y-18324060D01*
X14120620Y-18352632D01*
X14120620Y-18509774D01*
X14120620Y-18352632D02*
X14134906Y-18324060D01*
X14163477Y-18309774D01*
X14206334Y-18309774D01*
X14234906Y-18324060D01*
X14249191Y-18352632D01*
X14249191Y-18509774D01*
X14834906Y-18195489D02*
X14577763Y-18581203D01*
X15220620Y-18209774D02*
X15249191Y-18209774D01*
X15277763Y-18224060D01*
X15292048Y-18238346D01*
X15306334Y-18266917D01*
X15320620Y-18324060D01*
X15320620Y-18395489D01*
X15306334Y-18452632D01*
X15292048Y-18481203D01*
X15277763Y-18495489D01*
X15249191Y-18509774D01*
X15220620Y-18509774D01*
X15192048Y-18495489D01*
X15177763Y-18481203D01*
X15163477Y-18452632D01*
X15149191Y-18395489D01*
X15149191Y-18324060D01*
X15163477Y-18266917D01*
X15177763Y-18238346D01*
X15192048Y-18224060D01*
X15220620Y-18209774D01*
X15449191Y-18481203D02*
X15463477Y-18495489D01*
X15449191Y-18509774D01*
X15434906Y-18495489D01*
X15449191Y-18481203D01*
X15449191Y-18509774D01*
X15649191Y-18209774D02*
X15677763Y-18209774D01*
X15706334Y-18224060D01*
X15720620Y-18238346D01*
X15734906Y-18266917D01*
X15749191Y-18324060D01*
X15749191Y-18395489D01*
X15734906Y-18452632D01*
X15720620Y-18481203D01*
X15706334Y-18495489D01*
X15677763Y-18509774D01*
X15649191Y-18509774D01*
X15620620Y-18495489D01*
X15606334Y-18481203D01*
X15592048Y-18452632D01*
X15577763Y-18395489D01*
X15577763Y-18324060D01*
X15592048Y-18266917D01*
X15606334Y-18238346D01*
X15620620Y-18224060D01*
X15649191Y-18209774D01*
X16034906Y-18509774D02*
X15863477Y-18509774D01*
X15949191Y-18509774D02*
X15949191Y-18209774D01*
X15920620Y-18252632D01*
X15892048Y-18281203D01*
X15863477Y-18295489D01*
X16292048Y-18209774D02*
X16234906Y-18209774D01*
X16206334Y-18224060D01*
X16192048Y-18238346D01*
X16163477Y-18281203D01*
X16149191Y-18338346D01*
X16149191Y-18452632D01*
X16163477Y-18481203D01*
X16177763Y-18495489D01*
X16206334Y-18509774D01*
X16263477Y-18509774D01*
X16292048Y-18495489D01*
X16306334Y-18481203D01*
X16320620Y-18452632D01*
X16320620Y-18381203D01*
X16306334Y-18352632D01*
X16292048Y-18338346D01*
X16263477Y-18324060D01*
X16206334Y-18324060D01*
X16177763Y-18338346D01*
X16163477Y-18352632D01*
X16149191Y-18381203D01*
X16434906Y-18209774D02*
X16434906Y-18266917D01*
X16549191Y-18209774D02*
X16549191Y-18266917D01*
X16992048Y-18624060D02*
X16977763Y-18609774D01*
X16949191Y-18566917D01*
X16934906Y-18538346D01*
X16920620Y-18495489D01*
X16906334Y-18424060D01*
X16906334Y-18366917D01*
X16920620Y-18295489D01*
X16934906Y-18252632D01*
X16949191Y-18224060D01*
X16977763Y-18181203D01*
X16992048Y-18166917D01*
X17077763Y-18209774D02*
X17277763Y-18209774D01*
X17149191Y-18509774D01*
X17620620Y-18509774D02*
X17620620Y-18209774D01*
X17749191Y-18509774D02*
X17749191Y-18352632D01*
X17734906Y-18324060D01*
X17706334Y-18309774D01*
X17663477Y-18309774D01*
X17634906Y-18324060D01*
X17620620Y-18338346D01*
X17934906Y-18509774D02*
X17906334Y-18495489D01*
X17892048Y-18481203D01*
X17877763Y-18452632D01*
X17877763Y-18366917D01*
X17892048Y-18338346D01*
X17906334Y-18324060D01*
X17934906Y-18309774D01*
X17977763Y-18309774D01*
X18006334Y-18324060D01*
X18020620Y-18338346D01*
X18034906Y-18366917D01*
X18034906Y-18452632D01*
X18020620Y-18481203D01*
X18006334Y-18495489D01*
X17977763Y-18509774D01*
X17934906Y-18509774D01*
X18206334Y-18509774D02*
X18177763Y-18495489D01*
X18163477Y-18466917D01*
X18163477Y-18209774D01*
X18434906Y-18495489D02*
X18406334Y-18509774D01*
X18349191Y-18509774D01*
X18320620Y-18495489D01*
X18306334Y-18466917D01*
X18306334Y-18352632D01*
X18320620Y-18324060D01*
X18349191Y-18309774D01*
X18406334Y-18309774D01*
X18434906Y-18324060D01*
X18449191Y-18352632D01*
X18449191Y-18381203D01*
X18306334Y-18409774D01*
X18563477Y-18495489D02*
X18592048Y-18509774D01*
X18649191Y-18509774D01*
X18677763Y-18495489D01*
X18692048Y-18466917D01*
X18692048Y-18452632D01*
X18677763Y-18424060D01*
X18649191Y-18409774D01*
X18606334Y-18409774D01*
X18577763Y-18395489D01*
X18563477Y-18366917D01*
X18563477Y-18352632D01*
X18577763Y-18324060D01*
X18606334Y-18309774D01*
X18649191Y-18309774D01*
X18677763Y-18324060D01*
X18792048Y-18624060D02*
X18806334Y-18609774D01*
X18834906Y-18566917D01*
X18849191Y-18538346D01*
X18863477Y-18495489D01*
X18877763Y-18424060D01*
X18877763Y-18366917D01*
X18863477Y-18295489D01*
X18849191Y-18252632D01*
X18834906Y-18224060D01*
X18806334Y-18181203D01*
X18792048Y-18166917D01*
X12285540Y-18790140D02*
X12305620Y-18770060D01*
X12285540Y-18749980D01*
X12265460Y-18770060D01*
X12285540Y-18790140D01*
X12649191Y-18605774D02*
X12677763Y-18605774D01*
X12706334Y-18620060D01*
X12720620Y-18634346D01*
X12734906Y-18662917D01*
X12749191Y-18720060D01*
X12749191Y-18791489D01*
X12734906Y-18848632D01*
X12720620Y-18877203D01*
X12706334Y-18891489D01*
X12677763Y-18905774D01*
X12649191Y-18905774D01*
X12620620Y-18891489D01*
X12606334Y-18877203D01*
X12592048Y-18848632D01*
X12577763Y-18791489D01*
X12577763Y-18720060D01*
X12592048Y-18662917D01*
X12606334Y-18634346D01*
X12620620Y-18620060D01*
X12649191Y-18605774D01*
X12877763Y-18877203D02*
X12892048Y-18891489D01*
X12877763Y-18905774D01*
X12863477Y-18891489D01*
X12877763Y-18877203D01*
X12877763Y-18905774D01*
X13149191Y-18705774D02*
X13149191Y-18905774D01*
X13077763Y-18591489D02*
X13006334Y-18805774D01*
X13192048Y-18805774D01*
X13363477Y-18605774D02*
X13392048Y-18605774D01*
X13420620Y-18620060D01*
X13434906Y-18634346D01*
X13449191Y-18662917D01*
X13463477Y-18720060D01*
X13463477Y-18791489D01*
X13449191Y-18848632D01*
X13434906Y-18877203D01*
X13420620Y-18891489D01*
X13392048Y-18905774D01*
X13363477Y-18905774D01*
X13334906Y-18891489D01*
X13320620Y-18877203D01*
X13306334Y-18848632D01*
X13292048Y-18791489D01*
X13292048Y-18720060D01*
X13306334Y-18662917D01*
X13320620Y-18634346D01*
X13334906Y-18620060D01*
X13363477Y-18605774D01*
X13592048Y-18905774D02*
X13592048Y-18705774D01*
X13592048Y-18734346D02*
X13606334Y-18720060D01*
X13634906Y-18705774D01*
X13677763Y-18705774D01*
X13706334Y-18720060D01*
X13720620Y-18748632D01*
X13720620Y-18905774D01*
X13720620Y-18748632D02*
X13734906Y-18720060D01*
X13763477Y-18705774D01*
X13806334Y-18705774D01*
X13834906Y-18720060D01*
X13849191Y-18748632D01*
X13849191Y-18905774D01*
X13992048Y-18905774D02*
X13992048Y-18705774D01*
X13992048Y-18734346D02*
X14006334Y-18720060D01*
X14034906Y-18705774D01*
X14077763Y-18705774D01*
X14106334Y-18720060D01*
X14120620Y-18748632D01*
X14120620Y-18905774D01*
X14120620Y-18748632D02*
X14134906Y-18720060D01*
X14163477Y-18705774D01*
X14206334Y-18705774D01*
X14234906Y-18720060D01*
X14249191Y-18748632D01*
X14249191Y-18905774D01*
X14834906Y-18591489D02*
X14577763Y-18977203D01*
X15220620Y-18605774D02*
X15249191Y-18605774D01*
X15277763Y-18620060D01*
X15292048Y-18634346D01*
X15306334Y-18662917D01*
X15320620Y-18720060D01*
X15320620Y-18791489D01*
X15306334Y-18848632D01*
X15292048Y-18877203D01*
X15277763Y-18891489D01*
X15249191Y-18905774D01*
X15220620Y-18905774D01*
X15192048Y-18891489D01*
X15177763Y-18877203D01*
X15163477Y-18848632D01*
X15149191Y-18791489D01*
X15149191Y-18720060D01*
X15163477Y-18662917D01*
X15177763Y-18634346D01*
X15192048Y-18620060D01*
X15220620Y-18605774D01*
X15449191Y-18877203D02*
X15463477Y-18891489D01*
X15449191Y-18905774D01*
X15434906Y-18891489D01*
X15449191Y-18877203D01*
X15449191Y-18905774D01*
X15649191Y-18605774D02*
X15677763Y-18605774D01*
X15706334Y-18620060D01*
X15720620Y-18634346D01*
X15734906Y-18662917D01*
X15749191Y-18720060D01*
X15749191Y-18791489D01*
X15734906Y-18848632D01*
X15720620Y-18877203D01*
X15706334Y-18891489D01*
X15677763Y-18905774D01*
X15649191Y-18905774D01*
X15620620Y-18891489D01*
X15606334Y-18877203D01*
X15592048Y-18848632D01*
X15577763Y-18791489D01*
X15577763Y-18720060D01*
X15592048Y-18662917D01*
X15606334Y-18634346D01*
X15620620Y-18620060D01*
X15649191Y-18605774D01*
X16034906Y-18905774D02*
X15863477Y-18905774D01*
X15949191Y-18905774D02*
X15949191Y-18605774D01*
X15920620Y-18648632D01*
X15892048Y-18677203D01*
X15863477Y-18691489D01*
X16292048Y-18605774D02*
X16234906Y-18605774D01*
X16206334Y-18620060D01*
X16192048Y-18634346D01*
X16163477Y-18677203D01*
X16149191Y-18734346D01*
X16149191Y-18848632D01*
X16163477Y-18877203D01*
X16177763Y-18891489D01*
X16206334Y-18905774D01*
X16263477Y-18905774D01*
X16292048Y-18891489D01*
X16306334Y-18877203D01*
X16320620Y-18848632D01*
X16320620Y-18777203D01*
X16306334Y-18748632D01*
X16292048Y-18734346D01*
X16263477Y-18720060D01*
X16206334Y-18720060D01*
X16177763Y-18734346D01*
X16163477Y-18748632D01*
X16149191Y-18777203D01*
X16434906Y-18605774D02*
X16434906Y-18662917D01*
X16549191Y-18605774D02*
X16549191Y-18662917D01*
X16992048Y-19020060D02*
X16977763Y-19005774D01*
X16949191Y-18962917D01*
X16934906Y-18934346D01*
X16920620Y-18891489D01*
X16906334Y-18820060D01*
X16906334Y-18762917D01*
X16920620Y-18691489D01*
X16934906Y-18648632D01*
X16949191Y-18620060D01*
X16977763Y-18577203D01*
X16992048Y-18562917D01*
X17092048Y-18634346D02*
X17106334Y-18620060D01*
X17134906Y-18605774D01*
X17206334Y-18605774D01*
X17234906Y-18620060D01*
X17249191Y-18634346D01*
X17263477Y-18662917D01*
X17263477Y-18691489D01*
X17249191Y-18734346D01*
X17077763Y-18905774D01*
X17263477Y-18905774D01*
X17620620Y-18905774D02*
X17620620Y-18605774D01*
X17749191Y-18905774D02*
X17749191Y-18748632D01*
X17734906Y-18720060D01*
X17706334Y-18705774D01*
X17663477Y-18705774D01*
X17634906Y-18720060D01*
X17620620Y-18734346D01*
X17934906Y-18905774D02*
X17906334Y-18891489D01*
X17892048Y-18877203D01*
X17877763Y-18848632D01*
X17877763Y-18762917D01*
X17892048Y-18734346D01*
X17906334Y-18720060D01*
X17934906Y-18705774D01*
X17977763Y-18705774D01*
X18006334Y-18720060D01*
X18020620Y-18734346D01*
X18034906Y-18762917D01*
X18034906Y-18848632D01*
X18020620Y-18877203D01*
X18006334Y-18891489D01*
X17977763Y-18905774D01*
X17934906Y-18905774D01*
X18206334Y-18905774D02*
X18177763Y-18891489D01*
X18163477Y-18862917D01*
X18163477Y-18605774D01*
X18434906Y-18891489D02*
X18406334Y-18905774D01*
X18349191Y-18905774D01*
X18320620Y-18891489D01*
X18306334Y-18862917D01*
X18306334Y-18748632D01*
X18320620Y-18720060D01*
X18349191Y-18705774D01*
X18406334Y-18705774D01*
X18434906Y-18720060D01*
X18449191Y-18748632D01*
X18449191Y-18777203D01*
X18306334Y-18805774D01*
X18563477Y-18891489D02*
X18592048Y-18905774D01*
X18649191Y-18905774D01*
X18677763Y-18891489D01*
X18692048Y-18862917D01*
X18692048Y-18848632D01*
X18677763Y-18820060D01*
X18649191Y-18805774D01*
X18606334Y-18805774D01*
X18577763Y-18791489D01*
X18563477Y-18762917D01*
X18563477Y-18748632D01*
X18577763Y-18720060D01*
X18606334Y-18705774D01*
X18649191Y-18705774D01*
X18677763Y-18720060D01*
X18792048Y-19020060D02*
X18806334Y-19005774D01*
X18834906Y-18962917D01*
X18849191Y-18934346D01*
X18863477Y-18891489D01*
X18877763Y-18820060D01*
X18877763Y-18762917D01*
X18863477Y-18691489D01*
X18849191Y-18648632D01*
X18834906Y-18620060D01*
X18806334Y-18577203D01*
X18792048Y-18562917D01*
X12264980Y-19145740D02*
X12305620Y-19186380D01*
X12305620Y-19145740D02*
X12264980Y-19186380D01*
X12305620Y-19166060D02*
G75*
G03*
X12305620Y-19166060I-20320J0D01*
G01*
X12649191Y-19001774D02*
X12677763Y-19001774D01*
X12706334Y-19016060D01*
X12720620Y-19030346D01*
X12734906Y-19058917D01*
X12749191Y-19116060D01*
X12749191Y-19187489D01*
X12734906Y-19244632D01*
X12720620Y-19273203D01*
X12706334Y-19287489D01*
X12677763Y-19301774D01*
X12649191Y-19301774D01*
X12620620Y-19287489D01*
X12606334Y-19273203D01*
X12592048Y-19244632D01*
X12577763Y-19187489D01*
X12577763Y-19116060D01*
X12592048Y-19058917D01*
X12606334Y-19030346D01*
X12620620Y-19016060D01*
X12649191Y-19001774D01*
X12877763Y-19273203D02*
X12892048Y-19287489D01*
X12877763Y-19301774D01*
X12863477Y-19287489D01*
X12877763Y-19273203D01*
X12877763Y-19301774D01*
X13149191Y-19101774D02*
X13149191Y-19301774D01*
X13077763Y-18987489D02*
X13006334Y-19201774D01*
X13192048Y-19201774D01*
X13463477Y-19301774D02*
X13292048Y-19301774D01*
X13377763Y-19301774D02*
X13377763Y-19001774D01*
X13349191Y-19044632D01*
X13320620Y-19073203D01*
X13292048Y-19087489D01*
X13592048Y-19301774D02*
X13592048Y-19101774D01*
X13592048Y-19130346D02*
X13606334Y-19116060D01*
X13634906Y-19101774D01*
X13677763Y-19101774D01*
X13706334Y-19116060D01*
X13720620Y-19144632D01*
X13720620Y-19301774D01*
X13720620Y-19144632D02*
X13734906Y-19116060D01*
X13763477Y-19101774D01*
X13806334Y-19101774D01*
X13834906Y-19116060D01*
X13849191Y-19144632D01*
X13849191Y-19301774D01*
X13992048Y-19301774D02*
X13992048Y-19101774D01*
X13992048Y-19130346D02*
X14006334Y-19116060D01*
X14034906Y-19101774D01*
X14077763Y-19101774D01*
X14106334Y-19116060D01*
X14120620Y-19144632D01*
X14120620Y-19301774D01*
X14120620Y-19144632D02*
X14134906Y-19116060D01*
X14163477Y-19101774D01*
X14206334Y-19101774D01*
X14234906Y-19116060D01*
X14249191Y-19144632D01*
X14249191Y-19301774D01*
X14834906Y-18987489D02*
X14577763Y-19373203D01*
X15220620Y-19001774D02*
X15249191Y-19001774D01*
X15277763Y-19016060D01*
X15292048Y-19030346D01*
X15306334Y-19058917D01*
X15320620Y-19116060D01*
X15320620Y-19187489D01*
X15306334Y-19244632D01*
X15292048Y-19273203D01*
X15277763Y-19287489D01*
X15249191Y-19301774D01*
X15220620Y-19301774D01*
X15192048Y-19287489D01*
X15177763Y-19273203D01*
X15163477Y-19244632D01*
X15149191Y-19187489D01*
X15149191Y-19116060D01*
X15163477Y-19058917D01*
X15177763Y-19030346D01*
X15192048Y-19016060D01*
X15220620Y-19001774D01*
X15449191Y-19273203D02*
X15463477Y-19287489D01*
X15449191Y-19301774D01*
X15434906Y-19287489D01*
X15449191Y-19273203D01*
X15449191Y-19301774D01*
X15649191Y-19001774D02*
X15677763Y-19001774D01*
X15706334Y-19016060D01*
X15720620Y-19030346D01*
X15734906Y-19058917D01*
X15749191Y-19116060D01*
X15749191Y-19187489D01*
X15734906Y-19244632D01*
X15720620Y-19273203D01*
X15706334Y-19287489D01*
X15677763Y-19301774D01*
X15649191Y-19301774D01*
X15620620Y-19287489D01*
X15606334Y-19273203D01*
X15592048Y-19244632D01*
X15577763Y-19187489D01*
X15577763Y-19116060D01*
X15592048Y-19058917D01*
X15606334Y-19030346D01*
X15620620Y-19016060D01*
X15649191Y-19001774D01*
X16034906Y-19301774D02*
X15863477Y-19301774D01*
X15949191Y-19301774D02*
X15949191Y-19001774D01*
X15920620Y-19044632D01*
X15892048Y-19073203D01*
X15863477Y-19087489D01*
X16292048Y-19001774D02*
X16234906Y-19001774D01*
X16206334Y-19016060D01*
X16192048Y-19030346D01*
X16163477Y-19073203D01*
X16149191Y-19130346D01*
X16149191Y-19244632D01*
X16163477Y-19273203D01*
X16177763Y-19287489D01*
X16206334Y-19301774D01*
X16263477Y-19301774D01*
X16292048Y-19287489D01*
X16306334Y-19273203D01*
X16320620Y-19244632D01*
X16320620Y-19173203D01*
X16306334Y-19144632D01*
X16292048Y-19130346D01*
X16263477Y-19116060D01*
X16206334Y-19116060D01*
X16177763Y-19130346D01*
X16163477Y-19144632D01*
X16149191Y-19173203D01*
X16434906Y-19001774D02*
X16434906Y-19058917D01*
X16549191Y-19001774D02*
X16549191Y-19058917D01*
X16992048Y-19416060D02*
X16977763Y-19401774D01*
X16949191Y-19358917D01*
X16934906Y-19330346D01*
X16920620Y-19287489D01*
X16906334Y-19216060D01*
X16906334Y-19158917D01*
X16920620Y-19087489D01*
X16934906Y-19044632D01*
X16949191Y-19016060D01*
X16977763Y-18973203D01*
X16992048Y-18958917D01*
X17092048Y-19030346D02*
X17106334Y-19016060D01*
X17134906Y-19001774D01*
X17206334Y-19001774D01*
X17234906Y-19016060D01*
X17249191Y-19030346D01*
X17263477Y-19058917D01*
X17263477Y-19087489D01*
X17249191Y-19130346D01*
X17077763Y-19301774D01*
X17263477Y-19301774D01*
X17449191Y-19001774D02*
X17477763Y-19001774D01*
X17506334Y-19016060D01*
X17520620Y-19030346D01*
X17534906Y-19058917D01*
X17549191Y-19116060D01*
X17549191Y-19187489D01*
X17534906Y-19244632D01*
X17520620Y-19273203D01*
X17506334Y-19287489D01*
X17477763Y-19301774D01*
X17449191Y-19301774D01*
X17420620Y-19287489D01*
X17406334Y-19273203D01*
X17392048Y-19244632D01*
X17377763Y-19187489D01*
X17377763Y-19116060D01*
X17392048Y-19058917D01*
X17406334Y-19030346D01*
X17420620Y-19016060D01*
X17449191Y-19001774D01*
X17906334Y-19301774D02*
X17906334Y-19001774D01*
X18034906Y-19301774D02*
X18034906Y-19144632D01*
X18020620Y-19116060D01*
X17992048Y-19101774D01*
X17949191Y-19101774D01*
X17920620Y-19116060D01*
X17906334Y-19130346D01*
X18220620Y-19301774D02*
X18192048Y-19287489D01*
X18177763Y-19273203D01*
X18163477Y-19244632D01*
X18163477Y-19158917D01*
X18177763Y-19130346D01*
X18192048Y-19116060D01*
X18220620Y-19101774D01*
X18263477Y-19101774D01*
X18292048Y-19116060D01*
X18306334Y-19130346D01*
X18320620Y-19158917D01*
X18320620Y-19244632D01*
X18306334Y-19273203D01*
X18292048Y-19287489D01*
X18263477Y-19301774D01*
X18220620Y-19301774D01*
X18492048Y-19301774D02*
X18463477Y-19287489D01*
X18449191Y-19258917D01*
X18449191Y-19001774D01*
X18720620Y-19287489D02*
X18692048Y-19301774D01*
X18634906Y-19301774D01*
X18606334Y-19287489D01*
X18592048Y-19258917D01*
X18592048Y-19144632D01*
X18606334Y-19116060D01*
X18634906Y-19101774D01*
X18692048Y-19101774D01*
X18720620Y-19116060D01*
X18734906Y-19144632D01*
X18734906Y-19173203D01*
X18592048Y-19201774D01*
X18849191Y-19287489D02*
X18877763Y-19301774D01*
X18934906Y-19301774D01*
X18963477Y-19287489D01*
X18977763Y-19258917D01*
X18977763Y-19244632D01*
X18963477Y-19216060D01*
X18934906Y-19201774D01*
X18892048Y-19201774D01*
X18863477Y-19187489D01*
X18849191Y-19158917D01*
X18849191Y-19144632D01*
X18863477Y-19116060D01*
X18892048Y-19101774D01*
X18934906Y-19101774D01*
X18963477Y-19116060D01*
X19077763Y-19416060D02*
X19092048Y-19401774D01*
X19120620Y-19358917D01*
X19134906Y-19330346D01*
X19149191Y-19287489D01*
X19163477Y-19216060D01*
X19163477Y-19158917D01*
X19149191Y-19087489D01*
X19134906Y-19044632D01*
X19120620Y-19016060D01*
X19092048Y-18973203D01*
X19077763Y-18958917D01*
X12240620Y-19529560D02*
X12305620Y-19594560D01*
X12305620Y-19529560D02*
X12240620Y-19594560D01*
X12273120Y-19529560D02*
X12273120Y-19594560D01*
X12240620Y-19562060D02*
X12305620Y-19562060D01*
X12649191Y-19397774D02*
X12677763Y-19397774D01*
X12706334Y-19412060D01*
X12720620Y-19426346D01*
X12734906Y-19454917D01*
X12749191Y-19512060D01*
X12749191Y-19583489D01*
X12734906Y-19640632D01*
X12720620Y-19669203D01*
X12706334Y-19683489D01*
X12677763Y-19697774D01*
X12649191Y-19697774D01*
X12620620Y-19683489D01*
X12606334Y-19669203D01*
X12592048Y-19640632D01*
X12577763Y-19583489D01*
X12577763Y-19512060D01*
X12592048Y-19454917D01*
X12606334Y-19426346D01*
X12620620Y-19412060D01*
X12649191Y-19397774D01*
X12877763Y-19669203D02*
X12892048Y-19683489D01*
X12877763Y-19697774D01*
X12863477Y-19683489D01*
X12877763Y-19669203D01*
X12877763Y-19697774D01*
X13149191Y-19397774D02*
X13092048Y-19397774D01*
X13063477Y-19412060D01*
X13049191Y-19426346D01*
X13020620Y-19469203D01*
X13006334Y-19526346D01*
X13006334Y-19640632D01*
X13020620Y-19669203D01*
X13034906Y-19683489D01*
X13063477Y-19697774D01*
X13120620Y-19697774D01*
X13149191Y-19683489D01*
X13163477Y-19669203D01*
X13177763Y-19640632D01*
X13177763Y-19569203D01*
X13163477Y-19540632D01*
X13149191Y-19526346D01*
X13120620Y-19512060D01*
X13063477Y-19512060D01*
X13034906Y-19526346D01*
X13020620Y-19540632D01*
X13006334Y-19569203D01*
X13449191Y-19397774D02*
X13306334Y-19397774D01*
X13292048Y-19540632D01*
X13306334Y-19526346D01*
X13334906Y-19512060D01*
X13406334Y-19512060D01*
X13434906Y-19526346D01*
X13449191Y-19540632D01*
X13463477Y-19569203D01*
X13463477Y-19640632D01*
X13449191Y-19669203D01*
X13434906Y-19683489D01*
X13406334Y-19697774D01*
X13334906Y-19697774D01*
X13306334Y-19683489D01*
X13292048Y-19669203D01*
X13592048Y-19697774D02*
X13592048Y-19497774D01*
X13592048Y-19526346D02*
X13606334Y-19512060D01*
X13634906Y-19497774D01*
X13677763Y-19497774D01*
X13706334Y-19512060D01*
X13720620Y-19540632D01*
X13720620Y-19697774D01*
X13720620Y-19540632D02*
X13734906Y-19512060D01*
X13763477Y-19497774D01*
X13806334Y-19497774D01*
X13834906Y-19512060D01*
X13849191Y-19540632D01*
X13849191Y-19697774D01*
X13992048Y-19697774D02*
X13992048Y-19497774D01*
X13992048Y-19526346D02*
X14006334Y-19512060D01*
X14034906Y-19497774D01*
X14077763Y-19497774D01*
X14106334Y-19512060D01*
X14120620Y-19540632D01*
X14120620Y-19697774D01*
X14120620Y-19540632D02*
X14134906Y-19512060D01*
X14163477Y-19497774D01*
X14206334Y-19497774D01*
X14234906Y-19512060D01*
X14249191Y-19540632D01*
X14249191Y-19697774D01*
X14834906Y-19383489D02*
X14577763Y-19769203D01*
X15220620Y-19397774D02*
X15249191Y-19397774D01*
X15277763Y-19412060D01*
X15292048Y-19426346D01*
X15306334Y-19454917D01*
X15320620Y-19512060D01*
X15320620Y-19583489D01*
X15306334Y-19640632D01*
X15292048Y-19669203D01*
X15277763Y-19683489D01*
X15249191Y-19697774D01*
X15220620Y-19697774D01*
X15192048Y-19683489D01*
X15177763Y-19669203D01*
X15163477Y-19640632D01*
X15149191Y-19583489D01*
X15149191Y-19512060D01*
X15163477Y-19454917D01*
X15177763Y-19426346D01*
X15192048Y-19412060D01*
X15220620Y-19397774D01*
X15449191Y-19669203D02*
X15463477Y-19683489D01*
X15449191Y-19697774D01*
X15434906Y-19683489D01*
X15449191Y-19669203D01*
X15449191Y-19697774D01*
X15649191Y-19397774D02*
X15677763Y-19397774D01*
X15706334Y-19412060D01*
X15720620Y-19426346D01*
X15734906Y-19454917D01*
X15749191Y-19512060D01*
X15749191Y-19583489D01*
X15734906Y-19640632D01*
X15720620Y-19669203D01*
X15706334Y-19683489D01*
X15677763Y-19697774D01*
X15649191Y-19697774D01*
X15620620Y-19683489D01*
X15606334Y-19669203D01*
X15592048Y-19640632D01*
X15577763Y-19583489D01*
X15577763Y-19512060D01*
X15592048Y-19454917D01*
X15606334Y-19426346D01*
X15620620Y-19412060D01*
X15649191Y-19397774D01*
X15863477Y-19426346D02*
X15877763Y-19412060D01*
X15906334Y-19397774D01*
X15977763Y-19397774D01*
X16006334Y-19412060D01*
X16020620Y-19426346D01*
X16034906Y-19454917D01*
X16034906Y-19483489D01*
X16020620Y-19526346D01*
X15849191Y-19697774D01*
X16034906Y-19697774D01*
X16292048Y-19397774D02*
X16234906Y-19397774D01*
X16206334Y-19412060D01*
X16192048Y-19426346D01*
X16163477Y-19469203D01*
X16149191Y-19526346D01*
X16149191Y-19640632D01*
X16163477Y-19669203D01*
X16177763Y-19683489D01*
X16206334Y-19697774D01*
X16263477Y-19697774D01*
X16292048Y-19683489D01*
X16306334Y-19669203D01*
X16320620Y-19640632D01*
X16320620Y-19569203D01*
X16306334Y-19540632D01*
X16292048Y-19526346D01*
X16263477Y-19512060D01*
X16206334Y-19512060D01*
X16177763Y-19526346D01*
X16163477Y-19540632D01*
X16149191Y-19569203D01*
X16434906Y-19397774D02*
X16434906Y-19454917D01*
X16549191Y-19397774D02*
X16549191Y-19454917D01*
X16992048Y-19812060D02*
X16977763Y-19797774D01*
X16949191Y-19754917D01*
X16934906Y-19726346D01*
X16920620Y-19683489D01*
X16906334Y-19612060D01*
X16906334Y-19554917D01*
X16920620Y-19483489D01*
X16934906Y-19440632D01*
X16949191Y-19412060D01*
X16977763Y-19369203D01*
X16992048Y-19354917D01*
X17163477Y-19397774D02*
X17192048Y-19397774D01*
X17220620Y-19412060D01*
X17234906Y-19426346D01*
X17249191Y-19454917D01*
X17263477Y-19512060D01*
X17263477Y-19583489D01*
X17249191Y-19640632D01*
X17234906Y-19669203D01*
X17220620Y-19683489D01*
X17192048Y-19697774D01*
X17163477Y-19697774D01*
X17134906Y-19683489D01*
X17120620Y-19669203D01*
X17106334Y-19640632D01*
X17092048Y-19583489D01*
X17092048Y-19512060D01*
X17106334Y-19454917D01*
X17120620Y-19426346D01*
X17134906Y-19412060D01*
X17163477Y-19397774D01*
X17620620Y-19697774D02*
X17620620Y-19397774D01*
X17749191Y-19697774D02*
X17749191Y-19540632D01*
X17734906Y-19512060D01*
X17706334Y-19497774D01*
X17663477Y-19497774D01*
X17634906Y-19512060D01*
X17620620Y-19526346D01*
X17934906Y-19697774D02*
X17906334Y-19683489D01*
X17892048Y-19669203D01*
X17877763Y-19640632D01*
X17877763Y-19554917D01*
X17892048Y-19526346D01*
X17906334Y-19512060D01*
X17934906Y-19497774D01*
X17977763Y-19497774D01*
X18006334Y-19512060D01*
X18020620Y-19526346D01*
X18034906Y-19554917D01*
X18034906Y-19640632D01*
X18020620Y-19669203D01*
X18006334Y-19683489D01*
X17977763Y-19697774D01*
X17934906Y-19697774D01*
X18206334Y-19697774D02*
X18177763Y-19683489D01*
X18163477Y-19654917D01*
X18163477Y-19397774D01*
X18434906Y-19683489D02*
X18406334Y-19697774D01*
X18349191Y-19697774D01*
X18320620Y-19683489D01*
X18306334Y-19654917D01*
X18306334Y-19540632D01*
X18320620Y-19512060D01*
X18349191Y-19497774D01*
X18406334Y-19497774D01*
X18434906Y-19512060D01*
X18449191Y-19540632D01*
X18449191Y-19569203D01*
X18306334Y-19597774D01*
X18563477Y-19683489D02*
X18592048Y-19697774D01*
X18649191Y-19697774D01*
X18677763Y-19683489D01*
X18692048Y-19654917D01*
X18692048Y-19640632D01*
X18677763Y-19612060D01*
X18649191Y-19597774D01*
X18606334Y-19597774D01*
X18577763Y-19583489D01*
X18563477Y-19554917D01*
X18563477Y-19540632D01*
X18577763Y-19512060D01*
X18606334Y-19497774D01*
X18649191Y-19497774D01*
X18677763Y-19512060D01*
X19049191Y-19583489D02*
X19277763Y-19583489D01*
X19163477Y-19697774D02*
X19163477Y-19469203D01*
X19634906Y-19426346D02*
X19649191Y-19412060D01*
X19677763Y-19397774D01*
X19749191Y-19397774D01*
X19777763Y-19412060D01*
X19792048Y-19426346D01*
X19806334Y-19454917D01*
X19806334Y-19483489D01*
X19792048Y-19526346D01*
X19620620Y-19697774D01*
X19806334Y-19697774D01*
X20149191Y-19683489D02*
X20177763Y-19697774D01*
X20234906Y-19697774D01*
X20263477Y-19683489D01*
X20277763Y-19654917D01*
X20277763Y-19640632D01*
X20263477Y-19612060D01*
X20234906Y-19597774D01*
X20192048Y-19597774D01*
X20163477Y-19583489D01*
X20149191Y-19554917D01*
X20149191Y-19540632D01*
X20163477Y-19512060D01*
X20192048Y-19497774D01*
X20234906Y-19497774D01*
X20263477Y-19512060D01*
X20449191Y-19697774D02*
X20420620Y-19683489D01*
X20406334Y-19654917D01*
X20406334Y-19397774D01*
X20606334Y-19697774D02*
X20577763Y-19683489D01*
X20563477Y-19669203D01*
X20549191Y-19640632D01*
X20549191Y-19554917D01*
X20563477Y-19526346D01*
X20577763Y-19512060D01*
X20606334Y-19497774D01*
X20649191Y-19497774D01*
X20677763Y-19512060D01*
X20692048Y-19526346D01*
X20706334Y-19554917D01*
X20706334Y-19640632D01*
X20692048Y-19669203D01*
X20677763Y-19683489D01*
X20649191Y-19697774D01*
X20606334Y-19697774D01*
X20792048Y-19497774D02*
X20906334Y-19497774D01*
X20834906Y-19397774D02*
X20834906Y-19654917D01*
X20849191Y-19683489D01*
X20877763Y-19697774D01*
X20906334Y-19697774D01*
X20992048Y-19683489D02*
X21020620Y-19697774D01*
X21077763Y-19697774D01*
X21106334Y-19683489D01*
X21120620Y-19654917D01*
X21120620Y-19640632D01*
X21106334Y-19612060D01*
X21077763Y-19597774D01*
X21034906Y-19597774D01*
X21006334Y-19583489D01*
X20992048Y-19554917D01*
X20992048Y-19540632D01*
X21006334Y-19512060D01*
X21034906Y-19497774D01*
X21077763Y-19497774D01*
X21106334Y-19512060D01*
X21220620Y-19812060D02*
X21234906Y-19797774D01*
X21263477Y-19754917D01*
X21277763Y-19726346D01*
X21292048Y-19683489D01*
X21306334Y-19612060D01*
X21306334Y-19554917D01*
X21292048Y-19483489D01*
X21277763Y-19440632D01*
X21263477Y-19412060D01*
X21234906Y-19369203D01*
X21220620Y-19354917D01*
X12235620Y-19923060D02*
X12305620Y-19993060D01*
X12305620Y-19923060D02*
X12235620Y-19993060D01*
X12295369Y-19982809D02*
X12295369Y-19933311D01*
X12245871Y-19933311D01*
X12245871Y-19982809D01*
X12295369Y-19982809D01*
X12649191Y-19793774D02*
X12677763Y-19793774D01*
X12706334Y-19808060D01*
X12720620Y-19822346D01*
X12734906Y-19850917D01*
X12749191Y-19908060D01*
X12749191Y-19979489D01*
X12734906Y-20036632D01*
X12720620Y-20065203D01*
X12706334Y-20079489D01*
X12677763Y-20093774D01*
X12649191Y-20093774D01*
X12620620Y-20079489D01*
X12606334Y-20065203D01*
X12592048Y-20036632D01*
X12577763Y-19979489D01*
X12577763Y-19908060D01*
X12592048Y-19850917D01*
X12606334Y-19822346D01*
X12620620Y-19808060D01*
X12649191Y-19793774D01*
X12877763Y-20065203D02*
X12892048Y-20079489D01*
X12877763Y-20093774D01*
X12863477Y-20079489D01*
X12877763Y-20065203D01*
X12877763Y-20093774D01*
X12992048Y-19793774D02*
X13192048Y-19793774D01*
X13063477Y-20093774D01*
X13363477Y-19793774D02*
X13392048Y-19793774D01*
X13420620Y-19808060D01*
X13434906Y-19822346D01*
X13449191Y-19850917D01*
X13463477Y-19908060D01*
X13463477Y-19979489D01*
X13449191Y-20036632D01*
X13434906Y-20065203D01*
X13420620Y-20079489D01*
X13392048Y-20093774D01*
X13363477Y-20093774D01*
X13334906Y-20079489D01*
X13320620Y-20065203D01*
X13306334Y-20036632D01*
X13292048Y-19979489D01*
X13292048Y-19908060D01*
X13306334Y-19850917D01*
X13320620Y-19822346D01*
X13334906Y-19808060D01*
X13363477Y-19793774D01*
X13592048Y-20093774D02*
X13592048Y-19893774D01*
X13592048Y-19922346D02*
X13606334Y-19908060D01*
X13634906Y-19893774D01*
X13677763Y-19893774D01*
X13706334Y-19908060D01*
X13720620Y-19936632D01*
X13720620Y-20093774D01*
X13720620Y-19936632D02*
X13734906Y-19908060D01*
X13763477Y-19893774D01*
X13806334Y-19893774D01*
X13834906Y-19908060D01*
X13849191Y-19936632D01*
X13849191Y-20093774D01*
X13992048Y-20093774D02*
X13992048Y-19893774D01*
X13992048Y-19922346D02*
X14006334Y-19908060D01*
X14034906Y-19893774D01*
X14077763Y-19893774D01*
X14106334Y-19908060D01*
X14120620Y-19936632D01*
X14120620Y-20093774D01*
X14120620Y-19936632D02*
X14134906Y-19908060D01*
X14163477Y-19893774D01*
X14206334Y-19893774D01*
X14234906Y-19908060D01*
X14249191Y-19936632D01*
X14249191Y-20093774D01*
X14834906Y-19779489D02*
X14577763Y-20165203D01*
X15220620Y-19793774D02*
X15249191Y-19793774D01*
X15277763Y-19808060D01*
X15292048Y-19822346D01*
X15306334Y-19850917D01*
X15320620Y-19908060D01*
X15320620Y-19979489D01*
X15306334Y-20036632D01*
X15292048Y-20065203D01*
X15277763Y-20079489D01*
X15249191Y-20093774D01*
X15220620Y-20093774D01*
X15192048Y-20079489D01*
X15177763Y-20065203D01*
X15163477Y-20036632D01*
X15149191Y-19979489D01*
X15149191Y-19908060D01*
X15163477Y-19850917D01*
X15177763Y-19822346D01*
X15192048Y-19808060D01*
X15220620Y-19793774D01*
X15449191Y-20065203D02*
X15463477Y-20079489D01*
X15449191Y-20093774D01*
X15434906Y-20079489D01*
X15449191Y-20065203D01*
X15449191Y-20093774D01*
X15649191Y-19793774D02*
X15677763Y-19793774D01*
X15706334Y-19808060D01*
X15720620Y-19822346D01*
X15734906Y-19850917D01*
X15749191Y-19908060D01*
X15749191Y-19979489D01*
X15734906Y-20036632D01*
X15720620Y-20065203D01*
X15706334Y-20079489D01*
X15677763Y-20093774D01*
X15649191Y-20093774D01*
X15620620Y-20079489D01*
X15606334Y-20065203D01*
X15592048Y-20036632D01*
X15577763Y-19979489D01*
X15577763Y-19908060D01*
X15592048Y-19850917D01*
X15606334Y-19822346D01*
X15620620Y-19808060D01*
X15649191Y-19793774D01*
X15863477Y-19822346D02*
X15877763Y-19808060D01*
X15906334Y-19793774D01*
X15977763Y-19793774D01*
X16006334Y-19808060D01*
X16020620Y-19822346D01*
X16034906Y-19850917D01*
X16034906Y-19879489D01*
X16020620Y-19922346D01*
X15849191Y-20093774D01*
X16034906Y-20093774D01*
X16206334Y-19922346D02*
X16177763Y-19908060D01*
X16163477Y-19893774D01*
X16149191Y-19865203D01*
X16149191Y-19850917D01*
X16163477Y-19822346D01*
X16177763Y-19808060D01*
X16206334Y-19793774D01*
X16263477Y-19793774D01*
X16292048Y-19808060D01*
X16306334Y-19822346D01*
X16320620Y-19850917D01*
X16320620Y-19865203D01*
X16306334Y-19893774D01*
X16292048Y-19908060D01*
X16263477Y-19922346D01*
X16206334Y-19922346D01*
X16177763Y-19936632D01*
X16163477Y-19950917D01*
X16149191Y-19979489D01*
X16149191Y-20036632D01*
X16163477Y-20065203D01*
X16177763Y-20079489D01*
X16206334Y-20093774D01*
X16263477Y-20093774D01*
X16292048Y-20079489D01*
X16306334Y-20065203D01*
X16320620Y-20036632D01*
X16320620Y-19979489D01*
X16306334Y-19950917D01*
X16292048Y-19936632D01*
X16263477Y-19922346D01*
X16434906Y-19793774D02*
X16434906Y-19850917D01*
X16549191Y-19793774D02*
X16549191Y-19850917D01*
X16992048Y-20208060D02*
X16977763Y-20193774D01*
X16949191Y-20150917D01*
X16934906Y-20122346D01*
X16920620Y-20079489D01*
X16906334Y-20008060D01*
X16906334Y-19950917D01*
X16920620Y-19879489D01*
X16934906Y-19836632D01*
X16949191Y-19808060D01*
X16977763Y-19765203D01*
X16992048Y-19750917D01*
X17163477Y-19793774D02*
X17192048Y-19793774D01*
X17220620Y-19808060D01*
X17234906Y-19822346D01*
X17249191Y-19850917D01*
X17263477Y-19908060D01*
X17263477Y-19979489D01*
X17249191Y-20036632D01*
X17234906Y-20065203D01*
X17220620Y-20079489D01*
X17192048Y-20093774D01*
X17163477Y-20093774D01*
X17134906Y-20079489D01*
X17120620Y-20065203D01*
X17106334Y-20036632D01*
X17092048Y-19979489D01*
X17092048Y-19908060D01*
X17106334Y-19850917D01*
X17120620Y-19822346D01*
X17134906Y-19808060D01*
X17163477Y-19793774D01*
X17620620Y-20093774D02*
X17620620Y-19793774D01*
X17749191Y-20093774D02*
X17749191Y-19936632D01*
X17734906Y-19908060D01*
X17706334Y-19893774D01*
X17663477Y-19893774D01*
X17634906Y-19908060D01*
X17620620Y-19922346D01*
X17934906Y-20093774D02*
X17906334Y-20079489D01*
X17892048Y-20065203D01*
X17877763Y-20036632D01*
X17877763Y-19950917D01*
X17892048Y-19922346D01*
X17906334Y-19908060D01*
X17934906Y-19893774D01*
X17977763Y-19893774D01*
X18006334Y-19908060D01*
X18020620Y-19922346D01*
X18034906Y-19950917D01*
X18034906Y-20036632D01*
X18020620Y-20065203D01*
X18006334Y-20079489D01*
X17977763Y-20093774D01*
X17934906Y-20093774D01*
X18206334Y-20093774D02*
X18177763Y-20079489D01*
X18163477Y-20050917D01*
X18163477Y-19793774D01*
X18434906Y-20079489D02*
X18406334Y-20093774D01*
X18349191Y-20093774D01*
X18320620Y-20079489D01*
X18306334Y-20050917D01*
X18306334Y-19936632D01*
X18320620Y-19908060D01*
X18349191Y-19893774D01*
X18406334Y-19893774D01*
X18434906Y-19908060D01*
X18449191Y-19936632D01*
X18449191Y-19965203D01*
X18306334Y-19993774D01*
X18563477Y-20079489D02*
X18592048Y-20093774D01*
X18649191Y-20093774D01*
X18677763Y-20079489D01*
X18692048Y-20050917D01*
X18692048Y-20036632D01*
X18677763Y-20008060D01*
X18649191Y-19993774D01*
X18606334Y-19993774D01*
X18577763Y-19979489D01*
X18563477Y-19950917D01*
X18563477Y-19936632D01*
X18577763Y-19908060D01*
X18606334Y-19893774D01*
X18649191Y-19893774D01*
X18677763Y-19908060D01*
X19049191Y-19979489D02*
X19277763Y-19979489D01*
X19163477Y-20093774D02*
X19163477Y-19865203D01*
X19634906Y-19822346D02*
X19649191Y-19808060D01*
X19677763Y-19793774D01*
X19749191Y-19793774D01*
X19777763Y-19808060D01*
X19792048Y-19822346D01*
X19806334Y-19850917D01*
X19806334Y-19879489D01*
X19792048Y-19922346D01*
X19620620Y-20093774D01*
X19806334Y-20093774D01*
X20149191Y-20079489D02*
X20177763Y-20093774D01*
X20234906Y-20093774D01*
X20263477Y-20079489D01*
X20277763Y-20050917D01*
X20277763Y-20036632D01*
X20263477Y-20008060D01*
X20234906Y-19993774D01*
X20192048Y-19993774D01*
X20163477Y-19979489D01*
X20149191Y-19950917D01*
X20149191Y-19936632D01*
X20163477Y-19908060D01*
X20192048Y-19893774D01*
X20234906Y-19893774D01*
X20263477Y-19908060D01*
X20449191Y-20093774D02*
X20420620Y-20079489D01*
X20406334Y-20050917D01*
X20406334Y-19793774D01*
X20606334Y-20093774D02*
X20577763Y-20079489D01*
X20563477Y-20065203D01*
X20549191Y-20036632D01*
X20549191Y-19950917D01*
X20563477Y-19922346D01*
X20577763Y-19908060D01*
X20606334Y-19893774D01*
X20649191Y-19893774D01*
X20677763Y-19908060D01*
X20692048Y-19922346D01*
X20706334Y-19950917D01*
X20706334Y-20036632D01*
X20692048Y-20065203D01*
X20677763Y-20079489D01*
X20649191Y-20093774D01*
X20606334Y-20093774D01*
X20792048Y-19893774D02*
X20906334Y-19893774D01*
X20834906Y-19793774D02*
X20834906Y-20050917D01*
X20849191Y-20079489D01*
X20877763Y-20093774D01*
X20906334Y-20093774D01*
X20992048Y-20079489D02*
X21020620Y-20093774D01*
X21077763Y-20093774D01*
X21106334Y-20079489D01*
X21120620Y-20050917D01*
X21120620Y-20036632D01*
X21106334Y-20008060D01*
X21077763Y-19993774D01*
X21034906Y-19993774D01*
X21006334Y-19979489D01*
X20992048Y-19950917D01*
X20992048Y-19936632D01*
X21006334Y-19908060D01*
X21034906Y-19893774D01*
X21077763Y-19893774D01*
X21106334Y-19908060D01*
X21220620Y-20208060D02*
X21234906Y-20193774D01*
X21263477Y-20150917D01*
X21277763Y-20122346D01*
X21292048Y-20079489D01*
X21306334Y-20008060D01*
X21306334Y-19950917D01*
X21292048Y-19879489D01*
X21277763Y-19836632D01*
X21263477Y-19808060D01*
X21234906Y-19765203D01*
X21220620Y-19750917D01*
X12225620Y-20314060D02*
X12305620Y-20394060D01*
X12305620Y-20314060D02*
X12225620Y-20394060D01*
X12265620Y-20394060D02*
X12305620Y-20354060D01*
X12265620Y-20314060D01*
X12225620Y-20354060D01*
X12265620Y-20394060D01*
X12649191Y-20189774D02*
X12677763Y-20189774D01*
X12706334Y-20204060D01*
X12720620Y-20218346D01*
X12734906Y-20246917D01*
X12749191Y-20304060D01*
X12749191Y-20375489D01*
X12734906Y-20432632D01*
X12720620Y-20461203D01*
X12706334Y-20475489D01*
X12677763Y-20489774D01*
X12649191Y-20489774D01*
X12620620Y-20475489D01*
X12606334Y-20461203D01*
X12592048Y-20432632D01*
X12577763Y-20375489D01*
X12577763Y-20304060D01*
X12592048Y-20246917D01*
X12606334Y-20218346D01*
X12620620Y-20204060D01*
X12649191Y-20189774D01*
X12877763Y-20461203D02*
X12892048Y-20475489D01*
X12877763Y-20489774D01*
X12863477Y-20475489D01*
X12877763Y-20461203D01*
X12877763Y-20489774D01*
X13063477Y-20318346D02*
X13034906Y-20304060D01*
X13020620Y-20289774D01*
X13006334Y-20261203D01*
X13006334Y-20246917D01*
X13020620Y-20218346D01*
X13034906Y-20204060D01*
X13063477Y-20189774D01*
X13120620Y-20189774D01*
X13149191Y-20204060D01*
X13163477Y-20218346D01*
X13177763Y-20246917D01*
X13177763Y-20261203D01*
X13163477Y-20289774D01*
X13149191Y-20304060D01*
X13120620Y-20318346D01*
X13063477Y-20318346D01*
X13034906Y-20332632D01*
X13020620Y-20346917D01*
X13006334Y-20375489D01*
X13006334Y-20432632D01*
X13020620Y-20461203D01*
X13034906Y-20475489D01*
X13063477Y-20489774D01*
X13120620Y-20489774D01*
X13149191Y-20475489D01*
X13163477Y-20461203D01*
X13177763Y-20432632D01*
X13177763Y-20375489D01*
X13163477Y-20346917D01*
X13149191Y-20332632D01*
X13120620Y-20318346D01*
X13363477Y-20189774D02*
X13392048Y-20189774D01*
X13420620Y-20204060D01*
X13434906Y-20218346D01*
X13449191Y-20246917D01*
X13463477Y-20304060D01*
X13463477Y-20375489D01*
X13449191Y-20432632D01*
X13434906Y-20461203D01*
X13420620Y-20475489D01*
X13392048Y-20489774D01*
X13363477Y-20489774D01*
X13334906Y-20475489D01*
X13320620Y-20461203D01*
X13306334Y-20432632D01*
X13292048Y-20375489D01*
X13292048Y-20304060D01*
X13306334Y-20246917D01*
X13320620Y-20218346D01*
X13334906Y-20204060D01*
X13363477Y-20189774D01*
X13592048Y-20489774D02*
X13592048Y-20289774D01*
X13592048Y-20318346D02*
X13606334Y-20304060D01*
X13634906Y-20289774D01*
X13677763Y-20289774D01*
X13706334Y-20304060D01*
X13720620Y-20332632D01*
X13720620Y-20489774D01*
X13720620Y-20332632D02*
X13734906Y-20304060D01*
X13763477Y-20289774D01*
X13806334Y-20289774D01*
X13834906Y-20304060D01*
X13849191Y-20332632D01*
X13849191Y-20489774D01*
X13992048Y-20489774D02*
X13992048Y-20289774D01*
X13992048Y-20318346D02*
X14006334Y-20304060D01*
X14034906Y-20289774D01*
X14077763Y-20289774D01*
X14106334Y-20304060D01*
X14120620Y-20332632D01*
X14120620Y-20489774D01*
X14120620Y-20332632D02*
X14134906Y-20304060D01*
X14163477Y-20289774D01*
X14206334Y-20289774D01*
X14234906Y-20304060D01*
X14249191Y-20332632D01*
X14249191Y-20489774D01*
X14834906Y-20175489D02*
X14577763Y-20561203D01*
X15220620Y-20189774D02*
X15249191Y-20189774D01*
X15277763Y-20204060D01*
X15292048Y-20218346D01*
X15306334Y-20246917D01*
X15320620Y-20304060D01*
X15320620Y-20375489D01*
X15306334Y-20432632D01*
X15292048Y-20461203D01*
X15277763Y-20475489D01*
X15249191Y-20489774D01*
X15220620Y-20489774D01*
X15192048Y-20475489D01*
X15177763Y-20461203D01*
X15163477Y-20432632D01*
X15149191Y-20375489D01*
X15149191Y-20304060D01*
X15163477Y-20246917D01*
X15177763Y-20218346D01*
X15192048Y-20204060D01*
X15220620Y-20189774D01*
X15449191Y-20461203D02*
X15463477Y-20475489D01*
X15449191Y-20489774D01*
X15434906Y-20475489D01*
X15449191Y-20461203D01*
X15449191Y-20489774D01*
X15649191Y-20189774D02*
X15677763Y-20189774D01*
X15706334Y-20204060D01*
X15720620Y-20218346D01*
X15734906Y-20246917D01*
X15749191Y-20304060D01*
X15749191Y-20375489D01*
X15734906Y-20432632D01*
X15720620Y-20461203D01*
X15706334Y-20475489D01*
X15677763Y-20489774D01*
X15649191Y-20489774D01*
X15620620Y-20475489D01*
X15606334Y-20461203D01*
X15592048Y-20432632D01*
X15577763Y-20375489D01*
X15577763Y-20304060D01*
X15592048Y-20246917D01*
X15606334Y-20218346D01*
X15620620Y-20204060D01*
X15649191Y-20189774D01*
X15849191Y-20189774D02*
X16034906Y-20189774D01*
X15934906Y-20304060D01*
X15977763Y-20304060D01*
X16006334Y-20318346D01*
X16020620Y-20332632D01*
X16034906Y-20361203D01*
X16034906Y-20432632D01*
X16020620Y-20461203D01*
X16006334Y-20475489D01*
X15977763Y-20489774D01*
X15892048Y-20489774D01*
X15863477Y-20475489D01*
X15849191Y-20461203D01*
X16320620Y-20489774D02*
X16149191Y-20489774D01*
X16234906Y-20489774D02*
X16234906Y-20189774D01*
X16206334Y-20232632D01*
X16177763Y-20261203D01*
X16149191Y-20275489D01*
X16434906Y-20189774D02*
X16434906Y-20246917D01*
X16549191Y-20189774D02*
X16549191Y-20246917D01*
X16992048Y-20604060D02*
X16977763Y-20589774D01*
X16949191Y-20546917D01*
X16934906Y-20518346D01*
X16920620Y-20475489D01*
X16906334Y-20404060D01*
X16906334Y-20346917D01*
X16920620Y-20275489D01*
X16934906Y-20232632D01*
X16949191Y-20204060D01*
X16977763Y-20161203D01*
X16992048Y-20146917D01*
X17234906Y-20189774D02*
X17177763Y-20189774D01*
X17149191Y-20204060D01*
X17134906Y-20218346D01*
X17106334Y-20261203D01*
X17092048Y-20318346D01*
X17092048Y-20432632D01*
X17106334Y-20461203D01*
X17120620Y-20475489D01*
X17149191Y-20489774D01*
X17206334Y-20489774D01*
X17234906Y-20475489D01*
X17249191Y-20461203D01*
X17263477Y-20432632D01*
X17263477Y-20361203D01*
X17249191Y-20332632D01*
X17234906Y-20318346D01*
X17206334Y-20304060D01*
X17149191Y-20304060D01*
X17120620Y-20318346D01*
X17106334Y-20332632D01*
X17092048Y-20361203D01*
X17620620Y-20489774D02*
X17620620Y-20189774D01*
X17749191Y-20489774D02*
X17749191Y-20332632D01*
X17734906Y-20304060D01*
X17706334Y-20289774D01*
X17663477Y-20289774D01*
X17634906Y-20304060D01*
X17620620Y-20318346D01*
X17934906Y-20489774D02*
X17906334Y-20475489D01*
X17892048Y-20461203D01*
X17877763Y-20432632D01*
X17877763Y-20346917D01*
X17892048Y-20318346D01*
X17906334Y-20304060D01*
X17934906Y-20289774D01*
X17977763Y-20289774D01*
X18006334Y-20304060D01*
X18020620Y-20318346D01*
X18034906Y-20346917D01*
X18034906Y-20432632D01*
X18020620Y-20461203D01*
X18006334Y-20475489D01*
X17977763Y-20489774D01*
X17934906Y-20489774D01*
X18206334Y-20489774D02*
X18177763Y-20475489D01*
X18163477Y-20446917D01*
X18163477Y-20189774D01*
X18434906Y-20475489D02*
X18406334Y-20489774D01*
X18349191Y-20489774D01*
X18320620Y-20475489D01*
X18306334Y-20446917D01*
X18306334Y-20332632D01*
X18320620Y-20304060D01*
X18349191Y-20289774D01*
X18406334Y-20289774D01*
X18434906Y-20304060D01*
X18449191Y-20332632D01*
X18449191Y-20361203D01*
X18306334Y-20389774D01*
X18563477Y-20475489D02*
X18592048Y-20489774D01*
X18649191Y-20489774D01*
X18677763Y-20475489D01*
X18692048Y-20446917D01*
X18692048Y-20432632D01*
X18677763Y-20404060D01*
X18649191Y-20389774D01*
X18606334Y-20389774D01*
X18577763Y-20375489D01*
X18563477Y-20346917D01*
X18563477Y-20332632D01*
X18577763Y-20304060D01*
X18606334Y-20289774D01*
X18649191Y-20289774D01*
X18677763Y-20304060D01*
X18792048Y-20604060D02*
X18806334Y-20589774D01*
X18834906Y-20546917D01*
X18849191Y-20518346D01*
X18863477Y-20475489D01*
X18877763Y-20404060D01*
X18877763Y-20346917D01*
X18863477Y-20275489D01*
X18849191Y-20232632D01*
X18834906Y-20204060D01*
X18806334Y-20161203D01*
X18792048Y-20146917D01*
X12264980Y-20709420D02*
X12264980Y-20790700D01*
X12224340Y-20750060D02*
X12305620Y-20750060D01*
X12305620Y-20750060D02*
G75*
G03*
X12305620Y-20750060I-40640J0D01*
G01*
X12649191Y-20585774D02*
X12677763Y-20585774D01*
X12706334Y-20600060D01*
X12720620Y-20614346D01*
X12734906Y-20642917D01*
X12749191Y-20700060D01*
X12749191Y-20771489D01*
X12734906Y-20828632D01*
X12720620Y-20857203D01*
X12706334Y-20871489D01*
X12677763Y-20885774D01*
X12649191Y-20885774D01*
X12620620Y-20871489D01*
X12606334Y-20857203D01*
X12592048Y-20828632D01*
X12577763Y-20771489D01*
X12577763Y-20700060D01*
X12592048Y-20642917D01*
X12606334Y-20614346D01*
X12620620Y-20600060D01*
X12649191Y-20585774D01*
X12877763Y-20857203D02*
X12892048Y-20871489D01*
X12877763Y-20885774D01*
X12863477Y-20871489D01*
X12877763Y-20857203D01*
X12877763Y-20885774D01*
X13063477Y-20714346D02*
X13034906Y-20700060D01*
X13020620Y-20685774D01*
X13006334Y-20657203D01*
X13006334Y-20642917D01*
X13020620Y-20614346D01*
X13034906Y-20600060D01*
X13063477Y-20585774D01*
X13120620Y-20585774D01*
X13149191Y-20600060D01*
X13163477Y-20614346D01*
X13177763Y-20642917D01*
X13177763Y-20657203D01*
X13163477Y-20685774D01*
X13149191Y-20700060D01*
X13120620Y-20714346D01*
X13063477Y-20714346D01*
X13034906Y-20728632D01*
X13020620Y-20742917D01*
X13006334Y-20771489D01*
X13006334Y-20828632D01*
X13020620Y-20857203D01*
X13034906Y-20871489D01*
X13063477Y-20885774D01*
X13120620Y-20885774D01*
X13149191Y-20871489D01*
X13163477Y-20857203D01*
X13177763Y-20828632D01*
X13177763Y-20771489D01*
X13163477Y-20742917D01*
X13149191Y-20728632D01*
X13120620Y-20714346D01*
X13463477Y-20885774D02*
X13292048Y-20885774D01*
X13377763Y-20885774D02*
X13377763Y-20585774D01*
X13349191Y-20628632D01*
X13320620Y-20657203D01*
X13292048Y-20671489D01*
X13592048Y-20885774D02*
X13592048Y-20685774D01*
X13592048Y-20714346D02*
X13606334Y-20700060D01*
X13634906Y-20685774D01*
X13677763Y-20685774D01*
X13706334Y-20700060D01*
X13720620Y-20728632D01*
X13720620Y-20885774D01*
X13720620Y-20728632D02*
X13734906Y-20700060D01*
X13763477Y-20685774D01*
X13806334Y-20685774D01*
X13834906Y-20700060D01*
X13849191Y-20728632D01*
X13849191Y-20885774D01*
X13992048Y-20885774D02*
X13992048Y-20685774D01*
X13992048Y-20714346D02*
X14006334Y-20700060D01*
X14034906Y-20685774D01*
X14077763Y-20685774D01*
X14106334Y-20700060D01*
X14120620Y-20728632D01*
X14120620Y-20885774D01*
X14120620Y-20728632D02*
X14134906Y-20700060D01*
X14163477Y-20685774D01*
X14206334Y-20685774D01*
X14234906Y-20700060D01*
X14249191Y-20728632D01*
X14249191Y-20885774D01*
X14834906Y-20571489D02*
X14577763Y-20957203D01*
X15220620Y-20585774D02*
X15249191Y-20585774D01*
X15277763Y-20600060D01*
X15292048Y-20614346D01*
X15306334Y-20642917D01*
X15320620Y-20700060D01*
X15320620Y-20771489D01*
X15306334Y-20828632D01*
X15292048Y-20857203D01*
X15277763Y-20871489D01*
X15249191Y-20885774D01*
X15220620Y-20885774D01*
X15192048Y-20871489D01*
X15177763Y-20857203D01*
X15163477Y-20828632D01*
X15149191Y-20771489D01*
X15149191Y-20700060D01*
X15163477Y-20642917D01*
X15177763Y-20614346D01*
X15192048Y-20600060D01*
X15220620Y-20585774D01*
X15449191Y-20857203D02*
X15463477Y-20871489D01*
X15449191Y-20885774D01*
X15434906Y-20871489D01*
X15449191Y-20857203D01*
X15449191Y-20885774D01*
X15649191Y-20585774D02*
X15677763Y-20585774D01*
X15706334Y-20600060D01*
X15720620Y-20614346D01*
X15734906Y-20642917D01*
X15749191Y-20700060D01*
X15749191Y-20771489D01*
X15734906Y-20828632D01*
X15720620Y-20857203D01*
X15706334Y-20871489D01*
X15677763Y-20885774D01*
X15649191Y-20885774D01*
X15620620Y-20871489D01*
X15606334Y-20857203D01*
X15592048Y-20828632D01*
X15577763Y-20771489D01*
X15577763Y-20700060D01*
X15592048Y-20642917D01*
X15606334Y-20614346D01*
X15620620Y-20600060D01*
X15649191Y-20585774D01*
X15849191Y-20585774D02*
X16034906Y-20585774D01*
X15934906Y-20700060D01*
X15977763Y-20700060D01*
X16006334Y-20714346D01*
X16020620Y-20728632D01*
X16034906Y-20757203D01*
X16034906Y-20828632D01*
X16020620Y-20857203D01*
X16006334Y-20871489D01*
X15977763Y-20885774D01*
X15892048Y-20885774D01*
X15863477Y-20871489D01*
X15849191Y-20857203D01*
X16149191Y-20614346D02*
X16163477Y-20600060D01*
X16192048Y-20585774D01*
X16263477Y-20585774D01*
X16292048Y-20600060D01*
X16306334Y-20614346D01*
X16320620Y-20642917D01*
X16320620Y-20671489D01*
X16306334Y-20714346D01*
X16134906Y-20885774D01*
X16320620Y-20885774D01*
X16434906Y-20585774D02*
X16434906Y-20642917D01*
X16549191Y-20585774D02*
X16549191Y-20642917D01*
X16992048Y-21000060D02*
X16977763Y-20985774D01*
X16949191Y-20942917D01*
X16934906Y-20914346D01*
X16920620Y-20871489D01*
X16906334Y-20800060D01*
X16906334Y-20742917D01*
X16920620Y-20671489D01*
X16934906Y-20628632D01*
X16949191Y-20600060D01*
X16977763Y-20557203D01*
X16992048Y-20542917D01*
X17092048Y-20614346D02*
X17106334Y-20600060D01*
X17134906Y-20585774D01*
X17206334Y-20585774D01*
X17234906Y-20600060D01*
X17249191Y-20614346D01*
X17263477Y-20642917D01*
X17263477Y-20671489D01*
X17249191Y-20714346D01*
X17077763Y-20885774D01*
X17263477Y-20885774D01*
X17620620Y-20885774D02*
X17620620Y-20585774D01*
X17749191Y-20885774D02*
X17749191Y-20728632D01*
X17734906Y-20700060D01*
X17706334Y-20685774D01*
X17663477Y-20685774D01*
X17634906Y-20700060D01*
X17620620Y-20714346D01*
X17934906Y-20885774D02*
X17906334Y-20871489D01*
X17892048Y-20857203D01*
X17877763Y-20828632D01*
X17877763Y-20742917D01*
X17892048Y-20714346D01*
X17906334Y-20700060D01*
X17934906Y-20685774D01*
X17977763Y-20685774D01*
X18006334Y-20700060D01*
X18020620Y-20714346D01*
X18034906Y-20742917D01*
X18034906Y-20828632D01*
X18020620Y-20857203D01*
X18006334Y-20871489D01*
X17977763Y-20885774D01*
X17934906Y-20885774D01*
X18206334Y-20885774D02*
X18177763Y-20871489D01*
X18163477Y-20842917D01*
X18163477Y-20585774D01*
X18434906Y-20871489D02*
X18406334Y-20885774D01*
X18349191Y-20885774D01*
X18320620Y-20871489D01*
X18306334Y-20842917D01*
X18306334Y-20728632D01*
X18320620Y-20700060D01*
X18349191Y-20685774D01*
X18406334Y-20685774D01*
X18434906Y-20700060D01*
X18449191Y-20728632D01*
X18449191Y-20757203D01*
X18306334Y-20785774D01*
X18563477Y-20871489D02*
X18592048Y-20885774D01*
X18649191Y-20885774D01*
X18677763Y-20871489D01*
X18692048Y-20842917D01*
X18692048Y-20828632D01*
X18677763Y-20800060D01*
X18649191Y-20785774D01*
X18606334Y-20785774D01*
X18577763Y-20771489D01*
X18563477Y-20742917D01*
X18563477Y-20728632D01*
X18577763Y-20700060D01*
X18606334Y-20685774D01*
X18649191Y-20685774D01*
X18677763Y-20700060D01*
X18792048Y-21000060D02*
X18806334Y-20985774D01*
X18834906Y-20942917D01*
X18849191Y-20914346D01*
X18863477Y-20871489D01*
X18877763Y-20800060D01*
X18877763Y-20742917D01*
X18863477Y-20671489D01*
X18849191Y-20628632D01*
X18834906Y-20600060D01*
X18806334Y-20557203D01*
X18792048Y-20542917D01*
X12292147Y-21178587D02*
X12292147Y-21113533D01*
X12227093Y-21113533D01*
X12227093Y-21178587D01*
X12292147Y-21178587D01*
X12305620Y-21146060D02*
G75*
G03*
X12305620Y-21146060I-46000J0D01*
G01*
X12649191Y-20981774D02*
X12677763Y-20981774D01*
X12706334Y-20996060D01*
X12720620Y-21010346D01*
X12734906Y-21038917D01*
X12749191Y-21096060D01*
X12749191Y-21167489D01*
X12734906Y-21224632D01*
X12720620Y-21253203D01*
X12706334Y-21267489D01*
X12677763Y-21281774D01*
X12649191Y-21281774D01*
X12620620Y-21267489D01*
X12606334Y-21253203D01*
X12592048Y-21224632D01*
X12577763Y-21167489D01*
X12577763Y-21096060D01*
X12592048Y-21038917D01*
X12606334Y-21010346D01*
X12620620Y-20996060D01*
X12649191Y-20981774D01*
X12877763Y-21253203D02*
X12892048Y-21267489D01*
X12877763Y-21281774D01*
X12863477Y-21267489D01*
X12877763Y-21253203D01*
X12877763Y-21281774D01*
X13034906Y-21281774D02*
X13092048Y-21281774D01*
X13120620Y-21267489D01*
X13134906Y-21253203D01*
X13163477Y-21210346D01*
X13177763Y-21153203D01*
X13177763Y-21038917D01*
X13163477Y-21010346D01*
X13149191Y-20996060D01*
X13120620Y-20981774D01*
X13063477Y-20981774D01*
X13034906Y-20996060D01*
X13020620Y-21010346D01*
X13006334Y-21038917D01*
X13006334Y-21110346D01*
X13020620Y-21138917D01*
X13034906Y-21153203D01*
X13063477Y-21167489D01*
X13120620Y-21167489D01*
X13149191Y-21153203D01*
X13163477Y-21138917D01*
X13177763Y-21110346D01*
X13292048Y-21010346D02*
X13306334Y-20996060D01*
X13334906Y-20981774D01*
X13406334Y-20981774D01*
X13434906Y-20996060D01*
X13449191Y-21010346D01*
X13463477Y-21038917D01*
X13463477Y-21067489D01*
X13449191Y-21110346D01*
X13277763Y-21281774D01*
X13463477Y-21281774D01*
X13592048Y-21281774D02*
X13592048Y-21081774D01*
X13592048Y-21110346D02*
X13606334Y-21096060D01*
X13634906Y-21081774D01*
X13677763Y-21081774D01*
X13706334Y-21096060D01*
X13720620Y-21124632D01*
X13720620Y-21281774D01*
X13720620Y-21124632D02*
X13734906Y-21096060D01*
X13763477Y-21081774D01*
X13806334Y-21081774D01*
X13834906Y-21096060D01*
X13849191Y-21124632D01*
X13849191Y-21281774D01*
X13992048Y-21281774D02*
X13992048Y-21081774D01*
X13992048Y-21110346D02*
X14006334Y-21096060D01*
X14034906Y-21081774D01*
X14077763Y-21081774D01*
X14106334Y-21096060D01*
X14120620Y-21124632D01*
X14120620Y-21281774D01*
X14120620Y-21124632D02*
X14134906Y-21096060D01*
X14163477Y-21081774D01*
X14206334Y-21081774D01*
X14234906Y-21096060D01*
X14249191Y-21124632D01*
X14249191Y-21281774D01*
X14834906Y-20967489D02*
X14577763Y-21353203D01*
X15220620Y-20981774D02*
X15249191Y-20981774D01*
X15277763Y-20996060D01*
X15292048Y-21010346D01*
X15306334Y-21038917D01*
X15320620Y-21096060D01*
X15320620Y-21167489D01*
X15306334Y-21224632D01*
X15292048Y-21253203D01*
X15277763Y-21267489D01*
X15249191Y-21281774D01*
X15220620Y-21281774D01*
X15192048Y-21267489D01*
X15177763Y-21253203D01*
X15163477Y-21224632D01*
X15149191Y-21167489D01*
X15149191Y-21096060D01*
X15163477Y-21038917D01*
X15177763Y-21010346D01*
X15192048Y-20996060D01*
X15220620Y-20981774D01*
X15449191Y-21253203D02*
X15463477Y-21267489D01*
X15449191Y-21281774D01*
X15434906Y-21267489D01*
X15449191Y-21253203D01*
X15449191Y-21281774D01*
X15649191Y-20981774D02*
X15677763Y-20981774D01*
X15706334Y-20996060D01*
X15720620Y-21010346D01*
X15734906Y-21038917D01*
X15749191Y-21096060D01*
X15749191Y-21167489D01*
X15734906Y-21224632D01*
X15720620Y-21253203D01*
X15706334Y-21267489D01*
X15677763Y-21281774D01*
X15649191Y-21281774D01*
X15620620Y-21267489D01*
X15606334Y-21253203D01*
X15592048Y-21224632D01*
X15577763Y-21167489D01*
X15577763Y-21096060D01*
X15592048Y-21038917D01*
X15606334Y-21010346D01*
X15620620Y-20996060D01*
X15649191Y-20981774D01*
X15849191Y-20981774D02*
X16034906Y-20981774D01*
X15934906Y-21096060D01*
X15977763Y-21096060D01*
X16006334Y-21110346D01*
X16020620Y-21124632D01*
X16034906Y-21153203D01*
X16034906Y-21224632D01*
X16020620Y-21253203D01*
X16006334Y-21267489D01*
X15977763Y-21281774D01*
X15892048Y-21281774D01*
X15863477Y-21267489D01*
X15849191Y-21253203D01*
X16292048Y-20981774D02*
X16234906Y-20981774D01*
X16206334Y-20996060D01*
X16192048Y-21010346D01*
X16163477Y-21053203D01*
X16149191Y-21110346D01*
X16149191Y-21224632D01*
X16163477Y-21253203D01*
X16177763Y-21267489D01*
X16206334Y-21281774D01*
X16263477Y-21281774D01*
X16292048Y-21267489D01*
X16306334Y-21253203D01*
X16320620Y-21224632D01*
X16320620Y-21153203D01*
X16306334Y-21124632D01*
X16292048Y-21110346D01*
X16263477Y-21096060D01*
X16206334Y-21096060D01*
X16177763Y-21110346D01*
X16163477Y-21124632D01*
X16149191Y-21153203D01*
X16434906Y-20981774D02*
X16434906Y-21038917D01*
X16549191Y-20981774D02*
X16549191Y-21038917D01*
X16992048Y-21396060D02*
X16977763Y-21381774D01*
X16949191Y-21338917D01*
X16934906Y-21310346D01*
X16920620Y-21267489D01*
X16906334Y-21196060D01*
X16906334Y-21138917D01*
X16920620Y-21067489D01*
X16934906Y-21024632D01*
X16949191Y-20996060D01*
X16977763Y-20953203D01*
X16992048Y-20938917D01*
X17234906Y-21081774D02*
X17234906Y-21281774D01*
X17163477Y-20967489D02*
X17092048Y-21181774D01*
X17277763Y-21181774D01*
X17620620Y-21281774D02*
X17620620Y-20981774D01*
X17749191Y-21281774D02*
X17749191Y-21124632D01*
X17734906Y-21096060D01*
X17706334Y-21081774D01*
X17663477Y-21081774D01*
X17634906Y-21096060D01*
X17620620Y-21110346D01*
X17934906Y-21281774D02*
X17906334Y-21267489D01*
X17892048Y-21253203D01*
X17877763Y-21224632D01*
X17877763Y-21138917D01*
X17892048Y-21110346D01*
X17906334Y-21096060D01*
X17934906Y-21081774D01*
X17977763Y-21081774D01*
X18006334Y-21096060D01*
X18020620Y-21110346D01*
X18034906Y-21138917D01*
X18034906Y-21224632D01*
X18020620Y-21253203D01*
X18006334Y-21267489D01*
X17977763Y-21281774D01*
X17934906Y-21281774D01*
X18206334Y-21281774D02*
X18177763Y-21267489D01*
X18163477Y-21238917D01*
X18163477Y-20981774D01*
X18434906Y-21267489D02*
X18406334Y-21281774D01*
X18349191Y-21281774D01*
X18320620Y-21267489D01*
X18306334Y-21238917D01*
X18306334Y-21124632D01*
X18320620Y-21096060D01*
X18349191Y-21081774D01*
X18406334Y-21081774D01*
X18434906Y-21096060D01*
X18449191Y-21124632D01*
X18449191Y-21153203D01*
X18306334Y-21181774D01*
X18563477Y-21267489D02*
X18592048Y-21281774D01*
X18649191Y-21281774D01*
X18677763Y-21267489D01*
X18692048Y-21238917D01*
X18692048Y-21224632D01*
X18677763Y-21196060D01*
X18649191Y-21181774D01*
X18606334Y-21181774D01*
X18577763Y-21167489D01*
X18563477Y-21138917D01*
X18563477Y-21124632D01*
X18577763Y-21096060D01*
X18606334Y-21081774D01*
X18649191Y-21081774D01*
X18677763Y-21096060D01*
X18792048Y-21396060D02*
X18806334Y-21381774D01*
X18834906Y-21338917D01*
X18849191Y-21310346D01*
X18863477Y-21267489D01*
X18877763Y-21196060D01*
X18877763Y-21138917D01*
X18863477Y-21067489D01*
X18849191Y-21024632D01*
X18834906Y-20996060D01*
X18806334Y-20953203D01*
X18792048Y-20938917D01*
X12255620Y-21592060D02*
X12305620Y-21542060D01*
X12255620Y-21492060D01*
X12205620Y-21542060D01*
X12255620Y-21592060D01*
X12305620Y-21542060D02*
G75*
G03*
X12305620Y-21542060I-50000J0D01*
G01*
X12749191Y-21677774D02*
X12577763Y-21677774D01*
X12663477Y-21677774D02*
X12663477Y-21377774D01*
X12634906Y-21420632D01*
X12606334Y-21449203D01*
X12577763Y-21463489D01*
X12877763Y-21649203D02*
X12892048Y-21663489D01*
X12877763Y-21677774D01*
X12863477Y-21663489D01*
X12877763Y-21649203D01*
X12877763Y-21677774D01*
X13077763Y-21377774D02*
X13106334Y-21377774D01*
X13134906Y-21392060D01*
X13149191Y-21406346D01*
X13163477Y-21434917D01*
X13177763Y-21492060D01*
X13177763Y-21563489D01*
X13163477Y-21620632D01*
X13149191Y-21649203D01*
X13134906Y-21663489D01*
X13106334Y-21677774D01*
X13077763Y-21677774D01*
X13049191Y-21663489D01*
X13034906Y-21649203D01*
X13020620Y-21620632D01*
X13006334Y-21563489D01*
X13006334Y-21492060D01*
X13020620Y-21434917D01*
X13034906Y-21406346D01*
X13049191Y-21392060D01*
X13077763Y-21377774D01*
X13363477Y-21377774D02*
X13392048Y-21377774D01*
X13420620Y-21392060D01*
X13434906Y-21406346D01*
X13449191Y-21434917D01*
X13463477Y-21492060D01*
X13463477Y-21563489D01*
X13449191Y-21620632D01*
X13434906Y-21649203D01*
X13420620Y-21663489D01*
X13392048Y-21677774D01*
X13363477Y-21677774D01*
X13334906Y-21663489D01*
X13320620Y-21649203D01*
X13306334Y-21620632D01*
X13292048Y-21563489D01*
X13292048Y-21492060D01*
X13306334Y-21434917D01*
X13320620Y-21406346D01*
X13334906Y-21392060D01*
X13363477Y-21377774D01*
X13592048Y-21677774D02*
X13592048Y-21477774D01*
X13592048Y-21506346D02*
X13606334Y-21492060D01*
X13634906Y-21477774D01*
X13677763Y-21477774D01*
X13706334Y-21492060D01*
X13720620Y-21520632D01*
X13720620Y-21677774D01*
X13720620Y-21520632D02*
X13734906Y-21492060D01*
X13763477Y-21477774D01*
X13806334Y-21477774D01*
X13834906Y-21492060D01*
X13849191Y-21520632D01*
X13849191Y-21677774D01*
X13992048Y-21677774D02*
X13992048Y-21477774D01*
X13992048Y-21506346D02*
X14006334Y-21492060D01*
X14034906Y-21477774D01*
X14077763Y-21477774D01*
X14106334Y-21492060D01*
X14120620Y-21520632D01*
X14120620Y-21677774D01*
X14120620Y-21520632D02*
X14134906Y-21492060D01*
X14163477Y-21477774D01*
X14206334Y-21477774D01*
X14234906Y-21492060D01*
X14249191Y-21520632D01*
X14249191Y-21677774D01*
X14834906Y-21363489D02*
X14577763Y-21749203D01*
X15220620Y-21377774D02*
X15249191Y-21377774D01*
X15277763Y-21392060D01*
X15292048Y-21406346D01*
X15306334Y-21434917D01*
X15320620Y-21492060D01*
X15320620Y-21563489D01*
X15306334Y-21620632D01*
X15292048Y-21649203D01*
X15277763Y-21663489D01*
X15249191Y-21677774D01*
X15220620Y-21677774D01*
X15192048Y-21663489D01*
X15177763Y-21649203D01*
X15163477Y-21620632D01*
X15149191Y-21563489D01*
X15149191Y-21492060D01*
X15163477Y-21434917D01*
X15177763Y-21406346D01*
X15192048Y-21392060D01*
X15220620Y-21377774D01*
X15449191Y-21649203D02*
X15463477Y-21663489D01*
X15449191Y-21677774D01*
X15434906Y-21663489D01*
X15449191Y-21649203D01*
X15449191Y-21677774D01*
X15649191Y-21377774D02*
X15677763Y-21377774D01*
X15706334Y-21392060D01*
X15720620Y-21406346D01*
X15734906Y-21434917D01*
X15749191Y-21492060D01*
X15749191Y-21563489D01*
X15734906Y-21620632D01*
X15720620Y-21649203D01*
X15706334Y-21663489D01*
X15677763Y-21677774D01*
X15649191Y-21677774D01*
X15620620Y-21663489D01*
X15606334Y-21649203D01*
X15592048Y-21620632D01*
X15577763Y-21563489D01*
X15577763Y-21492060D01*
X15592048Y-21434917D01*
X15606334Y-21406346D01*
X15620620Y-21392060D01*
X15649191Y-21377774D01*
X15849191Y-21377774D02*
X16034906Y-21377774D01*
X15934906Y-21492060D01*
X15977763Y-21492060D01*
X16006334Y-21506346D01*
X16020620Y-21520632D01*
X16034906Y-21549203D01*
X16034906Y-21620632D01*
X16020620Y-21649203D01*
X16006334Y-21663489D01*
X15977763Y-21677774D01*
X15892048Y-21677774D01*
X15863477Y-21663489D01*
X15849191Y-21649203D01*
X16177763Y-21677774D02*
X16234906Y-21677774D01*
X16263477Y-21663489D01*
X16277763Y-21649203D01*
X16306334Y-21606346D01*
X16320620Y-21549203D01*
X16320620Y-21434917D01*
X16306334Y-21406346D01*
X16292048Y-21392060D01*
X16263477Y-21377774D01*
X16206334Y-21377774D01*
X16177763Y-21392060D01*
X16163477Y-21406346D01*
X16149191Y-21434917D01*
X16149191Y-21506346D01*
X16163477Y-21534917D01*
X16177763Y-21549203D01*
X16206334Y-21563489D01*
X16263477Y-21563489D01*
X16292048Y-21549203D01*
X16306334Y-21534917D01*
X16320620Y-21506346D01*
X16434906Y-21377774D02*
X16434906Y-21434917D01*
X16549191Y-21377774D02*
X16549191Y-21434917D01*
X16992048Y-21792060D02*
X16977763Y-21777774D01*
X16949191Y-21734917D01*
X16934906Y-21706346D01*
X16920620Y-21663489D01*
X16906334Y-21592060D01*
X16906334Y-21534917D01*
X16920620Y-21463489D01*
X16934906Y-21420632D01*
X16949191Y-21392060D01*
X16977763Y-21349203D01*
X16992048Y-21334917D01*
X17149191Y-21506346D02*
X17120620Y-21492060D01*
X17106334Y-21477774D01*
X17092048Y-21449203D01*
X17092048Y-21434917D01*
X17106334Y-21406346D01*
X17120620Y-21392060D01*
X17149191Y-21377774D01*
X17206334Y-21377774D01*
X17234906Y-21392060D01*
X17249191Y-21406346D01*
X17263477Y-21434917D01*
X17263477Y-21449203D01*
X17249191Y-21477774D01*
X17234906Y-21492060D01*
X17206334Y-21506346D01*
X17149191Y-21506346D01*
X17120620Y-21520632D01*
X17106334Y-21534917D01*
X17092048Y-21563489D01*
X17092048Y-21620632D01*
X17106334Y-21649203D01*
X17120620Y-21663489D01*
X17149191Y-21677774D01*
X17206334Y-21677774D01*
X17234906Y-21663489D01*
X17249191Y-21649203D01*
X17263477Y-21620632D01*
X17263477Y-21563489D01*
X17249191Y-21534917D01*
X17234906Y-21520632D01*
X17206334Y-21506346D01*
X17434906Y-21506346D02*
X17406334Y-21492060D01*
X17392048Y-21477774D01*
X17377763Y-21449203D01*
X17377763Y-21434917D01*
X17392048Y-21406346D01*
X17406334Y-21392060D01*
X17434906Y-21377774D01*
X17492048Y-21377774D01*
X17520620Y-21392060D01*
X17534906Y-21406346D01*
X17549191Y-21434917D01*
X17549191Y-21449203D01*
X17534906Y-21477774D01*
X17520620Y-21492060D01*
X17492048Y-21506346D01*
X17434906Y-21506346D01*
X17406334Y-21520632D01*
X17392048Y-21534917D01*
X17377763Y-21563489D01*
X17377763Y-21620632D01*
X17392048Y-21649203D01*
X17406334Y-21663489D01*
X17434906Y-21677774D01*
X17492048Y-21677774D01*
X17520620Y-21663489D01*
X17534906Y-21649203D01*
X17549191Y-21620632D01*
X17549191Y-21563489D01*
X17534906Y-21534917D01*
X17520620Y-21520632D01*
X17492048Y-21506346D01*
X17906334Y-21677774D02*
X17906334Y-21377774D01*
X18034906Y-21677774D02*
X18034906Y-21520632D01*
X18020620Y-21492060D01*
X17992048Y-21477774D01*
X17949191Y-21477774D01*
X17920620Y-21492060D01*
X17906334Y-21506346D01*
X18220620Y-21677774D02*
X18192048Y-21663489D01*
X18177763Y-21649203D01*
X18163477Y-21620632D01*
X18163477Y-21534917D01*
X18177763Y-21506346D01*
X18192048Y-21492060D01*
X18220620Y-21477774D01*
X18263477Y-21477774D01*
X18292048Y-21492060D01*
X18306334Y-21506346D01*
X18320620Y-21534917D01*
X18320620Y-21620632D01*
X18306334Y-21649203D01*
X18292048Y-21663489D01*
X18263477Y-21677774D01*
X18220620Y-21677774D01*
X18492048Y-21677774D02*
X18463477Y-21663489D01*
X18449191Y-21634917D01*
X18449191Y-21377774D01*
X18720620Y-21663489D02*
X18692048Y-21677774D01*
X18634906Y-21677774D01*
X18606334Y-21663489D01*
X18592048Y-21634917D01*
X18592048Y-21520632D01*
X18606334Y-21492060D01*
X18634906Y-21477774D01*
X18692048Y-21477774D01*
X18720620Y-21492060D01*
X18734906Y-21520632D01*
X18734906Y-21549203D01*
X18592048Y-21577774D01*
X18849191Y-21663489D02*
X18877763Y-21677774D01*
X18934906Y-21677774D01*
X18963477Y-21663489D01*
X18977763Y-21634917D01*
X18977763Y-21620632D01*
X18963477Y-21592060D01*
X18934906Y-21577774D01*
X18892048Y-21577774D01*
X18863477Y-21563489D01*
X18849191Y-21534917D01*
X18849191Y-21520632D01*
X18863477Y-21492060D01*
X18892048Y-21477774D01*
X18934906Y-21477774D01*
X18963477Y-21492060D01*
X19334906Y-21563489D02*
X19563477Y-21563489D01*
X19449191Y-21677774D02*
X19449191Y-21449203D01*
X19906334Y-21377774D02*
X20092048Y-21377774D01*
X19992048Y-21492060D01*
X20034906Y-21492060D01*
X20063477Y-21506346D01*
X20077763Y-21520632D01*
X20092048Y-21549203D01*
X20092048Y-21620632D01*
X20077763Y-21649203D01*
X20063477Y-21663489D01*
X20034906Y-21677774D01*
X19949191Y-21677774D01*
X19920620Y-21663489D01*
X19906334Y-21649203D01*
X20434906Y-21663489D02*
X20463477Y-21677774D01*
X20520620Y-21677774D01*
X20549191Y-21663489D01*
X20563477Y-21634917D01*
X20563477Y-21620632D01*
X20549191Y-21592060D01*
X20520620Y-21577774D01*
X20477763Y-21577774D01*
X20449191Y-21563489D01*
X20434906Y-21534917D01*
X20434906Y-21520632D01*
X20449191Y-21492060D01*
X20477763Y-21477774D01*
X20520620Y-21477774D01*
X20549191Y-21492060D01*
X20734906Y-21677774D02*
X20706334Y-21663489D01*
X20692048Y-21634917D01*
X20692048Y-21377774D01*
X20892048Y-21677774D02*
X20863477Y-21663489D01*
X20849191Y-21649203D01*
X20834906Y-21620632D01*
X20834906Y-21534917D01*
X20849191Y-21506346D01*
X20863477Y-21492060D01*
X20892048Y-21477774D01*
X20934906Y-21477774D01*
X20963477Y-21492060D01*
X20977763Y-21506346D01*
X20992048Y-21534917D01*
X20992048Y-21620632D01*
X20977763Y-21649203D01*
X20963477Y-21663489D01*
X20934906Y-21677774D01*
X20892048Y-21677774D01*
X21077763Y-21477774D02*
X21192048Y-21477774D01*
X21120620Y-21377774D02*
X21120620Y-21634917D01*
X21134906Y-21663489D01*
X21163477Y-21677774D01*
X21192048Y-21677774D01*
X21277763Y-21663489D02*
X21306334Y-21677774D01*
X21363477Y-21677774D01*
X21392048Y-21663489D01*
X21406334Y-21634917D01*
X21406334Y-21620632D01*
X21392048Y-21592060D01*
X21363477Y-21577774D01*
X21320620Y-21577774D01*
X21292048Y-21563489D01*
X21277763Y-21534917D01*
X21277763Y-21520632D01*
X21292048Y-21492060D01*
X21320620Y-21477774D01*
X21363477Y-21477774D01*
X21392048Y-21492060D01*
X21506334Y-21792060D02*
X21520620Y-21777774D01*
X21549191Y-21734917D01*
X21563477Y-21706346D01*
X21577763Y-21663489D01*
X21592048Y-21592060D01*
X21592048Y-21534917D01*
X21577763Y-21463489D01*
X21563477Y-21420632D01*
X21549191Y-21392060D01*
X21520620Y-21349203D01*
X21506334Y-21334917D01*
X12189120Y-21821560D02*
X12189120Y-22054560D01*
X12072620Y-21938060D02*
X12305620Y-21938060D01*
X12271499Y-22020439D02*
X12271499Y-21855681D01*
X12106741Y-21855681D01*
X12106741Y-22020439D01*
X12271499Y-22020439D01*
X12577763Y-21802346D02*
X12592048Y-21788060D01*
X12620620Y-21773774D01*
X12692048Y-21773774D01*
X12720620Y-21788060D01*
X12734906Y-21802346D01*
X12749191Y-21830917D01*
X12749191Y-21859489D01*
X12734906Y-21902346D01*
X12563477Y-22073774D01*
X12749191Y-22073774D01*
X12877763Y-22045203D02*
X12892048Y-22059489D01*
X12877763Y-22073774D01*
X12863477Y-22059489D01*
X12877763Y-22045203D01*
X12877763Y-22073774D01*
X12992048Y-21773774D02*
X13177763Y-21773774D01*
X13077763Y-21888060D01*
X13120620Y-21888060D01*
X13149191Y-21902346D01*
X13163477Y-21916632D01*
X13177763Y-21945203D01*
X13177763Y-22016632D01*
X13163477Y-22045203D01*
X13149191Y-22059489D01*
X13120620Y-22073774D01*
X13034906Y-22073774D01*
X13006334Y-22059489D01*
X12992048Y-22045203D01*
X13277763Y-21773774D02*
X13463477Y-21773774D01*
X13363477Y-21888060D01*
X13406334Y-21888060D01*
X13434906Y-21902346D01*
X13449191Y-21916632D01*
X13463477Y-21945203D01*
X13463477Y-22016632D01*
X13449191Y-22045203D01*
X13434906Y-22059489D01*
X13406334Y-22073774D01*
X13320620Y-22073774D01*
X13292048Y-22059489D01*
X13277763Y-22045203D01*
X13592048Y-22073774D02*
X13592048Y-21873774D01*
X13592048Y-21902346D02*
X13606334Y-21888060D01*
X13634906Y-21873774D01*
X13677763Y-21873774D01*
X13706334Y-21888060D01*
X13720620Y-21916632D01*
X13720620Y-22073774D01*
X13720620Y-21916632D02*
X13734906Y-21888060D01*
X13763477Y-21873774D01*
X13806334Y-21873774D01*
X13834906Y-21888060D01*
X13849191Y-21916632D01*
X13849191Y-22073774D01*
X13992048Y-22073774D02*
X13992048Y-21873774D01*
X13992048Y-21902346D02*
X14006334Y-21888060D01*
X14034906Y-21873774D01*
X14077763Y-21873774D01*
X14106334Y-21888060D01*
X14120620Y-21916632D01*
X14120620Y-22073774D01*
X14120620Y-21916632D02*
X14134906Y-21888060D01*
X14163477Y-21873774D01*
X14206334Y-21873774D01*
X14234906Y-21888060D01*
X14249191Y-21916632D01*
X14249191Y-22073774D01*
X14834906Y-21759489D02*
X14577763Y-22145203D01*
X15220620Y-21773774D02*
X15249191Y-21773774D01*
X15277763Y-21788060D01*
X15292048Y-21802346D01*
X15306334Y-21830917D01*
X15320620Y-21888060D01*
X15320620Y-21959489D01*
X15306334Y-22016632D01*
X15292048Y-22045203D01*
X15277763Y-22059489D01*
X15249191Y-22073774D01*
X15220620Y-22073774D01*
X15192048Y-22059489D01*
X15177763Y-22045203D01*
X15163477Y-22016632D01*
X15149191Y-21959489D01*
X15149191Y-21888060D01*
X15163477Y-21830917D01*
X15177763Y-21802346D01*
X15192048Y-21788060D01*
X15220620Y-21773774D01*
X15449191Y-22045203D02*
X15463477Y-22059489D01*
X15449191Y-22073774D01*
X15434906Y-22059489D01*
X15449191Y-22045203D01*
X15449191Y-22073774D01*
X15649191Y-21773774D02*
X15677763Y-21773774D01*
X15706334Y-21788060D01*
X15720620Y-21802346D01*
X15734906Y-21830917D01*
X15749191Y-21888060D01*
X15749191Y-21959489D01*
X15734906Y-22016632D01*
X15720620Y-22045203D01*
X15706334Y-22059489D01*
X15677763Y-22073774D01*
X15649191Y-22073774D01*
X15620620Y-22059489D01*
X15606334Y-22045203D01*
X15592048Y-22016632D01*
X15577763Y-21959489D01*
X15577763Y-21888060D01*
X15592048Y-21830917D01*
X15606334Y-21802346D01*
X15620620Y-21788060D01*
X15649191Y-21773774D01*
X15892048Y-22073774D02*
X15949191Y-22073774D01*
X15977763Y-22059489D01*
X15992048Y-22045203D01*
X16020620Y-22002346D01*
X16034906Y-21945203D01*
X16034906Y-21830917D01*
X16020620Y-21802346D01*
X16006334Y-21788060D01*
X15977763Y-21773774D01*
X15920620Y-21773774D01*
X15892048Y-21788060D01*
X15877763Y-21802346D01*
X15863477Y-21830917D01*
X15863477Y-21902346D01*
X15877763Y-21930917D01*
X15892048Y-21945203D01*
X15920620Y-21959489D01*
X15977763Y-21959489D01*
X16006334Y-21945203D01*
X16020620Y-21930917D01*
X16034906Y-21902346D01*
X16149191Y-21802346D02*
X16163477Y-21788060D01*
X16192048Y-21773774D01*
X16263477Y-21773774D01*
X16292048Y-21788060D01*
X16306334Y-21802346D01*
X16320620Y-21830917D01*
X16320620Y-21859489D01*
X16306334Y-21902346D01*
X16134906Y-22073774D01*
X16320620Y-22073774D01*
X16434906Y-21773774D02*
X16434906Y-21830917D01*
X16549191Y-21773774D02*
X16549191Y-21830917D01*
X16992048Y-22188060D02*
X16977763Y-22173774D01*
X16949191Y-22130917D01*
X16934906Y-22102346D01*
X16920620Y-22059489D01*
X16906334Y-21988060D01*
X16906334Y-21930917D01*
X16920620Y-21859489D01*
X16934906Y-21816632D01*
X16949191Y-21788060D01*
X16977763Y-21745203D01*
X16992048Y-21730917D01*
X17092048Y-21802346D02*
X17106334Y-21788060D01*
X17134906Y-21773774D01*
X17206334Y-21773774D01*
X17234906Y-21788060D01*
X17249191Y-21802346D01*
X17263477Y-21830917D01*
X17263477Y-21859489D01*
X17249191Y-21902346D01*
X17077763Y-22073774D01*
X17263477Y-22073774D01*
X17620620Y-22073774D02*
X17620620Y-21773774D01*
X17749191Y-22073774D02*
X17749191Y-21916632D01*
X17734906Y-21888060D01*
X17706334Y-21873774D01*
X17663477Y-21873774D01*
X17634906Y-21888060D01*
X17620620Y-21902346D01*
X17934906Y-22073774D02*
X17906334Y-22059489D01*
X17892048Y-22045203D01*
X17877763Y-22016632D01*
X17877763Y-21930917D01*
X17892048Y-21902346D01*
X17906334Y-21888060D01*
X17934906Y-21873774D01*
X17977763Y-21873774D01*
X18006334Y-21888060D01*
X18020620Y-21902346D01*
X18034906Y-21930917D01*
X18034906Y-22016632D01*
X18020620Y-22045203D01*
X18006334Y-22059489D01*
X17977763Y-22073774D01*
X17934906Y-22073774D01*
X18206334Y-22073774D02*
X18177763Y-22059489D01*
X18163477Y-22030917D01*
X18163477Y-21773774D01*
X18434906Y-22059489D02*
X18406334Y-22073774D01*
X18349191Y-22073774D01*
X18320620Y-22059489D01*
X18306334Y-22030917D01*
X18306334Y-21916632D01*
X18320620Y-21888060D01*
X18349191Y-21873774D01*
X18406334Y-21873774D01*
X18434906Y-21888060D01*
X18449191Y-21916632D01*
X18449191Y-21945203D01*
X18306334Y-21973774D01*
X18563477Y-22059489D02*
X18592048Y-22073774D01*
X18649191Y-22073774D01*
X18677763Y-22059489D01*
X18692048Y-22030917D01*
X18692048Y-22016632D01*
X18677763Y-21988060D01*
X18649191Y-21973774D01*
X18606334Y-21973774D01*
X18577763Y-21959489D01*
X18563477Y-21930917D01*
X18563477Y-21916632D01*
X18577763Y-21888060D01*
X18606334Y-21873774D01*
X18649191Y-21873774D01*
X18677763Y-21888060D01*
X18792048Y-22188060D02*
X18806334Y-22173774D01*
X18834906Y-22130917D01*
X18849191Y-22102346D01*
X18863477Y-22059489D01*
X18877763Y-21988060D01*
X18877763Y-21930917D01*
X18863477Y-21859489D01*
X18849191Y-21816632D01*
X18834906Y-21788060D01*
X18806334Y-21745203D01*
X18792048Y-21730917D01*
M02*
