G04 #@! TF.GenerationSoftware,KiCad,Pcbnew,5.1.6-c6e7f7d~87~ubuntu16.04.1*
G04 #@! TF.CreationDate,2020-08-12T13:09:15+05:30*
G04 #@! TF.ProjectId,Aardonyx,41617264-6f6e-4797-982e-6b696361645f,v1.0*
G04 #@! TF.SameCoordinates,Original*
G04 #@! TF.FileFunction,Other,Fab,Bot*
%FSLAX46Y46*%
G04 Gerber Fmt 4.6, Leading zero omitted, Abs format (unit mm)*
G04 Created by KiCad (PCBNEW 5.1.6-c6e7f7d~87~ubuntu16.04.1) date 2020-08-12 13:09:15*
%MOMM*%
%LPD*%
G01*
G04 APERTURE LIST*
G04 #@! TA.AperFunction,Profile*
%ADD10C,0.100000*%
G04 #@! TD*
%ADD11C,0.100000*%
%ADD12C,0.150000*%
%ADD13C,0.060000*%
G04 APERTURE END LIST*
D10*
X281706200Y-45680600D02*
X281706200Y-162210600D01*
X123106200Y-45680600D02*
X281706200Y-45680600D01*
X123106200Y-162210600D02*
X123106200Y-45680600D01*
X281706200Y-162210600D02*
X123106200Y-162210600D01*
D11*
X142530000Y-139180000D02*
X142530000Y-140780000D01*
X142530000Y-140780000D02*
X145730000Y-140780000D01*
X145730000Y-140780000D02*
X145730000Y-139180000D01*
X145730000Y-139180000D02*
X142530000Y-139180000D01*
X162268000Y-143205000D02*
X163868000Y-143205000D01*
X163868000Y-143205000D02*
X163868000Y-140005000D01*
X163868000Y-140005000D02*
X162268000Y-140005000D01*
X162268000Y-140005000D02*
X162268000Y-143205000D01*
X155400000Y-144590000D02*
X153800000Y-144590000D01*
X153800000Y-144590000D02*
X153800000Y-147790000D01*
X153800000Y-147790000D02*
X155400000Y-147790000D01*
X155400000Y-147790000D02*
X155400000Y-144590000D01*
X182075200Y-111230600D02*
X182075200Y-111730600D01*
X182075200Y-111730600D02*
X183075200Y-111730600D01*
X183075200Y-111730600D02*
X183075200Y-111230600D01*
X183075200Y-111230600D02*
X182075200Y-111230600D01*
X172812000Y-69411000D02*
X172812000Y-69911000D01*
X172812000Y-69911000D02*
X173812000Y-69911000D01*
X173812000Y-69911000D02*
X173812000Y-69411000D01*
X173812000Y-69411000D02*
X172812000Y-69411000D01*
X182625000Y-69953000D02*
X182125000Y-69953000D01*
X182125000Y-69953000D02*
X182125000Y-70953000D01*
X182125000Y-70953000D02*
X182625000Y-70953000D01*
X182625000Y-70953000D02*
X182625000Y-69953000D01*
X190007000Y-80387000D02*
X190007000Y-79887000D01*
X190007000Y-79887000D02*
X189007000Y-79887000D01*
X189007000Y-79887000D02*
X189007000Y-80387000D01*
X189007000Y-80387000D02*
X190007000Y-80387000D01*
X173359000Y-63646800D02*
X173859000Y-63646800D01*
X173859000Y-63646800D02*
X173859000Y-62646800D01*
X173859000Y-62646800D02*
X173359000Y-62646800D01*
X173359000Y-62646800D02*
X173359000Y-63646800D01*
X189730000Y-95754000D02*
X189730000Y-95254000D01*
X189730000Y-95254000D02*
X188730000Y-95254000D01*
X188730000Y-95254000D02*
X188730000Y-95754000D01*
X188730000Y-95754000D02*
X189730000Y-95754000D01*
X175035400Y-63621400D02*
X175535400Y-63621400D01*
X175535400Y-63621400D02*
X175535400Y-62621400D01*
X175535400Y-62621400D02*
X175035400Y-62621400D01*
X175035400Y-62621400D02*
X175035400Y-63621400D01*
X189212000Y-90931000D02*
X189212000Y-90431000D01*
X189212000Y-90431000D02*
X188212000Y-90431000D01*
X188212000Y-90431000D02*
X188212000Y-90931000D01*
X188212000Y-90931000D02*
X189212000Y-90931000D01*
X166325600Y-69895200D02*
X165825600Y-69895200D01*
X165825600Y-69895200D02*
X165825600Y-70895200D01*
X165825600Y-70895200D02*
X166325600Y-70895200D01*
X166325600Y-70895200D02*
X166325600Y-69895200D01*
X189753000Y-98675000D02*
X189753000Y-98175000D01*
X189753000Y-98175000D02*
X188753000Y-98175000D01*
X188753000Y-98175000D02*
X188753000Y-98675000D01*
X188753000Y-98675000D02*
X189753000Y-98675000D01*
X167606000Y-69903000D02*
X167106000Y-69903000D01*
X167106000Y-69903000D02*
X167106000Y-70903000D01*
X167106000Y-70903000D02*
X167606000Y-70903000D01*
X167606000Y-70903000D02*
X167606000Y-69903000D01*
X155606000Y-93857000D02*
X155606000Y-94357000D01*
X155606000Y-94357000D02*
X156606000Y-94357000D01*
X156606000Y-94357000D02*
X156606000Y-93857000D01*
X156606000Y-93857000D02*
X155606000Y-93857000D01*
X179577000Y-69953000D02*
X179077000Y-69953000D01*
X179077000Y-69953000D02*
X179077000Y-70953000D01*
X179077000Y-70953000D02*
X179577000Y-70953000D01*
X179577000Y-70953000D02*
X179577000Y-69953000D01*
X155710000Y-86110000D02*
X155710000Y-86610000D01*
X155710000Y-86610000D02*
X156710000Y-86610000D01*
X156710000Y-86610000D02*
X156710000Y-86110000D01*
X156710000Y-86110000D02*
X155710000Y-86110000D01*
X181228000Y-69953000D02*
X180728000Y-69953000D01*
X180728000Y-69953000D02*
X180728000Y-70953000D01*
X180728000Y-70953000D02*
X181228000Y-70953000D01*
X181228000Y-70953000D02*
X181228000Y-69953000D01*
X155608400Y-92587000D02*
X155608400Y-93087000D01*
X155608400Y-93087000D02*
X156608400Y-93087000D01*
X156608400Y-93087000D02*
X156608400Y-92587000D01*
X156608400Y-92587000D02*
X155608400Y-92587000D01*
X155710000Y-77347000D02*
X155710000Y-77847000D01*
X155710000Y-77847000D02*
X156710000Y-77847000D01*
X156710000Y-77847000D02*
X156710000Y-77347000D01*
X156710000Y-77347000D02*
X155710000Y-77347000D01*
X155733000Y-84967000D02*
X155733000Y-85467000D01*
X155733000Y-85467000D02*
X156733000Y-85467000D01*
X156733000Y-85467000D02*
X156733000Y-84967000D01*
X156733000Y-84967000D02*
X155733000Y-84967000D01*
X136720200Y-98471800D02*
X136720200Y-97971800D01*
X136720200Y-97971800D02*
X135720200Y-97971800D01*
X135720200Y-97971800D02*
X135720200Y-98471800D01*
X135720200Y-98471800D02*
X136720200Y-98471800D01*
X130026600Y-97119200D02*
X130526600Y-97119200D01*
X130526600Y-97119200D02*
X130526600Y-96119200D01*
X130526600Y-96119200D02*
X130026600Y-96119200D01*
X130026600Y-96119200D02*
X130026600Y-97119200D01*
X168634600Y-125747400D02*
X169134600Y-125747400D01*
X169134600Y-125747400D02*
X169134600Y-124747400D01*
X169134600Y-124747400D02*
X168634600Y-124747400D01*
X168634600Y-124747400D02*
X168634600Y-125747400D01*
X134475600Y-81893600D02*
X134475600Y-82393600D01*
X134475600Y-82393600D02*
X135475600Y-82393600D01*
X135475600Y-82393600D02*
X135475600Y-81893600D01*
X135475600Y-81893600D02*
X134475600Y-81893600D01*
X134475600Y-80776000D02*
X134475600Y-81276000D01*
X134475600Y-81276000D02*
X135475600Y-81276000D01*
X135475600Y-81276000D02*
X135475600Y-80776000D01*
X135475600Y-80776000D02*
X134475600Y-80776000D01*
X134374000Y-78896400D02*
X134374000Y-79396400D01*
X134374000Y-79396400D02*
X135374000Y-79396400D01*
X135374000Y-79396400D02*
X135374000Y-78896400D01*
X135374000Y-78896400D02*
X134374000Y-78896400D01*
X224417000Y-91825000D02*
X224417000Y-92325000D01*
X224417000Y-92325000D02*
X225417000Y-92325000D01*
X225417000Y-92325000D02*
X225417000Y-91825000D01*
X225417000Y-91825000D02*
X224417000Y-91825000D01*
X209034000Y-74799000D02*
X209034000Y-74299000D01*
X209034000Y-74299000D02*
X208034000Y-74299000D01*
X208034000Y-74299000D02*
X208034000Y-74799000D01*
X208034000Y-74799000D02*
X209034000Y-74799000D01*
X224417000Y-92968000D02*
X224417000Y-93468000D01*
X224417000Y-93468000D02*
X225417000Y-93468000D01*
X225417000Y-93468000D02*
X225417000Y-92968000D01*
X225417000Y-92968000D02*
X224417000Y-92968000D01*
X224417000Y-88777000D02*
X224417000Y-89277000D01*
X224417000Y-89277000D02*
X225417000Y-89277000D01*
X225417000Y-89277000D02*
X225417000Y-88777000D01*
X225417000Y-88777000D02*
X224417000Y-88777000D01*
X224417000Y-85856000D02*
X224417000Y-86356000D01*
X224417000Y-86356000D02*
X225417000Y-86356000D01*
X225417000Y-86356000D02*
X225417000Y-85856000D01*
X225417000Y-85856000D02*
X224417000Y-85856000D01*
X224417000Y-78871000D02*
X224417000Y-79371000D01*
X224417000Y-79371000D02*
X225417000Y-79371000D01*
X225417000Y-79371000D02*
X225417000Y-78871000D01*
X225417000Y-78871000D02*
X224417000Y-78871000D01*
X224417000Y-75823000D02*
X224417000Y-76323000D01*
X224417000Y-76323000D02*
X225417000Y-76323000D01*
X225417000Y-76323000D02*
X225417000Y-75823000D01*
X225417000Y-75823000D02*
X224417000Y-75823000D01*
X224417000Y-73029000D02*
X224417000Y-73529000D01*
X224417000Y-73529000D02*
X225417000Y-73529000D01*
X225417000Y-73529000D02*
X225417000Y-73029000D01*
X225417000Y-73029000D02*
X224417000Y-73029000D01*
X224417000Y-71886000D02*
X224417000Y-72386000D01*
X224417000Y-72386000D02*
X225417000Y-72386000D01*
X225417000Y-72386000D02*
X225417000Y-71886000D01*
X225417000Y-71886000D02*
X224417000Y-71886000D01*
X157973000Y-139725600D02*
X157973000Y-140225600D01*
X157973000Y-140225600D02*
X158973000Y-140225600D01*
X158973000Y-140225600D02*
X158973000Y-139725600D01*
X158973000Y-139725600D02*
X157973000Y-139725600D01*
X157474400Y-132050600D02*
X157474400Y-131550600D01*
X157474400Y-131550600D02*
X156474400Y-131550600D01*
X156474400Y-131550600D02*
X156474400Y-132050600D01*
X156474400Y-132050600D02*
X157474400Y-132050600D01*
X164220000Y-135680000D02*
X163720000Y-135680000D01*
X163720000Y-135680000D02*
X163720000Y-136680000D01*
X163720000Y-136680000D02*
X164220000Y-136680000D01*
X164220000Y-136680000D02*
X164220000Y-135680000D01*
X157996000Y-137418000D02*
X157996000Y-137918000D01*
X157996000Y-137918000D02*
X158996000Y-137918000D01*
X158996000Y-137918000D02*
X158996000Y-137418000D01*
X158996000Y-137418000D02*
X157996000Y-137418000D01*
X166131000Y-137735600D02*
X166131000Y-137235600D01*
X166131000Y-137235600D02*
X165131000Y-137235600D01*
X165131000Y-137235600D02*
X165131000Y-137735600D01*
X165131000Y-137735600D02*
X166131000Y-137735600D01*
X161167000Y-141724000D02*
X161667000Y-141724000D01*
X161667000Y-141724000D02*
X161667000Y-140724000D01*
X161667000Y-140724000D02*
X161167000Y-140724000D01*
X161167000Y-140724000D02*
X161167000Y-141724000D01*
X158754000Y-143271000D02*
X159254000Y-143271000D01*
X159254000Y-143271000D02*
X159254000Y-142271000D01*
X159254000Y-142271000D02*
X158754000Y-142271000D01*
X158754000Y-142271000D02*
X158754000Y-143271000D01*
X156628000Y-146312000D02*
X156128000Y-146312000D01*
X156128000Y-146312000D02*
X156128000Y-147312000D01*
X156128000Y-147312000D02*
X156628000Y-147312000D01*
X156628000Y-147312000D02*
X156628000Y-146312000D01*
X209034000Y-77847000D02*
X209034000Y-77347000D01*
X209034000Y-77347000D02*
X208034000Y-77347000D01*
X208034000Y-77347000D02*
X208034000Y-77847000D01*
X208034000Y-77847000D02*
X209034000Y-77847000D01*
X129633600Y-115286600D02*
X129633600Y-114786600D01*
X129633600Y-114786600D02*
X128633600Y-114786600D01*
X128633600Y-114786600D02*
X128633600Y-115286600D01*
X128633600Y-115286600D02*
X129633600Y-115286600D01*
X177577000Y-103763000D02*
X177577000Y-104263000D01*
X177577000Y-104263000D02*
X178577000Y-104263000D01*
X178577000Y-104263000D02*
X178577000Y-103763000D01*
X178577000Y-103763000D02*
X177577000Y-103763000D01*
X178316000Y-102620000D02*
X178316000Y-103120000D01*
X178316000Y-103120000D02*
X179316000Y-103120000D01*
X179316000Y-103120000D02*
X179316000Y-102620000D01*
X179316000Y-102620000D02*
X178316000Y-102620000D01*
X177704000Y-101604000D02*
X177704000Y-102104000D01*
X177704000Y-102104000D02*
X178704000Y-102104000D01*
X178704000Y-102104000D02*
X178704000Y-101604000D01*
X178704000Y-101604000D02*
X177704000Y-101604000D01*
X178570000Y-100588000D02*
X178570000Y-101088000D01*
X178570000Y-101088000D02*
X179570000Y-101088000D01*
X179570000Y-101088000D02*
X179570000Y-100588000D01*
X179570000Y-100588000D02*
X178570000Y-100588000D01*
X182657000Y-101604000D02*
X182657000Y-102104000D01*
X182657000Y-102104000D02*
X183657000Y-102104000D01*
X183657000Y-102104000D02*
X183657000Y-101604000D01*
X183657000Y-101604000D02*
X182657000Y-101604000D01*
X183269000Y-100461000D02*
X183269000Y-100961000D01*
X183269000Y-100961000D02*
X184269000Y-100961000D01*
X184269000Y-100961000D02*
X184269000Y-100461000D01*
X184269000Y-100461000D02*
X183269000Y-100461000D01*
X186190000Y-101858000D02*
X186190000Y-102358000D01*
X186190000Y-102358000D02*
X187190000Y-102358000D01*
X187190000Y-102358000D02*
X187190000Y-101858000D01*
X187190000Y-101858000D02*
X186190000Y-101858000D01*
X187079000Y-100588000D02*
X187079000Y-101088000D01*
X187079000Y-101088000D02*
X188079000Y-101088000D01*
X188079000Y-101088000D02*
X188079000Y-100588000D01*
X188079000Y-100588000D02*
X187079000Y-100588000D01*
X192928000Y-86991000D02*
X192928000Y-86491000D01*
X192928000Y-86491000D02*
X191928000Y-86491000D01*
X191928000Y-86491000D02*
X191928000Y-86991000D01*
X191928000Y-86991000D02*
X192928000Y-86991000D01*
X192905000Y-85746000D02*
X192905000Y-85246000D01*
X192905000Y-85246000D02*
X191905000Y-85246000D01*
X191905000Y-85246000D02*
X191905000Y-85746000D01*
X191905000Y-85746000D02*
X192905000Y-85746000D01*
X192905000Y-84586000D02*
X192905000Y-84086000D01*
X192905000Y-84086000D02*
X191905000Y-84086000D01*
X191905000Y-84086000D02*
X191905000Y-84586000D01*
X191905000Y-84586000D02*
X192905000Y-84586000D01*
X192905000Y-83486000D02*
X192905000Y-82986000D01*
X192905000Y-82986000D02*
X191905000Y-82986000D01*
X191905000Y-82986000D02*
X191905000Y-83486000D01*
X191905000Y-83486000D02*
X192905000Y-83486000D01*
X192905000Y-82419000D02*
X192905000Y-81919000D01*
X192905000Y-81919000D02*
X191905000Y-81919000D01*
X191905000Y-81919000D02*
X191905000Y-82419000D01*
X191905000Y-82419000D02*
X192905000Y-82419000D01*
X192905000Y-81403000D02*
X192905000Y-80903000D01*
X192905000Y-80903000D02*
X191905000Y-80903000D01*
X191905000Y-80903000D02*
X191905000Y-81403000D01*
X191905000Y-81403000D02*
X192905000Y-81403000D01*
X192905000Y-78355000D02*
X192905000Y-77855000D01*
X192905000Y-77855000D02*
X191905000Y-77855000D01*
X191905000Y-77855000D02*
X191905000Y-78355000D01*
X191905000Y-78355000D02*
X192905000Y-78355000D01*
X192905000Y-77339000D02*
X192905000Y-76839000D01*
X192905000Y-76839000D02*
X191905000Y-76839000D01*
X191905000Y-76839000D02*
X191905000Y-77339000D01*
X191905000Y-77339000D02*
X192905000Y-77339000D01*
X192905000Y-76323000D02*
X192905000Y-75823000D01*
X192905000Y-75823000D02*
X191905000Y-75823000D01*
X191905000Y-75823000D02*
X191905000Y-76323000D01*
X191905000Y-76323000D02*
X192905000Y-76323000D01*
X192905000Y-75307000D02*
X192905000Y-74807000D01*
X192905000Y-74807000D02*
X191905000Y-74807000D01*
X191905000Y-74807000D02*
X191905000Y-75307000D01*
X191905000Y-75307000D02*
X192905000Y-75307000D01*
X192905000Y-73275000D02*
X192905000Y-72775000D01*
X192905000Y-72775000D02*
X191905000Y-72775000D01*
X191905000Y-72775000D02*
X191905000Y-73275000D01*
X191905000Y-73275000D02*
X192905000Y-73275000D01*
X192905000Y-72259000D02*
X192905000Y-71759000D01*
X192905000Y-71759000D02*
X191905000Y-71759000D01*
X191905000Y-71759000D02*
X191905000Y-72259000D01*
X191905000Y-72259000D02*
X192905000Y-72259000D01*
X186559000Y-65921000D02*
X186059000Y-65921000D01*
X186059000Y-65921000D02*
X186059000Y-66921000D01*
X186059000Y-66921000D02*
X186559000Y-66921000D01*
X186559000Y-66921000D02*
X186559000Y-65921000D01*
X185035000Y-65944000D02*
X184535000Y-65944000D01*
X184535000Y-65944000D02*
X184535000Y-66944000D01*
X184535000Y-66944000D02*
X185035000Y-66944000D01*
X185035000Y-66944000D02*
X185035000Y-65944000D01*
X183765000Y-65944000D02*
X183265000Y-65944000D01*
X183265000Y-65944000D02*
X183265000Y-66944000D01*
X183265000Y-66944000D02*
X183765000Y-66944000D01*
X183765000Y-66944000D02*
X183765000Y-65944000D01*
X168918000Y-72648000D02*
X168918000Y-73148000D01*
X168918000Y-73148000D02*
X169918000Y-73148000D01*
X169918000Y-73148000D02*
X169918000Y-72648000D01*
X169918000Y-72648000D02*
X168918000Y-72648000D01*
X171054000Y-71632000D02*
X171054000Y-72132000D01*
X171054000Y-72132000D02*
X172054000Y-72132000D01*
X172054000Y-72132000D02*
X172054000Y-71632000D01*
X172054000Y-71632000D02*
X171054000Y-71632000D01*
X176903000Y-70735000D02*
X176903000Y-70235000D01*
X176903000Y-70235000D02*
X175903000Y-70235000D01*
X175903000Y-70235000D02*
X175903000Y-70735000D01*
X175903000Y-70735000D02*
X176903000Y-70735000D01*
X173490000Y-70870000D02*
X173490000Y-71370000D01*
X173490000Y-71370000D02*
X174490000Y-71370000D01*
X174490000Y-71370000D02*
X174490000Y-70870000D01*
X174490000Y-70870000D02*
X173490000Y-70870000D01*
X164727000Y-103763000D02*
X164727000Y-104263000D01*
X164727000Y-104263000D02*
X165727000Y-104263000D01*
X165727000Y-104263000D02*
X165727000Y-103763000D01*
X165727000Y-103763000D02*
X164727000Y-103763000D01*
X164727000Y-104906000D02*
X164727000Y-105406000D01*
X164727000Y-105406000D02*
X165727000Y-105406000D01*
X165727000Y-105406000D02*
X165727000Y-104906000D01*
X165727000Y-104906000D02*
X164727000Y-104906000D01*
X164750000Y-106176000D02*
X164750000Y-106676000D01*
X164750000Y-106676000D02*
X165750000Y-106676000D01*
X165750000Y-106676000D02*
X165750000Y-106176000D01*
X165750000Y-106176000D02*
X164750000Y-106176000D01*
X182024400Y-110113000D02*
X182024400Y-110613000D01*
X182024400Y-110613000D02*
X183024400Y-110613000D01*
X183024400Y-110613000D02*
X183024400Y-110113000D01*
X183024400Y-110113000D02*
X182024400Y-110113000D01*
X181976000Y-108970000D02*
X181976000Y-109470000D01*
X181976000Y-109470000D02*
X182976000Y-109470000D01*
X182976000Y-109470000D02*
X182976000Y-108970000D01*
X182976000Y-108970000D02*
X181976000Y-108970000D01*
X182103000Y-107319000D02*
X182103000Y-107819000D01*
X182103000Y-107819000D02*
X183103000Y-107819000D01*
X183103000Y-107819000D02*
X183103000Y-107319000D01*
X183103000Y-107319000D02*
X182103000Y-107319000D01*
X136122600Y-93489400D02*
X136622600Y-93489400D01*
X136622600Y-93489400D02*
X136622600Y-92489400D01*
X136622600Y-92489400D02*
X136122600Y-92489400D01*
X136122600Y-92489400D02*
X136122600Y-93489400D01*
X128451800Y-96435800D02*
X128951800Y-96435800D01*
X128951800Y-96435800D02*
X128951800Y-95435800D01*
X128951800Y-95435800D02*
X128451800Y-95435800D01*
X128451800Y-95435800D02*
X128451800Y-96435800D01*
X129975800Y-99585400D02*
X130475800Y-99585400D01*
X130475800Y-99585400D02*
X130475800Y-98585400D01*
X130475800Y-98585400D02*
X129975800Y-98585400D01*
X129975800Y-98585400D02*
X129975800Y-99585400D01*
X198262000Y-142998000D02*
X198262000Y-142498000D01*
X198262000Y-142498000D02*
X197262000Y-142498000D01*
X197262000Y-142498000D02*
X197262000Y-142998000D01*
X197262000Y-142998000D02*
X198262000Y-142998000D01*
X134424800Y-77728000D02*
X134424800Y-78228000D01*
X134424800Y-78228000D02*
X135424800Y-78228000D01*
X135424800Y-78228000D02*
X135424800Y-77728000D01*
X135424800Y-77728000D02*
X134424800Y-77728000D01*
X137507600Y-121255600D02*
X137507600Y-120755600D01*
X137507600Y-120755600D02*
X136507600Y-120755600D01*
X136507600Y-120755600D02*
X136507600Y-121255600D01*
X136507600Y-121255600D02*
X137507600Y-121255600D01*
X140225400Y-121230200D02*
X140225400Y-120730200D01*
X140225400Y-120730200D02*
X139225400Y-120730200D01*
X139225400Y-120730200D02*
X139225400Y-121230200D01*
X139225400Y-121230200D02*
X140225400Y-121230200D01*
X134990600Y-120138000D02*
X134990600Y-119638000D01*
X134990600Y-119638000D02*
X133990600Y-119638000D01*
X133990600Y-119638000D02*
X133990600Y-120138000D01*
X133990600Y-120138000D02*
X134990600Y-120138000D01*
X133919200Y-120933400D02*
X133919200Y-121433400D01*
X133919200Y-121433400D02*
X134919200Y-121433400D01*
X134919200Y-121433400D02*
X134919200Y-120933400D01*
X134919200Y-120933400D02*
X133919200Y-120933400D01*
X132402200Y-121484200D02*
X132402200Y-120984200D01*
X132402200Y-120984200D02*
X131402200Y-120984200D01*
X131402200Y-120984200D02*
X131402200Y-121484200D01*
X131402200Y-121484200D02*
X132402200Y-121484200D01*
X131379200Y-119663400D02*
X131379200Y-120163400D01*
X131379200Y-120163400D02*
X132379200Y-120163400D01*
X132379200Y-120163400D02*
X132379200Y-119663400D01*
X132379200Y-119663400D02*
X131379200Y-119663400D01*
X129910600Y-121357200D02*
X129910600Y-120857200D01*
X129910600Y-120857200D02*
X128910600Y-120857200D01*
X128910600Y-120857200D02*
X128910600Y-121357200D01*
X128910600Y-121357200D02*
X129910600Y-121357200D01*
X126763400Y-121154000D02*
X126763400Y-120654000D01*
X126763400Y-120654000D02*
X125763400Y-120654000D01*
X125763400Y-120654000D02*
X125763400Y-121154000D01*
X125763400Y-121154000D02*
X126763400Y-121154000D01*
X125788800Y-119536400D02*
X125788800Y-120036400D01*
X125788800Y-120036400D02*
X126788800Y-120036400D01*
X126788800Y-120036400D02*
X126788800Y-119536400D01*
X126788800Y-119536400D02*
X125788800Y-119536400D01*
X167771000Y-139946000D02*
X168271000Y-139946000D01*
X168271000Y-139946000D02*
X168271000Y-138946000D01*
X168271000Y-138946000D02*
X167771000Y-138946000D01*
X167771000Y-138946000D02*
X167771000Y-139946000D01*
X174429800Y-120933400D02*
X174429800Y-121433400D01*
X174429800Y-121433400D02*
X175429800Y-121433400D01*
X175429800Y-121433400D02*
X175429800Y-120933400D01*
X175429800Y-120933400D02*
X174429800Y-120933400D01*
X172905800Y-125657800D02*
X172905800Y-126157800D01*
X172905800Y-126157800D02*
X173905800Y-126157800D01*
X173905800Y-126157800D02*
X173905800Y-125657800D01*
X173905800Y-125657800D02*
X172905800Y-125657800D01*
X129713800Y-93251400D02*
X129213800Y-93251400D01*
X129213800Y-93251400D02*
X129213800Y-94251400D01*
X129213800Y-94251400D02*
X129713800Y-94251400D01*
X129713800Y-94251400D02*
X129713800Y-93251400D01*
X133535800Y-93399800D02*
X133535800Y-93899800D01*
X133535800Y-93899800D02*
X134535800Y-93899800D01*
X134535800Y-93899800D02*
X134535800Y-93399800D01*
X134535800Y-93399800D02*
X133535800Y-93399800D01*
X133535800Y-92028200D02*
X133535800Y-92528200D01*
X133535800Y-92528200D02*
X134535800Y-92528200D01*
X134535800Y-92528200D02*
X134535800Y-92028200D01*
X134535800Y-92028200D02*
X133535800Y-92028200D01*
X132253800Y-109974400D02*
X131753800Y-109974400D01*
X131753800Y-109974400D02*
X131753800Y-110974400D01*
X131753800Y-110974400D02*
X132253800Y-110974400D01*
X132253800Y-110974400D02*
X132253800Y-109974400D01*
X131753800Y-113479200D02*
X132253800Y-113479200D01*
X132253800Y-113479200D02*
X132253800Y-112479200D01*
X132253800Y-112479200D02*
X131753800Y-112479200D01*
X131753800Y-112479200D02*
X131753800Y-113479200D01*
X132253800Y-115019200D02*
X131753800Y-115019200D01*
X131753800Y-115019200D02*
X131753800Y-116019200D01*
X131753800Y-116019200D02*
X132253800Y-116019200D01*
X132253800Y-116019200D02*
X132253800Y-115019200D01*
X128961400Y-119638000D02*
X128961400Y-120138000D01*
X128961400Y-120138000D02*
X129961400Y-120138000D01*
X129961400Y-120138000D02*
X129961400Y-119638000D01*
X129961400Y-119638000D02*
X128961400Y-119638000D01*
X192905000Y-71243000D02*
X192905000Y-70743000D01*
X192905000Y-70743000D02*
X191905000Y-70743000D01*
X191905000Y-70743000D02*
X191905000Y-71243000D01*
X191905000Y-71243000D02*
X192905000Y-71243000D01*
X221759000Y-72446500D02*
X220759000Y-71446500D01*
X221757000Y-93660000D02*
X221757000Y-72440000D01*
X211597000Y-93660000D02*
X221757000Y-93660000D01*
X211597000Y-71440000D02*
X211597000Y-93660000D01*
X220757000Y-71440000D02*
X211597000Y-71440000D01*
X135574400Y-97442200D02*
X134724400Y-97442200D01*
X134224400Y-96942200D02*
X134224400Y-95242200D01*
X135574400Y-97442200D02*
X135574400Y-95242200D01*
X135574400Y-95242200D02*
X134224400Y-95242200D01*
X134724400Y-97442200D02*
X134224400Y-96942200D01*
X143122000Y-141762000D02*
X143122000Y-142262000D01*
X143122000Y-142262000D02*
X144122000Y-142262000D01*
X144122000Y-142262000D02*
X144122000Y-141762000D01*
X144122000Y-141762000D02*
X143122000Y-141762000D01*
X165350000Y-141232000D02*
X164850000Y-141232000D01*
X164850000Y-141232000D02*
X164850000Y-142232000D01*
X164850000Y-142232000D02*
X165350000Y-142232000D01*
X165350000Y-142232000D02*
X165350000Y-141232000D01*
X133280000Y-144150000D02*
X133280000Y-144950000D01*
X133280000Y-144950000D02*
X134880000Y-144950000D01*
X134880000Y-144950000D02*
X134880000Y-144150000D01*
X134880000Y-144150000D02*
X133280000Y-144150000D01*
D12*
X140829057Y-140527742D02*
X140876676Y-140575361D01*
X141019533Y-140622980D01*
X141114771Y-140622980D01*
X141257628Y-140575361D01*
X141352866Y-140480123D01*
X141400485Y-140384885D01*
X141448104Y-140194409D01*
X141448104Y-140051552D01*
X141400485Y-139861076D01*
X141352866Y-139765838D01*
X141257628Y-139670600D01*
X141114771Y-139622980D01*
X141019533Y-139622980D01*
X140876676Y-139670600D01*
X140829057Y-139718219D01*
X140495723Y-139622980D02*
X139829057Y-139622980D01*
X140257628Y-140622980D01*
X139019533Y-139956314D02*
X139019533Y-140622980D01*
X139257628Y-139575361D02*
X139495723Y-140289647D01*
X138876676Y-140289647D01*
X163425142Y-140962142D02*
X163472761Y-140914523D01*
X163520380Y-140771666D01*
X163520380Y-140676428D01*
X163472761Y-140533571D01*
X163377523Y-140438333D01*
X163282285Y-140390714D01*
X163091809Y-140343095D01*
X162948952Y-140343095D01*
X162758476Y-140390714D01*
X162663238Y-140438333D01*
X162568000Y-140533571D01*
X162520380Y-140676428D01*
X162520380Y-140771666D01*
X162568000Y-140914523D01*
X162615619Y-140962142D01*
X162520380Y-141295476D02*
X162520380Y-141962142D01*
X163520380Y-141533571D01*
X163520380Y-142390714D02*
X163520380Y-142581190D01*
X163472761Y-142676428D01*
X163425142Y-142724047D01*
X163282285Y-142819285D01*
X163091809Y-142866904D01*
X162710857Y-142866904D01*
X162615619Y-142819285D01*
X162568000Y-142771666D01*
X162520380Y-142676428D01*
X162520380Y-142485952D01*
X162568000Y-142390714D01*
X162615619Y-142343095D01*
X162710857Y-142295476D01*
X162948952Y-142295476D01*
X163044190Y-142343095D01*
X163091809Y-142390714D01*
X163139428Y-142485952D01*
X163139428Y-142676428D01*
X163091809Y-142771666D01*
X163044190Y-142819285D01*
X162948952Y-142866904D01*
X154957142Y-145547142D02*
X155004761Y-145499523D01*
X155052380Y-145356666D01*
X155052380Y-145261428D01*
X155004761Y-145118571D01*
X154909523Y-145023333D01*
X154814285Y-144975714D01*
X154623809Y-144928095D01*
X154480952Y-144928095D01*
X154290476Y-144975714D01*
X154195238Y-145023333D01*
X154100000Y-145118571D01*
X154052380Y-145261428D01*
X154052380Y-145356666D01*
X154100000Y-145499523D01*
X154147619Y-145547142D01*
X154480952Y-146118571D02*
X154433333Y-146023333D01*
X154385714Y-145975714D01*
X154290476Y-145928095D01*
X154242857Y-145928095D01*
X154147619Y-145975714D01*
X154100000Y-146023333D01*
X154052380Y-146118571D01*
X154052380Y-146309047D01*
X154100000Y-146404285D01*
X154147619Y-146451904D01*
X154242857Y-146499523D01*
X154290476Y-146499523D01*
X154385714Y-146451904D01*
X154433333Y-146404285D01*
X154480952Y-146309047D01*
X154480952Y-146118571D01*
X154528571Y-146023333D01*
X154576190Y-145975714D01*
X154671428Y-145928095D01*
X154861904Y-145928095D01*
X154957142Y-145975714D01*
X155004761Y-146023333D01*
X155052380Y-146118571D01*
X155052380Y-146309047D01*
X155004761Y-146404285D01*
X154957142Y-146451904D01*
X154861904Y-146499523D01*
X154671428Y-146499523D01*
X154576190Y-146451904D01*
X154528571Y-146404285D01*
X154480952Y-146309047D01*
X154052380Y-146832857D02*
X154052380Y-147451904D01*
X154433333Y-147118571D01*
X154433333Y-147261428D01*
X154480952Y-147356666D01*
X154528571Y-147404285D01*
X154623809Y-147451904D01*
X154861904Y-147451904D01*
X154957142Y-147404285D01*
X155004761Y-147356666D01*
X155052380Y-147261428D01*
X155052380Y-146975714D01*
X155004761Y-146880476D01*
X154957142Y-146832857D01*
X183218057Y-111837742D02*
X183265676Y-111885361D01*
X183408533Y-111932980D01*
X183503771Y-111932980D01*
X183646628Y-111885361D01*
X183741866Y-111790123D01*
X183789485Y-111694885D01*
X183837104Y-111504409D01*
X183837104Y-111361552D01*
X183789485Y-111171076D01*
X183741866Y-111075838D01*
X183646628Y-110980600D01*
X183503771Y-110932980D01*
X183408533Y-110932980D01*
X183265676Y-110980600D01*
X183218057Y-111028219D01*
X182313295Y-110932980D02*
X182789485Y-110932980D01*
X182837104Y-111409171D01*
X182789485Y-111361552D01*
X182694247Y-111313933D01*
X182456152Y-111313933D01*
X182360914Y-111361552D01*
X182313295Y-111409171D01*
X182265676Y-111504409D01*
X182265676Y-111742504D01*
X182313295Y-111837742D01*
X182360914Y-111885361D01*
X182456152Y-111932980D01*
X182694247Y-111932980D01*
X182789485Y-111885361D01*
X182837104Y-111837742D01*
X181408533Y-111266314D02*
X181408533Y-111932980D01*
X181646628Y-110885361D02*
X181884723Y-111599647D01*
X181265676Y-111599647D01*
X173478666Y-70018142D02*
X173526285Y-70065761D01*
X173669142Y-70113380D01*
X173764380Y-70113380D01*
X173907238Y-70065761D01*
X174002476Y-69970523D01*
X174050095Y-69875285D01*
X174097714Y-69684809D01*
X174097714Y-69541952D01*
X174050095Y-69351476D01*
X174002476Y-69256238D01*
X173907238Y-69161000D01*
X173764380Y-69113380D01*
X173669142Y-69113380D01*
X173526285Y-69161000D01*
X173478666Y-69208619D01*
X173145333Y-69113380D02*
X172478666Y-69113380D01*
X172907238Y-70113380D01*
X182732142Y-69810142D02*
X182779761Y-69762523D01*
X182827380Y-69619666D01*
X182827380Y-69524428D01*
X182779761Y-69381571D01*
X182684523Y-69286333D01*
X182589285Y-69238714D01*
X182398809Y-69191095D01*
X182255952Y-69191095D01*
X182065476Y-69238714D01*
X181970238Y-69286333D01*
X181875000Y-69381571D01*
X181827380Y-69524428D01*
X181827380Y-69619666D01*
X181875000Y-69762523D01*
X181922619Y-69810142D01*
X182827380Y-70762523D02*
X182827380Y-70191095D01*
X182827380Y-70476809D02*
X181827380Y-70476809D01*
X181970238Y-70381571D01*
X182065476Y-70286333D01*
X182113095Y-70191095D01*
X181827380Y-71381571D02*
X181827380Y-71476809D01*
X181875000Y-71572047D01*
X181922619Y-71619666D01*
X182017857Y-71667285D01*
X182208333Y-71714904D01*
X182446428Y-71714904D01*
X182636904Y-71667285D01*
X182732142Y-71619666D01*
X182779761Y-71572047D01*
X182827380Y-71476809D01*
X182827380Y-71381571D01*
X182779761Y-71286333D01*
X182732142Y-71238714D01*
X182636904Y-71191095D01*
X182446428Y-71143476D01*
X182208333Y-71143476D01*
X182017857Y-71191095D01*
X181922619Y-71238714D01*
X181875000Y-71286333D01*
X181827380Y-71381571D01*
X190149857Y-80494142D02*
X190197476Y-80541761D01*
X190340333Y-80589380D01*
X190435571Y-80589380D01*
X190578428Y-80541761D01*
X190673666Y-80446523D01*
X190721285Y-80351285D01*
X190768904Y-80160809D01*
X190768904Y-80017952D01*
X190721285Y-79827476D01*
X190673666Y-79732238D01*
X190578428Y-79637000D01*
X190435571Y-79589380D01*
X190340333Y-79589380D01*
X190197476Y-79637000D01*
X190149857Y-79684619D01*
X189768904Y-79684619D02*
X189721285Y-79637000D01*
X189626047Y-79589380D01*
X189387952Y-79589380D01*
X189292714Y-79637000D01*
X189245095Y-79684619D01*
X189197476Y-79779857D01*
X189197476Y-79875095D01*
X189245095Y-80017952D01*
X189816523Y-80589380D01*
X189197476Y-80589380D01*
X188340333Y-79922714D02*
X188340333Y-80589380D01*
X188578428Y-79541761D02*
X188816523Y-80256047D01*
X188197476Y-80256047D01*
X173966142Y-62980133D02*
X174013761Y-62932514D01*
X174061380Y-62789657D01*
X174061380Y-62694419D01*
X174013761Y-62551561D01*
X173918523Y-62456323D01*
X173823285Y-62408704D01*
X173632809Y-62361085D01*
X173489952Y-62361085D01*
X173299476Y-62408704D01*
X173204238Y-62456323D01*
X173109000Y-62551561D01*
X173061380Y-62694419D01*
X173061380Y-62789657D01*
X173109000Y-62932514D01*
X173156619Y-62980133D01*
X173156619Y-63361085D02*
X173109000Y-63408704D01*
X173061380Y-63503942D01*
X173061380Y-63742038D01*
X173109000Y-63837276D01*
X173156619Y-63884895D01*
X173251857Y-63932514D01*
X173347095Y-63932514D01*
X173489952Y-63884895D01*
X174061380Y-63313466D01*
X174061380Y-63932514D01*
X189872857Y-95861142D02*
X189920476Y-95908761D01*
X190063333Y-95956380D01*
X190158571Y-95956380D01*
X190301428Y-95908761D01*
X190396666Y-95813523D01*
X190444285Y-95718285D01*
X190491904Y-95527809D01*
X190491904Y-95384952D01*
X190444285Y-95194476D01*
X190396666Y-95099238D01*
X190301428Y-95004000D01*
X190158571Y-94956380D01*
X190063333Y-94956380D01*
X189920476Y-95004000D01*
X189872857Y-95051619D01*
X189539523Y-94956380D02*
X188920476Y-94956380D01*
X189253809Y-95337333D01*
X189110952Y-95337333D01*
X189015714Y-95384952D01*
X188968095Y-95432571D01*
X188920476Y-95527809D01*
X188920476Y-95765904D01*
X188968095Y-95861142D01*
X189015714Y-95908761D01*
X189110952Y-95956380D01*
X189396666Y-95956380D01*
X189491904Y-95908761D01*
X189539523Y-95861142D01*
X188444285Y-95956380D02*
X188253809Y-95956380D01*
X188158571Y-95908761D01*
X188110952Y-95861142D01*
X188015714Y-95718285D01*
X187968095Y-95527809D01*
X187968095Y-95146857D01*
X188015714Y-95051619D01*
X188063333Y-95004000D01*
X188158571Y-94956380D01*
X188349047Y-94956380D01*
X188444285Y-95004000D01*
X188491904Y-95051619D01*
X188539523Y-95146857D01*
X188539523Y-95384952D01*
X188491904Y-95480190D01*
X188444285Y-95527809D01*
X188349047Y-95575428D01*
X188158571Y-95575428D01*
X188063333Y-95527809D01*
X188015714Y-95480190D01*
X187968095Y-95384952D01*
X175642542Y-62954733D02*
X175690161Y-62907114D01*
X175737780Y-62764257D01*
X175737780Y-62669019D01*
X175690161Y-62526161D01*
X175594923Y-62430923D01*
X175499685Y-62383304D01*
X175309209Y-62335685D01*
X175166352Y-62335685D01*
X174975876Y-62383304D01*
X174880638Y-62430923D01*
X174785400Y-62526161D01*
X174737780Y-62669019D01*
X174737780Y-62764257D01*
X174785400Y-62907114D01*
X174833019Y-62954733D01*
X174737780Y-63288066D02*
X174737780Y-63907114D01*
X175118733Y-63573780D01*
X175118733Y-63716638D01*
X175166352Y-63811876D01*
X175213971Y-63859495D01*
X175309209Y-63907114D01*
X175547304Y-63907114D01*
X175642542Y-63859495D01*
X175690161Y-63811876D01*
X175737780Y-63716638D01*
X175737780Y-63430923D01*
X175690161Y-63335685D01*
X175642542Y-63288066D01*
X189354857Y-91038142D02*
X189402476Y-91085761D01*
X189545333Y-91133380D01*
X189640571Y-91133380D01*
X189783428Y-91085761D01*
X189878666Y-90990523D01*
X189926285Y-90895285D01*
X189973904Y-90704809D01*
X189973904Y-90561952D01*
X189926285Y-90371476D01*
X189878666Y-90276238D01*
X189783428Y-90181000D01*
X189640571Y-90133380D01*
X189545333Y-90133380D01*
X189402476Y-90181000D01*
X189354857Y-90228619D01*
X189021523Y-90133380D02*
X188402476Y-90133380D01*
X188735809Y-90514333D01*
X188592952Y-90514333D01*
X188497714Y-90561952D01*
X188450095Y-90609571D01*
X188402476Y-90704809D01*
X188402476Y-90942904D01*
X188450095Y-91038142D01*
X188497714Y-91085761D01*
X188592952Y-91133380D01*
X188878666Y-91133380D01*
X188973904Y-91085761D01*
X189021523Y-91038142D01*
X188069142Y-90133380D02*
X187402476Y-90133380D01*
X187831047Y-91133380D01*
X166432742Y-70228533D02*
X166480361Y-70180914D01*
X166527980Y-70038057D01*
X166527980Y-69942819D01*
X166480361Y-69799961D01*
X166385123Y-69704723D01*
X166289885Y-69657104D01*
X166099409Y-69609485D01*
X165956552Y-69609485D01*
X165766076Y-69657104D01*
X165670838Y-69704723D01*
X165575600Y-69799961D01*
X165527980Y-69942819D01*
X165527980Y-70038057D01*
X165575600Y-70180914D01*
X165623219Y-70228533D01*
X165527980Y-71133295D02*
X165527980Y-70657104D01*
X166004171Y-70609485D01*
X165956552Y-70657104D01*
X165908933Y-70752342D01*
X165908933Y-70990438D01*
X165956552Y-71085676D01*
X166004171Y-71133295D01*
X166099409Y-71180914D01*
X166337504Y-71180914D01*
X166432742Y-71133295D01*
X166480361Y-71085676D01*
X166527980Y-70990438D01*
X166527980Y-70752342D01*
X166480361Y-70657104D01*
X166432742Y-70609485D01*
X189895857Y-98782142D02*
X189943476Y-98829761D01*
X190086333Y-98877380D01*
X190181571Y-98877380D01*
X190324428Y-98829761D01*
X190419666Y-98734523D01*
X190467285Y-98639285D01*
X190514904Y-98448809D01*
X190514904Y-98305952D01*
X190467285Y-98115476D01*
X190419666Y-98020238D01*
X190324428Y-97925000D01*
X190181571Y-97877380D01*
X190086333Y-97877380D01*
X189943476Y-97925000D01*
X189895857Y-97972619D01*
X189038714Y-98210714D02*
X189038714Y-98877380D01*
X189276809Y-97829761D02*
X189514904Y-98544047D01*
X188895857Y-98544047D01*
X188372047Y-98305952D02*
X188467285Y-98258333D01*
X188514904Y-98210714D01*
X188562523Y-98115476D01*
X188562523Y-98067857D01*
X188514904Y-97972619D01*
X188467285Y-97925000D01*
X188372047Y-97877380D01*
X188181571Y-97877380D01*
X188086333Y-97925000D01*
X188038714Y-97972619D01*
X187991095Y-98067857D01*
X187991095Y-98115476D01*
X188038714Y-98210714D01*
X188086333Y-98258333D01*
X188181571Y-98305952D01*
X188372047Y-98305952D01*
X188467285Y-98353571D01*
X188514904Y-98401190D01*
X188562523Y-98496428D01*
X188562523Y-98686904D01*
X188514904Y-98782142D01*
X188467285Y-98829761D01*
X188372047Y-98877380D01*
X188181571Y-98877380D01*
X188086333Y-98829761D01*
X188038714Y-98782142D01*
X187991095Y-98686904D01*
X187991095Y-98496428D01*
X188038714Y-98401190D01*
X188086333Y-98353571D01*
X188181571Y-98305952D01*
X167713142Y-70236333D02*
X167760761Y-70188714D01*
X167808380Y-70045857D01*
X167808380Y-69950619D01*
X167760761Y-69807761D01*
X167665523Y-69712523D01*
X167570285Y-69664904D01*
X167379809Y-69617285D01*
X167236952Y-69617285D01*
X167046476Y-69664904D01*
X166951238Y-69712523D01*
X166856000Y-69807761D01*
X166808380Y-69950619D01*
X166808380Y-70045857D01*
X166856000Y-70188714D01*
X166903619Y-70236333D01*
X166808380Y-71093476D02*
X166808380Y-70903000D01*
X166856000Y-70807761D01*
X166903619Y-70760142D01*
X167046476Y-70664904D01*
X167236952Y-70617285D01*
X167617904Y-70617285D01*
X167713142Y-70664904D01*
X167760761Y-70712523D01*
X167808380Y-70807761D01*
X167808380Y-70998238D01*
X167760761Y-71093476D01*
X167713142Y-71141095D01*
X167617904Y-71188714D01*
X167379809Y-71188714D01*
X167284571Y-71141095D01*
X167236952Y-71093476D01*
X167189333Y-70998238D01*
X167189333Y-70807761D01*
X167236952Y-70712523D01*
X167284571Y-70664904D01*
X167379809Y-70617285D01*
X156748857Y-94464142D02*
X156796476Y-94511761D01*
X156939333Y-94559380D01*
X157034571Y-94559380D01*
X157177428Y-94511761D01*
X157272666Y-94416523D01*
X157320285Y-94321285D01*
X157367904Y-94130809D01*
X157367904Y-93987952D01*
X157320285Y-93797476D01*
X157272666Y-93702238D01*
X157177428Y-93607000D01*
X157034571Y-93559380D01*
X156939333Y-93559380D01*
X156796476Y-93607000D01*
X156748857Y-93654619D01*
X155891714Y-93892714D02*
X155891714Y-94559380D01*
X156129809Y-93511761D02*
X156367904Y-94226047D01*
X155748857Y-94226047D01*
X155415523Y-93654619D02*
X155367904Y-93607000D01*
X155272666Y-93559380D01*
X155034571Y-93559380D01*
X154939333Y-93607000D01*
X154891714Y-93654619D01*
X154844095Y-93749857D01*
X154844095Y-93845095D01*
X154891714Y-93987952D01*
X155463142Y-94559380D01*
X154844095Y-94559380D01*
X179684142Y-70286333D02*
X179731761Y-70238714D01*
X179779380Y-70095857D01*
X179779380Y-70000619D01*
X179731761Y-69857761D01*
X179636523Y-69762523D01*
X179541285Y-69714904D01*
X179350809Y-69667285D01*
X179207952Y-69667285D01*
X179017476Y-69714904D01*
X178922238Y-69762523D01*
X178827000Y-69857761D01*
X178779380Y-70000619D01*
X178779380Y-70095857D01*
X178827000Y-70238714D01*
X178874619Y-70286333D01*
X179207952Y-70857761D02*
X179160333Y-70762523D01*
X179112714Y-70714904D01*
X179017476Y-70667285D01*
X178969857Y-70667285D01*
X178874619Y-70714904D01*
X178827000Y-70762523D01*
X178779380Y-70857761D01*
X178779380Y-71048238D01*
X178827000Y-71143476D01*
X178874619Y-71191095D01*
X178969857Y-71238714D01*
X179017476Y-71238714D01*
X179112714Y-71191095D01*
X179160333Y-71143476D01*
X179207952Y-71048238D01*
X179207952Y-70857761D01*
X179255571Y-70762523D01*
X179303190Y-70714904D01*
X179398428Y-70667285D01*
X179588904Y-70667285D01*
X179684142Y-70714904D01*
X179731761Y-70762523D01*
X179779380Y-70857761D01*
X179779380Y-71048238D01*
X179731761Y-71143476D01*
X179684142Y-71191095D01*
X179588904Y-71238714D01*
X179398428Y-71238714D01*
X179303190Y-71191095D01*
X179255571Y-71143476D01*
X179207952Y-71048238D01*
X156852857Y-86717142D02*
X156900476Y-86764761D01*
X157043333Y-86812380D01*
X157138571Y-86812380D01*
X157281428Y-86764761D01*
X157376666Y-86669523D01*
X157424285Y-86574285D01*
X157471904Y-86383809D01*
X157471904Y-86240952D01*
X157424285Y-86050476D01*
X157376666Y-85955238D01*
X157281428Y-85860000D01*
X157138571Y-85812380D01*
X157043333Y-85812380D01*
X156900476Y-85860000D01*
X156852857Y-85907619D01*
X156519523Y-85812380D02*
X155900476Y-85812380D01*
X156233809Y-86193333D01*
X156090952Y-86193333D01*
X155995714Y-86240952D01*
X155948095Y-86288571D01*
X155900476Y-86383809D01*
X155900476Y-86621904D01*
X155948095Y-86717142D01*
X155995714Y-86764761D01*
X156090952Y-86812380D01*
X156376666Y-86812380D01*
X156471904Y-86764761D01*
X156519523Y-86717142D01*
X155519523Y-85907619D02*
X155471904Y-85860000D01*
X155376666Y-85812380D01*
X155138571Y-85812380D01*
X155043333Y-85860000D01*
X154995714Y-85907619D01*
X154948095Y-86002857D01*
X154948095Y-86098095D01*
X154995714Y-86240952D01*
X155567142Y-86812380D01*
X154948095Y-86812380D01*
X181335142Y-70286333D02*
X181382761Y-70238714D01*
X181430380Y-70095857D01*
X181430380Y-70000619D01*
X181382761Y-69857761D01*
X181287523Y-69762523D01*
X181192285Y-69714904D01*
X181001809Y-69667285D01*
X180858952Y-69667285D01*
X180668476Y-69714904D01*
X180573238Y-69762523D01*
X180478000Y-69857761D01*
X180430380Y-70000619D01*
X180430380Y-70095857D01*
X180478000Y-70238714D01*
X180525619Y-70286333D01*
X181430380Y-70762523D02*
X181430380Y-70953000D01*
X181382761Y-71048238D01*
X181335142Y-71095857D01*
X181192285Y-71191095D01*
X181001809Y-71238714D01*
X180620857Y-71238714D01*
X180525619Y-71191095D01*
X180478000Y-71143476D01*
X180430380Y-71048238D01*
X180430380Y-70857761D01*
X180478000Y-70762523D01*
X180525619Y-70714904D01*
X180620857Y-70667285D01*
X180858952Y-70667285D01*
X180954190Y-70714904D01*
X181001809Y-70762523D01*
X181049428Y-70857761D01*
X181049428Y-71048238D01*
X181001809Y-71143476D01*
X180954190Y-71191095D01*
X180858952Y-71238714D01*
X156751257Y-93194142D02*
X156798876Y-93241761D01*
X156941733Y-93289380D01*
X157036971Y-93289380D01*
X157179828Y-93241761D01*
X157275066Y-93146523D01*
X157322685Y-93051285D01*
X157370304Y-92860809D01*
X157370304Y-92717952D01*
X157322685Y-92527476D01*
X157275066Y-92432238D01*
X157179828Y-92337000D01*
X157036971Y-92289380D01*
X156941733Y-92289380D01*
X156798876Y-92337000D01*
X156751257Y-92384619D01*
X155894114Y-92622714D02*
X155894114Y-93289380D01*
X156132209Y-92241761D02*
X156370304Y-92956047D01*
X155751257Y-92956047D01*
X154846495Y-93289380D02*
X155417923Y-93289380D01*
X155132209Y-93289380D02*
X155132209Y-92289380D01*
X155227447Y-92432238D01*
X155322685Y-92527476D01*
X155417923Y-92575095D01*
X156852857Y-77954142D02*
X156900476Y-78001761D01*
X157043333Y-78049380D01*
X157138571Y-78049380D01*
X157281428Y-78001761D01*
X157376666Y-77906523D01*
X157424285Y-77811285D01*
X157471904Y-77620809D01*
X157471904Y-77477952D01*
X157424285Y-77287476D01*
X157376666Y-77192238D01*
X157281428Y-77097000D01*
X157138571Y-77049380D01*
X157043333Y-77049380D01*
X156900476Y-77097000D01*
X156852857Y-77144619D01*
X155900476Y-78049380D02*
X156471904Y-78049380D01*
X156186190Y-78049380D02*
X156186190Y-77049380D01*
X156281428Y-77192238D01*
X156376666Y-77287476D01*
X156471904Y-77335095D01*
X155424285Y-78049380D02*
X155233809Y-78049380D01*
X155138571Y-78001761D01*
X155090952Y-77954142D01*
X154995714Y-77811285D01*
X154948095Y-77620809D01*
X154948095Y-77239857D01*
X154995714Y-77144619D01*
X155043333Y-77097000D01*
X155138571Y-77049380D01*
X155329047Y-77049380D01*
X155424285Y-77097000D01*
X155471904Y-77144619D01*
X155519523Y-77239857D01*
X155519523Y-77477952D01*
X155471904Y-77573190D01*
X155424285Y-77620809D01*
X155329047Y-77668428D01*
X155138571Y-77668428D01*
X155043333Y-77620809D01*
X154995714Y-77573190D01*
X154948095Y-77477952D01*
X156875857Y-85574142D02*
X156923476Y-85621761D01*
X157066333Y-85669380D01*
X157161571Y-85669380D01*
X157304428Y-85621761D01*
X157399666Y-85526523D01*
X157447285Y-85431285D01*
X157494904Y-85240809D01*
X157494904Y-85097952D01*
X157447285Y-84907476D01*
X157399666Y-84812238D01*
X157304428Y-84717000D01*
X157161571Y-84669380D01*
X157066333Y-84669380D01*
X156923476Y-84717000D01*
X156875857Y-84764619D01*
X156542523Y-84669380D02*
X155923476Y-84669380D01*
X156256809Y-85050333D01*
X156113952Y-85050333D01*
X156018714Y-85097952D01*
X155971095Y-85145571D01*
X155923476Y-85240809D01*
X155923476Y-85478904D01*
X155971095Y-85574142D01*
X156018714Y-85621761D01*
X156113952Y-85669380D01*
X156399666Y-85669380D01*
X156494904Y-85621761D01*
X156542523Y-85574142D01*
X154971095Y-85669380D02*
X155542523Y-85669380D01*
X155256809Y-85669380D02*
X155256809Y-84669380D01*
X155352047Y-84812238D01*
X155447285Y-84907476D01*
X155542523Y-84955095D01*
X136909057Y-100047742D02*
X136956676Y-100095361D01*
X137099533Y-100142980D01*
X137194771Y-100142980D01*
X137337628Y-100095361D01*
X137432866Y-100000123D01*
X137480485Y-99904885D01*
X137528104Y-99714409D01*
X137528104Y-99571552D01*
X137480485Y-99381076D01*
X137432866Y-99285838D01*
X137337628Y-99190600D01*
X137194771Y-99142980D01*
X137099533Y-99142980D01*
X136956676Y-99190600D01*
X136909057Y-99238219D01*
X136051914Y-99476314D02*
X136051914Y-100142980D01*
X136290009Y-99095361D02*
X136528104Y-99809647D01*
X135909057Y-99809647D01*
X135623342Y-99142980D02*
X134956676Y-99142980D01*
X135385247Y-100142980D01*
X130633742Y-95976342D02*
X130681361Y-95928723D01*
X130728980Y-95785866D01*
X130728980Y-95690628D01*
X130681361Y-95547771D01*
X130586123Y-95452533D01*
X130490885Y-95404914D01*
X130300409Y-95357295D01*
X130157552Y-95357295D01*
X129967076Y-95404914D01*
X129871838Y-95452533D01*
X129776600Y-95547771D01*
X129728980Y-95690628D01*
X129728980Y-95785866D01*
X129776600Y-95928723D01*
X129824219Y-95976342D01*
X130062314Y-96833485D02*
X130728980Y-96833485D01*
X129681361Y-96595390D02*
X130395647Y-96357295D01*
X130395647Y-96976342D01*
X130062314Y-97785866D02*
X130728980Y-97785866D01*
X129681361Y-97547771D02*
X130395647Y-97309676D01*
X130395647Y-97928723D01*
X169241742Y-124604542D02*
X169289361Y-124556923D01*
X169336980Y-124414066D01*
X169336980Y-124318828D01*
X169289361Y-124175971D01*
X169194123Y-124080733D01*
X169098885Y-124033114D01*
X168908409Y-123985495D01*
X168765552Y-123985495D01*
X168575076Y-124033114D01*
X168479838Y-124080733D01*
X168384600Y-124175971D01*
X168336980Y-124318828D01*
X168336980Y-124414066D01*
X168384600Y-124556923D01*
X168432219Y-124604542D01*
X168336980Y-125509304D02*
X168336980Y-125033114D01*
X168813171Y-124985495D01*
X168765552Y-125033114D01*
X168717933Y-125128352D01*
X168717933Y-125366447D01*
X168765552Y-125461685D01*
X168813171Y-125509304D01*
X168908409Y-125556923D01*
X169146504Y-125556923D01*
X169241742Y-125509304D01*
X169289361Y-125461685D01*
X169336980Y-125366447D01*
X169336980Y-125128352D01*
X169289361Y-125033114D01*
X169241742Y-124985495D01*
X168336980Y-125890257D02*
X168336980Y-126556923D01*
X169336980Y-126128352D01*
X135618457Y-82500742D02*
X135666076Y-82548361D01*
X135808933Y-82595980D01*
X135904171Y-82595980D01*
X136047028Y-82548361D01*
X136142266Y-82453123D01*
X136189885Y-82357885D01*
X136237504Y-82167409D01*
X136237504Y-82024552D01*
X136189885Y-81834076D01*
X136142266Y-81738838D01*
X136047028Y-81643600D01*
X135904171Y-81595980D01*
X135808933Y-81595980D01*
X135666076Y-81643600D01*
X135618457Y-81691219D01*
X135237504Y-81691219D02*
X135189885Y-81643600D01*
X135094647Y-81595980D01*
X134856552Y-81595980D01*
X134761314Y-81643600D01*
X134713695Y-81691219D01*
X134666076Y-81786457D01*
X134666076Y-81881695D01*
X134713695Y-82024552D01*
X135285123Y-82595980D01*
X134666076Y-82595980D01*
X134094647Y-82024552D02*
X134189885Y-81976933D01*
X134237504Y-81929314D01*
X134285123Y-81834076D01*
X134285123Y-81786457D01*
X134237504Y-81691219D01*
X134189885Y-81643600D01*
X134094647Y-81595980D01*
X133904171Y-81595980D01*
X133808933Y-81643600D01*
X133761314Y-81691219D01*
X133713695Y-81786457D01*
X133713695Y-81834076D01*
X133761314Y-81929314D01*
X133808933Y-81976933D01*
X133904171Y-82024552D01*
X134094647Y-82024552D01*
X134189885Y-82072171D01*
X134237504Y-82119790D01*
X134285123Y-82215028D01*
X134285123Y-82405504D01*
X134237504Y-82500742D01*
X134189885Y-82548361D01*
X134094647Y-82595980D01*
X133904171Y-82595980D01*
X133808933Y-82548361D01*
X133761314Y-82500742D01*
X133713695Y-82405504D01*
X133713695Y-82215028D01*
X133761314Y-82119790D01*
X133808933Y-82072171D01*
X133904171Y-82024552D01*
X135618457Y-81383142D02*
X135666076Y-81430761D01*
X135808933Y-81478380D01*
X135904171Y-81478380D01*
X136047028Y-81430761D01*
X136142266Y-81335523D01*
X136189885Y-81240285D01*
X136237504Y-81049809D01*
X136237504Y-80906952D01*
X136189885Y-80716476D01*
X136142266Y-80621238D01*
X136047028Y-80526000D01*
X135904171Y-80478380D01*
X135808933Y-80478380D01*
X135666076Y-80526000D01*
X135618457Y-80573619D01*
X135237504Y-80573619D02*
X135189885Y-80526000D01*
X135094647Y-80478380D01*
X134856552Y-80478380D01*
X134761314Y-80526000D01*
X134713695Y-80573619D01*
X134666076Y-80668857D01*
X134666076Y-80764095D01*
X134713695Y-80906952D01*
X135285123Y-81478380D01*
X134666076Y-81478380D01*
X134332742Y-80478380D02*
X133666076Y-80478380D01*
X134094647Y-81478380D01*
X135516857Y-79503542D02*
X135564476Y-79551161D01*
X135707333Y-79598780D01*
X135802571Y-79598780D01*
X135945428Y-79551161D01*
X136040666Y-79455923D01*
X136088285Y-79360685D01*
X136135904Y-79170209D01*
X136135904Y-79027352D01*
X136088285Y-78836876D01*
X136040666Y-78741638D01*
X135945428Y-78646400D01*
X135802571Y-78598780D01*
X135707333Y-78598780D01*
X135564476Y-78646400D01*
X135516857Y-78694019D01*
X135135904Y-78694019D02*
X135088285Y-78646400D01*
X134993047Y-78598780D01*
X134754952Y-78598780D01*
X134659714Y-78646400D01*
X134612095Y-78694019D01*
X134564476Y-78789257D01*
X134564476Y-78884495D01*
X134612095Y-79027352D01*
X135183523Y-79598780D01*
X134564476Y-79598780D01*
X134231142Y-78598780D02*
X133612095Y-78598780D01*
X133945428Y-78979733D01*
X133802571Y-78979733D01*
X133707333Y-79027352D01*
X133659714Y-79074971D01*
X133612095Y-79170209D01*
X133612095Y-79408304D01*
X133659714Y-79503542D01*
X133707333Y-79551161D01*
X133802571Y-79598780D01*
X134088285Y-79598780D01*
X134183523Y-79551161D01*
X134231142Y-79503542D01*
X225559857Y-92432142D02*
X225607476Y-92479761D01*
X225750333Y-92527380D01*
X225845571Y-92527380D01*
X225988428Y-92479761D01*
X226083666Y-92384523D01*
X226131285Y-92289285D01*
X226178904Y-92098809D01*
X226178904Y-91955952D01*
X226131285Y-91765476D01*
X226083666Y-91670238D01*
X225988428Y-91575000D01*
X225845571Y-91527380D01*
X225750333Y-91527380D01*
X225607476Y-91575000D01*
X225559857Y-91622619D01*
X224702714Y-91860714D02*
X224702714Y-92527380D01*
X224940809Y-91479761D02*
X225178904Y-92194047D01*
X224559857Y-92194047D01*
X223988428Y-91527380D02*
X223893190Y-91527380D01*
X223797952Y-91575000D01*
X223750333Y-91622619D01*
X223702714Y-91717857D01*
X223655095Y-91908333D01*
X223655095Y-92146428D01*
X223702714Y-92336904D01*
X223750333Y-92432142D01*
X223797952Y-92479761D01*
X223893190Y-92527380D01*
X223988428Y-92527380D01*
X224083666Y-92479761D01*
X224131285Y-92432142D01*
X224178904Y-92336904D01*
X224226523Y-92146428D01*
X224226523Y-91908333D01*
X224178904Y-91717857D01*
X224131285Y-91622619D01*
X224083666Y-91575000D01*
X223988428Y-91527380D01*
X209176857Y-74906142D02*
X209224476Y-74953761D01*
X209367333Y-75001380D01*
X209462571Y-75001380D01*
X209605428Y-74953761D01*
X209700666Y-74858523D01*
X209748285Y-74763285D01*
X209795904Y-74572809D01*
X209795904Y-74429952D01*
X209748285Y-74239476D01*
X209700666Y-74144238D01*
X209605428Y-74049000D01*
X209462571Y-74001380D01*
X209367333Y-74001380D01*
X209224476Y-74049000D01*
X209176857Y-74096619D01*
X208224476Y-75001380D02*
X208795904Y-75001380D01*
X208510190Y-75001380D02*
X208510190Y-74001380D01*
X208605428Y-74144238D01*
X208700666Y-74239476D01*
X208795904Y-74287095D01*
X207319714Y-74001380D02*
X207795904Y-74001380D01*
X207843523Y-74477571D01*
X207795904Y-74429952D01*
X207700666Y-74382333D01*
X207462571Y-74382333D01*
X207367333Y-74429952D01*
X207319714Y-74477571D01*
X207272095Y-74572809D01*
X207272095Y-74810904D01*
X207319714Y-74906142D01*
X207367333Y-74953761D01*
X207462571Y-75001380D01*
X207700666Y-75001380D01*
X207795904Y-74953761D01*
X207843523Y-74906142D01*
X225559857Y-93575142D02*
X225607476Y-93622761D01*
X225750333Y-93670380D01*
X225845571Y-93670380D01*
X225988428Y-93622761D01*
X226083666Y-93527523D01*
X226131285Y-93432285D01*
X226178904Y-93241809D01*
X226178904Y-93098952D01*
X226131285Y-92908476D01*
X226083666Y-92813238D01*
X225988428Y-92718000D01*
X225845571Y-92670380D01*
X225750333Y-92670380D01*
X225607476Y-92718000D01*
X225559857Y-92765619D01*
X224702714Y-93003714D02*
X224702714Y-93670380D01*
X224940809Y-92622761D02*
X225178904Y-93337047D01*
X224559857Y-93337047D01*
X223702714Y-92670380D02*
X224178904Y-92670380D01*
X224226523Y-93146571D01*
X224178904Y-93098952D01*
X224083666Y-93051333D01*
X223845571Y-93051333D01*
X223750333Y-93098952D01*
X223702714Y-93146571D01*
X223655095Y-93241809D01*
X223655095Y-93479904D01*
X223702714Y-93575142D01*
X223750333Y-93622761D01*
X223845571Y-93670380D01*
X224083666Y-93670380D01*
X224178904Y-93622761D01*
X224226523Y-93575142D01*
X225559857Y-89384142D02*
X225607476Y-89431761D01*
X225750333Y-89479380D01*
X225845571Y-89479380D01*
X225988428Y-89431761D01*
X226083666Y-89336523D01*
X226131285Y-89241285D01*
X226178904Y-89050809D01*
X226178904Y-88907952D01*
X226131285Y-88717476D01*
X226083666Y-88622238D01*
X225988428Y-88527000D01*
X225845571Y-88479380D01*
X225750333Y-88479380D01*
X225607476Y-88527000D01*
X225559857Y-88574619D01*
X224702714Y-88812714D02*
X224702714Y-89479380D01*
X224940809Y-88431761D02*
X225178904Y-89146047D01*
X224559857Y-89146047D01*
X224274142Y-88479380D02*
X223655095Y-88479380D01*
X223988428Y-88860333D01*
X223845571Y-88860333D01*
X223750333Y-88907952D01*
X223702714Y-88955571D01*
X223655095Y-89050809D01*
X223655095Y-89288904D01*
X223702714Y-89384142D01*
X223750333Y-89431761D01*
X223845571Y-89479380D01*
X224131285Y-89479380D01*
X224226523Y-89431761D01*
X224274142Y-89384142D01*
X225559857Y-86463142D02*
X225607476Y-86510761D01*
X225750333Y-86558380D01*
X225845571Y-86558380D01*
X225988428Y-86510761D01*
X226083666Y-86415523D01*
X226131285Y-86320285D01*
X226178904Y-86129809D01*
X226178904Y-85986952D01*
X226131285Y-85796476D01*
X226083666Y-85701238D01*
X225988428Y-85606000D01*
X225845571Y-85558380D01*
X225750333Y-85558380D01*
X225607476Y-85606000D01*
X225559857Y-85653619D01*
X225226523Y-85558380D02*
X224607476Y-85558380D01*
X224940809Y-85939333D01*
X224797952Y-85939333D01*
X224702714Y-85986952D01*
X224655095Y-86034571D01*
X224607476Y-86129809D01*
X224607476Y-86367904D01*
X224655095Y-86463142D01*
X224702714Y-86510761D01*
X224797952Y-86558380D01*
X225083666Y-86558380D01*
X225178904Y-86510761D01*
X225226523Y-86463142D01*
X223702714Y-85558380D02*
X224178904Y-85558380D01*
X224226523Y-86034571D01*
X224178904Y-85986952D01*
X224083666Y-85939333D01*
X223845571Y-85939333D01*
X223750333Y-85986952D01*
X223702714Y-86034571D01*
X223655095Y-86129809D01*
X223655095Y-86367904D01*
X223702714Y-86463142D01*
X223750333Y-86510761D01*
X223845571Y-86558380D01*
X224083666Y-86558380D01*
X224178904Y-86510761D01*
X224226523Y-86463142D01*
X225559857Y-79478142D02*
X225607476Y-79525761D01*
X225750333Y-79573380D01*
X225845571Y-79573380D01*
X225988428Y-79525761D01*
X226083666Y-79430523D01*
X226131285Y-79335285D01*
X226178904Y-79144809D01*
X226178904Y-79001952D01*
X226131285Y-78811476D01*
X226083666Y-78716238D01*
X225988428Y-78621000D01*
X225845571Y-78573380D01*
X225750333Y-78573380D01*
X225607476Y-78621000D01*
X225559857Y-78668619D01*
X225178904Y-78668619D02*
X225131285Y-78621000D01*
X225036047Y-78573380D01*
X224797952Y-78573380D01*
X224702714Y-78621000D01*
X224655095Y-78668619D01*
X224607476Y-78763857D01*
X224607476Y-78859095D01*
X224655095Y-79001952D01*
X225226523Y-79573380D01*
X224607476Y-79573380D01*
X223750333Y-78573380D02*
X223940809Y-78573380D01*
X224036047Y-78621000D01*
X224083666Y-78668619D01*
X224178904Y-78811476D01*
X224226523Y-79001952D01*
X224226523Y-79382904D01*
X224178904Y-79478142D01*
X224131285Y-79525761D01*
X224036047Y-79573380D01*
X223845571Y-79573380D01*
X223750333Y-79525761D01*
X223702714Y-79478142D01*
X223655095Y-79382904D01*
X223655095Y-79144809D01*
X223702714Y-79049571D01*
X223750333Y-79001952D01*
X223845571Y-78954333D01*
X224036047Y-78954333D01*
X224131285Y-79001952D01*
X224178904Y-79049571D01*
X224226523Y-79144809D01*
X225559857Y-76430142D02*
X225607476Y-76477761D01*
X225750333Y-76525380D01*
X225845571Y-76525380D01*
X225988428Y-76477761D01*
X226083666Y-76382523D01*
X226131285Y-76287285D01*
X226178904Y-76096809D01*
X226178904Y-75953952D01*
X226131285Y-75763476D01*
X226083666Y-75668238D01*
X225988428Y-75573000D01*
X225845571Y-75525380D01*
X225750333Y-75525380D01*
X225607476Y-75573000D01*
X225559857Y-75620619D01*
X224607476Y-76525380D02*
X225178904Y-76525380D01*
X224893190Y-76525380D02*
X224893190Y-75525380D01*
X224988428Y-75668238D01*
X225083666Y-75763476D01*
X225178904Y-75811095D01*
X224036047Y-75953952D02*
X224131285Y-75906333D01*
X224178904Y-75858714D01*
X224226523Y-75763476D01*
X224226523Y-75715857D01*
X224178904Y-75620619D01*
X224131285Y-75573000D01*
X224036047Y-75525380D01*
X223845571Y-75525380D01*
X223750333Y-75573000D01*
X223702714Y-75620619D01*
X223655095Y-75715857D01*
X223655095Y-75763476D01*
X223702714Y-75858714D01*
X223750333Y-75906333D01*
X223845571Y-75953952D01*
X224036047Y-75953952D01*
X224131285Y-76001571D01*
X224178904Y-76049190D01*
X224226523Y-76144428D01*
X224226523Y-76334904D01*
X224178904Y-76430142D01*
X224131285Y-76477761D01*
X224036047Y-76525380D01*
X223845571Y-76525380D01*
X223750333Y-76477761D01*
X223702714Y-76430142D01*
X223655095Y-76334904D01*
X223655095Y-76144428D01*
X223702714Y-76049190D01*
X223750333Y-76001571D01*
X223845571Y-75953952D01*
X225609057Y-73687742D02*
X225656676Y-73735361D01*
X225799533Y-73782980D01*
X225894771Y-73782980D01*
X226037628Y-73735361D01*
X226132866Y-73640123D01*
X226180485Y-73544885D01*
X226228104Y-73354409D01*
X226228104Y-73211552D01*
X226180485Y-73021076D01*
X226132866Y-72925838D01*
X226037628Y-72830600D01*
X225894771Y-72782980D01*
X225799533Y-72782980D01*
X225656676Y-72830600D01*
X225609057Y-72878219D01*
X224656676Y-73782980D02*
X225228104Y-73782980D01*
X224942390Y-73782980D02*
X224942390Y-72782980D01*
X225037628Y-72925838D01*
X225132866Y-73021076D01*
X225228104Y-73068695D01*
X223799533Y-73116314D02*
X223799533Y-73782980D01*
X224037628Y-72735361D02*
X224275723Y-73449647D01*
X223656676Y-73449647D01*
X225559857Y-72493142D02*
X225607476Y-72540761D01*
X225750333Y-72588380D01*
X225845571Y-72588380D01*
X225988428Y-72540761D01*
X226083666Y-72445523D01*
X226131285Y-72350285D01*
X226178904Y-72159809D01*
X226178904Y-72016952D01*
X226131285Y-71826476D01*
X226083666Y-71731238D01*
X225988428Y-71636000D01*
X225845571Y-71588380D01*
X225750333Y-71588380D01*
X225607476Y-71636000D01*
X225559857Y-71683619D01*
X224607476Y-72588380D02*
X225178904Y-72588380D01*
X224893190Y-72588380D02*
X224893190Y-71588380D01*
X224988428Y-71731238D01*
X225083666Y-71826476D01*
X225178904Y-71874095D01*
X224226523Y-71683619D02*
X224178904Y-71636000D01*
X224083666Y-71588380D01*
X223845571Y-71588380D01*
X223750333Y-71636000D01*
X223702714Y-71683619D01*
X223655095Y-71778857D01*
X223655095Y-71874095D01*
X223702714Y-72016952D01*
X224274142Y-72588380D01*
X223655095Y-72588380D01*
X159115857Y-140332742D02*
X159163476Y-140380361D01*
X159306333Y-140427980D01*
X159401571Y-140427980D01*
X159544428Y-140380361D01*
X159639666Y-140285123D01*
X159687285Y-140189885D01*
X159734904Y-139999409D01*
X159734904Y-139856552D01*
X159687285Y-139666076D01*
X159639666Y-139570838D01*
X159544428Y-139475600D01*
X159401571Y-139427980D01*
X159306333Y-139427980D01*
X159163476Y-139475600D01*
X159115857Y-139523219D01*
X158782523Y-139427980D02*
X158115857Y-139427980D01*
X158544428Y-140427980D01*
X157306333Y-139427980D02*
X157496809Y-139427980D01*
X157592047Y-139475600D01*
X157639666Y-139523219D01*
X157734904Y-139666076D01*
X157782523Y-139856552D01*
X157782523Y-140237504D01*
X157734904Y-140332742D01*
X157687285Y-140380361D01*
X157592047Y-140427980D01*
X157401571Y-140427980D01*
X157306333Y-140380361D01*
X157258714Y-140332742D01*
X157211095Y-140237504D01*
X157211095Y-139999409D01*
X157258714Y-139904171D01*
X157306333Y-139856552D01*
X157401571Y-139808933D01*
X157592047Y-139808933D01*
X157687285Y-139856552D01*
X157734904Y-139904171D01*
X157782523Y-139999409D01*
X157617257Y-132157742D02*
X157664876Y-132205361D01*
X157807733Y-132252980D01*
X157902971Y-132252980D01*
X158045828Y-132205361D01*
X158141066Y-132110123D01*
X158188685Y-132014885D01*
X158236304Y-131824409D01*
X158236304Y-131681552D01*
X158188685Y-131491076D01*
X158141066Y-131395838D01*
X158045828Y-131300600D01*
X157902971Y-131252980D01*
X157807733Y-131252980D01*
X157664876Y-131300600D01*
X157617257Y-131348219D01*
X156712495Y-131252980D02*
X157188685Y-131252980D01*
X157236304Y-131729171D01*
X157188685Y-131681552D01*
X157093447Y-131633933D01*
X156855352Y-131633933D01*
X156760114Y-131681552D01*
X156712495Y-131729171D01*
X156664876Y-131824409D01*
X156664876Y-132062504D01*
X156712495Y-132157742D01*
X156760114Y-132205361D01*
X156855352Y-132252980D01*
X157093447Y-132252980D01*
X157188685Y-132205361D01*
X157236304Y-132157742D01*
X156188685Y-132252980D02*
X155998209Y-132252980D01*
X155902971Y-132205361D01*
X155855352Y-132157742D01*
X155760114Y-132014885D01*
X155712495Y-131824409D01*
X155712495Y-131443457D01*
X155760114Y-131348219D01*
X155807733Y-131300600D01*
X155902971Y-131252980D01*
X156093447Y-131252980D01*
X156188685Y-131300600D01*
X156236304Y-131348219D01*
X156283923Y-131443457D01*
X156283923Y-131681552D01*
X156236304Y-131776790D01*
X156188685Y-131824409D01*
X156093447Y-131872028D01*
X155902971Y-131872028D01*
X155807733Y-131824409D01*
X155760114Y-131776790D01*
X155712495Y-131681552D01*
X164327142Y-135537142D02*
X164374761Y-135489523D01*
X164422380Y-135346666D01*
X164422380Y-135251428D01*
X164374761Y-135108571D01*
X164279523Y-135013333D01*
X164184285Y-134965714D01*
X163993809Y-134918095D01*
X163850952Y-134918095D01*
X163660476Y-134965714D01*
X163565238Y-135013333D01*
X163470000Y-135108571D01*
X163422380Y-135251428D01*
X163422380Y-135346666D01*
X163470000Y-135489523D01*
X163517619Y-135537142D01*
X163422380Y-135870476D02*
X163422380Y-136537142D01*
X164422380Y-136108571D01*
X163422380Y-137108571D02*
X163422380Y-137203809D01*
X163470000Y-137299047D01*
X163517619Y-137346666D01*
X163612857Y-137394285D01*
X163803333Y-137441904D01*
X164041428Y-137441904D01*
X164231904Y-137394285D01*
X164327142Y-137346666D01*
X164374761Y-137299047D01*
X164422380Y-137203809D01*
X164422380Y-137108571D01*
X164374761Y-137013333D01*
X164327142Y-136965714D01*
X164231904Y-136918095D01*
X164041428Y-136870476D01*
X163803333Y-136870476D01*
X163612857Y-136918095D01*
X163517619Y-136965714D01*
X163470000Y-137013333D01*
X163422380Y-137108571D01*
X159138857Y-138025142D02*
X159186476Y-138072761D01*
X159329333Y-138120380D01*
X159424571Y-138120380D01*
X159567428Y-138072761D01*
X159662666Y-137977523D01*
X159710285Y-137882285D01*
X159757904Y-137691809D01*
X159757904Y-137548952D01*
X159710285Y-137358476D01*
X159662666Y-137263238D01*
X159567428Y-137168000D01*
X159424571Y-137120380D01*
X159329333Y-137120380D01*
X159186476Y-137168000D01*
X159138857Y-137215619D01*
X158805523Y-137120380D02*
X158138857Y-137120380D01*
X158567428Y-138120380D01*
X157805523Y-137215619D02*
X157757904Y-137168000D01*
X157662666Y-137120380D01*
X157424571Y-137120380D01*
X157329333Y-137168000D01*
X157281714Y-137215619D01*
X157234095Y-137310857D01*
X157234095Y-137406095D01*
X157281714Y-137548952D01*
X157853142Y-138120380D01*
X157234095Y-138120380D01*
X166273857Y-137842742D02*
X166321476Y-137890361D01*
X166464333Y-137937980D01*
X166559571Y-137937980D01*
X166702428Y-137890361D01*
X166797666Y-137795123D01*
X166845285Y-137699885D01*
X166892904Y-137509409D01*
X166892904Y-137366552D01*
X166845285Y-137176076D01*
X166797666Y-137080838D01*
X166702428Y-136985600D01*
X166559571Y-136937980D01*
X166464333Y-136937980D01*
X166321476Y-136985600D01*
X166273857Y-137033219D01*
X165940523Y-136937980D02*
X165273857Y-136937980D01*
X165702428Y-137937980D01*
X164988142Y-136937980D02*
X164369095Y-136937980D01*
X164702428Y-137318933D01*
X164559571Y-137318933D01*
X164464333Y-137366552D01*
X164416714Y-137414171D01*
X164369095Y-137509409D01*
X164369095Y-137747504D01*
X164416714Y-137842742D01*
X164464333Y-137890361D01*
X164559571Y-137937980D01*
X164845285Y-137937980D01*
X164940523Y-137890361D01*
X164988142Y-137842742D01*
X161774142Y-140581142D02*
X161821761Y-140533523D01*
X161869380Y-140390666D01*
X161869380Y-140295428D01*
X161821761Y-140152571D01*
X161726523Y-140057333D01*
X161631285Y-140009714D01*
X161440809Y-139962095D01*
X161297952Y-139962095D01*
X161107476Y-140009714D01*
X161012238Y-140057333D01*
X160917000Y-140152571D01*
X160869380Y-140295428D01*
X160869380Y-140390666D01*
X160917000Y-140533523D01*
X160964619Y-140581142D01*
X160869380Y-140914476D02*
X160869380Y-141581142D01*
X161869380Y-141152571D01*
X161297952Y-142104952D02*
X161250333Y-142009714D01*
X161202714Y-141962095D01*
X161107476Y-141914476D01*
X161059857Y-141914476D01*
X160964619Y-141962095D01*
X160917000Y-142009714D01*
X160869380Y-142104952D01*
X160869380Y-142295428D01*
X160917000Y-142390666D01*
X160964619Y-142438285D01*
X161059857Y-142485904D01*
X161107476Y-142485904D01*
X161202714Y-142438285D01*
X161250333Y-142390666D01*
X161297952Y-142295428D01*
X161297952Y-142104952D01*
X161345571Y-142009714D01*
X161393190Y-141962095D01*
X161488428Y-141914476D01*
X161678904Y-141914476D01*
X161774142Y-141962095D01*
X161821761Y-142009714D01*
X161869380Y-142104952D01*
X161869380Y-142295428D01*
X161821761Y-142390666D01*
X161774142Y-142438285D01*
X161678904Y-142485904D01*
X161488428Y-142485904D01*
X161393190Y-142438285D01*
X161345571Y-142390666D01*
X161297952Y-142295428D01*
X159361142Y-142128142D02*
X159408761Y-142080523D01*
X159456380Y-141937666D01*
X159456380Y-141842428D01*
X159408761Y-141699571D01*
X159313523Y-141604333D01*
X159218285Y-141556714D01*
X159027809Y-141509095D01*
X158884952Y-141509095D01*
X158694476Y-141556714D01*
X158599238Y-141604333D01*
X158504000Y-141699571D01*
X158456380Y-141842428D01*
X158456380Y-141937666D01*
X158504000Y-142080523D01*
X158551619Y-142128142D01*
X158456380Y-142461476D02*
X158456380Y-143128142D01*
X159456380Y-142699571D01*
X158456380Y-143985285D02*
X158456380Y-143509095D01*
X158932571Y-143461476D01*
X158884952Y-143509095D01*
X158837333Y-143604333D01*
X158837333Y-143842428D01*
X158884952Y-143937666D01*
X158932571Y-143985285D01*
X159027809Y-144032904D01*
X159265904Y-144032904D01*
X159361142Y-143985285D01*
X159408761Y-143937666D01*
X159456380Y-143842428D01*
X159456380Y-143604333D01*
X159408761Y-143509095D01*
X159361142Y-143461476D01*
X156735142Y-146169142D02*
X156782761Y-146121523D01*
X156830380Y-145978666D01*
X156830380Y-145883428D01*
X156782761Y-145740571D01*
X156687523Y-145645333D01*
X156592285Y-145597714D01*
X156401809Y-145550095D01*
X156258952Y-145550095D01*
X156068476Y-145597714D01*
X155973238Y-145645333D01*
X155878000Y-145740571D01*
X155830380Y-145883428D01*
X155830380Y-145978666D01*
X155878000Y-146121523D01*
X155925619Y-146169142D01*
X156258952Y-146740571D02*
X156211333Y-146645333D01*
X156163714Y-146597714D01*
X156068476Y-146550095D01*
X156020857Y-146550095D01*
X155925619Y-146597714D01*
X155878000Y-146645333D01*
X155830380Y-146740571D01*
X155830380Y-146931047D01*
X155878000Y-147026285D01*
X155925619Y-147073904D01*
X156020857Y-147121523D01*
X156068476Y-147121523D01*
X156163714Y-147073904D01*
X156211333Y-147026285D01*
X156258952Y-146931047D01*
X156258952Y-146740571D01*
X156306571Y-146645333D01*
X156354190Y-146597714D01*
X156449428Y-146550095D01*
X156639904Y-146550095D01*
X156735142Y-146597714D01*
X156782761Y-146645333D01*
X156830380Y-146740571D01*
X156830380Y-146931047D01*
X156782761Y-147026285D01*
X156735142Y-147073904D01*
X156639904Y-147121523D01*
X156449428Y-147121523D01*
X156354190Y-147073904D01*
X156306571Y-147026285D01*
X156258952Y-146931047D01*
X156163714Y-147978666D02*
X156830380Y-147978666D01*
X155782761Y-147740571D02*
X156497047Y-147502476D01*
X156497047Y-148121523D01*
X209176857Y-77954142D02*
X209224476Y-78001761D01*
X209367333Y-78049380D01*
X209462571Y-78049380D01*
X209605428Y-78001761D01*
X209700666Y-77906523D01*
X209748285Y-77811285D01*
X209795904Y-77620809D01*
X209795904Y-77477952D01*
X209748285Y-77287476D01*
X209700666Y-77192238D01*
X209605428Y-77097000D01*
X209462571Y-77049380D01*
X209367333Y-77049380D01*
X209224476Y-77097000D01*
X209176857Y-77144619D01*
X208795904Y-77144619D02*
X208748285Y-77097000D01*
X208653047Y-77049380D01*
X208414952Y-77049380D01*
X208319714Y-77097000D01*
X208272095Y-77144619D01*
X208224476Y-77239857D01*
X208224476Y-77335095D01*
X208272095Y-77477952D01*
X208843523Y-78049380D01*
X208224476Y-78049380D01*
X207272095Y-78049380D02*
X207843523Y-78049380D01*
X207557809Y-78049380D02*
X207557809Y-77049380D01*
X207653047Y-77192238D01*
X207748285Y-77287476D01*
X207843523Y-77335095D01*
X129776457Y-115488980D02*
X130109790Y-115012790D01*
X130347885Y-115488980D02*
X130347885Y-114488980D01*
X129966933Y-114488980D01*
X129871695Y-114536600D01*
X129824076Y-114584219D01*
X129776457Y-114679457D01*
X129776457Y-114822314D01*
X129824076Y-114917552D01*
X129871695Y-114965171D01*
X129966933Y-115012790D01*
X130347885Y-115012790D01*
X129300266Y-115488980D02*
X129109790Y-115488980D01*
X129014552Y-115441361D01*
X128966933Y-115393742D01*
X128871695Y-115250885D01*
X128824076Y-115060409D01*
X128824076Y-114679457D01*
X128871695Y-114584219D01*
X128919314Y-114536600D01*
X129014552Y-114488980D01*
X129205028Y-114488980D01*
X129300266Y-114536600D01*
X129347885Y-114584219D01*
X129395504Y-114679457D01*
X129395504Y-114917552D01*
X129347885Y-115012790D01*
X129300266Y-115060409D01*
X129205028Y-115108028D01*
X129014552Y-115108028D01*
X128919314Y-115060409D01*
X128871695Y-115012790D01*
X128824076Y-114917552D01*
X127966933Y-114488980D02*
X128157409Y-114488980D01*
X128252647Y-114536600D01*
X128300266Y-114584219D01*
X128395504Y-114727076D01*
X128443123Y-114917552D01*
X128443123Y-115298504D01*
X128395504Y-115393742D01*
X128347885Y-115441361D01*
X128252647Y-115488980D01*
X128062171Y-115488980D01*
X127966933Y-115441361D01*
X127919314Y-115393742D01*
X127871695Y-115298504D01*
X127871695Y-115060409D01*
X127919314Y-114965171D01*
X127966933Y-114917552D01*
X128062171Y-114869933D01*
X128252647Y-114869933D01*
X128347885Y-114917552D01*
X128395504Y-114965171D01*
X128443123Y-115060409D01*
X178719857Y-104465380D02*
X179053190Y-103989190D01*
X179291285Y-104465380D02*
X179291285Y-103465380D01*
X178910333Y-103465380D01*
X178815095Y-103513000D01*
X178767476Y-103560619D01*
X178719857Y-103655857D01*
X178719857Y-103798714D01*
X178767476Y-103893952D01*
X178815095Y-103941571D01*
X178910333Y-103989190D01*
X179291285Y-103989190D01*
X178386523Y-103465380D02*
X177719857Y-103465380D01*
X178148428Y-104465380D01*
X176910333Y-103798714D02*
X176910333Y-104465380D01*
X177148428Y-103417761D02*
X177386523Y-104132047D01*
X176767476Y-104132047D01*
X179458857Y-103322380D02*
X179792190Y-102846190D01*
X180030285Y-103322380D02*
X180030285Y-102322380D01*
X179649333Y-102322380D01*
X179554095Y-102370000D01*
X179506476Y-102417619D01*
X179458857Y-102512857D01*
X179458857Y-102655714D01*
X179506476Y-102750952D01*
X179554095Y-102798571D01*
X179649333Y-102846190D01*
X180030285Y-102846190D01*
X179125523Y-102322380D02*
X178458857Y-102322380D01*
X178887428Y-103322380D01*
X177554095Y-103322380D02*
X178125523Y-103322380D01*
X177839809Y-103322380D02*
X177839809Y-102322380D01*
X177935047Y-102465238D01*
X178030285Y-102560476D01*
X178125523Y-102608095D01*
X178846857Y-102306380D02*
X179180190Y-101830190D01*
X179418285Y-102306380D02*
X179418285Y-101306380D01*
X179037333Y-101306380D01*
X178942095Y-101354000D01*
X178894476Y-101401619D01*
X178846857Y-101496857D01*
X178846857Y-101639714D01*
X178894476Y-101734952D01*
X178942095Y-101782571D01*
X179037333Y-101830190D01*
X179418285Y-101830190D01*
X177989714Y-101306380D02*
X178180190Y-101306380D01*
X178275428Y-101354000D01*
X178323047Y-101401619D01*
X178418285Y-101544476D01*
X178465904Y-101734952D01*
X178465904Y-102115904D01*
X178418285Y-102211142D01*
X178370666Y-102258761D01*
X178275428Y-102306380D01*
X178084952Y-102306380D01*
X177989714Y-102258761D01*
X177942095Y-102211142D01*
X177894476Y-102115904D01*
X177894476Y-101877809D01*
X177942095Y-101782571D01*
X177989714Y-101734952D01*
X178084952Y-101687333D01*
X178275428Y-101687333D01*
X178370666Y-101734952D01*
X178418285Y-101782571D01*
X178465904Y-101877809D01*
X177323047Y-101734952D02*
X177418285Y-101687333D01*
X177465904Y-101639714D01*
X177513523Y-101544476D01*
X177513523Y-101496857D01*
X177465904Y-101401619D01*
X177418285Y-101354000D01*
X177323047Y-101306380D01*
X177132571Y-101306380D01*
X177037333Y-101354000D01*
X176989714Y-101401619D01*
X176942095Y-101496857D01*
X176942095Y-101544476D01*
X176989714Y-101639714D01*
X177037333Y-101687333D01*
X177132571Y-101734952D01*
X177323047Y-101734952D01*
X177418285Y-101782571D01*
X177465904Y-101830190D01*
X177513523Y-101925428D01*
X177513523Y-102115904D01*
X177465904Y-102211142D01*
X177418285Y-102258761D01*
X177323047Y-102306380D01*
X177132571Y-102306380D01*
X177037333Y-102258761D01*
X176989714Y-102211142D01*
X176942095Y-102115904D01*
X176942095Y-101925428D01*
X176989714Y-101830190D01*
X177037333Y-101782571D01*
X177132571Y-101734952D01*
X179712857Y-101290380D02*
X180046190Y-100814190D01*
X180284285Y-101290380D02*
X180284285Y-100290380D01*
X179903333Y-100290380D01*
X179808095Y-100338000D01*
X179760476Y-100385619D01*
X179712857Y-100480857D01*
X179712857Y-100623714D01*
X179760476Y-100718952D01*
X179808095Y-100766571D01*
X179903333Y-100814190D01*
X180284285Y-100814190D01*
X178855714Y-100290380D02*
X179046190Y-100290380D01*
X179141428Y-100338000D01*
X179189047Y-100385619D01*
X179284285Y-100528476D01*
X179331904Y-100718952D01*
X179331904Y-101099904D01*
X179284285Y-101195142D01*
X179236666Y-101242761D01*
X179141428Y-101290380D01*
X178950952Y-101290380D01*
X178855714Y-101242761D01*
X178808095Y-101195142D01*
X178760476Y-101099904D01*
X178760476Y-100861809D01*
X178808095Y-100766571D01*
X178855714Y-100718952D01*
X178950952Y-100671333D01*
X179141428Y-100671333D01*
X179236666Y-100718952D01*
X179284285Y-100766571D01*
X179331904Y-100861809D01*
X177903333Y-100623714D02*
X177903333Y-101290380D01*
X178141428Y-100242761D02*
X178379523Y-100957047D01*
X177760476Y-100957047D01*
X183799857Y-102306380D02*
X184133190Y-101830190D01*
X184371285Y-102306380D02*
X184371285Y-101306380D01*
X183990333Y-101306380D01*
X183895095Y-101354000D01*
X183847476Y-101401619D01*
X183799857Y-101496857D01*
X183799857Y-101639714D01*
X183847476Y-101734952D01*
X183895095Y-101782571D01*
X183990333Y-101830190D01*
X184371285Y-101830190D01*
X182942714Y-101306380D02*
X183133190Y-101306380D01*
X183228428Y-101354000D01*
X183276047Y-101401619D01*
X183371285Y-101544476D01*
X183418904Y-101734952D01*
X183418904Y-102115904D01*
X183371285Y-102211142D01*
X183323666Y-102258761D01*
X183228428Y-102306380D01*
X183037952Y-102306380D01*
X182942714Y-102258761D01*
X182895095Y-102211142D01*
X182847476Y-102115904D01*
X182847476Y-101877809D01*
X182895095Y-101782571D01*
X182942714Y-101734952D01*
X183037952Y-101687333D01*
X183228428Y-101687333D01*
X183323666Y-101734952D01*
X183371285Y-101782571D01*
X183418904Y-101877809D01*
X182371285Y-102306380D02*
X182180809Y-102306380D01*
X182085571Y-102258761D01*
X182037952Y-102211142D01*
X181942714Y-102068285D01*
X181895095Y-101877809D01*
X181895095Y-101496857D01*
X181942714Y-101401619D01*
X181990333Y-101354000D01*
X182085571Y-101306380D01*
X182276047Y-101306380D01*
X182371285Y-101354000D01*
X182418904Y-101401619D01*
X182466523Y-101496857D01*
X182466523Y-101734952D01*
X182418904Y-101830190D01*
X182371285Y-101877809D01*
X182276047Y-101925428D01*
X182085571Y-101925428D01*
X181990333Y-101877809D01*
X181942714Y-101830190D01*
X181895095Y-101734952D01*
X184411857Y-101163380D02*
X184745190Y-100687190D01*
X184983285Y-101163380D02*
X184983285Y-100163380D01*
X184602333Y-100163380D01*
X184507095Y-100211000D01*
X184459476Y-100258619D01*
X184411857Y-100353857D01*
X184411857Y-100496714D01*
X184459476Y-100591952D01*
X184507095Y-100639571D01*
X184602333Y-100687190D01*
X184983285Y-100687190D01*
X183554714Y-100163380D02*
X183745190Y-100163380D01*
X183840428Y-100211000D01*
X183888047Y-100258619D01*
X183983285Y-100401476D01*
X184030904Y-100591952D01*
X184030904Y-100972904D01*
X183983285Y-101068142D01*
X183935666Y-101115761D01*
X183840428Y-101163380D01*
X183649952Y-101163380D01*
X183554714Y-101115761D01*
X183507095Y-101068142D01*
X183459476Y-100972904D01*
X183459476Y-100734809D01*
X183507095Y-100639571D01*
X183554714Y-100591952D01*
X183649952Y-100544333D01*
X183840428Y-100544333D01*
X183935666Y-100591952D01*
X183983285Y-100639571D01*
X184030904Y-100734809D01*
X182554714Y-100163380D02*
X183030904Y-100163380D01*
X183078523Y-100639571D01*
X183030904Y-100591952D01*
X182935666Y-100544333D01*
X182697571Y-100544333D01*
X182602333Y-100591952D01*
X182554714Y-100639571D01*
X182507095Y-100734809D01*
X182507095Y-100972904D01*
X182554714Y-101068142D01*
X182602333Y-101115761D01*
X182697571Y-101163380D01*
X182935666Y-101163380D01*
X183030904Y-101115761D01*
X183078523Y-101068142D01*
X187332857Y-102560380D02*
X187666190Y-102084190D01*
X187904285Y-102560380D02*
X187904285Y-101560380D01*
X187523333Y-101560380D01*
X187428095Y-101608000D01*
X187380476Y-101655619D01*
X187332857Y-101750857D01*
X187332857Y-101893714D01*
X187380476Y-101988952D01*
X187428095Y-102036571D01*
X187523333Y-102084190D01*
X187904285Y-102084190D01*
X186999523Y-101560380D02*
X186332857Y-101560380D01*
X186761428Y-102560380D01*
X185761428Y-101560380D02*
X185666190Y-101560380D01*
X185570952Y-101608000D01*
X185523333Y-101655619D01*
X185475714Y-101750857D01*
X185428095Y-101941333D01*
X185428095Y-102179428D01*
X185475714Y-102369904D01*
X185523333Y-102465142D01*
X185570952Y-102512761D01*
X185666190Y-102560380D01*
X185761428Y-102560380D01*
X185856666Y-102512761D01*
X185904285Y-102465142D01*
X185951904Y-102369904D01*
X185999523Y-102179428D01*
X185999523Y-101941333D01*
X185951904Y-101750857D01*
X185904285Y-101655619D01*
X185856666Y-101608000D01*
X185761428Y-101560380D01*
X188221857Y-101290380D02*
X188555190Y-100814190D01*
X188793285Y-101290380D02*
X188793285Y-100290380D01*
X188412333Y-100290380D01*
X188317095Y-100338000D01*
X188269476Y-100385619D01*
X188221857Y-100480857D01*
X188221857Y-100623714D01*
X188269476Y-100718952D01*
X188317095Y-100766571D01*
X188412333Y-100814190D01*
X188793285Y-100814190D01*
X187364714Y-100290380D02*
X187555190Y-100290380D01*
X187650428Y-100338000D01*
X187698047Y-100385619D01*
X187793285Y-100528476D01*
X187840904Y-100718952D01*
X187840904Y-101099904D01*
X187793285Y-101195142D01*
X187745666Y-101242761D01*
X187650428Y-101290380D01*
X187459952Y-101290380D01*
X187364714Y-101242761D01*
X187317095Y-101195142D01*
X187269476Y-101099904D01*
X187269476Y-100861809D01*
X187317095Y-100766571D01*
X187364714Y-100718952D01*
X187459952Y-100671333D01*
X187650428Y-100671333D01*
X187745666Y-100718952D01*
X187793285Y-100766571D01*
X187840904Y-100861809D01*
X186412333Y-100290380D02*
X186602809Y-100290380D01*
X186698047Y-100338000D01*
X186745666Y-100385619D01*
X186840904Y-100528476D01*
X186888523Y-100718952D01*
X186888523Y-101099904D01*
X186840904Y-101195142D01*
X186793285Y-101242761D01*
X186698047Y-101290380D01*
X186507571Y-101290380D01*
X186412333Y-101242761D01*
X186364714Y-101195142D01*
X186317095Y-101099904D01*
X186317095Y-100861809D01*
X186364714Y-100766571D01*
X186412333Y-100718952D01*
X186507571Y-100671333D01*
X186698047Y-100671333D01*
X186793285Y-100718952D01*
X186840904Y-100766571D01*
X186888523Y-100861809D01*
X193070857Y-87193380D02*
X193404190Y-86717190D01*
X193642285Y-87193380D02*
X193642285Y-86193380D01*
X193261333Y-86193380D01*
X193166095Y-86241000D01*
X193118476Y-86288619D01*
X193070857Y-86383857D01*
X193070857Y-86526714D01*
X193118476Y-86621952D01*
X193166095Y-86669571D01*
X193261333Y-86717190D01*
X193642285Y-86717190D01*
X192213714Y-86526714D02*
X192213714Y-87193380D01*
X192451809Y-86145761D02*
X192689904Y-86860047D01*
X192070857Y-86860047D01*
X191166095Y-87193380D02*
X191737523Y-87193380D01*
X191451809Y-87193380D02*
X191451809Y-86193380D01*
X191547047Y-86336238D01*
X191642285Y-86431476D01*
X191737523Y-86479095D01*
X193047857Y-85948380D02*
X193381190Y-85472190D01*
X193619285Y-85948380D02*
X193619285Y-84948380D01*
X193238333Y-84948380D01*
X193143095Y-84996000D01*
X193095476Y-85043619D01*
X193047857Y-85138857D01*
X193047857Y-85281714D01*
X193095476Y-85376952D01*
X193143095Y-85424571D01*
X193238333Y-85472190D01*
X193619285Y-85472190D01*
X192190714Y-85281714D02*
X192190714Y-85948380D01*
X192428809Y-84900761D02*
X192666904Y-85615047D01*
X192047857Y-85615047D01*
X191476428Y-84948380D02*
X191381190Y-84948380D01*
X191285952Y-84996000D01*
X191238333Y-85043619D01*
X191190714Y-85138857D01*
X191143095Y-85329333D01*
X191143095Y-85567428D01*
X191190714Y-85757904D01*
X191238333Y-85853142D01*
X191285952Y-85900761D01*
X191381190Y-85948380D01*
X191476428Y-85948380D01*
X191571666Y-85900761D01*
X191619285Y-85853142D01*
X191666904Y-85757904D01*
X191714523Y-85567428D01*
X191714523Y-85329333D01*
X191666904Y-85138857D01*
X191619285Y-85043619D01*
X191571666Y-84996000D01*
X191476428Y-84948380D01*
X193047857Y-84788380D02*
X193381190Y-84312190D01*
X193619285Y-84788380D02*
X193619285Y-83788380D01*
X193238333Y-83788380D01*
X193143095Y-83836000D01*
X193095476Y-83883619D01*
X193047857Y-83978857D01*
X193047857Y-84121714D01*
X193095476Y-84216952D01*
X193143095Y-84264571D01*
X193238333Y-84312190D01*
X193619285Y-84312190D01*
X192714523Y-83788380D02*
X192095476Y-83788380D01*
X192428809Y-84169333D01*
X192285952Y-84169333D01*
X192190714Y-84216952D01*
X192143095Y-84264571D01*
X192095476Y-84359809D01*
X192095476Y-84597904D01*
X192143095Y-84693142D01*
X192190714Y-84740761D01*
X192285952Y-84788380D01*
X192571666Y-84788380D01*
X192666904Y-84740761D01*
X192714523Y-84693142D01*
X191524047Y-84216952D02*
X191619285Y-84169333D01*
X191666904Y-84121714D01*
X191714523Y-84026476D01*
X191714523Y-83978857D01*
X191666904Y-83883619D01*
X191619285Y-83836000D01*
X191524047Y-83788380D01*
X191333571Y-83788380D01*
X191238333Y-83836000D01*
X191190714Y-83883619D01*
X191143095Y-83978857D01*
X191143095Y-84026476D01*
X191190714Y-84121714D01*
X191238333Y-84169333D01*
X191333571Y-84216952D01*
X191524047Y-84216952D01*
X191619285Y-84264571D01*
X191666904Y-84312190D01*
X191714523Y-84407428D01*
X191714523Y-84597904D01*
X191666904Y-84693142D01*
X191619285Y-84740761D01*
X191524047Y-84788380D01*
X191333571Y-84788380D01*
X191238333Y-84740761D01*
X191190714Y-84693142D01*
X191143095Y-84597904D01*
X191143095Y-84407428D01*
X191190714Y-84312190D01*
X191238333Y-84264571D01*
X191333571Y-84216952D01*
X193047857Y-83688380D02*
X193381190Y-83212190D01*
X193619285Y-83688380D02*
X193619285Y-82688380D01*
X193238333Y-82688380D01*
X193143095Y-82736000D01*
X193095476Y-82783619D01*
X193047857Y-82878857D01*
X193047857Y-83021714D01*
X193095476Y-83116952D01*
X193143095Y-83164571D01*
X193238333Y-83212190D01*
X193619285Y-83212190D01*
X192714523Y-82688380D02*
X192095476Y-82688380D01*
X192428809Y-83069333D01*
X192285952Y-83069333D01*
X192190714Y-83116952D01*
X192143095Y-83164571D01*
X192095476Y-83259809D01*
X192095476Y-83497904D01*
X192143095Y-83593142D01*
X192190714Y-83640761D01*
X192285952Y-83688380D01*
X192571666Y-83688380D01*
X192666904Y-83640761D01*
X192714523Y-83593142D01*
X191762142Y-82688380D02*
X191095476Y-82688380D01*
X191524047Y-83688380D01*
X193047857Y-82621380D02*
X193381190Y-82145190D01*
X193619285Y-82621380D02*
X193619285Y-81621380D01*
X193238333Y-81621380D01*
X193143095Y-81669000D01*
X193095476Y-81716619D01*
X193047857Y-81811857D01*
X193047857Y-81954714D01*
X193095476Y-82049952D01*
X193143095Y-82097571D01*
X193238333Y-82145190D01*
X193619285Y-82145190D01*
X192714523Y-81621380D02*
X192095476Y-81621380D01*
X192428809Y-82002333D01*
X192285952Y-82002333D01*
X192190714Y-82049952D01*
X192143095Y-82097571D01*
X192095476Y-82192809D01*
X192095476Y-82430904D01*
X192143095Y-82526142D01*
X192190714Y-82573761D01*
X192285952Y-82621380D01*
X192571666Y-82621380D01*
X192666904Y-82573761D01*
X192714523Y-82526142D01*
X191238333Y-81954714D02*
X191238333Y-82621380D01*
X191476428Y-81573761D02*
X191714523Y-82288047D01*
X191095476Y-82288047D01*
X193047857Y-81605380D02*
X193381190Y-81129190D01*
X193619285Y-81605380D02*
X193619285Y-80605380D01*
X193238333Y-80605380D01*
X193143095Y-80653000D01*
X193095476Y-80700619D01*
X193047857Y-80795857D01*
X193047857Y-80938714D01*
X193095476Y-81033952D01*
X193143095Y-81081571D01*
X193238333Y-81129190D01*
X193619285Y-81129190D01*
X192714523Y-80605380D02*
X192095476Y-80605380D01*
X192428809Y-80986333D01*
X192285952Y-80986333D01*
X192190714Y-81033952D01*
X192143095Y-81081571D01*
X192095476Y-81176809D01*
X192095476Y-81414904D01*
X192143095Y-81510142D01*
X192190714Y-81557761D01*
X192285952Y-81605380D01*
X192571666Y-81605380D01*
X192666904Y-81557761D01*
X192714523Y-81510142D01*
X191762142Y-80605380D02*
X191143095Y-80605380D01*
X191476428Y-80986333D01*
X191333571Y-80986333D01*
X191238333Y-81033952D01*
X191190714Y-81081571D01*
X191143095Y-81176809D01*
X191143095Y-81414904D01*
X191190714Y-81510142D01*
X191238333Y-81557761D01*
X191333571Y-81605380D01*
X191619285Y-81605380D01*
X191714523Y-81557761D01*
X191762142Y-81510142D01*
X193047857Y-78557380D02*
X193381190Y-78081190D01*
X193619285Y-78557380D02*
X193619285Y-77557380D01*
X193238333Y-77557380D01*
X193143095Y-77605000D01*
X193095476Y-77652619D01*
X193047857Y-77747857D01*
X193047857Y-77890714D01*
X193095476Y-77985952D01*
X193143095Y-78033571D01*
X193238333Y-78081190D01*
X193619285Y-78081190D01*
X192714523Y-77557380D02*
X192095476Y-77557380D01*
X192428809Y-77938333D01*
X192285952Y-77938333D01*
X192190714Y-77985952D01*
X192143095Y-78033571D01*
X192095476Y-78128809D01*
X192095476Y-78366904D01*
X192143095Y-78462142D01*
X192190714Y-78509761D01*
X192285952Y-78557380D01*
X192571666Y-78557380D01*
X192666904Y-78509761D01*
X192714523Y-78462142D01*
X191143095Y-78557380D02*
X191714523Y-78557380D01*
X191428809Y-78557380D02*
X191428809Y-77557380D01*
X191524047Y-77700238D01*
X191619285Y-77795476D01*
X191714523Y-77843095D01*
X193047857Y-77541380D02*
X193381190Y-77065190D01*
X193619285Y-77541380D02*
X193619285Y-76541380D01*
X193238333Y-76541380D01*
X193143095Y-76589000D01*
X193095476Y-76636619D01*
X193047857Y-76731857D01*
X193047857Y-76874714D01*
X193095476Y-76969952D01*
X193143095Y-77017571D01*
X193238333Y-77065190D01*
X193619285Y-77065190D01*
X192714523Y-76541380D02*
X192095476Y-76541380D01*
X192428809Y-76922333D01*
X192285952Y-76922333D01*
X192190714Y-76969952D01*
X192143095Y-77017571D01*
X192095476Y-77112809D01*
X192095476Y-77350904D01*
X192143095Y-77446142D01*
X192190714Y-77493761D01*
X192285952Y-77541380D01*
X192571666Y-77541380D01*
X192666904Y-77493761D01*
X192714523Y-77446142D01*
X191476428Y-76541380D02*
X191381190Y-76541380D01*
X191285952Y-76589000D01*
X191238333Y-76636619D01*
X191190714Y-76731857D01*
X191143095Y-76922333D01*
X191143095Y-77160428D01*
X191190714Y-77350904D01*
X191238333Y-77446142D01*
X191285952Y-77493761D01*
X191381190Y-77541380D01*
X191476428Y-77541380D01*
X191571666Y-77493761D01*
X191619285Y-77446142D01*
X191666904Y-77350904D01*
X191714523Y-77160428D01*
X191714523Y-76922333D01*
X191666904Y-76731857D01*
X191619285Y-76636619D01*
X191571666Y-76589000D01*
X191476428Y-76541380D01*
X193047857Y-76525380D02*
X193381190Y-76049190D01*
X193619285Y-76525380D02*
X193619285Y-75525380D01*
X193238333Y-75525380D01*
X193143095Y-75573000D01*
X193095476Y-75620619D01*
X193047857Y-75715857D01*
X193047857Y-75858714D01*
X193095476Y-75953952D01*
X193143095Y-76001571D01*
X193238333Y-76049190D01*
X193619285Y-76049190D01*
X192666904Y-75620619D02*
X192619285Y-75573000D01*
X192524047Y-75525380D01*
X192285952Y-75525380D01*
X192190714Y-75573000D01*
X192143095Y-75620619D01*
X192095476Y-75715857D01*
X192095476Y-75811095D01*
X192143095Y-75953952D01*
X192714523Y-76525380D01*
X192095476Y-76525380D01*
X191762142Y-75525380D02*
X191095476Y-75525380D01*
X191524047Y-76525380D01*
X193047857Y-75509380D02*
X193381190Y-75033190D01*
X193619285Y-75509380D02*
X193619285Y-74509380D01*
X193238333Y-74509380D01*
X193143095Y-74557000D01*
X193095476Y-74604619D01*
X193047857Y-74699857D01*
X193047857Y-74842714D01*
X193095476Y-74937952D01*
X193143095Y-74985571D01*
X193238333Y-75033190D01*
X193619285Y-75033190D01*
X192666904Y-74604619D02*
X192619285Y-74557000D01*
X192524047Y-74509380D01*
X192285952Y-74509380D01*
X192190714Y-74557000D01*
X192143095Y-74604619D01*
X192095476Y-74699857D01*
X192095476Y-74795095D01*
X192143095Y-74937952D01*
X192714523Y-75509380D01*
X192095476Y-75509380D01*
X191238333Y-74509380D02*
X191428809Y-74509380D01*
X191524047Y-74557000D01*
X191571666Y-74604619D01*
X191666904Y-74747476D01*
X191714523Y-74937952D01*
X191714523Y-75318904D01*
X191666904Y-75414142D01*
X191619285Y-75461761D01*
X191524047Y-75509380D01*
X191333571Y-75509380D01*
X191238333Y-75461761D01*
X191190714Y-75414142D01*
X191143095Y-75318904D01*
X191143095Y-75080809D01*
X191190714Y-74985571D01*
X191238333Y-74937952D01*
X191333571Y-74890333D01*
X191524047Y-74890333D01*
X191619285Y-74937952D01*
X191666904Y-74985571D01*
X191714523Y-75080809D01*
X193047857Y-73477380D02*
X193381190Y-73001190D01*
X193619285Y-73477380D02*
X193619285Y-72477380D01*
X193238333Y-72477380D01*
X193143095Y-72525000D01*
X193095476Y-72572619D01*
X193047857Y-72667857D01*
X193047857Y-72810714D01*
X193095476Y-72905952D01*
X193143095Y-72953571D01*
X193238333Y-73001190D01*
X193619285Y-73001190D01*
X192666904Y-72572619D02*
X192619285Y-72525000D01*
X192524047Y-72477380D01*
X192285952Y-72477380D01*
X192190714Y-72525000D01*
X192143095Y-72572619D01*
X192095476Y-72667857D01*
X192095476Y-72763095D01*
X192143095Y-72905952D01*
X192714523Y-73477380D01*
X192095476Y-73477380D01*
X191190714Y-72477380D02*
X191666904Y-72477380D01*
X191714523Y-72953571D01*
X191666904Y-72905952D01*
X191571666Y-72858333D01*
X191333571Y-72858333D01*
X191238333Y-72905952D01*
X191190714Y-72953571D01*
X191143095Y-73048809D01*
X191143095Y-73286904D01*
X191190714Y-73382142D01*
X191238333Y-73429761D01*
X191333571Y-73477380D01*
X191571666Y-73477380D01*
X191666904Y-73429761D01*
X191714523Y-73382142D01*
X193047857Y-72461380D02*
X193381190Y-71985190D01*
X193619285Y-72461380D02*
X193619285Y-71461380D01*
X193238333Y-71461380D01*
X193143095Y-71509000D01*
X193095476Y-71556619D01*
X193047857Y-71651857D01*
X193047857Y-71794714D01*
X193095476Y-71889952D01*
X193143095Y-71937571D01*
X193238333Y-71985190D01*
X193619285Y-71985190D01*
X192666904Y-71556619D02*
X192619285Y-71509000D01*
X192524047Y-71461380D01*
X192285952Y-71461380D01*
X192190714Y-71509000D01*
X192143095Y-71556619D01*
X192095476Y-71651857D01*
X192095476Y-71747095D01*
X192143095Y-71889952D01*
X192714523Y-72461380D01*
X192095476Y-72461380D01*
X191714523Y-71556619D02*
X191666904Y-71509000D01*
X191571666Y-71461380D01*
X191333571Y-71461380D01*
X191238333Y-71509000D01*
X191190714Y-71556619D01*
X191143095Y-71651857D01*
X191143095Y-71747095D01*
X191190714Y-71889952D01*
X191762142Y-72461380D01*
X191143095Y-72461380D01*
X186761380Y-66254333D02*
X186285190Y-65921000D01*
X186761380Y-65682904D02*
X185761380Y-65682904D01*
X185761380Y-66063857D01*
X185809000Y-66159095D01*
X185856619Y-66206714D01*
X185951857Y-66254333D01*
X186094714Y-66254333D01*
X186189952Y-66206714D01*
X186237571Y-66159095D01*
X186285190Y-66063857D01*
X186285190Y-65682904D01*
X186761380Y-66730523D02*
X186761380Y-66921000D01*
X186713761Y-67016238D01*
X186666142Y-67063857D01*
X186523285Y-67159095D01*
X186332809Y-67206714D01*
X185951857Y-67206714D01*
X185856619Y-67159095D01*
X185809000Y-67111476D01*
X185761380Y-67016238D01*
X185761380Y-66825761D01*
X185809000Y-66730523D01*
X185856619Y-66682904D01*
X185951857Y-66635285D01*
X186189952Y-66635285D01*
X186285190Y-66682904D01*
X186332809Y-66730523D01*
X186380428Y-66825761D01*
X186380428Y-67016238D01*
X186332809Y-67111476D01*
X186285190Y-67159095D01*
X186189952Y-67206714D01*
X185237380Y-66277333D02*
X184761190Y-65944000D01*
X185237380Y-65705904D02*
X184237380Y-65705904D01*
X184237380Y-66086857D01*
X184285000Y-66182095D01*
X184332619Y-66229714D01*
X184427857Y-66277333D01*
X184570714Y-66277333D01*
X184665952Y-66229714D01*
X184713571Y-66182095D01*
X184761190Y-66086857D01*
X184761190Y-65705904D01*
X184665952Y-66848761D02*
X184618333Y-66753523D01*
X184570714Y-66705904D01*
X184475476Y-66658285D01*
X184427857Y-66658285D01*
X184332619Y-66705904D01*
X184285000Y-66753523D01*
X184237380Y-66848761D01*
X184237380Y-67039238D01*
X184285000Y-67134476D01*
X184332619Y-67182095D01*
X184427857Y-67229714D01*
X184475476Y-67229714D01*
X184570714Y-67182095D01*
X184618333Y-67134476D01*
X184665952Y-67039238D01*
X184665952Y-66848761D01*
X184713571Y-66753523D01*
X184761190Y-66705904D01*
X184856428Y-66658285D01*
X185046904Y-66658285D01*
X185142142Y-66705904D01*
X185189761Y-66753523D01*
X185237380Y-66848761D01*
X185237380Y-67039238D01*
X185189761Y-67134476D01*
X185142142Y-67182095D01*
X185046904Y-67229714D01*
X184856428Y-67229714D01*
X184761190Y-67182095D01*
X184713571Y-67134476D01*
X184665952Y-67039238D01*
X183967380Y-66277333D02*
X183491190Y-65944000D01*
X183967380Y-65705904D02*
X182967380Y-65705904D01*
X182967380Y-66086857D01*
X183015000Y-66182095D01*
X183062619Y-66229714D01*
X183157857Y-66277333D01*
X183300714Y-66277333D01*
X183395952Y-66229714D01*
X183443571Y-66182095D01*
X183491190Y-66086857D01*
X183491190Y-65705904D01*
X182967380Y-66610666D02*
X182967380Y-67277333D01*
X183967380Y-66848761D01*
X170060857Y-73350380D02*
X170394190Y-72874190D01*
X170632285Y-73350380D02*
X170632285Y-72350380D01*
X170251333Y-72350380D01*
X170156095Y-72398000D01*
X170108476Y-72445619D01*
X170060857Y-72540857D01*
X170060857Y-72683714D01*
X170108476Y-72778952D01*
X170156095Y-72826571D01*
X170251333Y-72874190D01*
X170632285Y-72874190D01*
X169679904Y-72445619D02*
X169632285Y-72398000D01*
X169537047Y-72350380D01*
X169298952Y-72350380D01*
X169203714Y-72398000D01*
X169156095Y-72445619D01*
X169108476Y-72540857D01*
X169108476Y-72636095D01*
X169156095Y-72778952D01*
X169727523Y-73350380D01*
X169108476Y-73350380D01*
X168251333Y-72683714D02*
X168251333Y-73350380D01*
X168489428Y-72302761D02*
X168727523Y-73017047D01*
X168108476Y-73017047D01*
X172196857Y-72334380D02*
X172530190Y-71858190D01*
X172768285Y-72334380D02*
X172768285Y-71334380D01*
X172387333Y-71334380D01*
X172292095Y-71382000D01*
X172244476Y-71429619D01*
X172196857Y-71524857D01*
X172196857Y-71667714D01*
X172244476Y-71762952D01*
X172292095Y-71810571D01*
X172387333Y-71858190D01*
X172768285Y-71858190D01*
X171815904Y-71429619D02*
X171768285Y-71382000D01*
X171673047Y-71334380D01*
X171434952Y-71334380D01*
X171339714Y-71382000D01*
X171292095Y-71429619D01*
X171244476Y-71524857D01*
X171244476Y-71620095D01*
X171292095Y-71762952D01*
X171863523Y-72334380D01*
X171244476Y-72334380D01*
X170911142Y-71334380D02*
X170292095Y-71334380D01*
X170625428Y-71715333D01*
X170482571Y-71715333D01*
X170387333Y-71762952D01*
X170339714Y-71810571D01*
X170292095Y-71905809D01*
X170292095Y-72143904D01*
X170339714Y-72239142D01*
X170387333Y-72286761D01*
X170482571Y-72334380D01*
X170768285Y-72334380D01*
X170863523Y-72286761D01*
X170911142Y-72239142D01*
X177045857Y-70937380D02*
X177379190Y-70461190D01*
X177617285Y-70937380D02*
X177617285Y-69937380D01*
X177236333Y-69937380D01*
X177141095Y-69985000D01*
X177093476Y-70032619D01*
X177045857Y-70127857D01*
X177045857Y-70270714D01*
X177093476Y-70365952D01*
X177141095Y-70413571D01*
X177236333Y-70461190D01*
X177617285Y-70461190D01*
X176093476Y-70937380D02*
X176664904Y-70937380D01*
X176379190Y-70937380D02*
X176379190Y-69937380D01*
X176474428Y-70080238D01*
X176569666Y-70175476D01*
X176664904Y-70223095D01*
X175617285Y-70937380D02*
X175426809Y-70937380D01*
X175331571Y-70889761D01*
X175283952Y-70842142D01*
X175188714Y-70699285D01*
X175141095Y-70508809D01*
X175141095Y-70127857D01*
X175188714Y-70032619D01*
X175236333Y-69985000D01*
X175331571Y-69937380D01*
X175522047Y-69937380D01*
X175617285Y-69985000D01*
X175664904Y-70032619D01*
X175712523Y-70127857D01*
X175712523Y-70365952D01*
X175664904Y-70461190D01*
X175617285Y-70508809D01*
X175522047Y-70556428D01*
X175331571Y-70556428D01*
X175236333Y-70508809D01*
X175188714Y-70461190D01*
X175141095Y-70365952D01*
X174632857Y-71572380D02*
X174966190Y-71096190D01*
X175204285Y-71572380D02*
X175204285Y-70572380D01*
X174823333Y-70572380D01*
X174728095Y-70620000D01*
X174680476Y-70667619D01*
X174632857Y-70762857D01*
X174632857Y-70905714D01*
X174680476Y-71000952D01*
X174728095Y-71048571D01*
X174823333Y-71096190D01*
X175204285Y-71096190D01*
X174251904Y-70667619D02*
X174204285Y-70620000D01*
X174109047Y-70572380D01*
X173870952Y-70572380D01*
X173775714Y-70620000D01*
X173728095Y-70667619D01*
X173680476Y-70762857D01*
X173680476Y-70858095D01*
X173728095Y-71000952D01*
X174299523Y-71572380D01*
X173680476Y-71572380D01*
X172728095Y-71572380D02*
X173299523Y-71572380D01*
X173013809Y-71572380D02*
X173013809Y-70572380D01*
X173109047Y-70715238D01*
X173204285Y-70810476D01*
X173299523Y-70858095D01*
X165869857Y-104465380D02*
X166203190Y-103989190D01*
X166441285Y-104465380D02*
X166441285Y-103465380D01*
X166060333Y-103465380D01*
X165965095Y-103513000D01*
X165917476Y-103560619D01*
X165869857Y-103655857D01*
X165869857Y-103798714D01*
X165917476Y-103893952D01*
X165965095Y-103941571D01*
X166060333Y-103989190D01*
X166441285Y-103989190D01*
X165536523Y-103465380D02*
X164869857Y-103465380D01*
X165298428Y-104465380D01*
X164584142Y-103465380D02*
X163965095Y-103465380D01*
X164298428Y-103846333D01*
X164155571Y-103846333D01*
X164060333Y-103893952D01*
X164012714Y-103941571D01*
X163965095Y-104036809D01*
X163965095Y-104274904D01*
X164012714Y-104370142D01*
X164060333Y-104417761D01*
X164155571Y-104465380D01*
X164441285Y-104465380D01*
X164536523Y-104417761D01*
X164584142Y-104370142D01*
X165869857Y-105608380D02*
X166203190Y-105132190D01*
X166441285Y-105608380D02*
X166441285Y-104608380D01*
X166060333Y-104608380D01*
X165965095Y-104656000D01*
X165917476Y-104703619D01*
X165869857Y-104798857D01*
X165869857Y-104941714D01*
X165917476Y-105036952D01*
X165965095Y-105084571D01*
X166060333Y-105132190D01*
X166441285Y-105132190D01*
X165536523Y-104608380D02*
X164869857Y-104608380D01*
X165298428Y-105608380D01*
X164060333Y-104608380D02*
X164250809Y-104608380D01*
X164346047Y-104656000D01*
X164393666Y-104703619D01*
X164488904Y-104846476D01*
X164536523Y-105036952D01*
X164536523Y-105417904D01*
X164488904Y-105513142D01*
X164441285Y-105560761D01*
X164346047Y-105608380D01*
X164155571Y-105608380D01*
X164060333Y-105560761D01*
X164012714Y-105513142D01*
X163965095Y-105417904D01*
X163965095Y-105179809D01*
X164012714Y-105084571D01*
X164060333Y-105036952D01*
X164155571Y-104989333D01*
X164346047Y-104989333D01*
X164441285Y-105036952D01*
X164488904Y-105084571D01*
X164536523Y-105179809D01*
X165892857Y-106878380D02*
X166226190Y-106402190D01*
X166464285Y-106878380D02*
X166464285Y-105878380D01*
X166083333Y-105878380D01*
X165988095Y-105926000D01*
X165940476Y-105973619D01*
X165892857Y-106068857D01*
X165892857Y-106211714D01*
X165940476Y-106306952D01*
X165988095Y-106354571D01*
X166083333Y-106402190D01*
X166464285Y-106402190D01*
X165559523Y-105878380D02*
X164892857Y-105878380D01*
X165321428Y-106878380D01*
X164607142Y-105878380D02*
X163940476Y-105878380D01*
X164369047Y-106878380D01*
X183167257Y-110815380D02*
X183500590Y-110339190D01*
X183738685Y-110815380D02*
X183738685Y-109815380D01*
X183357733Y-109815380D01*
X183262495Y-109863000D01*
X183214876Y-109910619D01*
X183167257Y-110005857D01*
X183167257Y-110148714D01*
X183214876Y-110243952D01*
X183262495Y-110291571D01*
X183357733Y-110339190D01*
X183738685Y-110339190D01*
X182691066Y-110815380D02*
X182500590Y-110815380D01*
X182405352Y-110767761D01*
X182357733Y-110720142D01*
X182262495Y-110577285D01*
X182214876Y-110386809D01*
X182214876Y-110005857D01*
X182262495Y-109910619D01*
X182310114Y-109863000D01*
X182405352Y-109815380D01*
X182595828Y-109815380D01*
X182691066Y-109863000D01*
X182738685Y-109910619D01*
X182786304Y-110005857D01*
X182786304Y-110243952D01*
X182738685Y-110339190D01*
X182691066Y-110386809D01*
X182595828Y-110434428D01*
X182405352Y-110434428D01*
X182310114Y-110386809D01*
X182262495Y-110339190D01*
X182214876Y-110243952D01*
X181357733Y-110148714D02*
X181357733Y-110815380D01*
X181595828Y-109767761D02*
X181833923Y-110482047D01*
X181214876Y-110482047D01*
X183118857Y-109672380D02*
X183452190Y-109196190D01*
X183690285Y-109672380D02*
X183690285Y-108672380D01*
X183309333Y-108672380D01*
X183214095Y-108720000D01*
X183166476Y-108767619D01*
X183118857Y-108862857D01*
X183118857Y-109005714D01*
X183166476Y-109100952D01*
X183214095Y-109148571D01*
X183309333Y-109196190D01*
X183690285Y-109196190D01*
X182785523Y-108672380D02*
X182118857Y-108672380D01*
X182547428Y-109672380D01*
X181690285Y-109672380D02*
X181499809Y-109672380D01*
X181404571Y-109624761D01*
X181356952Y-109577142D01*
X181261714Y-109434285D01*
X181214095Y-109243809D01*
X181214095Y-108862857D01*
X181261714Y-108767619D01*
X181309333Y-108720000D01*
X181404571Y-108672380D01*
X181595047Y-108672380D01*
X181690285Y-108720000D01*
X181737904Y-108767619D01*
X181785523Y-108862857D01*
X181785523Y-109100952D01*
X181737904Y-109196190D01*
X181690285Y-109243809D01*
X181595047Y-109291428D01*
X181404571Y-109291428D01*
X181309333Y-109243809D01*
X181261714Y-109196190D01*
X181214095Y-109100952D01*
X183245857Y-108021380D02*
X183579190Y-107545190D01*
X183817285Y-108021380D02*
X183817285Y-107021380D01*
X183436333Y-107021380D01*
X183341095Y-107069000D01*
X183293476Y-107116619D01*
X183245857Y-107211857D01*
X183245857Y-107354714D01*
X183293476Y-107449952D01*
X183341095Y-107497571D01*
X183436333Y-107545190D01*
X183817285Y-107545190D01*
X182912523Y-107021380D02*
X182245857Y-107021380D01*
X182674428Y-108021380D01*
X181722047Y-107449952D02*
X181817285Y-107402333D01*
X181864904Y-107354714D01*
X181912523Y-107259476D01*
X181912523Y-107211857D01*
X181864904Y-107116619D01*
X181817285Y-107069000D01*
X181722047Y-107021380D01*
X181531571Y-107021380D01*
X181436333Y-107069000D01*
X181388714Y-107116619D01*
X181341095Y-107211857D01*
X181341095Y-107259476D01*
X181388714Y-107354714D01*
X181436333Y-107402333D01*
X181531571Y-107449952D01*
X181722047Y-107449952D01*
X181817285Y-107497571D01*
X181864904Y-107545190D01*
X181912523Y-107640428D01*
X181912523Y-107830904D01*
X181864904Y-107926142D01*
X181817285Y-107973761D01*
X181722047Y-108021380D01*
X181531571Y-108021380D01*
X181436333Y-107973761D01*
X181388714Y-107926142D01*
X181341095Y-107830904D01*
X181341095Y-107640428D01*
X181388714Y-107545190D01*
X181436333Y-107497571D01*
X181531571Y-107449952D01*
X136824980Y-92346542D02*
X136348790Y-92013209D01*
X136824980Y-91775114D02*
X135824980Y-91775114D01*
X135824980Y-92156066D01*
X135872600Y-92251304D01*
X135920219Y-92298923D01*
X136015457Y-92346542D01*
X136158314Y-92346542D01*
X136253552Y-92298923D01*
X136301171Y-92251304D01*
X136348790Y-92156066D01*
X136348790Y-91775114D01*
X136158314Y-93203685D02*
X136824980Y-93203685D01*
X135777361Y-92965590D02*
X136491647Y-92727495D01*
X136491647Y-93346542D01*
X135824980Y-94156066D02*
X135824980Y-93965590D01*
X135872600Y-93870352D01*
X135920219Y-93822733D01*
X136063076Y-93727495D01*
X136253552Y-93679876D01*
X136634504Y-93679876D01*
X136729742Y-93727495D01*
X136777361Y-93775114D01*
X136824980Y-93870352D01*
X136824980Y-94060828D01*
X136777361Y-94156066D01*
X136729742Y-94203685D01*
X136634504Y-94251304D01*
X136396409Y-94251304D01*
X136301171Y-94203685D01*
X136253552Y-94156066D01*
X136205933Y-94060828D01*
X136205933Y-93870352D01*
X136253552Y-93775114D01*
X136301171Y-93727495D01*
X136396409Y-93679876D01*
X128249419Y-96578657D02*
X128725609Y-96911990D01*
X128249419Y-97150085D02*
X129249419Y-97150085D01*
X129249419Y-96769133D01*
X129201800Y-96673895D01*
X129154180Y-96626276D01*
X129058942Y-96578657D01*
X128916085Y-96578657D01*
X128820847Y-96626276D01*
X128773228Y-96673895D01*
X128725609Y-96769133D01*
X128725609Y-97150085D01*
X129249419Y-95673895D02*
X129249419Y-96150085D01*
X128773228Y-96197704D01*
X128820847Y-96150085D01*
X128868466Y-96054847D01*
X128868466Y-95816752D01*
X128820847Y-95721514D01*
X128773228Y-95673895D01*
X128677990Y-95626276D01*
X128439895Y-95626276D01*
X128344657Y-95673895D01*
X128297038Y-95721514D01*
X128249419Y-95816752D01*
X128249419Y-96054847D01*
X128297038Y-96150085D01*
X128344657Y-96197704D01*
X129249419Y-95292942D02*
X129249419Y-94673895D01*
X128868466Y-95007228D01*
X128868466Y-94864371D01*
X128820847Y-94769133D01*
X128773228Y-94721514D01*
X128677990Y-94673895D01*
X128439895Y-94673895D01*
X128344657Y-94721514D01*
X128297038Y-94769133D01*
X128249419Y-94864371D01*
X128249419Y-95150085D01*
X128297038Y-95245323D01*
X128344657Y-95292942D01*
X130678180Y-98442542D02*
X130201990Y-98109209D01*
X130678180Y-97871114D02*
X129678180Y-97871114D01*
X129678180Y-98252066D01*
X129725800Y-98347304D01*
X129773419Y-98394923D01*
X129868657Y-98442542D01*
X130011514Y-98442542D01*
X130106752Y-98394923D01*
X130154371Y-98347304D01*
X130201990Y-98252066D01*
X130201990Y-97871114D01*
X129678180Y-99299685D02*
X129678180Y-99109209D01*
X129725800Y-99013971D01*
X129773419Y-98966352D01*
X129916276Y-98871114D01*
X130106752Y-98823495D01*
X130487704Y-98823495D01*
X130582942Y-98871114D01*
X130630561Y-98918733D01*
X130678180Y-99013971D01*
X130678180Y-99204447D01*
X130630561Y-99299685D01*
X130582942Y-99347304D01*
X130487704Y-99394923D01*
X130249609Y-99394923D01*
X130154371Y-99347304D01*
X130106752Y-99299685D01*
X130059133Y-99204447D01*
X130059133Y-99013971D01*
X130106752Y-98918733D01*
X130154371Y-98871114D01*
X130249609Y-98823495D01*
X129678180Y-100013971D02*
X129678180Y-100109209D01*
X129725800Y-100204447D01*
X129773419Y-100252066D01*
X129868657Y-100299685D01*
X130059133Y-100347304D01*
X130297228Y-100347304D01*
X130487704Y-100299685D01*
X130582942Y-100252066D01*
X130630561Y-100204447D01*
X130678180Y-100109209D01*
X130678180Y-100013971D01*
X130630561Y-99918733D01*
X130582942Y-99871114D01*
X130487704Y-99823495D01*
X130297228Y-99775876D01*
X130059133Y-99775876D01*
X129868657Y-99823495D01*
X129773419Y-99871114D01*
X129725800Y-99918733D01*
X129678180Y-100013971D01*
X198881047Y-143200380D02*
X199214380Y-142724190D01*
X199452476Y-143200380D02*
X199452476Y-142200380D01*
X199071523Y-142200380D01*
X198976285Y-142248000D01*
X198928666Y-142295619D01*
X198881047Y-142390857D01*
X198881047Y-142533714D01*
X198928666Y-142628952D01*
X198976285Y-142676571D01*
X199071523Y-142724190D01*
X199452476Y-142724190D01*
X197928666Y-143200380D02*
X198500095Y-143200380D01*
X198214380Y-143200380D02*
X198214380Y-142200380D01*
X198309619Y-142343238D01*
X198404857Y-142438476D01*
X198500095Y-142486095D01*
X197071523Y-142533714D02*
X197071523Y-143200380D01*
X197309619Y-142152761D02*
X197547714Y-142867047D01*
X196928666Y-142867047D01*
X196642952Y-142200380D02*
X196023904Y-142200380D01*
X196357238Y-142581333D01*
X196214380Y-142581333D01*
X196119142Y-142628952D01*
X196071523Y-142676571D01*
X196023904Y-142771809D01*
X196023904Y-143009904D01*
X196071523Y-143105142D01*
X196119142Y-143152761D01*
X196214380Y-143200380D01*
X196500095Y-143200380D01*
X196595333Y-143152761D01*
X196642952Y-143105142D01*
X135567657Y-78430380D02*
X135900990Y-77954190D01*
X136139085Y-78430380D02*
X136139085Y-77430380D01*
X135758133Y-77430380D01*
X135662895Y-77478000D01*
X135615276Y-77525619D01*
X135567657Y-77620857D01*
X135567657Y-77763714D01*
X135615276Y-77858952D01*
X135662895Y-77906571D01*
X135758133Y-77954190D01*
X136139085Y-77954190D01*
X135186704Y-77525619D02*
X135139085Y-77478000D01*
X135043847Y-77430380D01*
X134805752Y-77430380D01*
X134710514Y-77478000D01*
X134662895Y-77525619D01*
X134615276Y-77620857D01*
X134615276Y-77716095D01*
X134662895Y-77858952D01*
X135234323Y-78430380D01*
X134615276Y-78430380D01*
X134139085Y-78430380D02*
X133948609Y-78430380D01*
X133853371Y-78382761D01*
X133805752Y-78335142D01*
X133710514Y-78192285D01*
X133662895Y-78001809D01*
X133662895Y-77620857D01*
X133710514Y-77525619D01*
X133758133Y-77478000D01*
X133853371Y-77430380D01*
X134043847Y-77430380D01*
X134139085Y-77478000D01*
X134186704Y-77525619D01*
X134234323Y-77620857D01*
X134234323Y-77858952D01*
X134186704Y-77954190D01*
X134139085Y-78001809D01*
X134043847Y-78049428D01*
X133853371Y-78049428D01*
X133758133Y-78001809D01*
X133710514Y-77954190D01*
X133662895Y-77858952D01*
X138126647Y-121457980D02*
X138459980Y-120981790D01*
X138698076Y-121457980D02*
X138698076Y-120457980D01*
X138317123Y-120457980D01*
X138221885Y-120505600D01*
X138174266Y-120553219D01*
X138126647Y-120648457D01*
X138126647Y-120791314D01*
X138174266Y-120886552D01*
X138221885Y-120934171D01*
X138317123Y-120981790D01*
X138698076Y-120981790D01*
X137174266Y-121457980D02*
X137745695Y-121457980D01*
X137459980Y-121457980D02*
X137459980Y-120457980D01*
X137555219Y-120600838D01*
X137650457Y-120696076D01*
X137745695Y-120743695D01*
X136221885Y-121457980D02*
X136793314Y-121457980D01*
X136507600Y-121457980D02*
X136507600Y-120457980D01*
X136602838Y-120600838D01*
X136698076Y-120696076D01*
X136793314Y-120743695D01*
X135364742Y-120791314D02*
X135364742Y-121457980D01*
X135602838Y-120410361D02*
X135840933Y-121124647D01*
X135221885Y-121124647D01*
X140844447Y-121432580D02*
X141177780Y-120956390D01*
X141415876Y-121432580D02*
X141415876Y-120432580D01*
X141034923Y-120432580D01*
X140939685Y-120480200D01*
X140892066Y-120527819D01*
X140844447Y-120623057D01*
X140844447Y-120765914D01*
X140892066Y-120861152D01*
X140939685Y-120908771D01*
X141034923Y-120956390D01*
X141415876Y-120956390D01*
X139892066Y-121432580D02*
X140463495Y-121432580D01*
X140177780Y-121432580D02*
X140177780Y-120432580D01*
X140273019Y-120575438D01*
X140368257Y-120670676D01*
X140463495Y-120718295D01*
X138939685Y-121432580D02*
X139511114Y-121432580D01*
X139225400Y-121432580D02*
X139225400Y-120432580D01*
X139320638Y-120575438D01*
X139415876Y-120670676D01*
X139511114Y-120718295D01*
X138034923Y-120432580D02*
X138511114Y-120432580D01*
X138558733Y-120908771D01*
X138511114Y-120861152D01*
X138415876Y-120813533D01*
X138177780Y-120813533D01*
X138082542Y-120861152D01*
X138034923Y-120908771D01*
X137987304Y-121004009D01*
X137987304Y-121242104D01*
X138034923Y-121337342D01*
X138082542Y-121384961D01*
X138177780Y-121432580D01*
X138415876Y-121432580D01*
X138511114Y-121384961D01*
X138558733Y-121337342D01*
X135609647Y-120340380D02*
X135942980Y-119864190D01*
X136181076Y-120340380D02*
X136181076Y-119340380D01*
X135800123Y-119340380D01*
X135704885Y-119388000D01*
X135657266Y-119435619D01*
X135609647Y-119530857D01*
X135609647Y-119673714D01*
X135657266Y-119768952D01*
X135704885Y-119816571D01*
X135800123Y-119864190D01*
X136181076Y-119864190D01*
X134657266Y-120340380D02*
X135228695Y-120340380D01*
X134942980Y-120340380D02*
X134942980Y-119340380D01*
X135038219Y-119483238D01*
X135133457Y-119578476D01*
X135228695Y-119626095D01*
X134038219Y-119340380D02*
X133942980Y-119340380D01*
X133847742Y-119388000D01*
X133800123Y-119435619D01*
X133752504Y-119530857D01*
X133704885Y-119721333D01*
X133704885Y-119959428D01*
X133752504Y-120149904D01*
X133800123Y-120245142D01*
X133847742Y-120292761D01*
X133942980Y-120340380D01*
X134038219Y-120340380D01*
X134133457Y-120292761D01*
X134181076Y-120245142D01*
X134228695Y-120149904D01*
X134276314Y-119959428D01*
X134276314Y-119721333D01*
X134228695Y-119530857D01*
X134181076Y-119435619D01*
X134133457Y-119388000D01*
X134038219Y-119340380D01*
X133323933Y-119435619D02*
X133276314Y-119388000D01*
X133181076Y-119340380D01*
X132942980Y-119340380D01*
X132847742Y-119388000D01*
X132800123Y-119435619D01*
X132752504Y-119530857D01*
X132752504Y-119626095D01*
X132800123Y-119768952D01*
X133371552Y-120340380D01*
X132752504Y-120340380D01*
X135538247Y-121635780D02*
X135871580Y-121159590D01*
X136109676Y-121635780D02*
X136109676Y-120635780D01*
X135728723Y-120635780D01*
X135633485Y-120683400D01*
X135585866Y-120731019D01*
X135538247Y-120826257D01*
X135538247Y-120969114D01*
X135585866Y-121064352D01*
X135633485Y-121111971D01*
X135728723Y-121159590D01*
X136109676Y-121159590D01*
X134585866Y-121635780D02*
X135157295Y-121635780D01*
X134871580Y-121635780D02*
X134871580Y-120635780D01*
X134966819Y-120778638D01*
X135062057Y-120873876D01*
X135157295Y-120921495D01*
X133633485Y-121635780D02*
X134204914Y-121635780D01*
X133919200Y-121635780D02*
X133919200Y-120635780D01*
X134014438Y-120778638D01*
X134109676Y-120873876D01*
X134204914Y-120921495D01*
X133300152Y-120635780D02*
X132681104Y-120635780D01*
X133014438Y-121016733D01*
X132871580Y-121016733D01*
X132776342Y-121064352D01*
X132728723Y-121111971D01*
X132681104Y-121207209D01*
X132681104Y-121445304D01*
X132728723Y-121540542D01*
X132776342Y-121588161D01*
X132871580Y-121635780D01*
X133157295Y-121635780D01*
X133252533Y-121588161D01*
X133300152Y-121540542D01*
X133021247Y-121686580D02*
X133354580Y-121210390D01*
X133592676Y-121686580D02*
X133592676Y-120686580D01*
X133211723Y-120686580D01*
X133116485Y-120734200D01*
X133068866Y-120781819D01*
X133021247Y-120877057D01*
X133021247Y-121019914D01*
X133068866Y-121115152D01*
X133116485Y-121162771D01*
X133211723Y-121210390D01*
X133592676Y-121210390D01*
X132068866Y-121686580D02*
X132640295Y-121686580D01*
X132354580Y-121686580D02*
X132354580Y-120686580D01*
X132449819Y-120829438D01*
X132545057Y-120924676D01*
X132640295Y-120972295D01*
X131116485Y-121686580D02*
X131687914Y-121686580D01*
X131402200Y-121686580D02*
X131402200Y-120686580D01*
X131497438Y-120829438D01*
X131592676Y-120924676D01*
X131687914Y-120972295D01*
X130735533Y-120781819D02*
X130687914Y-120734200D01*
X130592676Y-120686580D01*
X130354580Y-120686580D01*
X130259342Y-120734200D01*
X130211723Y-120781819D01*
X130164104Y-120877057D01*
X130164104Y-120972295D01*
X130211723Y-121115152D01*
X130783152Y-121686580D01*
X130164104Y-121686580D01*
X132998247Y-120365780D02*
X133331580Y-119889590D01*
X133569676Y-120365780D02*
X133569676Y-119365780D01*
X133188723Y-119365780D01*
X133093485Y-119413400D01*
X133045866Y-119461019D01*
X132998247Y-119556257D01*
X132998247Y-119699114D01*
X133045866Y-119794352D01*
X133093485Y-119841971D01*
X133188723Y-119889590D01*
X133569676Y-119889590D01*
X132045866Y-120365780D02*
X132617295Y-120365780D01*
X132331580Y-120365780D02*
X132331580Y-119365780D01*
X132426819Y-119508638D01*
X132522057Y-119603876D01*
X132617295Y-119651495D01*
X131426819Y-119365780D02*
X131331580Y-119365780D01*
X131236342Y-119413400D01*
X131188723Y-119461019D01*
X131141104Y-119556257D01*
X131093485Y-119746733D01*
X131093485Y-119984828D01*
X131141104Y-120175304D01*
X131188723Y-120270542D01*
X131236342Y-120318161D01*
X131331580Y-120365780D01*
X131426819Y-120365780D01*
X131522057Y-120318161D01*
X131569676Y-120270542D01*
X131617295Y-120175304D01*
X131664914Y-119984828D01*
X131664914Y-119746733D01*
X131617295Y-119556257D01*
X131569676Y-119461019D01*
X131522057Y-119413400D01*
X131426819Y-119365780D01*
X130141104Y-120365780D02*
X130712533Y-120365780D01*
X130426819Y-120365780D02*
X130426819Y-119365780D01*
X130522057Y-119508638D01*
X130617295Y-119603876D01*
X130712533Y-119651495D01*
X130435247Y-121612980D02*
X130768580Y-121136790D01*
X131006676Y-121612980D02*
X131006676Y-120612980D01*
X130625723Y-120612980D01*
X130530485Y-120660600D01*
X130482866Y-120708219D01*
X130435247Y-120803457D01*
X130435247Y-120946314D01*
X130482866Y-121041552D01*
X130530485Y-121089171D01*
X130625723Y-121136790D01*
X131006676Y-121136790D01*
X129482866Y-121612980D02*
X130054295Y-121612980D01*
X129768580Y-121612980D02*
X129768580Y-120612980D01*
X129863819Y-120755838D01*
X129959057Y-120851076D01*
X130054295Y-120898695D01*
X128530485Y-121612980D02*
X129101914Y-121612980D01*
X128816200Y-121612980D02*
X128816200Y-120612980D01*
X128911438Y-120755838D01*
X129006676Y-120851076D01*
X129101914Y-120898695D01*
X127578104Y-121612980D02*
X128149533Y-121612980D01*
X127863819Y-121612980D02*
X127863819Y-120612980D01*
X127959057Y-120755838D01*
X128054295Y-120851076D01*
X128149533Y-120898695D01*
X127382447Y-121356380D02*
X127715780Y-120880190D01*
X127953876Y-121356380D02*
X127953876Y-120356380D01*
X127572923Y-120356380D01*
X127477685Y-120404000D01*
X127430066Y-120451619D01*
X127382447Y-120546857D01*
X127382447Y-120689714D01*
X127430066Y-120784952D01*
X127477685Y-120832571D01*
X127572923Y-120880190D01*
X127953876Y-120880190D01*
X126430066Y-121356380D02*
X127001495Y-121356380D01*
X126715780Y-121356380D02*
X126715780Y-120356380D01*
X126811019Y-120499238D01*
X126906257Y-120594476D01*
X127001495Y-120642095D01*
X125477685Y-121356380D02*
X126049114Y-121356380D01*
X125763400Y-121356380D02*
X125763400Y-120356380D01*
X125858638Y-120499238D01*
X125953876Y-120594476D01*
X126049114Y-120642095D01*
X124858638Y-120356380D02*
X124763400Y-120356380D01*
X124668161Y-120404000D01*
X124620542Y-120451619D01*
X124572923Y-120546857D01*
X124525304Y-120737333D01*
X124525304Y-120975428D01*
X124572923Y-121165904D01*
X124620542Y-121261142D01*
X124668161Y-121308761D01*
X124763400Y-121356380D01*
X124858638Y-121356380D01*
X124953876Y-121308761D01*
X125001495Y-121261142D01*
X125049114Y-121165904D01*
X125096733Y-120975428D01*
X125096733Y-120737333D01*
X125049114Y-120546857D01*
X125001495Y-120451619D01*
X124953876Y-120404000D01*
X124858638Y-120356380D01*
X126931657Y-120238780D02*
X127264990Y-119762590D01*
X127503085Y-120238780D02*
X127503085Y-119238780D01*
X127122133Y-119238780D01*
X127026895Y-119286400D01*
X126979276Y-119334019D01*
X126931657Y-119429257D01*
X126931657Y-119572114D01*
X126979276Y-119667352D01*
X127026895Y-119714971D01*
X127122133Y-119762590D01*
X127503085Y-119762590D01*
X126455466Y-120238780D02*
X126264990Y-120238780D01*
X126169752Y-120191161D01*
X126122133Y-120143542D01*
X126026895Y-120000685D01*
X125979276Y-119810209D01*
X125979276Y-119429257D01*
X126026895Y-119334019D01*
X126074514Y-119286400D01*
X126169752Y-119238780D01*
X126360228Y-119238780D01*
X126455466Y-119286400D01*
X126503085Y-119334019D01*
X126550704Y-119429257D01*
X126550704Y-119667352D01*
X126503085Y-119762590D01*
X126455466Y-119810209D01*
X126360228Y-119857828D01*
X126169752Y-119857828D01*
X126074514Y-119810209D01*
X126026895Y-119762590D01*
X125979276Y-119667352D01*
X125503085Y-120238780D02*
X125312609Y-120238780D01*
X125217371Y-120191161D01*
X125169752Y-120143542D01*
X125074514Y-120000685D01*
X125026895Y-119810209D01*
X125026895Y-119429257D01*
X125074514Y-119334019D01*
X125122133Y-119286400D01*
X125217371Y-119238780D01*
X125407847Y-119238780D01*
X125503085Y-119286400D01*
X125550704Y-119334019D01*
X125598323Y-119429257D01*
X125598323Y-119667352D01*
X125550704Y-119762590D01*
X125503085Y-119810209D01*
X125407847Y-119857828D01*
X125217371Y-119857828D01*
X125122133Y-119810209D01*
X125074514Y-119762590D01*
X125026895Y-119667352D01*
X168473380Y-138326952D02*
X167997190Y-137993619D01*
X168473380Y-137755523D02*
X167473380Y-137755523D01*
X167473380Y-138136476D01*
X167521000Y-138231714D01*
X167568619Y-138279333D01*
X167663857Y-138326952D01*
X167806714Y-138326952D01*
X167901952Y-138279333D01*
X167949571Y-138231714D01*
X167997190Y-138136476D01*
X167997190Y-137755523D01*
X168473380Y-139279333D02*
X168473380Y-138707904D01*
X168473380Y-138993619D02*
X167473380Y-138993619D01*
X167616238Y-138898380D01*
X167711476Y-138803142D01*
X167759095Y-138707904D01*
X167473380Y-139612666D02*
X167473380Y-140231714D01*
X167854333Y-139898380D01*
X167854333Y-140041238D01*
X167901952Y-140136476D01*
X167949571Y-140184095D01*
X168044809Y-140231714D01*
X168282904Y-140231714D01*
X168378142Y-140184095D01*
X168425761Y-140136476D01*
X168473380Y-140041238D01*
X168473380Y-139755523D01*
X168425761Y-139660285D01*
X168378142Y-139612666D01*
X167473380Y-141088857D02*
X167473380Y-140898380D01*
X167521000Y-140803142D01*
X167568619Y-140755523D01*
X167711476Y-140660285D01*
X167901952Y-140612666D01*
X168282904Y-140612666D01*
X168378142Y-140660285D01*
X168425761Y-140707904D01*
X168473380Y-140803142D01*
X168473380Y-140993619D01*
X168425761Y-141088857D01*
X168378142Y-141136476D01*
X168282904Y-141184095D01*
X168044809Y-141184095D01*
X167949571Y-141136476D01*
X167901952Y-141088857D01*
X167854333Y-140993619D01*
X167854333Y-140803142D01*
X167901952Y-140707904D01*
X167949571Y-140660285D01*
X168044809Y-140612666D01*
X176048847Y-121635780D02*
X176382180Y-121159590D01*
X176620276Y-121635780D02*
X176620276Y-120635780D01*
X176239323Y-120635780D01*
X176144085Y-120683400D01*
X176096466Y-120731019D01*
X176048847Y-120826257D01*
X176048847Y-120969114D01*
X176096466Y-121064352D01*
X176144085Y-121111971D01*
X176239323Y-121159590D01*
X176620276Y-121159590D01*
X175096466Y-121635780D02*
X175667895Y-121635780D01*
X175382180Y-121635780D02*
X175382180Y-120635780D01*
X175477419Y-120778638D01*
X175572657Y-120873876D01*
X175667895Y-120921495D01*
X174477419Y-120635780D02*
X174382180Y-120635780D01*
X174286942Y-120683400D01*
X174239323Y-120731019D01*
X174191704Y-120826257D01*
X174144085Y-121016733D01*
X174144085Y-121254828D01*
X174191704Y-121445304D01*
X174239323Y-121540542D01*
X174286942Y-121588161D01*
X174382180Y-121635780D01*
X174477419Y-121635780D01*
X174572657Y-121588161D01*
X174620276Y-121540542D01*
X174667895Y-121445304D01*
X174715514Y-121254828D01*
X174715514Y-121016733D01*
X174667895Y-120826257D01*
X174620276Y-120731019D01*
X174572657Y-120683400D01*
X174477419Y-120635780D01*
X173810752Y-120635780D02*
X173191704Y-120635780D01*
X173525038Y-121016733D01*
X173382180Y-121016733D01*
X173286942Y-121064352D01*
X173239323Y-121111971D01*
X173191704Y-121207209D01*
X173191704Y-121445304D01*
X173239323Y-121540542D01*
X173286942Y-121588161D01*
X173382180Y-121635780D01*
X173667895Y-121635780D01*
X173763133Y-121588161D01*
X173810752Y-121540542D01*
X174524847Y-126360180D02*
X174858180Y-125883990D01*
X175096276Y-126360180D02*
X175096276Y-125360180D01*
X174715323Y-125360180D01*
X174620085Y-125407800D01*
X174572466Y-125455419D01*
X174524847Y-125550657D01*
X174524847Y-125693514D01*
X174572466Y-125788752D01*
X174620085Y-125836371D01*
X174715323Y-125883990D01*
X175096276Y-125883990D01*
X173572466Y-126360180D02*
X174143895Y-126360180D01*
X173858180Y-126360180D02*
X173858180Y-125360180D01*
X173953419Y-125503038D01*
X174048657Y-125598276D01*
X174143895Y-125645895D01*
X173191514Y-125455419D02*
X173143895Y-125407800D01*
X173048657Y-125360180D01*
X172810561Y-125360180D01*
X172715323Y-125407800D01*
X172667704Y-125455419D01*
X172620085Y-125550657D01*
X172620085Y-125645895D01*
X172667704Y-125788752D01*
X173239133Y-126360180D01*
X172620085Y-126360180D01*
X171667704Y-126360180D02*
X172239133Y-126360180D01*
X171953419Y-126360180D02*
X171953419Y-125360180D01*
X172048657Y-125503038D01*
X172143895Y-125598276D01*
X172239133Y-125645895D01*
X129916180Y-93108542D02*
X129439990Y-92775209D01*
X129916180Y-92537114D02*
X128916180Y-92537114D01*
X128916180Y-92918066D01*
X128963800Y-93013304D01*
X129011419Y-93060923D01*
X129106657Y-93108542D01*
X129249514Y-93108542D01*
X129344752Y-93060923D01*
X129392371Y-93013304D01*
X129439990Y-92918066D01*
X129439990Y-92537114D01*
X128916180Y-94013304D02*
X128916180Y-93537114D01*
X129392371Y-93489495D01*
X129344752Y-93537114D01*
X129297133Y-93632352D01*
X129297133Y-93870447D01*
X129344752Y-93965685D01*
X129392371Y-94013304D01*
X129487609Y-94060923D01*
X129725704Y-94060923D01*
X129820942Y-94013304D01*
X129868561Y-93965685D01*
X129916180Y-93870447D01*
X129916180Y-93632352D01*
X129868561Y-93537114D01*
X129820942Y-93489495D01*
X128916180Y-94679971D02*
X128916180Y-94775209D01*
X128963800Y-94870447D01*
X129011419Y-94918066D01*
X129106657Y-94965685D01*
X129297133Y-95013304D01*
X129535228Y-95013304D01*
X129725704Y-94965685D01*
X129820942Y-94918066D01*
X129868561Y-94870447D01*
X129916180Y-94775209D01*
X129916180Y-94679971D01*
X129868561Y-94584733D01*
X129820942Y-94537114D01*
X129725704Y-94489495D01*
X129535228Y-94441876D01*
X129297133Y-94441876D01*
X129106657Y-94489495D01*
X129011419Y-94537114D01*
X128963800Y-94584733D01*
X128916180Y-94679971D01*
X134678657Y-94102180D02*
X135011990Y-93625990D01*
X135250085Y-94102180D02*
X135250085Y-93102180D01*
X134869133Y-93102180D01*
X134773895Y-93149800D01*
X134726276Y-93197419D01*
X134678657Y-93292657D01*
X134678657Y-93435514D01*
X134726276Y-93530752D01*
X134773895Y-93578371D01*
X134869133Y-93625990D01*
X135250085Y-93625990D01*
X133773895Y-93102180D02*
X134250085Y-93102180D01*
X134297704Y-93578371D01*
X134250085Y-93530752D01*
X134154847Y-93483133D01*
X133916752Y-93483133D01*
X133821514Y-93530752D01*
X133773895Y-93578371D01*
X133726276Y-93673609D01*
X133726276Y-93911704D01*
X133773895Y-94006942D01*
X133821514Y-94054561D01*
X133916752Y-94102180D01*
X134154847Y-94102180D01*
X134250085Y-94054561D01*
X134297704Y-94006942D01*
X132773895Y-94102180D02*
X133345323Y-94102180D01*
X133059609Y-94102180D02*
X133059609Y-93102180D01*
X133154847Y-93245038D01*
X133250085Y-93340276D01*
X133345323Y-93387895D01*
X134678657Y-92730580D02*
X135011990Y-92254390D01*
X135250085Y-92730580D02*
X135250085Y-91730580D01*
X134869133Y-91730580D01*
X134773895Y-91778200D01*
X134726276Y-91825819D01*
X134678657Y-91921057D01*
X134678657Y-92063914D01*
X134726276Y-92159152D01*
X134773895Y-92206771D01*
X134869133Y-92254390D01*
X135250085Y-92254390D01*
X133821514Y-92063914D02*
X133821514Y-92730580D01*
X134059609Y-91682961D02*
X134297704Y-92397247D01*
X133678657Y-92397247D01*
X132821514Y-91730580D02*
X133297704Y-91730580D01*
X133345323Y-92206771D01*
X133297704Y-92159152D01*
X133202466Y-92111533D01*
X132964371Y-92111533D01*
X132869133Y-92159152D01*
X132821514Y-92206771D01*
X132773895Y-92302009D01*
X132773895Y-92540104D01*
X132821514Y-92635342D01*
X132869133Y-92682961D01*
X132964371Y-92730580D01*
X133202466Y-92730580D01*
X133297704Y-92682961D01*
X133345323Y-92635342D01*
X132456180Y-109831542D02*
X131979990Y-109498209D01*
X132456180Y-109260114D02*
X131456180Y-109260114D01*
X131456180Y-109641066D01*
X131503800Y-109736304D01*
X131551419Y-109783923D01*
X131646657Y-109831542D01*
X131789514Y-109831542D01*
X131884752Y-109783923D01*
X131932371Y-109736304D01*
X131979990Y-109641066D01*
X131979990Y-109260114D01*
X131884752Y-110402971D02*
X131837133Y-110307733D01*
X131789514Y-110260114D01*
X131694276Y-110212495D01*
X131646657Y-110212495D01*
X131551419Y-110260114D01*
X131503800Y-110307733D01*
X131456180Y-110402971D01*
X131456180Y-110593447D01*
X131503800Y-110688685D01*
X131551419Y-110736304D01*
X131646657Y-110783923D01*
X131694276Y-110783923D01*
X131789514Y-110736304D01*
X131837133Y-110688685D01*
X131884752Y-110593447D01*
X131884752Y-110402971D01*
X131932371Y-110307733D01*
X131979990Y-110260114D01*
X132075228Y-110212495D01*
X132265704Y-110212495D01*
X132360942Y-110260114D01*
X132408561Y-110307733D01*
X132456180Y-110402971D01*
X132456180Y-110593447D01*
X132408561Y-110688685D01*
X132360942Y-110736304D01*
X132265704Y-110783923D01*
X132075228Y-110783923D01*
X131979990Y-110736304D01*
X131932371Y-110688685D01*
X131884752Y-110593447D01*
X131456180Y-111402971D02*
X131456180Y-111498209D01*
X131503800Y-111593447D01*
X131551419Y-111641066D01*
X131646657Y-111688685D01*
X131837133Y-111736304D01*
X132075228Y-111736304D01*
X132265704Y-111688685D01*
X132360942Y-111641066D01*
X132408561Y-111593447D01*
X132456180Y-111498209D01*
X132456180Y-111402971D01*
X132408561Y-111307733D01*
X132360942Y-111260114D01*
X132265704Y-111212495D01*
X132075228Y-111164876D01*
X131837133Y-111164876D01*
X131646657Y-111212495D01*
X131551419Y-111260114D01*
X131503800Y-111307733D01*
X131456180Y-111402971D01*
X132456180Y-112336342D02*
X131979990Y-112003009D01*
X132456180Y-111764914D02*
X131456180Y-111764914D01*
X131456180Y-112145866D01*
X131503800Y-112241104D01*
X131551419Y-112288723D01*
X131646657Y-112336342D01*
X131789514Y-112336342D01*
X131884752Y-112288723D01*
X131932371Y-112241104D01*
X131979990Y-112145866D01*
X131979990Y-111764914D01*
X132456180Y-112812533D02*
X132456180Y-113003009D01*
X132408561Y-113098247D01*
X132360942Y-113145866D01*
X132218085Y-113241104D01*
X132027609Y-113288723D01*
X131646657Y-113288723D01*
X131551419Y-113241104D01*
X131503800Y-113193485D01*
X131456180Y-113098247D01*
X131456180Y-112907771D01*
X131503800Y-112812533D01*
X131551419Y-112764914D01*
X131646657Y-112717295D01*
X131884752Y-112717295D01*
X131979990Y-112764914D01*
X132027609Y-112812533D01*
X132075228Y-112907771D01*
X132075228Y-113098247D01*
X132027609Y-113193485D01*
X131979990Y-113241104D01*
X131884752Y-113288723D01*
X131456180Y-114193485D02*
X131456180Y-113717295D01*
X131932371Y-113669676D01*
X131884752Y-113717295D01*
X131837133Y-113812533D01*
X131837133Y-114050628D01*
X131884752Y-114145866D01*
X131932371Y-114193485D01*
X132027609Y-114241104D01*
X132265704Y-114241104D01*
X132360942Y-114193485D01*
X132408561Y-114145866D01*
X132456180Y-114050628D01*
X132456180Y-113812533D01*
X132408561Y-113717295D01*
X132360942Y-113669676D01*
X132456180Y-114876342D02*
X131979990Y-114543009D01*
X132456180Y-114304914D02*
X131456180Y-114304914D01*
X131456180Y-114685866D01*
X131503800Y-114781104D01*
X131551419Y-114828723D01*
X131646657Y-114876342D01*
X131789514Y-114876342D01*
X131884752Y-114828723D01*
X131932371Y-114781104D01*
X131979990Y-114685866D01*
X131979990Y-114304914D01*
X132456180Y-115352533D02*
X132456180Y-115543009D01*
X132408561Y-115638247D01*
X132360942Y-115685866D01*
X132218085Y-115781104D01*
X132027609Y-115828723D01*
X131646657Y-115828723D01*
X131551419Y-115781104D01*
X131503800Y-115733485D01*
X131456180Y-115638247D01*
X131456180Y-115447771D01*
X131503800Y-115352533D01*
X131551419Y-115304914D01*
X131646657Y-115257295D01*
X131884752Y-115257295D01*
X131979990Y-115304914D01*
X132027609Y-115352533D01*
X132075228Y-115447771D01*
X132075228Y-115638247D01*
X132027609Y-115733485D01*
X131979990Y-115781104D01*
X131884752Y-115828723D01*
X131456180Y-116162057D02*
X131456180Y-116828723D01*
X132456180Y-116400152D01*
X130580447Y-120340380D02*
X130913780Y-119864190D01*
X131151876Y-120340380D02*
X131151876Y-119340380D01*
X130770923Y-119340380D01*
X130675685Y-119388000D01*
X130628066Y-119435619D01*
X130580447Y-119530857D01*
X130580447Y-119673714D01*
X130628066Y-119768952D01*
X130675685Y-119816571D01*
X130770923Y-119864190D01*
X131151876Y-119864190D01*
X129628066Y-120340380D02*
X130199495Y-120340380D01*
X129913780Y-120340380D02*
X129913780Y-119340380D01*
X130009019Y-119483238D01*
X130104257Y-119578476D01*
X130199495Y-119626095D01*
X129009019Y-119340380D02*
X128913780Y-119340380D01*
X128818542Y-119388000D01*
X128770923Y-119435619D01*
X128723304Y-119530857D01*
X128675685Y-119721333D01*
X128675685Y-119959428D01*
X128723304Y-120149904D01*
X128770923Y-120245142D01*
X128818542Y-120292761D01*
X128913780Y-120340380D01*
X129009019Y-120340380D01*
X129104257Y-120292761D01*
X129151876Y-120245142D01*
X129199495Y-120149904D01*
X129247114Y-119959428D01*
X129247114Y-119721333D01*
X129199495Y-119530857D01*
X129151876Y-119435619D01*
X129104257Y-119388000D01*
X129009019Y-119340380D01*
X128056638Y-119340380D02*
X127961400Y-119340380D01*
X127866161Y-119388000D01*
X127818542Y-119435619D01*
X127770923Y-119530857D01*
X127723304Y-119721333D01*
X127723304Y-119959428D01*
X127770923Y-120149904D01*
X127818542Y-120245142D01*
X127866161Y-120292761D01*
X127961400Y-120340380D01*
X128056638Y-120340380D01*
X128151876Y-120292761D01*
X128199495Y-120245142D01*
X128247114Y-120149904D01*
X128294733Y-119959428D01*
X128294733Y-119721333D01*
X128247114Y-119530857D01*
X128199495Y-119435619D01*
X128151876Y-119388000D01*
X128056638Y-119340380D01*
X193047857Y-71445380D02*
X193381190Y-70969190D01*
X193619285Y-71445380D02*
X193619285Y-70445380D01*
X193238333Y-70445380D01*
X193143095Y-70493000D01*
X193095476Y-70540619D01*
X193047857Y-70635857D01*
X193047857Y-70778714D01*
X193095476Y-70873952D01*
X193143095Y-70921571D01*
X193238333Y-70969190D01*
X193619285Y-70969190D01*
X192666904Y-70540619D02*
X192619285Y-70493000D01*
X192524047Y-70445380D01*
X192285952Y-70445380D01*
X192190714Y-70493000D01*
X192143095Y-70540619D01*
X192095476Y-70635857D01*
X192095476Y-70731095D01*
X192143095Y-70873952D01*
X192714523Y-71445380D01*
X192095476Y-71445380D01*
X191476428Y-70445380D02*
X191381190Y-70445380D01*
X191285952Y-70493000D01*
X191238333Y-70540619D01*
X191190714Y-70635857D01*
X191143095Y-70826333D01*
X191143095Y-71064428D01*
X191190714Y-71254904D01*
X191238333Y-71350142D01*
X191285952Y-71397761D01*
X191381190Y-71445380D01*
X191476428Y-71445380D01*
X191571666Y-71397761D01*
X191619285Y-71350142D01*
X191666904Y-71254904D01*
X191714523Y-71064428D01*
X191714523Y-70826333D01*
X191666904Y-70635857D01*
X191619285Y-70540619D01*
X191571666Y-70493000D01*
X191476428Y-70445380D01*
X217438904Y-82002380D02*
X217438904Y-82811904D01*
X217391285Y-82907142D01*
X217343666Y-82954761D01*
X217248428Y-83002380D01*
X217057952Y-83002380D01*
X216962714Y-82954761D01*
X216915095Y-82907142D01*
X216867476Y-82811904D01*
X216867476Y-82002380D01*
X216486523Y-82002380D02*
X215867476Y-82002380D01*
X216200809Y-82383333D01*
X216057952Y-82383333D01*
X215962714Y-82430952D01*
X215915095Y-82478571D01*
X215867476Y-82573809D01*
X215867476Y-82811904D01*
X215915095Y-82907142D01*
X215962714Y-82954761D01*
X216057952Y-83002380D01*
X216343666Y-83002380D01*
X216438904Y-82954761D01*
X216486523Y-82907142D01*
X135447019Y-97104104D02*
X134637495Y-97104104D01*
X134542257Y-97056485D01*
X134494638Y-97008866D01*
X134447019Y-96913628D01*
X134447019Y-96723152D01*
X134494638Y-96627914D01*
X134542257Y-96580295D01*
X134637495Y-96532676D01*
X135447019Y-96532676D01*
X135447019Y-96151723D02*
X135447019Y-95485057D01*
X134447019Y-95913628D01*
X144455333Y-141940571D02*
X144788666Y-141940571D01*
X144788666Y-142464380D02*
X144788666Y-141464380D01*
X144312476Y-141464380D01*
X143598190Y-141940571D02*
X143455333Y-141988190D01*
X143407714Y-142035809D01*
X143360095Y-142131047D01*
X143360095Y-142273904D01*
X143407714Y-142369142D01*
X143455333Y-142416761D01*
X143550571Y-142464380D01*
X143931523Y-142464380D01*
X143931523Y-141464380D01*
X143598190Y-141464380D01*
X143502952Y-141512000D01*
X143455333Y-141559619D01*
X143407714Y-141654857D01*
X143407714Y-141750095D01*
X143455333Y-141845333D01*
X143502952Y-141892952D01*
X143598190Y-141940571D01*
X143931523Y-141940571D01*
X142502952Y-141464380D02*
X142693428Y-141464380D01*
X142788666Y-141512000D01*
X142836285Y-141559619D01*
X142931523Y-141702476D01*
X142979142Y-141892952D01*
X142979142Y-142273904D01*
X142931523Y-142369142D01*
X142883904Y-142416761D01*
X142788666Y-142464380D01*
X142598190Y-142464380D01*
X142502952Y-142416761D01*
X142455333Y-142369142D01*
X142407714Y-142273904D01*
X142407714Y-142035809D01*
X142455333Y-141940571D01*
X142502952Y-141892952D01*
X142598190Y-141845333D01*
X142788666Y-141845333D01*
X142883904Y-141892952D01*
X142931523Y-141940571D01*
X142979142Y-142035809D01*
X165933333Y-141660571D02*
X166266666Y-141660571D01*
X166266666Y-142184380D02*
X166266666Y-141184380D01*
X165790476Y-141184380D01*
X165076190Y-141660571D02*
X164933333Y-141708190D01*
X164885714Y-141755809D01*
X164838095Y-141851047D01*
X164838095Y-141993904D01*
X164885714Y-142089142D01*
X164933333Y-142136761D01*
X165028571Y-142184380D01*
X165409523Y-142184380D01*
X165409523Y-141184380D01*
X165076190Y-141184380D01*
X164980952Y-141232000D01*
X164933333Y-141279619D01*
X164885714Y-141374857D01*
X164885714Y-141470095D01*
X164933333Y-141565333D01*
X164980952Y-141612952D01*
X165076190Y-141660571D01*
X165409523Y-141660571D01*
X164457142Y-141279619D02*
X164409523Y-141232000D01*
X164314285Y-141184380D01*
X164076190Y-141184380D01*
X163980952Y-141232000D01*
X163933333Y-141279619D01*
X163885714Y-141374857D01*
X163885714Y-141470095D01*
X163933333Y-141612952D01*
X164504761Y-142184380D01*
X163885714Y-142184380D01*
D13*
X134413333Y-144521428D02*
X134546666Y-144521428D01*
X134546666Y-144730952D02*
X134546666Y-144330952D01*
X134356190Y-144330952D01*
X134070476Y-144521428D02*
X134013333Y-144540476D01*
X133994285Y-144559523D01*
X133975238Y-144597619D01*
X133975238Y-144654761D01*
X133994285Y-144692857D01*
X134013333Y-144711904D01*
X134051428Y-144730952D01*
X134203809Y-144730952D01*
X134203809Y-144330952D01*
X134070476Y-144330952D01*
X134032380Y-144350000D01*
X134013333Y-144369047D01*
X133994285Y-144407142D01*
X133994285Y-144445238D01*
X134013333Y-144483333D01*
X134032380Y-144502380D01*
X134070476Y-144521428D01*
X134203809Y-144521428D01*
X133841904Y-144330952D02*
X133594285Y-144330952D01*
X133727619Y-144483333D01*
X133670476Y-144483333D01*
X133632380Y-144502380D01*
X133613333Y-144521428D01*
X133594285Y-144559523D01*
X133594285Y-144654761D01*
X133613333Y-144692857D01*
X133632380Y-144711904D01*
X133670476Y-144730952D01*
X133784761Y-144730952D01*
X133822857Y-144711904D01*
X133841904Y-144692857D01*
M02*
