%FSLAX45Y45*%
G04 Gerber Fmt 4.5, Leading zero omitted, Abs format (unit mm)*
G04 Created by KiCad (PCBNEW 5.1.6-c6e7f7d~86~ubuntu16.04.1) date 2020-08-01 22:20:31*
%MOMM*%
%LPD*%
G01*
G04 APERTURE LIST*
%TA.AperFunction,Profile*%
%ADD10C,0.100000*%
%TD*%
%ADD11C,0.200000*%
%ADD12C,0.300000*%
G04 APERTURE END LIST*
D10*
X28227020Y-4569460D02*
X28201620Y-16342360D01*
X12288520Y-4569460D02*
X28227020Y-4569460D01*
X12288520Y-16342360D02*
X12288520Y-4569460D01*
X28201620Y-16342360D02*
X12288520Y-16342360D01*
D11*
X24752380Y-14502620D02*
X24772380Y-14522620D01*
X24772380Y-14502620D02*
X24752380Y-14522620D01*
X24752380Y-14602620D02*
X24772380Y-14622620D01*
X24772380Y-14602620D02*
X24752380Y-14622620D01*
X24752380Y-14702620D02*
X24772380Y-14722620D01*
X24772380Y-14702620D02*
X24752380Y-14722620D01*
X24882380Y-14502620D02*
X24902380Y-14522620D01*
X24902380Y-14502620D02*
X24882380Y-14522620D01*
X24882380Y-14602620D02*
X24902380Y-14622620D01*
X24902380Y-14602620D02*
X24882380Y-14622620D01*
X24882380Y-14702620D02*
X24902380Y-14722620D01*
X24902380Y-14702620D02*
X24882380Y-14722620D01*
X21808900Y-15195820D02*
X21828900Y-15215820D01*
X21828900Y-15195820D02*
X21808900Y-15215820D01*
X21808900Y-15295820D02*
X21828900Y-15315820D01*
X21828900Y-15295820D02*
X21808900Y-15315820D01*
X21808900Y-15395820D02*
X21828900Y-15415820D01*
X21828900Y-15395820D02*
X21808900Y-15415820D01*
X21938900Y-15195820D02*
X21958900Y-15215820D01*
X21958900Y-15195820D02*
X21938900Y-15215820D01*
X21938900Y-15295820D02*
X21958900Y-15315820D01*
X21958900Y-15295820D02*
X21938900Y-15315820D01*
X21938900Y-15395820D02*
X21958900Y-15415820D01*
X21958900Y-15395820D02*
X21938900Y-15415820D01*
X21746920Y-13733080D02*
X21766920Y-13753080D01*
X21766920Y-13733080D02*
X21746920Y-13753080D01*
X21746920Y-13833080D02*
X21766920Y-13853080D01*
X21766920Y-13833080D02*
X21746920Y-13853080D01*
X21746920Y-13933080D02*
X21766920Y-13953080D01*
X21766920Y-13933080D02*
X21746920Y-13953080D01*
X21876920Y-13733080D02*
X21896920Y-13753080D01*
X21896920Y-13733080D02*
X21876920Y-13753080D01*
X21876920Y-13833080D02*
X21896920Y-13853080D01*
X21896920Y-13833080D02*
X21876920Y-13853080D01*
X21876920Y-13933080D02*
X21896920Y-13953080D01*
X21896920Y-13933080D02*
X21876920Y-13953080D01*
X12509500Y-11976100D02*
G75*
G03*
X12509500Y-11976100I-10160J0D01*
G01*
X12512040Y-12090400D02*
G75*
G03*
X12512040Y-12090400I-10160J0D01*
G01*
X12743180Y-10253980D02*
G75*
G03*
X12743180Y-10253980I-10160J0D01*
G01*
X12793980Y-7627620D02*
G75*
G03*
X12793980Y-7627620I-10160J0D01*
G01*
X12832080Y-12057380D02*
G75*
G03*
X12832080Y-12057380I-10160J0D01*
G01*
X12834620Y-7848600D02*
G75*
G03*
X12834620Y-7848600I-10160J0D01*
G01*
X12895580Y-8059420D02*
G75*
G03*
X12895580Y-8059420I-10160J0D01*
G01*
X12910820Y-11915140D02*
G75*
G03*
X12910820Y-11915140I-10160J0D01*
G01*
X12961620Y-9222740D02*
G75*
G03*
X12961620Y-9222740I-10160J0D01*
G01*
X12961620Y-10518140D02*
G75*
G03*
X12961620Y-10518140I-10160J0D01*
G01*
X12976860Y-5621020D02*
G75*
G03*
X12976860Y-5621020I-10160J0D01*
G01*
X12994640Y-5750560D02*
G75*
G03*
X12994640Y-5750560I-10160J0D01*
G01*
X13037820Y-9517380D02*
G75*
G03*
X13037820Y-9517380I-10160J0D01*
G01*
X13058140Y-10066020D02*
G75*
G03*
X13058140Y-10066020I-10160J0D01*
G01*
X13086080Y-8163560D02*
G75*
G03*
X13086080Y-8163560I-10160J0D01*
G01*
X13116560Y-11638280D02*
G75*
G03*
X13116560Y-11638280I-10160J0D01*
G01*
X13124180Y-11272520D02*
G75*
G03*
X13124180Y-11272520I-10160J0D01*
G01*
X13132260Y-7845600D02*
G75*
G03*
X13132260Y-7845600I-10160J0D01*
G01*
X13151880Y-12070320D02*
G75*
G03*
X13151880Y-12070320I-10160J0D01*
G01*
X13155700Y-8040600D02*
G75*
G03*
X13155700Y-8040600I-10160J0D01*
G01*
X13163160Y-10445360D02*
G75*
G03*
X13163160Y-10445360I-10160J0D01*
G01*
X13169900Y-11910060D02*
G75*
G03*
X13169900Y-11910060I-10160J0D01*
G01*
X13340980Y-5549000D02*
G75*
G03*
X13340980Y-5549000I-10160J0D01*
G01*
X13342620Y-9481820D02*
G75*
G03*
X13342620Y-9481820I-10160J0D01*
G01*
X13368020Y-9131300D02*
G75*
G03*
X13368020Y-9131300I-10160J0D01*
G01*
X13401040Y-5768340D02*
G75*
G03*
X13401040Y-5768340I-10160J0D01*
G01*
X13406120Y-12062460D02*
G75*
G03*
X13406120Y-12062460I-10160J0D01*
G01*
X13433535Y-11935141D02*
G75*
G03*
X13433535Y-11935141I-10160J0D01*
G01*
X13464540Y-7983220D02*
G75*
G03*
X13464540Y-7983220I-10160J0D01*
G01*
X13510260Y-10553700D02*
G75*
G03*
X13510260Y-10553700I-10160J0D01*
G01*
X13520420Y-9824720D02*
G75*
G03*
X13520420Y-9824720I-10160J0D01*
G01*
X13555980Y-10487660D02*
G75*
G03*
X13555980Y-10487660I-10160J0D01*
G01*
X13611860Y-10431780D02*
G75*
G03*
X13611860Y-10431780I-10160J0D01*
G01*
X13647420Y-7917180D02*
G75*
G03*
X13647420Y-7917180I-10160J0D01*
G01*
X13647420Y-9039860D02*
G75*
G03*
X13647420Y-9039860I-10160J0D01*
G01*
X13655550Y-8166610D02*
G75*
G03*
X13655550Y-8166610I-10160J0D01*
G01*
X13685520Y-12029440D02*
G75*
G03*
X13685520Y-12029440I-10160J0D01*
G01*
X13779500Y-9695180D02*
G75*
G03*
X13779500Y-9695180I-10160J0D01*
G01*
X13865860Y-5575300D02*
G75*
G03*
X13865860Y-5575300I-10160J0D01*
G01*
X13883640Y-8265479D02*
G75*
G03*
X13883640Y-8265479I-10160J0D01*
G01*
X13947140Y-11940540D02*
G75*
G03*
X13947140Y-11940540I-10160J0D01*
G01*
X14007772Y-8069908D02*
G75*
G03*
X14007772Y-8069908I-10160J0D01*
G01*
X14051280Y-12024360D02*
G75*
G03*
X14051280Y-12024360I-10160J0D01*
G01*
X14069060Y-5346700D02*
G75*
G03*
X14069060Y-5346700I-10160J0D01*
G01*
X14119860Y-5875020D02*
G75*
G03*
X14119860Y-5875020I-10160J0D01*
G01*
X14238688Y-8736369D02*
G75*
G03*
X14238688Y-8736369I-10160J0D01*
G01*
X14241160Y-8989000D02*
G75*
G03*
X14241160Y-8989000I-10160J0D01*
G01*
X14244550Y-8882610D02*
G75*
G03*
X14244550Y-8882610I-10160J0D01*
G01*
X14249400Y-7912100D02*
G75*
G03*
X14249400Y-7912100I-10160J0D01*
G01*
X14287500Y-8496300D02*
G75*
G03*
X14287500Y-8496300I-10160J0D01*
G01*
X14296562Y-8359808D02*
G75*
G03*
X14296562Y-8359808I-10160J0D01*
G01*
X14300953Y-8645440D02*
G75*
G03*
X14300953Y-8645440I-10160J0D01*
G01*
X14303059Y-8420100D02*
G75*
G03*
X14303059Y-8420100I-10160J0D01*
G01*
X14303059Y-8567420D02*
G75*
G03*
X14303059Y-8567420I-10160J0D01*
G01*
X14343380Y-7632700D02*
G75*
G03*
X14343380Y-7632700I-10160J0D01*
G01*
X14450379Y-8930498D02*
G75*
G03*
X14450379Y-8930498I-10160J0D01*
G01*
X14550776Y-8011992D02*
G75*
G03*
X14550776Y-8011992I-10160J0D01*
G01*
X14551660Y-8856980D02*
G75*
G03*
X14551660Y-8856980I-10160J0D01*
G01*
X14643100Y-10594340D02*
G75*
G03*
X14643100Y-10594340I-10160J0D01*
G01*
X14688820Y-5334000D02*
G75*
G03*
X14688820Y-5334000I-10160J0D01*
G01*
X14734360Y-9481100D02*
G75*
G03*
X14734360Y-9481100I-10160J0D01*
G01*
X14738160Y-7896000D02*
G75*
G03*
X14738160Y-7896000I-10160J0D01*
G01*
X14741360Y-9593100D02*
G75*
G03*
X14741360Y-9593100I-10160J0D01*
G01*
X14743360Y-9707100D02*
G75*
G03*
X14743360Y-9707100I-10160J0D01*
G01*
X14836360Y-8996100D02*
G75*
G03*
X14836360Y-8996100I-10160J0D01*
G01*
X14838360Y-9099100D02*
G75*
G03*
X14838360Y-9099100I-10160J0D01*
G01*
X14838360Y-9209100D02*
G75*
G03*
X14838360Y-9209100I-10160J0D01*
G01*
X14840360Y-9340100D02*
G75*
G03*
X14840360Y-9340100I-10160J0D01*
G01*
X14858360Y-7665100D02*
G75*
G03*
X14858360Y-7665100I-10160J0D01*
G01*
X14874240Y-8221980D02*
G75*
G03*
X14874240Y-8221980I-10160J0D01*
G01*
X14881860Y-8115300D02*
G75*
G03*
X14881860Y-8115300I-10160J0D01*
G01*
X14912340Y-13616940D02*
G75*
G03*
X14912340Y-13616940I-10160J0D01*
G01*
X14913660Y-7575500D02*
G75*
G03*
X14913660Y-7575500I-10160J0D01*
G01*
X14919960Y-7495540D02*
G75*
G03*
X14919960Y-7495540I-10160J0D01*
G01*
X14922500Y-9999980D02*
G75*
G03*
X14922500Y-9999980I-10160J0D01*
G01*
X14998700Y-14063980D02*
G75*
G03*
X14998700Y-14063980I-10160J0D01*
G01*
X15049500Y-13088620D02*
G75*
G03*
X15049500Y-13088620I-10160J0D01*
G01*
X15095220Y-13530580D02*
G75*
G03*
X15095220Y-13530580I-10160J0D01*
G01*
X15151160Y-13070900D02*
G75*
G03*
X15151160Y-13070900I-10160J0D01*
G01*
X15206980Y-13962380D02*
G75*
G03*
X15206980Y-13962380I-10160J0D01*
G01*
X15262860Y-11280140D02*
G75*
G03*
X15262860Y-11280140I-10160J0D01*
G01*
X15384780Y-13693140D02*
G75*
G03*
X15384780Y-13693140I-10160J0D01*
G01*
X15413820Y-14134000D02*
G75*
G03*
X15413820Y-14134000I-10160J0D01*
G01*
X15415260Y-14884400D02*
G75*
G03*
X15415260Y-14884400I-10160J0D01*
G01*
X15496360Y-9939100D02*
G75*
G03*
X15496360Y-9939100I-10160J0D01*
G01*
X15497600Y-14255960D02*
G75*
G03*
X15497600Y-14255960I-10160J0D01*
G01*
X15504160Y-7866380D02*
G75*
G03*
X15504160Y-7866380I-10160J0D01*
G01*
X15546360Y-9740100D02*
G75*
G03*
X15546360Y-9740100I-10160J0D01*
G01*
X15547360Y-9505100D02*
G75*
G03*
X15547360Y-9505100I-10160J0D01*
G01*
X15577360Y-8737100D02*
G75*
G03*
X15577360Y-8737100I-10160J0D01*
G01*
X15578360Y-7666100D02*
G75*
G03*
X15578360Y-7666100I-10160J0D01*
G01*
X15598140Y-13180060D02*
G75*
G03*
X15598140Y-13180060I-10160J0D01*
G01*
X15643860Y-14554200D02*
G75*
G03*
X15643860Y-14554200I-10160J0D01*
G01*
X15661360Y-9524100D02*
G75*
G03*
X15661360Y-9524100I-10160J0D01*
G01*
X15676360Y-7859100D02*
G75*
G03*
X15676360Y-7859100I-10160J0D01*
G01*
X15682360Y-8717100D02*
G75*
G03*
X15682360Y-8717100I-10160J0D01*
G01*
X15745460Y-14719300D02*
G75*
G03*
X15745460Y-14719300I-10160J0D01*
G01*
X15768320Y-9166860D02*
G75*
G03*
X15768320Y-9166860I-10160J0D01*
G01*
X15793720Y-8404860D02*
G75*
G03*
X15793720Y-8404860I-10160J0D01*
G01*
X15803880Y-14056360D02*
G75*
G03*
X15803880Y-14056360I-10160J0D01*
G01*
X15834360Y-13180060D02*
G75*
G03*
X15834360Y-13180060I-10160J0D01*
G01*
X15834360Y-13855700D02*
G75*
G03*
X15834360Y-13855700I-10160J0D01*
G01*
X15910560Y-14173200D02*
G75*
G03*
X15910560Y-14173200I-10160J0D01*
G01*
X15918180Y-15923260D02*
G75*
G03*
X15918180Y-15923260I-10160J0D01*
G01*
X15971900Y-13997560D02*
G75*
G03*
X15971900Y-13997560I-10160J0D01*
G01*
X15986760Y-14338300D02*
G75*
G03*
X15986760Y-14338300I-10160J0D01*
G01*
X16029940Y-14693900D02*
G75*
G03*
X16029940Y-14693900I-10160J0D01*
G01*
X16044160Y-14979400D02*
G75*
G03*
X16044160Y-14979400I-10160J0D01*
G01*
X16182340Y-13205460D02*
G75*
G03*
X16182340Y-13205460I-10160J0D01*
G01*
X16202660Y-15430500D02*
G75*
G03*
X16202660Y-15430500I-10160J0D01*
G01*
X16215360Y-10350500D02*
G75*
G03*
X16215360Y-10350500I-10160J0D01*
G01*
X16240760Y-13538200D02*
G75*
G03*
X16240760Y-13538200I-10160J0D01*
G01*
X16281400Y-11219180D02*
G75*
G03*
X16281400Y-11219180I-10160J0D01*
G01*
X16291560Y-10363200D02*
G75*
G03*
X16291560Y-10363200I-10160J0D01*
G01*
X16291560Y-15240000D02*
G75*
G03*
X16291560Y-15240000I-10160J0D01*
G01*
X16295758Y-10431427D02*
G75*
G03*
X16295758Y-10431427I-10160J0D01*
G01*
X16334740Y-13215620D02*
G75*
G03*
X16334740Y-13215620I-10160J0D01*
G01*
X16338550Y-13572490D02*
G75*
G03*
X16338550Y-13572490I-10160J0D01*
G01*
X16349980Y-11874500D02*
G75*
G03*
X16349980Y-11874500I-10160J0D01*
G01*
X16355060Y-12661900D02*
G75*
G03*
X16355060Y-12661900I-10160J0D01*
G01*
X16388080Y-10370820D02*
G75*
G03*
X16388080Y-10370820I-10160J0D01*
G01*
X16405860Y-13728700D02*
G75*
G03*
X16405860Y-13728700I-10160J0D01*
G01*
X16423640Y-11203940D02*
G75*
G03*
X16423640Y-11203940I-10160J0D01*
G01*
X16482060Y-13500100D02*
G75*
G03*
X16482060Y-13500100I-10160J0D01*
G01*
X16524760Y-13818972D02*
G75*
G03*
X16524760Y-13818972I-10160J0D01*
G01*
X16532860Y-15201900D02*
G75*
G03*
X16532860Y-15201900I-10160J0D01*
G01*
X16533761Y-13214719D02*
G75*
G03*
X16533761Y-13214719I-10160J0D01*
G01*
X16539210Y-14827250D02*
G75*
G03*
X16539210Y-14827250I-10160J0D01*
G01*
X16553180Y-13611860D02*
G75*
G03*
X16553180Y-13611860I-10160J0D01*
G01*
X16603980Y-13495020D02*
G75*
G03*
X16603980Y-13495020I-10160J0D01*
G01*
X16633760Y-13880400D02*
G75*
G03*
X16633760Y-13880400I-10160J0D01*
G01*
X16634460Y-13690600D02*
G75*
G03*
X16634460Y-13690600I-10160J0D01*
G01*
X16647160Y-14055960D02*
G75*
G03*
X16647160Y-14055960I-10160J0D01*
G01*
X16704360Y-6286500D02*
G75*
G03*
X16704360Y-6286500I-10160J0D01*
G01*
X16725900Y-14579600D02*
G75*
G03*
X16725900Y-14579600I-10160J0D01*
G01*
X16761460Y-6362700D02*
G75*
G03*
X16761460Y-6362700I-10160J0D01*
G01*
X16766540Y-12026900D02*
G75*
G03*
X16766540Y-12026900I-10160J0D01*
G01*
X16766540Y-12026900D02*
G75*
G03*
X16766540Y-12026900I-10160J0D01*
G01*
X16791940Y-13124180D02*
G75*
G03*
X16791940Y-13124180I-10160J0D01*
G01*
X16837660Y-14424660D02*
G75*
G03*
X16837660Y-14424660I-10160J0D01*
G01*
X16880840Y-11178540D02*
G75*
G03*
X16880840Y-11178540I-10160J0D01*
G01*
X16891000Y-12019280D02*
G75*
G03*
X16891000Y-12019280I-10160J0D01*
G01*
X16898620Y-12412980D02*
G75*
G03*
X16898620Y-12412980I-10160J0D01*
G01*
X16904841Y-7112000D02*
G75*
G03*
X16904841Y-7112000I-10160J0D01*
G01*
X16926560Y-13896100D02*
G75*
G03*
X16926560Y-13896100I-10160J0D01*
G01*
X16929100Y-14104620D02*
G75*
G03*
X16929100Y-14104620I-10160J0D01*
G01*
X16951960Y-11330940D02*
G75*
G03*
X16951960Y-11330940I-10160J0D01*
G01*
X16979900Y-12575540D02*
G75*
G03*
X16979900Y-12575540I-10160J0D01*
G01*
X16990061Y-7188200D02*
G75*
G03*
X16990061Y-7188200I-10160J0D01*
G01*
X17033240Y-11172939D02*
G75*
G03*
X17033240Y-11172939I-10160J0D01*
G01*
X17155160Y-7091182D02*
G75*
G03*
X17155160Y-7091182I-10160J0D01*
G01*
X17185360Y-6965100D02*
G75*
G03*
X17185360Y-6965100I-10160J0D01*
G01*
X17218660Y-12590780D02*
G75*
G03*
X17218660Y-12590780I-10160J0D01*
G01*
X17219740Y-10455720D02*
G75*
G03*
X17219740Y-10455720I-10160J0D01*
G01*
X17222154Y-6848794D02*
G75*
G03*
X17222154Y-6848794I-10160J0D01*
G01*
X17301420Y-10453160D02*
G75*
G03*
X17301420Y-10453160I-10160J0D01*
G01*
X17376140Y-12118340D02*
G75*
G03*
X17376140Y-12118340I-10160J0D01*
G01*
X17409160Y-13174980D02*
G75*
G03*
X17409160Y-13174980I-10160J0D01*
G01*
X17482360Y-6963100D02*
G75*
G03*
X17482360Y-6963100I-10160J0D01*
G01*
X17487900Y-12613640D02*
G75*
G03*
X17487900Y-12613640I-10160J0D01*
G01*
X17500600Y-6860540D02*
G75*
G03*
X17500600Y-6860540I-10160J0D01*
G01*
X17528540Y-12026900D02*
G75*
G03*
X17528540Y-12026900I-10160J0D01*
G01*
X17538700Y-6207760D02*
G75*
G03*
X17538700Y-6207760I-10160J0D01*
G01*
X17602200Y-6860540D02*
G75*
G03*
X17602200Y-6860540I-10160J0D01*
G01*
X17655540Y-12062460D02*
G75*
G03*
X17655540Y-12062460I-10160J0D01*
G01*
X17765360Y-6977100D02*
G75*
G03*
X17765360Y-6977100I-10160J0D01*
G01*
X17787620Y-14452600D02*
G75*
G03*
X17787620Y-14452600I-10160J0D01*
G01*
X17800320Y-13977620D02*
G75*
G03*
X17800320Y-13977620I-10160J0D01*
G01*
X17881600Y-6941820D02*
G75*
G03*
X17881600Y-6941820I-10160J0D01*
G01*
X17937480Y-7175500D02*
G75*
G03*
X17937480Y-7175500I-10160J0D01*
G01*
X17940375Y-10394016D02*
G75*
G03*
X17940375Y-10394016I-10160J0D01*
G01*
X17972160Y-10859380D02*
G75*
G03*
X17972160Y-10859380I-10160J0D01*
G01*
X18018760Y-10287000D02*
G75*
G03*
X18018760Y-10287000I-10160J0D01*
G01*
X18027141Y-10896922D02*
G75*
G03*
X18027141Y-10896922I-10160J0D01*
G01*
X18031460Y-10197781D02*
G75*
G03*
X18031460Y-10197781I-10160J0D01*
G01*
X18044160Y-10436860D02*
G75*
G03*
X18044160Y-10436860I-10160J0D01*
G01*
X18077622Y-10951600D02*
G75*
G03*
X18077622Y-10951600I-10160J0D01*
G01*
X18082260Y-10147300D02*
G75*
G03*
X18082260Y-10147300I-10160J0D01*
G01*
X18105120Y-7175500D02*
G75*
G03*
X18105120Y-7175500I-10160J0D01*
G01*
X18110200Y-6911340D02*
G75*
G03*
X18110200Y-6911340I-10160J0D01*
G01*
X18125440Y-6428740D02*
G75*
G03*
X18125440Y-6428740I-10160J0D01*
G01*
X18128102Y-10892400D02*
G75*
G03*
X18128102Y-10892400I-10160J0D01*
G01*
X18145760Y-11117580D02*
G75*
G03*
X18145760Y-11117580I-10160J0D01*
G01*
X18148300Y-11991340D02*
G75*
G03*
X18148300Y-11991340I-10160J0D01*
G01*
X18211800Y-6423660D02*
G75*
G03*
X18211800Y-6423660I-10160J0D01*
G01*
X18219420Y-12062460D02*
G75*
G03*
X18219420Y-12062460I-10160J0D01*
G01*
X18219818Y-13012420D02*
G75*
G03*
X18219818Y-13012420I-10160J0D01*
G01*
X18237360Y-6894100D02*
G75*
G03*
X18237360Y-6894100I-10160J0D01*
G01*
X18254360Y-7191100D02*
G75*
G03*
X18254360Y-7191100I-10160J0D01*
G01*
X18362050Y-12201770D02*
G75*
G03*
X18362050Y-12201770I-10160J0D01*
G01*
X18378560Y-6925700D02*
G75*
G03*
X18378560Y-6925700I-10160J0D01*
G01*
X18399760Y-10274300D02*
G75*
G03*
X18399760Y-10274300I-10160J0D01*
G01*
X18420080Y-11102340D02*
G75*
G03*
X18420080Y-11102340I-10160J0D01*
G01*
X18450560Y-12522200D02*
G75*
G03*
X18450560Y-12522200I-10160J0D01*
G01*
X18480160Y-6866500D02*
G75*
G03*
X18480160Y-6866500I-10160J0D01*
G01*
X18482560Y-13392400D02*
G75*
G03*
X18482560Y-13392400I-10160J0D01*
G01*
X18530960Y-10367400D02*
G75*
G03*
X18530960Y-10367400I-10160J0D01*
G01*
X18581760Y-6917300D02*
G75*
G03*
X18581760Y-6917300I-10160J0D01*
G01*
X18608610Y-12400850D02*
G75*
G03*
X18608610Y-12400850I-10160J0D01*
G01*
X18704560Y-9065260D02*
G75*
G03*
X18704560Y-9065260I-10160J0D01*
G01*
X18740120Y-13340080D02*
G75*
G03*
X18740120Y-13340080I-10160J0D01*
G01*
X18742660Y-8968740D02*
G75*
G03*
X18742660Y-8968740I-10160J0D01*
G01*
X18780760Y-8120380D02*
G75*
G03*
X18780760Y-8120380I-10160J0D01*
G01*
X18801080Y-9949180D02*
G75*
G03*
X18801080Y-9949180I-10160J0D01*
G01*
X18846800Y-10198100D02*
G75*
G03*
X18846800Y-10198100I-10160J0D01*
G01*
X18881596Y-7879370D02*
G75*
G03*
X18881596Y-7879370I-10160J0D01*
G01*
X18884660Y-9706800D02*
G75*
G03*
X18884660Y-9706800I-10160J0D01*
G01*
X18920460Y-7759700D02*
G75*
G03*
X18920460Y-7759700I-10160J0D01*
G01*
X18920460Y-15265400D02*
G75*
G03*
X18920460Y-15265400I-10160J0D01*
G01*
X18938240Y-10083800D02*
G75*
G03*
X18938240Y-10083800I-10160J0D01*
G01*
X18945860Y-7556500D02*
G75*
G03*
X18945860Y-7556500I-10160J0D01*
G01*
X18945860Y-8521700D02*
G75*
G03*
X18945860Y-8521700I-10160J0D01*
G01*
X18956360Y-8671100D02*
G75*
G03*
X18956360Y-8671100I-10160J0D01*
G01*
X18971260Y-7200900D02*
G75*
G03*
X18971260Y-7200900I-10160J0D01*
G01*
X18971260Y-8318500D02*
G75*
G03*
X18971260Y-8318500I-10160J0D01*
G01*
X18978880Y-9913620D02*
G75*
G03*
X18978880Y-9913620I-10160J0D01*
G01*
X19003149Y-8129060D02*
G75*
G03*
X19003149Y-8129060I-10160J0D01*
G01*
X19009360Y-7708900D02*
G75*
G03*
X19009360Y-7708900I-10160J0D01*
G01*
X19022060Y-7099300D02*
G75*
G03*
X19022060Y-7099300I-10160J0D01*
G01*
X19022060Y-7505700D02*
G75*
G03*
X19022060Y-7505700I-10160J0D01*
G01*
X19022060Y-14071600D02*
G75*
G03*
X19022060Y-14071600I-10160J0D01*
G01*
X19034760Y-8470900D02*
G75*
G03*
X19034760Y-8470900I-10160J0D01*
G01*
X19034761Y-7302500D02*
G75*
G03*
X19034761Y-7302500I-10160J0D01*
G01*
X19060160Y-8216900D02*
G75*
G03*
X19060160Y-8216900I-10160J0D01*
G01*
X19060160Y-9702800D02*
G75*
G03*
X19060160Y-9702800I-10160J0D01*
G01*
X19094060Y-8614800D02*
G75*
G03*
X19094060Y-8614800I-10160J0D01*
G01*
X19149060Y-15074900D02*
G75*
G03*
X19149060Y-15074900I-10160J0D01*
G01*
X19276060Y-13804900D02*
G75*
G03*
X19276060Y-13804900I-10160J0D01*
G01*
X19328360Y-15315100D02*
G75*
G03*
X19328360Y-15315100I-10160J0D01*
G01*
X19423380Y-12438380D02*
G75*
G03*
X19423380Y-12438380I-10160J0D01*
G01*
X19428460Y-13258800D02*
G75*
G03*
X19428460Y-13258800I-10160J0D01*
G01*
X19476720Y-14071600D02*
G75*
G03*
X19476720Y-14071600I-10160J0D01*
G01*
X19491960Y-13576300D02*
G75*
G03*
X19491960Y-13576300I-10160J0D01*
G01*
X19517360Y-9568180D02*
G75*
G03*
X19517360Y-9568180I-10160J0D01*
G01*
X19542760Y-10883900D02*
G75*
G03*
X19542760Y-10883900I-10160J0D01*
G01*
X19606260Y-15113000D02*
G75*
G03*
X19606260Y-15113000I-10160J0D01*
G01*
X19631660Y-10795000D02*
G75*
G03*
X19631660Y-10795000I-10160J0D01*
G01*
X19695160Y-10680700D02*
G75*
G03*
X19695160Y-10680700I-10160J0D01*
G01*
X19733260Y-14198600D02*
G75*
G03*
X19733260Y-14198600I-10160J0D01*
G01*
X19758660Y-10337800D02*
G75*
G03*
X19758660Y-10337800I-10160J0D01*
G01*
X19758660Y-15265400D02*
G75*
G03*
X19758660Y-15265400I-10160J0D01*
G01*
X19817080Y-8562340D02*
G75*
G03*
X19817080Y-8562340I-10160J0D01*
G01*
X19822160Y-10617200D02*
G75*
G03*
X19822160Y-10617200I-10160J0D01*
G01*
X19834860Y-14071600D02*
G75*
G03*
X19834860Y-14071600I-10160J0D01*
G01*
X19911060Y-10198100D02*
G75*
G03*
X19911060Y-10198100I-10160J0D01*
G01*
X19961860Y-9969500D02*
G75*
G03*
X19961860Y-9969500I-10160J0D01*
G01*
X19961860Y-15100300D02*
G75*
G03*
X19961860Y-15100300I-10160J0D01*
G01*
X19987260Y-9842500D02*
G75*
G03*
X19987260Y-9842500I-10160J0D01*
G01*
X20025360Y-13335000D02*
G75*
G03*
X20025360Y-13335000I-10160J0D01*
G01*
X20025360Y-13652500D02*
G75*
G03*
X20025360Y-13652500I-10160J0D01*
G01*
X20165060Y-15265400D02*
G75*
G03*
X20165060Y-15265400I-10160J0D01*
G01*
X20256500Y-12402820D02*
G75*
G03*
X20256500Y-12402820I-10160J0D01*
G01*
X20279360Y-13169900D02*
G75*
G03*
X20279360Y-13169900I-10160J0D01*
G01*
X20360640Y-12034520D02*
G75*
G03*
X20360640Y-12034520I-10160J0D01*
G01*
X20436840Y-12552680D02*
G75*
G03*
X20436840Y-12552680I-10160J0D01*
G01*
X20680680Y-8727440D02*
G75*
G03*
X20680680Y-8727440I-10160J0D01*
G01*
X20683220Y-9039860D02*
G75*
G03*
X20683220Y-9039860I-10160J0D01*
G01*
X20698460Y-14998700D02*
G75*
G03*
X20698460Y-14998700I-10160J0D01*
G01*
X20787360Y-15405100D02*
G75*
G03*
X20787360Y-15405100I-10160J0D01*
G01*
X20800060Y-14592300D02*
G75*
G03*
X20800060Y-14592300I-10160J0D01*
G01*
X20817840Y-7381240D02*
G75*
G03*
X20817840Y-7381240I-10160J0D01*
G01*
X20817840Y-7673340D02*
G75*
G03*
X20817840Y-7673340I-10160J0D01*
G01*
X20835620Y-12651740D02*
G75*
G03*
X20835620Y-12651740I-10160J0D01*
G01*
X20855940Y-8694420D02*
G75*
G03*
X20855940Y-8694420I-10160J0D01*
G01*
X20871180Y-12044680D02*
G75*
G03*
X20871180Y-12044680I-10160J0D01*
G01*
X20911820Y-7515860D02*
G75*
G03*
X20911820Y-7515860I-10160J0D01*
G01*
X20911820Y-7833360D02*
G75*
G03*
X20911820Y-7833360I-10160J0D01*
G01*
X20914360Y-8356600D02*
G75*
G03*
X20914360Y-8356600I-10160J0D01*
G01*
X20927060Y-8458200D02*
G75*
G03*
X20927060Y-8458200I-10160J0D01*
G01*
X20939760Y-14503400D02*
G75*
G03*
X20939760Y-14503400I-10160J0D01*
G01*
X20942300Y-9029700D02*
G75*
G03*
X20942300Y-9029700I-10160J0D01*
G01*
X20955000Y-7305040D02*
G75*
G03*
X20955000Y-7305040I-10160J0D01*
G01*
X20957540Y-7208520D02*
G75*
G03*
X20957540Y-7208520I-10160J0D01*
G01*
X20960080Y-7609840D02*
G75*
G03*
X20960080Y-7609840I-10160J0D01*
G01*
X20990560Y-13169900D02*
G75*
G03*
X20990560Y-13169900I-10160J0D01*
G01*
X21003260Y-15252700D02*
G75*
G03*
X21003260Y-15252700I-10160J0D01*
G01*
X21092160Y-14605000D02*
G75*
G03*
X21092160Y-14605000I-10160J0D01*
G01*
X21226540Y-8905000D02*
G75*
G03*
X21226540Y-8905000I-10160J0D01*
G01*
X21231860Y-13068300D02*
G75*
G03*
X21231860Y-13068300I-10160J0D01*
G01*
X21254720Y-8204200D02*
G75*
G03*
X21254720Y-8204200I-10160J0D01*
G01*
X21308059Y-8509001D02*
G75*
G03*
X21308059Y-8509001I-10160J0D01*
G01*
X21341081Y-8249921D02*
G75*
G03*
X21341081Y-8249921I-10160J0D01*
G01*
X21371560Y-8420100D02*
G75*
G03*
X21371560Y-8420100I-10160J0D01*
G01*
X21426360Y-12397727D02*
G75*
G03*
X21426360Y-12397727I-10160J0D01*
G01*
X21435060Y-8318500D02*
G75*
G03*
X21435060Y-8318500I-10160J0D01*
G01*
X21435060Y-13157200D02*
G75*
G03*
X21435060Y-13157200I-10160J0D01*
G01*
X21485860Y-14478000D02*
G75*
G03*
X21485860Y-14478000I-10160J0D01*
G01*
X21520940Y-11788620D02*
G75*
G03*
X21520940Y-11788620I-10160J0D01*
G01*
X21562060Y-15824200D02*
G75*
G03*
X21562060Y-15824200I-10160J0D01*
G01*
X21612860Y-13068300D02*
G75*
G03*
X21612860Y-13068300I-10160J0D01*
G01*
X21617940Y-11795760D02*
G75*
G03*
X21617940Y-11795760I-10160J0D01*
G01*
X21638260Y-7569200D02*
G75*
G03*
X21638260Y-7569200I-10160J0D01*
G01*
X21683980Y-13124180D02*
G75*
G03*
X21683980Y-13124180I-10160J0D01*
G01*
X21701760Y-7581900D02*
G75*
G03*
X21701760Y-7581900I-10160J0D01*
G01*
X21739860Y-15646400D02*
G75*
G03*
X21739860Y-15646400I-10160J0D01*
G01*
X21762717Y-7681341D02*
G75*
G03*
X21762717Y-7681341I-10160J0D01*
G01*
X21828760Y-7607301D02*
G75*
G03*
X21828760Y-7607301I-10160J0D01*
G01*
X21895557Y-8563097D02*
G75*
G03*
X21895557Y-8563097I-10160J0D01*
G01*
X21902420Y-13116560D02*
G75*
G03*
X21902420Y-13116560I-10160J0D01*
G01*
X21940360Y-12193100D02*
G75*
G03*
X21940360Y-12193100I-10160J0D01*
G01*
X21950680Y-11907519D02*
G75*
G03*
X21950680Y-11907519I-10160J0D01*
G01*
X21955760Y-7734300D02*
G75*
G03*
X21955760Y-7734300I-10160J0D01*
G01*
X21993860Y-8304199D02*
G75*
G03*
X21993860Y-8304199I-10160J0D01*
G01*
X22019260Y-15798800D02*
G75*
G03*
X22019260Y-15798800I-10160J0D01*
G01*
X22070060Y-8254199D02*
G75*
G03*
X22070060Y-8254199I-10160J0D01*
G01*
X22087840Y-11899900D02*
G75*
G03*
X22087840Y-11899900I-10160J0D01*
G01*
X22108160Y-13081000D02*
G75*
G03*
X22108160Y-13081000I-10160J0D01*
G01*
X22238360Y-12129444D02*
G75*
G03*
X22238360Y-12129444I-10160J0D01*
G01*
X22311360Y-13195300D02*
G75*
G03*
X22311360Y-13195300I-10160J0D01*
G01*
X22336760Y-14401800D02*
G75*
G03*
X22336760Y-14401800I-10160J0D01*
G01*
X22362160Y-14668500D02*
G75*
G03*
X22362160Y-14668500I-10160J0D01*
G01*
X22369780Y-7754620D02*
G75*
G03*
X22369780Y-7754620I-10160J0D01*
G01*
X22390000Y-7455000D02*
G75*
G03*
X22390000Y-7455000I-10160J0D01*
G01*
X22390100Y-8755380D02*
G75*
G03*
X22390100Y-8755380I-10160J0D01*
G01*
X22412960Y-15671800D02*
G75*
G03*
X22412960Y-15671800I-10160J0D01*
G01*
X22451060Y-9425940D02*
G75*
G03*
X22451060Y-9425940I-10160J0D01*
G01*
X22453600Y-7526020D02*
G75*
G03*
X22453600Y-7526020I-10160J0D01*
G01*
X22453600Y-7843520D02*
G75*
G03*
X22453600Y-7843520I-10160J0D01*
G01*
X22453600Y-8539480D02*
G75*
G03*
X22453600Y-8539480I-10160J0D01*
G01*
X22453600Y-8823960D02*
G75*
G03*
X22453600Y-8823960I-10160J0D01*
G01*
X22453600Y-9126220D02*
G75*
G03*
X22453600Y-9126220I-10160J0D01*
G01*
X22547580Y-7132320D02*
G75*
G03*
X22547580Y-7132320I-10160J0D01*
G01*
X22547580Y-7848600D02*
G75*
G03*
X22547580Y-7848600I-10160J0D01*
G01*
X22547580Y-8539480D02*
G75*
G03*
X22547580Y-8539480I-10160J0D01*
G01*
X22550120Y-7404100D02*
G75*
G03*
X22550120Y-7404100I-10160J0D01*
G01*
X22550120Y-7538720D02*
G75*
G03*
X22550120Y-7538720I-10160J0D01*
G01*
X22552660Y-8806180D02*
G75*
G03*
X22552660Y-8806180I-10160J0D01*
G01*
X22552660Y-9131300D02*
G75*
G03*
X22552660Y-9131300I-10160J0D01*
G01*
X22552660Y-9418320D02*
G75*
G03*
X22552660Y-9418320I-10160J0D01*
G01*
X22552660Y-14528800D02*
G75*
G03*
X22552660Y-14528800I-10160J0D01*
G01*
X22857460Y-14287500D02*
G75*
G03*
X22857460Y-14287500I-10160J0D01*
G01*
X22895560Y-13855700D02*
G75*
G03*
X22895560Y-13855700I-10160J0D01*
G01*
X22933660Y-7848600D02*
G75*
G03*
X22933660Y-7848600I-10160J0D01*
G01*
X22997161Y-7785100D02*
G75*
G03*
X22997161Y-7785100I-10160J0D01*
G01*
X23035260Y-14782800D02*
G75*
G03*
X23035260Y-14782800I-10160J0D01*
G01*
X23327360Y-13995400D02*
G75*
G03*
X23327360Y-13995400I-10160J0D01*
G01*
X23340060Y-14439900D02*
G75*
G03*
X23340060Y-14439900I-10160J0D01*
G01*
X23428960Y-13309600D02*
G75*
G03*
X23428960Y-13309600I-10160J0D01*
G01*
X23520400Y-12697460D02*
G75*
G03*
X23520400Y-12697460I-10160J0D01*
G01*
X23619460Y-13220700D02*
G75*
G03*
X23619460Y-13220700I-10160J0D01*
G01*
X23670260Y-15595600D02*
G75*
G03*
X23670260Y-15595600I-10160J0D01*
G01*
X23682960Y-14554200D02*
G75*
G03*
X23682960Y-14554200I-10160J0D01*
G01*
X23746460Y-15367000D02*
G75*
G03*
X23746460Y-15367000I-10160J0D01*
G01*
X23911560Y-13436600D02*
G75*
G03*
X23911560Y-13436600I-10160J0D01*
G01*
X23911560Y-15887700D02*
G75*
G03*
X23911560Y-15887700I-10160J0D01*
G01*
X24010620Y-5821680D02*
G75*
G03*
X24010620Y-5821680I-10160J0D01*
G01*
X24038560Y-6578600D02*
G75*
G03*
X24038560Y-6578600I-10160J0D01*
G01*
X24038560Y-14706600D02*
G75*
G03*
X24038560Y-14706600I-10160J0D01*
G01*
X24089360Y-12623800D02*
G75*
G03*
X24089360Y-12623800I-10160J0D01*
G01*
X24119840Y-6390640D02*
G75*
G03*
X24119840Y-6390640I-10160J0D01*
G01*
X24190960Y-13385800D02*
G75*
G03*
X24190960Y-13385800I-10160J0D01*
G01*
X24279860Y-14071600D02*
G75*
G03*
X24279860Y-14071600I-10160J0D01*
G01*
X24364616Y-6591038D02*
G75*
G03*
X24364616Y-6591038I-10160J0D01*
G01*
X24368760Y-13627100D02*
G75*
G03*
X24368760Y-13627100I-10160J0D01*
G01*
X24419560Y-6616700D02*
G75*
G03*
X24419560Y-6616700I-10160J0D01*
G01*
X24444960Y-13957300D02*
G75*
G03*
X24444960Y-13957300I-10160J0D01*
G01*
X24610060Y-16014700D02*
G75*
G03*
X24610060Y-16014700I-10160J0D01*
G01*
X24648160Y-14109700D02*
G75*
G03*
X24648160Y-14109700I-10160J0D01*
G01*
X24673360Y-9176100D02*
G75*
G03*
X24673360Y-9176100I-10160J0D01*
G01*
X24677360Y-9079100D02*
G75*
G03*
X24677360Y-9079100I-10160J0D01*
G01*
X24690360Y-8985100D02*
G75*
G03*
X24690360Y-8985100I-10160J0D01*
G01*
X24787860Y-13995400D02*
G75*
G03*
X24787860Y-13995400I-10160J0D01*
G01*
X24800560Y-15468600D02*
G75*
G03*
X24800560Y-15468600I-10160J0D01*
G01*
X24851360Y-15862300D02*
G75*
G03*
X24851360Y-15862300I-10160J0D01*
G01*
X24914860Y-8877300D02*
G75*
G03*
X24914860Y-8877300I-10160J0D01*
G01*
X24930100Y-14190980D02*
G75*
G03*
X24930100Y-14190980I-10160J0D01*
G01*
X24965660Y-14986000D02*
G75*
G03*
X24965660Y-14986000I-10160J0D01*
G01*
X25054560Y-14897100D02*
G75*
G03*
X25054560Y-14897100I-10160J0D01*
G01*
X25067260Y-12738100D02*
G75*
G03*
X25067260Y-12738100I-10160J0D01*
G01*
X25105360Y-16014700D02*
G75*
G03*
X25105360Y-16014700I-10160J0D01*
G01*
X25118060Y-15278100D02*
G75*
G03*
X25118060Y-15278100I-10160J0D01*
G01*
X25206960Y-14960600D02*
G75*
G03*
X25206960Y-14960600I-10160J0D01*
G01*
X25257760Y-15875000D02*
G75*
G03*
X25257760Y-15875000I-10160J0D01*
G01*
X25285700Y-12941300D02*
G75*
G03*
X25285700Y-12941300I-10160J0D01*
G01*
X25455880Y-7406640D02*
G75*
G03*
X25455880Y-7406640I-10160J0D01*
G01*
X25460960Y-15468600D02*
G75*
G03*
X25460960Y-15468600I-10160J0D01*
G01*
X25486360Y-16027400D02*
G75*
G03*
X25486360Y-16027400I-10160J0D01*
G01*
X25585420Y-7757160D02*
G75*
G03*
X25585420Y-7757160I-10160J0D01*
G01*
X25590500Y-7508240D02*
G75*
G03*
X25590500Y-7508240I-10160J0D01*
G01*
X25899900Y-9021600D02*
G75*
G03*
X25899900Y-9021600I-10160J0D01*
G01*
X25930860Y-12623800D02*
G75*
G03*
X25930860Y-12623800I-10160J0D01*
G01*
X26019760Y-13995400D02*
G75*
G03*
X26019760Y-13995400I-10160J0D01*
G01*
X26057860Y-15913100D02*
G75*
G03*
X26057860Y-15913100I-10160J0D01*
G01*
X26103580Y-15506700D02*
G75*
G03*
X26103580Y-15506700I-10160J0D01*
G01*
X26281380Y-8209280D02*
G75*
G03*
X26281380Y-8209280I-10160J0D01*
G01*
X26286460Y-13843000D02*
G75*
G03*
X26286460Y-13843000I-10160J0D01*
G01*
X26296620Y-9431020D02*
G75*
G03*
X26296620Y-9431020I-10160J0D01*
G01*
X26485850Y-8743950D02*
G75*
G03*
X26485850Y-8743950I-10160J0D01*
G01*
X26489660Y-16078200D02*
G75*
G03*
X26489660Y-16078200I-10160J0D01*
G01*
X26520140Y-8211000D02*
G75*
G03*
X26520140Y-8211000I-10160J0D01*
G01*
X26540460Y-14020800D02*
G75*
G03*
X26540460Y-14020800I-10160J0D01*
G01*
X26540460Y-15214600D02*
G75*
G03*
X26540460Y-15214600I-10160J0D01*
G01*
X26550620Y-8590280D02*
G75*
G03*
X26550620Y-8590280I-10160J0D01*
G01*
X26692860Y-15887700D02*
G75*
G03*
X26692860Y-15887700I-10160J0D01*
G01*
X26781760Y-13855700D02*
G75*
G03*
X26781760Y-13855700I-10160J0D01*
G01*
X26959560Y-14046200D02*
G75*
G03*
X26959560Y-14046200I-10160J0D01*
G01*
X27683460Y-13119100D02*
G75*
G03*
X27683460Y-13119100I-10160J0D01*
G01*
X27683460Y-13423900D02*
G75*
G03*
X27683460Y-13423900I-10160J0D01*
G01*
X27696160Y-13754100D02*
G75*
G03*
X27696160Y-13754100I-10160J0D01*
G01*
X27848560Y-13601700D02*
G75*
G03*
X27848560Y-13601700I-10160J0D01*
G01*
X27873960Y-13258800D02*
G75*
G03*
X27873960Y-13258800I-10160J0D01*
G01*
X12730480Y-8887460D02*
X12730480Y-8917940D01*
X12715240Y-8902700D02*
X12745720Y-8902700D01*
X12783820Y-8620760D02*
X12783820Y-8651240D01*
X12768580Y-8636000D02*
X12799060Y-8636000D01*
X12795250Y-8322310D02*
X12795250Y-8352790D01*
X12780010Y-8337550D02*
X12810490Y-8337550D01*
X14389100Y-13139420D02*
X14389100Y-13169900D01*
X14373860Y-13154660D02*
X14404340Y-13154660D01*
X14404340Y-13444220D02*
X14404340Y-13474700D01*
X14389100Y-13459460D02*
X14419580Y-13459460D01*
X14434820Y-13809980D02*
X14434820Y-13840460D01*
X14419580Y-13825220D02*
X14450060Y-13825220D01*
X15900400Y-13667740D02*
X15900400Y-13698220D01*
X15885160Y-13682980D02*
X15915640Y-13682980D01*
X16306800Y-14071600D02*
X16306800Y-14102080D01*
X16291560Y-14086840D02*
X16322040Y-14086840D01*
X16311880Y-7297420D02*
X16311880Y-7327900D01*
X16296640Y-7312660D02*
X16327120Y-7312660D01*
X16494760Y-7292340D02*
X16494760Y-7322820D01*
X16479520Y-7307580D02*
X16510000Y-7307580D01*
X16607560Y-7138900D02*
X16607560Y-7169380D01*
X16592320Y-7154140D02*
X16622800Y-7154140D01*
X16621760Y-6388100D02*
X16621760Y-6418580D01*
X16606520Y-6403340D02*
X16637000Y-6403340D01*
X16654780Y-16088360D02*
X16654780Y-16118840D01*
X16639540Y-16103600D02*
X16670020Y-16103600D01*
X17358360Y-6184900D02*
X17358360Y-6215380D01*
X17343120Y-6200140D02*
X17373600Y-6200140D01*
X18094960Y-7399020D02*
X18094960Y-7429500D01*
X18079720Y-7414260D02*
X18110200Y-7414260D01*
X18369280Y-7744460D02*
X18369280Y-7774940D01*
X18354040Y-7759700D02*
X18384520Y-7759700D01*
X18902680Y-16088360D02*
X18902680Y-16118840D01*
X18887440Y-16103600D02*
X18917920Y-16103600D01*
X19629120Y-8983980D02*
X19629120Y-9014460D01*
X19613880Y-8999220D02*
X19644360Y-8999220D01*
X19641820Y-7995920D02*
X19641820Y-8026400D01*
X19626580Y-8011160D02*
X19657060Y-8011160D01*
X19913200Y-8983580D02*
X19913200Y-9014060D01*
X19897960Y-8998820D02*
X19928440Y-8998820D01*
X19916200Y-8503860D02*
X19916200Y-8534340D01*
X19900960Y-8519100D02*
X19931440Y-8519100D01*
X20106640Y-7287260D02*
X20106640Y-7317740D01*
X20091400Y-7302500D02*
X20121880Y-7302500D01*
X20126960Y-7800340D02*
X20126960Y-7830820D01*
X20111720Y-7815580D02*
X20142200Y-7815580D01*
X20126960Y-7927340D02*
X20126960Y-7957820D01*
X20111720Y-7942580D02*
X20142200Y-7942580D01*
X22245320Y-13893800D02*
X22245320Y-13924280D01*
X22230080Y-13909040D02*
X22260560Y-13909040D01*
X22245320Y-13893800D02*
X22245320Y-13924280D01*
X22230080Y-13909040D02*
X22260560Y-13909040D01*
X22484080Y-12164060D02*
X22484080Y-12194540D01*
X22468840Y-12179300D02*
X22499320Y-12179300D01*
X22509480Y-16088360D02*
X22509480Y-16118840D01*
X22494240Y-16103600D02*
X22524720Y-16103600D01*
X24107860Y-5880660D02*
X24107860Y-5911140D01*
X24092620Y-5895900D02*
X24123100Y-5895900D01*
X24114760Y-6062980D02*
X24114760Y-6093460D01*
X24099520Y-6078220D02*
X24130000Y-6078220D01*
X25107900Y-7198360D02*
X25107900Y-7228840D01*
X25092660Y-7213600D02*
X25123140Y-7213600D01*
X25300940Y-11049000D02*
X25300940Y-11079480D01*
X25285700Y-11064240D02*
X25316180Y-11064240D01*
X25529540Y-11224260D02*
X25529540Y-11254740D01*
X25514300Y-11239500D02*
X25544780Y-11239500D01*
X26029920Y-9502140D02*
X26029920Y-9532620D01*
X26014680Y-9517380D02*
X26045160Y-9517380D01*
X12688742Y-10433222D02*
X12688742Y-10404938D01*
X12660458Y-10404938D01*
X12660458Y-10433222D01*
X12688742Y-10433222D01*
X13539642Y-14466742D02*
X13539642Y-14438458D01*
X13511358Y-14438458D01*
X13511358Y-14466742D01*
X13539642Y-14466742D01*
X14288942Y-13069742D02*
X14288942Y-13041458D01*
X14260658Y-13041458D01*
X14260658Y-13069742D01*
X14288942Y-13069742D01*
X14392842Y-15739042D02*
X14392842Y-15710758D01*
X14364558Y-15710758D01*
X14364558Y-15739042D01*
X14392842Y-15739042D01*
X14415942Y-15343042D02*
X14415942Y-15314758D01*
X14387658Y-15314758D01*
X14387658Y-15343042D01*
X14415942Y-15343042D01*
X14586122Y-14200042D02*
X14586122Y-14171758D01*
X14557838Y-14171758D01*
X14557838Y-14200042D01*
X14586122Y-14200042D01*
X15177942Y-15495442D02*
X15177942Y-15467158D01*
X15149658Y-15467158D01*
X15149658Y-15495442D01*
X15177942Y-15495442D01*
X16509052Y-14297420D02*
X16529131Y-14277340D01*
X16509052Y-14257260D01*
X16488972Y-14277340D01*
X16509052Y-14297420D01*
X16512000Y-14143080D02*
X16532080Y-14123000D01*
X16512000Y-14102920D01*
X16491920Y-14123000D01*
X16512000Y-14143080D01*
X15229840Y-15245080D02*
X15270480Y-15285720D01*
X15270480Y-15245080D02*
X15229840Y-15285720D01*
X15270480Y-15265400D02*
G75*
G03*
X15270480Y-15265400I-20320J0D01*
G01*
X16116300Y-9796780D02*
X16156940Y-9837420D01*
X16156940Y-9796780D02*
X16116300Y-9837420D01*
X16156940Y-9817100D02*
G75*
G03*
X16156940Y-9817100I-20320J0D01*
G01*
X18755360Y-9537700D02*
X18796000Y-9578340D01*
X18796000Y-9537700D02*
X18755360Y-9578340D01*
X18796000Y-9558020D02*
G75*
G03*
X18796000Y-9558020I-20320J0D01*
G01*
X18892520Y-14267180D02*
X18933160Y-14307820D01*
X18933160Y-14267180D02*
X18892520Y-14307820D01*
X18933160Y-14287500D02*
G75*
G03*
X18933160Y-14287500I-20320J0D01*
G01*
X18905220Y-11544300D02*
X18945860Y-11584940D01*
X18945860Y-11544300D02*
X18905220Y-11584940D01*
X18945860Y-11564620D02*
G75*
G03*
X18945860Y-11564620I-20320J0D01*
G01*
X19573240Y-12550140D02*
X19613880Y-12590780D01*
X19613880Y-12550140D02*
X19573240Y-12590780D01*
X19613880Y-12570460D02*
G75*
G03*
X19613880Y-12570460I-20320J0D01*
G01*
X20855940Y-13942060D02*
X20896580Y-13982700D01*
X20896580Y-13942060D02*
X20855940Y-13982700D01*
X20896580Y-13962380D02*
G75*
G03*
X20896580Y-13962380I-20320J0D01*
G01*
X20977860Y-13484860D02*
X21018500Y-13525500D01*
X21018500Y-13484860D02*
X20977860Y-13525500D01*
X21018500Y-13505180D02*
G75*
G03*
X21018500Y-13505180I-20320J0D01*
G01*
X21038820Y-13764260D02*
X21079460Y-13804900D01*
X21079460Y-13764260D02*
X21038820Y-13804900D01*
X21079460Y-13784580D02*
G75*
G03*
X21079460Y-13784580I-20320J0D01*
G01*
X21323300Y-13703300D02*
X21363940Y-13743940D01*
X21363940Y-13703300D02*
X21323300Y-13743940D01*
X21363940Y-13723620D02*
G75*
G03*
X21363940Y-13723620I-20320J0D01*
G01*
X26311860Y-11508740D02*
X26352500Y-11549380D01*
X26352500Y-11508740D02*
X26311860Y-11549380D01*
X26352500Y-11529060D02*
G75*
G03*
X26352500Y-11529060I-20320J0D01*
G01*
X26494740Y-11742420D02*
X26535380Y-11783060D01*
X26535380Y-11742420D02*
X26494740Y-11783060D01*
X26535380Y-11762740D02*
G75*
G03*
X26535380Y-11762740I-20320J0D01*
G01*
X26738580Y-10584180D02*
X26779220Y-10624820D01*
X26779220Y-10584180D02*
X26738580Y-10624820D01*
X26779220Y-10604500D02*
G75*
G03*
X26779220Y-10604500I-20320J0D01*
G01*
X26880820Y-11793220D02*
X26921460Y-11833860D01*
X26921460Y-11793220D02*
X26880820Y-11833860D01*
X26921460Y-11813540D02*
G75*
G03*
X26921460Y-11813540I-20320J0D01*
G01*
X26929080Y-10431780D02*
X26969720Y-10472420D01*
X26969720Y-10431780D02*
X26929080Y-10472420D01*
X26969720Y-10452100D02*
G75*
G03*
X26969720Y-10452100I-20320J0D01*
G01*
X27056080Y-10596880D02*
X27096720Y-10637520D01*
X27096720Y-10596880D02*
X27056080Y-10637520D01*
X27096720Y-10617200D02*
G75*
G03*
X27096720Y-10617200I-20320J0D01*
G01*
X27129740Y-12321540D02*
X27170380Y-12362180D01*
X27170380Y-12321540D02*
X27129740Y-12362180D01*
X27170380Y-12341860D02*
G75*
G03*
X27170380Y-12341860I-20320J0D01*
G01*
X27246580Y-10444480D02*
X27287220Y-10485120D01*
X27287220Y-10444480D02*
X27246580Y-10485120D01*
X27287220Y-10464800D02*
G75*
G03*
X27287220Y-10464800I-20320J0D01*
G01*
X27411680Y-10622280D02*
X27452320Y-10662920D01*
X27452320Y-10622280D02*
X27411680Y-10662920D01*
X27452320Y-10642600D02*
G75*
G03*
X27452320Y-10642600I-20320J0D01*
G01*
X27602180Y-10495280D02*
X27642820Y-10535920D01*
X27642820Y-10495280D02*
X27602180Y-10535920D01*
X27642820Y-10515600D02*
G75*
G03*
X27642820Y-10515600I-20320J0D01*
G01*
X14755000Y-15642000D02*
X14820000Y-15707000D01*
X14820000Y-15642000D02*
X14755000Y-15707000D01*
X14787500Y-15642000D02*
X14787500Y-15707000D01*
X14755000Y-15674500D02*
X14820000Y-15674500D01*
X14810000Y-15694500D02*
X14810000Y-15654500D01*
X14765000Y-15694500D02*
X14765000Y-15654500D01*
X14810000Y-15654500D02*
G75*
G03*
X14765000Y-15654500I-22500J0D01*
G01*
X14765000Y-15694500D02*
G75*
G03*
X14810000Y-15694500I22500J0D01*
G01*
X15239000Y-15642000D02*
X15304000Y-15707000D01*
X15304000Y-15642000D02*
X15239000Y-15707000D01*
X15271500Y-15642000D02*
X15271500Y-15707000D01*
X15239000Y-15674500D02*
X15304000Y-15674500D01*
X15294000Y-15694500D02*
X15294000Y-15654500D01*
X15249000Y-15694500D02*
X15249000Y-15654500D01*
X15294000Y-15654500D02*
G75*
G03*
X15249000Y-15654500I-22500J0D01*
G01*
X15249000Y-15694500D02*
G75*
G03*
X15294000Y-15694500I22500J0D01*
G01*
X14721500Y-15939500D02*
X14791500Y-16009500D01*
X14791500Y-15939500D02*
X14721500Y-16009500D01*
X14781249Y-15999249D02*
X14781249Y-15949751D01*
X14731751Y-15949751D01*
X14731751Y-15999249D01*
X14781249Y-15999249D01*
X14781500Y-15999500D02*
X14781500Y-15949500D01*
X14731500Y-15999500D02*
X14731500Y-15949500D01*
X14781500Y-15949500D02*
G75*
G03*
X14731500Y-15949500I-25000J0D01*
G01*
X14731500Y-15999500D02*
G75*
G03*
X14781500Y-15999500I25000J0D01*
G01*
X15267500Y-15939500D02*
X15337500Y-16009500D01*
X15337500Y-15939500D02*
X15267500Y-16009500D01*
X15327249Y-15999249D02*
X15327249Y-15949751D01*
X15277751Y-15949751D01*
X15277751Y-15999249D01*
X15327249Y-15999249D01*
X15327500Y-15999500D02*
X15327500Y-15949500D01*
X15277500Y-15999500D02*
X15277500Y-15949500D01*
X15327500Y-15949500D02*
G75*
G03*
X15277500Y-15949500I-25000J0D01*
G01*
X15277500Y-15999500D02*
G75*
G03*
X15327500Y-15999500I25000J0D01*
G01*
X12635120Y-10956640D02*
X12715120Y-11036640D01*
X12715120Y-10956640D02*
X12635120Y-11036640D01*
X12675120Y-11036640D02*
X12715120Y-10996640D01*
X12675120Y-10956640D01*
X12635120Y-10996640D01*
X12675120Y-11036640D01*
X12635120Y-11210640D02*
X12715120Y-11290640D01*
X12715120Y-11210640D02*
X12635120Y-11290640D01*
X12675120Y-11290640D02*
X12715120Y-11250640D01*
X12675120Y-11210640D01*
X12635120Y-11250640D01*
X12675120Y-11290640D01*
X12635120Y-11464640D02*
X12715120Y-11544640D01*
X12715120Y-11464640D02*
X12635120Y-11544640D01*
X12675120Y-11544640D02*
X12715120Y-11504640D01*
X12675120Y-11464640D01*
X12635120Y-11504640D01*
X12675120Y-11544640D01*
X13397120Y-10956640D02*
X13477120Y-11036640D01*
X13477120Y-10956640D02*
X13397120Y-11036640D01*
X13437120Y-11036640D02*
X13477120Y-10996640D01*
X13437120Y-10956640D01*
X13397120Y-10996640D01*
X13437120Y-11036640D01*
X13397120Y-11210640D02*
X13477120Y-11290640D01*
X13477120Y-11210640D02*
X13397120Y-11290640D01*
X13437120Y-11290640D02*
X13477120Y-11250640D01*
X13437120Y-11210640D01*
X13397120Y-11250640D01*
X13437120Y-11290640D01*
X13397120Y-11464640D02*
X13477120Y-11544640D01*
X13477120Y-11464640D02*
X13397120Y-11544640D01*
X13437120Y-11544640D02*
X13477120Y-11504640D01*
X13437120Y-11464640D01*
X13397120Y-11504640D01*
X13437120Y-11544640D01*
X27111960Y-12710160D02*
X27111960Y-12791440D01*
X27071320Y-12750800D02*
X27152600Y-12750800D01*
X27152600Y-12750800D02*
G75*
G03*
X27152600Y-12750800I-40640J0D01*
G01*
X27619960Y-12710160D02*
X27619960Y-12791440D01*
X27579320Y-12750800D02*
X27660600Y-12750800D01*
X27660600Y-12750800D02*
G75*
G03*
X27660600Y-12750800I-40640J0D01*
G01*
X13737527Y-13424927D02*
X13737527Y-13359873D01*
X13672473Y-13359873D01*
X13672473Y-13424927D01*
X13737527Y-13424927D01*
X13751000Y-13392400D02*
G75*
G03*
X13751000Y-13392400I-46000J0D01*
G01*
X13737527Y-13674927D02*
X13737527Y-13609873D01*
X13672473Y-13609873D01*
X13672473Y-13674927D01*
X13737527Y-13674927D01*
X13751000Y-13642400D02*
G75*
G03*
X13751000Y-13642400I-46000J0D01*
G01*
X13937527Y-13424927D02*
X13937527Y-13359873D01*
X13872473Y-13359873D01*
X13872473Y-13424927D01*
X13937527Y-13424927D01*
X13951000Y-13392400D02*
G75*
G03*
X13951000Y-13392400I-46000J0D01*
G01*
X13937527Y-13674927D02*
X13937527Y-13609873D01*
X13872473Y-13609873D01*
X13872473Y-13674927D01*
X13937527Y-13674927D01*
X13951000Y-13642400D02*
G75*
G03*
X13951000Y-13642400I-46000J0D01*
G01*
X25803860Y-9976320D02*
X25853860Y-9926320D01*
X25803860Y-9876320D01*
X25753860Y-9926320D01*
X25803860Y-9976320D01*
X25853860Y-9926320D02*
G75*
G03*
X25853860Y-9926320I-50000J0D01*
G01*
X26057860Y-9976320D02*
X26107860Y-9926320D01*
X26057860Y-9876320D01*
X26007860Y-9926320D01*
X26057860Y-9976320D01*
X26107860Y-9926320D02*
G75*
G03*
X26107860Y-9926320I-50000J0D01*
G01*
X26311860Y-9976320D02*
X26361860Y-9926320D01*
X26311860Y-9876320D01*
X26261860Y-9926320D01*
X26311860Y-9976320D01*
X26361860Y-9926320D02*
G75*
G03*
X26361860Y-9926320I-50000J0D01*
G01*
X26565860Y-9976320D02*
X26615860Y-9926320D01*
X26565860Y-9876320D01*
X26515860Y-9926320D01*
X26565860Y-9976320D01*
X26615860Y-9926320D02*
G75*
G03*
X26615860Y-9926320I-50000J0D01*
G01*
X26819860Y-9976320D02*
X26869860Y-9926320D01*
X26819860Y-9876320D01*
X26769860Y-9926320D01*
X26819860Y-9976320D01*
X26869860Y-9926320D02*
G75*
G03*
X26869860Y-9926320I-50000J0D01*
G01*
X27073860Y-9976320D02*
X27123860Y-9926320D01*
X27073860Y-9876320D01*
X27023860Y-9926320D01*
X27073860Y-9976320D01*
X27123860Y-9926320D02*
G75*
G03*
X27123860Y-9926320I-50000J0D01*
G01*
X15085060Y-12371540D02*
X15135060Y-12321540D01*
X15085060Y-12271540D01*
X15035060Y-12321540D01*
X15085060Y-12371540D01*
X15135060Y-12321540D02*
G75*
G03*
X15135060Y-12321540I-50000J0D01*
G01*
X15339060Y-12371540D02*
X15389060Y-12321540D01*
X15339060Y-12271540D01*
X15289060Y-12321540D01*
X15339060Y-12371540D01*
X15389060Y-12321540D02*
G75*
G03*
X15389060Y-12321540I-50000J0D01*
G01*
X15593060Y-12371540D02*
X15643060Y-12321540D01*
X15593060Y-12271540D01*
X15543060Y-12321540D01*
X15593060Y-12371540D01*
X15643060Y-12321540D02*
G75*
G03*
X15643060Y-12321540I-50000J0D01*
G01*
X12547920Y-12406640D02*
X12597920Y-12356640D01*
X12547920Y-12306640D01*
X12497920Y-12356640D01*
X12547920Y-12406640D01*
X12597920Y-12356640D02*
G75*
G03*
X12597920Y-12356640I-50000J0D01*
G01*
X12801920Y-12406640D02*
X12851920Y-12356640D01*
X12801920Y-12306640D01*
X12751920Y-12356640D01*
X12801920Y-12406640D01*
X12851920Y-12356640D02*
G75*
G03*
X12851920Y-12356640I-50000J0D01*
G01*
X13055920Y-12406640D02*
X13105920Y-12356640D01*
X13055920Y-12306640D01*
X13005920Y-12356640D01*
X13055920Y-12406640D01*
X13105920Y-12356640D02*
G75*
G03*
X13105920Y-12356640I-50000J0D01*
G01*
X13309920Y-12406640D02*
X13359920Y-12356640D01*
X13309920Y-12306640D01*
X13259920Y-12356640D01*
X13309920Y-12406640D01*
X13359920Y-12356640D02*
G75*
G03*
X13359920Y-12356640I-50000J0D01*
G01*
X13563920Y-12406640D02*
X13613920Y-12356640D01*
X13563920Y-12306640D01*
X13513920Y-12356640D01*
X13563920Y-12406640D01*
X13613920Y-12356640D02*
G75*
G03*
X13613920Y-12356640I-50000J0D01*
G01*
X13817920Y-12406640D02*
X13867920Y-12356640D01*
X13817920Y-12306640D01*
X13767920Y-12356640D01*
X13817920Y-12406640D01*
X13867920Y-12356640D02*
G75*
G03*
X13867920Y-12356640I-50000J0D01*
G01*
X14071920Y-12406640D02*
X14121920Y-12356640D01*
X14071920Y-12306640D01*
X14021920Y-12356640D01*
X14071920Y-12406640D01*
X14121920Y-12356640D02*
G75*
G03*
X14121920Y-12356640I-50000J0D01*
G01*
X14325920Y-12406640D02*
X14375920Y-12356640D01*
X14325920Y-12306640D01*
X14275920Y-12356640D01*
X14325920Y-12406640D01*
X14375920Y-12356640D02*
G75*
G03*
X14375920Y-12356640I-50000J0D01*
G01*
X13980160Y-5104000D02*
X14030160Y-5054000D01*
X13980160Y-5004000D01*
X13930160Y-5054000D01*
X13980160Y-5104000D01*
X14030160Y-5054000D02*
G75*
G03*
X14030160Y-5054000I-50000J0D01*
G01*
X14234160Y-5104000D02*
X14284160Y-5054000D01*
X14234160Y-5004000D01*
X14184160Y-5054000D01*
X14234160Y-5104000D01*
X14284160Y-5054000D02*
G75*
G03*
X14284160Y-5054000I-50000J0D01*
G01*
X14488160Y-5104000D02*
X14538160Y-5054000D01*
X14488160Y-5004000D01*
X14438160Y-5054000D01*
X14488160Y-5104000D01*
X14538160Y-5054000D02*
G75*
G03*
X14538160Y-5054000I-50000J0D01*
G01*
X14742160Y-5104000D02*
X14792160Y-5054000D01*
X14742160Y-5004000D01*
X14692160Y-5054000D01*
X14742160Y-5104000D01*
X14792160Y-5054000D02*
G75*
G03*
X14792160Y-5054000I-50000J0D01*
G01*
X20281900Y-15823400D02*
X20331900Y-15773400D01*
X20281900Y-15723400D01*
X20231900Y-15773400D01*
X20281900Y-15823400D01*
X20331900Y-15773400D02*
G75*
G03*
X20331900Y-15773400I-50000J0D01*
G01*
X20535900Y-15823400D02*
X20585900Y-15773400D01*
X20535900Y-15723400D01*
X20485900Y-15773400D01*
X20535900Y-15823400D01*
X20585900Y-15773400D02*
G75*
G03*
X20585900Y-15773400I-50000J0D01*
G01*
X20789900Y-15823400D02*
X20839900Y-15773400D01*
X20789900Y-15723400D01*
X20739900Y-15773400D01*
X20789900Y-15823400D01*
X20839900Y-15773400D02*
G75*
G03*
X20839900Y-15773400I-50000J0D01*
G01*
X18059400Y-15810700D02*
X18109400Y-15760700D01*
X18059400Y-15710700D01*
X18009400Y-15760700D01*
X18059400Y-15810700D01*
X18109400Y-15760700D02*
G75*
G03*
X18109400Y-15760700I-50000J0D01*
G01*
X18313400Y-15810700D02*
X18363400Y-15760700D01*
X18313400Y-15710700D01*
X18263400Y-15760700D01*
X18313400Y-15810700D01*
X18363400Y-15760700D02*
G75*
G03*
X18363400Y-15760700I-50000J0D01*
G01*
X18567400Y-15810700D02*
X18617400Y-15760700D01*
X18567400Y-15710700D01*
X18517400Y-15760700D01*
X18567400Y-15810700D01*
X18617400Y-15760700D02*
G75*
G03*
X18617400Y-15760700I-50000J0D01*
G01*
X18821400Y-15810700D02*
X18871400Y-15760700D01*
X18821400Y-15710700D01*
X18771400Y-15760700D01*
X18821400Y-15810700D01*
X18871400Y-15760700D02*
G75*
G03*
X18871400Y-15760700I-50000J0D01*
G01*
X19075400Y-15810700D02*
X19125400Y-15760700D01*
X19075400Y-15710700D01*
X19025400Y-15760700D01*
X19075400Y-15810700D01*
X19125400Y-15760700D02*
G75*
G03*
X19125400Y-15760700I-50000J0D01*
G01*
X19329400Y-15810700D02*
X19379400Y-15760700D01*
X19329400Y-15710700D01*
X19279400Y-15760700D01*
X19329400Y-15810700D01*
X19379400Y-15760700D02*
G75*
G03*
X19379400Y-15760700I-50000J0D01*
G01*
X19583400Y-15810700D02*
X19633400Y-15760700D01*
X19583400Y-15710700D01*
X19533400Y-15760700D01*
X19583400Y-15810700D01*
X19633400Y-15760700D02*
G75*
G03*
X19633400Y-15760700I-50000J0D01*
G01*
X19837400Y-15810700D02*
X19887400Y-15760700D01*
X19837400Y-15710700D01*
X19787400Y-15760700D01*
X19837400Y-15810700D01*
X19887400Y-15760700D02*
G75*
G03*
X19887400Y-15760700I-50000J0D01*
G01*
X26633200Y-11262100D02*
X26683200Y-11212100D01*
X26633200Y-11162100D01*
X26583200Y-11212100D01*
X26633200Y-11262100D01*
X26683200Y-11212100D02*
G75*
G03*
X26683200Y-11212100I-50000J0D01*
G01*
X26593200Y-11087100D02*
X26593200Y-11337100D01*
X26673200Y-11087100D02*
X26673200Y-11337100D01*
X26593200Y-11337100D02*
G75*
G03*
X26673200Y-11337100I40000J0D01*
G01*
X26673200Y-11087100D02*
G75*
G03*
X26593200Y-11087100I-40000J0D01*
G01*
X26933200Y-10792100D02*
X26983200Y-10742100D01*
X26933200Y-10692100D01*
X26883200Y-10742100D01*
X26933200Y-10792100D01*
X26983200Y-10742100D02*
G75*
G03*
X26983200Y-10742100I-50000J0D01*
G01*
X26833200Y-10782100D02*
X27033200Y-10782100D01*
X26833200Y-10702100D02*
X27033200Y-10702100D01*
X27033200Y-10782100D02*
G75*
G03*
X27033200Y-10702100I0J40000D01*
G01*
X26833200Y-10702100D02*
G75*
G03*
X26833200Y-10782100I0J-40000D01*
G01*
X27233200Y-11262100D02*
X27283200Y-11212100D01*
X27233200Y-11162100D01*
X27183200Y-11212100D01*
X27233200Y-11262100D01*
X27283200Y-11212100D02*
G75*
G03*
X27283200Y-11212100I-50000J0D01*
G01*
X27193200Y-11112100D02*
X27193200Y-11312100D01*
X27273200Y-11112100D02*
X27273200Y-11312100D01*
X27193200Y-11312100D02*
G75*
G03*
X27273200Y-11312100I40000J0D01*
G01*
X27273200Y-11112100D02*
G75*
G03*
X27193200Y-11112100I-40000J0D01*
G01*
X22707600Y-11365700D02*
X22757600Y-11315700D01*
X22707600Y-11265700D01*
X22657600Y-11315700D01*
X22707600Y-11365700D01*
X22757600Y-11315700D02*
G75*
G03*
X22757600Y-11315700I-50000J0D01*
G01*
X22961600Y-11365700D02*
X23011600Y-11315700D01*
X22961600Y-11265700D01*
X22911600Y-11315700D01*
X22961600Y-11365700D01*
X23011600Y-11315700D02*
G75*
G03*
X23011600Y-11315700I-50000J0D01*
G01*
X23215600Y-11365700D02*
X23265600Y-11315700D01*
X23215600Y-11265700D01*
X23165600Y-11315700D01*
X23215600Y-11365700D01*
X23265600Y-11315700D02*
G75*
G03*
X23265600Y-11315700I-50000J0D01*
G01*
X23469600Y-11365700D02*
X23519600Y-11315700D01*
X23469600Y-11265700D01*
X23419600Y-11315700D01*
X23469600Y-11365700D01*
X23519600Y-11315700D02*
G75*
G03*
X23519600Y-11315700I-50000J0D01*
G01*
X23723600Y-11365700D02*
X23773600Y-11315700D01*
X23723600Y-11265700D01*
X23673600Y-11315700D01*
X23723600Y-11365700D01*
X23773600Y-11315700D02*
G75*
G03*
X23773600Y-11315700I-50000J0D01*
G01*
X23977600Y-11365700D02*
X24027600Y-11315700D01*
X23977600Y-11265700D01*
X23927600Y-11315700D01*
X23977600Y-11365700D01*
X24027600Y-11315700D02*
G75*
G03*
X24027600Y-11315700I-50000J0D01*
G01*
X24460200Y-10972000D02*
X24510200Y-10922000D01*
X24460200Y-10872000D01*
X24410200Y-10922000D01*
X24460200Y-10972000D01*
X24510200Y-10922000D02*
G75*
G03*
X24510200Y-10922000I-50000J0D01*
G01*
X24714200Y-10972000D02*
X24764200Y-10922000D01*
X24714200Y-10872000D01*
X24664200Y-10922000D01*
X24714200Y-10972000D01*
X24764200Y-10922000D02*
G75*
G03*
X24764200Y-10922000I-50000J0D01*
G01*
X24968200Y-10972000D02*
X25018200Y-10922000D01*
X24968200Y-10872000D01*
X24918200Y-10922000D01*
X24968200Y-10972000D01*
X25018200Y-10922000D02*
G75*
G03*
X25018200Y-10922000I-50000J0D01*
G01*
X15405100Y-5091900D02*
X15455100Y-5041900D01*
X15405100Y-4991900D01*
X15355100Y-5041900D01*
X15405100Y-5091900D01*
X15455100Y-5041900D02*
G75*
G03*
X15455100Y-5041900I-50000J0D01*
G01*
X15659100Y-5091900D02*
X15709100Y-5041900D01*
X15659100Y-4991900D01*
X15609100Y-5041900D01*
X15659100Y-5091900D01*
X15709100Y-5041900D02*
G75*
G03*
X15709100Y-5041900I-50000J0D01*
G01*
X15913100Y-5091900D02*
X15963100Y-5041900D01*
X15913100Y-4991900D01*
X15863100Y-5041900D01*
X15913100Y-5091900D01*
X15963100Y-5041900D02*
G75*
G03*
X15963100Y-5041900I-50000J0D01*
G01*
X16167100Y-5091900D02*
X16217100Y-5041900D01*
X16167100Y-4991900D01*
X16117100Y-5041900D01*
X16167100Y-5091900D01*
X16217100Y-5041900D02*
G75*
G03*
X16217100Y-5041900I-50000J0D01*
G01*
X16421100Y-5091900D02*
X16471100Y-5041900D01*
X16421100Y-4991900D01*
X16371100Y-5041900D01*
X16421100Y-5091900D01*
X16471100Y-5041900D02*
G75*
G03*
X16471100Y-5041900I-50000J0D01*
G01*
X16675100Y-5091900D02*
X16725100Y-5041900D01*
X16675100Y-4991900D01*
X16625100Y-5041900D01*
X16675100Y-5091900D01*
X16725100Y-5041900D02*
G75*
G03*
X16725100Y-5041900I-50000J0D01*
G01*
X23517860Y-9976320D02*
X23567860Y-9926320D01*
X23517860Y-9876320D01*
X23467860Y-9926320D01*
X23517860Y-9976320D01*
X23567860Y-9926320D02*
G75*
G03*
X23567860Y-9926320I-50000J0D01*
G01*
X23771860Y-9976320D02*
X23821860Y-9926320D01*
X23771860Y-9876320D01*
X23721860Y-9926320D01*
X23771860Y-9976320D01*
X23821860Y-9926320D02*
G75*
G03*
X23821860Y-9926320I-50000J0D01*
G01*
X24025860Y-9976320D02*
X24075860Y-9926320D01*
X24025860Y-9876320D01*
X23975860Y-9926320D01*
X24025860Y-9976320D01*
X24075860Y-9926320D02*
G75*
G03*
X24075860Y-9926320I-50000J0D01*
G01*
X24279860Y-9976320D02*
X24329860Y-9926320D01*
X24279860Y-9876320D01*
X24229860Y-9926320D01*
X24279860Y-9976320D01*
X24329860Y-9926320D02*
G75*
G03*
X24329860Y-9926320I-50000J0D01*
G01*
X24533860Y-9976320D02*
X24583860Y-9926320D01*
X24533860Y-9876320D01*
X24483860Y-9926320D01*
X24533860Y-9976320D01*
X24583860Y-9926320D02*
G75*
G03*
X24583860Y-9926320I-50000J0D01*
G01*
X24787860Y-9976320D02*
X24837860Y-9926320D01*
X24787860Y-9876320D01*
X24737860Y-9926320D01*
X24787860Y-9976320D01*
X24837860Y-9926320D02*
G75*
G03*
X24837860Y-9926320I-50000J0D01*
G01*
X25041860Y-9976320D02*
X25091860Y-9926320D01*
X25041860Y-9876320D01*
X24991860Y-9926320D01*
X25041860Y-9976320D01*
X25091860Y-9926320D02*
G75*
G03*
X25091860Y-9926320I-50000J0D01*
G01*
X25295860Y-9976320D02*
X25345860Y-9926320D01*
X25295860Y-9876320D01*
X25245860Y-9926320D01*
X25295860Y-9976320D01*
X25345860Y-9926320D02*
G75*
G03*
X25345860Y-9926320I-50000J0D01*
G01*
X18554700Y-12889700D02*
X18604700Y-12839700D01*
X18554700Y-12789700D01*
X18504700Y-12839700D01*
X18554700Y-12889700D01*
X18604700Y-12839700D02*
G75*
G03*
X18604700Y-12839700I-50000J0D01*
G01*
X18808700Y-12889700D02*
X18858700Y-12839700D01*
X18808700Y-12789700D01*
X18758700Y-12839700D01*
X18808700Y-12889700D01*
X18858700Y-12839700D02*
G75*
G03*
X18858700Y-12839700I-50000J0D01*
G01*
X19062700Y-12889700D02*
X19112700Y-12839700D01*
X19062700Y-12789700D01*
X19012700Y-12839700D01*
X19062700Y-12889700D01*
X19112700Y-12839700D02*
G75*
G03*
X19112700Y-12839700I-50000J0D01*
G01*
X19316700Y-12889700D02*
X19366700Y-12839700D01*
X19316700Y-12789700D01*
X19266700Y-12839700D01*
X19316700Y-12889700D01*
X19366700Y-12839700D02*
G75*
G03*
X19366700Y-12839700I-50000J0D01*
G01*
X25296000Y-5150000D02*
X25346000Y-5100000D01*
X25296000Y-5050000D01*
X25246000Y-5100000D01*
X25296000Y-5150000D01*
X25346000Y-5100000D02*
G75*
G03*
X25346000Y-5100000I-50000J0D01*
G01*
X25550000Y-5150000D02*
X25600000Y-5100000D01*
X25550000Y-5050000D01*
X25500000Y-5100000D01*
X25550000Y-5150000D01*
X25600000Y-5100000D02*
G75*
G03*
X25600000Y-5100000I-50000J0D01*
G01*
X25804000Y-5150000D02*
X25854000Y-5100000D01*
X25804000Y-5050000D01*
X25754000Y-5100000D01*
X25804000Y-5150000D01*
X25854000Y-5100000D02*
G75*
G03*
X25854000Y-5100000I-50000J0D01*
G01*
X26058000Y-5150000D02*
X26108000Y-5100000D01*
X26058000Y-5050000D01*
X26008000Y-5100000D01*
X26058000Y-5150000D01*
X26108000Y-5100000D02*
G75*
G03*
X26108000Y-5100000I-50000J0D01*
G01*
X26312000Y-5150000D02*
X26362000Y-5100000D01*
X26312000Y-5050000D01*
X26262000Y-5100000D01*
X26312000Y-5150000D01*
X26362000Y-5100000D02*
G75*
G03*
X26362000Y-5100000I-50000J0D01*
G01*
X26566000Y-5150000D02*
X26616000Y-5100000D01*
X26566000Y-5050000D01*
X26516000Y-5100000D01*
X26566000Y-5150000D01*
X26616000Y-5100000D02*
G75*
G03*
X26616000Y-5100000I-50000J0D01*
G01*
X26820000Y-5150000D02*
X26870000Y-5100000D01*
X26820000Y-5050000D01*
X26770000Y-5100000D01*
X26820000Y-5150000D01*
X26870000Y-5100000D02*
G75*
G03*
X26870000Y-5100000I-50000J0D01*
G01*
X27074000Y-5150000D02*
X27124000Y-5100000D01*
X27074000Y-5050000D01*
X27024000Y-5100000D01*
X27074000Y-5150000D01*
X27124000Y-5100000D02*
G75*
G03*
X27124000Y-5100000I-50000J0D01*
G01*
X24472900Y-11670500D02*
X24522900Y-11620500D01*
X24472900Y-11570500D01*
X24422900Y-11620500D01*
X24472900Y-11670500D01*
X24522900Y-11620500D02*
G75*
G03*
X24522900Y-11620500I-50000J0D01*
G01*
X24726900Y-11670500D02*
X24776900Y-11620500D01*
X24726900Y-11570500D01*
X24676900Y-11620500D01*
X24726900Y-11670500D01*
X24776900Y-11620500D02*
G75*
G03*
X24776900Y-11620500I-50000J0D01*
G01*
X24980900Y-11670500D02*
X25030900Y-11620500D01*
X24980900Y-11570500D01*
X24930900Y-11620500D01*
X24980900Y-11670500D01*
X25030900Y-11620500D02*
G75*
G03*
X25030900Y-11620500I-50000J0D01*
G01*
X22603600Y-5150000D02*
X22653600Y-5100000D01*
X22603600Y-5050000D01*
X22553600Y-5100000D01*
X22603600Y-5150000D01*
X22653600Y-5100000D02*
G75*
G03*
X22653600Y-5100000I-50000J0D01*
G01*
X22857600Y-5150000D02*
X22907600Y-5100000D01*
X22857600Y-5050000D01*
X22807600Y-5100000D01*
X22857600Y-5150000D01*
X22907600Y-5100000D02*
G75*
G03*
X22907600Y-5100000I-50000J0D01*
G01*
X23111600Y-5150000D02*
X23161600Y-5100000D01*
X23111600Y-5050000D01*
X23061600Y-5100000D01*
X23111600Y-5150000D01*
X23161600Y-5100000D02*
G75*
G03*
X23161600Y-5100000I-50000J0D01*
G01*
X23365600Y-5150000D02*
X23415600Y-5100000D01*
X23365600Y-5050000D01*
X23315600Y-5100000D01*
X23365600Y-5150000D01*
X23415600Y-5100000D02*
G75*
G03*
X23415600Y-5100000I-50000J0D01*
G01*
X23619600Y-5150000D02*
X23669600Y-5100000D01*
X23619600Y-5050000D01*
X23569600Y-5100000D01*
X23619600Y-5150000D01*
X23669600Y-5100000D02*
G75*
G03*
X23669600Y-5100000I-50000J0D01*
G01*
X23873600Y-5150000D02*
X23923600Y-5100000D01*
X23873600Y-5050000D01*
X23823600Y-5100000D01*
X23873600Y-5150000D01*
X23923600Y-5100000D02*
G75*
G03*
X23923600Y-5100000I-50000J0D01*
G01*
X24127600Y-5150000D02*
X24177600Y-5100000D01*
X24127600Y-5050000D01*
X24077600Y-5100000D01*
X24127600Y-5150000D01*
X24177600Y-5100000D02*
G75*
G03*
X24177600Y-5100000I-50000J0D01*
G01*
X24381600Y-5150000D02*
X24431600Y-5100000D01*
X24381600Y-5050000D01*
X24331600Y-5100000D01*
X24381600Y-5150000D01*
X24431600Y-5100000D02*
G75*
G03*
X24431600Y-5100000I-50000J0D01*
G01*
X24635600Y-5150000D02*
X24685600Y-5100000D01*
X24635600Y-5050000D01*
X24585600Y-5100000D01*
X24635600Y-5150000D01*
X24685600Y-5100000D02*
G75*
G03*
X24685600Y-5100000I-50000J0D01*
G01*
X24889600Y-5150000D02*
X24939600Y-5100000D01*
X24889600Y-5050000D01*
X24839600Y-5100000D01*
X24889600Y-5150000D01*
X24939600Y-5100000D02*
G75*
G03*
X24939600Y-5100000I-50000J0D01*
G01*
X27165300Y-14080960D02*
X27215300Y-14030960D01*
X27165300Y-13980960D01*
X27115300Y-14030960D01*
X27165300Y-14080960D01*
X27215300Y-14030960D02*
G75*
G03*
X27215300Y-14030960I-50000J0D01*
G01*
X27665300Y-14080960D02*
X27715300Y-14030960D01*
X27665300Y-13980960D01*
X27615300Y-14030960D01*
X27665300Y-14080960D01*
X27715300Y-14030960D02*
G75*
G03*
X27715300Y-14030960I-50000J0D01*
G01*
X23096220Y-15922460D02*
X23146220Y-15872460D01*
X23096220Y-15822460D01*
X23046220Y-15872460D01*
X23096220Y-15922460D01*
X23146220Y-15872460D02*
G75*
G03*
X23146220Y-15872460I-50000J0D01*
G01*
X23350220Y-15922460D02*
X23400220Y-15872460D01*
X23350220Y-15822460D01*
X23300220Y-15872460D01*
X23350220Y-15922460D01*
X23400220Y-15872460D02*
G75*
G03*
X23400220Y-15872460I-50000J0D01*
G01*
X23604220Y-15922460D02*
X23654220Y-15872460D01*
X23604220Y-15822460D01*
X23554220Y-15872460D01*
X23604220Y-15922460D01*
X23654220Y-15872460D02*
G75*
G03*
X23654220Y-15872460I-50000J0D01*
G01*
X14224000Y-14731200D02*
X14274000Y-14681200D01*
X14224000Y-14631200D01*
X14174000Y-14681200D01*
X14224000Y-14731200D01*
X14274000Y-14681200D02*
G75*
G03*
X14274000Y-14681200I-50000J0D01*
G01*
X14478000Y-14731200D02*
X14528000Y-14681200D01*
X14478000Y-14631200D01*
X14428000Y-14681200D01*
X14478000Y-14731200D01*
X14528000Y-14681200D02*
G75*
G03*
X14528000Y-14681200I-50000J0D01*
G01*
X14732000Y-14731200D02*
X14782000Y-14681200D01*
X14732000Y-14631200D01*
X14682000Y-14681200D01*
X14732000Y-14731200D01*
X14782000Y-14681200D02*
G75*
G03*
X14782000Y-14681200I-50000J0D01*
G01*
X13434000Y-12798900D02*
X13434000Y-13031900D01*
X13317500Y-12915400D02*
X13550500Y-12915400D01*
X13516379Y-12997779D02*
X13516379Y-12833021D01*
X13351621Y-12833021D01*
X13351621Y-12997779D01*
X13516379Y-12997779D01*
X13434000Y-14002900D02*
X13434000Y-14235900D01*
X13317500Y-14119400D02*
X13550500Y-14119400D01*
X13516379Y-14201779D02*
X13516379Y-14037021D01*
X13351621Y-14037021D01*
X13351621Y-14201779D01*
X13516379Y-14201779D01*
D12*
X12569948Y-16813074D02*
X12569948Y-16513074D01*
X12641377Y-16513074D01*
X12684234Y-16527360D01*
X12712806Y-16555931D01*
X12727091Y-16584503D01*
X12741377Y-16641646D01*
X12741377Y-16684503D01*
X12727091Y-16741646D01*
X12712806Y-16770217D01*
X12684234Y-16798789D01*
X12641377Y-16813074D01*
X12569948Y-16813074D01*
X12869948Y-16813074D02*
X12869948Y-16613074D01*
X12869948Y-16670217D02*
X12884234Y-16641646D01*
X12898520Y-16627360D01*
X12927091Y-16613074D01*
X12955663Y-16613074D01*
X13055663Y-16813074D02*
X13055663Y-16613074D01*
X13055663Y-16513074D02*
X13041377Y-16527360D01*
X13055663Y-16541646D01*
X13069948Y-16527360D01*
X13055663Y-16513074D01*
X13055663Y-16541646D01*
X13241377Y-16813074D02*
X13212806Y-16798789D01*
X13198520Y-16770217D01*
X13198520Y-16513074D01*
X13398520Y-16813074D02*
X13369948Y-16798789D01*
X13355663Y-16770217D01*
X13355663Y-16513074D01*
X13741377Y-16813074D02*
X13741377Y-16513074D01*
X13841377Y-16727360D01*
X13941377Y-16513074D01*
X13941377Y-16813074D01*
X14212806Y-16813074D02*
X14212806Y-16655931D01*
X14198520Y-16627360D01*
X14169948Y-16613074D01*
X14112806Y-16613074D01*
X14084234Y-16627360D01*
X14212806Y-16798789D02*
X14184234Y-16813074D01*
X14112806Y-16813074D01*
X14084234Y-16798789D01*
X14069948Y-16770217D01*
X14069948Y-16741646D01*
X14084234Y-16713074D01*
X14112806Y-16698789D01*
X14184234Y-16698789D01*
X14212806Y-16684503D01*
X14355663Y-16613074D02*
X14355663Y-16913074D01*
X14355663Y-16627360D02*
X14384234Y-16613074D01*
X14441377Y-16613074D01*
X14469948Y-16627360D01*
X14484234Y-16641646D01*
X14498520Y-16670217D01*
X14498520Y-16755931D01*
X14484234Y-16784503D01*
X14469948Y-16798789D01*
X14441377Y-16813074D01*
X14384234Y-16813074D01*
X14355663Y-16798789D01*
X14627091Y-16784503D02*
X14641377Y-16798789D01*
X14627091Y-16813074D01*
X14612806Y-16798789D01*
X14627091Y-16784503D01*
X14627091Y-16813074D01*
X14627091Y-16627360D02*
X14641377Y-16641646D01*
X14627091Y-16655931D01*
X14612806Y-16641646D01*
X14627091Y-16627360D01*
X14627091Y-16655931D01*
X12263520Y-17297360D02*
X12283520Y-17317360D01*
X12283520Y-17297360D02*
X12263520Y-17317360D01*
X12627091Y-17143074D02*
X12655663Y-17143074D01*
X12684234Y-17157360D01*
X12698520Y-17171646D01*
X12712806Y-17200217D01*
X12727091Y-17257360D01*
X12727091Y-17328789D01*
X12712806Y-17385932D01*
X12698520Y-17414503D01*
X12684234Y-17428789D01*
X12655663Y-17443074D01*
X12627091Y-17443074D01*
X12598520Y-17428789D01*
X12584234Y-17414503D01*
X12569948Y-17385932D01*
X12555663Y-17328789D01*
X12555663Y-17257360D01*
X12569948Y-17200217D01*
X12584234Y-17171646D01*
X12598520Y-17157360D01*
X12627091Y-17143074D01*
X12855663Y-17414503D02*
X12869948Y-17428789D01*
X12855663Y-17443074D01*
X12841377Y-17428789D01*
X12855663Y-17414503D01*
X12855663Y-17443074D01*
X12984234Y-17171646D02*
X12998520Y-17157360D01*
X13027091Y-17143074D01*
X13098520Y-17143074D01*
X13127091Y-17157360D01*
X13141377Y-17171646D01*
X13155663Y-17200217D01*
X13155663Y-17228789D01*
X13141377Y-17271646D01*
X12969948Y-17443074D01*
X13155663Y-17443074D01*
X13341377Y-17143074D02*
X13369948Y-17143074D01*
X13398520Y-17157360D01*
X13412806Y-17171646D01*
X13427091Y-17200217D01*
X13441377Y-17257360D01*
X13441377Y-17328789D01*
X13427091Y-17385932D01*
X13412806Y-17414503D01*
X13398520Y-17428789D01*
X13369948Y-17443074D01*
X13341377Y-17443074D01*
X13312806Y-17428789D01*
X13298520Y-17414503D01*
X13284234Y-17385932D01*
X13269948Y-17328789D01*
X13269948Y-17257360D01*
X13284234Y-17200217D01*
X13298520Y-17171646D01*
X13312806Y-17157360D01*
X13341377Y-17143074D01*
X13569948Y-17443074D02*
X13569948Y-17243074D01*
X13569948Y-17271646D02*
X13584234Y-17257360D01*
X13612806Y-17243074D01*
X13655663Y-17243074D01*
X13684234Y-17257360D01*
X13698520Y-17285932D01*
X13698520Y-17443074D01*
X13698520Y-17285932D02*
X13712806Y-17257360D01*
X13741377Y-17243074D01*
X13784234Y-17243074D01*
X13812806Y-17257360D01*
X13827091Y-17285932D01*
X13827091Y-17443074D01*
X13969948Y-17443074D02*
X13969948Y-17243074D01*
X13969948Y-17271646D02*
X13984234Y-17257360D01*
X14012806Y-17243074D01*
X14055663Y-17243074D01*
X14084234Y-17257360D01*
X14098520Y-17285932D01*
X14098520Y-17443074D01*
X14098520Y-17285932D02*
X14112806Y-17257360D01*
X14141377Y-17243074D01*
X14184234Y-17243074D01*
X14212806Y-17257360D01*
X14227091Y-17285932D01*
X14227091Y-17443074D01*
X14812806Y-17128789D02*
X14555663Y-17514503D01*
X15198520Y-17143074D02*
X15227091Y-17143074D01*
X15255663Y-17157360D01*
X15269948Y-17171646D01*
X15284234Y-17200217D01*
X15298520Y-17257360D01*
X15298520Y-17328789D01*
X15284234Y-17385932D01*
X15269948Y-17414503D01*
X15255663Y-17428789D01*
X15227091Y-17443074D01*
X15198520Y-17443074D01*
X15169948Y-17428789D01*
X15155663Y-17414503D01*
X15141377Y-17385932D01*
X15127091Y-17328789D01*
X15127091Y-17257360D01*
X15141377Y-17200217D01*
X15155663Y-17171646D01*
X15169948Y-17157360D01*
X15198520Y-17143074D01*
X15427091Y-17414503D02*
X15441377Y-17428789D01*
X15427091Y-17443074D01*
X15412806Y-17428789D01*
X15427091Y-17414503D01*
X15427091Y-17443074D01*
X15627091Y-17143074D02*
X15655663Y-17143074D01*
X15684234Y-17157360D01*
X15698520Y-17171646D01*
X15712806Y-17200217D01*
X15727091Y-17257360D01*
X15727091Y-17328789D01*
X15712806Y-17385932D01*
X15698520Y-17414503D01*
X15684234Y-17428789D01*
X15655663Y-17443074D01*
X15627091Y-17443074D01*
X15598520Y-17428789D01*
X15584234Y-17414503D01*
X15569948Y-17385932D01*
X15555663Y-17328789D01*
X15555663Y-17257360D01*
X15569948Y-17200217D01*
X15584234Y-17171646D01*
X15598520Y-17157360D01*
X15627091Y-17143074D01*
X15912806Y-17143074D02*
X15941377Y-17143074D01*
X15969948Y-17157360D01*
X15984234Y-17171646D01*
X15998520Y-17200217D01*
X16012806Y-17257360D01*
X16012806Y-17328789D01*
X15998520Y-17385932D01*
X15984234Y-17414503D01*
X15969948Y-17428789D01*
X15941377Y-17443074D01*
X15912806Y-17443074D01*
X15884234Y-17428789D01*
X15869948Y-17414503D01*
X15855663Y-17385932D01*
X15841377Y-17328789D01*
X15841377Y-17257360D01*
X15855663Y-17200217D01*
X15869948Y-17171646D01*
X15884234Y-17157360D01*
X15912806Y-17143074D01*
X16184234Y-17271646D02*
X16155663Y-17257360D01*
X16141377Y-17243074D01*
X16127091Y-17214503D01*
X16127091Y-17200217D01*
X16141377Y-17171646D01*
X16155663Y-17157360D01*
X16184234Y-17143074D01*
X16241377Y-17143074D01*
X16269948Y-17157360D01*
X16284234Y-17171646D01*
X16298520Y-17200217D01*
X16298520Y-17214503D01*
X16284234Y-17243074D01*
X16269948Y-17257360D01*
X16241377Y-17271646D01*
X16184234Y-17271646D01*
X16155663Y-17285932D01*
X16141377Y-17300217D01*
X16127091Y-17328789D01*
X16127091Y-17385932D01*
X16141377Y-17414503D01*
X16155663Y-17428789D01*
X16184234Y-17443074D01*
X16241377Y-17443074D01*
X16269948Y-17428789D01*
X16284234Y-17414503D01*
X16298520Y-17385932D01*
X16298520Y-17328789D01*
X16284234Y-17300217D01*
X16269948Y-17285932D01*
X16241377Y-17271646D01*
X16412806Y-17143074D02*
X16412806Y-17200217D01*
X16527091Y-17143074D02*
X16527091Y-17200217D01*
X16969948Y-17557360D02*
X16955663Y-17543074D01*
X16927091Y-17500217D01*
X16912806Y-17471646D01*
X16898520Y-17428789D01*
X16884234Y-17357360D01*
X16884234Y-17300217D01*
X16898520Y-17228789D01*
X16912806Y-17185932D01*
X16927091Y-17157360D01*
X16955663Y-17114503D01*
X16969948Y-17100217D01*
X17241377Y-17443074D02*
X17069948Y-17443074D01*
X17155663Y-17443074D02*
X17155663Y-17143074D01*
X17127091Y-17185932D01*
X17098520Y-17214503D01*
X17069948Y-17228789D01*
X17412806Y-17271646D02*
X17384234Y-17257360D01*
X17369948Y-17243074D01*
X17355663Y-17214503D01*
X17355663Y-17200217D01*
X17369948Y-17171646D01*
X17384234Y-17157360D01*
X17412806Y-17143074D01*
X17469948Y-17143074D01*
X17498520Y-17157360D01*
X17512806Y-17171646D01*
X17527091Y-17200217D01*
X17527091Y-17214503D01*
X17512806Y-17243074D01*
X17498520Y-17257360D01*
X17469948Y-17271646D01*
X17412806Y-17271646D01*
X17384234Y-17285932D01*
X17369948Y-17300217D01*
X17355663Y-17328789D01*
X17355663Y-17385932D01*
X17369948Y-17414503D01*
X17384234Y-17428789D01*
X17412806Y-17443074D01*
X17469948Y-17443074D01*
X17498520Y-17428789D01*
X17512806Y-17414503D01*
X17527091Y-17385932D01*
X17527091Y-17328789D01*
X17512806Y-17300217D01*
X17498520Y-17285932D01*
X17469948Y-17271646D01*
X17884234Y-17443074D02*
X17884234Y-17143074D01*
X18012806Y-17443074D02*
X18012806Y-17285932D01*
X17998520Y-17257360D01*
X17969948Y-17243074D01*
X17927091Y-17243074D01*
X17898520Y-17257360D01*
X17884234Y-17271646D01*
X18198520Y-17443074D02*
X18169948Y-17428789D01*
X18155663Y-17414503D01*
X18141377Y-17385932D01*
X18141377Y-17300217D01*
X18155663Y-17271646D01*
X18169948Y-17257360D01*
X18198520Y-17243074D01*
X18241377Y-17243074D01*
X18269948Y-17257360D01*
X18284234Y-17271646D01*
X18298520Y-17300217D01*
X18298520Y-17385932D01*
X18284234Y-17414503D01*
X18269948Y-17428789D01*
X18241377Y-17443074D01*
X18198520Y-17443074D01*
X18469948Y-17443074D02*
X18441377Y-17428789D01*
X18427091Y-17400217D01*
X18427091Y-17143074D01*
X18698520Y-17428789D02*
X18669948Y-17443074D01*
X18612806Y-17443074D01*
X18584234Y-17428789D01*
X18569948Y-17400217D01*
X18569948Y-17285932D01*
X18584234Y-17257360D01*
X18612806Y-17243074D01*
X18669948Y-17243074D01*
X18698520Y-17257360D01*
X18712806Y-17285932D01*
X18712806Y-17314503D01*
X18569948Y-17343074D01*
X18827091Y-17428789D02*
X18855663Y-17443074D01*
X18912806Y-17443074D01*
X18941377Y-17428789D01*
X18955663Y-17400217D01*
X18955663Y-17385932D01*
X18941377Y-17357360D01*
X18912806Y-17343074D01*
X18869948Y-17343074D01*
X18841377Y-17328789D01*
X18827091Y-17300217D01*
X18827091Y-17285932D01*
X18841377Y-17257360D01*
X18869948Y-17243074D01*
X18912806Y-17243074D01*
X18941377Y-17257360D01*
X19055663Y-17557360D02*
X19069948Y-17543074D01*
X19098520Y-17500217D01*
X19112806Y-17471646D01*
X19127091Y-17428789D01*
X19141377Y-17357360D01*
X19141377Y-17300217D01*
X19127091Y-17228789D01*
X19112806Y-17185932D01*
X19098520Y-17157360D01*
X19069948Y-17114503D01*
X19055663Y-17100217D01*
X12283520Y-17703360D02*
G75*
G03*
X12283520Y-17703360I-10160J0D01*
G01*
X12627091Y-17539074D02*
X12655663Y-17539074D01*
X12684234Y-17553360D01*
X12698520Y-17567646D01*
X12712806Y-17596217D01*
X12727091Y-17653360D01*
X12727091Y-17724789D01*
X12712806Y-17781932D01*
X12698520Y-17810503D01*
X12684234Y-17824789D01*
X12655663Y-17839074D01*
X12627091Y-17839074D01*
X12598520Y-17824789D01*
X12584234Y-17810503D01*
X12569948Y-17781932D01*
X12555663Y-17724789D01*
X12555663Y-17653360D01*
X12569948Y-17596217D01*
X12584234Y-17567646D01*
X12598520Y-17553360D01*
X12627091Y-17539074D01*
X12855663Y-17810503D02*
X12869948Y-17824789D01*
X12855663Y-17839074D01*
X12841377Y-17824789D01*
X12855663Y-17810503D01*
X12855663Y-17839074D01*
X12984234Y-17567646D02*
X12998520Y-17553360D01*
X13027091Y-17539074D01*
X13098520Y-17539074D01*
X13127091Y-17553360D01*
X13141377Y-17567646D01*
X13155663Y-17596217D01*
X13155663Y-17624789D01*
X13141377Y-17667646D01*
X12969948Y-17839074D01*
X13155663Y-17839074D01*
X13341377Y-17539074D02*
X13369948Y-17539074D01*
X13398520Y-17553360D01*
X13412806Y-17567646D01*
X13427091Y-17596217D01*
X13441377Y-17653360D01*
X13441377Y-17724789D01*
X13427091Y-17781932D01*
X13412806Y-17810503D01*
X13398520Y-17824789D01*
X13369948Y-17839074D01*
X13341377Y-17839074D01*
X13312806Y-17824789D01*
X13298520Y-17810503D01*
X13284234Y-17781932D01*
X13269948Y-17724789D01*
X13269948Y-17653360D01*
X13284234Y-17596217D01*
X13298520Y-17567646D01*
X13312806Y-17553360D01*
X13341377Y-17539074D01*
X13569948Y-17839074D02*
X13569948Y-17639074D01*
X13569948Y-17667646D02*
X13584234Y-17653360D01*
X13612806Y-17639074D01*
X13655663Y-17639074D01*
X13684234Y-17653360D01*
X13698520Y-17681932D01*
X13698520Y-17839074D01*
X13698520Y-17681932D02*
X13712806Y-17653360D01*
X13741377Y-17639074D01*
X13784234Y-17639074D01*
X13812806Y-17653360D01*
X13827091Y-17681932D01*
X13827091Y-17839074D01*
X13969948Y-17839074D02*
X13969948Y-17639074D01*
X13969948Y-17667646D02*
X13984234Y-17653360D01*
X14012806Y-17639074D01*
X14055663Y-17639074D01*
X14084234Y-17653360D01*
X14098520Y-17681932D01*
X14098520Y-17839074D01*
X14098520Y-17681932D02*
X14112806Y-17653360D01*
X14141377Y-17639074D01*
X14184234Y-17639074D01*
X14212806Y-17653360D01*
X14227091Y-17681932D01*
X14227091Y-17839074D01*
X14812806Y-17524789D02*
X14555663Y-17910503D01*
X15198520Y-17539074D02*
X15227091Y-17539074D01*
X15255663Y-17553360D01*
X15269948Y-17567646D01*
X15284234Y-17596217D01*
X15298520Y-17653360D01*
X15298520Y-17724789D01*
X15284234Y-17781932D01*
X15269948Y-17810503D01*
X15255663Y-17824789D01*
X15227091Y-17839074D01*
X15198520Y-17839074D01*
X15169948Y-17824789D01*
X15155663Y-17810503D01*
X15141377Y-17781932D01*
X15127091Y-17724789D01*
X15127091Y-17653360D01*
X15141377Y-17596217D01*
X15155663Y-17567646D01*
X15169948Y-17553360D01*
X15198520Y-17539074D01*
X15427091Y-17810503D02*
X15441377Y-17824789D01*
X15427091Y-17839074D01*
X15412806Y-17824789D01*
X15427091Y-17810503D01*
X15427091Y-17839074D01*
X15627091Y-17539074D02*
X15655663Y-17539074D01*
X15684234Y-17553360D01*
X15698520Y-17567646D01*
X15712806Y-17596217D01*
X15727091Y-17653360D01*
X15727091Y-17724789D01*
X15712806Y-17781932D01*
X15698520Y-17810503D01*
X15684234Y-17824789D01*
X15655663Y-17839074D01*
X15627091Y-17839074D01*
X15598520Y-17824789D01*
X15584234Y-17810503D01*
X15569948Y-17781932D01*
X15555663Y-17724789D01*
X15555663Y-17653360D01*
X15569948Y-17596217D01*
X15584234Y-17567646D01*
X15598520Y-17553360D01*
X15627091Y-17539074D01*
X15912806Y-17539074D02*
X15941377Y-17539074D01*
X15969948Y-17553360D01*
X15984234Y-17567646D01*
X15998520Y-17596217D01*
X16012806Y-17653360D01*
X16012806Y-17724789D01*
X15998520Y-17781932D01*
X15984234Y-17810503D01*
X15969948Y-17824789D01*
X15941377Y-17839074D01*
X15912806Y-17839074D01*
X15884234Y-17824789D01*
X15869948Y-17810503D01*
X15855663Y-17781932D01*
X15841377Y-17724789D01*
X15841377Y-17653360D01*
X15855663Y-17596217D01*
X15869948Y-17567646D01*
X15884234Y-17553360D01*
X15912806Y-17539074D01*
X16184234Y-17667646D02*
X16155663Y-17653360D01*
X16141377Y-17639074D01*
X16127091Y-17610503D01*
X16127091Y-17596217D01*
X16141377Y-17567646D01*
X16155663Y-17553360D01*
X16184234Y-17539074D01*
X16241377Y-17539074D01*
X16269948Y-17553360D01*
X16284234Y-17567646D01*
X16298520Y-17596217D01*
X16298520Y-17610503D01*
X16284234Y-17639074D01*
X16269948Y-17653360D01*
X16241377Y-17667646D01*
X16184234Y-17667646D01*
X16155663Y-17681932D01*
X16141377Y-17696217D01*
X16127091Y-17724789D01*
X16127091Y-17781932D01*
X16141377Y-17810503D01*
X16155663Y-17824789D01*
X16184234Y-17839074D01*
X16241377Y-17839074D01*
X16269948Y-17824789D01*
X16284234Y-17810503D01*
X16298520Y-17781932D01*
X16298520Y-17724789D01*
X16284234Y-17696217D01*
X16269948Y-17681932D01*
X16241377Y-17667646D01*
X16412806Y-17539074D02*
X16412806Y-17596217D01*
X16527091Y-17539074D02*
X16527091Y-17596217D01*
X16969948Y-17953360D02*
X16955663Y-17939074D01*
X16927091Y-17896217D01*
X16912806Y-17867646D01*
X16898520Y-17824789D01*
X16884234Y-17753360D01*
X16884234Y-17696217D01*
X16898520Y-17624789D01*
X16912806Y-17581932D01*
X16927091Y-17553360D01*
X16955663Y-17510503D01*
X16969948Y-17496217D01*
X17212806Y-17639074D02*
X17212806Y-17839074D01*
X17141377Y-17524789D02*
X17069948Y-17739074D01*
X17255663Y-17739074D01*
X17427091Y-17539074D02*
X17455663Y-17539074D01*
X17484234Y-17553360D01*
X17498520Y-17567646D01*
X17512806Y-17596217D01*
X17527091Y-17653360D01*
X17527091Y-17724789D01*
X17512806Y-17781932D01*
X17498520Y-17810503D01*
X17484234Y-17824789D01*
X17455663Y-17839074D01*
X17427091Y-17839074D01*
X17398520Y-17824789D01*
X17384234Y-17810503D01*
X17369948Y-17781932D01*
X17355663Y-17724789D01*
X17355663Y-17653360D01*
X17369948Y-17596217D01*
X17384234Y-17567646D01*
X17398520Y-17553360D01*
X17427091Y-17539074D01*
X17812806Y-17839074D02*
X17641377Y-17839074D01*
X17727091Y-17839074D02*
X17727091Y-17539074D01*
X17698520Y-17581932D01*
X17669948Y-17610503D01*
X17641377Y-17624789D01*
X18169948Y-17839074D02*
X18169948Y-17539074D01*
X18298520Y-17839074D02*
X18298520Y-17681932D01*
X18284234Y-17653360D01*
X18255663Y-17639074D01*
X18212806Y-17639074D01*
X18184234Y-17653360D01*
X18169948Y-17667646D01*
X18484234Y-17839074D02*
X18455663Y-17824789D01*
X18441377Y-17810503D01*
X18427091Y-17781932D01*
X18427091Y-17696217D01*
X18441377Y-17667646D01*
X18455663Y-17653360D01*
X18484234Y-17639074D01*
X18527091Y-17639074D01*
X18555663Y-17653360D01*
X18569948Y-17667646D01*
X18584234Y-17696217D01*
X18584234Y-17781932D01*
X18569948Y-17810503D01*
X18555663Y-17824789D01*
X18527091Y-17839074D01*
X18484234Y-17839074D01*
X18755663Y-17839074D02*
X18727091Y-17824789D01*
X18712806Y-17796217D01*
X18712806Y-17539074D01*
X18984234Y-17824789D02*
X18955663Y-17839074D01*
X18898520Y-17839074D01*
X18869948Y-17824789D01*
X18855663Y-17796217D01*
X18855663Y-17681932D01*
X18869948Y-17653360D01*
X18898520Y-17639074D01*
X18955663Y-17639074D01*
X18984234Y-17653360D01*
X18998520Y-17681932D01*
X18998520Y-17710503D01*
X18855663Y-17739074D01*
X19112806Y-17824789D02*
X19141377Y-17839074D01*
X19198520Y-17839074D01*
X19227091Y-17824789D01*
X19241377Y-17796217D01*
X19241377Y-17781932D01*
X19227091Y-17753360D01*
X19198520Y-17739074D01*
X19155663Y-17739074D01*
X19127091Y-17724789D01*
X19112806Y-17696217D01*
X19112806Y-17681932D01*
X19127091Y-17653360D01*
X19155663Y-17639074D01*
X19198520Y-17639074D01*
X19227091Y-17653360D01*
X19341377Y-17953360D02*
X19355663Y-17939074D01*
X19384234Y-17896217D01*
X19398520Y-17867646D01*
X19412806Y-17824789D01*
X19427091Y-17753360D01*
X19427091Y-17696217D01*
X19412806Y-17624789D01*
X19398520Y-17581932D01*
X19384234Y-17553360D01*
X19355663Y-17510503D01*
X19341377Y-17496217D01*
X12268280Y-18084120D02*
X12268280Y-18114600D01*
X12253040Y-18099360D02*
X12283520Y-18099360D01*
X12627091Y-17935074D02*
X12655663Y-17935074D01*
X12684234Y-17949360D01*
X12698520Y-17963646D01*
X12712806Y-17992217D01*
X12727091Y-18049360D01*
X12727091Y-18120789D01*
X12712806Y-18177932D01*
X12698520Y-18206503D01*
X12684234Y-18220789D01*
X12655663Y-18235074D01*
X12627091Y-18235074D01*
X12598520Y-18220789D01*
X12584234Y-18206503D01*
X12569948Y-18177932D01*
X12555663Y-18120789D01*
X12555663Y-18049360D01*
X12569948Y-17992217D01*
X12584234Y-17963646D01*
X12598520Y-17949360D01*
X12627091Y-17935074D01*
X12855663Y-18206503D02*
X12869948Y-18220789D01*
X12855663Y-18235074D01*
X12841377Y-18220789D01*
X12855663Y-18206503D01*
X12855663Y-18235074D01*
X12969948Y-17935074D02*
X13155663Y-17935074D01*
X13055663Y-18049360D01*
X13098520Y-18049360D01*
X13127091Y-18063646D01*
X13141377Y-18077932D01*
X13155663Y-18106503D01*
X13155663Y-18177932D01*
X13141377Y-18206503D01*
X13127091Y-18220789D01*
X13098520Y-18235074D01*
X13012806Y-18235074D01*
X12984234Y-18220789D01*
X12969948Y-18206503D01*
X13341377Y-17935074D02*
X13369948Y-17935074D01*
X13398520Y-17949360D01*
X13412806Y-17963646D01*
X13427091Y-17992217D01*
X13441377Y-18049360D01*
X13441377Y-18120789D01*
X13427091Y-18177932D01*
X13412806Y-18206503D01*
X13398520Y-18220789D01*
X13369948Y-18235074D01*
X13341377Y-18235074D01*
X13312806Y-18220789D01*
X13298520Y-18206503D01*
X13284234Y-18177932D01*
X13269948Y-18120789D01*
X13269948Y-18049360D01*
X13284234Y-17992217D01*
X13298520Y-17963646D01*
X13312806Y-17949360D01*
X13341377Y-17935074D01*
X13569948Y-18235074D02*
X13569948Y-18035074D01*
X13569948Y-18063646D02*
X13584234Y-18049360D01*
X13612806Y-18035074D01*
X13655663Y-18035074D01*
X13684234Y-18049360D01*
X13698520Y-18077932D01*
X13698520Y-18235074D01*
X13698520Y-18077932D02*
X13712806Y-18049360D01*
X13741377Y-18035074D01*
X13784234Y-18035074D01*
X13812806Y-18049360D01*
X13827091Y-18077932D01*
X13827091Y-18235074D01*
X13969948Y-18235074D02*
X13969948Y-18035074D01*
X13969948Y-18063646D02*
X13984234Y-18049360D01*
X14012806Y-18035074D01*
X14055663Y-18035074D01*
X14084234Y-18049360D01*
X14098520Y-18077932D01*
X14098520Y-18235074D01*
X14098520Y-18077932D02*
X14112806Y-18049360D01*
X14141377Y-18035074D01*
X14184234Y-18035074D01*
X14212806Y-18049360D01*
X14227091Y-18077932D01*
X14227091Y-18235074D01*
X14812806Y-17920789D02*
X14555663Y-18306503D01*
X15198520Y-17935074D02*
X15227091Y-17935074D01*
X15255663Y-17949360D01*
X15269948Y-17963646D01*
X15284234Y-17992217D01*
X15298520Y-18049360D01*
X15298520Y-18120789D01*
X15284234Y-18177932D01*
X15269948Y-18206503D01*
X15255663Y-18220789D01*
X15227091Y-18235074D01*
X15198520Y-18235074D01*
X15169948Y-18220789D01*
X15155663Y-18206503D01*
X15141377Y-18177932D01*
X15127091Y-18120789D01*
X15127091Y-18049360D01*
X15141377Y-17992217D01*
X15155663Y-17963646D01*
X15169948Y-17949360D01*
X15198520Y-17935074D01*
X15427091Y-18206503D02*
X15441377Y-18220789D01*
X15427091Y-18235074D01*
X15412806Y-18220789D01*
X15427091Y-18206503D01*
X15427091Y-18235074D01*
X15627091Y-17935074D02*
X15655663Y-17935074D01*
X15684234Y-17949360D01*
X15698520Y-17963646D01*
X15712806Y-17992217D01*
X15727091Y-18049360D01*
X15727091Y-18120789D01*
X15712806Y-18177932D01*
X15698520Y-18206503D01*
X15684234Y-18220789D01*
X15655663Y-18235074D01*
X15627091Y-18235074D01*
X15598520Y-18220789D01*
X15584234Y-18206503D01*
X15569948Y-18177932D01*
X15555663Y-18120789D01*
X15555663Y-18049360D01*
X15569948Y-17992217D01*
X15584234Y-17963646D01*
X15598520Y-17949360D01*
X15627091Y-17935074D01*
X16012806Y-18235074D02*
X15841377Y-18235074D01*
X15927091Y-18235074D02*
X15927091Y-17935074D01*
X15898520Y-17977932D01*
X15869948Y-18006503D01*
X15841377Y-18020789D01*
X16127091Y-17963646D02*
X16141377Y-17949360D01*
X16169948Y-17935074D01*
X16241377Y-17935074D01*
X16269948Y-17949360D01*
X16284234Y-17963646D01*
X16298520Y-17992217D01*
X16298520Y-18020789D01*
X16284234Y-18063646D01*
X16112806Y-18235074D01*
X16298520Y-18235074D01*
X16412806Y-17935074D02*
X16412806Y-17992217D01*
X16527091Y-17935074D02*
X16527091Y-17992217D01*
X16969948Y-18349360D02*
X16955663Y-18335074D01*
X16927091Y-18292217D01*
X16912806Y-18263646D01*
X16898520Y-18220789D01*
X16884234Y-18149360D01*
X16884234Y-18092217D01*
X16898520Y-18020789D01*
X16912806Y-17977932D01*
X16927091Y-17949360D01*
X16955663Y-17906503D01*
X16969948Y-17892217D01*
X17055663Y-17935074D02*
X17241377Y-17935074D01*
X17141377Y-18049360D01*
X17184234Y-18049360D01*
X17212806Y-18063646D01*
X17227091Y-18077932D01*
X17241377Y-18106503D01*
X17241377Y-18177932D01*
X17227091Y-18206503D01*
X17212806Y-18220789D01*
X17184234Y-18235074D01*
X17098520Y-18235074D01*
X17069948Y-18220789D01*
X17055663Y-18206503D01*
X17498520Y-18035074D02*
X17498520Y-18235074D01*
X17427091Y-17920789D02*
X17355663Y-18135074D01*
X17541377Y-18135074D01*
X17884234Y-18235074D02*
X17884234Y-17935074D01*
X18012806Y-18235074D02*
X18012806Y-18077932D01*
X17998520Y-18049360D01*
X17969948Y-18035074D01*
X17927091Y-18035074D01*
X17898520Y-18049360D01*
X17884234Y-18063646D01*
X18198520Y-18235074D02*
X18169948Y-18220789D01*
X18155663Y-18206503D01*
X18141377Y-18177932D01*
X18141377Y-18092217D01*
X18155663Y-18063646D01*
X18169948Y-18049360D01*
X18198520Y-18035074D01*
X18241377Y-18035074D01*
X18269948Y-18049360D01*
X18284234Y-18063646D01*
X18298520Y-18092217D01*
X18298520Y-18177932D01*
X18284234Y-18206503D01*
X18269948Y-18220789D01*
X18241377Y-18235074D01*
X18198520Y-18235074D01*
X18469948Y-18235074D02*
X18441377Y-18220789D01*
X18427091Y-18192217D01*
X18427091Y-17935074D01*
X18698520Y-18220789D02*
X18669948Y-18235074D01*
X18612806Y-18235074D01*
X18584234Y-18220789D01*
X18569948Y-18192217D01*
X18569948Y-18077932D01*
X18584234Y-18049360D01*
X18612806Y-18035074D01*
X18669948Y-18035074D01*
X18698520Y-18049360D01*
X18712806Y-18077932D01*
X18712806Y-18106503D01*
X18569948Y-18135074D01*
X18827091Y-18220789D02*
X18855663Y-18235074D01*
X18912806Y-18235074D01*
X18941377Y-18220789D01*
X18955663Y-18192217D01*
X18955663Y-18177932D01*
X18941377Y-18149360D01*
X18912806Y-18135074D01*
X18869948Y-18135074D01*
X18841377Y-18120789D01*
X18827091Y-18092217D01*
X18827091Y-18077932D01*
X18841377Y-18049360D01*
X18869948Y-18035074D01*
X18912806Y-18035074D01*
X18941377Y-18049360D01*
X19055663Y-18349360D02*
X19069948Y-18335074D01*
X19098520Y-18292217D01*
X19112806Y-18263646D01*
X19127091Y-18220789D01*
X19141377Y-18149360D01*
X19141377Y-18092217D01*
X19127091Y-18020789D01*
X19112806Y-17977932D01*
X19098520Y-17949360D01*
X19069948Y-17906503D01*
X19055663Y-17892217D01*
X12277662Y-18509502D02*
X12277662Y-18481218D01*
X12249378Y-18481218D01*
X12249378Y-18509502D01*
X12277662Y-18509502D01*
X12627091Y-18331074D02*
X12655663Y-18331074D01*
X12684234Y-18345360D01*
X12698520Y-18359646D01*
X12712806Y-18388217D01*
X12727091Y-18445360D01*
X12727091Y-18516789D01*
X12712806Y-18573932D01*
X12698520Y-18602503D01*
X12684234Y-18616789D01*
X12655663Y-18631074D01*
X12627091Y-18631074D01*
X12598520Y-18616789D01*
X12584234Y-18602503D01*
X12569948Y-18573932D01*
X12555663Y-18516789D01*
X12555663Y-18445360D01*
X12569948Y-18388217D01*
X12584234Y-18359646D01*
X12598520Y-18345360D01*
X12627091Y-18331074D01*
X12855663Y-18602503D02*
X12869948Y-18616789D01*
X12855663Y-18631074D01*
X12841377Y-18616789D01*
X12855663Y-18602503D01*
X12855663Y-18631074D01*
X13127091Y-18431074D02*
X13127091Y-18631074D01*
X13055663Y-18316789D02*
X12984234Y-18531074D01*
X13169948Y-18531074D01*
X13341377Y-18331074D02*
X13369948Y-18331074D01*
X13398520Y-18345360D01*
X13412806Y-18359646D01*
X13427091Y-18388217D01*
X13441377Y-18445360D01*
X13441377Y-18516789D01*
X13427091Y-18573932D01*
X13412806Y-18602503D01*
X13398520Y-18616789D01*
X13369948Y-18631074D01*
X13341377Y-18631074D01*
X13312806Y-18616789D01*
X13298520Y-18602503D01*
X13284234Y-18573932D01*
X13269948Y-18516789D01*
X13269948Y-18445360D01*
X13284234Y-18388217D01*
X13298520Y-18359646D01*
X13312806Y-18345360D01*
X13341377Y-18331074D01*
X13569948Y-18631074D02*
X13569948Y-18431074D01*
X13569948Y-18459646D02*
X13584234Y-18445360D01*
X13612806Y-18431074D01*
X13655663Y-18431074D01*
X13684234Y-18445360D01*
X13698520Y-18473932D01*
X13698520Y-18631074D01*
X13698520Y-18473932D02*
X13712806Y-18445360D01*
X13741377Y-18431074D01*
X13784234Y-18431074D01*
X13812806Y-18445360D01*
X13827091Y-18473932D01*
X13827091Y-18631074D01*
X13969948Y-18631074D02*
X13969948Y-18431074D01*
X13969948Y-18459646D02*
X13984234Y-18445360D01*
X14012806Y-18431074D01*
X14055663Y-18431074D01*
X14084234Y-18445360D01*
X14098520Y-18473932D01*
X14098520Y-18631074D01*
X14098520Y-18473932D02*
X14112806Y-18445360D01*
X14141377Y-18431074D01*
X14184234Y-18431074D01*
X14212806Y-18445360D01*
X14227091Y-18473932D01*
X14227091Y-18631074D01*
X14812806Y-18316789D02*
X14555663Y-18702503D01*
X15198520Y-18331074D02*
X15227091Y-18331074D01*
X15255663Y-18345360D01*
X15269948Y-18359646D01*
X15284234Y-18388217D01*
X15298520Y-18445360D01*
X15298520Y-18516789D01*
X15284234Y-18573932D01*
X15269948Y-18602503D01*
X15255663Y-18616789D01*
X15227091Y-18631074D01*
X15198520Y-18631074D01*
X15169948Y-18616789D01*
X15155663Y-18602503D01*
X15141377Y-18573932D01*
X15127091Y-18516789D01*
X15127091Y-18445360D01*
X15141377Y-18388217D01*
X15155663Y-18359646D01*
X15169948Y-18345360D01*
X15198520Y-18331074D01*
X15427091Y-18602503D02*
X15441377Y-18616789D01*
X15427091Y-18631074D01*
X15412806Y-18616789D01*
X15427091Y-18602503D01*
X15427091Y-18631074D01*
X15627091Y-18331074D02*
X15655663Y-18331074D01*
X15684234Y-18345360D01*
X15698520Y-18359646D01*
X15712806Y-18388217D01*
X15727091Y-18445360D01*
X15727091Y-18516789D01*
X15712806Y-18573932D01*
X15698520Y-18602503D01*
X15684234Y-18616789D01*
X15655663Y-18631074D01*
X15627091Y-18631074D01*
X15598520Y-18616789D01*
X15584234Y-18602503D01*
X15569948Y-18573932D01*
X15555663Y-18516789D01*
X15555663Y-18445360D01*
X15569948Y-18388217D01*
X15584234Y-18359646D01*
X15598520Y-18345360D01*
X15627091Y-18331074D01*
X16012806Y-18631074D02*
X15841377Y-18631074D01*
X15927091Y-18631074D02*
X15927091Y-18331074D01*
X15898520Y-18373932D01*
X15869948Y-18402503D01*
X15841377Y-18416789D01*
X16269948Y-18331074D02*
X16212806Y-18331074D01*
X16184234Y-18345360D01*
X16169948Y-18359646D01*
X16141377Y-18402503D01*
X16127091Y-18459646D01*
X16127091Y-18573932D01*
X16141377Y-18602503D01*
X16155663Y-18616789D01*
X16184234Y-18631074D01*
X16241377Y-18631074D01*
X16269948Y-18616789D01*
X16284234Y-18602503D01*
X16298520Y-18573932D01*
X16298520Y-18502503D01*
X16284234Y-18473932D01*
X16269948Y-18459646D01*
X16241377Y-18445360D01*
X16184234Y-18445360D01*
X16155663Y-18459646D01*
X16141377Y-18473932D01*
X16127091Y-18502503D01*
X16412806Y-18331074D02*
X16412806Y-18388217D01*
X16527091Y-18331074D02*
X16527091Y-18388217D01*
X16969948Y-18745360D02*
X16955663Y-18731074D01*
X16927091Y-18688217D01*
X16912806Y-18659646D01*
X16898520Y-18616789D01*
X16884234Y-18545360D01*
X16884234Y-18488217D01*
X16898520Y-18416789D01*
X16912806Y-18373932D01*
X16927091Y-18345360D01*
X16955663Y-18302503D01*
X16969948Y-18288217D01*
X17055663Y-18331074D02*
X17255663Y-18331074D01*
X17127091Y-18631074D01*
X17598520Y-18631074D02*
X17598520Y-18331074D01*
X17727091Y-18631074D02*
X17727091Y-18473932D01*
X17712806Y-18445360D01*
X17684234Y-18431074D01*
X17641377Y-18431074D01*
X17612806Y-18445360D01*
X17598520Y-18459646D01*
X17912806Y-18631074D02*
X17884234Y-18616789D01*
X17869948Y-18602503D01*
X17855663Y-18573932D01*
X17855663Y-18488217D01*
X17869948Y-18459646D01*
X17884234Y-18445360D01*
X17912806Y-18431074D01*
X17955663Y-18431074D01*
X17984234Y-18445360D01*
X17998520Y-18459646D01*
X18012806Y-18488217D01*
X18012806Y-18573932D01*
X17998520Y-18602503D01*
X17984234Y-18616789D01*
X17955663Y-18631074D01*
X17912806Y-18631074D01*
X18184234Y-18631074D02*
X18155663Y-18616789D01*
X18141377Y-18588217D01*
X18141377Y-18331074D01*
X18412806Y-18616789D02*
X18384234Y-18631074D01*
X18327091Y-18631074D01*
X18298520Y-18616789D01*
X18284234Y-18588217D01*
X18284234Y-18473932D01*
X18298520Y-18445360D01*
X18327091Y-18431074D01*
X18384234Y-18431074D01*
X18412806Y-18445360D01*
X18427091Y-18473932D01*
X18427091Y-18502503D01*
X18284234Y-18531074D01*
X18541377Y-18616789D02*
X18569948Y-18631074D01*
X18627091Y-18631074D01*
X18655663Y-18616789D01*
X18669948Y-18588217D01*
X18669948Y-18573932D01*
X18655663Y-18545360D01*
X18627091Y-18531074D01*
X18584234Y-18531074D01*
X18555663Y-18516789D01*
X18541377Y-18488217D01*
X18541377Y-18473932D01*
X18555663Y-18445360D01*
X18584234Y-18431074D01*
X18627091Y-18431074D01*
X18655663Y-18445360D01*
X18769948Y-18745360D02*
X18784234Y-18731074D01*
X18812806Y-18688217D01*
X18827091Y-18659646D01*
X18841377Y-18616789D01*
X18855663Y-18545360D01*
X18855663Y-18488217D01*
X18841377Y-18416789D01*
X18827091Y-18373932D01*
X18812806Y-18345360D01*
X18784234Y-18302503D01*
X18769948Y-18288217D01*
X12263440Y-18911440D02*
X12283520Y-18891360D01*
X12263440Y-18871280D01*
X12243360Y-18891360D01*
X12263440Y-18911440D01*
X12627091Y-18727074D02*
X12655663Y-18727074D01*
X12684234Y-18741360D01*
X12698520Y-18755646D01*
X12712806Y-18784217D01*
X12727091Y-18841360D01*
X12727091Y-18912789D01*
X12712806Y-18969932D01*
X12698520Y-18998503D01*
X12684234Y-19012789D01*
X12655663Y-19027074D01*
X12627091Y-19027074D01*
X12598520Y-19012789D01*
X12584234Y-18998503D01*
X12569948Y-18969932D01*
X12555663Y-18912789D01*
X12555663Y-18841360D01*
X12569948Y-18784217D01*
X12584234Y-18755646D01*
X12598520Y-18741360D01*
X12627091Y-18727074D01*
X12855663Y-18998503D02*
X12869948Y-19012789D01*
X12855663Y-19027074D01*
X12841377Y-19012789D01*
X12855663Y-18998503D01*
X12855663Y-19027074D01*
X13127091Y-18827074D02*
X13127091Y-19027074D01*
X13055663Y-18712789D02*
X12984234Y-18927074D01*
X13169948Y-18927074D01*
X13341377Y-18727074D02*
X13369948Y-18727074D01*
X13398520Y-18741360D01*
X13412806Y-18755646D01*
X13427091Y-18784217D01*
X13441377Y-18841360D01*
X13441377Y-18912789D01*
X13427091Y-18969932D01*
X13412806Y-18998503D01*
X13398520Y-19012789D01*
X13369948Y-19027074D01*
X13341377Y-19027074D01*
X13312806Y-19012789D01*
X13298520Y-18998503D01*
X13284234Y-18969932D01*
X13269948Y-18912789D01*
X13269948Y-18841360D01*
X13284234Y-18784217D01*
X13298520Y-18755646D01*
X13312806Y-18741360D01*
X13341377Y-18727074D01*
X13569948Y-19027074D02*
X13569948Y-18827074D01*
X13569948Y-18855646D02*
X13584234Y-18841360D01*
X13612806Y-18827074D01*
X13655663Y-18827074D01*
X13684234Y-18841360D01*
X13698520Y-18869932D01*
X13698520Y-19027074D01*
X13698520Y-18869932D02*
X13712806Y-18841360D01*
X13741377Y-18827074D01*
X13784234Y-18827074D01*
X13812806Y-18841360D01*
X13827091Y-18869932D01*
X13827091Y-19027074D01*
X13969948Y-19027074D02*
X13969948Y-18827074D01*
X13969948Y-18855646D02*
X13984234Y-18841360D01*
X14012806Y-18827074D01*
X14055663Y-18827074D01*
X14084234Y-18841360D01*
X14098520Y-18869932D01*
X14098520Y-19027074D01*
X14098520Y-18869932D02*
X14112806Y-18841360D01*
X14141377Y-18827074D01*
X14184234Y-18827074D01*
X14212806Y-18841360D01*
X14227091Y-18869932D01*
X14227091Y-19027074D01*
X14812806Y-18712789D02*
X14555663Y-19098503D01*
X15198520Y-18727074D02*
X15227091Y-18727074D01*
X15255663Y-18741360D01*
X15269948Y-18755646D01*
X15284234Y-18784217D01*
X15298520Y-18841360D01*
X15298520Y-18912789D01*
X15284234Y-18969932D01*
X15269948Y-18998503D01*
X15255663Y-19012789D01*
X15227091Y-19027074D01*
X15198520Y-19027074D01*
X15169948Y-19012789D01*
X15155663Y-18998503D01*
X15141377Y-18969932D01*
X15127091Y-18912789D01*
X15127091Y-18841360D01*
X15141377Y-18784217D01*
X15155663Y-18755646D01*
X15169948Y-18741360D01*
X15198520Y-18727074D01*
X15427091Y-18998503D02*
X15441377Y-19012789D01*
X15427091Y-19027074D01*
X15412806Y-19012789D01*
X15427091Y-18998503D01*
X15427091Y-19027074D01*
X15627091Y-18727074D02*
X15655663Y-18727074D01*
X15684234Y-18741360D01*
X15698520Y-18755646D01*
X15712806Y-18784217D01*
X15727091Y-18841360D01*
X15727091Y-18912789D01*
X15712806Y-18969932D01*
X15698520Y-18998503D01*
X15684234Y-19012789D01*
X15655663Y-19027074D01*
X15627091Y-19027074D01*
X15598520Y-19012789D01*
X15584234Y-18998503D01*
X15569948Y-18969932D01*
X15555663Y-18912789D01*
X15555663Y-18841360D01*
X15569948Y-18784217D01*
X15584234Y-18755646D01*
X15598520Y-18741360D01*
X15627091Y-18727074D01*
X16012806Y-19027074D02*
X15841377Y-19027074D01*
X15927091Y-19027074D02*
X15927091Y-18727074D01*
X15898520Y-18769932D01*
X15869948Y-18798503D01*
X15841377Y-18812789D01*
X16269948Y-18727074D02*
X16212806Y-18727074D01*
X16184234Y-18741360D01*
X16169948Y-18755646D01*
X16141377Y-18798503D01*
X16127091Y-18855646D01*
X16127091Y-18969932D01*
X16141377Y-18998503D01*
X16155663Y-19012789D01*
X16184234Y-19027074D01*
X16241377Y-19027074D01*
X16269948Y-19012789D01*
X16284234Y-18998503D01*
X16298520Y-18969932D01*
X16298520Y-18898503D01*
X16284234Y-18869932D01*
X16269948Y-18855646D01*
X16241377Y-18841360D01*
X16184234Y-18841360D01*
X16155663Y-18855646D01*
X16141377Y-18869932D01*
X16127091Y-18898503D01*
X16412806Y-18727074D02*
X16412806Y-18784217D01*
X16527091Y-18727074D02*
X16527091Y-18784217D01*
X16969948Y-19141360D02*
X16955663Y-19127074D01*
X16927091Y-19084217D01*
X16912806Y-19055646D01*
X16898520Y-19012789D01*
X16884234Y-18941360D01*
X16884234Y-18884217D01*
X16898520Y-18812789D01*
X16912806Y-18769932D01*
X16927091Y-18741360D01*
X16955663Y-18698503D01*
X16969948Y-18684217D01*
X17069948Y-18755646D02*
X17084234Y-18741360D01*
X17112806Y-18727074D01*
X17184234Y-18727074D01*
X17212806Y-18741360D01*
X17227091Y-18755646D01*
X17241377Y-18784217D01*
X17241377Y-18812789D01*
X17227091Y-18855646D01*
X17055663Y-19027074D01*
X17241377Y-19027074D01*
X17598520Y-19027074D02*
X17598520Y-18727074D01*
X17727091Y-19027074D02*
X17727091Y-18869932D01*
X17712806Y-18841360D01*
X17684234Y-18827074D01*
X17641377Y-18827074D01*
X17612806Y-18841360D01*
X17598520Y-18855646D01*
X17912806Y-19027074D02*
X17884234Y-19012789D01*
X17869948Y-18998503D01*
X17855663Y-18969932D01*
X17855663Y-18884217D01*
X17869948Y-18855646D01*
X17884234Y-18841360D01*
X17912806Y-18827074D01*
X17955663Y-18827074D01*
X17984234Y-18841360D01*
X17998520Y-18855646D01*
X18012806Y-18884217D01*
X18012806Y-18969932D01*
X17998520Y-18998503D01*
X17984234Y-19012789D01*
X17955663Y-19027074D01*
X17912806Y-19027074D01*
X18184234Y-19027074D02*
X18155663Y-19012789D01*
X18141377Y-18984217D01*
X18141377Y-18727074D01*
X18412806Y-19012789D02*
X18384234Y-19027074D01*
X18327091Y-19027074D01*
X18298520Y-19012789D01*
X18284234Y-18984217D01*
X18284234Y-18869932D01*
X18298520Y-18841360D01*
X18327091Y-18827074D01*
X18384234Y-18827074D01*
X18412806Y-18841360D01*
X18427091Y-18869932D01*
X18427091Y-18898503D01*
X18284234Y-18927074D01*
X18541377Y-19012789D02*
X18569948Y-19027074D01*
X18627091Y-19027074D01*
X18655663Y-19012789D01*
X18669948Y-18984217D01*
X18669948Y-18969932D01*
X18655663Y-18941360D01*
X18627091Y-18927074D01*
X18584234Y-18927074D01*
X18555663Y-18912789D01*
X18541377Y-18884217D01*
X18541377Y-18869932D01*
X18555663Y-18841360D01*
X18584234Y-18827074D01*
X18627091Y-18827074D01*
X18655663Y-18841360D01*
X18769948Y-19141360D02*
X18784234Y-19127074D01*
X18812806Y-19084217D01*
X18827091Y-19055646D01*
X18841377Y-19012789D01*
X18855663Y-18941360D01*
X18855663Y-18884217D01*
X18841377Y-18812789D01*
X18827091Y-18769932D01*
X18812806Y-18741360D01*
X18784234Y-18698503D01*
X18769948Y-18684217D01*
X12242880Y-19267040D02*
X12283520Y-19307680D01*
X12283520Y-19267040D02*
X12242880Y-19307680D01*
X12283520Y-19287360D02*
G75*
G03*
X12283520Y-19287360I-20320J0D01*
G01*
X12627091Y-19123074D02*
X12655663Y-19123074D01*
X12684234Y-19137360D01*
X12698520Y-19151646D01*
X12712806Y-19180217D01*
X12727091Y-19237360D01*
X12727091Y-19308789D01*
X12712806Y-19365932D01*
X12698520Y-19394503D01*
X12684234Y-19408789D01*
X12655663Y-19423074D01*
X12627091Y-19423074D01*
X12598520Y-19408789D01*
X12584234Y-19394503D01*
X12569948Y-19365932D01*
X12555663Y-19308789D01*
X12555663Y-19237360D01*
X12569948Y-19180217D01*
X12584234Y-19151646D01*
X12598520Y-19137360D01*
X12627091Y-19123074D01*
X12855663Y-19394503D02*
X12869948Y-19408789D01*
X12855663Y-19423074D01*
X12841377Y-19408789D01*
X12855663Y-19394503D01*
X12855663Y-19423074D01*
X13127091Y-19223074D02*
X13127091Y-19423074D01*
X13055663Y-19108789D02*
X12984234Y-19323074D01*
X13169948Y-19323074D01*
X13441377Y-19423074D02*
X13269948Y-19423074D01*
X13355663Y-19423074D02*
X13355663Y-19123074D01*
X13327091Y-19165932D01*
X13298520Y-19194503D01*
X13269948Y-19208789D01*
X13569948Y-19423074D02*
X13569948Y-19223074D01*
X13569948Y-19251646D02*
X13584234Y-19237360D01*
X13612806Y-19223074D01*
X13655663Y-19223074D01*
X13684234Y-19237360D01*
X13698520Y-19265932D01*
X13698520Y-19423074D01*
X13698520Y-19265932D02*
X13712806Y-19237360D01*
X13741377Y-19223074D01*
X13784234Y-19223074D01*
X13812806Y-19237360D01*
X13827091Y-19265932D01*
X13827091Y-19423074D01*
X13969948Y-19423074D02*
X13969948Y-19223074D01*
X13969948Y-19251646D02*
X13984234Y-19237360D01*
X14012806Y-19223074D01*
X14055663Y-19223074D01*
X14084234Y-19237360D01*
X14098520Y-19265932D01*
X14098520Y-19423074D01*
X14098520Y-19265932D02*
X14112806Y-19237360D01*
X14141377Y-19223074D01*
X14184234Y-19223074D01*
X14212806Y-19237360D01*
X14227091Y-19265932D01*
X14227091Y-19423074D01*
X14812806Y-19108789D02*
X14555663Y-19494503D01*
X15198520Y-19123074D02*
X15227091Y-19123074D01*
X15255663Y-19137360D01*
X15269948Y-19151646D01*
X15284234Y-19180217D01*
X15298520Y-19237360D01*
X15298520Y-19308789D01*
X15284234Y-19365932D01*
X15269948Y-19394503D01*
X15255663Y-19408789D01*
X15227091Y-19423074D01*
X15198520Y-19423074D01*
X15169948Y-19408789D01*
X15155663Y-19394503D01*
X15141377Y-19365932D01*
X15127091Y-19308789D01*
X15127091Y-19237360D01*
X15141377Y-19180217D01*
X15155663Y-19151646D01*
X15169948Y-19137360D01*
X15198520Y-19123074D01*
X15427091Y-19394503D02*
X15441377Y-19408789D01*
X15427091Y-19423074D01*
X15412806Y-19408789D01*
X15427091Y-19394503D01*
X15427091Y-19423074D01*
X15627091Y-19123074D02*
X15655663Y-19123074D01*
X15684234Y-19137360D01*
X15698520Y-19151646D01*
X15712806Y-19180217D01*
X15727091Y-19237360D01*
X15727091Y-19308789D01*
X15712806Y-19365932D01*
X15698520Y-19394503D01*
X15684234Y-19408789D01*
X15655663Y-19423074D01*
X15627091Y-19423074D01*
X15598520Y-19408789D01*
X15584234Y-19394503D01*
X15569948Y-19365932D01*
X15555663Y-19308789D01*
X15555663Y-19237360D01*
X15569948Y-19180217D01*
X15584234Y-19151646D01*
X15598520Y-19137360D01*
X15627091Y-19123074D01*
X16012806Y-19423074D02*
X15841377Y-19423074D01*
X15927091Y-19423074D02*
X15927091Y-19123074D01*
X15898520Y-19165932D01*
X15869948Y-19194503D01*
X15841377Y-19208789D01*
X16269948Y-19123074D02*
X16212806Y-19123074D01*
X16184234Y-19137360D01*
X16169948Y-19151646D01*
X16141377Y-19194503D01*
X16127091Y-19251646D01*
X16127091Y-19365932D01*
X16141377Y-19394503D01*
X16155663Y-19408789D01*
X16184234Y-19423074D01*
X16241377Y-19423074D01*
X16269948Y-19408789D01*
X16284234Y-19394503D01*
X16298520Y-19365932D01*
X16298520Y-19294503D01*
X16284234Y-19265932D01*
X16269948Y-19251646D01*
X16241377Y-19237360D01*
X16184234Y-19237360D01*
X16155663Y-19251646D01*
X16141377Y-19265932D01*
X16127091Y-19294503D01*
X16412806Y-19123074D02*
X16412806Y-19180217D01*
X16527091Y-19123074D02*
X16527091Y-19180217D01*
X16969948Y-19537360D02*
X16955663Y-19523074D01*
X16927091Y-19480217D01*
X16912806Y-19451646D01*
X16898520Y-19408789D01*
X16884234Y-19337360D01*
X16884234Y-19280217D01*
X16898520Y-19208789D01*
X16912806Y-19165932D01*
X16927091Y-19137360D01*
X16955663Y-19094503D01*
X16969948Y-19080217D01*
X17069948Y-19151646D02*
X17084234Y-19137360D01*
X17112806Y-19123074D01*
X17184234Y-19123074D01*
X17212806Y-19137360D01*
X17227091Y-19151646D01*
X17241377Y-19180217D01*
X17241377Y-19208789D01*
X17227091Y-19251646D01*
X17055663Y-19423074D01*
X17241377Y-19423074D01*
X17427091Y-19123074D02*
X17455663Y-19123074D01*
X17484234Y-19137360D01*
X17498520Y-19151646D01*
X17512806Y-19180217D01*
X17527091Y-19237360D01*
X17527091Y-19308789D01*
X17512806Y-19365932D01*
X17498520Y-19394503D01*
X17484234Y-19408789D01*
X17455663Y-19423074D01*
X17427091Y-19423074D01*
X17398520Y-19408789D01*
X17384234Y-19394503D01*
X17369948Y-19365932D01*
X17355663Y-19308789D01*
X17355663Y-19237360D01*
X17369948Y-19180217D01*
X17384234Y-19151646D01*
X17398520Y-19137360D01*
X17427091Y-19123074D01*
X17884234Y-19423074D02*
X17884234Y-19123074D01*
X18012806Y-19423074D02*
X18012806Y-19265932D01*
X17998520Y-19237360D01*
X17969948Y-19223074D01*
X17927091Y-19223074D01*
X17898520Y-19237360D01*
X17884234Y-19251646D01*
X18198520Y-19423074D02*
X18169948Y-19408789D01*
X18155663Y-19394503D01*
X18141377Y-19365932D01*
X18141377Y-19280217D01*
X18155663Y-19251646D01*
X18169948Y-19237360D01*
X18198520Y-19223074D01*
X18241377Y-19223074D01*
X18269948Y-19237360D01*
X18284234Y-19251646D01*
X18298520Y-19280217D01*
X18298520Y-19365932D01*
X18284234Y-19394503D01*
X18269948Y-19408789D01*
X18241377Y-19423074D01*
X18198520Y-19423074D01*
X18469948Y-19423074D02*
X18441377Y-19408789D01*
X18427091Y-19380217D01*
X18427091Y-19123074D01*
X18698520Y-19408789D02*
X18669948Y-19423074D01*
X18612806Y-19423074D01*
X18584234Y-19408789D01*
X18569948Y-19380217D01*
X18569948Y-19265932D01*
X18584234Y-19237360D01*
X18612806Y-19223074D01*
X18669948Y-19223074D01*
X18698520Y-19237360D01*
X18712806Y-19265932D01*
X18712806Y-19294503D01*
X18569948Y-19323074D01*
X18827091Y-19408789D02*
X18855663Y-19423074D01*
X18912806Y-19423074D01*
X18941377Y-19408789D01*
X18955663Y-19380217D01*
X18955663Y-19365932D01*
X18941377Y-19337360D01*
X18912806Y-19323074D01*
X18869948Y-19323074D01*
X18841377Y-19308789D01*
X18827091Y-19280217D01*
X18827091Y-19265932D01*
X18841377Y-19237360D01*
X18869948Y-19223074D01*
X18912806Y-19223074D01*
X18941377Y-19237360D01*
X19055663Y-19537360D02*
X19069948Y-19523074D01*
X19098520Y-19480217D01*
X19112806Y-19451646D01*
X19127091Y-19408789D01*
X19141377Y-19337360D01*
X19141377Y-19280217D01*
X19127091Y-19208789D01*
X19112806Y-19165932D01*
X19098520Y-19137360D01*
X19069948Y-19094503D01*
X19055663Y-19080217D01*
X12218520Y-19650860D02*
X12283520Y-19715860D01*
X12283520Y-19650860D02*
X12218520Y-19715860D01*
X12251020Y-19650860D02*
X12251020Y-19715860D01*
X12218520Y-19683360D02*
X12283520Y-19683360D01*
X12627091Y-19519074D02*
X12655663Y-19519074D01*
X12684234Y-19533360D01*
X12698520Y-19547646D01*
X12712806Y-19576217D01*
X12727091Y-19633360D01*
X12727091Y-19704789D01*
X12712806Y-19761932D01*
X12698520Y-19790503D01*
X12684234Y-19804789D01*
X12655663Y-19819074D01*
X12627091Y-19819074D01*
X12598520Y-19804789D01*
X12584234Y-19790503D01*
X12569948Y-19761932D01*
X12555663Y-19704789D01*
X12555663Y-19633360D01*
X12569948Y-19576217D01*
X12584234Y-19547646D01*
X12598520Y-19533360D01*
X12627091Y-19519074D01*
X12855663Y-19790503D02*
X12869948Y-19804789D01*
X12855663Y-19819074D01*
X12841377Y-19804789D01*
X12855663Y-19790503D01*
X12855663Y-19819074D01*
X13127091Y-19519074D02*
X13069948Y-19519074D01*
X13041377Y-19533360D01*
X13027091Y-19547646D01*
X12998520Y-19590503D01*
X12984234Y-19647646D01*
X12984234Y-19761932D01*
X12998520Y-19790503D01*
X13012806Y-19804789D01*
X13041377Y-19819074D01*
X13098520Y-19819074D01*
X13127091Y-19804789D01*
X13141377Y-19790503D01*
X13155663Y-19761932D01*
X13155663Y-19690503D01*
X13141377Y-19661932D01*
X13127091Y-19647646D01*
X13098520Y-19633360D01*
X13041377Y-19633360D01*
X13012806Y-19647646D01*
X12998520Y-19661932D01*
X12984234Y-19690503D01*
X13427091Y-19519074D02*
X13284234Y-19519074D01*
X13269948Y-19661932D01*
X13284234Y-19647646D01*
X13312806Y-19633360D01*
X13384234Y-19633360D01*
X13412806Y-19647646D01*
X13427091Y-19661932D01*
X13441377Y-19690503D01*
X13441377Y-19761932D01*
X13427091Y-19790503D01*
X13412806Y-19804789D01*
X13384234Y-19819074D01*
X13312806Y-19819074D01*
X13284234Y-19804789D01*
X13269948Y-19790503D01*
X13569948Y-19819074D02*
X13569948Y-19619074D01*
X13569948Y-19647646D02*
X13584234Y-19633360D01*
X13612806Y-19619074D01*
X13655663Y-19619074D01*
X13684234Y-19633360D01*
X13698520Y-19661932D01*
X13698520Y-19819074D01*
X13698520Y-19661932D02*
X13712806Y-19633360D01*
X13741377Y-19619074D01*
X13784234Y-19619074D01*
X13812806Y-19633360D01*
X13827091Y-19661932D01*
X13827091Y-19819074D01*
X13969948Y-19819074D02*
X13969948Y-19619074D01*
X13969948Y-19647646D02*
X13984234Y-19633360D01*
X14012806Y-19619074D01*
X14055663Y-19619074D01*
X14084234Y-19633360D01*
X14098520Y-19661932D01*
X14098520Y-19819074D01*
X14098520Y-19661932D02*
X14112806Y-19633360D01*
X14141377Y-19619074D01*
X14184234Y-19619074D01*
X14212806Y-19633360D01*
X14227091Y-19661932D01*
X14227091Y-19819074D01*
X14812806Y-19504789D02*
X14555663Y-19890503D01*
X15198520Y-19519074D02*
X15227091Y-19519074D01*
X15255663Y-19533360D01*
X15269948Y-19547646D01*
X15284234Y-19576217D01*
X15298520Y-19633360D01*
X15298520Y-19704789D01*
X15284234Y-19761932D01*
X15269948Y-19790503D01*
X15255663Y-19804789D01*
X15227091Y-19819074D01*
X15198520Y-19819074D01*
X15169948Y-19804789D01*
X15155663Y-19790503D01*
X15141377Y-19761932D01*
X15127091Y-19704789D01*
X15127091Y-19633360D01*
X15141377Y-19576217D01*
X15155663Y-19547646D01*
X15169948Y-19533360D01*
X15198520Y-19519074D01*
X15427091Y-19790503D02*
X15441377Y-19804789D01*
X15427091Y-19819074D01*
X15412806Y-19804789D01*
X15427091Y-19790503D01*
X15427091Y-19819074D01*
X15627091Y-19519074D02*
X15655663Y-19519074D01*
X15684234Y-19533360D01*
X15698520Y-19547646D01*
X15712806Y-19576217D01*
X15727091Y-19633360D01*
X15727091Y-19704789D01*
X15712806Y-19761932D01*
X15698520Y-19790503D01*
X15684234Y-19804789D01*
X15655663Y-19819074D01*
X15627091Y-19819074D01*
X15598520Y-19804789D01*
X15584234Y-19790503D01*
X15569948Y-19761932D01*
X15555663Y-19704789D01*
X15555663Y-19633360D01*
X15569948Y-19576217D01*
X15584234Y-19547646D01*
X15598520Y-19533360D01*
X15627091Y-19519074D01*
X15841377Y-19547646D02*
X15855663Y-19533360D01*
X15884234Y-19519074D01*
X15955663Y-19519074D01*
X15984234Y-19533360D01*
X15998520Y-19547646D01*
X16012806Y-19576217D01*
X16012806Y-19604789D01*
X15998520Y-19647646D01*
X15827091Y-19819074D01*
X16012806Y-19819074D01*
X16269948Y-19519074D02*
X16212806Y-19519074D01*
X16184234Y-19533360D01*
X16169948Y-19547646D01*
X16141377Y-19590503D01*
X16127091Y-19647646D01*
X16127091Y-19761932D01*
X16141377Y-19790503D01*
X16155663Y-19804789D01*
X16184234Y-19819074D01*
X16241377Y-19819074D01*
X16269948Y-19804789D01*
X16284234Y-19790503D01*
X16298520Y-19761932D01*
X16298520Y-19690503D01*
X16284234Y-19661932D01*
X16269948Y-19647646D01*
X16241377Y-19633360D01*
X16184234Y-19633360D01*
X16155663Y-19647646D01*
X16141377Y-19661932D01*
X16127091Y-19690503D01*
X16412806Y-19519074D02*
X16412806Y-19576217D01*
X16527091Y-19519074D02*
X16527091Y-19576217D01*
X16969948Y-19933360D02*
X16955663Y-19919074D01*
X16927091Y-19876217D01*
X16912806Y-19847646D01*
X16898520Y-19804789D01*
X16884234Y-19733360D01*
X16884234Y-19676217D01*
X16898520Y-19604789D01*
X16912806Y-19561932D01*
X16927091Y-19533360D01*
X16955663Y-19490503D01*
X16969948Y-19476217D01*
X17141377Y-19519074D02*
X17169948Y-19519074D01*
X17198520Y-19533360D01*
X17212806Y-19547646D01*
X17227091Y-19576217D01*
X17241377Y-19633360D01*
X17241377Y-19704789D01*
X17227091Y-19761932D01*
X17212806Y-19790503D01*
X17198520Y-19804789D01*
X17169948Y-19819074D01*
X17141377Y-19819074D01*
X17112806Y-19804789D01*
X17098520Y-19790503D01*
X17084234Y-19761932D01*
X17069948Y-19704789D01*
X17069948Y-19633360D01*
X17084234Y-19576217D01*
X17098520Y-19547646D01*
X17112806Y-19533360D01*
X17141377Y-19519074D01*
X17598520Y-19819074D02*
X17598520Y-19519074D01*
X17727091Y-19819074D02*
X17727091Y-19661932D01*
X17712806Y-19633360D01*
X17684234Y-19619074D01*
X17641377Y-19619074D01*
X17612806Y-19633360D01*
X17598520Y-19647646D01*
X17912806Y-19819074D02*
X17884234Y-19804789D01*
X17869948Y-19790503D01*
X17855663Y-19761932D01*
X17855663Y-19676217D01*
X17869948Y-19647646D01*
X17884234Y-19633360D01*
X17912806Y-19619074D01*
X17955663Y-19619074D01*
X17984234Y-19633360D01*
X17998520Y-19647646D01*
X18012806Y-19676217D01*
X18012806Y-19761932D01*
X17998520Y-19790503D01*
X17984234Y-19804789D01*
X17955663Y-19819074D01*
X17912806Y-19819074D01*
X18184234Y-19819074D02*
X18155663Y-19804789D01*
X18141377Y-19776217D01*
X18141377Y-19519074D01*
X18412806Y-19804789D02*
X18384234Y-19819074D01*
X18327091Y-19819074D01*
X18298520Y-19804789D01*
X18284234Y-19776217D01*
X18284234Y-19661932D01*
X18298520Y-19633360D01*
X18327091Y-19619074D01*
X18384234Y-19619074D01*
X18412806Y-19633360D01*
X18427091Y-19661932D01*
X18427091Y-19690503D01*
X18284234Y-19719074D01*
X18541377Y-19804789D02*
X18569948Y-19819074D01*
X18627091Y-19819074D01*
X18655663Y-19804789D01*
X18669948Y-19776217D01*
X18669948Y-19761932D01*
X18655663Y-19733360D01*
X18627091Y-19719074D01*
X18584234Y-19719074D01*
X18555663Y-19704789D01*
X18541377Y-19676217D01*
X18541377Y-19661932D01*
X18555663Y-19633360D01*
X18584234Y-19619074D01*
X18627091Y-19619074D01*
X18655663Y-19633360D01*
X19027091Y-19704789D02*
X19255663Y-19704789D01*
X19141377Y-19819074D02*
X19141377Y-19590503D01*
X19612806Y-19547646D02*
X19627091Y-19533360D01*
X19655663Y-19519074D01*
X19727091Y-19519074D01*
X19755663Y-19533360D01*
X19769948Y-19547646D01*
X19784234Y-19576217D01*
X19784234Y-19604789D01*
X19769948Y-19647646D01*
X19598520Y-19819074D01*
X19784234Y-19819074D01*
X20127091Y-19804789D02*
X20155663Y-19819074D01*
X20212806Y-19819074D01*
X20241377Y-19804789D01*
X20255663Y-19776217D01*
X20255663Y-19761932D01*
X20241377Y-19733360D01*
X20212806Y-19719074D01*
X20169948Y-19719074D01*
X20141377Y-19704789D01*
X20127091Y-19676217D01*
X20127091Y-19661932D01*
X20141377Y-19633360D01*
X20169948Y-19619074D01*
X20212806Y-19619074D01*
X20241377Y-19633360D01*
X20427091Y-19819074D02*
X20398520Y-19804789D01*
X20384234Y-19776217D01*
X20384234Y-19519074D01*
X20584234Y-19819074D02*
X20555663Y-19804789D01*
X20541377Y-19790503D01*
X20527091Y-19761932D01*
X20527091Y-19676217D01*
X20541377Y-19647646D01*
X20555663Y-19633360D01*
X20584234Y-19619074D01*
X20627091Y-19619074D01*
X20655663Y-19633360D01*
X20669948Y-19647646D01*
X20684234Y-19676217D01*
X20684234Y-19761932D01*
X20669948Y-19790503D01*
X20655663Y-19804789D01*
X20627091Y-19819074D01*
X20584234Y-19819074D01*
X20769948Y-19619074D02*
X20884234Y-19619074D01*
X20812806Y-19519074D02*
X20812806Y-19776217D01*
X20827091Y-19804789D01*
X20855663Y-19819074D01*
X20884234Y-19819074D01*
X20969948Y-19804789D02*
X20998520Y-19819074D01*
X21055663Y-19819074D01*
X21084234Y-19804789D01*
X21098520Y-19776217D01*
X21098520Y-19761932D01*
X21084234Y-19733360D01*
X21055663Y-19719074D01*
X21012806Y-19719074D01*
X20984234Y-19704789D01*
X20969948Y-19676217D01*
X20969948Y-19661932D01*
X20984234Y-19633360D01*
X21012806Y-19619074D01*
X21055663Y-19619074D01*
X21084234Y-19633360D01*
X21198520Y-19933360D02*
X21212806Y-19919074D01*
X21241377Y-19876217D01*
X21255663Y-19847646D01*
X21269948Y-19804789D01*
X21284234Y-19733360D01*
X21284234Y-19676217D01*
X21269948Y-19604789D01*
X21255663Y-19561932D01*
X21241377Y-19533360D01*
X21212806Y-19490503D01*
X21198520Y-19476217D01*
X12213520Y-20044360D02*
X12283520Y-20114360D01*
X12283520Y-20044360D02*
X12213520Y-20114360D01*
X12273269Y-20104109D02*
X12273269Y-20054611D01*
X12223771Y-20054611D01*
X12223771Y-20104109D01*
X12273269Y-20104109D01*
X12627091Y-19915074D02*
X12655663Y-19915074D01*
X12684234Y-19929360D01*
X12698520Y-19943646D01*
X12712806Y-19972217D01*
X12727091Y-20029360D01*
X12727091Y-20100789D01*
X12712806Y-20157932D01*
X12698520Y-20186503D01*
X12684234Y-20200789D01*
X12655663Y-20215074D01*
X12627091Y-20215074D01*
X12598520Y-20200789D01*
X12584234Y-20186503D01*
X12569948Y-20157932D01*
X12555663Y-20100789D01*
X12555663Y-20029360D01*
X12569948Y-19972217D01*
X12584234Y-19943646D01*
X12598520Y-19929360D01*
X12627091Y-19915074D01*
X12855663Y-20186503D02*
X12869948Y-20200789D01*
X12855663Y-20215074D01*
X12841377Y-20200789D01*
X12855663Y-20186503D01*
X12855663Y-20215074D01*
X12969948Y-19915074D02*
X13169948Y-19915074D01*
X13041377Y-20215074D01*
X13341377Y-19915074D02*
X13369948Y-19915074D01*
X13398520Y-19929360D01*
X13412806Y-19943646D01*
X13427091Y-19972217D01*
X13441377Y-20029360D01*
X13441377Y-20100789D01*
X13427091Y-20157932D01*
X13412806Y-20186503D01*
X13398520Y-20200789D01*
X13369948Y-20215074D01*
X13341377Y-20215074D01*
X13312806Y-20200789D01*
X13298520Y-20186503D01*
X13284234Y-20157932D01*
X13269948Y-20100789D01*
X13269948Y-20029360D01*
X13284234Y-19972217D01*
X13298520Y-19943646D01*
X13312806Y-19929360D01*
X13341377Y-19915074D01*
X13569948Y-20215074D02*
X13569948Y-20015074D01*
X13569948Y-20043646D02*
X13584234Y-20029360D01*
X13612806Y-20015074D01*
X13655663Y-20015074D01*
X13684234Y-20029360D01*
X13698520Y-20057932D01*
X13698520Y-20215074D01*
X13698520Y-20057932D02*
X13712806Y-20029360D01*
X13741377Y-20015074D01*
X13784234Y-20015074D01*
X13812806Y-20029360D01*
X13827091Y-20057932D01*
X13827091Y-20215074D01*
X13969948Y-20215074D02*
X13969948Y-20015074D01*
X13969948Y-20043646D02*
X13984234Y-20029360D01*
X14012806Y-20015074D01*
X14055663Y-20015074D01*
X14084234Y-20029360D01*
X14098520Y-20057932D01*
X14098520Y-20215074D01*
X14098520Y-20057932D02*
X14112806Y-20029360D01*
X14141377Y-20015074D01*
X14184234Y-20015074D01*
X14212806Y-20029360D01*
X14227091Y-20057932D01*
X14227091Y-20215074D01*
X14812806Y-19900789D02*
X14555663Y-20286503D01*
X15198520Y-19915074D02*
X15227091Y-19915074D01*
X15255663Y-19929360D01*
X15269948Y-19943646D01*
X15284234Y-19972217D01*
X15298520Y-20029360D01*
X15298520Y-20100789D01*
X15284234Y-20157932D01*
X15269948Y-20186503D01*
X15255663Y-20200789D01*
X15227091Y-20215074D01*
X15198520Y-20215074D01*
X15169948Y-20200789D01*
X15155663Y-20186503D01*
X15141377Y-20157932D01*
X15127091Y-20100789D01*
X15127091Y-20029360D01*
X15141377Y-19972217D01*
X15155663Y-19943646D01*
X15169948Y-19929360D01*
X15198520Y-19915074D01*
X15427091Y-20186503D02*
X15441377Y-20200789D01*
X15427091Y-20215074D01*
X15412806Y-20200789D01*
X15427091Y-20186503D01*
X15427091Y-20215074D01*
X15627091Y-19915074D02*
X15655663Y-19915074D01*
X15684234Y-19929360D01*
X15698520Y-19943646D01*
X15712806Y-19972217D01*
X15727091Y-20029360D01*
X15727091Y-20100789D01*
X15712806Y-20157932D01*
X15698520Y-20186503D01*
X15684234Y-20200789D01*
X15655663Y-20215074D01*
X15627091Y-20215074D01*
X15598520Y-20200789D01*
X15584234Y-20186503D01*
X15569948Y-20157932D01*
X15555663Y-20100789D01*
X15555663Y-20029360D01*
X15569948Y-19972217D01*
X15584234Y-19943646D01*
X15598520Y-19929360D01*
X15627091Y-19915074D01*
X15841377Y-19943646D02*
X15855663Y-19929360D01*
X15884234Y-19915074D01*
X15955663Y-19915074D01*
X15984234Y-19929360D01*
X15998520Y-19943646D01*
X16012806Y-19972217D01*
X16012806Y-20000789D01*
X15998520Y-20043646D01*
X15827091Y-20215074D01*
X16012806Y-20215074D01*
X16184234Y-20043646D02*
X16155663Y-20029360D01*
X16141377Y-20015074D01*
X16127091Y-19986503D01*
X16127091Y-19972217D01*
X16141377Y-19943646D01*
X16155663Y-19929360D01*
X16184234Y-19915074D01*
X16241377Y-19915074D01*
X16269948Y-19929360D01*
X16284234Y-19943646D01*
X16298520Y-19972217D01*
X16298520Y-19986503D01*
X16284234Y-20015074D01*
X16269948Y-20029360D01*
X16241377Y-20043646D01*
X16184234Y-20043646D01*
X16155663Y-20057932D01*
X16141377Y-20072217D01*
X16127091Y-20100789D01*
X16127091Y-20157932D01*
X16141377Y-20186503D01*
X16155663Y-20200789D01*
X16184234Y-20215074D01*
X16241377Y-20215074D01*
X16269948Y-20200789D01*
X16284234Y-20186503D01*
X16298520Y-20157932D01*
X16298520Y-20100789D01*
X16284234Y-20072217D01*
X16269948Y-20057932D01*
X16241377Y-20043646D01*
X16412806Y-19915074D02*
X16412806Y-19972217D01*
X16527091Y-19915074D02*
X16527091Y-19972217D01*
X16969948Y-20329360D02*
X16955663Y-20315074D01*
X16927091Y-20272217D01*
X16912806Y-20243646D01*
X16898520Y-20200789D01*
X16884234Y-20129360D01*
X16884234Y-20072217D01*
X16898520Y-20000789D01*
X16912806Y-19957932D01*
X16927091Y-19929360D01*
X16955663Y-19886503D01*
X16969948Y-19872217D01*
X17141377Y-19915074D02*
X17169948Y-19915074D01*
X17198520Y-19929360D01*
X17212806Y-19943646D01*
X17227091Y-19972217D01*
X17241377Y-20029360D01*
X17241377Y-20100789D01*
X17227091Y-20157932D01*
X17212806Y-20186503D01*
X17198520Y-20200789D01*
X17169948Y-20215074D01*
X17141377Y-20215074D01*
X17112806Y-20200789D01*
X17098520Y-20186503D01*
X17084234Y-20157932D01*
X17069948Y-20100789D01*
X17069948Y-20029360D01*
X17084234Y-19972217D01*
X17098520Y-19943646D01*
X17112806Y-19929360D01*
X17141377Y-19915074D01*
X17598520Y-20215074D02*
X17598520Y-19915074D01*
X17727091Y-20215074D02*
X17727091Y-20057932D01*
X17712806Y-20029360D01*
X17684234Y-20015074D01*
X17641377Y-20015074D01*
X17612806Y-20029360D01*
X17598520Y-20043646D01*
X17912806Y-20215074D02*
X17884234Y-20200789D01*
X17869948Y-20186503D01*
X17855663Y-20157932D01*
X17855663Y-20072217D01*
X17869948Y-20043646D01*
X17884234Y-20029360D01*
X17912806Y-20015074D01*
X17955663Y-20015074D01*
X17984234Y-20029360D01*
X17998520Y-20043646D01*
X18012806Y-20072217D01*
X18012806Y-20157932D01*
X17998520Y-20186503D01*
X17984234Y-20200789D01*
X17955663Y-20215074D01*
X17912806Y-20215074D01*
X18184234Y-20215074D02*
X18155663Y-20200789D01*
X18141377Y-20172217D01*
X18141377Y-19915074D01*
X18412806Y-20200789D02*
X18384234Y-20215074D01*
X18327091Y-20215074D01*
X18298520Y-20200789D01*
X18284234Y-20172217D01*
X18284234Y-20057932D01*
X18298520Y-20029360D01*
X18327091Y-20015074D01*
X18384234Y-20015074D01*
X18412806Y-20029360D01*
X18427091Y-20057932D01*
X18427091Y-20086503D01*
X18284234Y-20115074D01*
X18541377Y-20200789D02*
X18569948Y-20215074D01*
X18627091Y-20215074D01*
X18655663Y-20200789D01*
X18669948Y-20172217D01*
X18669948Y-20157932D01*
X18655663Y-20129360D01*
X18627091Y-20115074D01*
X18584234Y-20115074D01*
X18555663Y-20100789D01*
X18541377Y-20072217D01*
X18541377Y-20057932D01*
X18555663Y-20029360D01*
X18584234Y-20015074D01*
X18627091Y-20015074D01*
X18655663Y-20029360D01*
X19027091Y-20100789D02*
X19255663Y-20100789D01*
X19141377Y-20215074D02*
X19141377Y-19986503D01*
X19612806Y-19943646D02*
X19627091Y-19929360D01*
X19655663Y-19915074D01*
X19727091Y-19915074D01*
X19755663Y-19929360D01*
X19769948Y-19943646D01*
X19784234Y-19972217D01*
X19784234Y-20000789D01*
X19769948Y-20043646D01*
X19598520Y-20215074D01*
X19784234Y-20215074D01*
X20127091Y-20200789D02*
X20155663Y-20215074D01*
X20212806Y-20215074D01*
X20241377Y-20200789D01*
X20255663Y-20172217D01*
X20255663Y-20157932D01*
X20241377Y-20129360D01*
X20212806Y-20115074D01*
X20169948Y-20115074D01*
X20141377Y-20100789D01*
X20127091Y-20072217D01*
X20127091Y-20057932D01*
X20141377Y-20029360D01*
X20169948Y-20015074D01*
X20212806Y-20015074D01*
X20241377Y-20029360D01*
X20427091Y-20215074D02*
X20398520Y-20200789D01*
X20384234Y-20172217D01*
X20384234Y-19915074D01*
X20584234Y-20215074D02*
X20555663Y-20200789D01*
X20541377Y-20186503D01*
X20527091Y-20157932D01*
X20527091Y-20072217D01*
X20541377Y-20043646D01*
X20555663Y-20029360D01*
X20584234Y-20015074D01*
X20627091Y-20015074D01*
X20655663Y-20029360D01*
X20669948Y-20043646D01*
X20684234Y-20072217D01*
X20684234Y-20157932D01*
X20669948Y-20186503D01*
X20655663Y-20200789D01*
X20627091Y-20215074D01*
X20584234Y-20215074D01*
X20769948Y-20015074D02*
X20884234Y-20015074D01*
X20812806Y-19915074D02*
X20812806Y-20172217D01*
X20827091Y-20200789D01*
X20855663Y-20215074D01*
X20884234Y-20215074D01*
X20969948Y-20200789D02*
X20998520Y-20215074D01*
X21055663Y-20215074D01*
X21084234Y-20200789D01*
X21098520Y-20172217D01*
X21098520Y-20157932D01*
X21084234Y-20129360D01*
X21055663Y-20115074D01*
X21012806Y-20115074D01*
X20984234Y-20100789D01*
X20969948Y-20072217D01*
X20969948Y-20057932D01*
X20984234Y-20029360D01*
X21012806Y-20015074D01*
X21055663Y-20015074D01*
X21084234Y-20029360D01*
X21198520Y-20329360D02*
X21212806Y-20315074D01*
X21241377Y-20272217D01*
X21255663Y-20243646D01*
X21269948Y-20200789D01*
X21284234Y-20129360D01*
X21284234Y-20072217D01*
X21269948Y-20000789D01*
X21255663Y-19957932D01*
X21241377Y-19929360D01*
X21212806Y-19886503D01*
X21198520Y-19872217D01*
X12203520Y-20435360D02*
X12283520Y-20515360D01*
X12283520Y-20435360D02*
X12203520Y-20515360D01*
X12243520Y-20515360D02*
X12283520Y-20475360D01*
X12243520Y-20435360D01*
X12203520Y-20475360D01*
X12243520Y-20515360D01*
X12627091Y-20311074D02*
X12655663Y-20311074D01*
X12684234Y-20325360D01*
X12698520Y-20339646D01*
X12712806Y-20368217D01*
X12727091Y-20425360D01*
X12727091Y-20496789D01*
X12712806Y-20553932D01*
X12698520Y-20582503D01*
X12684234Y-20596789D01*
X12655663Y-20611074D01*
X12627091Y-20611074D01*
X12598520Y-20596789D01*
X12584234Y-20582503D01*
X12569948Y-20553932D01*
X12555663Y-20496789D01*
X12555663Y-20425360D01*
X12569948Y-20368217D01*
X12584234Y-20339646D01*
X12598520Y-20325360D01*
X12627091Y-20311074D01*
X12855663Y-20582503D02*
X12869948Y-20596789D01*
X12855663Y-20611074D01*
X12841377Y-20596789D01*
X12855663Y-20582503D01*
X12855663Y-20611074D01*
X13041377Y-20439646D02*
X13012806Y-20425360D01*
X12998520Y-20411074D01*
X12984234Y-20382503D01*
X12984234Y-20368217D01*
X12998520Y-20339646D01*
X13012806Y-20325360D01*
X13041377Y-20311074D01*
X13098520Y-20311074D01*
X13127091Y-20325360D01*
X13141377Y-20339646D01*
X13155663Y-20368217D01*
X13155663Y-20382503D01*
X13141377Y-20411074D01*
X13127091Y-20425360D01*
X13098520Y-20439646D01*
X13041377Y-20439646D01*
X13012806Y-20453932D01*
X12998520Y-20468217D01*
X12984234Y-20496789D01*
X12984234Y-20553932D01*
X12998520Y-20582503D01*
X13012806Y-20596789D01*
X13041377Y-20611074D01*
X13098520Y-20611074D01*
X13127091Y-20596789D01*
X13141377Y-20582503D01*
X13155663Y-20553932D01*
X13155663Y-20496789D01*
X13141377Y-20468217D01*
X13127091Y-20453932D01*
X13098520Y-20439646D01*
X13341377Y-20311074D02*
X13369948Y-20311074D01*
X13398520Y-20325360D01*
X13412806Y-20339646D01*
X13427091Y-20368217D01*
X13441377Y-20425360D01*
X13441377Y-20496789D01*
X13427091Y-20553932D01*
X13412806Y-20582503D01*
X13398520Y-20596789D01*
X13369948Y-20611074D01*
X13341377Y-20611074D01*
X13312806Y-20596789D01*
X13298520Y-20582503D01*
X13284234Y-20553932D01*
X13269948Y-20496789D01*
X13269948Y-20425360D01*
X13284234Y-20368217D01*
X13298520Y-20339646D01*
X13312806Y-20325360D01*
X13341377Y-20311074D01*
X13569948Y-20611074D02*
X13569948Y-20411074D01*
X13569948Y-20439646D02*
X13584234Y-20425360D01*
X13612806Y-20411074D01*
X13655663Y-20411074D01*
X13684234Y-20425360D01*
X13698520Y-20453932D01*
X13698520Y-20611074D01*
X13698520Y-20453932D02*
X13712806Y-20425360D01*
X13741377Y-20411074D01*
X13784234Y-20411074D01*
X13812806Y-20425360D01*
X13827091Y-20453932D01*
X13827091Y-20611074D01*
X13969948Y-20611074D02*
X13969948Y-20411074D01*
X13969948Y-20439646D02*
X13984234Y-20425360D01*
X14012806Y-20411074D01*
X14055663Y-20411074D01*
X14084234Y-20425360D01*
X14098520Y-20453932D01*
X14098520Y-20611074D01*
X14098520Y-20453932D02*
X14112806Y-20425360D01*
X14141377Y-20411074D01*
X14184234Y-20411074D01*
X14212806Y-20425360D01*
X14227091Y-20453932D01*
X14227091Y-20611074D01*
X14812806Y-20296789D02*
X14555663Y-20682503D01*
X15198520Y-20311074D02*
X15227091Y-20311074D01*
X15255663Y-20325360D01*
X15269948Y-20339646D01*
X15284234Y-20368217D01*
X15298520Y-20425360D01*
X15298520Y-20496789D01*
X15284234Y-20553932D01*
X15269948Y-20582503D01*
X15255663Y-20596789D01*
X15227091Y-20611074D01*
X15198520Y-20611074D01*
X15169948Y-20596789D01*
X15155663Y-20582503D01*
X15141377Y-20553932D01*
X15127091Y-20496789D01*
X15127091Y-20425360D01*
X15141377Y-20368217D01*
X15155663Y-20339646D01*
X15169948Y-20325360D01*
X15198520Y-20311074D01*
X15427091Y-20582503D02*
X15441377Y-20596789D01*
X15427091Y-20611074D01*
X15412806Y-20596789D01*
X15427091Y-20582503D01*
X15427091Y-20611074D01*
X15627091Y-20311074D02*
X15655663Y-20311074D01*
X15684234Y-20325360D01*
X15698520Y-20339646D01*
X15712806Y-20368217D01*
X15727091Y-20425360D01*
X15727091Y-20496789D01*
X15712806Y-20553932D01*
X15698520Y-20582503D01*
X15684234Y-20596789D01*
X15655663Y-20611074D01*
X15627091Y-20611074D01*
X15598520Y-20596789D01*
X15584234Y-20582503D01*
X15569948Y-20553932D01*
X15555663Y-20496789D01*
X15555663Y-20425360D01*
X15569948Y-20368217D01*
X15584234Y-20339646D01*
X15598520Y-20325360D01*
X15627091Y-20311074D01*
X15827091Y-20311074D02*
X16012806Y-20311074D01*
X15912806Y-20425360D01*
X15955663Y-20425360D01*
X15984234Y-20439646D01*
X15998520Y-20453932D01*
X16012806Y-20482503D01*
X16012806Y-20553932D01*
X15998520Y-20582503D01*
X15984234Y-20596789D01*
X15955663Y-20611074D01*
X15869948Y-20611074D01*
X15841377Y-20596789D01*
X15827091Y-20582503D01*
X16298520Y-20611074D02*
X16127091Y-20611074D01*
X16212806Y-20611074D02*
X16212806Y-20311074D01*
X16184234Y-20353932D01*
X16155663Y-20382503D01*
X16127091Y-20396789D01*
X16412806Y-20311074D02*
X16412806Y-20368217D01*
X16527091Y-20311074D02*
X16527091Y-20368217D01*
X16969948Y-20725360D02*
X16955663Y-20711074D01*
X16927091Y-20668217D01*
X16912806Y-20639646D01*
X16898520Y-20596789D01*
X16884234Y-20525360D01*
X16884234Y-20468217D01*
X16898520Y-20396789D01*
X16912806Y-20353932D01*
X16927091Y-20325360D01*
X16955663Y-20282503D01*
X16969948Y-20268217D01*
X17212806Y-20311074D02*
X17155663Y-20311074D01*
X17127091Y-20325360D01*
X17112806Y-20339646D01*
X17084234Y-20382503D01*
X17069948Y-20439646D01*
X17069948Y-20553932D01*
X17084234Y-20582503D01*
X17098520Y-20596789D01*
X17127091Y-20611074D01*
X17184234Y-20611074D01*
X17212806Y-20596789D01*
X17227091Y-20582503D01*
X17241377Y-20553932D01*
X17241377Y-20482503D01*
X17227091Y-20453932D01*
X17212806Y-20439646D01*
X17184234Y-20425360D01*
X17127091Y-20425360D01*
X17098520Y-20439646D01*
X17084234Y-20453932D01*
X17069948Y-20482503D01*
X17598520Y-20611074D02*
X17598520Y-20311074D01*
X17727091Y-20611074D02*
X17727091Y-20453932D01*
X17712806Y-20425360D01*
X17684234Y-20411074D01*
X17641377Y-20411074D01*
X17612806Y-20425360D01*
X17598520Y-20439646D01*
X17912806Y-20611074D02*
X17884234Y-20596789D01*
X17869948Y-20582503D01*
X17855663Y-20553932D01*
X17855663Y-20468217D01*
X17869948Y-20439646D01*
X17884234Y-20425360D01*
X17912806Y-20411074D01*
X17955663Y-20411074D01*
X17984234Y-20425360D01*
X17998520Y-20439646D01*
X18012806Y-20468217D01*
X18012806Y-20553932D01*
X17998520Y-20582503D01*
X17984234Y-20596789D01*
X17955663Y-20611074D01*
X17912806Y-20611074D01*
X18184234Y-20611074D02*
X18155663Y-20596789D01*
X18141377Y-20568217D01*
X18141377Y-20311074D01*
X18412806Y-20596789D02*
X18384234Y-20611074D01*
X18327091Y-20611074D01*
X18298520Y-20596789D01*
X18284234Y-20568217D01*
X18284234Y-20453932D01*
X18298520Y-20425360D01*
X18327091Y-20411074D01*
X18384234Y-20411074D01*
X18412806Y-20425360D01*
X18427091Y-20453932D01*
X18427091Y-20482503D01*
X18284234Y-20511074D01*
X18541377Y-20596789D02*
X18569948Y-20611074D01*
X18627091Y-20611074D01*
X18655663Y-20596789D01*
X18669948Y-20568217D01*
X18669948Y-20553932D01*
X18655663Y-20525360D01*
X18627091Y-20511074D01*
X18584234Y-20511074D01*
X18555663Y-20496789D01*
X18541377Y-20468217D01*
X18541377Y-20453932D01*
X18555663Y-20425360D01*
X18584234Y-20411074D01*
X18627091Y-20411074D01*
X18655663Y-20425360D01*
X18769948Y-20725360D02*
X18784234Y-20711074D01*
X18812806Y-20668217D01*
X18827091Y-20639646D01*
X18841377Y-20596789D01*
X18855663Y-20525360D01*
X18855663Y-20468217D01*
X18841377Y-20396789D01*
X18827091Y-20353932D01*
X18812806Y-20325360D01*
X18784234Y-20282503D01*
X18769948Y-20268217D01*
X12242880Y-20830720D02*
X12242880Y-20912000D01*
X12202240Y-20871360D02*
X12283520Y-20871360D01*
X12283520Y-20871360D02*
G75*
G03*
X12283520Y-20871360I-40640J0D01*
G01*
X12627091Y-20707074D02*
X12655663Y-20707074D01*
X12684234Y-20721360D01*
X12698520Y-20735646D01*
X12712806Y-20764217D01*
X12727091Y-20821360D01*
X12727091Y-20892789D01*
X12712806Y-20949932D01*
X12698520Y-20978503D01*
X12684234Y-20992789D01*
X12655663Y-21007074D01*
X12627091Y-21007074D01*
X12598520Y-20992789D01*
X12584234Y-20978503D01*
X12569948Y-20949932D01*
X12555663Y-20892789D01*
X12555663Y-20821360D01*
X12569948Y-20764217D01*
X12584234Y-20735646D01*
X12598520Y-20721360D01*
X12627091Y-20707074D01*
X12855663Y-20978503D02*
X12869948Y-20992789D01*
X12855663Y-21007074D01*
X12841377Y-20992789D01*
X12855663Y-20978503D01*
X12855663Y-21007074D01*
X13041377Y-20835646D02*
X13012806Y-20821360D01*
X12998520Y-20807074D01*
X12984234Y-20778503D01*
X12984234Y-20764217D01*
X12998520Y-20735646D01*
X13012806Y-20721360D01*
X13041377Y-20707074D01*
X13098520Y-20707074D01*
X13127091Y-20721360D01*
X13141377Y-20735646D01*
X13155663Y-20764217D01*
X13155663Y-20778503D01*
X13141377Y-20807074D01*
X13127091Y-20821360D01*
X13098520Y-20835646D01*
X13041377Y-20835646D01*
X13012806Y-20849932D01*
X12998520Y-20864217D01*
X12984234Y-20892789D01*
X12984234Y-20949932D01*
X12998520Y-20978503D01*
X13012806Y-20992789D01*
X13041377Y-21007074D01*
X13098520Y-21007074D01*
X13127091Y-20992789D01*
X13141377Y-20978503D01*
X13155663Y-20949932D01*
X13155663Y-20892789D01*
X13141377Y-20864217D01*
X13127091Y-20849932D01*
X13098520Y-20835646D01*
X13441377Y-21007074D02*
X13269948Y-21007074D01*
X13355663Y-21007074D02*
X13355663Y-20707074D01*
X13327091Y-20749932D01*
X13298520Y-20778503D01*
X13269948Y-20792789D01*
X13569948Y-21007074D02*
X13569948Y-20807074D01*
X13569948Y-20835646D02*
X13584234Y-20821360D01*
X13612806Y-20807074D01*
X13655663Y-20807074D01*
X13684234Y-20821360D01*
X13698520Y-20849932D01*
X13698520Y-21007074D01*
X13698520Y-20849932D02*
X13712806Y-20821360D01*
X13741377Y-20807074D01*
X13784234Y-20807074D01*
X13812806Y-20821360D01*
X13827091Y-20849932D01*
X13827091Y-21007074D01*
X13969948Y-21007074D02*
X13969948Y-20807074D01*
X13969948Y-20835646D02*
X13984234Y-20821360D01*
X14012806Y-20807074D01*
X14055663Y-20807074D01*
X14084234Y-20821360D01*
X14098520Y-20849932D01*
X14098520Y-21007074D01*
X14098520Y-20849932D02*
X14112806Y-20821360D01*
X14141377Y-20807074D01*
X14184234Y-20807074D01*
X14212806Y-20821360D01*
X14227091Y-20849932D01*
X14227091Y-21007074D01*
X14812806Y-20692789D02*
X14555663Y-21078503D01*
X15198520Y-20707074D02*
X15227091Y-20707074D01*
X15255663Y-20721360D01*
X15269948Y-20735646D01*
X15284234Y-20764217D01*
X15298520Y-20821360D01*
X15298520Y-20892789D01*
X15284234Y-20949932D01*
X15269948Y-20978503D01*
X15255663Y-20992789D01*
X15227091Y-21007074D01*
X15198520Y-21007074D01*
X15169948Y-20992789D01*
X15155663Y-20978503D01*
X15141377Y-20949932D01*
X15127091Y-20892789D01*
X15127091Y-20821360D01*
X15141377Y-20764217D01*
X15155663Y-20735646D01*
X15169948Y-20721360D01*
X15198520Y-20707074D01*
X15427091Y-20978503D02*
X15441377Y-20992789D01*
X15427091Y-21007074D01*
X15412806Y-20992789D01*
X15427091Y-20978503D01*
X15427091Y-21007074D01*
X15627091Y-20707074D02*
X15655663Y-20707074D01*
X15684234Y-20721360D01*
X15698520Y-20735646D01*
X15712806Y-20764217D01*
X15727091Y-20821360D01*
X15727091Y-20892789D01*
X15712806Y-20949932D01*
X15698520Y-20978503D01*
X15684234Y-20992789D01*
X15655663Y-21007074D01*
X15627091Y-21007074D01*
X15598520Y-20992789D01*
X15584234Y-20978503D01*
X15569948Y-20949932D01*
X15555663Y-20892789D01*
X15555663Y-20821360D01*
X15569948Y-20764217D01*
X15584234Y-20735646D01*
X15598520Y-20721360D01*
X15627091Y-20707074D01*
X15827091Y-20707074D02*
X16012806Y-20707074D01*
X15912806Y-20821360D01*
X15955663Y-20821360D01*
X15984234Y-20835646D01*
X15998520Y-20849932D01*
X16012806Y-20878503D01*
X16012806Y-20949932D01*
X15998520Y-20978503D01*
X15984234Y-20992789D01*
X15955663Y-21007074D01*
X15869948Y-21007074D01*
X15841377Y-20992789D01*
X15827091Y-20978503D01*
X16127091Y-20735646D02*
X16141377Y-20721360D01*
X16169948Y-20707074D01*
X16241377Y-20707074D01*
X16269948Y-20721360D01*
X16284234Y-20735646D01*
X16298520Y-20764217D01*
X16298520Y-20792789D01*
X16284234Y-20835646D01*
X16112806Y-21007074D01*
X16298520Y-21007074D01*
X16412806Y-20707074D02*
X16412806Y-20764217D01*
X16527091Y-20707074D02*
X16527091Y-20764217D01*
X16969948Y-21121360D02*
X16955663Y-21107074D01*
X16927091Y-21064217D01*
X16912806Y-21035646D01*
X16898520Y-20992789D01*
X16884234Y-20921360D01*
X16884234Y-20864217D01*
X16898520Y-20792789D01*
X16912806Y-20749932D01*
X16927091Y-20721360D01*
X16955663Y-20678503D01*
X16969948Y-20664217D01*
X17069948Y-20735646D02*
X17084234Y-20721360D01*
X17112806Y-20707074D01*
X17184234Y-20707074D01*
X17212806Y-20721360D01*
X17227091Y-20735646D01*
X17241377Y-20764217D01*
X17241377Y-20792789D01*
X17227091Y-20835646D01*
X17055663Y-21007074D01*
X17241377Y-21007074D01*
X17598520Y-21007074D02*
X17598520Y-20707074D01*
X17727091Y-21007074D02*
X17727091Y-20849932D01*
X17712806Y-20821360D01*
X17684234Y-20807074D01*
X17641377Y-20807074D01*
X17612806Y-20821360D01*
X17598520Y-20835646D01*
X17912806Y-21007074D02*
X17884234Y-20992789D01*
X17869948Y-20978503D01*
X17855663Y-20949932D01*
X17855663Y-20864217D01*
X17869948Y-20835646D01*
X17884234Y-20821360D01*
X17912806Y-20807074D01*
X17955663Y-20807074D01*
X17984234Y-20821360D01*
X17998520Y-20835646D01*
X18012806Y-20864217D01*
X18012806Y-20949932D01*
X17998520Y-20978503D01*
X17984234Y-20992789D01*
X17955663Y-21007074D01*
X17912806Y-21007074D01*
X18184234Y-21007074D02*
X18155663Y-20992789D01*
X18141377Y-20964217D01*
X18141377Y-20707074D01*
X18412806Y-20992789D02*
X18384234Y-21007074D01*
X18327091Y-21007074D01*
X18298520Y-20992789D01*
X18284234Y-20964217D01*
X18284234Y-20849932D01*
X18298520Y-20821360D01*
X18327091Y-20807074D01*
X18384234Y-20807074D01*
X18412806Y-20821360D01*
X18427091Y-20849932D01*
X18427091Y-20878503D01*
X18284234Y-20907074D01*
X18541377Y-20992789D02*
X18569948Y-21007074D01*
X18627091Y-21007074D01*
X18655663Y-20992789D01*
X18669948Y-20964217D01*
X18669948Y-20949932D01*
X18655663Y-20921360D01*
X18627091Y-20907074D01*
X18584234Y-20907074D01*
X18555663Y-20892789D01*
X18541377Y-20864217D01*
X18541377Y-20849932D01*
X18555663Y-20821360D01*
X18584234Y-20807074D01*
X18627091Y-20807074D01*
X18655663Y-20821360D01*
X18769948Y-21121360D02*
X18784234Y-21107074D01*
X18812806Y-21064217D01*
X18827091Y-21035646D01*
X18841377Y-20992789D01*
X18855663Y-20921360D01*
X18855663Y-20864217D01*
X18841377Y-20792789D01*
X18827091Y-20749932D01*
X18812806Y-20721360D01*
X18784234Y-20678503D01*
X18769948Y-20664217D01*
X12270047Y-21299887D02*
X12270047Y-21234833D01*
X12204993Y-21234833D01*
X12204993Y-21299887D01*
X12270047Y-21299887D01*
X12283520Y-21267360D02*
G75*
G03*
X12283520Y-21267360I-46000J0D01*
G01*
X12627091Y-21103074D02*
X12655663Y-21103074D01*
X12684234Y-21117360D01*
X12698520Y-21131646D01*
X12712806Y-21160217D01*
X12727091Y-21217360D01*
X12727091Y-21288789D01*
X12712806Y-21345932D01*
X12698520Y-21374503D01*
X12684234Y-21388789D01*
X12655663Y-21403074D01*
X12627091Y-21403074D01*
X12598520Y-21388789D01*
X12584234Y-21374503D01*
X12569948Y-21345932D01*
X12555663Y-21288789D01*
X12555663Y-21217360D01*
X12569948Y-21160217D01*
X12584234Y-21131646D01*
X12598520Y-21117360D01*
X12627091Y-21103074D01*
X12855663Y-21374503D02*
X12869948Y-21388789D01*
X12855663Y-21403074D01*
X12841377Y-21388789D01*
X12855663Y-21374503D01*
X12855663Y-21403074D01*
X13012806Y-21403074D02*
X13069948Y-21403074D01*
X13098520Y-21388789D01*
X13112806Y-21374503D01*
X13141377Y-21331646D01*
X13155663Y-21274503D01*
X13155663Y-21160217D01*
X13141377Y-21131646D01*
X13127091Y-21117360D01*
X13098520Y-21103074D01*
X13041377Y-21103074D01*
X13012806Y-21117360D01*
X12998520Y-21131646D01*
X12984234Y-21160217D01*
X12984234Y-21231646D01*
X12998520Y-21260217D01*
X13012806Y-21274503D01*
X13041377Y-21288789D01*
X13098520Y-21288789D01*
X13127091Y-21274503D01*
X13141377Y-21260217D01*
X13155663Y-21231646D01*
X13269948Y-21131646D02*
X13284234Y-21117360D01*
X13312806Y-21103074D01*
X13384234Y-21103074D01*
X13412806Y-21117360D01*
X13427091Y-21131646D01*
X13441377Y-21160217D01*
X13441377Y-21188789D01*
X13427091Y-21231646D01*
X13255663Y-21403074D01*
X13441377Y-21403074D01*
X13569948Y-21403074D02*
X13569948Y-21203074D01*
X13569948Y-21231646D02*
X13584234Y-21217360D01*
X13612806Y-21203074D01*
X13655663Y-21203074D01*
X13684234Y-21217360D01*
X13698520Y-21245932D01*
X13698520Y-21403074D01*
X13698520Y-21245932D02*
X13712806Y-21217360D01*
X13741377Y-21203074D01*
X13784234Y-21203074D01*
X13812806Y-21217360D01*
X13827091Y-21245932D01*
X13827091Y-21403074D01*
X13969948Y-21403074D02*
X13969948Y-21203074D01*
X13969948Y-21231646D02*
X13984234Y-21217360D01*
X14012806Y-21203074D01*
X14055663Y-21203074D01*
X14084234Y-21217360D01*
X14098520Y-21245932D01*
X14098520Y-21403074D01*
X14098520Y-21245932D02*
X14112806Y-21217360D01*
X14141377Y-21203074D01*
X14184234Y-21203074D01*
X14212806Y-21217360D01*
X14227091Y-21245932D01*
X14227091Y-21403074D01*
X14812806Y-21088789D02*
X14555663Y-21474503D01*
X15198520Y-21103074D02*
X15227091Y-21103074D01*
X15255663Y-21117360D01*
X15269948Y-21131646D01*
X15284234Y-21160217D01*
X15298520Y-21217360D01*
X15298520Y-21288789D01*
X15284234Y-21345932D01*
X15269948Y-21374503D01*
X15255663Y-21388789D01*
X15227091Y-21403074D01*
X15198520Y-21403074D01*
X15169948Y-21388789D01*
X15155663Y-21374503D01*
X15141377Y-21345932D01*
X15127091Y-21288789D01*
X15127091Y-21217360D01*
X15141377Y-21160217D01*
X15155663Y-21131646D01*
X15169948Y-21117360D01*
X15198520Y-21103074D01*
X15427091Y-21374503D02*
X15441377Y-21388789D01*
X15427091Y-21403074D01*
X15412806Y-21388789D01*
X15427091Y-21374503D01*
X15427091Y-21403074D01*
X15627091Y-21103074D02*
X15655663Y-21103074D01*
X15684234Y-21117360D01*
X15698520Y-21131646D01*
X15712806Y-21160217D01*
X15727091Y-21217360D01*
X15727091Y-21288789D01*
X15712806Y-21345932D01*
X15698520Y-21374503D01*
X15684234Y-21388789D01*
X15655663Y-21403074D01*
X15627091Y-21403074D01*
X15598520Y-21388789D01*
X15584234Y-21374503D01*
X15569948Y-21345932D01*
X15555663Y-21288789D01*
X15555663Y-21217360D01*
X15569948Y-21160217D01*
X15584234Y-21131646D01*
X15598520Y-21117360D01*
X15627091Y-21103074D01*
X15827091Y-21103074D02*
X16012806Y-21103074D01*
X15912806Y-21217360D01*
X15955663Y-21217360D01*
X15984234Y-21231646D01*
X15998520Y-21245932D01*
X16012806Y-21274503D01*
X16012806Y-21345932D01*
X15998520Y-21374503D01*
X15984234Y-21388789D01*
X15955663Y-21403074D01*
X15869948Y-21403074D01*
X15841377Y-21388789D01*
X15827091Y-21374503D01*
X16269948Y-21103074D02*
X16212806Y-21103074D01*
X16184234Y-21117360D01*
X16169948Y-21131646D01*
X16141377Y-21174503D01*
X16127091Y-21231646D01*
X16127091Y-21345932D01*
X16141377Y-21374503D01*
X16155663Y-21388789D01*
X16184234Y-21403074D01*
X16241377Y-21403074D01*
X16269948Y-21388789D01*
X16284234Y-21374503D01*
X16298520Y-21345932D01*
X16298520Y-21274503D01*
X16284234Y-21245932D01*
X16269948Y-21231646D01*
X16241377Y-21217360D01*
X16184234Y-21217360D01*
X16155663Y-21231646D01*
X16141377Y-21245932D01*
X16127091Y-21274503D01*
X16412806Y-21103074D02*
X16412806Y-21160217D01*
X16527091Y-21103074D02*
X16527091Y-21160217D01*
X16969948Y-21517360D02*
X16955663Y-21503074D01*
X16927091Y-21460217D01*
X16912806Y-21431646D01*
X16898520Y-21388789D01*
X16884234Y-21317360D01*
X16884234Y-21260217D01*
X16898520Y-21188789D01*
X16912806Y-21145932D01*
X16927091Y-21117360D01*
X16955663Y-21074503D01*
X16969948Y-21060217D01*
X17212806Y-21203074D02*
X17212806Y-21403074D01*
X17141377Y-21088789D02*
X17069948Y-21303074D01*
X17255663Y-21303074D01*
X17598520Y-21403074D02*
X17598520Y-21103074D01*
X17727091Y-21403074D02*
X17727091Y-21245932D01*
X17712806Y-21217360D01*
X17684234Y-21203074D01*
X17641377Y-21203074D01*
X17612806Y-21217360D01*
X17598520Y-21231646D01*
X17912806Y-21403074D02*
X17884234Y-21388789D01*
X17869948Y-21374503D01*
X17855663Y-21345932D01*
X17855663Y-21260217D01*
X17869948Y-21231646D01*
X17884234Y-21217360D01*
X17912806Y-21203074D01*
X17955663Y-21203074D01*
X17984234Y-21217360D01*
X17998520Y-21231646D01*
X18012806Y-21260217D01*
X18012806Y-21345932D01*
X17998520Y-21374503D01*
X17984234Y-21388789D01*
X17955663Y-21403074D01*
X17912806Y-21403074D01*
X18184234Y-21403074D02*
X18155663Y-21388789D01*
X18141377Y-21360217D01*
X18141377Y-21103074D01*
X18412806Y-21388789D02*
X18384234Y-21403074D01*
X18327091Y-21403074D01*
X18298520Y-21388789D01*
X18284234Y-21360217D01*
X18284234Y-21245932D01*
X18298520Y-21217360D01*
X18327091Y-21203074D01*
X18384234Y-21203074D01*
X18412806Y-21217360D01*
X18427091Y-21245932D01*
X18427091Y-21274503D01*
X18284234Y-21303074D01*
X18541377Y-21388789D02*
X18569948Y-21403074D01*
X18627091Y-21403074D01*
X18655663Y-21388789D01*
X18669948Y-21360217D01*
X18669948Y-21345932D01*
X18655663Y-21317360D01*
X18627091Y-21303074D01*
X18584234Y-21303074D01*
X18555663Y-21288789D01*
X18541377Y-21260217D01*
X18541377Y-21245932D01*
X18555663Y-21217360D01*
X18584234Y-21203074D01*
X18627091Y-21203074D01*
X18655663Y-21217360D01*
X18769948Y-21517360D02*
X18784234Y-21503074D01*
X18812806Y-21460217D01*
X18827091Y-21431646D01*
X18841377Y-21388789D01*
X18855663Y-21317360D01*
X18855663Y-21260217D01*
X18841377Y-21188789D01*
X18827091Y-21145932D01*
X18812806Y-21117360D01*
X18784234Y-21074503D01*
X18769948Y-21060217D01*
X12233520Y-21713360D02*
X12283520Y-21663360D01*
X12233520Y-21613360D01*
X12183520Y-21663360D01*
X12233520Y-21713360D01*
X12283520Y-21663360D02*
G75*
G03*
X12283520Y-21663360I-50000J0D01*
G01*
X12727091Y-21799074D02*
X12555663Y-21799074D01*
X12641377Y-21799074D02*
X12641377Y-21499074D01*
X12612806Y-21541932D01*
X12584234Y-21570503D01*
X12555663Y-21584789D01*
X12855663Y-21770503D02*
X12869948Y-21784789D01*
X12855663Y-21799074D01*
X12841377Y-21784789D01*
X12855663Y-21770503D01*
X12855663Y-21799074D01*
X13055663Y-21499074D02*
X13084234Y-21499074D01*
X13112806Y-21513360D01*
X13127091Y-21527646D01*
X13141377Y-21556217D01*
X13155663Y-21613360D01*
X13155663Y-21684789D01*
X13141377Y-21741932D01*
X13127091Y-21770503D01*
X13112806Y-21784789D01*
X13084234Y-21799074D01*
X13055663Y-21799074D01*
X13027091Y-21784789D01*
X13012806Y-21770503D01*
X12998520Y-21741932D01*
X12984234Y-21684789D01*
X12984234Y-21613360D01*
X12998520Y-21556217D01*
X13012806Y-21527646D01*
X13027091Y-21513360D01*
X13055663Y-21499074D01*
X13341377Y-21499074D02*
X13369948Y-21499074D01*
X13398520Y-21513360D01*
X13412806Y-21527646D01*
X13427091Y-21556217D01*
X13441377Y-21613360D01*
X13441377Y-21684789D01*
X13427091Y-21741932D01*
X13412806Y-21770503D01*
X13398520Y-21784789D01*
X13369948Y-21799074D01*
X13341377Y-21799074D01*
X13312806Y-21784789D01*
X13298520Y-21770503D01*
X13284234Y-21741932D01*
X13269948Y-21684789D01*
X13269948Y-21613360D01*
X13284234Y-21556217D01*
X13298520Y-21527646D01*
X13312806Y-21513360D01*
X13341377Y-21499074D01*
X13569948Y-21799074D02*
X13569948Y-21599074D01*
X13569948Y-21627646D02*
X13584234Y-21613360D01*
X13612806Y-21599074D01*
X13655663Y-21599074D01*
X13684234Y-21613360D01*
X13698520Y-21641932D01*
X13698520Y-21799074D01*
X13698520Y-21641932D02*
X13712806Y-21613360D01*
X13741377Y-21599074D01*
X13784234Y-21599074D01*
X13812806Y-21613360D01*
X13827091Y-21641932D01*
X13827091Y-21799074D01*
X13969948Y-21799074D02*
X13969948Y-21599074D01*
X13969948Y-21627646D02*
X13984234Y-21613360D01*
X14012806Y-21599074D01*
X14055663Y-21599074D01*
X14084234Y-21613360D01*
X14098520Y-21641932D01*
X14098520Y-21799074D01*
X14098520Y-21641932D02*
X14112806Y-21613360D01*
X14141377Y-21599074D01*
X14184234Y-21599074D01*
X14212806Y-21613360D01*
X14227091Y-21641932D01*
X14227091Y-21799074D01*
X14812806Y-21484789D02*
X14555663Y-21870503D01*
X15198520Y-21499074D02*
X15227091Y-21499074D01*
X15255663Y-21513360D01*
X15269948Y-21527646D01*
X15284234Y-21556217D01*
X15298520Y-21613360D01*
X15298520Y-21684789D01*
X15284234Y-21741932D01*
X15269948Y-21770503D01*
X15255663Y-21784789D01*
X15227091Y-21799074D01*
X15198520Y-21799074D01*
X15169948Y-21784789D01*
X15155663Y-21770503D01*
X15141377Y-21741932D01*
X15127091Y-21684789D01*
X15127091Y-21613360D01*
X15141377Y-21556217D01*
X15155663Y-21527646D01*
X15169948Y-21513360D01*
X15198520Y-21499074D01*
X15427091Y-21770503D02*
X15441377Y-21784789D01*
X15427091Y-21799074D01*
X15412806Y-21784789D01*
X15427091Y-21770503D01*
X15427091Y-21799074D01*
X15627091Y-21499074D02*
X15655663Y-21499074D01*
X15684234Y-21513360D01*
X15698520Y-21527646D01*
X15712806Y-21556217D01*
X15727091Y-21613360D01*
X15727091Y-21684789D01*
X15712806Y-21741932D01*
X15698520Y-21770503D01*
X15684234Y-21784789D01*
X15655663Y-21799074D01*
X15627091Y-21799074D01*
X15598520Y-21784789D01*
X15584234Y-21770503D01*
X15569948Y-21741932D01*
X15555663Y-21684789D01*
X15555663Y-21613360D01*
X15569948Y-21556217D01*
X15584234Y-21527646D01*
X15598520Y-21513360D01*
X15627091Y-21499074D01*
X15827091Y-21499074D02*
X16012806Y-21499074D01*
X15912806Y-21613360D01*
X15955663Y-21613360D01*
X15984234Y-21627646D01*
X15998520Y-21641932D01*
X16012806Y-21670503D01*
X16012806Y-21741932D01*
X15998520Y-21770503D01*
X15984234Y-21784789D01*
X15955663Y-21799074D01*
X15869948Y-21799074D01*
X15841377Y-21784789D01*
X15827091Y-21770503D01*
X16155663Y-21799074D02*
X16212806Y-21799074D01*
X16241377Y-21784789D01*
X16255663Y-21770503D01*
X16284234Y-21727646D01*
X16298520Y-21670503D01*
X16298520Y-21556217D01*
X16284234Y-21527646D01*
X16269948Y-21513360D01*
X16241377Y-21499074D01*
X16184234Y-21499074D01*
X16155663Y-21513360D01*
X16141377Y-21527646D01*
X16127091Y-21556217D01*
X16127091Y-21627646D01*
X16141377Y-21656217D01*
X16155663Y-21670503D01*
X16184234Y-21684789D01*
X16241377Y-21684789D01*
X16269948Y-21670503D01*
X16284234Y-21656217D01*
X16298520Y-21627646D01*
X16412806Y-21499074D02*
X16412806Y-21556217D01*
X16527091Y-21499074D02*
X16527091Y-21556217D01*
X16969948Y-21913360D02*
X16955663Y-21899074D01*
X16927091Y-21856217D01*
X16912806Y-21827646D01*
X16898520Y-21784789D01*
X16884234Y-21713360D01*
X16884234Y-21656217D01*
X16898520Y-21584789D01*
X16912806Y-21541932D01*
X16927091Y-21513360D01*
X16955663Y-21470503D01*
X16969948Y-21456217D01*
X17127091Y-21627646D02*
X17098520Y-21613360D01*
X17084234Y-21599074D01*
X17069948Y-21570503D01*
X17069948Y-21556217D01*
X17084234Y-21527646D01*
X17098520Y-21513360D01*
X17127091Y-21499074D01*
X17184234Y-21499074D01*
X17212806Y-21513360D01*
X17227091Y-21527646D01*
X17241377Y-21556217D01*
X17241377Y-21570503D01*
X17227091Y-21599074D01*
X17212806Y-21613360D01*
X17184234Y-21627646D01*
X17127091Y-21627646D01*
X17098520Y-21641932D01*
X17084234Y-21656217D01*
X17069948Y-21684789D01*
X17069948Y-21741932D01*
X17084234Y-21770503D01*
X17098520Y-21784789D01*
X17127091Y-21799074D01*
X17184234Y-21799074D01*
X17212806Y-21784789D01*
X17227091Y-21770503D01*
X17241377Y-21741932D01*
X17241377Y-21684789D01*
X17227091Y-21656217D01*
X17212806Y-21641932D01*
X17184234Y-21627646D01*
X17412806Y-21627646D02*
X17384234Y-21613360D01*
X17369948Y-21599074D01*
X17355663Y-21570503D01*
X17355663Y-21556217D01*
X17369948Y-21527646D01*
X17384234Y-21513360D01*
X17412806Y-21499074D01*
X17469948Y-21499074D01*
X17498520Y-21513360D01*
X17512806Y-21527646D01*
X17527091Y-21556217D01*
X17527091Y-21570503D01*
X17512806Y-21599074D01*
X17498520Y-21613360D01*
X17469948Y-21627646D01*
X17412806Y-21627646D01*
X17384234Y-21641932D01*
X17369948Y-21656217D01*
X17355663Y-21684789D01*
X17355663Y-21741932D01*
X17369948Y-21770503D01*
X17384234Y-21784789D01*
X17412806Y-21799074D01*
X17469948Y-21799074D01*
X17498520Y-21784789D01*
X17512806Y-21770503D01*
X17527091Y-21741932D01*
X17527091Y-21684789D01*
X17512806Y-21656217D01*
X17498520Y-21641932D01*
X17469948Y-21627646D01*
X17884234Y-21799074D02*
X17884234Y-21499074D01*
X18012806Y-21799074D02*
X18012806Y-21641932D01*
X17998520Y-21613360D01*
X17969948Y-21599074D01*
X17927091Y-21599074D01*
X17898520Y-21613360D01*
X17884234Y-21627646D01*
X18198520Y-21799074D02*
X18169948Y-21784789D01*
X18155663Y-21770503D01*
X18141377Y-21741932D01*
X18141377Y-21656217D01*
X18155663Y-21627646D01*
X18169948Y-21613360D01*
X18198520Y-21599074D01*
X18241377Y-21599074D01*
X18269948Y-21613360D01*
X18284234Y-21627646D01*
X18298520Y-21656217D01*
X18298520Y-21741932D01*
X18284234Y-21770503D01*
X18269948Y-21784789D01*
X18241377Y-21799074D01*
X18198520Y-21799074D01*
X18469948Y-21799074D02*
X18441377Y-21784789D01*
X18427091Y-21756217D01*
X18427091Y-21499074D01*
X18698520Y-21784789D02*
X18669948Y-21799074D01*
X18612806Y-21799074D01*
X18584234Y-21784789D01*
X18569948Y-21756217D01*
X18569948Y-21641932D01*
X18584234Y-21613360D01*
X18612806Y-21599074D01*
X18669948Y-21599074D01*
X18698520Y-21613360D01*
X18712806Y-21641932D01*
X18712806Y-21670503D01*
X18569948Y-21699074D01*
X18827091Y-21784789D02*
X18855663Y-21799074D01*
X18912806Y-21799074D01*
X18941377Y-21784789D01*
X18955663Y-21756217D01*
X18955663Y-21741932D01*
X18941377Y-21713360D01*
X18912806Y-21699074D01*
X18869948Y-21699074D01*
X18841377Y-21684789D01*
X18827091Y-21656217D01*
X18827091Y-21641932D01*
X18841377Y-21613360D01*
X18869948Y-21599074D01*
X18912806Y-21599074D01*
X18941377Y-21613360D01*
X19312806Y-21684789D02*
X19541377Y-21684789D01*
X19427091Y-21799074D02*
X19427091Y-21570503D01*
X19884234Y-21499074D02*
X20069948Y-21499074D01*
X19969948Y-21613360D01*
X20012806Y-21613360D01*
X20041377Y-21627646D01*
X20055663Y-21641932D01*
X20069948Y-21670503D01*
X20069948Y-21741932D01*
X20055663Y-21770503D01*
X20041377Y-21784789D01*
X20012806Y-21799074D01*
X19927091Y-21799074D01*
X19898520Y-21784789D01*
X19884234Y-21770503D01*
X20412806Y-21784789D02*
X20441377Y-21799074D01*
X20498520Y-21799074D01*
X20527091Y-21784789D01*
X20541377Y-21756217D01*
X20541377Y-21741932D01*
X20527091Y-21713360D01*
X20498520Y-21699074D01*
X20455663Y-21699074D01*
X20427091Y-21684789D01*
X20412806Y-21656217D01*
X20412806Y-21641932D01*
X20427091Y-21613360D01*
X20455663Y-21599074D01*
X20498520Y-21599074D01*
X20527091Y-21613360D01*
X20712806Y-21799074D02*
X20684234Y-21784789D01*
X20669948Y-21756217D01*
X20669948Y-21499074D01*
X20869948Y-21799074D02*
X20841377Y-21784789D01*
X20827091Y-21770503D01*
X20812806Y-21741932D01*
X20812806Y-21656217D01*
X20827091Y-21627646D01*
X20841377Y-21613360D01*
X20869948Y-21599074D01*
X20912806Y-21599074D01*
X20941377Y-21613360D01*
X20955663Y-21627646D01*
X20969948Y-21656217D01*
X20969948Y-21741932D01*
X20955663Y-21770503D01*
X20941377Y-21784789D01*
X20912806Y-21799074D01*
X20869948Y-21799074D01*
X21055663Y-21599074D02*
X21169948Y-21599074D01*
X21098520Y-21499074D02*
X21098520Y-21756217D01*
X21112806Y-21784789D01*
X21141377Y-21799074D01*
X21169948Y-21799074D01*
X21255663Y-21784789D02*
X21284234Y-21799074D01*
X21341377Y-21799074D01*
X21369948Y-21784789D01*
X21384234Y-21756217D01*
X21384234Y-21741932D01*
X21369948Y-21713360D01*
X21341377Y-21699074D01*
X21298520Y-21699074D01*
X21269948Y-21684789D01*
X21255663Y-21656217D01*
X21255663Y-21641932D01*
X21269948Y-21613360D01*
X21298520Y-21599074D01*
X21341377Y-21599074D01*
X21369948Y-21613360D01*
X21484234Y-21913360D02*
X21498520Y-21899074D01*
X21527091Y-21856217D01*
X21541377Y-21827646D01*
X21555663Y-21784789D01*
X21569948Y-21713360D01*
X21569948Y-21656217D01*
X21555663Y-21584789D01*
X21541377Y-21541932D01*
X21527091Y-21513360D01*
X21498520Y-21470503D01*
X21484234Y-21456217D01*
X12167020Y-21942860D02*
X12167020Y-22175860D01*
X12050520Y-22059360D02*
X12283520Y-22059360D01*
X12249399Y-22141739D02*
X12249399Y-21976981D01*
X12084641Y-21976981D01*
X12084641Y-22141739D01*
X12249399Y-22141739D01*
X12555663Y-21923646D02*
X12569948Y-21909360D01*
X12598520Y-21895074D01*
X12669948Y-21895074D01*
X12698520Y-21909360D01*
X12712806Y-21923646D01*
X12727091Y-21952217D01*
X12727091Y-21980789D01*
X12712806Y-22023646D01*
X12541377Y-22195074D01*
X12727091Y-22195074D01*
X12855663Y-22166503D02*
X12869948Y-22180789D01*
X12855663Y-22195074D01*
X12841377Y-22180789D01*
X12855663Y-22166503D01*
X12855663Y-22195074D01*
X12969948Y-21895074D02*
X13155663Y-21895074D01*
X13055663Y-22009360D01*
X13098520Y-22009360D01*
X13127091Y-22023646D01*
X13141377Y-22037932D01*
X13155663Y-22066503D01*
X13155663Y-22137932D01*
X13141377Y-22166503D01*
X13127091Y-22180789D01*
X13098520Y-22195074D01*
X13012806Y-22195074D01*
X12984234Y-22180789D01*
X12969948Y-22166503D01*
X13255663Y-21895074D02*
X13441377Y-21895074D01*
X13341377Y-22009360D01*
X13384234Y-22009360D01*
X13412806Y-22023646D01*
X13427091Y-22037932D01*
X13441377Y-22066503D01*
X13441377Y-22137932D01*
X13427091Y-22166503D01*
X13412806Y-22180789D01*
X13384234Y-22195074D01*
X13298520Y-22195074D01*
X13269948Y-22180789D01*
X13255663Y-22166503D01*
X13569948Y-22195074D02*
X13569948Y-21995074D01*
X13569948Y-22023646D02*
X13584234Y-22009360D01*
X13612806Y-21995074D01*
X13655663Y-21995074D01*
X13684234Y-22009360D01*
X13698520Y-22037932D01*
X13698520Y-22195074D01*
X13698520Y-22037932D02*
X13712806Y-22009360D01*
X13741377Y-21995074D01*
X13784234Y-21995074D01*
X13812806Y-22009360D01*
X13827091Y-22037932D01*
X13827091Y-22195074D01*
X13969948Y-22195074D02*
X13969948Y-21995074D01*
X13969948Y-22023646D02*
X13984234Y-22009360D01*
X14012806Y-21995074D01*
X14055663Y-21995074D01*
X14084234Y-22009360D01*
X14098520Y-22037932D01*
X14098520Y-22195074D01*
X14098520Y-22037932D02*
X14112806Y-22009360D01*
X14141377Y-21995074D01*
X14184234Y-21995074D01*
X14212806Y-22009360D01*
X14227091Y-22037932D01*
X14227091Y-22195074D01*
X14812806Y-21880789D02*
X14555663Y-22266503D01*
X15198520Y-21895074D02*
X15227091Y-21895074D01*
X15255663Y-21909360D01*
X15269948Y-21923646D01*
X15284234Y-21952217D01*
X15298520Y-22009360D01*
X15298520Y-22080789D01*
X15284234Y-22137932D01*
X15269948Y-22166503D01*
X15255663Y-22180789D01*
X15227091Y-22195074D01*
X15198520Y-22195074D01*
X15169948Y-22180789D01*
X15155663Y-22166503D01*
X15141377Y-22137932D01*
X15127091Y-22080789D01*
X15127091Y-22009360D01*
X15141377Y-21952217D01*
X15155663Y-21923646D01*
X15169948Y-21909360D01*
X15198520Y-21895074D01*
X15427091Y-22166503D02*
X15441377Y-22180789D01*
X15427091Y-22195074D01*
X15412806Y-22180789D01*
X15427091Y-22166503D01*
X15427091Y-22195074D01*
X15627091Y-21895074D02*
X15655663Y-21895074D01*
X15684234Y-21909360D01*
X15698520Y-21923646D01*
X15712806Y-21952217D01*
X15727091Y-22009360D01*
X15727091Y-22080789D01*
X15712806Y-22137932D01*
X15698520Y-22166503D01*
X15684234Y-22180789D01*
X15655663Y-22195074D01*
X15627091Y-22195074D01*
X15598520Y-22180789D01*
X15584234Y-22166503D01*
X15569948Y-22137932D01*
X15555663Y-22080789D01*
X15555663Y-22009360D01*
X15569948Y-21952217D01*
X15584234Y-21923646D01*
X15598520Y-21909360D01*
X15627091Y-21895074D01*
X15869948Y-22195074D02*
X15927091Y-22195074D01*
X15955663Y-22180789D01*
X15969948Y-22166503D01*
X15998520Y-22123646D01*
X16012806Y-22066503D01*
X16012806Y-21952217D01*
X15998520Y-21923646D01*
X15984234Y-21909360D01*
X15955663Y-21895074D01*
X15898520Y-21895074D01*
X15869948Y-21909360D01*
X15855663Y-21923646D01*
X15841377Y-21952217D01*
X15841377Y-22023646D01*
X15855663Y-22052217D01*
X15869948Y-22066503D01*
X15898520Y-22080789D01*
X15955663Y-22080789D01*
X15984234Y-22066503D01*
X15998520Y-22052217D01*
X16012806Y-22023646D01*
X16127091Y-21923646D02*
X16141377Y-21909360D01*
X16169948Y-21895074D01*
X16241377Y-21895074D01*
X16269948Y-21909360D01*
X16284234Y-21923646D01*
X16298520Y-21952217D01*
X16298520Y-21980789D01*
X16284234Y-22023646D01*
X16112806Y-22195074D01*
X16298520Y-22195074D01*
X16412806Y-21895074D02*
X16412806Y-21952217D01*
X16527091Y-21895074D02*
X16527091Y-21952217D01*
X16969948Y-22309360D02*
X16955663Y-22295074D01*
X16927091Y-22252217D01*
X16912806Y-22223646D01*
X16898520Y-22180789D01*
X16884234Y-22109360D01*
X16884234Y-22052217D01*
X16898520Y-21980789D01*
X16912806Y-21937932D01*
X16927091Y-21909360D01*
X16955663Y-21866503D01*
X16969948Y-21852217D01*
X17069948Y-21923646D02*
X17084234Y-21909360D01*
X17112806Y-21895074D01*
X17184234Y-21895074D01*
X17212806Y-21909360D01*
X17227091Y-21923646D01*
X17241377Y-21952217D01*
X17241377Y-21980789D01*
X17227091Y-22023646D01*
X17055663Y-22195074D01*
X17241377Y-22195074D01*
X17598520Y-22195074D02*
X17598520Y-21895074D01*
X17727091Y-22195074D02*
X17727091Y-22037932D01*
X17712806Y-22009360D01*
X17684234Y-21995074D01*
X17641377Y-21995074D01*
X17612806Y-22009360D01*
X17598520Y-22023646D01*
X17912806Y-22195074D02*
X17884234Y-22180789D01*
X17869948Y-22166503D01*
X17855663Y-22137932D01*
X17855663Y-22052217D01*
X17869948Y-22023646D01*
X17884234Y-22009360D01*
X17912806Y-21995074D01*
X17955663Y-21995074D01*
X17984234Y-22009360D01*
X17998520Y-22023646D01*
X18012806Y-22052217D01*
X18012806Y-22137932D01*
X17998520Y-22166503D01*
X17984234Y-22180789D01*
X17955663Y-22195074D01*
X17912806Y-22195074D01*
X18184234Y-22195074D02*
X18155663Y-22180789D01*
X18141377Y-22152217D01*
X18141377Y-21895074D01*
X18412806Y-22180789D02*
X18384234Y-22195074D01*
X18327091Y-22195074D01*
X18298520Y-22180789D01*
X18284234Y-22152217D01*
X18284234Y-22037932D01*
X18298520Y-22009360D01*
X18327091Y-21995074D01*
X18384234Y-21995074D01*
X18412806Y-22009360D01*
X18427091Y-22037932D01*
X18427091Y-22066503D01*
X18284234Y-22095074D01*
X18541377Y-22180789D02*
X18569948Y-22195074D01*
X18627091Y-22195074D01*
X18655663Y-22180789D01*
X18669948Y-22152217D01*
X18669948Y-22137932D01*
X18655663Y-22109360D01*
X18627091Y-22095074D01*
X18584234Y-22095074D01*
X18555663Y-22080789D01*
X18541377Y-22052217D01*
X18541377Y-22037932D01*
X18555663Y-22009360D01*
X18584234Y-21995074D01*
X18627091Y-21995074D01*
X18655663Y-22009360D01*
X18769948Y-22309360D02*
X18784234Y-22295074D01*
X18812806Y-22252217D01*
X18827091Y-22223646D01*
X18841377Y-22180789D01*
X18855663Y-22109360D01*
X18855663Y-22052217D01*
X18841377Y-21980789D01*
X18827091Y-21937932D01*
X18812806Y-21909360D01*
X18784234Y-21866503D01*
X18769948Y-21852217D01*
M02*
