%FSLAX45Y45*%
G04 Gerber Fmt 4.5, Leading zero omitted, Abs format (unit mm)*
G04 Created by KiCad (PCBNEW 5.1.6-c6e7f7d~87~ubuntu16.04.1) date 2020-08-04 23:09:04*
%MOMM*%
%LPD*%
G01*
G04 APERTURE LIST*
%TA.AperFunction,Profile*%
%ADD10C,0.100000*%
%TD*%
%ADD11C,0.200000*%
%ADD12C,0.300000*%
G04 APERTURE END LIST*
D10*
X28170620Y-4568060D02*
X28170620Y-16221060D01*
X12310620Y-4568060D02*
X28170620Y-4568060D01*
X12310620Y-16221060D02*
X12310620Y-4568060D01*
X28170620Y-16221060D02*
X12310620Y-16221060D01*
D11*
X27510620Y-4921060D02*
X27830620Y-5241060D01*
X27830620Y-4921060D02*
X27510620Y-5241060D01*
X22088000Y-4940000D02*
X22408000Y-5260000D01*
X22408000Y-4940000D02*
X22088000Y-5260000D01*
X12650620Y-15562060D02*
X12970620Y-15882060D01*
X12970620Y-15562060D02*
X12650620Y-15882060D01*
X27514620Y-15561060D02*
X27834620Y-15881060D01*
X27834620Y-15561060D02*
X27514620Y-15881060D01*
X12671620Y-4909060D02*
X12991620Y-5229060D01*
X12991620Y-4909060D02*
X12671620Y-5229060D01*
X27168000Y-6464000D02*
X27488000Y-6784000D01*
X27488000Y-6464000D02*
X27168000Y-6784000D01*
X21960860Y-9766320D02*
X22280860Y-10086320D01*
X22280860Y-9766320D02*
X21960860Y-10086320D01*
X27167860Y-9258320D02*
X27487860Y-9578320D01*
X27487860Y-9258320D02*
X27167860Y-9578320D01*
D12*
X12592048Y-16691774D02*
X12592048Y-16391774D01*
X12663477Y-16391774D01*
X12706334Y-16406060D01*
X12734906Y-16434631D01*
X12749191Y-16463203D01*
X12763477Y-16520346D01*
X12763477Y-16563203D01*
X12749191Y-16620346D01*
X12734906Y-16648917D01*
X12706334Y-16677489D01*
X12663477Y-16691774D01*
X12592048Y-16691774D01*
X12892048Y-16691774D02*
X12892048Y-16491774D01*
X12892048Y-16548917D02*
X12906334Y-16520346D01*
X12920620Y-16506060D01*
X12949191Y-16491774D01*
X12977763Y-16491774D01*
X13077763Y-16691774D02*
X13077763Y-16491774D01*
X13077763Y-16391774D02*
X13063477Y-16406060D01*
X13077763Y-16420346D01*
X13092048Y-16406060D01*
X13077763Y-16391774D01*
X13077763Y-16420346D01*
X13263477Y-16691774D02*
X13234906Y-16677489D01*
X13220620Y-16648917D01*
X13220620Y-16391774D01*
X13420620Y-16691774D02*
X13392048Y-16677489D01*
X13377763Y-16648917D01*
X13377763Y-16391774D01*
X13763477Y-16691774D02*
X13763477Y-16391774D01*
X13863477Y-16606060D01*
X13963477Y-16391774D01*
X13963477Y-16691774D01*
X14234906Y-16691774D02*
X14234906Y-16534631D01*
X14220620Y-16506060D01*
X14192048Y-16491774D01*
X14134906Y-16491774D01*
X14106334Y-16506060D01*
X14234906Y-16677489D02*
X14206334Y-16691774D01*
X14134906Y-16691774D01*
X14106334Y-16677489D01*
X14092048Y-16648917D01*
X14092048Y-16620346D01*
X14106334Y-16591774D01*
X14134906Y-16577489D01*
X14206334Y-16577489D01*
X14234906Y-16563203D01*
X14377763Y-16491774D02*
X14377763Y-16791774D01*
X14377763Y-16506060D02*
X14406334Y-16491774D01*
X14463477Y-16491774D01*
X14492048Y-16506060D01*
X14506334Y-16520346D01*
X14520620Y-16548917D01*
X14520620Y-16634631D01*
X14506334Y-16663203D01*
X14492048Y-16677489D01*
X14463477Y-16691774D01*
X14406334Y-16691774D01*
X14377763Y-16677489D01*
X14649191Y-16663203D02*
X14663477Y-16677489D01*
X14649191Y-16691774D01*
X14634906Y-16677489D01*
X14649191Y-16663203D01*
X14649191Y-16691774D01*
X14649191Y-16506060D02*
X14663477Y-16520346D01*
X14649191Y-16534631D01*
X14634906Y-16520346D01*
X14649191Y-16506060D01*
X14649191Y-16534631D01*
X11985620Y-17026060D02*
X12305620Y-17346060D01*
X12305620Y-17026060D02*
X11985620Y-17346060D01*
X12563477Y-17021774D02*
X12749191Y-17021774D01*
X12649191Y-17136060D01*
X12692048Y-17136060D01*
X12720620Y-17150346D01*
X12734906Y-17164632D01*
X12749191Y-17193203D01*
X12749191Y-17264632D01*
X12734906Y-17293203D01*
X12720620Y-17307489D01*
X12692048Y-17321774D01*
X12606334Y-17321774D01*
X12577763Y-17307489D01*
X12563477Y-17293203D01*
X12877763Y-17293203D02*
X12892048Y-17307489D01*
X12877763Y-17321774D01*
X12863477Y-17307489D01*
X12877763Y-17293203D01*
X12877763Y-17321774D01*
X13006334Y-17050346D02*
X13020620Y-17036060D01*
X13049191Y-17021774D01*
X13120620Y-17021774D01*
X13149191Y-17036060D01*
X13163477Y-17050346D01*
X13177763Y-17078917D01*
X13177763Y-17107489D01*
X13163477Y-17150346D01*
X12992048Y-17321774D01*
X13177763Y-17321774D01*
X13363477Y-17021774D02*
X13392048Y-17021774D01*
X13420620Y-17036060D01*
X13434906Y-17050346D01*
X13449191Y-17078917D01*
X13463477Y-17136060D01*
X13463477Y-17207489D01*
X13449191Y-17264632D01*
X13434906Y-17293203D01*
X13420620Y-17307489D01*
X13392048Y-17321774D01*
X13363477Y-17321774D01*
X13334906Y-17307489D01*
X13320620Y-17293203D01*
X13306334Y-17264632D01*
X13292048Y-17207489D01*
X13292048Y-17136060D01*
X13306334Y-17078917D01*
X13320620Y-17050346D01*
X13334906Y-17036060D01*
X13363477Y-17021774D01*
X13592048Y-17321774D02*
X13592048Y-17121774D01*
X13592048Y-17150346D02*
X13606334Y-17136060D01*
X13634906Y-17121774D01*
X13677763Y-17121774D01*
X13706334Y-17136060D01*
X13720620Y-17164632D01*
X13720620Y-17321774D01*
X13720620Y-17164632D02*
X13734906Y-17136060D01*
X13763477Y-17121774D01*
X13806334Y-17121774D01*
X13834906Y-17136060D01*
X13849191Y-17164632D01*
X13849191Y-17321774D01*
X13992048Y-17321774D02*
X13992048Y-17121774D01*
X13992048Y-17150346D02*
X14006334Y-17136060D01*
X14034906Y-17121774D01*
X14077763Y-17121774D01*
X14106334Y-17136060D01*
X14120620Y-17164632D01*
X14120620Y-17321774D01*
X14120620Y-17164632D02*
X14134906Y-17136060D01*
X14163477Y-17121774D01*
X14206334Y-17121774D01*
X14234906Y-17136060D01*
X14249191Y-17164632D01*
X14249191Y-17321774D01*
X14834906Y-17007489D02*
X14577763Y-17393203D01*
X15220620Y-17021774D02*
X15249191Y-17021774D01*
X15277763Y-17036060D01*
X15292048Y-17050346D01*
X15306334Y-17078917D01*
X15320620Y-17136060D01*
X15320620Y-17207489D01*
X15306334Y-17264632D01*
X15292048Y-17293203D01*
X15277763Y-17307489D01*
X15249191Y-17321774D01*
X15220620Y-17321774D01*
X15192048Y-17307489D01*
X15177763Y-17293203D01*
X15163477Y-17264632D01*
X15149191Y-17207489D01*
X15149191Y-17136060D01*
X15163477Y-17078917D01*
X15177763Y-17050346D01*
X15192048Y-17036060D01*
X15220620Y-17021774D01*
X15449191Y-17293203D02*
X15463477Y-17307489D01*
X15449191Y-17321774D01*
X15434906Y-17307489D01*
X15449191Y-17293203D01*
X15449191Y-17321774D01*
X15749191Y-17321774D02*
X15577763Y-17321774D01*
X15663477Y-17321774D02*
X15663477Y-17021774D01*
X15634906Y-17064632D01*
X15606334Y-17093203D01*
X15577763Y-17107489D01*
X15863477Y-17050346D02*
X15877763Y-17036060D01*
X15906334Y-17021774D01*
X15977763Y-17021774D01*
X16006334Y-17036060D01*
X16020620Y-17050346D01*
X16034906Y-17078917D01*
X16034906Y-17107489D01*
X16020620Y-17150346D01*
X15849191Y-17321774D01*
X16034906Y-17321774D01*
X16292048Y-17021774D02*
X16234906Y-17021774D01*
X16206334Y-17036060D01*
X16192048Y-17050346D01*
X16163477Y-17093203D01*
X16149191Y-17150346D01*
X16149191Y-17264632D01*
X16163477Y-17293203D01*
X16177763Y-17307489D01*
X16206334Y-17321774D01*
X16263477Y-17321774D01*
X16292048Y-17307489D01*
X16306334Y-17293203D01*
X16320620Y-17264632D01*
X16320620Y-17193203D01*
X16306334Y-17164632D01*
X16292048Y-17150346D01*
X16263477Y-17136060D01*
X16206334Y-17136060D01*
X16177763Y-17150346D01*
X16163477Y-17164632D01*
X16149191Y-17193203D01*
X16434906Y-17021774D02*
X16434906Y-17078917D01*
X16549191Y-17021774D02*
X16549191Y-17078917D01*
X16992048Y-17436060D02*
X16977763Y-17421774D01*
X16949191Y-17378917D01*
X16934906Y-17350346D01*
X16920620Y-17307489D01*
X16906334Y-17236060D01*
X16906334Y-17178917D01*
X16920620Y-17107489D01*
X16934906Y-17064632D01*
X16949191Y-17036060D01*
X16977763Y-16993203D01*
X16992048Y-16978917D01*
X17149191Y-17150346D02*
X17120620Y-17136060D01*
X17106334Y-17121774D01*
X17092048Y-17093203D01*
X17092048Y-17078917D01*
X17106334Y-17050346D01*
X17120620Y-17036060D01*
X17149191Y-17021774D01*
X17206334Y-17021774D01*
X17234906Y-17036060D01*
X17249191Y-17050346D01*
X17263477Y-17078917D01*
X17263477Y-17093203D01*
X17249191Y-17121774D01*
X17234906Y-17136060D01*
X17206334Y-17150346D01*
X17149191Y-17150346D01*
X17120620Y-17164632D01*
X17106334Y-17178917D01*
X17092048Y-17207489D01*
X17092048Y-17264632D01*
X17106334Y-17293203D01*
X17120620Y-17307489D01*
X17149191Y-17321774D01*
X17206334Y-17321774D01*
X17234906Y-17307489D01*
X17249191Y-17293203D01*
X17263477Y-17264632D01*
X17263477Y-17207489D01*
X17249191Y-17178917D01*
X17234906Y-17164632D01*
X17206334Y-17150346D01*
X17620620Y-17321774D02*
X17620620Y-17021774D01*
X17749191Y-17321774D02*
X17749191Y-17164632D01*
X17734906Y-17136060D01*
X17706334Y-17121774D01*
X17663477Y-17121774D01*
X17634906Y-17136060D01*
X17620620Y-17150346D01*
X17934906Y-17321774D02*
X17906334Y-17307489D01*
X17892048Y-17293203D01*
X17877763Y-17264632D01*
X17877763Y-17178917D01*
X17892048Y-17150346D01*
X17906334Y-17136060D01*
X17934906Y-17121774D01*
X17977763Y-17121774D01*
X18006334Y-17136060D01*
X18020620Y-17150346D01*
X18034906Y-17178917D01*
X18034906Y-17264632D01*
X18020620Y-17293203D01*
X18006334Y-17307489D01*
X17977763Y-17321774D01*
X17934906Y-17321774D01*
X18206334Y-17321774D02*
X18177763Y-17307489D01*
X18163477Y-17278917D01*
X18163477Y-17021774D01*
X18434906Y-17307489D02*
X18406334Y-17321774D01*
X18349191Y-17321774D01*
X18320620Y-17307489D01*
X18306334Y-17278917D01*
X18306334Y-17164632D01*
X18320620Y-17136060D01*
X18349191Y-17121774D01*
X18406334Y-17121774D01*
X18434906Y-17136060D01*
X18449191Y-17164632D01*
X18449191Y-17193203D01*
X18306334Y-17221774D01*
X18563477Y-17307489D02*
X18592048Y-17321774D01*
X18649191Y-17321774D01*
X18677763Y-17307489D01*
X18692048Y-17278917D01*
X18692048Y-17264632D01*
X18677763Y-17236060D01*
X18649191Y-17221774D01*
X18606334Y-17221774D01*
X18577763Y-17207489D01*
X18563477Y-17178917D01*
X18563477Y-17164632D01*
X18577763Y-17136060D01*
X18606334Y-17121774D01*
X18649191Y-17121774D01*
X18677763Y-17136060D01*
X18792048Y-17436060D02*
X18806334Y-17421774D01*
X18834906Y-17378917D01*
X18849191Y-17350346D01*
X18863477Y-17307489D01*
X18877763Y-17236060D01*
X18877763Y-17178917D01*
X18863477Y-17107489D01*
X18849191Y-17064632D01*
X18834906Y-17036060D01*
X18806334Y-16993203D01*
X18792048Y-16978917D01*
X19334906Y-17436060D02*
X19320620Y-17421774D01*
X19292048Y-17378917D01*
X19277763Y-17350346D01*
X19263477Y-17307489D01*
X19249191Y-17236060D01*
X19249191Y-17178917D01*
X19263477Y-17107489D01*
X19277763Y-17064632D01*
X19292048Y-17036060D01*
X19320620Y-16993203D01*
X19334906Y-16978917D01*
X19449191Y-17121774D02*
X19449191Y-17321774D01*
X19449191Y-17150346D02*
X19463477Y-17136060D01*
X19492048Y-17121774D01*
X19534906Y-17121774D01*
X19563477Y-17136060D01*
X19577763Y-17164632D01*
X19577763Y-17321774D01*
X19763477Y-17321774D02*
X19734906Y-17307489D01*
X19720620Y-17293203D01*
X19706334Y-17264632D01*
X19706334Y-17178917D01*
X19720620Y-17150346D01*
X19734906Y-17136060D01*
X19763477Y-17121774D01*
X19806334Y-17121774D01*
X19834906Y-17136060D01*
X19849191Y-17150346D01*
X19863477Y-17178917D01*
X19863477Y-17264632D01*
X19849191Y-17293203D01*
X19834906Y-17307489D01*
X19806334Y-17321774D01*
X19763477Y-17321774D01*
X19949191Y-17121774D02*
X20063477Y-17121774D01*
X19992048Y-17021774D02*
X19992048Y-17278917D01*
X20006334Y-17307489D01*
X20034906Y-17321774D01*
X20063477Y-17321774D01*
X20392048Y-17121774D02*
X20392048Y-17421774D01*
X20392048Y-17136060D02*
X20420620Y-17121774D01*
X20477763Y-17121774D01*
X20506334Y-17136060D01*
X20520620Y-17150346D01*
X20534906Y-17178917D01*
X20534906Y-17264632D01*
X20520620Y-17293203D01*
X20506334Y-17307489D01*
X20477763Y-17321774D01*
X20420620Y-17321774D01*
X20392048Y-17307489D01*
X20706334Y-17321774D02*
X20677763Y-17307489D01*
X20663477Y-17278917D01*
X20663477Y-17021774D01*
X20949191Y-17321774D02*
X20949191Y-17164632D01*
X20934906Y-17136060D01*
X20906334Y-17121774D01*
X20849191Y-17121774D01*
X20820620Y-17136060D01*
X20949191Y-17307489D02*
X20920620Y-17321774D01*
X20849191Y-17321774D01*
X20820620Y-17307489D01*
X20806334Y-17278917D01*
X20806334Y-17250346D01*
X20820620Y-17221774D01*
X20849191Y-17207489D01*
X20920620Y-17207489D01*
X20949191Y-17193203D01*
X21049191Y-17121774D02*
X21163477Y-17121774D01*
X21092048Y-17021774D02*
X21092048Y-17278917D01*
X21106334Y-17307489D01*
X21134906Y-17321774D01*
X21163477Y-17321774D01*
X21377763Y-17307489D02*
X21349191Y-17321774D01*
X21292048Y-17321774D01*
X21263477Y-17307489D01*
X21249191Y-17278917D01*
X21249191Y-17164632D01*
X21263477Y-17136060D01*
X21292048Y-17121774D01*
X21349191Y-17121774D01*
X21377763Y-17136060D01*
X21392048Y-17164632D01*
X21392048Y-17193203D01*
X21249191Y-17221774D01*
X21649191Y-17321774D02*
X21649191Y-17021774D01*
X21649191Y-17307489D02*
X21620620Y-17321774D01*
X21563477Y-17321774D01*
X21534906Y-17307489D01*
X21520620Y-17293203D01*
X21506334Y-17264632D01*
X21506334Y-17178917D01*
X21520620Y-17150346D01*
X21534906Y-17136060D01*
X21563477Y-17121774D01*
X21620620Y-17121774D01*
X21649191Y-17136060D01*
X21763477Y-17436060D02*
X21777763Y-17421774D01*
X21806334Y-17378917D01*
X21820620Y-17350346D01*
X21834906Y-17307489D01*
X21849191Y-17236060D01*
X21849191Y-17178917D01*
X21834906Y-17107489D01*
X21820620Y-17064632D01*
X21806334Y-17036060D01*
X21777763Y-16993203D01*
X21763477Y-16978917D01*
M02*
