G04 #@! TF.GenerationSoftware,KiCad,Pcbnew,(5.1.6)-1*
G04 #@! TF.CreationDate,2020-07-24T11:59:57+05:30*
G04 #@! TF.ProjectId,Aardonyx,41617264-6f6e-4797-982e-6b696361645f,v1.0*
G04 #@! TF.SameCoordinates,Original*
G04 #@! TF.FileFunction,Legend,Bot*
G04 #@! TF.FilePolarity,Positive*
%FSLAX46Y46*%
G04 Gerber Fmt 4.6, Leading zero omitted, Abs format (unit mm)*
G04 Created by KiCad (PCBNEW (5.1.6)-1) date 2020-07-24 11:59:57*
%MOMM*%
%LPD*%
G01*
G04 APERTURE LIST*
%ADD10C,0.120000*%
%ADD11C,0.040000*%
%ADD12C,0.150000*%
G04 APERTURE END LIST*
D10*
X223555320Y-72064880D02*
G75*
G03*
X223555320Y-72064880I-60960J0D01*
G01*
X222005920Y-71856600D02*
X223005920Y-71856600D01*
X222061800Y-93731080D02*
X222061800Y-93228160D01*
X211231240Y-93776800D02*
X211231240Y-93228160D01*
X222077000Y-93750000D02*
X211277000Y-93750000D01*
X222011000Y-71927720D02*
X222011000Y-71313040D01*
X221977000Y-71350000D02*
X211277000Y-71350000D01*
X211256640Y-71313040D02*
X211256640Y-71932800D01*
X134199400Y-95182200D02*
X135599400Y-95182200D01*
X135599400Y-97502200D02*
X133699400Y-97502200D01*
X143527936Y-139070000D02*
X144732064Y-139070000D01*
X143527936Y-140890000D02*
X144732064Y-140890000D01*
X162158000Y-142207064D02*
X162158000Y-141002936D01*
X163978000Y-142207064D02*
X163978000Y-141002936D01*
X155510000Y-145587936D02*
X155510000Y-146792064D01*
X153690000Y-145587936D02*
X153690000Y-146792064D01*
D11*
X182735914Y-112739885D02*
X182747819Y-112751790D01*
X182783533Y-112763695D01*
X182807342Y-112763695D01*
X182843057Y-112751790D01*
X182866866Y-112727980D01*
X182878771Y-112704171D01*
X182890676Y-112656552D01*
X182890676Y-112620838D01*
X182878771Y-112573219D01*
X182866866Y-112549409D01*
X182843057Y-112525600D01*
X182807342Y-112513695D01*
X182783533Y-112513695D01*
X182747819Y-112525600D01*
X182735914Y-112537504D01*
X182652580Y-112513695D02*
X182485914Y-112513695D01*
X182593057Y-112763695D01*
X182402580Y-112537504D02*
X182390676Y-112525600D01*
X182366866Y-112513695D01*
X182307342Y-112513695D01*
X182283533Y-112525600D01*
X182271628Y-112537504D01*
X182259723Y-112561314D01*
X182259723Y-112585123D01*
X182271628Y-112620838D01*
X182414485Y-112763695D01*
X182259723Y-112763695D01*
X223751476Y-70337095D02*
X223751476Y-70539476D01*
X223739571Y-70563285D01*
X223727666Y-70575190D01*
X223703857Y-70587095D01*
X223656238Y-70587095D01*
X223632428Y-70575190D01*
X223620523Y-70563285D01*
X223608619Y-70539476D01*
X223608619Y-70337095D01*
X223501476Y-70360904D02*
X223489571Y-70349000D01*
X223465761Y-70337095D01*
X223406238Y-70337095D01*
X223382428Y-70349000D01*
X223370523Y-70360904D01*
X223358619Y-70384714D01*
X223358619Y-70408523D01*
X223370523Y-70444238D01*
X223513380Y-70587095D01*
X223358619Y-70587095D01*
X135198923Y-98235295D02*
X135198923Y-98437676D01*
X135187019Y-98461485D01*
X135175114Y-98473390D01*
X135151304Y-98485295D01*
X135103685Y-98485295D01*
X135079876Y-98473390D01*
X135067971Y-98461485D01*
X135056066Y-98437676D01*
X135056066Y-98235295D01*
X134806066Y-98485295D02*
X134948923Y-98485295D01*
X134877495Y-98485295D02*
X134877495Y-98235295D01*
X134901304Y-98271009D01*
X134925114Y-98294819D01*
X134948923Y-98306723D01*
X134591780Y-98318628D02*
X134591780Y-98485295D01*
X134651304Y-98223390D02*
X134710828Y-98401961D01*
X134556066Y-98401961D01*
X129413361Y-113979695D02*
X129496695Y-113860647D01*
X129556219Y-113979695D02*
X129556219Y-113729695D01*
X129460980Y-113729695D01*
X129437171Y-113741600D01*
X129425266Y-113753504D01*
X129413361Y-113777314D01*
X129413361Y-113813028D01*
X129425266Y-113836838D01*
X129437171Y-113848742D01*
X129460980Y-113860647D01*
X129556219Y-113860647D01*
X129175266Y-113979695D02*
X129318123Y-113979695D01*
X129246695Y-113979695D02*
X129246695Y-113729695D01*
X129270504Y-113765409D01*
X129294314Y-113789219D01*
X129318123Y-113801123D01*
X129091933Y-113729695D02*
X128937171Y-113729695D01*
X129020504Y-113824933D01*
X128984790Y-113824933D01*
X128960980Y-113836838D01*
X128949076Y-113848742D01*
X128937171Y-113872552D01*
X128937171Y-113932076D01*
X128949076Y-113955885D01*
X128960980Y-113967790D01*
X128984790Y-113979695D01*
X129056219Y-113979695D01*
X129080028Y-113967790D01*
X129091933Y-113955885D01*
X128841933Y-113753504D02*
X128830028Y-113741600D01*
X128806219Y-113729695D01*
X128746695Y-113729695D01*
X128722885Y-113741600D01*
X128710980Y-113753504D01*
X128699076Y-113777314D01*
X128699076Y-113801123D01*
X128710980Y-113836838D01*
X128853838Y-113979695D01*
X128699076Y-113979695D01*
X176896761Y-104166095D02*
X176980095Y-104047047D01*
X177039619Y-104166095D02*
X177039619Y-103916095D01*
X176944380Y-103916095D01*
X176920571Y-103928000D01*
X176908666Y-103939904D01*
X176896761Y-103963714D01*
X176896761Y-103999428D01*
X176908666Y-104023238D01*
X176920571Y-104035142D01*
X176944380Y-104047047D01*
X177039619Y-104047047D01*
X176658666Y-104166095D02*
X176801523Y-104166095D01*
X176730095Y-104166095D02*
X176730095Y-103916095D01*
X176753904Y-103951809D01*
X176777714Y-103975619D01*
X176801523Y-103987523D01*
X176563428Y-103939904D02*
X176551523Y-103928000D01*
X176527714Y-103916095D01*
X176468190Y-103916095D01*
X176444380Y-103928000D01*
X176432476Y-103939904D01*
X176420571Y-103963714D01*
X176420571Y-103987523D01*
X176432476Y-104023238D01*
X176575333Y-104166095D01*
X176420571Y-104166095D01*
X176337238Y-103916095D02*
X176170571Y-103916095D01*
X176277714Y-104166095D01*
X177610761Y-103083095D02*
X177694095Y-102964047D01*
X177753619Y-103083095D02*
X177753619Y-102833095D01*
X177658380Y-102833095D01*
X177634571Y-102845000D01*
X177622666Y-102856904D01*
X177610761Y-102880714D01*
X177610761Y-102916428D01*
X177622666Y-102940238D01*
X177634571Y-102952142D01*
X177658380Y-102964047D01*
X177753619Y-102964047D01*
X177372666Y-103083095D02*
X177515523Y-103083095D01*
X177444095Y-103083095D02*
X177444095Y-102833095D01*
X177467904Y-102868809D01*
X177491714Y-102892619D01*
X177515523Y-102904523D01*
X177277428Y-102856904D02*
X177265523Y-102845000D01*
X177241714Y-102833095D01*
X177182190Y-102833095D01*
X177158380Y-102845000D01*
X177146476Y-102856904D01*
X177134571Y-102880714D01*
X177134571Y-102904523D01*
X177146476Y-102940238D01*
X177289333Y-103083095D01*
X177134571Y-103083095D01*
X176920285Y-102833095D02*
X176967904Y-102833095D01*
X176991714Y-102845000D01*
X177003619Y-102856904D01*
X177027428Y-102892619D01*
X177039333Y-102940238D01*
X177039333Y-103035476D01*
X177027428Y-103059285D01*
X177015523Y-103071190D01*
X176991714Y-103083095D01*
X176944095Y-103083095D01*
X176920285Y-103071190D01*
X176908380Y-103059285D01*
X176896476Y-103035476D01*
X176896476Y-102975952D01*
X176908380Y-102952142D01*
X176920285Y-102940238D01*
X176944095Y-102928333D01*
X176991714Y-102928333D01*
X177015523Y-102940238D01*
X177027428Y-102952142D01*
X177039333Y-102975952D01*
X176948761Y-101907095D02*
X177032095Y-101788047D01*
X177091619Y-101907095D02*
X177091619Y-101657095D01*
X176996380Y-101657095D01*
X176972571Y-101669000D01*
X176960666Y-101680904D01*
X176948761Y-101704714D01*
X176948761Y-101740428D01*
X176960666Y-101764238D01*
X176972571Y-101776142D01*
X176996380Y-101788047D01*
X177091619Y-101788047D01*
X176710666Y-101907095D02*
X176853523Y-101907095D01*
X176782095Y-101907095D02*
X176782095Y-101657095D01*
X176805904Y-101692809D01*
X176829714Y-101716619D01*
X176853523Y-101728523D01*
X176615428Y-101680904D02*
X176603523Y-101669000D01*
X176579714Y-101657095D01*
X176520190Y-101657095D01*
X176496380Y-101669000D01*
X176484476Y-101680904D01*
X176472571Y-101704714D01*
X176472571Y-101728523D01*
X176484476Y-101764238D01*
X176627333Y-101907095D01*
X176472571Y-101907095D01*
X176246380Y-101657095D02*
X176365428Y-101657095D01*
X176377333Y-101776142D01*
X176365428Y-101764238D01*
X176341619Y-101752333D01*
X176282095Y-101752333D01*
X176258285Y-101764238D01*
X176246380Y-101776142D01*
X176234476Y-101799952D01*
X176234476Y-101859476D01*
X176246380Y-101883285D01*
X176258285Y-101895190D01*
X176282095Y-101907095D01*
X176341619Y-101907095D01*
X176365428Y-101895190D01*
X176377333Y-101883285D01*
X177774761Y-100931095D02*
X177858095Y-100812047D01*
X177917619Y-100931095D02*
X177917619Y-100681095D01*
X177822380Y-100681095D01*
X177798571Y-100693000D01*
X177786666Y-100704904D01*
X177774761Y-100728714D01*
X177774761Y-100764428D01*
X177786666Y-100788238D01*
X177798571Y-100800142D01*
X177822380Y-100812047D01*
X177917619Y-100812047D01*
X177536666Y-100931095D02*
X177679523Y-100931095D01*
X177608095Y-100931095D02*
X177608095Y-100681095D01*
X177631904Y-100716809D01*
X177655714Y-100740619D01*
X177679523Y-100752523D01*
X177441428Y-100704904D02*
X177429523Y-100693000D01*
X177405714Y-100681095D01*
X177346190Y-100681095D01*
X177322380Y-100693000D01*
X177310476Y-100704904D01*
X177298571Y-100728714D01*
X177298571Y-100752523D01*
X177310476Y-100788238D01*
X177453333Y-100931095D01*
X177298571Y-100931095D01*
X177084285Y-100764428D02*
X177084285Y-100931095D01*
X177143809Y-100669190D02*
X177203333Y-100847761D01*
X177048571Y-100847761D01*
X181856761Y-101907095D02*
X181940095Y-101788047D01*
X181999619Y-101907095D02*
X181999619Y-101657095D01*
X181904380Y-101657095D01*
X181880571Y-101669000D01*
X181868666Y-101680904D01*
X181856761Y-101704714D01*
X181856761Y-101740428D01*
X181868666Y-101764238D01*
X181880571Y-101776142D01*
X181904380Y-101788047D01*
X181999619Y-101788047D01*
X181618666Y-101907095D02*
X181761523Y-101907095D01*
X181690095Y-101907095D02*
X181690095Y-101657095D01*
X181713904Y-101692809D01*
X181737714Y-101716619D01*
X181761523Y-101728523D01*
X181523428Y-101680904D02*
X181511523Y-101669000D01*
X181487714Y-101657095D01*
X181428190Y-101657095D01*
X181404380Y-101669000D01*
X181392476Y-101680904D01*
X181380571Y-101704714D01*
X181380571Y-101728523D01*
X181392476Y-101764238D01*
X181535333Y-101907095D01*
X181380571Y-101907095D01*
X181297238Y-101657095D02*
X181142476Y-101657095D01*
X181225809Y-101752333D01*
X181190095Y-101752333D01*
X181166285Y-101764238D01*
X181154380Y-101776142D01*
X181142476Y-101799952D01*
X181142476Y-101859476D01*
X181154380Y-101883285D01*
X181166285Y-101895190D01*
X181190095Y-101907095D01*
X181261523Y-101907095D01*
X181285333Y-101895190D01*
X181297238Y-101883285D01*
X182548761Y-100844095D02*
X182632095Y-100725047D01*
X182691619Y-100844095D02*
X182691619Y-100594095D01*
X182596380Y-100594095D01*
X182572571Y-100606000D01*
X182560666Y-100617904D01*
X182548761Y-100641714D01*
X182548761Y-100677428D01*
X182560666Y-100701238D01*
X182572571Y-100713142D01*
X182596380Y-100725047D01*
X182691619Y-100725047D01*
X182310666Y-100844095D02*
X182453523Y-100844095D01*
X182382095Y-100844095D02*
X182382095Y-100594095D01*
X182405904Y-100629809D01*
X182429714Y-100653619D01*
X182453523Y-100665523D01*
X182215428Y-100617904D02*
X182203523Y-100606000D01*
X182179714Y-100594095D01*
X182120190Y-100594095D01*
X182096380Y-100606000D01*
X182084476Y-100617904D01*
X182072571Y-100641714D01*
X182072571Y-100665523D01*
X182084476Y-100701238D01*
X182227333Y-100844095D01*
X182072571Y-100844095D01*
X181977333Y-100617904D02*
X181965428Y-100606000D01*
X181941619Y-100594095D01*
X181882095Y-100594095D01*
X181858285Y-100606000D01*
X181846380Y-100617904D01*
X181834476Y-100641714D01*
X181834476Y-100665523D01*
X181846380Y-100701238D01*
X181989238Y-100844095D01*
X181834476Y-100844095D01*
X188454761Y-102211095D02*
X188538095Y-102092047D01*
X188597619Y-102211095D02*
X188597619Y-101961095D01*
X188502380Y-101961095D01*
X188478571Y-101973000D01*
X188466666Y-101984904D01*
X188454761Y-102008714D01*
X188454761Y-102044428D01*
X188466666Y-102068238D01*
X188478571Y-102080142D01*
X188502380Y-102092047D01*
X188597619Y-102092047D01*
X188216666Y-102211095D02*
X188359523Y-102211095D01*
X188288095Y-102211095D02*
X188288095Y-101961095D01*
X188311904Y-101996809D01*
X188335714Y-102020619D01*
X188359523Y-102032523D01*
X188121428Y-101984904D02*
X188109523Y-101973000D01*
X188085714Y-101961095D01*
X188026190Y-101961095D01*
X188002380Y-101973000D01*
X187990476Y-101984904D01*
X187978571Y-102008714D01*
X187978571Y-102032523D01*
X187990476Y-102068238D01*
X188133333Y-102211095D01*
X187978571Y-102211095D01*
X187740476Y-102211095D02*
X187883333Y-102211095D01*
X187811904Y-102211095D02*
X187811904Y-101961095D01*
X187835714Y-101996809D01*
X187859523Y-102020619D01*
X187883333Y-102032523D01*
X189398761Y-100921095D02*
X189482095Y-100802047D01*
X189541619Y-100921095D02*
X189541619Y-100671095D01*
X189446380Y-100671095D01*
X189422571Y-100683000D01*
X189410666Y-100694904D01*
X189398761Y-100718714D01*
X189398761Y-100754428D01*
X189410666Y-100778238D01*
X189422571Y-100790142D01*
X189446380Y-100802047D01*
X189541619Y-100802047D01*
X189160666Y-100921095D02*
X189303523Y-100921095D01*
X189232095Y-100921095D02*
X189232095Y-100671095D01*
X189255904Y-100706809D01*
X189279714Y-100730619D01*
X189303523Y-100742523D01*
X189065428Y-100694904D02*
X189053523Y-100683000D01*
X189029714Y-100671095D01*
X188970190Y-100671095D01*
X188946380Y-100683000D01*
X188934476Y-100694904D01*
X188922571Y-100718714D01*
X188922571Y-100742523D01*
X188934476Y-100778238D01*
X189077333Y-100921095D01*
X188922571Y-100921095D01*
X188767809Y-100671095D02*
X188744000Y-100671095D01*
X188720190Y-100683000D01*
X188708285Y-100694904D01*
X188696380Y-100718714D01*
X188684476Y-100766333D01*
X188684476Y-100825857D01*
X188696380Y-100873476D01*
X188708285Y-100897285D01*
X188720190Y-100909190D01*
X188744000Y-100921095D01*
X188767809Y-100921095D01*
X188791619Y-100909190D01*
X188803523Y-100897285D01*
X188815428Y-100873476D01*
X188827333Y-100825857D01*
X188827333Y-100766333D01*
X188815428Y-100718714D01*
X188803523Y-100694904D01*
X188791619Y-100683000D01*
X188767809Y-100671095D01*
X191187761Y-86894095D02*
X191271095Y-86775047D01*
X191330619Y-86894095D02*
X191330619Y-86644095D01*
X191235380Y-86644095D01*
X191211571Y-86656000D01*
X191199666Y-86667904D01*
X191187761Y-86691714D01*
X191187761Y-86727428D01*
X191199666Y-86751238D01*
X191211571Y-86763142D01*
X191235380Y-86775047D01*
X191330619Y-86775047D01*
X190949666Y-86894095D02*
X191092523Y-86894095D01*
X191021095Y-86894095D02*
X191021095Y-86644095D01*
X191044904Y-86679809D01*
X191068714Y-86703619D01*
X191092523Y-86715523D01*
X190711571Y-86894095D02*
X190854428Y-86894095D01*
X190783000Y-86894095D02*
X190783000Y-86644095D01*
X190806809Y-86679809D01*
X190830619Y-86703619D01*
X190854428Y-86715523D01*
X190473476Y-86894095D02*
X190616333Y-86894095D01*
X190544904Y-86894095D02*
X190544904Y-86644095D01*
X190568714Y-86679809D01*
X190592523Y-86703619D01*
X190616333Y-86715523D01*
X191139761Y-85659095D02*
X191223095Y-85540047D01*
X191282619Y-85659095D02*
X191282619Y-85409095D01*
X191187380Y-85409095D01*
X191163571Y-85421000D01*
X191151666Y-85432904D01*
X191139761Y-85456714D01*
X191139761Y-85492428D01*
X191151666Y-85516238D01*
X191163571Y-85528142D01*
X191187380Y-85540047D01*
X191282619Y-85540047D01*
X190901666Y-85659095D02*
X191044523Y-85659095D01*
X190973095Y-85659095D02*
X190973095Y-85409095D01*
X190996904Y-85444809D01*
X191020714Y-85468619D01*
X191044523Y-85480523D01*
X190663571Y-85659095D02*
X190806428Y-85659095D01*
X190735000Y-85659095D02*
X190735000Y-85409095D01*
X190758809Y-85444809D01*
X190782619Y-85468619D01*
X190806428Y-85480523D01*
X190508809Y-85409095D02*
X190485000Y-85409095D01*
X190461190Y-85421000D01*
X190449285Y-85432904D01*
X190437380Y-85456714D01*
X190425476Y-85504333D01*
X190425476Y-85563857D01*
X190437380Y-85611476D01*
X190449285Y-85635285D01*
X190461190Y-85647190D01*
X190485000Y-85659095D01*
X190508809Y-85659095D01*
X190532619Y-85647190D01*
X190544523Y-85635285D01*
X190556428Y-85611476D01*
X190568333Y-85563857D01*
X190568333Y-85504333D01*
X190556428Y-85456714D01*
X190544523Y-85432904D01*
X190532619Y-85421000D01*
X190508809Y-85409095D01*
X191139761Y-84479095D02*
X191223095Y-84360047D01*
X191282619Y-84479095D02*
X191282619Y-84229095D01*
X191187380Y-84229095D01*
X191163571Y-84241000D01*
X191151666Y-84252904D01*
X191139761Y-84276714D01*
X191139761Y-84312428D01*
X191151666Y-84336238D01*
X191163571Y-84348142D01*
X191187380Y-84360047D01*
X191282619Y-84360047D01*
X190901666Y-84479095D02*
X191044523Y-84479095D01*
X190973095Y-84479095D02*
X190973095Y-84229095D01*
X190996904Y-84264809D01*
X191020714Y-84288619D01*
X191044523Y-84300523D01*
X190746904Y-84229095D02*
X190723095Y-84229095D01*
X190699285Y-84241000D01*
X190687380Y-84252904D01*
X190675476Y-84276714D01*
X190663571Y-84324333D01*
X190663571Y-84383857D01*
X190675476Y-84431476D01*
X190687380Y-84455285D01*
X190699285Y-84467190D01*
X190723095Y-84479095D01*
X190746904Y-84479095D01*
X190770714Y-84467190D01*
X190782619Y-84455285D01*
X190794523Y-84431476D01*
X190806428Y-84383857D01*
X190806428Y-84324333D01*
X190794523Y-84276714D01*
X190782619Y-84252904D01*
X190770714Y-84241000D01*
X190746904Y-84229095D01*
X190544523Y-84479095D02*
X190496904Y-84479095D01*
X190473095Y-84467190D01*
X190461190Y-84455285D01*
X190437380Y-84419571D01*
X190425476Y-84371952D01*
X190425476Y-84276714D01*
X190437380Y-84252904D01*
X190449285Y-84241000D01*
X190473095Y-84229095D01*
X190520714Y-84229095D01*
X190544523Y-84241000D01*
X190556428Y-84252904D01*
X190568333Y-84276714D01*
X190568333Y-84336238D01*
X190556428Y-84360047D01*
X190544523Y-84371952D01*
X190520714Y-84383857D01*
X190473095Y-84383857D01*
X190449285Y-84371952D01*
X190437380Y-84360047D01*
X190425476Y-84336238D01*
X191199761Y-83309095D02*
X191283095Y-83190047D01*
X191342619Y-83309095D02*
X191342619Y-83059095D01*
X191247380Y-83059095D01*
X191223571Y-83071000D01*
X191211666Y-83082904D01*
X191199761Y-83106714D01*
X191199761Y-83142428D01*
X191211666Y-83166238D01*
X191223571Y-83178142D01*
X191247380Y-83190047D01*
X191342619Y-83190047D01*
X190961666Y-83309095D02*
X191104523Y-83309095D01*
X191033095Y-83309095D02*
X191033095Y-83059095D01*
X191056904Y-83094809D01*
X191080714Y-83118619D01*
X191104523Y-83130523D01*
X190806904Y-83059095D02*
X190783095Y-83059095D01*
X190759285Y-83071000D01*
X190747380Y-83082904D01*
X190735476Y-83106714D01*
X190723571Y-83154333D01*
X190723571Y-83213857D01*
X190735476Y-83261476D01*
X190747380Y-83285285D01*
X190759285Y-83297190D01*
X190783095Y-83309095D01*
X190806904Y-83309095D01*
X190830714Y-83297190D01*
X190842619Y-83285285D01*
X190854523Y-83261476D01*
X190866428Y-83213857D01*
X190866428Y-83154333D01*
X190854523Y-83106714D01*
X190842619Y-83082904D01*
X190830714Y-83071000D01*
X190806904Y-83059095D01*
X190580714Y-83166238D02*
X190604523Y-83154333D01*
X190616428Y-83142428D01*
X190628333Y-83118619D01*
X190628333Y-83106714D01*
X190616428Y-83082904D01*
X190604523Y-83071000D01*
X190580714Y-83059095D01*
X190533095Y-83059095D01*
X190509285Y-83071000D01*
X190497380Y-83082904D01*
X190485476Y-83106714D01*
X190485476Y-83118619D01*
X190497380Y-83142428D01*
X190509285Y-83154333D01*
X190533095Y-83166238D01*
X190580714Y-83166238D01*
X190604523Y-83178142D01*
X190616428Y-83190047D01*
X190628333Y-83213857D01*
X190628333Y-83261476D01*
X190616428Y-83285285D01*
X190604523Y-83297190D01*
X190580714Y-83309095D01*
X190533095Y-83309095D01*
X190509285Y-83297190D01*
X190497380Y-83285285D01*
X190485476Y-83261476D01*
X190485476Y-83213857D01*
X190497380Y-83190047D01*
X190509285Y-83178142D01*
X190533095Y-83166238D01*
X191204761Y-82202095D02*
X191288095Y-82083047D01*
X191347619Y-82202095D02*
X191347619Y-81952095D01*
X191252380Y-81952095D01*
X191228571Y-81964000D01*
X191216666Y-81975904D01*
X191204761Y-81999714D01*
X191204761Y-82035428D01*
X191216666Y-82059238D01*
X191228571Y-82071142D01*
X191252380Y-82083047D01*
X191347619Y-82083047D01*
X190966666Y-82202095D02*
X191109523Y-82202095D01*
X191038095Y-82202095D02*
X191038095Y-81952095D01*
X191061904Y-81987809D01*
X191085714Y-82011619D01*
X191109523Y-82023523D01*
X190811904Y-81952095D02*
X190788095Y-81952095D01*
X190764285Y-81964000D01*
X190752380Y-81975904D01*
X190740476Y-81999714D01*
X190728571Y-82047333D01*
X190728571Y-82106857D01*
X190740476Y-82154476D01*
X190752380Y-82178285D01*
X190764285Y-82190190D01*
X190788095Y-82202095D01*
X190811904Y-82202095D01*
X190835714Y-82190190D01*
X190847619Y-82178285D01*
X190859523Y-82154476D01*
X190871428Y-82106857D01*
X190871428Y-82047333D01*
X190859523Y-81999714D01*
X190847619Y-81975904D01*
X190835714Y-81964000D01*
X190811904Y-81952095D01*
X190645238Y-81952095D02*
X190478571Y-81952095D01*
X190585714Y-82202095D01*
X191224761Y-81236095D02*
X191308095Y-81117047D01*
X191367619Y-81236095D02*
X191367619Y-80986095D01*
X191272380Y-80986095D01*
X191248571Y-80998000D01*
X191236666Y-81009904D01*
X191224761Y-81033714D01*
X191224761Y-81069428D01*
X191236666Y-81093238D01*
X191248571Y-81105142D01*
X191272380Y-81117047D01*
X191367619Y-81117047D01*
X190986666Y-81236095D02*
X191129523Y-81236095D01*
X191058095Y-81236095D02*
X191058095Y-80986095D01*
X191081904Y-81021809D01*
X191105714Y-81045619D01*
X191129523Y-81057523D01*
X190831904Y-80986095D02*
X190808095Y-80986095D01*
X190784285Y-80998000D01*
X190772380Y-81009904D01*
X190760476Y-81033714D01*
X190748571Y-81081333D01*
X190748571Y-81140857D01*
X190760476Y-81188476D01*
X190772380Y-81212285D01*
X190784285Y-81224190D01*
X190808095Y-81236095D01*
X190831904Y-81236095D01*
X190855714Y-81224190D01*
X190867619Y-81212285D01*
X190879523Y-81188476D01*
X190891428Y-81140857D01*
X190891428Y-81081333D01*
X190879523Y-81033714D01*
X190867619Y-81009904D01*
X190855714Y-80998000D01*
X190831904Y-80986095D01*
X190534285Y-80986095D02*
X190581904Y-80986095D01*
X190605714Y-80998000D01*
X190617619Y-81009904D01*
X190641428Y-81045619D01*
X190653333Y-81093238D01*
X190653333Y-81188476D01*
X190641428Y-81212285D01*
X190629523Y-81224190D01*
X190605714Y-81236095D01*
X190558095Y-81236095D01*
X190534285Y-81224190D01*
X190522380Y-81212285D01*
X190510476Y-81188476D01*
X190510476Y-81128952D01*
X190522380Y-81105142D01*
X190534285Y-81093238D01*
X190558095Y-81081333D01*
X190605714Y-81081333D01*
X190629523Y-81093238D01*
X190641428Y-81105142D01*
X190653333Y-81128952D01*
X191194761Y-78218095D02*
X191278095Y-78099047D01*
X191337619Y-78218095D02*
X191337619Y-77968095D01*
X191242380Y-77968095D01*
X191218571Y-77980000D01*
X191206666Y-77991904D01*
X191194761Y-78015714D01*
X191194761Y-78051428D01*
X191206666Y-78075238D01*
X191218571Y-78087142D01*
X191242380Y-78099047D01*
X191337619Y-78099047D01*
X190956666Y-78218095D02*
X191099523Y-78218095D01*
X191028095Y-78218095D02*
X191028095Y-77968095D01*
X191051904Y-78003809D01*
X191075714Y-78027619D01*
X191099523Y-78039523D01*
X190801904Y-77968095D02*
X190778095Y-77968095D01*
X190754285Y-77980000D01*
X190742380Y-77991904D01*
X190730476Y-78015714D01*
X190718571Y-78063333D01*
X190718571Y-78122857D01*
X190730476Y-78170476D01*
X190742380Y-78194285D01*
X190754285Y-78206190D01*
X190778095Y-78218095D01*
X190801904Y-78218095D01*
X190825714Y-78206190D01*
X190837619Y-78194285D01*
X190849523Y-78170476D01*
X190861428Y-78122857D01*
X190861428Y-78063333D01*
X190849523Y-78015714D01*
X190837619Y-77991904D01*
X190825714Y-77980000D01*
X190801904Y-77968095D01*
X190492380Y-77968095D02*
X190611428Y-77968095D01*
X190623333Y-78087142D01*
X190611428Y-78075238D01*
X190587619Y-78063333D01*
X190528095Y-78063333D01*
X190504285Y-78075238D01*
X190492380Y-78087142D01*
X190480476Y-78110952D01*
X190480476Y-78170476D01*
X190492380Y-78194285D01*
X190504285Y-78206190D01*
X190528095Y-78218095D01*
X190587619Y-78218095D01*
X190611428Y-78206190D01*
X190623333Y-78194285D01*
X191164761Y-77242095D02*
X191248095Y-77123047D01*
X191307619Y-77242095D02*
X191307619Y-76992095D01*
X191212380Y-76992095D01*
X191188571Y-77004000D01*
X191176666Y-77015904D01*
X191164761Y-77039714D01*
X191164761Y-77075428D01*
X191176666Y-77099238D01*
X191188571Y-77111142D01*
X191212380Y-77123047D01*
X191307619Y-77123047D01*
X190926666Y-77242095D02*
X191069523Y-77242095D01*
X190998095Y-77242095D02*
X190998095Y-76992095D01*
X191021904Y-77027809D01*
X191045714Y-77051619D01*
X191069523Y-77063523D01*
X190771904Y-76992095D02*
X190748095Y-76992095D01*
X190724285Y-77004000D01*
X190712380Y-77015904D01*
X190700476Y-77039714D01*
X190688571Y-77087333D01*
X190688571Y-77146857D01*
X190700476Y-77194476D01*
X190712380Y-77218285D01*
X190724285Y-77230190D01*
X190748095Y-77242095D01*
X190771904Y-77242095D01*
X190795714Y-77230190D01*
X190807619Y-77218285D01*
X190819523Y-77194476D01*
X190831428Y-77146857D01*
X190831428Y-77087333D01*
X190819523Y-77039714D01*
X190807619Y-77015904D01*
X190795714Y-77004000D01*
X190771904Y-76992095D01*
X190474285Y-77075428D02*
X190474285Y-77242095D01*
X190533809Y-76980190D02*
X190593333Y-77158761D01*
X190438571Y-77158761D01*
X191064761Y-76206095D02*
X191148095Y-76087047D01*
X191207619Y-76206095D02*
X191207619Y-75956095D01*
X191112380Y-75956095D01*
X191088571Y-75968000D01*
X191076666Y-75979904D01*
X191064761Y-76003714D01*
X191064761Y-76039428D01*
X191076666Y-76063238D01*
X191088571Y-76075142D01*
X191112380Y-76087047D01*
X191207619Y-76087047D01*
X190826666Y-76206095D02*
X190969523Y-76206095D01*
X190898095Y-76206095D02*
X190898095Y-75956095D01*
X190921904Y-75991809D01*
X190945714Y-76015619D01*
X190969523Y-76027523D01*
X190671904Y-75956095D02*
X190648095Y-75956095D01*
X190624285Y-75968000D01*
X190612380Y-75979904D01*
X190600476Y-76003714D01*
X190588571Y-76051333D01*
X190588571Y-76110857D01*
X190600476Y-76158476D01*
X190612380Y-76182285D01*
X190624285Y-76194190D01*
X190648095Y-76206095D01*
X190671904Y-76206095D01*
X190695714Y-76194190D01*
X190707619Y-76182285D01*
X190719523Y-76158476D01*
X190731428Y-76110857D01*
X190731428Y-76051333D01*
X190719523Y-76003714D01*
X190707619Y-75979904D01*
X190695714Y-75968000D01*
X190671904Y-75956095D01*
X190505238Y-75956095D02*
X190350476Y-75956095D01*
X190433809Y-76051333D01*
X190398095Y-76051333D01*
X190374285Y-76063238D01*
X190362380Y-76075142D01*
X190350476Y-76098952D01*
X190350476Y-76158476D01*
X190362380Y-76182285D01*
X190374285Y-76194190D01*
X190398095Y-76206095D01*
X190469523Y-76206095D01*
X190493333Y-76194190D01*
X190505238Y-76182285D01*
X191149761Y-75180095D02*
X191233095Y-75061047D01*
X191292619Y-75180095D02*
X191292619Y-74930095D01*
X191197380Y-74930095D01*
X191173571Y-74942000D01*
X191161666Y-74953904D01*
X191149761Y-74977714D01*
X191149761Y-75013428D01*
X191161666Y-75037238D01*
X191173571Y-75049142D01*
X191197380Y-75061047D01*
X191292619Y-75061047D01*
X190911666Y-75180095D02*
X191054523Y-75180095D01*
X190983095Y-75180095D02*
X190983095Y-74930095D01*
X191006904Y-74965809D01*
X191030714Y-74989619D01*
X191054523Y-75001523D01*
X190756904Y-74930095D02*
X190733095Y-74930095D01*
X190709285Y-74942000D01*
X190697380Y-74953904D01*
X190685476Y-74977714D01*
X190673571Y-75025333D01*
X190673571Y-75084857D01*
X190685476Y-75132476D01*
X190697380Y-75156285D01*
X190709285Y-75168190D01*
X190733095Y-75180095D01*
X190756904Y-75180095D01*
X190780714Y-75168190D01*
X190792619Y-75156285D01*
X190804523Y-75132476D01*
X190816428Y-75084857D01*
X190816428Y-75025333D01*
X190804523Y-74977714D01*
X190792619Y-74953904D01*
X190780714Y-74942000D01*
X190756904Y-74930095D01*
X190578333Y-74953904D02*
X190566428Y-74942000D01*
X190542619Y-74930095D01*
X190483095Y-74930095D01*
X190459285Y-74942000D01*
X190447380Y-74953904D01*
X190435476Y-74977714D01*
X190435476Y-75001523D01*
X190447380Y-75037238D01*
X190590238Y-75180095D01*
X190435476Y-75180095D01*
X191144761Y-73158095D02*
X191228095Y-73039047D01*
X191287619Y-73158095D02*
X191287619Y-72908095D01*
X191192380Y-72908095D01*
X191168571Y-72920000D01*
X191156666Y-72931904D01*
X191144761Y-72955714D01*
X191144761Y-72991428D01*
X191156666Y-73015238D01*
X191168571Y-73027142D01*
X191192380Y-73039047D01*
X191287619Y-73039047D01*
X190906666Y-73158095D02*
X191049523Y-73158095D01*
X190978095Y-73158095D02*
X190978095Y-72908095D01*
X191001904Y-72943809D01*
X191025714Y-72967619D01*
X191049523Y-72979523D01*
X190751904Y-72908095D02*
X190728095Y-72908095D01*
X190704285Y-72920000D01*
X190692380Y-72931904D01*
X190680476Y-72955714D01*
X190668571Y-73003333D01*
X190668571Y-73062857D01*
X190680476Y-73110476D01*
X190692380Y-73134285D01*
X190704285Y-73146190D01*
X190728095Y-73158095D01*
X190751904Y-73158095D01*
X190775714Y-73146190D01*
X190787619Y-73134285D01*
X190799523Y-73110476D01*
X190811428Y-73062857D01*
X190811428Y-73003333D01*
X190799523Y-72955714D01*
X190787619Y-72931904D01*
X190775714Y-72920000D01*
X190751904Y-72908095D01*
X190430476Y-73158095D02*
X190573333Y-73158095D01*
X190501904Y-73158095D02*
X190501904Y-72908095D01*
X190525714Y-72943809D01*
X190549523Y-72967619D01*
X190573333Y-72979523D01*
X191114761Y-72192095D02*
X191198095Y-72073047D01*
X191257619Y-72192095D02*
X191257619Y-71942095D01*
X191162380Y-71942095D01*
X191138571Y-71954000D01*
X191126666Y-71965904D01*
X191114761Y-71989714D01*
X191114761Y-72025428D01*
X191126666Y-72049238D01*
X191138571Y-72061142D01*
X191162380Y-72073047D01*
X191257619Y-72073047D01*
X190876666Y-72192095D02*
X191019523Y-72192095D01*
X190948095Y-72192095D02*
X190948095Y-71942095D01*
X190971904Y-71977809D01*
X190995714Y-72001619D01*
X191019523Y-72013523D01*
X190721904Y-71942095D02*
X190698095Y-71942095D01*
X190674285Y-71954000D01*
X190662380Y-71965904D01*
X190650476Y-71989714D01*
X190638571Y-72037333D01*
X190638571Y-72096857D01*
X190650476Y-72144476D01*
X190662380Y-72168285D01*
X190674285Y-72180190D01*
X190698095Y-72192095D01*
X190721904Y-72192095D01*
X190745714Y-72180190D01*
X190757619Y-72168285D01*
X190769523Y-72144476D01*
X190781428Y-72096857D01*
X190781428Y-72037333D01*
X190769523Y-71989714D01*
X190757619Y-71965904D01*
X190745714Y-71954000D01*
X190721904Y-71942095D01*
X190483809Y-71942095D02*
X190460000Y-71942095D01*
X190436190Y-71954000D01*
X190424285Y-71965904D01*
X190412380Y-71989714D01*
X190400476Y-72037333D01*
X190400476Y-72096857D01*
X190412380Y-72144476D01*
X190424285Y-72168285D01*
X190436190Y-72180190D01*
X190460000Y-72192095D01*
X190483809Y-72192095D01*
X190507619Y-72180190D01*
X190519523Y-72168285D01*
X190531428Y-72144476D01*
X190543333Y-72096857D01*
X190543333Y-72037333D01*
X190531428Y-71989714D01*
X190519523Y-71965904D01*
X190507619Y-71954000D01*
X190483809Y-71942095D01*
X186282095Y-67850285D02*
X186163047Y-67766952D01*
X186282095Y-67707428D02*
X186032095Y-67707428D01*
X186032095Y-67802666D01*
X186044000Y-67826476D01*
X186055904Y-67838380D01*
X186079714Y-67850285D01*
X186115428Y-67850285D01*
X186139238Y-67838380D01*
X186151142Y-67826476D01*
X186163047Y-67802666D01*
X186163047Y-67707428D01*
X186282095Y-67969333D02*
X186282095Y-68016952D01*
X186270190Y-68040761D01*
X186258285Y-68052666D01*
X186222571Y-68076476D01*
X186174952Y-68088380D01*
X186079714Y-68088380D01*
X186055904Y-68076476D01*
X186044000Y-68064571D01*
X186032095Y-68040761D01*
X186032095Y-67993142D01*
X186044000Y-67969333D01*
X186055904Y-67957428D01*
X186079714Y-67945523D01*
X186139238Y-67945523D01*
X186163047Y-67957428D01*
X186174952Y-67969333D01*
X186186857Y-67993142D01*
X186186857Y-68040761D01*
X186174952Y-68064571D01*
X186163047Y-68076476D01*
X186139238Y-68088380D01*
X186139238Y-68231238D02*
X186127333Y-68207428D01*
X186115428Y-68195523D01*
X186091619Y-68183619D01*
X186079714Y-68183619D01*
X186055904Y-68195523D01*
X186044000Y-68207428D01*
X186032095Y-68231238D01*
X186032095Y-68278857D01*
X186044000Y-68302666D01*
X186055904Y-68314571D01*
X186079714Y-68326476D01*
X186091619Y-68326476D01*
X186115428Y-68314571D01*
X186127333Y-68302666D01*
X186139238Y-68278857D01*
X186139238Y-68231238D01*
X186151142Y-68207428D01*
X186163047Y-68195523D01*
X186186857Y-68183619D01*
X186234476Y-68183619D01*
X186258285Y-68195523D01*
X186270190Y-68207428D01*
X186282095Y-68231238D01*
X186282095Y-68278857D01*
X186270190Y-68302666D01*
X186258285Y-68314571D01*
X186234476Y-68326476D01*
X186186857Y-68326476D01*
X186163047Y-68314571D01*
X186151142Y-68302666D01*
X186139238Y-68278857D01*
X184788095Y-67723285D02*
X184669047Y-67639952D01*
X184788095Y-67580428D02*
X184538095Y-67580428D01*
X184538095Y-67675666D01*
X184550000Y-67699476D01*
X184561904Y-67711380D01*
X184585714Y-67723285D01*
X184621428Y-67723285D01*
X184645238Y-67711380D01*
X184657142Y-67699476D01*
X184669047Y-67675666D01*
X184669047Y-67580428D01*
X184788095Y-67842333D02*
X184788095Y-67889952D01*
X184776190Y-67913761D01*
X184764285Y-67925666D01*
X184728571Y-67949476D01*
X184680952Y-67961380D01*
X184585714Y-67961380D01*
X184561904Y-67949476D01*
X184550000Y-67937571D01*
X184538095Y-67913761D01*
X184538095Y-67866142D01*
X184550000Y-67842333D01*
X184561904Y-67830428D01*
X184585714Y-67818523D01*
X184645238Y-67818523D01*
X184669047Y-67830428D01*
X184680952Y-67842333D01*
X184692857Y-67866142D01*
X184692857Y-67913761D01*
X184680952Y-67937571D01*
X184669047Y-67949476D01*
X184645238Y-67961380D01*
X184538095Y-68044714D02*
X184538095Y-68211380D01*
X184788095Y-68104238D01*
X183678095Y-67833285D02*
X183559047Y-67749952D01*
X183678095Y-67690428D02*
X183428095Y-67690428D01*
X183428095Y-67785666D01*
X183440000Y-67809476D01*
X183451904Y-67821380D01*
X183475714Y-67833285D01*
X183511428Y-67833285D01*
X183535238Y-67821380D01*
X183547142Y-67809476D01*
X183559047Y-67785666D01*
X183559047Y-67690428D01*
X183678095Y-67952333D02*
X183678095Y-67999952D01*
X183666190Y-68023761D01*
X183654285Y-68035666D01*
X183618571Y-68059476D01*
X183570952Y-68071380D01*
X183475714Y-68071380D01*
X183451904Y-68059476D01*
X183440000Y-68047571D01*
X183428095Y-68023761D01*
X183428095Y-67976142D01*
X183440000Y-67952333D01*
X183451904Y-67940428D01*
X183475714Y-67928523D01*
X183535238Y-67928523D01*
X183559047Y-67940428D01*
X183570952Y-67952333D01*
X183582857Y-67976142D01*
X183582857Y-68023761D01*
X183570952Y-68047571D01*
X183559047Y-68059476D01*
X183535238Y-68071380D01*
X183428095Y-68285666D02*
X183428095Y-68238047D01*
X183440000Y-68214238D01*
X183451904Y-68202333D01*
X183487619Y-68178523D01*
X183535238Y-68166619D01*
X183630476Y-68166619D01*
X183654285Y-68178523D01*
X183666190Y-68190428D01*
X183678095Y-68214238D01*
X183678095Y-68261857D01*
X183666190Y-68285666D01*
X183654285Y-68297571D01*
X183630476Y-68309476D01*
X183570952Y-68309476D01*
X183547142Y-68297571D01*
X183535238Y-68285666D01*
X183523333Y-68261857D01*
X183523333Y-68214238D01*
X183535238Y-68190428D01*
X183547142Y-68178523D01*
X183570952Y-68166619D01*
X168063714Y-73071095D02*
X168147047Y-72952047D01*
X168206571Y-73071095D02*
X168206571Y-72821095D01*
X168111333Y-72821095D01*
X168087523Y-72833000D01*
X168075619Y-72844904D01*
X168063714Y-72868714D01*
X168063714Y-72904428D01*
X168075619Y-72928238D01*
X168087523Y-72940142D01*
X168111333Y-72952047D01*
X168206571Y-72952047D01*
X167920857Y-72928238D02*
X167944666Y-72916333D01*
X167956571Y-72904428D01*
X167968476Y-72880619D01*
X167968476Y-72868714D01*
X167956571Y-72844904D01*
X167944666Y-72833000D01*
X167920857Y-72821095D01*
X167873238Y-72821095D01*
X167849428Y-72833000D01*
X167837523Y-72844904D01*
X167825619Y-72868714D01*
X167825619Y-72880619D01*
X167837523Y-72904428D01*
X167849428Y-72916333D01*
X167873238Y-72928238D01*
X167920857Y-72928238D01*
X167944666Y-72940142D01*
X167956571Y-72952047D01*
X167968476Y-72975857D01*
X167968476Y-73023476D01*
X167956571Y-73047285D01*
X167944666Y-73059190D01*
X167920857Y-73071095D01*
X167873238Y-73071095D01*
X167849428Y-73059190D01*
X167837523Y-73047285D01*
X167825619Y-73023476D01*
X167825619Y-72975857D01*
X167837523Y-72952047D01*
X167849428Y-72940142D01*
X167873238Y-72928238D01*
X167706571Y-73071095D02*
X167658952Y-73071095D01*
X167635142Y-73059190D01*
X167623238Y-73047285D01*
X167599428Y-73011571D01*
X167587523Y-72963952D01*
X167587523Y-72868714D01*
X167599428Y-72844904D01*
X167611333Y-72833000D01*
X167635142Y-72821095D01*
X167682761Y-72821095D01*
X167706571Y-72833000D01*
X167718476Y-72844904D01*
X167730380Y-72868714D01*
X167730380Y-72928238D01*
X167718476Y-72952047D01*
X167706571Y-72963952D01*
X167682761Y-72975857D01*
X167635142Y-72975857D01*
X167611333Y-72963952D01*
X167599428Y-72952047D01*
X167587523Y-72928238D01*
X170054714Y-72155095D02*
X170138047Y-72036047D01*
X170197571Y-72155095D02*
X170197571Y-71905095D01*
X170102333Y-71905095D01*
X170078523Y-71917000D01*
X170066619Y-71928904D01*
X170054714Y-71952714D01*
X170054714Y-71988428D01*
X170066619Y-72012238D01*
X170078523Y-72024142D01*
X170102333Y-72036047D01*
X170197571Y-72036047D01*
X169911857Y-72012238D02*
X169935666Y-72000333D01*
X169947571Y-71988428D01*
X169959476Y-71964619D01*
X169959476Y-71952714D01*
X169947571Y-71928904D01*
X169935666Y-71917000D01*
X169911857Y-71905095D01*
X169864238Y-71905095D01*
X169840428Y-71917000D01*
X169828523Y-71928904D01*
X169816619Y-71952714D01*
X169816619Y-71964619D01*
X169828523Y-71988428D01*
X169840428Y-72000333D01*
X169864238Y-72012238D01*
X169911857Y-72012238D01*
X169935666Y-72024142D01*
X169947571Y-72036047D01*
X169959476Y-72059857D01*
X169959476Y-72107476D01*
X169947571Y-72131285D01*
X169935666Y-72143190D01*
X169911857Y-72155095D01*
X169864238Y-72155095D01*
X169840428Y-72143190D01*
X169828523Y-72131285D01*
X169816619Y-72107476D01*
X169816619Y-72059857D01*
X169828523Y-72036047D01*
X169840428Y-72024142D01*
X169864238Y-72012238D01*
X169673761Y-72012238D02*
X169697571Y-72000333D01*
X169709476Y-71988428D01*
X169721380Y-71964619D01*
X169721380Y-71952714D01*
X169709476Y-71928904D01*
X169697571Y-71917000D01*
X169673761Y-71905095D01*
X169626142Y-71905095D01*
X169602333Y-71917000D01*
X169590428Y-71928904D01*
X169578523Y-71952714D01*
X169578523Y-71964619D01*
X169590428Y-71988428D01*
X169602333Y-72000333D01*
X169626142Y-72012238D01*
X169673761Y-72012238D01*
X169697571Y-72024142D01*
X169709476Y-72036047D01*
X169721380Y-72059857D01*
X169721380Y-72107476D01*
X169709476Y-72131285D01*
X169697571Y-72143190D01*
X169673761Y-72155095D01*
X169626142Y-72155095D01*
X169602333Y-72143190D01*
X169590428Y-72131285D01*
X169578523Y-72107476D01*
X169578523Y-72059857D01*
X169590428Y-72036047D01*
X169602333Y-72024142D01*
X169626142Y-72012238D01*
X177963714Y-70688095D02*
X178047047Y-70569047D01*
X178106571Y-70688095D02*
X178106571Y-70438095D01*
X178011333Y-70438095D01*
X177987523Y-70450000D01*
X177975619Y-70461904D01*
X177963714Y-70485714D01*
X177963714Y-70521428D01*
X177975619Y-70545238D01*
X177987523Y-70557142D01*
X178011333Y-70569047D01*
X178106571Y-70569047D01*
X177820857Y-70545238D02*
X177844666Y-70533333D01*
X177856571Y-70521428D01*
X177868476Y-70497619D01*
X177868476Y-70485714D01*
X177856571Y-70461904D01*
X177844666Y-70450000D01*
X177820857Y-70438095D01*
X177773238Y-70438095D01*
X177749428Y-70450000D01*
X177737523Y-70461904D01*
X177725619Y-70485714D01*
X177725619Y-70497619D01*
X177737523Y-70521428D01*
X177749428Y-70533333D01*
X177773238Y-70545238D01*
X177820857Y-70545238D01*
X177844666Y-70557142D01*
X177856571Y-70569047D01*
X177868476Y-70592857D01*
X177868476Y-70640476D01*
X177856571Y-70664285D01*
X177844666Y-70676190D01*
X177820857Y-70688095D01*
X177773238Y-70688095D01*
X177749428Y-70676190D01*
X177737523Y-70664285D01*
X177725619Y-70640476D01*
X177725619Y-70592857D01*
X177737523Y-70569047D01*
X177749428Y-70557142D01*
X177773238Y-70545238D01*
X177487523Y-70688095D02*
X177630380Y-70688095D01*
X177558952Y-70688095D02*
X177558952Y-70438095D01*
X177582761Y-70473809D01*
X177606571Y-70497619D01*
X177630380Y-70509523D01*
X172695714Y-71273095D02*
X172779047Y-71154047D01*
X172838571Y-71273095D02*
X172838571Y-71023095D01*
X172743333Y-71023095D01*
X172719523Y-71035000D01*
X172707619Y-71046904D01*
X172695714Y-71070714D01*
X172695714Y-71106428D01*
X172707619Y-71130238D01*
X172719523Y-71142142D01*
X172743333Y-71154047D01*
X172838571Y-71154047D01*
X172612380Y-71023095D02*
X172445714Y-71023095D01*
X172552857Y-71273095D01*
X172338571Y-71273095D02*
X172290952Y-71273095D01*
X172267142Y-71261190D01*
X172255238Y-71249285D01*
X172231428Y-71213571D01*
X172219523Y-71165952D01*
X172219523Y-71070714D01*
X172231428Y-71046904D01*
X172243333Y-71035000D01*
X172267142Y-71023095D01*
X172314761Y-71023095D01*
X172338571Y-71035000D01*
X172350476Y-71046904D01*
X172362380Y-71070714D01*
X172362380Y-71130238D01*
X172350476Y-71154047D01*
X172338571Y-71165952D01*
X172314761Y-71177857D01*
X172267142Y-71177857D01*
X172243333Y-71165952D01*
X172231428Y-71154047D01*
X172219523Y-71130238D01*
X163892714Y-104106095D02*
X163976047Y-103987047D01*
X164035571Y-104106095D02*
X164035571Y-103856095D01*
X163940333Y-103856095D01*
X163916523Y-103868000D01*
X163904619Y-103879904D01*
X163892714Y-103903714D01*
X163892714Y-103939428D01*
X163904619Y-103963238D01*
X163916523Y-103975142D01*
X163940333Y-103987047D01*
X164035571Y-103987047D01*
X163809380Y-103856095D02*
X163642714Y-103856095D01*
X163749857Y-104106095D01*
X163571285Y-103856095D02*
X163404619Y-103856095D01*
X163511761Y-104106095D01*
X163872714Y-105199095D02*
X163956047Y-105080047D01*
X164015571Y-105199095D02*
X164015571Y-104949095D01*
X163920333Y-104949095D01*
X163896523Y-104961000D01*
X163884619Y-104972904D01*
X163872714Y-104996714D01*
X163872714Y-105032428D01*
X163884619Y-105056238D01*
X163896523Y-105068142D01*
X163920333Y-105080047D01*
X164015571Y-105080047D01*
X163789380Y-104949095D02*
X163622714Y-104949095D01*
X163729857Y-105199095D01*
X163420333Y-104949095D02*
X163467952Y-104949095D01*
X163491761Y-104961000D01*
X163503666Y-104972904D01*
X163527476Y-105008619D01*
X163539380Y-105056238D01*
X163539380Y-105151476D01*
X163527476Y-105175285D01*
X163515571Y-105187190D01*
X163491761Y-105199095D01*
X163444142Y-105199095D01*
X163420333Y-105187190D01*
X163408428Y-105175285D01*
X163396523Y-105151476D01*
X163396523Y-105091952D01*
X163408428Y-105068142D01*
X163420333Y-105056238D01*
X163444142Y-105044333D01*
X163491761Y-105044333D01*
X163515571Y-105056238D01*
X163527476Y-105068142D01*
X163539380Y-105091952D01*
X163935714Y-106529095D02*
X164019047Y-106410047D01*
X164078571Y-106529095D02*
X164078571Y-106279095D01*
X163983333Y-106279095D01*
X163959523Y-106291000D01*
X163947619Y-106302904D01*
X163935714Y-106326714D01*
X163935714Y-106362428D01*
X163947619Y-106386238D01*
X163959523Y-106398142D01*
X163983333Y-106410047D01*
X164078571Y-106410047D01*
X163852380Y-106279095D02*
X163685714Y-106279095D01*
X163792857Y-106529095D01*
X163471428Y-106279095D02*
X163590476Y-106279095D01*
X163602380Y-106398142D01*
X163590476Y-106386238D01*
X163566666Y-106374333D01*
X163507142Y-106374333D01*
X163483333Y-106386238D01*
X163471428Y-106398142D01*
X163459523Y-106421952D01*
X163459523Y-106481476D01*
X163471428Y-106505285D01*
X163483333Y-106517190D01*
X163507142Y-106529095D01*
X163566666Y-106529095D01*
X163590476Y-106517190D01*
X163602380Y-106505285D01*
X181335114Y-110406095D02*
X181418447Y-110287047D01*
X181477971Y-110406095D02*
X181477971Y-110156095D01*
X181382733Y-110156095D01*
X181358923Y-110168000D01*
X181347019Y-110179904D01*
X181335114Y-110203714D01*
X181335114Y-110239428D01*
X181347019Y-110263238D01*
X181358923Y-110275142D01*
X181382733Y-110287047D01*
X181477971Y-110287047D01*
X181120828Y-110156095D02*
X181168447Y-110156095D01*
X181192257Y-110168000D01*
X181204161Y-110179904D01*
X181227971Y-110215619D01*
X181239876Y-110263238D01*
X181239876Y-110358476D01*
X181227971Y-110382285D01*
X181216066Y-110394190D01*
X181192257Y-110406095D01*
X181144638Y-110406095D01*
X181120828Y-110394190D01*
X181108923Y-110382285D01*
X181097019Y-110358476D01*
X181097019Y-110298952D01*
X181108923Y-110275142D01*
X181120828Y-110263238D01*
X181144638Y-110251333D01*
X181192257Y-110251333D01*
X181216066Y-110263238D01*
X181227971Y-110275142D01*
X181239876Y-110298952D01*
X181013685Y-110156095D02*
X180847019Y-110156095D01*
X180954161Y-110406095D01*
X181216714Y-109353095D02*
X181300047Y-109234047D01*
X181359571Y-109353095D02*
X181359571Y-109103095D01*
X181264333Y-109103095D01*
X181240523Y-109115000D01*
X181228619Y-109126904D01*
X181216714Y-109150714D01*
X181216714Y-109186428D01*
X181228619Y-109210238D01*
X181240523Y-109222142D01*
X181264333Y-109234047D01*
X181359571Y-109234047D01*
X181002428Y-109103095D02*
X181050047Y-109103095D01*
X181073857Y-109115000D01*
X181085761Y-109126904D01*
X181109571Y-109162619D01*
X181121476Y-109210238D01*
X181121476Y-109305476D01*
X181109571Y-109329285D01*
X181097666Y-109341190D01*
X181073857Y-109353095D01*
X181026238Y-109353095D01*
X181002428Y-109341190D01*
X180990523Y-109329285D01*
X180978619Y-109305476D01*
X180978619Y-109245952D01*
X180990523Y-109222142D01*
X181002428Y-109210238D01*
X181026238Y-109198333D01*
X181073857Y-109198333D01*
X181097666Y-109210238D01*
X181109571Y-109222142D01*
X181121476Y-109245952D01*
X180764333Y-109103095D02*
X180811952Y-109103095D01*
X180835761Y-109115000D01*
X180847666Y-109126904D01*
X180871476Y-109162619D01*
X180883380Y-109210238D01*
X180883380Y-109305476D01*
X180871476Y-109329285D01*
X180859571Y-109341190D01*
X180835761Y-109353095D01*
X180788142Y-109353095D01*
X180764333Y-109341190D01*
X180752428Y-109329285D01*
X180740523Y-109305476D01*
X180740523Y-109245952D01*
X180752428Y-109222142D01*
X180764333Y-109210238D01*
X180788142Y-109198333D01*
X180835761Y-109198333D01*
X180859571Y-109210238D01*
X180871476Y-109222142D01*
X180883380Y-109245952D01*
X181383714Y-107722095D02*
X181467047Y-107603047D01*
X181526571Y-107722095D02*
X181526571Y-107472095D01*
X181431333Y-107472095D01*
X181407523Y-107484000D01*
X181395619Y-107495904D01*
X181383714Y-107519714D01*
X181383714Y-107555428D01*
X181395619Y-107579238D01*
X181407523Y-107591142D01*
X181431333Y-107603047D01*
X181526571Y-107603047D01*
X181169428Y-107472095D02*
X181217047Y-107472095D01*
X181240857Y-107484000D01*
X181252761Y-107495904D01*
X181276571Y-107531619D01*
X181288476Y-107579238D01*
X181288476Y-107674476D01*
X181276571Y-107698285D01*
X181264666Y-107710190D01*
X181240857Y-107722095D01*
X181193238Y-107722095D01*
X181169428Y-107710190D01*
X181157523Y-107698285D01*
X181145619Y-107674476D01*
X181145619Y-107614952D01*
X181157523Y-107591142D01*
X181169428Y-107579238D01*
X181193238Y-107567333D01*
X181240857Y-107567333D01*
X181264666Y-107579238D01*
X181276571Y-107591142D01*
X181288476Y-107614952D01*
X180919428Y-107472095D02*
X181038476Y-107472095D01*
X181050380Y-107591142D01*
X181038476Y-107579238D01*
X181014666Y-107567333D01*
X180955142Y-107567333D01*
X180931333Y-107579238D01*
X180919428Y-107591142D01*
X180907523Y-107614952D01*
X180907523Y-107674476D01*
X180919428Y-107698285D01*
X180931333Y-107710190D01*
X180955142Y-107722095D01*
X181014666Y-107722095D01*
X181038476Y-107710190D01*
X181050380Y-107698285D01*
X137655695Y-92828685D02*
X137536647Y-92745352D01*
X137655695Y-92685828D02*
X137405695Y-92685828D01*
X137405695Y-92781066D01*
X137417600Y-92804876D01*
X137429504Y-92816780D01*
X137453314Y-92828685D01*
X137489028Y-92828685D01*
X137512838Y-92816780D01*
X137524742Y-92804876D01*
X137536647Y-92781066D01*
X137536647Y-92685828D01*
X137405695Y-93054876D02*
X137405695Y-92935828D01*
X137524742Y-92923923D01*
X137512838Y-92935828D01*
X137500933Y-92959638D01*
X137500933Y-93019161D01*
X137512838Y-93042971D01*
X137524742Y-93054876D01*
X137548552Y-93066780D01*
X137608076Y-93066780D01*
X137631885Y-93054876D01*
X137643790Y-93042971D01*
X137655695Y-93019161D01*
X137655695Y-92959638D01*
X137643790Y-92935828D01*
X137631885Y-92923923D01*
X137489028Y-93281066D02*
X137655695Y-93281066D01*
X137393790Y-93221542D02*
X137572361Y-93162019D01*
X137572361Y-93316780D01*
X129758704Y-96096514D02*
X129877752Y-96179847D01*
X129758704Y-96239371D02*
X130008704Y-96239371D01*
X130008704Y-96144133D01*
X129996800Y-96120323D01*
X129984895Y-96108419D01*
X129961085Y-96096514D01*
X129925371Y-96096514D01*
X129901561Y-96108419D01*
X129889657Y-96120323D01*
X129877752Y-96144133D01*
X129877752Y-96239371D01*
X129925371Y-95882228D02*
X129758704Y-95882228D01*
X130020609Y-95941752D02*
X129842038Y-96001276D01*
X129842038Y-95846514D01*
X130008704Y-95775085D02*
X130008704Y-95608419D01*
X129758704Y-95715561D01*
X131508895Y-98924685D02*
X131389847Y-98841352D01*
X131508895Y-98781828D02*
X131258895Y-98781828D01*
X131258895Y-98877066D01*
X131270800Y-98900876D01*
X131282704Y-98912780D01*
X131306514Y-98924685D01*
X131342228Y-98924685D01*
X131366038Y-98912780D01*
X131377942Y-98900876D01*
X131389847Y-98877066D01*
X131389847Y-98781828D01*
X131342228Y-99138971D02*
X131508895Y-99138971D01*
X131246990Y-99079447D02*
X131425561Y-99019923D01*
X131425561Y-99174685D01*
X131258895Y-99377066D02*
X131258895Y-99329447D01*
X131270800Y-99305638D01*
X131282704Y-99293733D01*
X131318419Y-99269923D01*
X131366038Y-99258019D01*
X131461276Y-99258019D01*
X131485085Y-99269923D01*
X131496990Y-99281828D01*
X131508895Y-99305638D01*
X131508895Y-99353257D01*
X131496990Y-99377066D01*
X131485085Y-99388971D01*
X131461276Y-99400876D01*
X131401752Y-99400876D01*
X131377942Y-99388971D01*
X131366038Y-99377066D01*
X131354133Y-99353257D01*
X131354133Y-99305638D01*
X131366038Y-99281828D01*
X131377942Y-99269923D01*
X131401752Y-99258019D01*
X197922714Y-141691095D02*
X198006047Y-141572047D01*
X198065571Y-141691095D02*
X198065571Y-141441095D01*
X197970333Y-141441095D01*
X197946523Y-141453000D01*
X197934619Y-141464904D01*
X197922714Y-141488714D01*
X197922714Y-141524428D01*
X197934619Y-141548238D01*
X197946523Y-141560142D01*
X197970333Y-141572047D01*
X198065571Y-141572047D01*
X197827476Y-141464904D02*
X197815571Y-141453000D01*
X197791761Y-141441095D01*
X197732238Y-141441095D01*
X197708428Y-141453000D01*
X197696523Y-141464904D01*
X197684619Y-141488714D01*
X197684619Y-141512523D01*
X197696523Y-141548238D01*
X197839380Y-141691095D01*
X197684619Y-141691095D01*
X197565571Y-141691095D02*
X197517952Y-141691095D01*
X197494142Y-141679190D01*
X197482238Y-141667285D01*
X197458428Y-141631571D01*
X197446523Y-141583952D01*
X197446523Y-141488714D01*
X197458428Y-141464904D01*
X197470333Y-141453000D01*
X197494142Y-141441095D01*
X197541761Y-141441095D01*
X197565571Y-141453000D01*
X197577476Y-141464904D01*
X197589380Y-141488714D01*
X197589380Y-141548238D01*
X197577476Y-141572047D01*
X197565571Y-141583952D01*
X197541761Y-141595857D01*
X197494142Y-141595857D01*
X197470333Y-141583952D01*
X197458428Y-141572047D01*
X197446523Y-141548238D01*
X135085514Y-79261095D02*
X135168847Y-79142047D01*
X135228371Y-79261095D02*
X135228371Y-79011095D01*
X135133133Y-79011095D01*
X135109323Y-79023000D01*
X135097419Y-79034904D01*
X135085514Y-79058714D01*
X135085514Y-79094428D01*
X135097419Y-79118238D01*
X135109323Y-79130142D01*
X135133133Y-79142047D01*
X135228371Y-79142047D01*
X134990276Y-79034904D02*
X134978371Y-79023000D01*
X134954561Y-79011095D01*
X134895038Y-79011095D01*
X134871228Y-79023000D01*
X134859323Y-79034904D01*
X134847419Y-79058714D01*
X134847419Y-79082523D01*
X134859323Y-79118238D01*
X135002180Y-79261095D01*
X134847419Y-79261095D01*
X134764085Y-79011095D02*
X134609323Y-79011095D01*
X134692657Y-79106333D01*
X134656942Y-79106333D01*
X134633133Y-79118238D01*
X134621228Y-79130142D01*
X134609323Y-79153952D01*
X134609323Y-79213476D01*
X134621228Y-79237285D01*
X134633133Y-79249190D01*
X134656942Y-79261095D01*
X134728371Y-79261095D01*
X134752180Y-79249190D01*
X134764085Y-79237285D01*
X137168314Y-119948695D02*
X137251647Y-119829647D01*
X137311171Y-119948695D02*
X137311171Y-119698695D01*
X137215933Y-119698695D01*
X137192123Y-119710600D01*
X137180219Y-119722504D01*
X137168314Y-119746314D01*
X137168314Y-119782028D01*
X137180219Y-119805838D01*
X137192123Y-119817742D01*
X137215933Y-119829647D01*
X137311171Y-119829647D01*
X136930219Y-119948695D02*
X137073076Y-119948695D01*
X137001647Y-119948695D02*
X137001647Y-119698695D01*
X137025457Y-119734409D01*
X137049266Y-119758219D01*
X137073076Y-119770123D01*
X136787361Y-119805838D02*
X136811171Y-119793933D01*
X136823076Y-119782028D01*
X136834980Y-119758219D01*
X136834980Y-119746314D01*
X136823076Y-119722504D01*
X136811171Y-119710600D01*
X136787361Y-119698695D01*
X136739742Y-119698695D01*
X136715933Y-119710600D01*
X136704028Y-119722504D01*
X136692123Y-119746314D01*
X136692123Y-119758219D01*
X136704028Y-119782028D01*
X136715933Y-119793933D01*
X136739742Y-119805838D01*
X136787361Y-119805838D01*
X136811171Y-119817742D01*
X136823076Y-119829647D01*
X136834980Y-119853457D01*
X136834980Y-119901076D01*
X136823076Y-119924885D01*
X136811171Y-119936790D01*
X136787361Y-119948695D01*
X136739742Y-119948695D01*
X136715933Y-119936790D01*
X136704028Y-119924885D01*
X136692123Y-119901076D01*
X136692123Y-119853457D01*
X136704028Y-119829647D01*
X136715933Y-119817742D01*
X136739742Y-119805838D01*
X139886114Y-119923295D02*
X139969447Y-119804247D01*
X140028971Y-119923295D02*
X140028971Y-119673295D01*
X139933733Y-119673295D01*
X139909923Y-119685200D01*
X139898019Y-119697104D01*
X139886114Y-119720914D01*
X139886114Y-119756628D01*
X139898019Y-119780438D01*
X139909923Y-119792342D01*
X139933733Y-119804247D01*
X140028971Y-119804247D01*
X139648019Y-119923295D02*
X139790876Y-119923295D01*
X139719447Y-119923295D02*
X139719447Y-119673295D01*
X139743257Y-119709009D01*
X139767066Y-119732819D01*
X139790876Y-119744723D01*
X139564685Y-119673295D02*
X139398019Y-119673295D01*
X139505161Y-119923295D01*
X134651314Y-118831095D02*
X134734647Y-118712047D01*
X134794171Y-118831095D02*
X134794171Y-118581095D01*
X134698933Y-118581095D01*
X134675123Y-118593000D01*
X134663219Y-118604904D01*
X134651314Y-118628714D01*
X134651314Y-118664428D01*
X134663219Y-118688238D01*
X134675123Y-118700142D01*
X134698933Y-118712047D01*
X134794171Y-118712047D01*
X134413219Y-118831095D02*
X134556076Y-118831095D01*
X134484647Y-118831095D02*
X134484647Y-118581095D01*
X134508457Y-118616809D01*
X134532266Y-118640619D01*
X134556076Y-118652523D01*
X134198933Y-118581095D02*
X134246552Y-118581095D01*
X134270361Y-118593000D01*
X134282266Y-118604904D01*
X134306076Y-118640619D01*
X134317980Y-118688238D01*
X134317980Y-118783476D01*
X134306076Y-118807285D01*
X134294171Y-118819190D01*
X134270361Y-118831095D01*
X134222742Y-118831095D01*
X134198933Y-118819190D01*
X134187028Y-118807285D01*
X134175123Y-118783476D01*
X134175123Y-118723952D01*
X134187028Y-118700142D01*
X134198933Y-118688238D01*
X134222742Y-118676333D01*
X134270361Y-118676333D01*
X134294171Y-118688238D01*
X134306076Y-118700142D01*
X134317980Y-118723952D01*
X134579914Y-122466495D02*
X134663247Y-122347447D01*
X134722771Y-122466495D02*
X134722771Y-122216495D01*
X134627533Y-122216495D01*
X134603723Y-122228400D01*
X134591819Y-122240304D01*
X134579914Y-122264114D01*
X134579914Y-122299828D01*
X134591819Y-122323638D01*
X134603723Y-122335542D01*
X134627533Y-122347447D01*
X134722771Y-122347447D01*
X134341819Y-122466495D02*
X134484676Y-122466495D01*
X134413247Y-122466495D02*
X134413247Y-122216495D01*
X134437057Y-122252209D01*
X134460866Y-122276019D01*
X134484676Y-122287923D01*
X134115628Y-122216495D02*
X134234676Y-122216495D01*
X134246580Y-122335542D01*
X134234676Y-122323638D01*
X134210866Y-122311733D01*
X134151342Y-122311733D01*
X134127533Y-122323638D01*
X134115628Y-122335542D01*
X134103723Y-122359352D01*
X134103723Y-122418876D01*
X134115628Y-122442685D01*
X134127533Y-122454590D01*
X134151342Y-122466495D01*
X134210866Y-122466495D01*
X134234676Y-122454590D01*
X134246580Y-122442685D01*
X132062914Y-120177295D02*
X132146247Y-120058247D01*
X132205771Y-120177295D02*
X132205771Y-119927295D01*
X132110533Y-119927295D01*
X132086723Y-119939200D01*
X132074819Y-119951104D01*
X132062914Y-119974914D01*
X132062914Y-120010628D01*
X132074819Y-120034438D01*
X132086723Y-120046342D01*
X132110533Y-120058247D01*
X132205771Y-120058247D01*
X131824819Y-120177295D02*
X131967676Y-120177295D01*
X131896247Y-120177295D02*
X131896247Y-119927295D01*
X131920057Y-119963009D01*
X131943866Y-119986819D01*
X131967676Y-119998723D01*
X131729580Y-119951104D02*
X131717676Y-119939200D01*
X131693866Y-119927295D01*
X131634342Y-119927295D01*
X131610533Y-119939200D01*
X131598628Y-119951104D01*
X131586723Y-119974914D01*
X131586723Y-119998723D01*
X131598628Y-120034438D01*
X131741485Y-120177295D01*
X131586723Y-120177295D01*
X132039914Y-121196495D02*
X132123247Y-121077447D01*
X132182771Y-121196495D02*
X132182771Y-120946495D01*
X132087533Y-120946495D01*
X132063723Y-120958400D01*
X132051819Y-120970304D01*
X132039914Y-120994114D01*
X132039914Y-121029828D01*
X132051819Y-121053638D01*
X132063723Y-121065542D01*
X132087533Y-121077447D01*
X132182771Y-121077447D01*
X131801819Y-121196495D02*
X131944676Y-121196495D01*
X131873247Y-121196495D02*
X131873247Y-120946495D01*
X131897057Y-120982209D01*
X131920866Y-121006019D01*
X131944676Y-121017923D01*
X131563723Y-121196495D02*
X131706580Y-121196495D01*
X131635152Y-121196495D02*
X131635152Y-120946495D01*
X131658961Y-120982209D01*
X131682771Y-121006019D01*
X131706580Y-121017923D01*
X129452266Y-120050295D02*
X129535600Y-119931247D01*
X129595123Y-120050295D02*
X129595123Y-119800295D01*
X129499885Y-119800295D01*
X129476076Y-119812200D01*
X129464171Y-119824104D01*
X129452266Y-119847914D01*
X129452266Y-119883628D01*
X129464171Y-119907438D01*
X129476076Y-119919342D01*
X129499885Y-119931247D01*
X129595123Y-119931247D01*
X129309409Y-119907438D02*
X129333219Y-119895533D01*
X129345123Y-119883628D01*
X129357028Y-119859819D01*
X129357028Y-119847914D01*
X129345123Y-119824104D01*
X129333219Y-119812200D01*
X129309409Y-119800295D01*
X129261790Y-119800295D01*
X129237980Y-119812200D01*
X129226076Y-119824104D01*
X129214171Y-119847914D01*
X129214171Y-119859819D01*
X129226076Y-119883628D01*
X129237980Y-119895533D01*
X129261790Y-119907438D01*
X129309409Y-119907438D01*
X129333219Y-119919342D01*
X129345123Y-119931247D01*
X129357028Y-119955057D01*
X129357028Y-120002676D01*
X129345123Y-120026485D01*
X129333219Y-120038390D01*
X129309409Y-120050295D01*
X129261790Y-120050295D01*
X129237980Y-120038390D01*
X129226076Y-120026485D01*
X129214171Y-120002676D01*
X129214171Y-119955057D01*
X129226076Y-119931247D01*
X129237980Y-119919342D01*
X129261790Y-119907438D01*
X126305066Y-119847095D02*
X126388400Y-119728047D01*
X126447923Y-119847095D02*
X126447923Y-119597095D01*
X126352685Y-119597095D01*
X126328876Y-119609000D01*
X126316971Y-119620904D01*
X126305066Y-119644714D01*
X126305066Y-119680428D01*
X126316971Y-119704238D01*
X126328876Y-119716142D01*
X126352685Y-119728047D01*
X126447923Y-119728047D01*
X126090780Y-119597095D02*
X126138400Y-119597095D01*
X126162209Y-119609000D01*
X126174114Y-119620904D01*
X126197923Y-119656619D01*
X126209828Y-119704238D01*
X126209828Y-119799476D01*
X126197923Y-119823285D01*
X126186019Y-119835190D01*
X126162209Y-119847095D01*
X126114590Y-119847095D01*
X126090780Y-119835190D01*
X126078876Y-119823285D01*
X126066971Y-119799476D01*
X126066971Y-119739952D01*
X126078876Y-119716142D01*
X126090780Y-119704238D01*
X126114590Y-119692333D01*
X126162209Y-119692333D01*
X126186019Y-119704238D01*
X126197923Y-119716142D01*
X126209828Y-119739952D01*
X126330466Y-121069495D02*
X126413800Y-120950447D01*
X126473323Y-121069495D02*
X126473323Y-120819495D01*
X126378085Y-120819495D01*
X126354276Y-120831400D01*
X126342371Y-120843304D01*
X126330466Y-120867114D01*
X126330466Y-120902828D01*
X126342371Y-120926638D01*
X126354276Y-120938542D01*
X126378085Y-120950447D01*
X126473323Y-120950447D01*
X126104276Y-120819495D02*
X126223323Y-120819495D01*
X126235228Y-120938542D01*
X126223323Y-120926638D01*
X126199514Y-120914733D01*
X126139990Y-120914733D01*
X126116180Y-120926638D01*
X126104276Y-120938542D01*
X126092371Y-120962352D01*
X126092371Y-121021876D01*
X126104276Y-121045685D01*
X126116180Y-121057590D01*
X126139990Y-121069495D01*
X126199514Y-121069495D01*
X126223323Y-121057590D01*
X126235228Y-121045685D01*
X168254095Y-138039333D02*
X168135047Y-137956000D01*
X168254095Y-137896476D02*
X168004095Y-137896476D01*
X168004095Y-137991714D01*
X168016000Y-138015523D01*
X168027904Y-138027428D01*
X168051714Y-138039333D01*
X168087428Y-138039333D01*
X168111238Y-138027428D01*
X168123142Y-138015523D01*
X168135047Y-137991714D01*
X168135047Y-137896476D01*
X168027904Y-138134571D02*
X168016000Y-138146476D01*
X168004095Y-138170285D01*
X168004095Y-138229809D01*
X168016000Y-138253619D01*
X168027904Y-138265523D01*
X168051714Y-138277428D01*
X168075523Y-138277428D01*
X168111238Y-138265523D01*
X168254095Y-138122666D01*
X168254095Y-138277428D01*
X143830333Y-143164142D02*
X143913666Y-143164142D01*
X143913666Y-143295095D02*
X143913666Y-143045095D01*
X143794619Y-143045095D01*
X143616047Y-143164142D02*
X143580333Y-143176047D01*
X143568428Y-143187952D01*
X143556523Y-143211761D01*
X143556523Y-143247476D01*
X143568428Y-143271285D01*
X143580333Y-143283190D01*
X143604142Y-143295095D01*
X143699380Y-143295095D01*
X143699380Y-143045095D01*
X143616047Y-143045095D01*
X143592238Y-143057000D01*
X143580333Y-143068904D01*
X143568428Y-143092714D01*
X143568428Y-143116523D01*
X143580333Y-143140333D01*
X143592238Y-143152238D01*
X143616047Y-143164142D01*
X143699380Y-143164142D01*
X143342238Y-143128428D02*
X143342238Y-143295095D01*
X143401761Y-143033190D02*
X143461285Y-143211761D01*
X143306523Y-143211761D01*
X163912142Y-141523666D02*
X163912142Y-141440333D01*
X164043095Y-141440333D02*
X163793095Y-141440333D01*
X163793095Y-141559380D01*
X163912142Y-141737952D02*
X163924047Y-141773666D01*
X163935952Y-141785571D01*
X163959761Y-141797476D01*
X163995476Y-141797476D01*
X164019285Y-141785571D01*
X164031190Y-141773666D01*
X164043095Y-141749857D01*
X164043095Y-141654619D01*
X163793095Y-141654619D01*
X163793095Y-141737952D01*
X163805000Y-141761761D01*
X163816904Y-141773666D01*
X163840714Y-141785571D01*
X163864523Y-141785571D01*
X163888333Y-141773666D01*
X163900238Y-141761761D01*
X163912142Y-141737952D01*
X163912142Y-141654619D01*
X163816904Y-141892714D02*
X163805000Y-141904619D01*
X163793095Y-141928428D01*
X163793095Y-141987952D01*
X163805000Y-142011761D01*
X163816904Y-142023666D01*
X163840714Y-142035571D01*
X163864523Y-142035571D01*
X163900238Y-142023666D01*
X164043095Y-141880809D01*
X164043095Y-142035571D01*
X144290714Y-141889285D02*
X144302619Y-141901190D01*
X144338333Y-141913095D01*
X144362142Y-141913095D01*
X144397857Y-141901190D01*
X144421666Y-141877380D01*
X144433571Y-141853571D01*
X144445476Y-141805952D01*
X144445476Y-141770238D01*
X144433571Y-141722619D01*
X144421666Y-141698809D01*
X144397857Y-141675000D01*
X144362142Y-141663095D01*
X144338333Y-141663095D01*
X144302619Y-141675000D01*
X144290714Y-141686904D01*
X144171666Y-141913095D02*
X144124047Y-141913095D01*
X144100238Y-141901190D01*
X144088333Y-141889285D01*
X144064523Y-141853571D01*
X144052619Y-141805952D01*
X144052619Y-141710714D01*
X144064523Y-141686904D01*
X144076428Y-141675000D01*
X144100238Y-141663095D01*
X144147857Y-141663095D01*
X144171666Y-141675000D01*
X144183571Y-141686904D01*
X144195476Y-141710714D01*
X144195476Y-141770238D01*
X144183571Y-141794047D01*
X144171666Y-141805952D01*
X144147857Y-141817857D01*
X144100238Y-141817857D01*
X144076428Y-141805952D01*
X144064523Y-141794047D01*
X144052619Y-141770238D01*
X143814523Y-141913095D02*
X143957380Y-141913095D01*
X143885952Y-141913095D02*
X143885952Y-141663095D01*
X143909761Y-141698809D01*
X143933571Y-141722619D01*
X143957380Y-141734523D01*
X173472714Y-70920285D02*
X173484619Y-70932190D01*
X173520333Y-70944095D01*
X173544142Y-70944095D01*
X173579857Y-70932190D01*
X173603666Y-70908380D01*
X173615571Y-70884571D01*
X173627476Y-70836952D01*
X173627476Y-70801238D01*
X173615571Y-70753619D01*
X173603666Y-70729809D01*
X173579857Y-70706000D01*
X173544142Y-70694095D01*
X173520333Y-70694095D01*
X173484619Y-70706000D01*
X173472714Y-70717904D01*
X173353666Y-70944095D02*
X173306047Y-70944095D01*
X173282238Y-70932190D01*
X173270333Y-70920285D01*
X173246523Y-70884571D01*
X173234619Y-70836952D01*
X173234619Y-70741714D01*
X173246523Y-70717904D01*
X173258428Y-70706000D01*
X173282238Y-70694095D01*
X173329857Y-70694095D01*
X173353666Y-70706000D01*
X173365571Y-70717904D01*
X173377476Y-70741714D01*
X173377476Y-70801238D01*
X173365571Y-70825047D01*
X173353666Y-70836952D01*
X173329857Y-70848857D01*
X173282238Y-70848857D01*
X173258428Y-70836952D01*
X173246523Y-70825047D01*
X173234619Y-70801238D01*
X173079857Y-70694095D02*
X173056047Y-70694095D01*
X173032238Y-70706000D01*
X173020333Y-70717904D01*
X173008428Y-70741714D01*
X172996523Y-70789333D01*
X172996523Y-70848857D01*
X173008428Y-70896476D01*
X173020333Y-70920285D01*
X173032238Y-70932190D01*
X173056047Y-70944095D01*
X173079857Y-70944095D01*
X173103666Y-70932190D01*
X173115571Y-70920285D01*
X173127476Y-70896476D01*
X173139380Y-70848857D01*
X173139380Y-70789333D01*
X173127476Y-70741714D01*
X173115571Y-70717904D01*
X173103666Y-70706000D01*
X173079857Y-70694095D01*
X181294285Y-70292285D02*
X181306190Y-70280380D01*
X181318095Y-70244666D01*
X181318095Y-70220857D01*
X181306190Y-70185142D01*
X181282380Y-70161333D01*
X181258571Y-70149428D01*
X181210952Y-70137523D01*
X181175238Y-70137523D01*
X181127619Y-70149428D01*
X181103809Y-70161333D01*
X181080000Y-70185142D01*
X181068095Y-70220857D01*
X181068095Y-70244666D01*
X181080000Y-70280380D01*
X181091904Y-70292285D01*
X181175238Y-70435142D02*
X181163333Y-70411333D01*
X181151428Y-70399428D01*
X181127619Y-70387523D01*
X181115714Y-70387523D01*
X181091904Y-70399428D01*
X181080000Y-70411333D01*
X181068095Y-70435142D01*
X181068095Y-70482761D01*
X181080000Y-70506571D01*
X181091904Y-70518476D01*
X181115714Y-70530380D01*
X181127619Y-70530380D01*
X181151428Y-70518476D01*
X181163333Y-70506571D01*
X181175238Y-70482761D01*
X181175238Y-70435142D01*
X181187142Y-70411333D01*
X181199047Y-70399428D01*
X181222857Y-70387523D01*
X181270476Y-70387523D01*
X181294285Y-70399428D01*
X181306190Y-70411333D01*
X181318095Y-70435142D01*
X181318095Y-70482761D01*
X181306190Y-70506571D01*
X181294285Y-70518476D01*
X181270476Y-70530380D01*
X181222857Y-70530380D01*
X181199047Y-70518476D01*
X181187142Y-70506571D01*
X181175238Y-70482761D01*
X181175238Y-70673238D02*
X181163333Y-70649428D01*
X181151428Y-70637523D01*
X181127619Y-70625619D01*
X181115714Y-70625619D01*
X181091904Y-70637523D01*
X181080000Y-70649428D01*
X181068095Y-70673238D01*
X181068095Y-70720857D01*
X181080000Y-70744666D01*
X181091904Y-70756571D01*
X181115714Y-70768476D01*
X181127619Y-70768476D01*
X181151428Y-70756571D01*
X181163333Y-70744666D01*
X181175238Y-70720857D01*
X181175238Y-70673238D01*
X181187142Y-70649428D01*
X181199047Y-70637523D01*
X181222857Y-70625619D01*
X181270476Y-70625619D01*
X181294285Y-70637523D01*
X181306190Y-70649428D01*
X181318095Y-70673238D01*
X181318095Y-70720857D01*
X181306190Y-70744666D01*
X181294285Y-70756571D01*
X181270476Y-70768476D01*
X181222857Y-70768476D01*
X181199047Y-70756571D01*
X181187142Y-70744666D01*
X181175238Y-70720857D01*
X189667714Y-79056285D02*
X189679619Y-79068190D01*
X189715333Y-79080095D01*
X189739142Y-79080095D01*
X189774857Y-79068190D01*
X189798666Y-79044380D01*
X189810571Y-79020571D01*
X189822476Y-78972952D01*
X189822476Y-78937238D01*
X189810571Y-78889619D01*
X189798666Y-78865809D01*
X189774857Y-78842000D01*
X189739142Y-78830095D01*
X189715333Y-78830095D01*
X189679619Y-78842000D01*
X189667714Y-78853904D01*
X189524857Y-78937238D02*
X189548666Y-78925333D01*
X189560571Y-78913428D01*
X189572476Y-78889619D01*
X189572476Y-78877714D01*
X189560571Y-78853904D01*
X189548666Y-78842000D01*
X189524857Y-78830095D01*
X189477238Y-78830095D01*
X189453428Y-78842000D01*
X189441523Y-78853904D01*
X189429619Y-78877714D01*
X189429619Y-78889619D01*
X189441523Y-78913428D01*
X189453428Y-78925333D01*
X189477238Y-78937238D01*
X189524857Y-78937238D01*
X189548666Y-78949142D01*
X189560571Y-78961047D01*
X189572476Y-78984857D01*
X189572476Y-79032476D01*
X189560571Y-79056285D01*
X189548666Y-79068190D01*
X189524857Y-79080095D01*
X189477238Y-79080095D01*
X189453428Y-79068190D01*
X189441523Y-79056285D01*
X189429619Y-79032476D01*
X189429619Y-78984857D01*
X189441523Y-78961047D01*
X189453428Y-78949142D01*
X189477238Y-78937238D01*
X189346285Y-78830095D02*
X189179619Y-78830095D01*
X189286761Y-79080095D01*
X174868285Y-62986085D02*
X174880190Y-62974180D01*
X174892095Y-62938466D01*
X174892095Y-62914657D01*
X174880190Y-62878942D01*
X174856380Y-62855133D01*
X174832571Y-62843228D01*
X174784952Y-62831323D01*
X174749238Y-62831323D01*
X174701619Y-62843228D01*
X174677809Y-62855133D01*
X174654000Y-62878942D01*
X174642095Y-62914657D01*
X174642095Y-62938466D01*
X174654000Y-62974180D01*
X174665904Y-62986085D01*
X174749238Y-63128942D02*
X174737333Y-63105133D01*
X174725428Y-63093228D01*
X174701619Y-63081323D01*
X174689714Y-63081323D01*
X174665904Y-63093228D01*
X174654000Y-63105133D01*
X174642095Y-63128942D01*
X174642095Y-63176561D01*
X174654000Y-63200371D01*
X174665904Y-63212276D01*
X174689714Y-63224180D01*
X174701619Y-63224180D01*
X174725428Y-63212276D01*
X174737333Y-63200371D01*
X174749238Y-63176561D01*
X174749238Y-63128942D01*
X174761142Y-63105133D01*
X174773047Y-63093228D01*
X174796857Y-63081323D01*
X174844476Y-63081323D01*
X174868285Y-63093228D01*
X174880190Y-63105133D01*
X174892095Y-63128942D01*
X174892095Y-63176561D01*
X174880190Y-63200371D01*
X174868285Y-63212276D01*
X174844476Y-63224180D01*
X174796857Y-63224180D01*
X174773047Y-63212276D01*
X174761142Y-63200371D01*
X174749238Y-63176561D01*
X174665904Y-63319419D02*
X174654000Y-63331323D01*
X174642095Y-63355133D01*
X174642095Y-63414657D01*
X174654000Y-63438466D01*
X174665904Y-63450371D01*
X174689714Y-63462276D01*
X174713523Y-63462276D01*
X174749238Y-63450371D01*
X174892095Y-63307514D01*
X174892095Y-63462276D01*
X189390714Y-94423285D02*
X189402619Y-94435190D01*
X189438333Y-94447095D01*
X189462142Y-94447095D01*
X189497857Y-94435190D01*
X189521666Y-94411380D01*
X189533571Y-94387571D01*
X189545476Y-94339952D01*
X189545476Y-94304238D01*
X189533571Y-94256619D01*
X189521666Y-94232809D01*
X189497857Y-94209000D01*
X189462142Y-94197095D01*
X189438333Y-94197095D01*
X189402619Y-94209000D01*
X189390714Y-94220904D01*
X189247857Y-94304238D02*
X189271666Y-94292333D01*
X189283571Y-94280428D01*
X189295476Y-94256619D01*
X189295476Y-94244714D01*
X189283571Y-94220904D01*
X189271666Y-94209000D01*
X189247857Y-94197095D01*
X189200238Y-94197095D01*
X189176428Y-94209000D01*
X189164523Y-94220904D01*
X189152619Y-94244714D01*
X189152619Y-94256619D01*
X189164523Y-94280428D01*
X189176428Y-94292333D01*
X189200238Y-94304238D01*
X189247857Y-94304238D01*
X189271666Y-94316142D01*
X189283571Y-94328047D01*
X189295476Y-94351857D01*
X189295476Y-94399476D01*
X189283571Y-94423285D01*
X189271666Y-94435190D01*
X189247857Y-94447095D01*
X189200238Y-94447095D01*
X189176428Y-94435190D01*
X189164523Y-94423285D01*
X189152619Y-94399476D01*
X189152619Y-94351857D01*
X189164523Y-94328047D01*
X189176428Y-94316142D01*
X189200238Y-94304238D01*
X188997857Y-94197095D02*
X188974047Y-94197095D01*
X188950238Y-94209000D01*
X188938333Y-94220904D01*
X188926428Y-94244714D01*
X188914523Y-94292333D01*
X188914523Y-94351857D01*
X188926428Y-94399476D01*
X188938333Y-94423285D01*
X188950238Y-94435190D01*
X188974047Y-94447095D01*
X188997857Y-94447095D01*
X189021666Y-94435190D01*
X189033571Y-94423285D01*
X189045476Y-94399476D01*
X189057380Y-94351857D01*
X189057380Y-94292333D01*
X189045476Y-94244714D01*
X189033571Y-94220904D01*
X189021666Y-94209000D01*
X188997857Y-94197095D01*
X176544685Y-62960685D02*
X176556590Y-62948780D01*
X176568495Y-62913066D01*
X176568495Y-62889257D01*
X176556590Y-62853542D01*
X176532780Y-62829733D01*
X176508971Y-62817828D01*
X176461352Y-62805923D01*
X176425638Y-62805923D01*
X176378019Y-62817828D01*
X176354209Y-62829733D01*
X176330400Y-62853542D01*
X176318495Y-62889257D01*
X176318495Y-62913066D01*
X176330400Y-62948780D01*
X176342304Y-62960685D01*
X176318495Y-63044019D02*
X176318495Y-63210685D01*
X176568495Y-63103542D01*
X176568495Y-63317828D02*
X176568495Y-63365447D01*
X176556590Y-63389257D01*
X176544685Y-63401161D01*
X176508971Y-63424971D01*
X176461352Y-63436876D01*
X176366114Y-63436876D01*
X176342304Y-63424971D01*
X176330400Y-63413066D01*
X176318495Y-63389257D01*
X176318495Y-63341638D01*
X176330400Y-63317828D01*
X176342304Y-63305923D01*
X176366114Y-63294019D01*
X176425638Y-63294019D01*
X176449447Y-63305923D01*
X176461352Y-63317828D01*
X176473257Y-63341638D01*
X176473257Y-63389257D01*
X176461352Y-63413066D01*
X176449447Y-63424971D01*
X176425638Y-63436876D01*
X188872714Y-89600285D02*
X188884619Y-89612190D01*
X188920333Y-89624095D01*
X188944142Y-89624095D01*
X188979857Y-89612190D01*
X189003666Y-89588380D01*
X189015571Y-89564571D01*
X189027476Y-89516952D01*
X189027476Y-89481238D01*
X189015571Y-89433619D01*
X189003666Y-89409809D01*
X188979857Y-89386000D01*
X188944142Y-89374095D01*
X188920333Y-89374095D01*
X188884619Y-89386000D01*
X188872714Y-89397904D01*
X188789380Y-89374095D02*
X188622714Y-89374095D01*
X188729857Y-89624095D01*
X188491761Y-89481238D02*
X188515571Y-89469333D01*
X188527476Y-89457428D01*
X188539380Y-89433619D01*
X188539380Y-89421714D01*
X188527476Y-89397904D01*
X188515571Y-89386000D01*
X188491761Y-89374095D01*
X188444142Y-89374095D01*
X188420333Y-89386000D01*
X188408428Y-89397904D01*
X188396523Y-89421714D01*
X188396523Y-89433619D01*
X188408428Y-89457428D01*
X188420333Y-89469333D01*
X188444142Y-89481238D01*
X188491761Y-89481238D01*
X188515571Y-89493142D01*
X188527476Y-89505047D01*
X188539380Y-89528857D01*
X188539380Y-89576476D01*
X188527476Y-89600285D01*
X188515571Y-89612190D01*
X188491761Y-89624095D01*
X188444142Y-89624095D01*
X188420333Y-89612190D01*
X188408428Y-89600285D01*
X188396523Y-89576476D01*
X188396523Y-89528857D01*
X188408428Y-89505047D01*
X188420333Y-89493142D01*
X188444142Y-89481238D01*
X164994885Y-70234485D02*
X165006790Y-70222580D01*
X165018695Y-70186866D01*
X165018695Y-70163057D01*
X165006790Y-70127342D01*
X164982980Y-70103533D01*
X164959171Y-70091628D01*
X164911552Y-70079723D01*
X164875838Y-70079723D01*
X164828219Y-70091628D01*
X164804409Y-70103533D01*
X164780600Y-70127342D01*
X164768695Y-70163057D01*
X164768695Y-70186866D01*
X164780600Y-70222580D01*
X164792504Y-70234485D01*
X164768695Y-70317819D02*
X164768695Y-70484485D01*
X165018695Y-70377342D01*
X164768695Y-70686866D02*
X164768695Y-70639247D01*
X164780600Y-70615438D01*
X164792504Y-70603533D01*
X164828219Y-70579723D01*
X164875838Y-70567819D01*
X164971076Y-70567819D01*
X164994885Y-70579723D01*
X165006790Y-70591628D01*
X165018695Y-70615438D01*
X165018695Y-70663057D01*
X165006790Y-70686866D01*
X164994885Y-70698771D01*
X164971076Y-70710676D01*
X164911552Y-70710676D01*
X164887742Y-70698771D01*
X164875838Y-70686866D01*
X164863933Y-70663057D01*
X164863933Y-70615438D01*
X164875838Y-70591628D01*
X164887742Y-70579723D01*
X164911552Y-70567819D01*
X189413714Y-97344285D02*
X189425619Y-97356190D01*
X189461333Y-97368095D01*
X189485142Y-97368095D01*
X189520857Y-97356190D01*
X189544666Y-97332380D01*
X189556571Y-97308571D01*
X189568476Y-97260952D01*
X189568476Y-97225238D01*
X189556571Y-97177619D01*
X189544666Y-97153809D01*
X189520857Y-97130000D01*
X189485142Y-97118095D01*
X189461333Y-97118095D01*
X189425619Y-97130000D01*
X189413714Y-97141904D01*
X189330380Y-97118095D02*
X189163714Y-97118095D01*
X189270857Y-97368095D01*
X188949428Y-97118095D02*
X189068476Y-97118095D01*
X189080380Y-97237142D01*
X189068476Y-97225238D01*
X189044666Y-97213333D01*
X188985142Y-97213333D01*
X188961333Y-97225238D01*
X188949428Y-97237142D01*
X188937523Y-97260952D01*
X188937523Y-97320476D01*
X188949428Y-97344285D01*
X188961333Y-97356190D01*
X188985142Y-97368095D01*
X189044666Y-97368095D01*
X189068476Y-97356190D01*
X189080380Y-97344285D01*
X166275285Y-70242285D02*
X166287190Y-70230380D01*
X166299095Y-70194666D01*
X166299095Y-70170857D01*
X166287190Y-70135142D01*
X166263380Y-70111333D01*
X166239571Y-70099428D01*
X166191952Y-70087523D01*
X166156238Y-70087523D01*
X166108619Y-70099428D01*
X166084809Y-70111333D01*
X166061000Y-70135142D01*
X166049095Y-70170857D01*
X166049095Y-70194666D01*
X166061000Y-70230380D01*
X166072904Y-70242285D01*
X166049095Y-70325619D02*
X166049095Y-70492285D01*
X166299095Y-70385142D01*
X166049095Y-70563714D02*
X166049095Y-70718476D01*
X166144333Y-70635142D01*
X166144333Y-70670857D01*
X166156238Y-70694666D01*
X166168142Y-70706571D01*
X166191952Y-70718476D01*
X166251476Y-70718476D01*
X166275285Y-70706571D01*
X166287190Y-70694666D01*
X166299095Y-70670857D01*
X166299095Y-70599428D01*
X166287190Y-70575619D01*
X166275285Y-70563714D01*
X156266714Y-95366285D02*
X156278619Y-95378190D01*
X156314333Y-95390095D01*
X156338142Y-95390095D01*
X156373857Y-95378190D01*
X156397666Y-95354380D01*
X156409571Y-95330571D01*
X156421476Y-95282952D01*
X156421476Y-95247238D01*
X156409571Y-95199619D01*
X156397666Y-95175809D01*
X156373857Y-95152000D01*
X156338142Y-95140095D01*
X156314333Y-95140095D01*
X156278619Y-95152000D01*
X156266714Y-95163904D01*
X156183380Y-95140095D02*
X156016714Y-95140095D01*
X156123857Y-95390095D01*
X155790523Y-95390095D02*
X155933380Y-95390095D01*
X155861952Y-95390095D02*
X155861952Y-95140095D01*
X155885761Y-95175809D01*
X155909571Y-95199619D01*
X155933380Y-95211523D01*
X178246285Y-70292285D02*
X178258190Y-70280380D01*
X178270095Y-70244666D01*
X178270095Y-70220857D01*
X178258190Y-70185142D01*
X178234380Y-70161333D01*
X178210571Y-70149428D01*
X178162952Y-70137523D01*
X178127238Y-70137523D01*
X178079619Y-70149428D01*
X178055809Y-70161333D01*
X178032000Y-70185142D01*
X178020095Y-70220857D01*
X178020095Y-70244666D01*
X178032000Y-70280380D01*
X178043904Y-70292285D01*
X178020095Y-70375619D02*
X178020095Y-70542285D01*
X178270095Y-70435142D01*
X178020095Y-70685142D02*
X178020095Y-70708952D01*
X178032000Y-70732761D01*
X178043904Y-70744666D01*
X178067714Y-70756571D01*
X178115333Y-70768476D01*
X178174857Y-70768476D01*
X178222476Y-70756571D01*
X178246285Y-70744666D01*
X178258190Y-70732761D01*
X178270095Y-70708952D01*
X178270095Y-70685142D01*
X178258190Y-70661333D01*
X178246285Y-70649428D01*
X178222476Y-70637523D01*
X178174857Y-70625619D01*
X178115333Y-70625619D01*
X178067714Y-70637523D01*
X178043904Y-70649428D01*
X178032000Y-70661333D01*
X178020095Y-70685142D01*
X156370714Y-87465285D02*
X156382619Y-87477190D01*
X156418333Y-87489095D01*
X156442142Y-87489095D01*
X156477857Y-87477190D01*
X156501666Y-87453380D01*
X156513571Y-87429571D01*
X156525476Y-87381952D01*
X156525476Y-87346238D01*
X156513571Y-87298619D01*
X156501666Y-87274809D01*
X156477857Y-87251000D01*
X156442142Y-87239095D01*
X156418333Y-87239095D01*
X156382619Y-87251000D01*
X156370714Y-87262904D01*
X156156428Y-87239095D02*
X156204047Y-87239095D01*
X156227857Y-87251000D01*
X156239761Y-87262904D01*
X156263571Y-87298619D01*
X156275476Y-87346238D01*
X156275476Y-87441476D01*
X156263571Y-87465285D01*
X156251666Y-87477190D01*
X156227857Y-87489095D01*
X156180238Y-87489095D01*
X156156428Y-87477190D01*
X156144523Y-87465285D01*
X156132619Y-87441476D01*
X156132619Y-87381952D01*
X156144523Y-87358142D01*
X156156428Y-87346238D01*
X156180238Y-87334333D01*
X156227857Y-87334333D01*
X156251666Y-87346238D01*
X156263571Y-87358142D01*
X156275476Y-87381952D01*
X155989761Y-87346238D02*
X156013571Y-87334333D01*
X156025476Y-87322428D01*
X156037380Y-87298619D01*
X156037380Y-87286714D01*
X156025476Y-87262904D01*
X156013571Y-87251000D01*
X155989761Y-87239095D01*
X155942142Y-87239095D01*
X155918333Y-87251000D01*
X155906428Y-87262904D01*
X155894523Y-87286714D01*
X155894523Y-87298619D01*
X155906428Y-87322428D01*
X155918333Y-87334333D01*
X155942142Y-87346238D01*
X155989761Y-87346238D01*
X156013571Y-87358142D01*
X156025476Y-87370047D01*
X156037380Y-87393857D01*
X156037380Y-87441476D01*
X156025476Y-87465285D01*
X156013571Y-87477190D01*
X155989761Y-87489095D01*
X155942142Y-87489095D01*
X155918333Y-87477190D01*
X155906428Y-87465285D01*
X155894523Y-87441476D01*
X155894523Y-87393857D01*
X155906428Y-87370047D01*
X155918333Y-87358142D01*
X155942142Y-87346238D01*
X179897285Y-70292285D02*
X179909190Y-70280380D01*
X179921095Y-70244666D01*
X179921095Y-70220857D01*
X179909190Y-70185142D01*
X179885380Y-70161333D01*
X179861571Y-70149428D01*
X179813952Y-70137523D01*
X179778238Y-70137523D01*
X179730619Y-70149428D01*
X179706809Y-70161333D01*
X179683000Y-70185142D01*
X179671095Y-70220857D01*
X179671095Y-70244666D01*
X179683000Y-70280380D01*
X179694904Y-70292285D01*
X179671095Y-70506571D02*
X179671095Y-70458952D01*
X179683000Y-70435142D01*
X179694904Y-70423238D01*
X179730619Y-70399428D01*
X179778238Y-70387523D01*
X179873476Y-70387523D01*
X179897285Y-70399428D01*
X179909190Y-70411333D01*
X179921095Y-70435142D01*
X179921095Y-70482761D01*
X179909190Y-70506571D01*
X179897285Y-70518476D01*
X179873476Y-70530380D01*
X179813952Y-70530380D01*
X179790142Y-70518476D01*
X179778238Y-70506571D01*
X179766333Y-70482761D01*
X179766333Y-70435142D01*
X179778238Y-70411333D01*
X179790142Y-70399428D01*
X179813952Y-70387523D01*
X179671095Y-70613714D02*
X179671095Y-70780380D01*
X179921095Y-70673238D01*
X156269114Y-92488285D02*
X156281019Y-92500190D01*
X156316733Y-92512095D01*
X156340542Y-92512095D01*
X156376257Y-92500190D01*
X156400066Y-92476380D01*
X156411971Y-92452571D01*
X156423876Y-92404952D01*
X156423876Y-92369238D01*
X156411971Y-92321619D01*
X156400066Y-92297809D01*
X156376257Y-92274000D01*
X156340542Y-92262095D01*
X156316733Y-92262095D01*
X156281019Y-92274000D01*
X156269114Y-92285904D01*
X156054828Y-92262095D02*
X156102447Y-92262095D01*
X156126257Y-92274000D01*
X156138161Y-92285904D01*
X156161971Y-92321619D01*
X156173876Y-92369238D01*
X156173876Y-92464476D01*
X156161971Y-92488285D01*
X156150066Y-92500190D01*
X156126257Y-92512095D01*
X156078638Y-92512095D01*
X156054828Y-92500190D01*
X156042923Y-92488285D01*
X156031019Y-92464476D01*
X156031019Y-92404952D01*
X156042923Y-92381142D01*
X156054828Y-92369238D01*
X156078638Y-92357333D01*
X156126257Y-92357333D01*
X156150066Y-92369238D01*
X156161971Y-92381142D01*
X156173876Y-92404952D01*
X155816733Y-92262095D02*
X155864352Y-92262095D01*
X155888161Y-92274000D01*
X155900066Y-92285904D01*
X155923876Y-92321619D01*
X155935780Y-92369238D01*
X155935780Y-92464476D01*
X155923876Y-92488285D01*
X155911971Y-92500190D01*
X155888161Y-92512095D01*
X155840542Y-92512095D01*
X155816733Y-92500190D01*
X155804828Y-92488285D01*
X155792923Y-92464476D01*
X155792923Y-92404952D01*
X155804828Y-92381142D01*
X155816733Y-92369238D01*
X155840542Y-92357333D01*
X155888161Y-92357333D01*
X155911971Y-92369238D01*
X155923876Y-92381142D01*
X155935780Y-92404952D01*
X156370714Y-78856285D02*
X156382619Y-78868190D01*
X156418333Y-78880095D01*
X156442142Y-78880095D01*
X156477857Y-78868190D01*
X156501666Y-78844380D01*
X156513571Y-78820571D01*
X156525476Y-78772952D01*
X156525476Y-78737238D01*
X156513571Y-78689619D01*
X156501666Y-78665809D01*
X156477857Y-78642000D01*
X156442142Y-78630095D01*
X156418333Y-78630095D01*
X156382619Y-78642000D01*
X156370714Y-78653904D01*
X156156428Y-78630095D02*
X156204047Y-78630095D01*
X156227857Y-78642000D01*
X156239761Y-78653904D01*
X156263571Y-78689619D01*
X156275476Y-78737238D01*
X156275476Y-78832476D01*
X156263571Y-78856285D01*
X156251666Y-78868190D01*
X156227857Y-78880095D01*
X156180238Y-78880095D01*
X156156428Y-78868190D01*
X156144523Y-78856285D01*
X156132619Y-78832476D01*
X156132619Y-78772952D01*
X156144523Y-78749142D01*
X156156428Y-78737238D01*
X156180238Y-78725333D01*
X156227857Y-78725333D01*
X156251666Y-78737238D01*
X156263571Y-78749142D01*
X156275476Y-78772952D01*
X155906428Y-78630095D02*
X156025476Y-78630095D01*
X156037380Y-78749142D01*
X156025476Y-78737238D01*
X156001666Y-78725333D01*
X155942142Y-78725333D01*
X155918333Y-78737238D01*
X155906428Y-78749142D01*
X155894523Y-78772952D01*
X155894523Y-78832476D01*
X155906428Y-78856285D01*
X155918333Y-78868190D01*
X155942142Y-78880095D01*
X156001666Y-78880095D01*
X156025476Y-78868190D01*
X156037380Y-78856285D01*
X156393714Y-84290285D02*
X156405619Y-84302190D01*
X156441333Y-84314095D01*
X156465142Y-84314095D01*
X156500857Y-84302190D01*
X156524666Y-84278380D01*
X156536571Y-84254571D01*
X156548476Y-84206952D01*
X156548476Y-84171238D01*
X156536571Y-84123619D01*
X156524666Y-84099809D01*
X156500857Y-84076000D01*
X156465142Y-84064095D01*
X156441333Y-84064095D01*
X156405619Y-84076000D01*
X156393714Y-84087904D01*
X156179428Y-84064095D02*
X156227047Y-84064095D01*
X156250857Y-84076000D01*
X156262761Y-84087904D01*
X156286571Y-84123619D01*
X156298476Y-84171238D01*
X156298476Y-84266476D01*
X156286571Y-84290285D01*
X156274666Y-84302190D01*
X156250857Y-84314095D01*
X156203238Y-84314095D01*
X156179428Y-84302190D01*
X156167523Y-84290285D01*
X156155619Y-84266476D01*
X156155619Y-84206952D01*
X156167523Y-84183142D01*
X156179428Y-84171238D01*
X156203238Y-84159333D01*
X156250857Y-84159333D01*
X156274666Y-84171238D01*
X156286571Y-84183142D01*
X156298476Y-84206952D01*
X156072285Y-84064095D02*
X155917523Y-84064095D01*
X156000857Y-84159333D01*
X155965142Y-84159333D01*
X155941333Y-84171238D01*
X155929428Y-84183142D01*
X155917523Y-84206952D01*
X155917523Y-84266476D01*
X155929428Y-84290285D01*
X155941333Y-84302190D01*
X155965142Y-84314095D01*
X156036571Y-84314095D01*
X156060380Y-84302190D01*
X156072285Y-84290285D01*
X136380914Y-97141085D02*
X136392819Y-97152990D01*
X136428533Y-97164895D01*
X136452342Y-97164895D01*
X136488057Y-97152990D01*
X136511866Y-97129180D01*
X136523771Y-97105371D01*
X136535676Y-97057752D01*
X136535676Y-97022038D01*
X136523771Y-96974419D01*
X136511866Y-96950609D01*
X136488057Y-96926800D01*
X136452342Y-96914895D01*
X136428533Y-96914895D01*
X136392819Y-96926800D01*
X136380914Y-96938704D01*
X136166628Y-96914895D02*
X136214247Y-96914895D01*
X136238057Y-96926800D01*
X136249961Y-96938704D01*
X136273771Y-96974419D01*
X136285676Y-97022038D01*
X136285676Y-97117276D01*
X136273771Y-97141085D01*
X136261866Y-97152990D01*
X136238057Y-97164895D01*
X136190438Y-97164895D01*
X136166628Y-97152990D01*
X136154723Y-97141085D01*
X136142819Y-97117276D01*
X136142819Y-97057752D01*
X136154723Y-97033942D01*
X136166628Y-97022038D01*
X136190438Y-97010133D01*
X136238057Y-97010133D01*
X136261866Y-97022038D01*
X136273771Y-97033942D01*
X136285676Y-97057752D01*
X135904723Y-97164895D02*
X136047580Y-97164895D01*
X135976152Y-97164895D02*
X135976152Y-96914895D01*
X135999961Y-96950609D01*
X136023771Y-96974419D01*
X136047580Y-96986323D01*
X131535885Y-96458485D02*
X131547790Y-96446580D01*
X131559695Y-96410866D01*
X131559695Y-96387057D01*
X131547790Y-96351342D01*
X131523980Y-96327533D01*
X131500171Y-96315628D01*
X131452552Y-96303723D01*
X131416838Y-96303723D01*
X131369219Y-96315628D01*
X131345409Y-96327533D01*
X131321600Y-96351342D01*
X131309695Y-96387057D01*
X131309695Y-96410866D01*
X131321600Y-96446580D01*
X131333504Y-96458485D01*
X131309695Y-96672771D02*
X131309695Y-96625152D01*
X131321600Y-96601342D01*
X131333504Y-96589438D01*
X131369219Y-96565628D01*
X131416838Y-96553723D01*
X131512076Y-96553723D01*
X131535885Y-96565628D01*
X131547790Y-96577533D01*
X131559695Y-96601342D01*
X131559695Y-96648961D01*
X131547790Y-96672771D01*
X131535885Y-96684676D01*
X131512076Y-96696580D01*
X131452552Y-96696580D01*
X131428742Y-96684676D01*
X131416838Y-96672771D01*
X131404933Y-96648961D01*
X131404933Y-96601342D01*
X131416838Y-96577533D01*
X131428742Y-96565628D01*
X131452552Y-96553723D01*
X131309695Y-96851342D02*
X131309695Y-96875152D01*
X131321600Y-96898961D01*
X131333504Y-96910866D01*
X131357314Y-96922771D01*
X131404933Y-96934676D01*
X131464457Y-96934676D01*
X131512076Y-96922771D01*
X131535885Y-96910866D01*
X131547790Y-96898961D01*
X131559695Y-96875152D01*
X131559695Y-96851342D01*
X131547790Y-96827533D01*
X131535885Y-96815628D01*
X131512076Y-96803723D01*
X131464457Y-96791819D01*
X131404933Y-96791819D01*
X131357314Y-96803723D01*
X131333504Y-96815628D01*
X131321600Y-96827533D01*
X131309695Y-96851342D01*
X170143885Y-125086685D02*
X170155790Y-125074780D01*
X170167695Y-125039066D01*
X170167695Y-125015257D01*
X170155790Y-124979542D01*
X170131980Y-124955733D01*
X170108171Y-124943828D01*
X170060552Y-124931923D01*
X170024838Y-124931923D01*
X169977219Y-124943828D01*
X169953409Y-124955733D01*
X169929600Y-124979542D01*
X169917695Y-125015257D01*
X169917695Y-125039066D01*
X169929600Y-125074780D01*
X169941504Y-125086685D01*
X170001028Y-125300971D02*
X170167695Y-125300971D01*
X169905790Y-125241447D02*
X170084361Y-125181923D01*
X170084361Y-125336685D01*
X170024838Y-125467638D02*
X170012933Y-125443828D01*
X170001028Y-125431923D01*
X169977219Y-125420019D01*
X169965314Y-125420019D01*
X169941504Y-125431923D01*
X169929600Y-125443828D01*
X169917695Y-125467638D01*
X169917695Y-125515257D01*
X169929600Y-125539066D01*
X169941504Y-125550971D01*
X169965314Y-125562876D01*
X169977219Y-125562876D01*
X170001028Y-125550971D01*
X170012933Y-125539066D01*
X170024838Y-125515257D01*
X170024838Y-125467638D01*
X170036742Y-125443828D01*
X170048647Y-125431923D01*
X170072457Y-125420019D01*
X170120076Y-125420019D01*
X170143885Y-125431923D01*
X170155790Y-125443828D01*
X170167695Y-125467638D01*
X170167695Y-125515257D01*
X170155790Y-125539066D01*
X170143885Y-125550971D01*
X170120076Y-125562876D01*
X170072457Y-125562876D01*
X170048647Y-125550971D01*
X170036742Y-125539066D01*
X170024838Y-125515257D01*
X135136314Y-83402885D02*
X135148219Y-83414790D01*
X135183933Y-83426695D01*
X135207742Y-83426695D01*
X135243457Y-83414790D01*
X135267266Y-83390980D01*
X135279171Y-83367171D01*
X135291076Y-83319552D01*
X135291076Y-83283838D01*
X135279171Y-83236219D01*
X135267266Y-83212409D01*
X135243457Y-83188600D01*
X135207742Y-83176695D01*
X135183933Y-83176695D01*
X135148219Y-83188600D01*
X135136314Y-83200504D01*
X135052980Y-83176695D02*
X134898219Y-83176695D01*
X134981552Y-83271933D01*
X134945838Y-83271933D01*
X134922028Y-83283838D01*
X134910123Y-83295742D01*
X134898219Y-83319552D01*
X134898219Y-83379076D01*
X134910123Y-83402885D01*
X134922028Y-83414790D01*
X134945838Y-83426695D01*
X135017266Y-83426695D01*
X135041076Y-83414790D01*
X135052980Y-83402885D01*
X134802980Y-83200504D02*
X134791076Y-83188600D01*
X134767266Y-83176695D01*
X134707742Y-83176695D01*
X134683933Y-83188600D01*
X134672028Y-83200504D01*
X134660123Y-83224314D01*
X134660123Y-83248123D01*
X134672028Y-83283838D01*
X134814885Y-83426695D01*
X134660123Y-83426695D01*
X135136314Y-82285285D02*
X135148219Y-82297190D01*
X135183933Y-82309095D01*
X135207742Y-82309095D01*
X135243457Y-82297190D01*
X135267266Y-82273380D01*
X135279171Y-82249571D01*
X135291076Y-82201952D01*
X135291076Y-82166238D01*
X135279171Y-82118619D01*
X135267266Y-82094809D01*
X135243457Y-82071000D01*
X135207742Y-82059095D01*
X135183933Y-82059095D01*
X135148219Y-82071000D01*
X135136314Y-82082904D01*
X135052980Y-82059095D02*
X134898219Y-82059095D01*
X134981552Y-82154333D01*
X134945838Y-82154333D01*
X134922028Y-82166238D01*
X134910123Y-82178142D01*
X134898219Y-82201952D01*
X134898219Y-82261476D01*
X134910123Y-82285285D01*
X134922028Y-82297190D01*
X134945838Y-82309095D01*
X135017266Y-82309095D01*
X135041076Y-82297190D01*
X135052980Y-82285285D01*
X134660123Y-82309095D02*
X134802980Y-82309095D01*
X134731552Y-82309095D02*
X134731552Y-82059095D01*
X134755361Y-82094809D01*
X134779171Y-82118619D01*
X134802980Y-82130523D01*
X135034714Y-80405685D02*
X135046619Y-80417590D01*
X135082333Y-80429495D01*
X135106142Y-80429495D01*
X135141857Y-80417590D01*
X135165666Y-80393780D01*
X135177571Y-80369971D01*
X135189476Y-80322352D01*
X135189476Y-80286638D01*
X135177571Y-80239019D01*
X135165666Y-80215209D01*
X135141857Y-80191400D01*
X135106142Y-80179495D01*
X135082333Y-80179495D01*
X135046619Y-80191400D01*
X135034714Y-80203304D01*
X134951380Y-80179495D02*
X134796619Y-80179495D01*
X134879952Y-80274733D01*
X134844238Y-80274733D01*
X134820428Y-80286638D01*
X134808523Y-80298542D01*
X134796619Y-80322352D01*
X134796619Y-80381876D01*
X134808523Y-80405685D01*
X134820428Y-80417590D01*
X134844238Y-80429495D01*
X134915666Y-80429495D01*
X134939476Y-80417590D01*
X134951380Y-80405685D01*
X134641857Y-80179495D02*
X134618047Y-80179495D01*
X134594238Y-80191400D01*
X134582333Y-80203304D01*
X134570428Y-80227114D01*
X134558523Y-80274733D01*
X134558523Y-80334257D01*
X134570428Y-80381876D01*
X134582333Y-80405685D01*
X134594238Y-80417590D01*
X134618047Y-80429495D01*
X134641857Y-80429495D01*
X134665666Y-80417590D01*
X134677571Y-80405685D01*
X134689476Y-80381876D01*
X134701380Y-80334257D01*
X134701380Y-80274733D01*
X134689476Y-80227114D01*
X134677571Y-80203304D01*
X134665666Y-80191400D01*
X134641857Y-80179495D01*
X225077714Y-93334285D02*
X225089619Y-93346190D01*
X225125333Y-93358095D01*
X225149142Y-93358095D01*
X225184857Y-93346190D01*
X225208666Y-93322380D01*
X225220571Y-93298571D01*
X225232476Y-93250952D01*
X225232476Y-93215238D01*
X225220571Y-93167619D01*
X225208666Y-93143809D01*
X225184857Y-93120000D01*
X225149142Y-93108095D01*
X225125333Y-93108095D01*
X225089619Y-93120000D01*
X225077714Y-93131904D01*
X224982476Y-93131904D02*
X224970571Y-93120000D01*
X224946761Y-93108095D01*
X224887238Y-93108095D01*
X224863428Y-93120000D01*
X224851523Y-93131904D01*
X224839619Y-93155714D01*
X224839619Y-93179523D01*
X224851523Y-93215238D01*
X224994380Y-93358095D01*
X224839619Y-93358095D01*
X224720571Y-93358095D02*
X224672952Y-93358095D01*
X224649142Y-93346190D01*
X224637238Y-93334285D01*
X224613428Y-93298571D01*
X224601523Y-93250952D01*
X224601523Y-93155714D01*
X224613428Y-93131904D01*
X224625333Y-93120000D01*
X224649142Y-93108095D01*
X224696761Y-93108095D01*
X224720571Y-93120000D01*
X224732476Y-93131904D01*
X224744380Y-93155714D01*
X224744380Y-93215238D01*
X224732476Y-93239047D01*
X224720571Y-93250952D01*
X224696761Y-93262857D01*
X224649142Y-93262857D01*
X224625333Y-93250952D01*
X224613428Y-93239047D01*
X224601523Y-93215238D01*
X208794914Y-75356285D02*
X208806819Y-75368190D01*
X208842533Y-75380095D01*
X208866342Y-75380095D01*
X208902057Y-75368190D01*
X208925866Y-75344380D01*
X208937771Y-75320571D01*
X208949676Y-75272952D01*
X208949676Y-75237238D01*
X208937771Y-75189619D01*
X208925866Y-75165809D01*
X208902057Y-75142000D01*
X208866342Y-75130095D01*
X208842533Y-75130095D01*
X208806819Y-75142000D01*
X208794914Y-75153904D01*
X208699676Y-75153904D02*
X208687771Y-75142000D01*
X208663961Y-75130095D01*
X208604438Y-75130095D01*
X208580628Y-75142000D01*
X208568723Y-75153904D01*
X208556819Y-75177714D01*
X208556819Y-75201523D01*
X208568723Y-75237238D01*
X208711580Y-75380095D01*
X208556819Y-75380095D01*
X208413961Y-75237238D02*
X208437771Y-75225333D01*
X208449676Y-75213428D01*
X208461580Y-75189619D01*
X208461580Y-75177714D01*
X208449676Y-75153904D01*
X208437771Y-75142000D01*
X208413961Y-75130095D01*
X208366342Y-75130095D01*
X208342533Y-75142000D01*
X208330628Y-75153904D01*
X208318723Y-75177714D01*
X208318723Y-75189619D01*
X208330628Y-75213428D01*
X208342533Y-75225333D01*
X208366342Y-75237238D01*
X208413961Y-75237238D01*
X208437771Y-75249142D01*
X208449676Y-75261047D01*
X208461580Y-75284857D01*
X208461580Y-75332476D01*
X208449676Y-75356285D01*
X208437771Y-75368190D01*
X208413961Y-75380095D01*
X208366342Y-75380095D01*
X208342533Y-75368190D01*
X208330628Y-75356285D01*
X208318723Y-75332476D01*
X208318723Y-75284857D01*
X208330628Y-75261047D01*
X208342533Y-75249142D01*
X208366342Y-75237238D01*
X225077714Y-94477285D02*
X225089619Y-94489190D01*
X225125333Y-94501095D01*
X225149142Y-94501095D01*
X225184857Y-94489190D01*
X225208666Y-94465380D01*
X225220571Y-94441571D01*
X225232476Y-94393952D01*
X225232476Y-94358238D01*
X225220571Y-94310619D01*
X225208666Y-94286809D01*
X225184857Y-94263000D01*
X225149142Y-94251095D01*
X225125333Y-94251095D01*
X225089619Y-94263000D01*
X225077714Y-94274904D01*
X224982476Y-94274904D02*
X224970571Y-94263000D01*
X224946761Y-94251095D01*
X224887238Y-94251095D01*
X224863428Y-94263000D01*
X224851523Y-94274904D01*
X224839619Y-94298714D01*
X224839619Y-94322523D01*
X224851523Y-94358238D01*
X224994380Y-94501095D01*
X224839619Y-94501095D01*
X224625333Y-94334428D02*
X224625333Y-94501095D01*
X224684857Y-94239190D02*
X224744380Y-94417761D01*
X224589619Y-94417761D01*
X225077714Y-90286285D02*
X225089619Y-90298190D01*
X225125333Y-90310095D01*
X225149142Y-90310095D01*
X225184857Y-90298190D01*
X225208666Y-90274380D01*
X225220571Y-90250571D01*
X225232476Y-90202952D01*
X225232476Y-90167238D01*
X225220571Y-90119619D01*
X225208666Y-90095809D01*
X225184857Y-90072000D01*
X225149142Y-90060095D01*
X225125333Y-90060095D01*
X225089619Y-90072000D01*
X225077714Y-90083904D01*
X224982476Y-90083904D02*
X224970571Y-90072000D01*
X224946761Y-90060095D01*
X224887238Y-90060095D01*
X224863428Y-90072000D01*
X224851523Y-90083904D01*
X224839619Y-90107714D01*
X224839619Y-90131523D01*
X224851523Y-90167238D01*
X224994380Y-90310095D01*
X224839619Y-90310095D01*
X224756285Y-90060095D02*
X224601523Y-90060095D01*
X224684857Y-90155333D01*
X224649142Y-90155333D01*
X224625333Y-90167238D01*
X224613428Y-90179142D01*
X224601523Y-90202952D01*
X224601523Y-90262476D01*
X224613428Y-90286285D01*
X224625333Y-90298190D01*
X224649142Y-90310095D01*
X224720571Y-90310095D01*
X224744380Y-90298190D01*
X224756285Y-90286285D01*
X225077714Y-87365285D02*
X225089619Y-87377190D01*
X225125333Y-87389095D01*
X225149142Y-87389095D01*
X225184857Y-87377190D01*
X225208666Y-87353380D01*
X225220571Y-87329571D01*
X225232476Y-87281952D01*
X225232476Y-87246238D01*
X225220571Y-87198619D01*
X225208666Y-87174809D01*
X225184857Y-87151000D01*
X225149142Y-87139095D01*
X225125333Y-87139095D01*
X225089619Y-87151000D01*
X225077714Y-87162904D01*
X224982476Y-87162904D02*
X224970571Y-87151000D01*
X224946761Y-87139095D01*
X224887238Y-87139095D01*
X224863428Y-87151000D01*
X224851523Y-87162904D01*
X224839619Y-87186714D01*
X224839619Y-87210523D01*
X224851523Y-87246238D01*
X224994380Y-87389095D01*
X224839619Y-87389095D01*
X224744380Y-87162904D02*
X224732476Y-87151000D01*
X224708666Y-87139095D01*
X224649142Y-87139095D01*
X224625333Y-87151000D01*
X224613428Y-87162904D01*
X224601523Y-87186714D01*
X224601523Y-87210523D01*
X224613428Y-87246238D01*
X224756285Y-87389095D01*
X224601523Y-87389095D01*
X225077714Y-80380285D02*
X225089619Y-80392190D01*
X225125333Y-80404095D01*
X225149142Y-80404095D01*
X225184857Y-80392190D01*
X225208666Y-80368380D01*
X225220571Y-80344571D01*
X225232476Y-80296952D01*
X225232476Y-80261238D01*
X225220571Y-80213619D01*
X225208666Y-80189809D01*
X225184857Y-80166000D01*
X225149142Y-80154095D01*
X225125333Y-80154095D01*
X225089619Y-80166000D01*
X225077714Y-80177904D01*
X224982476Y-80177904D02*
X224970571Y-80166000D01*
X224946761Y-80154095D01*
X224887238Y-80154095D01*
X224863428Y-80166000D01*
X224851523Y-80177904D01*
X224839619Y-80201714D01*
X224839619Y-80225523D01*
X224851523Y-80261238D01*
X224994380Y-80404095D01*
X224839619Y-80404095D01*
X224601523Y-80404095D02*
X224744380Y-80404095D01*
X224672952Y-80404095D02*
X224672952Y-80154095D01*
X224696761Y-80189809D01*
X224720571Y-80213619D01*
X224744380Y-80225523D01*
X225077714Y-77332285D02*
X225089619Y-77344190D01*
X225125333Y-77356095D01*
X225149142Y-77356095D01*
X225184857Y-77344190D01*
X225208666Y-77320380D01*
X225220571Y-77296571D01*
X225232476Y-77248952D01*
X225232476Y-77213238D01*
X225220571Y-77165619D01*
X225208666Y-77141809D01*
X225184857Y-77118000D01*
X225149142Y-77106095D01*
X225125333Y-77106095D01*
X225089619Y-77118000D01*
X225077714Y-77129904D01*
X224982476Y-77129904D02*
X224970571Y-77118000D01*
X224946761Y-77106095D01*
X224887238Y-77106095D01*
X224863428Y-77118000D01*
X224851523Y-77129904D01*
X224839619Y-77153714D01*
X224839619Y-77177523D01*
X224851523Y-77213238D01*
X224994380Y-77356095D01*
X224839619Y-77356095D01*
X224684857Y-77106095D02*
X224661047Y-77106095D01*
X224637238Y-77118000D01*
X224625333Y-77129904D01*
X224613428Y-77153714D01*
X224601523Y-77201333D01*
X224601523Y-77260857D01*
X224613428Y-77308476D01*
X224625333Y-77332285D01*
X224637238Y-77344190D01*
X224661047Y-77356095D01*
X224684857Y-77356095D01*
X224708666Y-77344190D01*
X224720571Y-77332285D01*
X224732476Y-77308476D01*
X224744380Y-77260857D01*
X224744380Y-77201333D01*
X224732476Y-77153714D01*
X224720571Y-77129904D01*
X224708666Y-77118000D01*
X224684857Y-77106095D01*
X225077714Y-74538285D02*
X225089619Y-74550190D01*
X225125333Y-74562095D01*
X225149142Y-74562095D01*
X225184857Y-74550190D01*
X225208666Y-74526380D01*
X225220571Y-74502571D01*
X225232476Y-74454952D01*
X225232476Y-74419238D01*
X225220571Y-74371619D01*
X225208666Y-74347809D01*
X225184857Y-74324000D01*
X225149142Y-74312095D01*
X225125333Y-74312095D01*
X225089619Y-74324000D01*
X225077714Y-74335904D01*
X224839619Y-74562095D02*
X224982476Y-74562095D01*
X224911047Y-74562095D02*
X224911047Y-74312095D01*
X224934857Y-74347809D01*
X224958666Y-74371619D01*
X224982476Y-74383523D01*
X224720571Y-74562095D02*
X224672952Y-74562095D01*
X224649142Y-74550190D01*
X224637238Y-74538285D01*
X224613428Y-74502571D01*
X224601523Y-74454952D01*
X224601523Y-74359714D01*
X224613428Y-74335904D01*
X224625333Y-74324000D01*
X224649142Y-74312095D01*
X224696761Y-74312095D01*
X224720571Y-74324000D01*
X224732476Y-74335904D01*
X224744380Y-74359714D01*
X224744380Y-74419238D01*
X224732476Y-74443047D01*
X224720571Y-74454952D01*
X224696761Y-74466857D01*
X224649142Y-74466857D01*
X224625333Y-74454952D01*
X224613428Y-74443047D01*
X224601523Y-74419238D01*
X225077714Y-73395285D02*
X225089619Y-73407190D01*
X225125333Y-73419095D01*
X225149142Y-73419095D01*
X225184857Y-73407190D01*
X225208666Y-73383380D01*
X225220571Y-73359571D01*
X225232476Y-73311952D01*
X225232476Y-73276238D01*
X225220571Y-73228619D01*
X225208666Y-73204809D01*
X225184857Y-73181000D01*
X225149142Y-73169095D01*
X225125333Y-73169095D01*
X225089619Y-73181000D01*
X225077714Y-73192904D01*
X224839619Y-73419095D02*
X224982476Y-73419095D01*
X224911047Y-73419095D02*
X224911047Y-73169095D01*
X224934857Y-73204809D01*
X224958666Y-73228619D01*
X224982476Y-73240523D01*
X224696761Y-73276238D02*
X224720571Y-73264333D01*
X224732476Y-73252428D01*
X224744380Y-73228619D01*
X224744380Y-73216714D01*
X224732476Y-73192904D01*
X224720571Y-73181000D01*
X224696761Y-73169095D01*
X224649142Y-73169095D01*
X224625333Y-73181000D01*
X224613428Y-73192904D01*
X224601523Y-73216714D01*
X224601523Y-73228619D01*
X224613428Y-73252428D01*
X224625333Y-73264333D01*
X224649142Y-73276238D01*
X224696761Y-73276238D01*
X224720571Y-73288142D01*
X224732476Y-73300047D01*
X224744380Y-73323857D01*
X224744380Y-73371476D01*
X224732476Y-73395285D01*
X224720571Y-73407190D01*
X224696761Y-73419095D01*
X224649142Y-73419095D01*
X224625333Y-73407190D01*
X224613428Y-73395285D01*
X224601523Y-73371476D01*
X224601523Y-73323857D01*
X224613428Y-73300047D01*
X224625333Y-73288142D01*
X224649142Y-73276238D01*
X158633714Y-141234885D02*
X158645619Y-141246790D01*
X158681333Y-141258695D01*
X158705142Y-141258695D01*
X158740857Y-141246790D01*
X158764666Y-141222980D01*
X158776571Y-141199171D01*
X158788476Y-141151552D01*
X158788476Y-141115838D01*
X158776571Y-141068219D01*
X158764666Y-141044409D01*
X158740857Y-141020600D01*
X158705142Y-141008695D01*
X158681333Y-141008695D01*
X158645619Y-141020600D01*
X158633714Y-141032504D01*
X158395619Y-141258695D02*
X158538476Y-141258695D01*
X158467047Y-141258695D02*
X158467047Y-141008695D01*
X158490857Y-141044409D01*
X158514666Y-141068219D01*
X158538476Y-141080123D01*
X158181333Y-141008695D02*
X158228952Y-141008695D01*
X158252761Y-141020600D01*
X158264666Y-141032504D01*
X158288476Y-141068219D01*
X158300380Y-141115838D01*
X158300380Y-141211076D01*
X158288476Y-141234885D01*
X158276571Y-141246790D01*
X158252761Y-141258695D01*
X158205142Y-141258695D01*
X158181333Y-141246790D01*
X158169428Y-141234885D01*
X158157523Y-141211076D01*
X158157523Y-141151552D01*
X158169428Y-141127742D01*
X158181333Y-141115838D01*
X158205142Y-141103933D01*
X158252761Y-141103933D01*
X158276571Y-141115838D01*
X158288476Y-141127742D01*
X158300380Y-141151552D01*
X157135114Y-130719885D02*
X157147019Y-130731790D01*
X157182733Y-130743695D01*
X157206542Y-130743695D01*
X157242257Y-130731790D01*
X157266066Y-130707980D01*
X157277971Y-130684171D01*
X157289876Y-130636552D01*
X157289876Y-130600838D01*
X157277971Y-130553219D01*
X157266066Y-130529409D01*
X157242257Y-130505600D01*
X157206542Y-130493695D01*
X157182733Y-130493695D01*
X157147019Y-130505600D01*
X157135114Y-130517504D01*
X156897019Y-130743695D02*
X157039876Y-130743695D01*
X156968447Y-130743695D02*
X156968447Y-130493695D01*
X156992257Y-130529409D01*
X157016066Y-130553219D01*
X157039876Y-130565123D01*
X156670828Y-130493695D02*
X156789876Y-130493695D01*
X156801780Y-130612742D01*
X156789876Y-130600838D01*
X156766066Y-130588933D01*
X156706542Y-130588933D01*
X156682733Y-130600838D01*
X156670828Y-130612742D01*
X156658923Y-130636552D01*
X156658923Y-130696076D01*
X156670828Y-130719885D01*
X156682733Y-130731790D01*
X156706542Y-130743695D01*
X156766066Y-130743695D01*
X156789876Y-130731790D01*
X156801780Y-130719885D01*
X162889285Y-136019285D02*
X162901190Y-136007380D01*
X162913095Y-135971666D01*
X162913095Y-135947857D01*
X162901190Y-135912142D01*
X162877380Y-135888333D01*
X162853571Y-135876428D01*
X162805952Y-135864523D01*
X162770238Y-135864523D01*
X162722619Y-135876428D01*
X162698809Y-135888333D01*
X162675000Y-135912142D01*
X162663095Y-135947857D01*
X162663095Y-135971666D01*
X162675000Y-136007380D01*
X162686904Y-136019285D01*
X162913095Y-136257380D02*
X162913095Y-136114523D01*
X162913095Y-136185952D02*
X162663095Y-136185952D01*
X162698809Y-136162142D01*
X162722619Y-136138333D01*
X162734523Y-136114523D01*
X162746428Y-136471666D02*
X162913095Y-136471666D01*
X162651190Y-136412142D02*
X162829761Y-136352619D01*
X162829761Y-136507380D01*
X158656714Y-138927285D02*
X158668619Y-138939190D01*
X158704333Y-138951095D01*
X158728142Y-138951095D01*
X158763857Y-138939190D01*
X158787666Y-138915380D01*
X158799571Y-138891571D01*
X158811476Y-138843952D01*
X158811476Y-138808238D01*
X158799571Y-138760619D01*
X158787666Y-138736809D01*
X158763857Y-138713000D01*
X158728142Y-138701095D01*
X158704333Y-138701095D01*
X158668619Y-138713000D01*
X158656714Y-138724904D01*
X158418619Y-138951095D02*
X158561476Y-138951095D01*
X158490047Y-138951095D02*
X158490047Y-138701095D01*
X158513857Y-138736809D01*
X158537666Y-138760619D01*
X158561476Y-138772523D01*
X158323380Y-138724904D02*
X158311476Y-138713000D01*
X158287666Y-138701095D01*
X158228142Y-138701095D01*
X158204333Y-138713000D01*
X158192428Y-138724904D01*
X158180523Y-138748714D01*
X158180523Y-138772523D01*
X158192428Y-138808238D01*
X158335285Y-138951095D01*
X158180523Y-138951095D01*
X165791714Y-136404885D02*
X165803619Y-136416790D01*
X165839333Y-136428695D01*
X165863142Y-136428695D01*
X165898857Y-136416790D01*
X165922666Y-136392980D01*
X165934571Y-136369171D01*
X165946476Y-136321552D01*
X165946476Y-136285838D01*
X165934571Y-136238219D01*
X165922666Y-136214409D01*
X165898857Y-136190600D01*
X165863142Y-136178695D01*
X165839333Y-136178695D01*
X165803619Y-136190600D01*
X165791714Y-136202504D01*
X165553619Y-136428695D02*
X165696476Y-136428695D01*
X165625047Y-136428695D02*
X165625047Y-136178695D01*
X165648857Y-136214409D01*
X165672666Y-136238219D01*
X165696476Y-136250123D01*
X165315523Y-136428695D02*
X165458380Y-136428695D01*
X165386952Y-136428695D02*
X165386952Y-136178695D01*
X165410761Y-136214409D01*
X165434571Y-136238219D01*
X165458380Y-136250123D01*
X162676285Y-141182333D02*
X162688190Y-141170428D01*
X162700095Y-141134714D01*
X162700095Y-141110904D01*
X162688190Y-141075190D01*
X162664380Y-141051380D01*
X162640571Y-141039476D01*
X162592952Y-141027571D01*
X162557238Y-141027571D01*
X162509619Y-141039476D01*
X162485809Y-141051380D01*
X162462000Y-141075190D01*
X162450095Y-141110904D01*
X162450095Y-141134714D01*
X162462000Y-141170428D01*
X162473904Y-141182333D01*
X162557238Y-141325190D02*
X162545333Y-141301380D01*
X162533428Y-141289476D01*
X162509619Y-141277571D01*
X162497714Y-141277571D01*
X162473904Y-141289476D01*
X162462000Y-141301380D01*
X162450095Y-141325190D01*
X162450095Y-141372809D01*
X162462000Y-141396619D01*
X162473904Y-141408523D01*
X162497714Y-141420428D01*
X162509619Y-141420428D01*
X162533428Y-141408523D01*
X162545333Y-141396619D01*
X162557238Y-141372809D01*
X162557238Y-141325190D01*
X162569142Y-141301380D01*
X162581047Y-141289476D01*
X162604857Y-141277571D01*
X162652476Y-141277571D01*
X162676285Y-141289476D01*
X162688190Y-141301380D01*
X162700095Y-141325190D01*
X162700095Y-141372809D01*
X162688190Y-141396619D01*
X162676285Y-141408523D01*
X162652476Y-141420428D01*
X162604857Y-141420428D01*
X162581047Y-141408523D01*
X162569142Y-141396619D01*
X162557238Y-141372809D01*
X160263285Y-142729333D02*
X160275190Y-142717428D01*
X160287095Y-142681714D01*
X160287095Y-142657904D01*
X160275190Y-142622190D01*
X160251380Y-142598380D01*
X160227571Y-142586476D01*
X160179952Y-142574571D01*
X160144238Y-142574571D01*
X160096619Y-142586476D01*
X160072809Y-142598380D01*
X160049000Y-142622190D01*
X160037095Y-142657904D01*
X160037095Y-142681714D01*
X160049000Y-142717428D01*
X160060904Y-142729333D01*
X160037095Y-142812666D02*
X160037095Y-142979333D01*
X160287095Y-142872190D01*
X164977285Y-141563333D02*
X164989190Y-141551428D01*
X165001095Y-141515714D01*
X165001095Y-141491904D01*
X164989190Y-141456190D01*
X164965380Y-141432380D01*
X164941571Y-141420476D01*
X164893952Y-141408571D01*
X164858238Y-141408571D01*
X164810619Y-141420476D01*
X164786809Y-141432380D01*
X164763000Y-141456190D01*
X164751095Y-141491904D01*
X164751095Y-141515714D01*
X164763000Y-141551428D01*
X164774904Y-141563333D01*
X164751095Y-141789523D02*
X164751095Y-141670476D01*
X164870142Y-141658571D01*
X164858238Y-141670476D01*
X164846333Y-141694285D01*
X164846333Y-141753809D01*
X164858238Y-141777619D01*
X164870142Y-141789523D01*
X164893952Y-141801428D01*
X164953476Y-141801428D01*
X164977285Y-141789523D01*
X164989190Y-141777619D01*
X165001095Y-141753809D01*
X165001095Y-141694285D01*
X164989190Y-141670476D01*
X164977285Y-141658571D01*
X155297285Y-146770333D02*
X155309190Y-146758428D01*
X155321095Y-146722714D01*
X155321095Y-146698904D01*
X155309190Y-146663190D01*
X155285380Y-146639380D01*
X155261571Y-146627476D01*
X155213952Y-146615571D01*
X155178238Y-146615571D01*
X155130619Y-146627476D01*
X155106809Y-146639380D01*
X155083000Y-146663190D01*
X155071095Y-146698904D01*
X155071095Y-146722714D01*
X155083000Y-146758428D01*
X155094904Y-146770333D01*
X155154428Y-146984619D02*
X155321095Y-146984619D01*
X155059190Y-146925095D02*
X155237761Y-146865571D01*
X155237761Y-147020333D01*
X152869285Y-146148333D02*
X152881190Y-146136428D01*
X152893095Y-146100714D01*
X152893095Y-146076904D01*
X152881190Y-146041190D01*
X152857380Y-146017380D01*
X152833571Y-146005476D01*
X152785952Y-145993571D01*
X152750238Y-145993571D01*
X152702619Y-146005476D01*
X152678809Y-146017380D01*
X152655000Y-146041190D01*
X152643095Y-146076904D01*
X152643095Y-146100714D01*
X152655000Y-146136428D01*
X152666904Y-146148333D01*
X152666904Y-146243571D02*
X152655000Y-146255476D01*
X152643095Y-146279285D01*
X152643095Y-146338809D01*
X152655000Y-146362619D01*
X152666904Y-146374523D01*
X152690714Y-146386428D01*
X152714523Y-146386428D01*
X152750238Y-146374523D01*
X152893095Y-146231666D01*
X152893095Y-146386428D01*
X134288333Y-145702142D02*
X134371666Y-145702142D01*
X134371666Y-145833095D02*
X134371666Y-145583095D01*
X134252619Y-145583095D01*
X134074047Y-145702142D02*
X134038333Y-145714047D01*
X134026428Y-145725952D01*
X134014523Y-145749761D01*
X134014523Y-145785476D01*
X134026428Y-145809285D01*
X134038333Y-145821190D01*
X134062142Y-145833095D01*
X134157380Y-145833095D01*
X134157380Y-145583095D01*
X134074047Y-145583095D01*
X134050238Y-145595000D01*
X134038333Y-145606904D01*
X134026428Y-145630714D01*
X134026428Y-145654523D01*
X134038333Y-145678333D01*
X134050238Y-145690238D01*
X134074047Y-145702142D01*
X134157380Y-145702142D01*
X133800238Y-145583095D02*
X133847857Y-145583095D01*
X133871666Y-145595000D01*
X133883571Y-145606904D01*
X133907380Y-145642619D01*
X133919285Y-145690238D01*
X133919285Y-145785476D01*
X133907380Y-145809285D01*
X133895476Y-145821190D01*
X133871666Y-145833095D01*
X133824047Y-145833095D01*
X133800238Y-145821190D01*
X133788333Y-145809285D01*
X133776428Y-145785476D01*
X133776428Y-145725952D01*
X133788333Y-145702142D01*
X133800238Y-145690238D01*
X133824047Y-145678333D01*
X133871666Y-145678333D01*
X133895476Y-145690238D01*
X133907380Y-145702142D01*
X133919285Y-145725952D01*
X175090514Y-122466495D02*
X175173847Y-122347447D01*
X175233371Y-122466495D02*
X175233371Y-122216495D01*
X175138133Y-122216495D01*
X175114323Y-122228400D01*
X175102419Y-122240304D01*
X175090514Y-122264114D01*
X175090514Y-122299828D01*
X175102419Y-122323638D01*
X175114323Y-122335542D01*
X175138133Y-122347447D01*
X175233371Y-122347447D01*
X175007180Y-122216495D02*
X174852419Y-122216495D01*
X174935752Y-122311733D01*
X174900038Y-122311733D01*
X174876228Y-122323638D01*
X174864323Y-122335542D01*
X174852419Y-122359352D01*
X174852419Y-122418876D01*
X174864323Y-122442685D01*
X174876228Y-122454590D01*
X174900038Y-122466495D01*
X174971466Y-122466495D01*
X174995276Y-122454590D01*
X175007180Y-122442685D01*
X174614323Y-122466495D02*
X174757180Y-122466495D01*
X174685752Y-122466495D02*
X174685752Y-122216495D01*
X174709561Y-122252209D01*
X174733371Y-122276019D01*
X174757180Y-122287923D01*
X173566514Y-127190895D02*
X173649847Y-127071847D01*
X173709371Y-127190895D02*
X173709371Y-126940895D01*
X173614133Y-126940895D01*
X173590323Y-126952800D01*
X173578419Y-126964704D01*
X173566514Y-126988514D01*
X173566514Y-127024228D01*
X173578419Y-127048038D01*
X173590323Y-127059942D01*
X173614133Y-127071847D01*
X173709371Y-127071847D01*
X173483180Y-126940895D02*
X173328419Y-126940895D01*
X173411752Y-127036133D01*
X173376038Y-127036133D01*
X173352228Y-127048038D01*
X173340323Y-127059942D01*
X173328419Y-127083752D01*
X173328419Y-127143276D01*
X173340323Y-127167085D01*
X173352228Y-127178990D01*
X173376038Y-127190895D01*
X173447466Y-127190895D01*
X173471276Y-127178990D01*
X173483180Y-127167085D01*
X173233180Y-126964704D02*
X173221276Y-126952800D01*
X173197466Y-126940895D01*
X173137942Y-126940895D01*
X173114133Y-126952800D01*
X173102228Y-126964704D01*
X173090323Y-126988514D01*
X173090323Y-127012323D01*
X173102228Y-127048038D01*
X173245085Y-127190895D01*
X173090323Y-127190895D01*
X128406895Y-93590685D02*
X128287847Y-93507352D01*
X128406895Y-93447828D02*
X128156895Y-93447828D01*
X128156895Y-93543066D01*
X128168800Y-93566876D01*
X128180704Y-93578780D01*
X128204514Y-93590685D01*
X128240228Y-93590685D01*
X128264038Y-93578780D01*
X128275942Y-93566876D01*
X128287847Y-93543066D01*
X128287847Y-93447828D01*
X128240228Y-93804971D02*
X128406895Y-93804971D01*
X128144990Y-93745447D02*
X128323561Y-93685923D01*
X128323561Y-93840685D01*
X128264038Y-93971638D02*
X128252133Y-93947828D01*
X128240228Y-93935923D01*
X128216419Y-93924019D01*
X128204514Y-93924019D01*
X128180704Y-93935923D01*
X128168800Y-93947828D01*
X128156895Y-93971638D01*
X128156895Y-94019257D01*
X128168800Y-94043066D01*
X128180704Y-94054971D01*
X128204514Y-94066876D01*
X128216419Y-94066876D01*
X128240228Y-94054971D01*
X128252133Y-94043066D01*
X128264038Y-94019257D01*
X128264038Y-93971638D01*
X128275942Y-93947828D01*
X128287847Y-93935923D01*
X128311657Y-93924019D01*
X128359276Y-93924019D01*
X128383085Y-93935923D01*
X128394990Y-93947828D01*
X128406895Y-93971638D01*
X128406895Y-94019257D01*
X128394990Y-94043066D01*
X128383085Y-94054971D01*
X128359276Y-94066876D01*
X128311657Y-94066876D01*
X128287847Y-94054971D01*
X128275942Y-94043066D01*
X128264038Y-94019257D01*
X134196514Y-94932895D02*
X134279847Y-94813847D01*
X134339371Y-94932895D02*
X134339371Y-94682895D01*
X134244133Y-94682895D01*
X134220323Y-94694800D01*
X134208419Y-94706704D01*
X134196514Y-94730514D01*
X134196514Y-94766228D01*
X134208419Y-94790038D01*
X134220323Y-94801942D01*
X134244133Y-94813847D01*
X134339371Y-94813847D01*
X133970323Y-94682895D02*
X134089371Y-94682895D01*
X134101276Y-94801942D01*
X134089371Y-94790038D01*
X134065561Y-94778133D01*
X134006038Y-94778133D01*
X133982228Y-94790038D01*
X133970323Y-94801942D01*
X133958419Y-94825752D01*
X133958419Y-94885276D01*
X133970323Y-94909085D01*
X133982228Y-94920990D01*
X134006038Y-94932895D01*
X134065561Y-94932895D01*
X134089371Y-94920990D01*
X134101276Y-94909085D01*
X133720323Y-94932895D02*
X133863180Y-94932895D01*
X133791752Y-94932895D02*
X133791752Y-94682895D01*
X133815561Y-94718609D01*
X133839371Y-94742419D01*
X133863180Y-94754323D01*
X134196514Y-93561295D02*
X134279847Y-93442247D01*
X134339371Y-93561295D02*
X134339371Y-93311295D01*
X134244133Y-93311295D01*
X134220323Y-93323200D01*
X134208419Y-93335104D01*
X134196514Y-93358914D01*
X134196514Y-93394628D01*
X134208419Y-93418438D01*
X134220323Y-93430342D01*
X134244133Y-93442247D01*
X134339371Y-93442247D01*
X133970323Y-93311295D02*
X134089371Y-93311295D01*
X134101276Y-93430342D01*
X134089371Y-93418438D01*
X134065561Y-93406533D01*
X134006038Y-93406533D01*
X133982228Y-93418438D01*
X133970323Y-93430342D01*
X133958419Y-93454152D01*
X133958419Y-93513676D01*
X133970323Y-93537485D01*
X133982228Y-93549390D01*
X134006038Y-93561295D01*
X134065561Y-93561295D01*
X134089371Y-93549390D01*
X134101276Y-93537485D01*
X133732228Y-93311295D02*
X133851276Y-93311295D01*
X133863180Y-93430342D01*
X133851276Y-93418438D01*
X133827466Y-93406533D01*
X133767942Y-93406533D01*
X133744133Y-93418438D01*
X133732228Y-93430342D01*
X133720323Y-93454152D01*
X133720323Y-93513676D01*
X133732228Y-93537485D01*
X133744133Y-93549390D01*
X133767942Y-93561295D01*
X133827466Y-93561295D01*
X133851276Y-93549390D01*
X133863180Y-93537485D01*
X130946895Y-110194638D02*
X130827847Y-110111304D01*
X130946895Y-110051780D02*
X130696895Y-110051780D01*
X130696895Y-110147019D01*
X130708800Y-110170828D01*
X130720704Y-110182733D01*
X130744514Y-110194638D01*
X130780228Y-110194638D01*
X130804038Y-110182733D01*
X130815942Y-110170828D01*
X130827847Y-110147019D01*
X130827847Y-110051780D01*
X130946895Y-110432733D02*
X130946895Y-110289876D01*
X130946895Y-110361304D02*
X130696895Y-110361304D01*
X130732609Y-110337495D01*
X130756419Y-110313685D01*
X130768323Y-110289876D01*
X130720704Y-110527971D02*
X130708800Y-110539876D01*
X130696895Y-110563685D01*
X130696895Y-110623209D01*
X130708800Y-110647019D01*
X130720704Y-110658923D01*
X130744514Y-110670828D01*
X130768323Y-110670828D01*
X130804038Y-110658923D01*
X130946895Y-110516066D01*
X130946895Y-110670828D01*
X130804038Y-110813685D02*
X130792133Y-110789876D01*
X130780228Y-110777971D01*
X130756419Y-110766066D01*
X130744514Y-110766066D01*
X130720704Y-110777971D01*
X130708800Y-110789876D01*
X130696895Y-110813685D01*
X130696895Y-110861304D01*
X130708800Y-110885114D01*
X130720704Y-110897019D01*
X130744514Y-110908923D01*
X130756419Y-110908923D01*
X130780228Y-110897019D01*
X130792133Y-110885114D01*
X130804038Y-110861304D01*
X130804038Y-110813685D01*
X130815942Y-110789876D01*
X130827847Y-110777971D01*
X130851657Y-110766066D01*
X130899276Y-110766066D01*
X130923085Y-110777971D01*
X130934990Y-110789876D01*
X130946895Y-110813685D01*
X130946895Y-110861304D01*
X130934990Y-110885114D01*
X130923085Y-110897019D01*
X130899276Y-110908923D01*
X130851657Y-110908923D01*
X130827847Y-110897019D01*
X130815942Y-110885114D01*
X130804038Y-110861304D01*
X133286895Y-112699438D02*
X133167847Y-112616104D01*
X133286895Y-112556580D02*
X133036895Y-112556580D01*
X133036895Y-112651819D01*
X133048800Y-112675628D01*
X133060704Y-112687533D01*
X133084514Y-112699438D01*
X133120228Y-112699438D01*
X133144038Y-112687533D01*
X133155942Y-112675628D01*
X133167847Y-112651819D01*
X133167847Y-112556580D01*
X133286895Y-112937533D02*
X133286895Y-112794676D01*
X133286895Y-112866104D02*
X133036895Y-112866104D01*
X133072609Y-112842295D01*
X133096419Y-112818485D01*
X133108323Y-112794676D01*
X133060704Y-113032771D02*
X133048800Y-113044676D01*
X133036895Y-113068485D01*
X133036895Y-113128009D01*
X133048800Y-113151819D01*
X133060704Y-113163723D01*
X133084514Y-113175628D01*
X133108323Y-113175628D01*
X133144038Y-113163723D01*
X133286895Y-113020866D01*
X133286895Y-113175628D01*
X133286895Y-113294676D02*
X133286895Y-113342295D01*
X133274990Y-113366104D01*
X133263085Y-113378009D01*
X133227371Y-113401819D01*
X133179752Y-113413723D01*
X133084514Y-113413723D01*
X133060704Y-113401819D01*
X133048800Y-113389914D01*
X133036895Y-113366104D01*
X133036895Y-113318485D01*
X133048800Y-113294676D01*
X133060704Y-113282771D01*
X133084514Y-113270866D01*
X133144038Y-113270866D01*
X133167847Y-113282771D01*
X133179752Y-113294676D01*
X133191657Y-113318485D01*
X133191657Y-113366104D01*
X133179752Y-113389914D01*
X133167847Y-113401819D01*
X133144038Y-113413723D01*
X130946895Y-115239438D02*
X130827847Y-115156104D01*
X130946895Y-115096580D02*
X130696895Y-115096580D01*
X130696895Y-115191819D01*
X130708800Y-115215628D01*
X130720704Y-115227533D01*
X130744514Y-115239438D01*
X130780228Y-115239438D01*
X130804038Y-115227533D01*
X130815942Y-115215628D01*
X130827847Y-115191819D01*
X130827847Y-115096580D01*
X130946895Y-115477533D02*
X130946895Y-115334676D01*
X130946895Y-115406104D02*
X130696895Y-115406104D01*
X130732609Y-115382295D01*
X130756419Y-115358485D01*
X130768323Y-115334676D01*
X130696895Y-115560866D02*
X130696895Y-115715628D01*
X130792133Y-115632295D01*
X130792133Y-115668009D01*
X130804038Y-115691819D01*
X130815942Y-115703723D01*
X130839752Y-115715628D01*
X130899276Y-115715628D01*
X130923085Y-115703723D01*
X130934990Y-115691819D01*
X130946895Y-115668009D01*
X130946895Y-115596580D01*
X130934990Y-115572771D01*
X130923085Y-115560866D01*
X130696895Y-115870390D02*
X130696895Y-115894200D01*
X130708800Y-115918009D01*
X130720704Y-115929914D01*
X130744514Y-115941819D01*
X130792133Y-115953723D01*
X130851657Y-115953723D01*
X130899276Y-115941819D01*
X130923085Y-115929914D01*
X130934990Y-115918009D01*
X130946895Y-115894200D01*
X130946895Y-115870390D01*
X130934990Y-115846580D01*
X130923085Y-115834676D01*
X130899276Y-115822771D01*
X130851657Y-115810866D01*
X130792133Y-115810866D01*
X130744514Y-115822771D01*
X130720704Y-115834676D01*
X130708800Y-115846580D01*
X130696895Y-115870390D01*
X129503066Y-121171095D02*
X129586400Y-121052047D01*
X129645923Y-121171095D02*
X129645923Y-120921095D01*
X129550685Y-120921095D01*
X129526876Y-120933000D01*
X129514971Y-120944904D01*
X129503066Y-120968714D01*
X129503066Y-121004428D01*
X129514971Y-121028238D01*
X129526876Y-121040142D01*
X129550685Y-121052047D01*
X129645923Y-121052047D01*
X129419733Y-120921095D02*
X129253066Y-120921095D01*
X129360209Y-121171095D01*
D12*
X209176857Y-76784142D02*
X209224476Y-76831761D01*
X209367333Y-76879380D01*
X209462571Y-76879380D01*
X209605428Y-76831761D01*
X209700666Y-76736523D01*
X209748285Y-76641285D01*
X209795904Y-76450809D01*
X209795904Y-76307952D01*
X209748285Y-76117476D01*
X209700666Y-76022238D01*
X209605428Y-75927000D01*
X209462571Y-75879380D01*
X209367333Y-75879380D01*
X209224476Y-75927000D01*
X209176857Y-75974619D01*
X208795904Y-75974619D02*
X208748285Y-75927000D01*
X208653047Y-75879380D01*
X208414952Y-75879380D01*
X208319714Y-75927000D01*
X208272095Y-75974619D01*
X208224476Y-76069857D01*
X208224476Y-76165095D01*
X208272095Y-76307952D01*
X208843523Y-76879380D01*
X208224476Y-76879380D01*
X207891142Y-75879380D02*
X207224476Y-75879380D01*
X207653047Y-76879380D01*
D11*
X191075714Y-71106095D02*
X191159047Y-70987047D01*
X191218571Y-71106095D02*
X191218571Y-70856095D01*
X191123333Y-70856095D01*
X191099523Y-70868000D01*
X191087619Y-70879904D01*
X191075714Y-70903714D01*
X191075714Y-70939428D01*
X191087619Y-70963238D01*
X191099523Y-70975142D01*
X191123333Y-70987047D01*
X191218571Y-70987047D01*
X190956666Y-71106095D02*
X190909047Y-71106095D01*
X190885238Y-71094190D01*
X190873333Y-71082285D01*
X190849523Y-71046571D01*
X190837619Y-70998952D01*
X190837619Y-70903714D01*
X190849523Y-70879904D01*
X190861428Y-70868000D01*
X190885238Y-70856095D01*
X190932857Y-70856095D01*
X190956666Y-70868000D01*
X190968571Y-70879904D01*
X190980476Y-70903714D01*
X190980476Y-70963238D01*
X190968571Y-70987047D01*
X190956666Y-70998952D01*
X190932857Y-71010857D01*
X190885238Y-71010857D01*
X190861428Y-70998952D01*
X190849523Y-70987047D01*
X190837619Y-70963238D01*
X190718571Y-71106095D02*
X190670952Y-71106095D01*
X190647142Y-71094190D01*
X190635238Y-71082285D01*
X190611428Y-71046571D01*
X190599523Y-70998952D01*
X190599523Y-70903714D01*
X190611428Y-70879904D01*
X190623333Y-70868000D01*
X190647142Y-70856095D01*
X190694761Y-70856095D01*
X190718571Y-70868000D01*
X190730476Y-70879904D01*
X190742380Y-70903714D01*
X190742380Y-70963238D01*
X190730476Y-70987047D01*
X190718571Y-70998952D01*
X190694761Y-71010857D01*
X190647142Y-71010857D01*
X190623333Y-70998952D01*
X190611428Y-70987047D01*
X190599523Y-70963238D01*
M02*
