G04 #@! TF.GenerationSoftware,KiCad,Pcbnew,5.1.6-c6e7f7d~86~ubuntu16.04.1*
G04 #@! TF.CreationDate,2020-08-03T14:49:15+05:30*
G04 #@! TF.ProjectId,Aardonyx,41617264-6f6e-4797-982e-6b696361645f,v1.0*
G04 #@! TF.SameCoordinates,Original*
G04 #@! TF.FileFunction,Legend,Bot*
G04 #@! TF.FilePolarity,Positive*
%FSLAX46Y46*%
G04 Gerber Fmt 4.6, Leading zero omitted, Abs format (unit mm)*
G04 Created by KiCad (PCBNEW 5.1.6-c6e7f7d~86~ubuntu16.04.1) date 2020-08-03 14:49:15*
%MOMM*%
%LPD*%
G01*
G04 APERTURE LIST*
%ADD10C,0.150000*%
%ADD11C,0.040000*%
%ADD12C,0.200000*%
%ADD13C,0.120000*%
G04 APERTURE END LIST*
D10*
X153334771Y-144594171D02*
X152763342Y-144594171D01*
X153049057Y-144879885D02*
X153049057Y-144308457D01*
X152513342Y-144129885D02*
X152263342Y-144879885D01*
X152013342Y-144129885D01*
X151477628Y-144844171D02*
X151549057Y-144879885D01*
X151691914Y-144879885D01*
X151763342Y-144844171D01*
X151799057Y-144772742D01*
X151799057Y-144487028D01*
X151763342Y-144415600D01*
X151691914Y-144379885D01*
X151549057Y-144379885D01*
X151477628Y-144415600D01*
X151441914Y-144487028D01*
X151441914Y-144558457D01*
X151799057Y-144629885D01*
X153299057Y-147704171D02*
X152727628Y-147704171D01*
X152441914Y-147489885D02*
X152263342Y-147989885D01*
X152084771Y-147489885D01*
X151513342Y-147954171D02*
X151584771Y-147989885D01*
X151727628Y-147989885D01*
X151799057Y-147954171D01*
X151834771Y-147882742D01*
X151834771Y-147597028D01*
X151799057Y-147525600D01*
X151727628Y-147489885D01*
X151584771Y-147489885D01*
X151513342Y-147525600D01*
X151477628Y-147597028D01*
X151477628Y-147668457D01*
X151834771Y-147739885D01*
X166274771Y-139884171D02*
X165703342Y-139884171D01*
X165453342Y-139419885D02*
X165203342Y-140169885D01*
X164953342Y-139419885D01*
X164417628Y-140134171D02*
X164489057Y-140169885D01*
X164631914Y-140169885D01*
X164703342Y-140134171D01*
X164739057Y-140062742D01*
X164739057Y-139777028D01*
X164703342Y-139705600D01*
X164631914Y-139669885D01*
X164489057Y-139669885D01*
X164417628Y-139705600D01*
X164381914Y-139777028D01*
X164381914Y-139848457D01*
X164739057Y-139919885D01*
X162549771Y-144192028D02*
X162549771Y-144763457D01*
X162835485Y-144477742D02*
X162264057Y-144477742D01*
X162085485Y-145013457D02*
X162835485Y-145263457D01*
X162085485Y-145513457D01*
X162799771Y-146049171D02*
X162835485Y-145977742D01*
X162835485Y-145834885D01*
X162799771Y-145763457D01*
X162728342Y-145727742D01*
X162442628Y-145727742D01*
X162371200Y-145763457D01*
X162335485Y-145834885D01*
X162335485Y-145977742D01*
X162371200Y-146049171D01*
X162442628Y-146084885D01*
X162514057Y-146084885D01*
X162585485Y-145727742D01*
X146919771Y-138947742D02*
X146919771Y-139519171D01*
X146705485Y-139804885D02*
X147205485Y-139983457D01*
X146705485Y-140162028D01*
X147169771Y-140733457D02*
X147205485Y-140662028D01*
X147205485Y-140519171D01*
X147169771Y-140447742D01*
X147098342Y-140412028D01*
X146812628Y-140412028D01*
X146741200Y-140447742D01*
X146705485Y-140519171D01*
X146705485Y-140662028D01*
X146741200Y-140733457D01*
X146812628Y-140769171D01*
X146884057Y-140769171D01*
X146955485Y-140412028D01*
X141392628Y-139359171D02*
X141392628Y-138787742D01*
X141106914Y-139073457D02*
X141678342Y-139073457D01*
X141856914Y-138537742D02*
X141106914Y-138287742D01*
X141856914Y-138037742D01*
X141142628Y-137502028D02*
X141106914Y-137573457D01*
X141106914Y-137716314D01*
X141142628Y-137787742D01*
X141214057Y-137823457D01*
X141499771Y-137823457D01*
X141571200Y-137787742D01*
X141606914Y-137716314D01*
X141606914Y-137573457D01*
X141571200Y-137502028D01*
X141499771Y-137466314D01*
X141428342Y-137466314D01*
X141356914Y-137823457D01*
D11*
X209039057Y-72060838D02*
X209062866Y-72048933D01*
X209074771Y-72037028D01*
X209086676Y-72013219D01*
X209086676Y-72001314D01*
X209074771Y-71977504D01*
X209062866Y-71965600D01*
X209039057Y-71953695D01*
X208991438Y-71953695D01*
X208967628Y-71965600D01*
X208955723Y-71977504D01*
X208943819Y-72001314D01*
X208943819Y-72013219D01*
X208955723Y-72037028D01*
X208967628Y-72048933D01*
X208991438Y-72060838D01*
X209039057Y-72060838D01*
X209062866Y-72072742D01*
X209074771Y-72084647D01*
X209086676Y-72108457D01*
X209086676Y-72156076D01*
X209074771Y-72179885D01*
X209062866Y-72191790D01*
X209039057Y-72203695D01*
X208991438Y-72203695D01*
X208967628Y-72191790D01*
X208955723Y-72179885D01*
X208943819Y-72156076D01*
X208943819Y-72108457D01*
X208955723Y-72084647D01*
X208967628Y-72072742D01*
X208991438Y-72060838D01*
X208729533Y-71953695D02*
X208777152Y-71953695D01*
X208800961Y-71965600D01*
X208812866Y-71977504D01*
X208836676Y-72013219D01*
X208848580Y-72060838D01*
X208848580Y-72156076D01*
X208836676Y-72179885D01*
X208824771Y-72191790D01*
X208800961Y-72203695D01*
X208753342Y-72203695D01*
X208729533Y-72191790D01*
X208717628Y-72179885D01*
X208705723Y-72156076D01*
X208705723Y-72096552D01*
X208717628Y-72072742D01*
X208729533Y-72060838D01*
X208753342Y-72048933D01*
X208800961Y-72048933D01*
X208824771Y-72060838D01*
X208836676Y-72072742D01*
X208848580Y-72096552D01*
X209617628Y-92997028D02*
X209617628Y-93163695D01*
X209677152Y-92901790D02*
X209736676Y-93080361D01*
X209581914Y-93080361D01*
X209379533Y-92997028D02*
X209379533Y-93163695D01*
X209439057Y-92901790D02*
X209498580Y-93080361D01*
X209343819Y-93080361D01*
X223647628Y-93487028D02*
X223647628Y-93653695D01*
X223707152Y-93391790D02*
X223766676Y-93570361D01*
X223611914Y-93570361D01*
X223540485Y-93403695D02*
X223385723Y-93403695D01*
X223469057Y-93498933D01*
X223433342Y-93498933D01*
X223409533Y-93510838D01*
X223397628Y-93522742D01*
X223385723Y-93546552D01*
X223385723Y-93606076D01*
X223397628Y-93629885D01*
X223409533Y-93641790D01*
X223433342Y-93653695D01*
X223504771Y-93653695D01*
X223528580Y-93641790D01*
X223540485Y-93629885D01*
X223394771Y-71753695D02*
X223537628Y-71753695D01*
X223466200Y-71753695D02*
X223466200Y-71503695D01*
X223490009Y-71539409D01*
X223513819Y-71563219D01*
X223537628Y-71575123D01*
D12*
X279667628Y-77800600D02*
X278239057Y-77800600D01*
X279953342Y-78657742D02*
X278953342Y-75657742D01*
X277953342Y-78657742D01*
X276953342Y-78657742D02*
X276953342Y-76657742D01*
X276953342Y-77229171D02*
X276810485Y-76943457D01*
X276667628Y-76800600D01*
X276381914Y-76657742D01*
X276096200Y-76657742D01*
X273810485Y-78657742D02*
X273810485Y-75657742D01*
X273810485Y-78514885D02*
X274096200Y-78657742D01*
X274667628Y-78657742D01*
X274953342Y-78514885D01*
X275096200Y-78372028D01*
X275239057Y-78086314D01*
X275239057Y-77229171D01*
X275096200Y-76943457D01*
X274953342Y-76800600D01*
X274667628Y-76657742D01*
X274096200Y-76657742D01*
X273810485Y-76800600D01*
X271953342Y-78657742D02*
X272239057Y-78514885D01*
X272381914Y-78372028D01*
X272524771Y-78086314D01*
X272524771Y-77229171D01*
X272381914Y-76943457D01*
X272239057Y-76800600D01*
X271953342Y-76657742D01*
X271524771Y-76657742D01*
X271239057Y-76800600D01*
X271096200Y-76943457D01*
X270953342Y-77229171D01*
X270953342Y-78086314D01*
X271096200Y-78372028D01*
X271239057Y-78514885D01*
X271524771Y-78657742D01*
X271953342Y-78657742D01*
X269667628Y-76657742D02*
X269667628Y-78657742D01*
X269667628Y-76943457D02*
X269524771Y-76800600D01*
X269239057Y-76657742D01*
X268810485Y-76657742D01*
X268524771Y-76800600D01*
X268381914Y-77086314D01*
X268381914Y-78657742D01*
X267239057Y-76657742D02*
X266524771Y-78657742D01*
X265810485Y-76657742D02*
X266524771Y-78657742D01*
X266810485Y-79372028D01*
X266953342Y-79514885D01*
X267239057Y-79657742D01*
X264953342Y-78657742D02*
X263381914Y-76657742D01*
X264953342Y-76657742D02*
X263381914Y-78657742D01*
X260381914Y-75657742D02*
X259381914Y-78657742D01*
X258381914Y-75657742D01*
X256239057Y-78514885D02*
X256524771Y-78657742D01*
X257096200Y-78657742D01*
X257381914Y-78514885D01*
X257524771Y-78229171D01*
X257524771Y-77086314D01*
X257381914Y-76800600D01*
X257096200Y-76657742D01*
X256524771Y-76657742D01*
X256239057Y-76800600D01*
X256096200Y-77086314D01*
X256096200Y-77372028D01*
X257524771Y-77657742D01*
X254810485Y-78657742D02*
X254810485Y-76657742D01*
X254810485Y-77229171D02*
X254667628Y-76943457D01*
X254524771Y-76800600D01*
X254239057Y-76657742D01*
X253953342Y-76657742D01*
X253096200Y-78514885D02*
X252810485Y-78657742D01*
X252239057Y-78657742D01*
X251953342Y-78514885D01*
X251810485Y-78229171D01*
X251810485Y-78086314D01*
X251953342Y-77800600D01*
X252239057Y-77657742D01*
X252667628Y-77657742D01*
X252953342Y-77514885D01*
X253096200Y-77229171D01*
X253096200Y-77086314D01*
X252953342Y-76800600D01*
X252667628Y-76657742D01*
X252239057Y-76657742D01*
X251953342Y-76800600D01*
X250524771Y-78657742D02*
X250524771Y-76657742D01*
X250524771Y-75657742D02*
X250667628Y-75800600D01*
X250524771Y-75943457D01*
X250381914Y-75800600D01*
X250524771Y-75657742D01*
X250524771Y-75943457D01*
X248667628Y-78657742D02*
X248953342Y-78514885D01*
X249096200Y-78372028D01*
X249239057Y-78086314D01*
X249239057Y-77229171D01*
X249096200Y-76943457D01*
X248953342Y-76800600D01*
X248667628Y-76657742D01*
X248239057Y-76657742D01*
X247953342Y-76800600D01*
X247810485Y-76943457D01*
X247667628Y-77229171D01*
X247667628Y-78086314D01*
X247810485Y-78372028D01*
X247953342Y-78514885D01*
X248239057Y-78657742D01*
X248667628Y-78657742D01*
X246381914Y-76657742D02*
X246381914Y-78657742D01*
X246381914Y-76943457D02*
X246239057Y-76800600D01*
X245953342Y-76657742D01*
X245524771Y-76657742D01*
X245239057Y-76800600D01*
X245096200Y-77086314D01*
X245096200Y-78657742D01*
X239810485Y-78657742D02*
X241524771Y-78657742D01*
X240667628Y-78657742D02*
X240667628Y-75657742D01*
X240953342Y-76086314D01*
X241239057Y-76372028D01*
X241524771Y-76514885D01*
X238524771Y-78372028D02*
X238381914Y-78514885D01*
X238524771Y-78657742D01*
X238667628Y-78514885D01*
X238524771Y-78372028D01*
X238524771Y-78657742D01*
X236524771Y-75657742D02*
X236239057Y-75657742D01*
X235953342Y-75800600D01*
X235810485Y-75943457D01*
X235667628Y-76229171D01*
X235524771Y-76800600D01*
X235524771Y-77514885D01*
X235667628Y-78086314D01*
X235810485Y-78372028D01*
X235953342Y-78514885D01*
X236239057Y-78657742D01*
X236524771Y-78657742D01*
X236810485Y-78514885D01*
X236953342Y-78372028D01*
X237096200Y-78086314D01*
X237239057Y-77514885D01*
X237239057Y-76800600D01*
X237096200Y-76229171D01*
X236953342Y-75943457D01*
X236810485Y-75800600D01*
X236524771Y-75657742D01*
X269310485Y-83357742D02*
X269310485Y-80357742D01*
X267881914Y-83357742D02*
X267881914Y-80357742D01*
X266881914Y-80357742D02*
X265167628Y-80357742D01*
X266024771Y-83357742D02*
X266024771Y-80357742D01*
X261881914Y-83357742D02*
X261881914Y-80357742D01*
X260881914Y-82500600D01*
X259881914Y-80357742D01*
X259881914Y-83357742D01*
X258596200Y-82500600D02*
X257167628Y-82500600D01*
X258881914Y-83357742D02*
X257881914Y-80357742D01*
X256881914Y-83357742D01*
X255881914Y-83357742D02*
X255881914Y-80357742D01*
X255167628Y-80357742D01*
X254739057Y-80500600D01*
X254453342Y-80786314D01*
X254310485Y-81072028D01*
X254167628Y-81643457D01*
X254167628Y-82072028D01*
X254310485Y-82643457D01*
X254453342Y-82929171D01*
X254739057Y-83214885D01*
X255167628Y-83357742D01*
X255881914Y-83357742D01*
X251167628Y-83357742D02*
X252167628Y-81929171D01*
X252881914Y-83357742D02*
X252881914Y-80357742D01*
X251739057Y-80357742D01*
X251453342Y-80500600D01*
X251310485Y-80643457D01*
X251167628Y-80929171D01*
X251167628Y-81357742D01*
X251310485Y-81643457D01*
X251453342Y-81786314D01*
X251739057Y-81929171D01*
X252881914Y-81929171D01*
X250024771Y-82500600D02*
X248596200Y-82500600D01*
X250310485Y-83357742D02*
X249310485Y-80357742D01*
X248310485Y-83357742D01*
X247453342Y-83214885D02*
X247024771Y-83357742D01*
X246310485Y-83357742D01*
X246024771Y-83214885D01*
X245881914Y-83072028D01*
X245739057Y-82786314D01*
X245739057Y-82500600D01*
X245881914Y-82214885D01*
X246024771Y-82072028D01*
X246310485Y-81929171D01*
X246881914Y-81786314D01*
X247167628Y-81643457D01*
X247310485Y-81500600D01*
X247453342Y-81214885D01*
X247453342Y-80929171D01*
X247310485Y-80643457D01*
X247167628Y-80500600D01*
X246881914Y-80357742D01*
X246167628Y-80357742D01*
X245739057Y-80500600D01*
D13*
X211256640Y-71313040D02*
X211256640Y-71932800D01*
X221977000Y-71350000D02*
X211277000Y-71350000D01*
X222011000Y-71927720D02*
X222011000Y-71313040D01*
X222077000Y-93750000D02*
X211277000Y-93750000D01*
X211231240Y-93776800D02*
X211231240Y-93228160D01*
X222061800Y-93731080D02*
X222061800Y-93228160D01*
X222005920Y-71856600D02*
X223005920Y-71856600D01*
X223555320Y-72064880D02*
G75*
G03*
X223555320Y-72064880I-60960J0D01*
G01*
X135599400Y-97502200D02*
X133699400Y-97502200D01*
X134199400Y-95182200D02*
X135599400Y-95182200D01*
X143527936Y-140890000D02*
X144732064Y-140890000D01*
X143527936Y-139070000D02*
X144732064Y-139070000D01*
X163978000Y-142207064D02*
X163978000Y-141002936D01*
X162158000Y-142207064D02*
X162158000Y-141002936D01*
X153690000Y-145587936D02*
X153690000Y-146792064D01*
X155510000Y-145587936D02*
X155510000Y-146792064D01*
D10*
X185488342Y-111938457D02*
X185524057Y-111974171D01*
X185631200Y-112009885D01*
X185702628Y-112009885D01*
X185809771Y-111974171D01*
X185881200Y-111902742D01*
X185916914Y-111831314D01*
X185952628Y-111688457D01*
X185952628Y-111581314D01*
X185916914Y-111438457D01*
X185881200Y-111367028D01*
X185809771Y-111295600D01*
X185702628Y-111259885D01*
X185631200Y-111259885D01*
X185524057Y-111295600D01*
X185488342Y-111331314D01*
X184809771Y-111259885D02*
X185166914Y-111259885D01*
X185202628Y-111617028D01*
X185166914Y-111581314D01*
X185095485Y-111545600D01*
X184916914Y-111545600D01*
X184845485Y-111581314D01*
X184809771Y-111617028D01*
X184774057Y-111688457D01*
X184774057Y-111867028D01*
X184809771Y-111938457D01*
X184845485Y-111974171D01*
X184916914Y-112009885D01*
X185095485Y-112009885D01*
X185166914Y-111974171D01*
X185202628Y-111938457D01*
X184131200Y-111509885D02*
X184131200Y-112009885D01*
X184309771Y-111224171D02*
X184488342Y-111759885D01*
X184024057Y-111759885D01*
X223357628Y-69299885D02*
X223357628Y-69907028D01*
X223321914Y-69978457D01*
X223286200Y-70014171D01*
X223214771Y-70049885D01*
X223071914Y-70049885D01*
X223000485Y-70014171D01*
X222964771Y-69978457D01*
X222929057Y-69907028D01*
X222929057Y-69299885D01*
X222643342Y-69299885D02*
X222179057Y-69299885D01*
X222429057Y-69585600D01*
X222321914Y-69585600D01*
X222250485Y-69621314D01*
X222214771Y-69657028D01*
X222179057Y-69728457D01*
X222179057Y-69907028D01*
X222214771Y-69978457D01*
X222250485Y-70014171D01*
X222321914Y-70049885D01*
X222536200Y-70049885D01*
X222607628Y-70014171D01*
X222643342Y-69978457D01*
X138227628Y-93969885D02*
X138227628Y-94577028D01*
X138191914Y-94648457D01*
X138156200Y-94684171D01*
X138084771Y-94719885D01*
X137941914Y-94719885D01*
X137870485Y-94684171D01*
X137834771Y-94648457D01*
X137799057Y-94577028D01*
X137799057Y-93969885D01*
X137513342Y-93969885D02*
X137013342Y-93969885D01*
X137334771Y-94719885D01*
X129378342Y-116629885D02*
X129628342Y-116272742D01*
X129806914Y-116629885D02*
X129806914Y-115879885D01*
X129521200Y-115879885D01*
X129449771Y-115915600D01*
X129414057Y-115951314D01*
X129378342Y-116022742D01*
X129378342Y-116129885D01*
X129414057Y-116201314D01*
X129449771Y-116237028D01*
X129521200Y-116272742D01*
X129806914Y-116272742D01*
X129021200Y-116629885D02*
X128878342Y-116629885D01*
X128806914Y-116594171D01*
X128771200Y-116558457D01*
X128699771Y-116451314D01*
X128664057Y-116308457D01*
X128664057Y-116022742D01*
X128699771Y-115951314D01*
X128735485Y-115915600D01*
X128806914Y-115879885D01*
X128949771Y-115879885D01*
X129021200Y-115915600D01*
X129056914Y-115951314D01*
X129092628Y-116022742D01*
X129092628Y-116201314D01*
X129056914Y-116272742D01*
X129021200Y-116308457D01*
X128949771Y-116344171D01*
X128806914Y-116344171D01*
X128735485Y-116308457D01*
X128699771Y-116272742D01*
X128664057Y-116201314D01*
X128021200Y-115879885D02*
X128164057Y-115879885D01*
X128235485Y-115915600D01*
X128271200Y-115951314D01*
X128342628Y-116058457D01*
X128378342Y-116201314D01*
X128378342Y-116487028D01*
X128342628Y-116558457D01*
X128306914Y-116594171D01*
X128235485Y-116629885D01*
X128092628Y-116629885D01*
X128021200Y-116594171D01*
X127985485Y-116558457D01*
X127949771Y-116487028D01*
X127949771Y-116308457D01*
X127985485Y-116237028D01*
X128021200Y-116201314D01*
X128092628Y-116165600D01*
X128235485Y-116165600D01*
X128306914Y-116201314D01*
X128342628Y-116237028D01*
X128378342Y-116308457D01*
X178348342Y-105629885D02*
X178598342Y-105272742D01*
X178776914Y-105629885D02*
X178776914Y-104879885D01*
X178491200Y-104879885D01*
X178419771Y-104915600D01*
X178384057Y-104951314D01*
X178348342Y-105022742D01*
X178348342Y-105129885D01*
X178384057Y-105201314D01*
X178419771Y-105237028D01*
X178491200Y-105272742D01*
X178776914Y-105272742D01*
X178098342Y-104879885D02*
X177598342Y-104879885D01*
X177919771Y-105629885D01*
X176991200Y-105129885D02*
X176991200Y-105629885D01*
X177169771Y-104844171D02*
X177348342Y-105379885D01*
X176884057Y-105379885D01*
X177048342Y-103279885D02*
X177298342Y-102922742D01*
X177476914Y-103279885D02*
X177476914Y-102529885D01*
X177191200Y-102529885D01*
X177119771Y-102565600D01*
X177084057Y-102601314D01*
X177048342Y-102672742D01*
X177048342Y-102779885D01*
X177084057Y-102851314D01*
X177119771Y-102887028D01*
X177191200Y-102922742D01*
X177476914Y-102922742D01*
X176798342Y-102529885D02*
X176298342Y-102529885D01*
X176619771Y-103279885D01*
X175619771Y-103279885D02*
X176048342Y-103279885D01*
X175834057Y-103279885D02*
X175834057Y-102529885D01*
X175905485Y-102637028D01*
X175976914Y-102708457D01*
X176048342Y-102744171D01*
X176428342Y-102239885D02*
X176678342Y-101882742D01*
X176856914Y-102239885D02*
X176856914Y-101489885D01*
X176571200Y-101489885D01*
X176499771Y-101525600D01*
X176464057Y-101561314D01*
X176428342Y-101632742D01*
X176428342Y-101739885D01*
X176464057Y-101811314D01*
X176499771Y-101847028D01*
X176571200Y-101882742D01*
X176856914Y-101882742D01*
X175785485Y-101489885D02*
X175928342Y-101489885D01*
X175999771Y-101525600D01*
X176035485Y-101561314D01*
X176106914Y-101668457D01*
X176142628Y-101811314D01*
X176142628Y-102097028D01*
X176106914Y-102168457D01*
X176071200Y-102204171D01*
X175999771Y-102239885D01*
X175856914Y-102239885D01*
X175785485Y-102204171D01*
X175749771Y-102168457D01*
X175714057Y-102097028D01*
X175714057Y-101918457D01*
X175749771Y-101847028D01*
X175785485Y-101811314D01*
X175856914Y-101775600D01*
X175999771Y-101775600D01*
X176071200Y-101811314D01*
X176106914Y-101847028D01*
X176142628Y-101918457D01*
X175285485Y-101811314D02*
X175356914Y-101775600D01*
X175392628Y-101739885D01*
X175428342Y-101668457D01*
X175428342Y-101632742D01*
X175392628Y-101561314D01*
X175356914Y-101525600D01*
X175285485Y-101489885D01*
X175142628Y-101489885D01*
X175071200Y-101525600D01*
X175035485Y-101561314D01*
X174999771Y-101632742D01*
X174999771Y-101668457D01*
X175035485Y-101739885D01*
X175071200Y-101775600D01*
X175142628Y-101811314D01*
X175285485Y-101811314D01*
X175356914Y-101847028D01*
X175392628Y-101882742D01*
X175428342Y-101954171D01*
X175428342Y-102097028D01*
X175392628Y-102168457D01*
X175356914Y-102204171D01*
X175285485Y-102239885D01*
X175142628Y-102239885D01*
X175071200Y-102204171D01*
X175035485Y-102168457D01*
X174999771Y-102097028D01*
X174999771Y-101954171D01*
X175035485Y-101882742D01*
X175071200Y-101847028D01*
X175142628Y-101811314D01*
X177178342Y-100909885D02*
X177428342Y-100552742D01*
X177606914Y-100909885D02*
X177606914Y-100159885D01*
X177321200Y-100159885D01*
X177249771Y-100195600D01*
X177214057Y-100231314D01*
X177178342Y-100302742D01*
X177178342Y-100409885D01*
X177214057Y-100481314D01*
X177249771Y-100517028D01*
X177321200Y-100552742D01*
X177606914Y-100552742D01*
X176535485Y-100159885D02*
X176678342Y-100159885D01*
X176749771Y-100195600D01*
X176785485Y-100231314D01*
X176856914Y-100338457D01*
X176892628Y-100481314D01*
X176892628Y-100767028D01*
X176856914Y-100838457D01*
X176821200Y-100874171D01*
X176749771Y-100909885D01*
X176606914Y-100909885D01*
X176535485Y-100874171D01*
X176499771Y-100838457D01*
X176464057Y-100767028D01*
X176464057Y-100588457D01*
X176499771Y-100517028D01*
X176535485Y-100481314D01*
X176606914Y-100445600D01*
X176749771Y-100445600D01*
X176821200Y-100481314D01*
X176856914Y-100517028D01*
X176892628Y-100588457D01*
X175821200Y-100409885D02*
X175821200Y-100909885D01*
X175999771Y-100124171D02*
X176178342Y-100659885D01*
X175714057Y-100659885D01*
X183078342Y-103299885D02*
X183328342Y-102942742D01*
X183506914Y-103299885D02*
X183506914Y-102549885D01*
X183221200Y-102549885D01*
X183149771Y-102585600D01*
X183114057Y-102621314D01*
X183078342Y-102692742D01*
X183078342Y-102799885D01*
X183114057Y-102871314D01*
X183149771Y-102907028D01*
X183221200Y-102942742D01*
X183506914Y-102942742D01*
X182435485Y-102549885D02*
X182578342Y-102549885D01*
X182649771Y-102585600D01*
X182685485Y-102621314D01*
X182756914Y-102728457D01*
X182792628Y-102871314D01*
X182792628Y-103157028D01*
X182756914Y-103228457D01*
X182721200Y-103264171D01*
X182649771Y-103299885D01*
X182506914Y-103299885D01*
X182435485Y-103264171D01*
X182399771Y-103228457D01*
X182364057Y-103157028D01*
X182364057Y-102978457D01*
X182399771Y-102907028D01*
X182435485Y-102871314D01*
X182506914Y-102835600D01*
X182649771Y-102835600D01*
X182721200Y-102871314D01*
X182756914Y-102907028D01*
X182792628Y-102978457D01*
X182006914Y-103299885D02*
X181864057Y-103299885D01*
X181792628Y-103264171D01*
X181756914Y-103228457D01*
X181685485Y-103121314D01*
X181649771Y-102978457D01*
X181649771Y-102692742D01*
X181685485Y-102621314D01*
X181721200Y-102585600D01*
X181792628Y-102549885D01*
X181935485Y-102549885D01*
X182006914Y-102585600D01*
X182042628Y-102621314D01*
X182078342Y-102692742D01*
X182078342Y-102871314D01*
X182042628Y-102942742D01*
X182006914Y-102978457D01*
X181935485Y-103014171D01*
X181792628Y-103014171D01*
X181721200Y-102978457D01*
X181685485Y-102942742D01*
X181649771Y-102871314D01*
X184308342Y-99979885D02*
X184558342Y-99622742D01*
X184736914Y-99979885D02*
X184736914Y-99229885D01*
X184451200Y-99229885D01*
X184379771Y-99265600D01*
X184344057Y-99301314D01*
X184308342Y-99372742D01*
X184308342Y-99479885D01*
X184344057Y-99551314D01*
X184379771Y-99587028D01*
X184451200Y-99622742D01*
X184736914Y-99622742D01*
X183665485Y-99229885D02*
X183808342Y-99229885D01*
X183879771Y-99265600D01*
X183915485Y-99301314D01*
X183986914Y-99408457D01*
X184022628Y-99551314D01*
X184022628Y-99837028D01*
X183986914Y-99908457D01*
X183951200Y-99944171D01*
X183879771Y-99979885D01*
X183736914Y-99979885D01*
X183665485Y-99944171D01*
X183629771Y-99908457D01*
X183594057Y-99837028D01*
X183594057Y-99658457D01*
X183629771Y-99587028D01*
X183665485Y-99551314D01*
X183736914Y-99515600D01*
X183879771Y-99515600D01*
X183951200Y-99551314D01*
X183986914Y-99587028D01*
X184022628Y-99658457D01*
X182915485Y-99229885D02*
X183272628Y-99229885D01*
X183308342Y-99587028D01*
X183272628Y-99551314D01*
X183201200Y-99515600D01*
X183022628Y-99515600D01*
X182951200Y-99551314D01*
X182915485Y-99587028D01*
X182879771Y-99658457D01*
X182879771Y-99837028D01*
X182915485Y-99908457D01*
X182951200Y-99944171D01*
X183022628Y-99979885D01*
X183201200Y-99979885D01*
X183272628Y-99944171D01*
X183308342Y-99908457D01*
X187488342Y-103599885D02*
X187738342Y-103242742D01*
X187916914Y-103599885D02*
X187916914Y-102849885D01*
X187631200Y-102849885D01*
X187559771Y-102885600D01*
X187524057Y-102921314D01*
X187488342Y-102992742D01*
X187488342Y-103099885D01*
X187524057Y-103171314D01*
X187559771Y-103207028D01*
X187631200Y-103242742D01*
X187916914Y-103242742D01*
X187238342Y-102849885D02*
X186738342Y-102849885D01*
X187059771Y-103599885D01*
X186309771Y-102849885D02*
X186238342Y-102849885D01*
X186166914Y-102885600D01*
X186131200Y-102921314D01*
X186095485Y-102992742D01*
X186059771Y-103135600D01*
X186059771Y-103314171D01*
X186095485Y-103457028D01*
X186131200Y-103528457D01*
X186166914Y-103564171D01*
X186238342Y-103599885D01*
X186309771Y-103599885D01*
X186381200Y-103564171D01*
X186416914Y-103528457D01*
X186452628Y-103457028D01*
X186488342Y-103314171D01*
X186488342Y-103135600D01*
X186452628Y-102992742D01*
X186416914Y-102921314D01*
X186381200Y-102885600D01*
X186309771Y-102849885D01*
X190138342Y-100639885D02*
X190388342Y-100282742D01*
X190566914Y-100639885D02*
X190566914Y-99889885D01*
X190281200Y-99889885D01*
X190209771Y-99925600D01*
X190174057Y-99961314D01*
X190138342Y-100032742D01*
X190138342Y-100139885D01*
X190174057Y-100211314D01*
X190209771Y-100247028D01*
X190281200Y-100282742D01*
X190566914Y-100282742D01*
X189495485Y-99889885D02*
X189638342Y-99889885D01*
X189709771Y-99925600D01*
X189745485Y-99961314D01*
X189816914Y-100068457D01*
X189852628Y-100211314D01*
X189852628Y-100497028D01*
X189816914Y-100568457D01*
X189781200Y-100604171D01*
X189709771Y-100639885D01*
X189566914Y-100639885D01*
X189495485Y-100604171D01*
X189459771Y-100568457D01*
X189424057Y-100497028D01*
X189424057Y-100318457D01*
X189459771Y-100247028D01*
X189495485Y-100211314D01*
X189566914Y-100175600D01*
X189709771Y-100175600D01*
X189781200Y-100211314D01*
X189816914Y-100247028D01*
X189852628Y-100318457D01*
X188781200Y-99889885D02*
X188924057Y-99889885D01*
X188995485Y-99925600D01*
X189031200Y-99961314D01*
X189102628Y-100068457D01*
X189138342Y-100211314D01*
X189138342Y-100497028D01*
X189102628Y-100568457D01*
X189066914Y-100604171D01*
X188995485Y-100639885D01*
X188852628Y-100639885D01*
X188781200Y-100604171D01*
X188745485Y-100568457D01*
X188709771Y-100497028D01*
X188709771Y-100318457D01*
X188745485Y-100247028D01*
X188781200Y-100211314D01*
X188852628Y-100175600D01*
X188995485Y-100175600D01*
X189066914Y-100211314D01*
X189102628Y-100247028D01*
X189138342Y-100318457D01*
X191390142Y-87120285D02*
X191640142Y-86763142D01*
X191818714Y-87120285D02*
X191818714Y-86370285D01*
X191533000Y-86370285D01*
X191461571Y-86406000D01*
X191425857Y-86441714D01*
X191390142Y-86513142D01*
X191390142Y-86620285D01*
X191425857Y-86691714D01*
X191461571Y-86727428D01*
X191533000Y-86763142D01*
X191818714Y-86763142D01*
X190747285Y-86620285D02*
X190747285Y-87120285D01*
X190925857Y-86334571D02*
X191104428Y-86870285D01*
X190640142Y-86870285D01*
X189961571Y-87120285D02*
X190390142Y-87120285D01*
X190175857Y-87120285D02*
X190175857Y-86370285D01*
X190247285Y-86477428D01*
X190318714Y-86548857D01*
X190390142Y-86584571D01*
X191342142Y-85885285D02*
X191592142Y-85528142D01*
X191770714Y-85885285D02*
X191770714Y-85135285D01*
X191485000Y-85135285D01*
X191413571Y-85171000D01*
X191377857Y-85206714D01*
X191342142Y-85278142D01*
X191342142Y-85385285D01*
X191377857Y-85456714D01*
X191413571Y-85492428D01*
X191485000Y-85528142D01*
X191770714Y-85528142D01*
X190699285Y-85385285D02*
X190699285Y-85885285D01*
X190877857Y-85099571D02*
X191056428Y-85635285D01*
X190592142Y-85635285D01*
X190163571Y-85135285D02*
X190092142Y-85135285D01*
X190020714Y-85171000D01*
X189985000Y-85206714D01*
X189949285Y-85278142D01*
X189913571Y-85421000D01*
X189913571Y-85599571D01*
X189949285Y-85742428D01*
X189985000Y-85813857D01*
X190020714Y-85849571D01*
X190092142Y-85885285D01*
X190163571Y-85885285D01*
X190235000Y-85849571D01*
X190270714Y-85813857D01*
X190306428Y-85742428D01*
X190342142Y-85599571D01*
X190342142Y-85421000D01*
X190306428Y-85278142D01*
X190270714Y-85206714D01*
X190235000Y-85171000D01*
X190163571Y-85135285D01*
X191342142Y-84705285D02*
X191592142Y-84348142D01*
X191770714Y-84705285D02*
X191770714Y-83955285D01*
X191485000Y-83955285D01*
X191413571Y-83991000D01*
X191377857Y-84026714D01*
X191342142Y-84098142D01*
X191342142Y-84205285D01*
X191377857Y-84276714D01*
X191413571Y-84312428D01*
X191485000Y-84348142D01*
X191770714Y-84348142D01*
X191092142Y-83955285D02*
X190627857Y-83955285D01*
X190877857Y-84241000D01*
X190770714Y-84241000D01*
X190699285Y-84276714D01*
X190663571Y-84312428D01*
X190627857Y-84383857D01*
X190627857Y-84562428D01*
X190663571Y-84633857D01*
X190699285Y-84669571D01*
X190770714Y-84705285D01*
X190985000Y-84705285D01*
X191056428Y-84669571D01*
X191092142Y-84633857D01*
X190199285Y-84276714D02*
X190270714Y-84241000D01*
X190306428Y-84205285D01*
X190342142Y-84133857D01*
X190342142Y-84098142D01*
X190306428Y-84026714D01*
X190270714Y-83991000D01*
X190199285Y-83955285D01*
X190056428Y-83955285D01*
X189985000Y-83991000D01*
X189949285Y-84026714D01*
X189913571Y-84098142D01*
X189913571Y-84133857D01*
X189949285Y-84205285D01*
X189985000Y-84241000D01*
X190056428Y-84276714D01*
X190199285Y-84276714D01*
X190270714Y-84312428D01*
X190306428Y-84348142D01*
X190342142Y-84419571D01*
X190342142Y-84562428D01*
X190306428Y-84633857D01*
X190270714Y-84669571D01*
X190199285Y-84705285D01*
X190056428Y-84705285D01*
X189985000Y-84669571D01*
X189949285Y-84633857D01*
X189913571Y-84562428D01*
X189913571Y-84419571D01*
X189949285Y-84348142D01*
X189985000Y-84312428D01*
X190056428Y-84276714D01*
X191402142Y-83535285D02*
X191652142Y-83178142D01*
X191830714Y-83535285D02*
X191830714Y-82785285D01*
X191545000Y-82785285D01*
X191473571Y-82821000D01*
X191437857Y-82856714D01*
X191402142Y-82928142D01*
X191402142Y-83035285D01*
X191437857Y-83106714D01*
X191473571Y-83142428D01*
X191545000Y-83178142D01*
X191830714Y-83178142D01*
X191152142Y-82785285D02*
X190687857Y-82785285D01*
X190937857Y-83071000D01*
X190830714Y-83071000D01*
X190759285Y-83106714D01*
X190723571Y-83142428D01*
X190687857Y-83213857D01*
X190687857Y-83392428D01*
X190723571Y-83463857D01*
X190759285Y-83499571D01*
X190830714Y-83535285D01*
X191045000Y-83535285D01*
X191116428Y-83499571D01*
X191152142Y-83463857D01*
X190437857Y-82785285D02*
X189937857Y-82785285D01*
X190259285Y-83535285D01*
X191407142Y-82428285D02*
X191657142Y-82071142D01*
X191835714Y-82428285D02*
X191835714Y-81678285D01*
X191550000Y-81678285D01*
X191478571Y-81714000D01*
X191442857Y-81749714D01*
X191407142Y-81821142D01*
X191407142Y-81928285D01*
X191442857Y-81999714D01*
X191478571Y-82035428D01*
X191550000Y-82071142D01*
X191835714Y-82071142D01*
X191157142Y-81678285D02*
X190692857Y-81678285D01*
X190942857Y-81964000D01*
X190835714Y-81964000D01*
X190764285Y-81999714D01*
X190728571Y-82035428D01*
X190692857Y-82106857D01*
X190692857Y-82285428D01*
X190728571Y-82356857D01*
X190764285Y-82392571D01*
X190835714Y-82428285D01*
X191050000Y-82428285D01*
X191121428Y-82392571D01*
X191157142Y-82356857D01*
X190050000Y-81928285D02*
X190050000Y-82428285D01*
X190228571Y-81642571D02*
X190407142Y-82178285D01*
X189942857Y-82178285D01*
X191427142Y-81462285D02*
X191677142Y-81105142D01*
X191855714Y-81462285D02*
X191855714Y-80712285D01*
X191570000Y-80712285D01*
X191498571Y-80748000D01*
X191462857Y-80783714D01*
X191427142Y-80855142D01*
X191427142Y-80962285D01*
X191462857Y-81033714D01*
X191498571Y-81069428D01*
X191570000Y-81105142D01*
X191855714Y-81105142D01*
X191177142Y-80712285D02*
X190712857Y-80712285D01*
X190962857Y-80998000D01*
X190855714Y-80998000D01*
X190784285Y-81033714D01*
X190748571Y-81069428D01*
X190712857Y-81140857D01*
X190712857Y-81319428D01*
X190748571Y-81390857D01*
X190784285Y-81426571D01*
X190855714Y-81462285D01*
X191070000Y-81462285D01*
X191141428Y-81426571D01*
X191177142Y-81390857D01*
X190462857Y-80712285D02*
X189998571Y-80712285D01*
X190248571Y-80998000D01*
X190141428Y-80998000D01*
X190070000Y-81033714D01*
X190034285Y-81069428D01*
X189998571Y-81140857D01*
X189998571Y-81319428D01*
X190034285Y-81390857D01*
X190070000Y-81426571D01*
X190141428Y-81462285D01*
X190355714Y-81462285D01*
X190427142Y-81426571D01*
X190462857Y-81390857D01*
X191397142Y-78444285D02*
X191647142Y-78087142D01*
X191825714Y-78444285D02*
X191825714Y-77694285D01*
X191540000Y-77694285D01*
X191468571Y-77730000D01*
X191432857Y-77765714D01*
X191397142Y-77837142D01*
X191397142Y-77944285D01*
X191432857Y-78015714D01*
X191468571Y-78051428D01*
X191540000Y-78087142D01*
X191825714Y-78087142D01*
X191147142Y-77694285D02*
X190682857Y-77694285D01*
X190932857Y-77980000D01*
X190825714Y-77980000D01*
X190754285Y-78015714D01*
X190718571Y-78051428D01*
X190682857Y-78122857D01*
X190682857Y-78301428D01*
X190718571Y-78372857D01*
X190754285Y-78408571D01*
X190825714Y-78444285D01*
X191040000Y-78444285D01*
X191111428Y-78408571D01*
X191147142Y-78372857D01*
X189968571Y-78444285D02*
X190397142Y-78444285D01*
X190182857Y-78444285D02*
X190182857Y-77694285D01*
X190254285Y-77801428D01*
X190325714Y-77872857D01*
X190397142Y-77908571D01*
X191367142Y-77468285D02*
X191617142Y-77111142D01*
X191795714Y-77468285D02*
X191795714Y-76718285D01*
X191510000Y-76718285D01*
X191438571Y-76754000D01*
X191402857Y-76789714D01*
X191367142Y-76861142D01*
X191367142Y-76968285D01*
X191402857Y-77039714D01*
X191438571Y-77075428D01*
X191510000Y-77111142D01*
X191795714Y-77111142D01*
X191117142Y-76718285D02*
X190652857Y-76718285D01*
X190902857Y-77004000D01*
X190795714Y-77004000D01*
X190724285Y-77039714D01*
X190688571Y-77075428D01*
X190652857Y-77146857D01*
X190652857Y-77325428D01*
X190688571Y-77396857D01*
X190724285Y-77432571D01*
X190795714Y-77468285D01*
X191010000Y-77468285D01*
X191081428Y-77432571D01*
X191117142Y-77396857D01*
X190188571Y-76718285D02*
X190117142Y-76718285D01*
X190045714Y-76754000D01*
X190010000Y-76789714D01*
X189974285Y-76861142D01*
X189938571Y-77004000D01*
X189938571Y-77182571D01*
X189974285Y-77325428D01*
X190010000Y-77396857D01*
X190045714Y-77432571D01*
X190117142Y-77468285D01*
X190188571Y-77468285D01*
X190260000Y-77432571D01*
X190295714Y-77396857D01*
X190331428Y-77325428D01*
X190367142Y-77182571D01*
X190367142Y-77004000D01*
X190331428Y-76861142D01*
X190295714Y-76789714D01*
X190260000Y-76754000D01*
X190188571Y-76718285D01*
X191267142Y-76432285D02*
X191517142Y-76075142D01*
X191695714Y-76432285D02*
X191695714Y-75682285D01*
X191410000Y-75682285D01*
X191338571Y-75718000D01*
X191302857Y-75753714D01*
X191267142Y-75825142D01*
X191267142Y-75932285D01*
X191302857Y-76003714D01*
X191338571Y-76039428D01*
X191410000Y-76075142D01*
X191695714Y-76075142D01*
X190981428Y-75753714D02*
X190945714Y-75718000D01*
X190874285Y-75682285D01*
X190695714Y-75682285D01*
X190624285Y-75718000D01*
X190588571Y-75753714D01*
X190552857Y-75825142D01*
X190552857Y-75896571D01*
X190588571Y-76003714D01*
X191017142Y-76432285D01*
X190552857Y-76432285D01*
X190302857Y-75682285D02*
X189802857Y-75682285D01*
X190124285Y-76432285D01*
X191352142Y-75406285D02*
X191602142Y-75049142D01*
X191780714Y-75406285D02*
X191780714Y-74656285D01*
X191495000Y-74656285D01*
X191423571Y-74692000D01*
X191387857Y-74727714D01*
X191352142Y-74799142D01*
X191352142Y-74906285D01*
X191387857Y-74977714D01*
X191423571Y-75013428D01*
X191495000Y-75049142D01*
X191780714Y-75049142D01*
X191066428Y-74727714D02*
X191030714Y-74692000D01*
X190959285Y-74656285D01*
X190780714Y-74656285D01*
X190709285Y-74692000D01*
X190673571Y-74727714D01*
X190637857Y-74799142D01*
X190637857Y-74870571D01*
X190673571Y-74977714D01*
X191102142Y-75406285D01*
X190637857Y-75406285D01*
X189995000Y-74656285D02*
X190137857Y-74656285D01*
X190209285Y-74692000D01*
X190245000Y-74727714D01*
X190316428Y-74834857D01*
X190352142Y-74977714D01*
X190352142Y-75263428D01*
X190316428Y-75334857D01*
X190280714Y-75370571D01*
X190209285Y-75406285D01*
X190066428Y-75406285D01*
X189995000Y-75370571D01*
X189959285Y-75334857D01*
X189923571Y-75263428D01*
X189923571Y-75084857D01*
X189959285Y-75013428D01*
X189995000Y-74977714D01*
X190066428Y-74942000D01*
X190209285Y-74942000D01*
X190280714Y-74977714D01*
X190316428Y-75013428D01*
X190352142Y-75084857D01*
X195338342Y-73439885D02*
X195588342Y-73082742D01*
X195766914Y-73439885D02*
X195766914Y-72689885D01*
X195481200Y-72689885D01*
X195409771Y-72725600D01*
X195374057Y-72761314D01*
X195338342Y-72832742D01*
X195338342Y-72939885D01*
X195374057Y-73011314D01*
X195409771Y-73047028D01*
X195481200Y-73082742D01*
X195766914Y-73082742D01*
X195052628Y-72761314D02*
X195016914Y-72725600D01*
X194945485Y-72689885D01*
X194766914Y-72689885D01*
X194695485Y-72725600D01*
X194659771Y-72761314D01*
X194624057Y-72832742D01*
X194624057Y-72904171D01*
X194659771Y-73011314D01*
X195088342Y-73439885D01*
X194624057Y-73439885D01*
X193945485Y-72689885D02*
X194302628Y-72689885D01*
X194338342Y-73047028D01*
X194302628Y-73011314D01*
X194231200Y-72975600D01*
X194052628Y-72975600D01*
X193981200Y-73011314D01*
X193945485Y-73047028D01*
X193909771Y-73118457D01*
X193909771Y-73297028D01*
X193945485Y-73368457D01*
X193981200Y-73404171D01*
X194052628Y-73439885D01*
X194231200Y-73439885D01*
X194302628Y-73404171D01*
X194338342Y-73368457D01*
X195338342Y-72339885D02*
X195588342Y-71982742D01*
X195766914Y-72339885D02*
X195766914Y-71589885D01*
X195481200Y-71589885D01*
X195409771Y-71625600D01*
X195374057Y-71661314D01*
X195338342Y-71732742D01*
X195338342Y-71839885D01*
X195374057Y-71911314D01*
X195409771Y-71947028D01*
X195481200Y-71982742D01*
X195766914Y-71982742D01*
X195052628Y-71661314D02*
X195016914Y-71625600D01*
X194945485Y-71589885D01*
X194766914Y-71589885D01*
X194695485Y-71625600D01*
X194659771Y-71661314D01*
X194624057Y-71732742D01*
X194624057Y-71804171D01*
X194659771Y-71911314D01*
X195088342Y-72339885D01*
X194624057Y-72339885D01*
X194338342Y-71661314D02*
X194302628Y-71625600D01*
X194231200Y-71589885D01*
X194052628Y-71589885D01*
X193981200Y-71625600D01*
X193945485Y-71661314D01*
X193909771Y-71732742D01*
X193909771Y-71804171D01*
X193945485Y-71911314D01*
X194374057Y-72339885D01*
X193909771Y-72339885D01*
X186675485Y-64355600D02*
X186318342Y-64105600D01*
X186675485Y-63927028D02*
X185925485Y-63927028D01*
X185925485Y-64212742D01*
X185961200Y-64284171D01*
X185996914Y-64319885D01*
X186068342Y-64355600D01*
X186175485Y-64355600D01*
X186246914Y-64319885D01*
X186282628Y-64284171D01*
X186318342Y-64212742D01*
X186318342Y-63927028D01*
X186675485Y-64712742D02*
X186675485Y-64855600D01*
X186639771Y-64927028D01*
X186604057Y-64962742D01*
X186496914Y-65034171D01*
X186354057Y-65069885D01*
X186068342Y-65069885D01*
X185996914Y-65034171D01*
X185961200Y-64998457D01*
X185925485Y-64927028D01*
X185925485Y-64784171D01*
X185961200Y-64712742D01*
X185996914Y-64677028D01*
X186068342Y-64641314D01*
X186246914Y-64641314D01*
X186318342Y-64677028D01*
X186354057Y-64712742D01*
X186389771Y-64784171D01*
X186389771Y-64927028D01*
X186354057Y-64998457D01*
X186318342Y-65034171D01*
X186246914Y-65069885D01*
X185145485Y-64345600D02*
X184788342Y-64095600D01*
X185145485Y-63917028D02*
X184395485Y-63917028D01*
X184395485Y-64202742D01*
X184431200Y-64274171D01*
X184466914Y-64309885D01*
X184538342Y-64345600D01*
X184645485Y-64345600D01*
X184716914Y-64309885D01*
X184752628Y-64274171D01*
X184788342Y-64202742D01*
X184788342Y-63917028D01*
X184716914Y-64774171D02*
X184681200Y-64702742D01*
X184645485Y-64667028D01*
X184574057Y-64631314D01*
X184538342Y-64631314D01*
X184466914Y-64667028D01*
X184431200Y-64702742D01*
X184395485Y-64774171D01*
X184395485Y-64917028D01*
X184431200Y-64988457D01*
X184466914Y-65024171D01*
X184538342Y-65059885D01*
X184574057Y-65059885D01*
X184645485Y-65024171D01*
X184681200Y-64988457D01*
X184716914Y-64917028D01*
X184716914Y-64774171D01*
X184752628Y-64702742D01*
X184788342Y-64667028D01*
X184859771Y-64631314D01*
X185002628Y-64631314D01*
X185074057Y-64667028D01*
X185109771Y-64702742D01*
X185145485Y-64774171D01*
X185145485Y-64917028D01*
X185109771Y-64988457D01*
X185074057Y-65024171D01*
X185002628Y-65059885D01*
X184859771Y-65059885D01*
X184788342Y-65024171D01*
X184752628Y-64988457D01*
X184716914Y-64917028D01*
X183855485Y-64325600D02*
X183498342Y-64075600D01*
X183855485Y-63897028D02*
X183105485Y-63897028D01*
X183105485Y-64182742D01*
X183141200Y-64254171D01*
X183176914Y-64289885D01*
X183248342Y-64325600D01*
X183355485Y-64325600D01*
X183426914Y-64289885D01*
X183462628Y-64254171D01*
X183498342Y-64182742D01*
X183498342Y-63897028D01*
X183105485Y-64575600D02*
X183105485Y-65075600D01*
X183855485Y-64754171D01*
X169958342Y-74459885D02*
X170208342Y-74102742D01*
X170386914Y-74459885D02*
X170386914Y-73709885D01*
X170101200Y-73709885D01*
X170029771Y-73745600D01*
X169994057Y-73781314D01*
X169958342Y-73852742D01*
X169958342Y-73959885D01*
X169994057Y-74031314D01*
X170029771Y-74067028D01*
X170101200Y-74102742D01*
X170386914Y-74102742D01*
X169672628Y-73781314D02*
X169636914Y-73745600D01*
X169565485Y-73709885D01*
X169386914Y-73709885D01*
X169315485Y-73745600D01*
X169279771Y-73781314D01*
X169244057Y-73852742D01*
X169244057Y-73924171D01*
X169279771Y-74031314D01*
X169708342Y-74459885D01*
X169244057Y-74459885D01*
X168601200Y-73959885D02*
X168601200Y-74459885D01*
X168779771Y-73674171D02*
X168958342Y-74209885D01*
X168494057Y-74209885D01*
X170798342Y-71079885D02*
X171048342Y-70722742D01*
X171226914Y-71079885D02*
X171226914Y-70329885D01*
X170941200Y-70329885D01*
X170869771Y-70365600D01*
X170834057Y-70401314D01*
X170798342Y-70472742D01*
X170798342Y-70579885D01*
X170834057Y-70651314D01*
X170869771Y-70687028D01*
X170941200Y-70722742D01*
X171226914Y-70722742D01*
X170512628Y-70401314D02*
X170476914Y-70365600D01*
X170405485Y-70329885D01*
X170226914Y-70329885D01*
X170155485Y-70365600D01*
X170119771Y-70401314D01*
X170084057Y-70472742D01*
X170084057Y-70544171D01*
X170119771Y-70651314D01*
X170548342Y-71079885D01*
X170084057Y-71079885D01*
X169834057Y-70329885D02*
X169369771Y-70329885D01*
X169619771Y-70615600D01*
X169512628Y-70615600D01*
X169441200Y-70651314D01*
X169405485Y-70687028D01*
X169369771Y-70758457D01*
X169369771Y-70937028D01*
X169405485Y-71008457D01*
X169441200Y-71044171D01*
X169512628Y-71079885D01*
X169726914Y-71079885D01*
X169798342Y-71044171D01*
X169834057Y-71008457D01*
X176798342Y-69619885D02*
X177048342Y-69262742D01*
X177226914Y-69619885D02*
X177226914Y-68869885D01*
X176941200Y-68869885D01*
X176869771Y-68905600D01*
X176834057Y-68941314D01*
X176798342Y-69012742D01*
X176798342Y-69119885D01*
X176834057Y-69191314D01*
X176869771Y-69227028D01*
X176941200Y-69262742D01*
X177226914Y-69262742D01*
X176084057Y-69619885D02*
X176512628Y-69619885D01*
X176298342Y-69619885D02*
X176298342Y-68869885D01*
X176369771Y-68977028D01*
X176441200Y-69048457D01*
X176512628Y-69084171D01*
X175726914Y-69619885D02*
X175584057Y-69619885D01*
X175512628Y-69584171D01*
X175476914Y-69548457D01*
X175405485Y-69441314D01*
X175369771Y-69298457D01*
X175369771Y-69012742D01*
X175405485Y-68941314D01*
X175441200Y-68905600D01*
X175512628Y-68869885D01*
X175655485Y-68869885D01*
X175726914Y-68905600D01*
X175762628Y-68941314D01*
X175798342Y-69012742D01*
X175798342Y-69191314D01*
X175762628Y-69262742D01*
X175726914Y-69298457D01*
X175655485Y-69334171D01*
X175512628Y-69334171D01*
X175441200Y-69298457D01*
X175405485Y-69262742D01*
X175369771Y-69191314D01*
X176178342Y-72629885D02*
X176428342Y-72272742D01*
X176606914Y-72629885D02*
X176606914Y-71879885D01*
X176321200Y-71879885D01*
X176249771Y-71915600D01*
X176214057Y-71951314D01*
X176178342Y-72022742D01*
X176178342Y-72129885D01*
X176214057Y-72201314D01*
X176249771Y-72237028D01*
X176321200Y-72272742D01*
X176606914Y-72272742D01*
X175892628Y-71951314D02*
X175856914Y-71915600D01*
X175785485Y-71879885D01*
X175606914Y-71879885D01*
X175535485Y-71915600D01*
X175499771Y-71951314D01*
X175464057Y-72022742D01*
X175464057Y-72094171D01*
X175499771Y-72201314D01*
X175928342Y-72629885D01*
X175464057Y-72629885D01*
X174749771Y-72629885D02*
X175178342Y-72629885D01*
X174964057Y-72629885D02*
X174964057Y-71879885D01*
X175035485Y-71987028D01*
X175106914Y-72058457D01*
X175178342Y-72094171D01*
X168168342Y-104399885D02*
X168418342Y-104042742D01*
X168596914Y-104399885D02*
X168596914Y-103649885D01*
X168311200Y-103649885D01*
X168239771Y-103685600D01*
X168204057Y-103721314D01*
X168168342Y-103792742D01*
X168168342Y-103899885D01*
X168204057Y-103971314D01*
X168239771Y-104007028D01*
X168311200Y-104042742D01*
X168596914Y-104042742D01*
X167918342Y-103649885D02*
X167418342Y-103649885D01*
X167739771Y-104399885D01*
X167204057Y-103649885D02*
X166739771Y-103649885D01*
X166989771Y-103935600D01*
X166882628Y-103935600D01*
X166811200Y-103971314D01*
X166775485Y-104007028D01*
X166739771Y-104078457D01*
X166739771Y-104257028D01*
X166775485Y-104328457D01*
X166811200Y-104364171D01*
X166882628Y-104399885D01*
X167096914Y-104399885D01*
X167168342Y-104364171D01*
X167204057Y-104328457D01*
X168178342Y-105619885D02*
X168428342Y-105262742D01*
X168606914Y-105619885D02*
X168606914Y-104869885D01*
X168321200Y-104869885D01*
X168249771Y-104905600D01*
X168214057Y-104941314D01*
X168178342Y-105012742D01*
X168178342Y-105119885D01*
X168214057Y-105191314D01*
X168249771Y-105227028D01*
X168321200Y-105262742D01*
X168606914Y-105262742D01*
X167928342Y-104869885D02*
X167428342Y-104869885D01*
X167749771Y-105619885D01*
X166821200Y-104869885D02*
X166964057Y-104869885D01*
X167035485Y-104905600D01*
X167071200Y-104941314D01*
X167142628Y-105048457D01*
X167178342Y-105191314D01*
X167178342Y-105477028D01*
X167142628Y-105548457D01*
X167106914Y-105584171D01*
X167035485Y-105619885D01*
X166892628Y-105619885D01*
X166821200Y-105584171D01*
X166785485Y-105548457D01*
X166749771Y-105477028D01*
X166749771Y-105298457D01*
X166785485Y-105227028D01*
X166821200Y-105191314D01*
X166892628Y-105155600D01*
X167035485Y-105155600D01*
X167106914Y-105191314D01*
X167142628Y-105227028D01*
X167178342Y-105298457D01*
X168198342Y-106839885D02*
X168448342Y-106482742D01*
X168626914Y-106839885D02*
X168626914Y-106089885D01*
X168341200Y-106089885D01*
X168269771Y-106125600D01*
X168234057Y-106161314D01*
X168198342Y-106232742D01*
X168198342Y-106339885D01*
X168234057Y-106411314D01*
X168269771Y-106447028D01*
X168341200Y-106482742D01*
X168626914Y-106482742D01*
X167948342Y-106089885D02*
X167448342Y-106089885D01*
X167769771Y-106839885D01*
X167234057Y-106089885D02*
X166734057Y-106089885D01*
X167055485Y-106839885D01*
X185348342Y-110659885D02*
X185598342Y-110302742D01*
X185776914Y-110659885D02*
X185776914Y-109909885D01*
X185491200Y-109909885D01*
X185419771Y-109945600D01*
X185384057Y-109981314D01*
X185348342Y-110052742D01*
X185348342Y-110159885D01*
X185384057Y-110231314D01*
X185419771Y-110267028D01*
X185491200Y-110302742D01*
X185776914Y-110302742D01*
X184991200Y-110659885D02*
X184848342Y-110659885D01*
X184776914Y-110624171D01*
X184741200Y-110588457D01*
X184669771Y-110481314D01*
X184634057Y-110338457D01*
X184634057Y-110052742D01*
X184669771Y-109981314D01*
X184705485Y-109945600D01*
X184776914Y-109909885D01*
X184919771Y-109909885D01*
X184991200Y-109945600D01*
X185026914Y-109981314D01*
X185062628Y-110052742D01*
X185062628Y-110231314D01*
X185026914Y-110302742D01*
X184991200Y-110338457D01*
X184919771Y-110374171D01*
X184776914Y-110374171D01*
X184705485Y-110338457D01*
X184669771Y-110302742D01*
X184634057Y-110231314D01*
X183991200Y-110159885D02*
X183991200Y-110659885D01*
X184169771Y-109874171D02*
X184348342Y-110409885D01*
X183884057Y-110409885D01*
X185418342Y-109579885D02*
X185668342Y-109222742D01*
X185846914Y-109579885D02*
X185846914Y-108829885D01*
X185561200Y-108829885D01*
X185489771Y-108865600D01*
X185454057Y-108901314D01*
X185418342Y-108972742D01*
X185418342Y-109079885D01*
X185454057Y-109151314D01*
X185489771Y-109187028D01*
X185561200Y-109222742D01*
X185846914Y-109222742D01*
X185168342Y-108829885D02*
X184668342Y-108829885D01*
X184989771Y-109579885D01*
X184346914Y-109579885D02*
X184204057Y-109579885D01*
X184132628Y-109544171D01*
X184096914Y-109508457D01*
X184025485Y-109401314D01*
X183989771Y-109258457D01*
X183989771Y-108972742D01*
X184025485Y-108901314D01*
X184061200Y-108865600D01*
X184132628Y-108829885D01*
X184275485Y-108829885D01*
X184346914Y-108865600D01*
X184382628Y-108901314D01*
X184418342Y-108972742D01*
X184418342Y-109151314D01*
X184382628Y-109222742D01*
X184346914Y-109258457D01*
X184275485Y-109294171D01*
X184132628Y-109294171D01*
X184061200Y-109258457D01*
X184025485Y-109222742D01*
X183989771Y-109151314D01*
X185638342Y-107939885D02*
X185888342Y-107582742D01*
X186066914Y-107939885D02*
X186066914Y-107189885D01*
X185781200Y-107189885D01*
X185709771Y-107225600D01*
X185674057Y-107261314D01*
X185638342Y-107332742D01*
X185638342Y-107439885D01*
X185674057Y-107511314D01*
X185709771Y-107547028D01*
X185781200Y-107582742D01*
X186066914Y-107582742D01*
X185388342Y-107189885D02*
X184888342Y-107189885D01*
X185209771Y-107939885D01*
X184495485Y-107511314D02*
X184566914Y-107475600D01*
X184602628Y-107439885D01*
X184638342Y-107368457D01*
X184638342Y-107332742D01*
X184602628Y-107261314D01*
X184566914Y-107225600D01*
X184495485Y-107189885D01*
X184352628Y-107189885D01*
X184281200Y-107225600D01*
X184245485Y-107261314D01*
X184209771Y-107332742D01*
X184209771Y-107368457D01*
X184245485Y-107439885D01*
X184281200Y-107475600D01*
X184352628Y-107511314D01*
X184495485Y-107511314D01*
X184566914Y-107547028D01*
X184602628Y-107582742D01*
X184638342Y-107654171D01*
X184638342Y-107797028D01*
X184602628Y-107868457D01*
X184566914Y-107904171D01*
X184495485Y-107939885D01*
X184352628Y-107939885D01*
X184281200Y-107904171D01*
X184245485Y-107868457D01*
X184209771Y-107797028D01*
X184209771Y-107654171D01*
X184245485Y-107582742D01*
X184281200Y-107547028D01*
X184352628Y-107511314D01*
X138588342Y-93319885D02*
X138838342Y-92962742D01*
X139016914Y-93319885D02*
X139016914Y-92569885D01*
X138731200Y-92569885D01*
X138659771Y-92605600D01*
X138624057Y-92641314D01*
X138588342Y-92712742D01*
X138588342Y-92819885D01*
X138624057Y-92891314D01*
X138659771Y-92927028D01*
X138731200Y-92962742D01*
X139016914Y-92962742D01*
X137945485Y-92819885D02*
X137945485Y-93319885D01*
X138124057Y-92534171D02*
X138302628Y-93069885D01*
X137838342Y-93069885D01*
X137231200Y-92569885D02*
X137374057Y-92569885D01*
X137445485Y-92605600D01*
X137481200Y-92641314D01*
X137552628Y-92748457D01*
X137588342Y-92891314D01*
X137588342Y-93177028D01*
X137552628Y-93248457D01*
X137516914Y-93284171D01*
X137445485Y-93319885D01*
X137302628Y-93319885D01*
X137231200Y-93284171D01*
X137195485Y-93248457D01*
X137159771Y-93177028D01*
X137159771Y-92998457D01*
X137195485Y-92927028D01*
X137231200Y-92891314D01*
X137302628Y-92855600D01*
X137445485Y-92855600D01*
X137516914Y-92891314D01*
X137552628Y-92927028D01*
X137588342Y-92998457D01*
X127568342Y-96329885D02*
X127818342Y-95972742D01*
X127996914Y-96329885D02*
X127996914Y-95579885D01*
X127711200Y-95579885D01*
X127639771Y-95615600D01*
X127604057Y-95651314D01*
X127568342Y-95722742D01*
X127568342Y-95829885D01*
X127604057Y-95901314D01*
X127639771Y-95937028D01*
X127711200Y-95972742D01*
X127996914Y-95972742D01*
X126889771Y-95579885D02*
X127246914Y-95579885D01*
X127282628Y-95937028D01*
X127246914Y-95901314D01*
X127175485Y-95865600D01*
X126996914Y-95865600D01*
X126925485Y-95901314D01*
X126889771Y-95937028D01*
X126854057Y-96008457D01*
X126854057Y-96187028D01*
X126889771Y-96258457D01*
X126925485Y-96294171D01*
X126996914Y-96329885D01*
X127175485Y-96329885D01*
X127246914Y-96294171D01*
X127282628Y-96258457D01*
X126604057Y-95579885D02*
X126139771Y-95579885D01*
X126389771Y-95865600D01*
X126282628Y-95865600D01*
X126211200Y-95901314D01*
X126175485Y-95937028D01*
X126139771Y-96008457D01*
X126139771Y-96187028D01*
X126175485Y-96258457D01*
X126211200Y-96294171D01*
X126282628Y-96329885D01*
X126496914Y-96329885D01*
X126568342Y-96294171D01*
X126604057Y-96258457D01*
X128948342Y-99369885D02*
X129198342Y-99012742D01*
X129376914Y-99369885D02*
X129376914Y-98619885D01*
X129091200Y-98619885D01*
X129019771Y-98655600D01*
X128984057Y-98691314D01*
X128948342Y-98762742D01*
X128948342Y-98869885D01*
X128984057Y-98941314D01*
X129019771Y-98977028D01*
X129091200Y-99012742D01*
X129376914Y-99012742D01*
X128305485Y-98619885D02*
X128448342Y-98619885D01*
X128519771Y-98655600D01*
X128555485Y-98691314D01*
X128626914Y-98798457D01*
X128662628Y-98941314D01*
X128662628Y-99227028D01*
X128626914Y-99298457D01*
X128591200Y-99334171D01*
X128519771Y-99369885D01*
X128376914Y-99369885D01*
X128305485Y-99334171D01*
X128269771Y-99298457D01*
X128234057Y-99227028D01*
X128234057Y-99048457D01*
X128269771Y-98977028D01*
X128305485Y-98941314D01*
X128376914Y-98905600D01*
X128519771Y-98905600D01*
X128591200Y-98941314D01*
X128626914Y-98977028D01*
X128662628Y-99048457D01*
X127769771Y-98619885D02*
X127698342Y-98619885D01*
X127626914Y-98655600D01*
X127591200Y-98691314D01*
X127555485Y-98762742D01*
X127519771Y-98905600D01*
X127519771Y-99084171D01*
X127555485Y-99227028D01*
X127591200Y-99298457D01*
X127626914Y-99334171D01*
X127698342Y-99369885D01*
X127769771Y-99369885D01*
X127841200Y-99334171D01*
X127876914Y-99298457D01*
X127912628Y-99227028D01*
X127948342Y-99084171D01*
X127948342Y-98905600D01*
X127912628Y-98762742D01*
X127876914Y-98691314D01*
X127841200Y-98655600D01*
X127769771Y-98619885D01*
X198505485Y-144299885D02*
X198755485Y-143942742D01*
X198934057Y-144299885D02*
X198934057Y-143549885D01*
X198648342Y-143549885D01*
X198576914Y-143585600D01*
X198541200Y-143621314D01*
X198505485Y-143692742D01*
X198505485Y-143799885D01*
X198541200Y-143871314D01*
X198576914Y-143907028D01*
X198648342Y-143942742D01*
X198934057Y-143942742D01*
X197791200Y-144299885D02*
X198219771Y-144299885D01*
X198005485Y-144299885D02*
X198005485Y-143549885D01*
X198076914Y-143657028D01*
X198148342Y-143728457D01*
X198219771Y-143764171D01*
X197148342Y-143799885D02*
X197148342Y-144299885D01*
X197326914Y-143514171D02*
X197505485Y-144049885D01*
X197041200Y-144049885D01*
X196826914Y-143549885D02*
X196362628Y-143549885D01*
X196612628Y-143835600D01*
X196505485Y-143835600D01*
X196434057Y-143871314D01*
X196398342Y-143907028D01*
X196362628Y-143978457D01*
X196362628Y-144157028D01*
X196398342Y-144228457D01*
X196434057Y-144264171D01*
X196505485Y-144299885D01*
X196719771Y-144299885D01*
X196791200Y-144264171D01*
X196826914Y-144228457D01*
X132978342Y-78299885D02*
X133228342Y-77942742D01*
X133406914Y-78299885D02*
X133406914Y-77549885D01*
X133121200Y-77549885D01*
X133049771Y-77585600D01*
X133014057Y-77621314D01*
X132978342Y-77692742D01*
X132978342Y-77799885D01*
X133014057Y-77871314D01*
X133049771Y-77907028D01*
X133121200Y-77942742D01*
X133406914Y-77942742D01*
X132692628Y-77621314D02*
X132656914Y-77585600D01*
X132585485Y-77549885D01*
X132406914Y-77549885D01*
X132335485Y-77585600D01*
X132299771Y-77621314D01*
X132264057Y-77692742D01*
X132264057Y-77764171D01*
X132299771Y-77871314D01*
X132728342Y-78299885D01*
X132264057Y-78299885D01*
X131906914Y-78299885D02*
X131764057Y-78299885D01*
X131692628Y-78264171D01*
X131656914Y-78228457D01*
X131585485Y-78121314D01*
X131549771Y-77978457D01*
X131549771Y-77692742D01*
X131585485Y-77621314D01*
X131621200Y-77585600D01*
X131692628Y-77549885D01*
X131835485Y-77549885D01*
X131906914Y-77585600D01*
X131942628Y-77621314D01*
X131978342Y-77692742D01*
X131978342Y-77871314D01*
X131942628Y-77942742D01*
X131906914Y-77978457D01*
X131835485Y-78014171D01*
X131692628Y-78014171D01*
X131621200Y-77978457D01*
X131585485Y-77942742D01*
X131549771Y-77871314D01*
X143468285Y-117219914D02*
X143111142Y-116969914D01*
X143468285Y-116791342D02*
X142718285Y-116791342D01*
X142718285Y-117077057D01*
X142754000Y-117148485D01*
X142789714Y-117184200D01*
X142861142Y-117219914D01*
X142968285Y-117219914D01*
X143039714Y-117184200D01*
X143075428Y-117148485D01*
X143111142Y-117077057D01*
X143111142Y-116791342D01*
X143468285Y-117934200D02*
X143468285Y-117505628D01*
X143468285Y-117719914D02*
X142718285Y-117719914D01*
X142825428Y-117648485D01*
X142896857Y-117577057D01*
X142932571Y-117505628D01*
X143468285Y-118648485D02*
X143468285Y-118219914D01*
X143468285Y-118434200D02*
X142718285Y-118434200D01*
X142825428Y-118362771D01*
X142896857Y-118291342D01*
X142932571Y-118219914D01*
X142968285Y-119291342D02*
X143468285Y-119291342D01*
X142682571Y-119112771D02*
X143218285Y-118934200D01*
X143218285Y-119398485D01*
X143075485Y-121339885D02*
X143325485Y-120982742D01*
X143504057Y-121339885D02*
X143504057Y-120589885D01*
X143218342Y-120589885D01*
X143146914Y-120625600D01*
X143111200Y-120661314D01*
X143075485Y-120732742D01*
X143075485Y-120839885D01*
X143111200Y-120911314D01*
X143146914Y-120947028D01*
X143218342Y-120982742D01*
X143504057Y-120982742D01*
X142361200Y-121339885D02*
X142789771Y-121339885D01*
X142575485Y-121339885D02*
X142575485Y-120589885D01*
X142646914Y-120697028D01*
X142718342Y-120768457D01*
X142789771Y-120804171D01*
X141646914Y-121339885D02*
X142075485Y-121339885D01*
X141861200Y-121339885D02*
X141861200Y-120589885D01*
X141932628Y-120697028D01*
X142004057Y-120768457D01*
X142075485Y-120804171D01*
X140968342Y-120589885D02*
X141325485Y-120589885D01*
X141361200Y-120947028D01*
X141325485Y-120911314D01*
X141254057Y-120875600D01*
X141075485Y-120875600D01*
X141004057Y-120911314D01*
X140968342Y-120947028D01*
X140932628Y-121018457D01*
X140932628Y-121197028D01*
X140968342Y-121268457D01*
X141004057Y-121304171D01*
X141075485Y-121339885D01*
X141254057Y-121339885D01*
X141325485Y-121304171D01*
X141361200Y-121268457D01*
X135055485Y-116711314D02*
X134698342Y-116461314D01*
X135055485Y-116282742D02*
X134305485Y-116282742D01*
X134305485Y-116568457D01*
X134341200Y-116639885D01*
X134376914Y-116675600D01*
X134448342Y-116711314D01*
X134555485Y-116711314D01*
X134626914Y-116675600D01*
X134662628Y-116639885D01*
X134698342Y-116568457D01*
X134698342Y-116282742D01*
X135055485Y-117425600D02*
X135055485Y-116997028D01*
X135055485Y-117211314D02*
X134305485Y-117211314D01*
X134412628Y-117139885D01*
X134484057Y-117068457D01*
X134519771Y-116997028D01*
X134305485Y-117889885D02*
X134305485Y-117961314D01*
X134341200Y-118032742D01*
X134376914Y-118068457D01*
X134448342Y-118104171D01*
X134591200Y-118139885D01*
X134769771Y-118139885D01*
X134912628Y-118104171D01*
X134984057Y-118068457D01*
X135019771Y-118032742D01*
X135055485Y-117961314D01*
X135055485Y-117889885D01*
X135019771Y-117818457D01*
X134984057Y-117782742D01*
X134912628Y-117747028D01*
X134769771Y-117711314D01*
X134591200Y-117711314D01*
X134448342Y-117747028D01*
X134376914Y-117782742D01*
X134341200Y-117818457D01*
X134305485Y-117889885D01*
X134376914Y-118425600D02*
X134341200Y-118461314D01*
X134305485Y-118532742D01*
X134305485Y-118711314D01*
X134341200Y-118782742D01*
X134376914Y-118818457D01*
X134448342Y-118854171D01*
X134519771Y-118854171D01*
X134626914Y-118818457D01*
X135055485Y-118389885D01*
X135055485Y-118854171D01*
X142376085Y-117270714D02*
X142018942Y-117020714D01*
X142376085Y-116842142D02*
X141626085Y-116842142D01*
X141626085Y-117127857D01*
X141661800Y-117199285D01*
X141697514Y-117235000D01*
X141768942Y-117270714D01*
X141876085Y-117270714D01*
X141947514Y-117235000D01*
X141983228Y-117199285D01*
X142018942Y-117127857D01*
X142018942Y-116842142D01*
X142376085Y-117985000D02*
X142376085Y-117556428D01*
X142376085Y-117770714D02*
X141626085Y-117770714D01*
X141733228Y-117699285D01*
X141804657Y-117627857D01*
X141840371Y-117556428D01*
X142376085Y-118699285D02*
X142376085Y-118270714D01*
X142376085Y-118485000D02*
X141626085Y-118485000D01*
X141733228Y-118413571D01*
X141804657Y-118342142D01*
X141840371Y-118270714D01*
X141626085Y-118949285D02*
X141626085Y-119413571D01*
X141911800Y-119163571D01*
X141911800Y-119270714D01*
X141947514Y-119342142D01*
X141983228Y-119377857D01*
X142054657Y-119413571D01*
X142233228Y-119413571D01*
X142304657Y-119377857D01*
X142340371Y-119342142D01*
X142376085Y-119270714D01*
X142376085Y-119056428D01*
X142340371Y-118985000D01*
X142304657Y-118949285D01*
X141106085Y-117245314D02*
X140748942Y-116995314D01*
X141106085Y-116816742D02*
X140356085Y-116816742D01*
X140356085Y-117102457D01*
X140391800Y-117173885D01*
X140427514Y-117209600D01*
X140498942Y-117245314D01*
X140606085Y-117245314D01*
X140677514Y-117209600D01*
X140713228Y-117173885D01*
X140748942Y-117102457D01*
X140748942Y-116816742D01*
X141106085Y-117959600D02*
X141106085Y-117531028D01*
X141106085Y-117745314D02*
X140356085Y-117745314D01*
X140463228Y-117673885D01*
X140534657Y-117602457D01*
X140570371Y-117531028D01*
X141106085Y-118673885D02*
X141106085Y-118245314D01*
X141106085Y-118459600D02*
X140356085Y-118459600D01*
X140463228Y-118388171D01*
X140534657Y-118316742D01*
X140570371Y-118245314D01*
X140427514Y-118959600D02*
X140391800Y-118995314D01*
X140356085Y-119066742D01*
X140356085Y-119245314D01*
X140391800Y-119316742D01*
X140427514Y-119352457D01*
X140498942Y-119388171D01*
X140570371Y-119388171D01*
X140677514Y-119352457D01*
X141106085Y-118923885D01*
X141106085Y-119388171D01*
X132925485Y-118809885D02*
X133175485Y-118452742D01*
X133354057Y-118809885D02*
X133354057Y-118059885D01*
X133068342Y-118059885D01*
X132996914Y-118095600D01*
X132961200Y-118131314D01*
X132925485Y-118202742D01*
X132925485Y-118309885D01*
X132961200Y-118381314D01*
X132996914Y-118417028D01*
X133068342Y-118452742D01*
X133354057Y-118452742D01*
X132211200Y-118809885D02*
X132639771Y-118809885D01*
X132425485Y-118809885D02*
X132425485Y-118059885D01*
X132496914Y-118167028D01*
X132568342Y-118238457D01*
X132639771Y-118274171D01*
X131746914Y-118059885D02*
X131675485Y-118059885D01*
X131604057Y-118095600D01*
X131568342Y-118131314D01*
X131532628Y-118202742D01*
X131496914Y-118345600D01*
X131496914Y-118524171D01*
X131532628Y-118667028D01*
X131568342Y-118738457D01*
X131604057Y-118774171D01*
X131675485Y-118809885D01*
X131746914Y-118809885D01*
X131818342Y-118774171D01*
X131854057Y-118738457D01*
X131889771Y-118667028D01*
X131925485Y-118524171D01*
X131925485Y-118345600D01*
X131889771Y-118202742D01*
X131854057Y-118131314D01*
X131818342Y-118095600D01*
X131746914Y-118059885D01*
X130782628Y-118809885D02*
X131211200Y-118809885D01*
X130996914Y-118809885D02*
X130996914Y-118059885D01*
X131068342Y-118167028D01*
X131139771Y-118238457D01*
X131211200Y-118274171D01*
X139963085Y-117245314D02*
X139605942Y-116995314D01*
X139963085Y-116816742D02*
X139213085Y-116816742D01*
X139213085Y-117102457D01*
X139248800Y-117173885D01*
X139284514Y-117209600D01*
X139355942Y-117245314D01*
X139463085Y-117245314D01*
X139534514Y-117209600D01*
X139570228Y-117173885D01*
X139605942Y-117102457D01*
X139605942Y-116816742D01*
X139963085Y-117959600D02*
X139963085Y-117531028D01*
X139963085Y-117745314D02*
X139213085Y-117745314D01*
X139320228Y-117673885D01*
X139391657Y-117602457D01*
X139427371Y-117531028D01*
X139963085Y-118673885D02*
X139963085Y-118245314D01*
X139963085Y-118459600D02*
X139213085Y-118459600D01*
X139320228Y-118388171D01*
X139391657Y-118316742D01*
X139427371Y-118245314D01*
X139963085Y-119388171D02*
X139963085Y-118959600D01*
X139963085Y-119173885D02*
X139213085Y-119173885D01*
X139320228Y-119102457D01*
X139391657Y-119031028D01*
X139427371Y-118959600D01*
X138896285Y-117245314D02*
X138539142Y-116995314D01*
X138896285Y-116816742D02*
X138146285Y-116816742D01*
X138146285Y-117102457D01*
X138182000Y-117173885D01*
X138217714Y-117209600D01*
X138289142Y-117245314D01*
X138396285Y-117245314D01*
X138467714Y-117209600D01*
X138503428Y-117173885D01*
X138539142Y-117102457D01*
X138539142Y-116816742D01*
X138896285Y-117959600D02*
X138896285Y-117531028D01*
X138896285Y-117745314D02*
X138146285Y-117745314D01*
X138253428Y-117673885D01*
X138324857Y-117602457D01*
X138360571Y-117531028D01*
X138896285Y-118673885D02*
X138896285Y-118245314D01*
X138896285Y-118459600D02*
X138146285Y-118459600D01*
X138253428Y-118388171D01*
X138324857Y-118316742D01*
X138360571Y-118245314D01*
X138146285Y-119138171D02*
X138146285Y-119209600D01*
X138182000Y-119281028D01*
X138217714Y-119316742D01*
X138289142Y-119352457D01*
X138432000Y-119388171D01*
X138610571Y-119388171D01*
X138753428Y-119352457D01*
X138824857Y-119316742D01*
X138860571Y-119281028D01*
X138896285Y-119209600D01*
X138896285Y-119138171D01*
X138860571Y-119066742D01*
X138824857Y-119031028D01*
X138753428Y-118995314D01*
X138610571Y-118959600D01*
X138432000Y-118959600D01*
X138289142Y-118995314D01*
X138217714Y-119031028D01*
X138182000Y-119066742D01*
X138146285Y-119138171D01*
X126678342Y-119009885D02*
X126928342Y-118652742D01*
X127106914Y-119009885D02*
X127106914Y-118259885D01*
X126821200Y-118259885D01*
X126749771Y-118295600D01*
X126714057Y-118331314D01*
X126678342Y-118402742D01*
X126678342Y-118509885D01*
X126714057Y-118581314D01*
X126749771Y-118617028D01*
X126821200Y-118652742D01*
X127106914Y-118652742D01*
X126321200Y-119009885D02*
X126178342Y-119009885D01*
X126106914Y-118974171D01*
X126071200Y-118938457D01*
X125999771Y-118831314D01*
X125964057Y-118688457D01*
X125964057Y-118402742D01*
X125999771Y-118331314D01*
X126035485Y-118295600D01*
X126106914Y-118259885D01*
X126249771Y-118259885D01*
X126321200Y-118295600D01*
X126356914Y-118331314D01*
X126392628Y-118402742D01*
X126392628Y-118581314D01*
X126356914Y-118652742D01*
X126321200Y-118688457D01*
X126249771Y-118724171D01*
X126106914Y-118724171D01*
X126035485Y-118688457D01*
X125999771Y-118652742D01*
X125964057Y-118581314D01*
X125606914Y-119009885D02*
X125464057Y-119009885D01*
X125392628Y-118974171D01*
X125356914Y-118938457D01*
X125285485Y-118831314D01*
X125249771Y-118688457D01*
X125249771Y-118402742D01*
X125285485Y-118331314D01*
X125321200Y-118295600D01*
X125392628Y-118259885D01*
X125535485Y-118259885D01*
X125606914Y-118295600D01*
X125642628Y-118331314D01*
X125678342Y-118402742D01*
X125678342Y-118581314D01*
X125642628Y-118652742D01*
X125606914Y-118688457D01*
X125535485Y-118724171D01*
X125392628Y-118724171D01*
X125321200Y-118688457D01*
X125285485Y-118652742D01*
X125249771Y-118581314D01*
X168480285Y-137241714D02*
X168123142Y-136991714D01*
X168480285Y-136813142D02*
X167730285Y-136813142D01*
X167730285Y-137098857D01*
X167766000Y-137170285D01*
X167801714Y-137206000D01*
X167873142Y-137241714D01*
X167980285Y-137241714D01*
X168051714Y-137206000D01*
X168087428Y-137170285D01*
X168123142Y-137098857D01*
X168123142Y-136813142D01*
X168480285Y-137956000D02*
X168480285Y-137527428D01*
X168480285Y-137741714D02*
X167730285Y-137741714D01*
X167837428Y-137670285D01*
X167908857Y-137598857D01*
X167944571Y-137527428D01*
X167730285Y-138206000D02*
X167730285Y-138670285D01*
X168016000Y-138420285D01*
X168016000Y-138527428D01*
X168051714Y-138598857D01*
X168087428Y-138634571D01*
X168158857Y-138670285D01*
X168337428Y-138670285D01*
X168408857Y-138634571D01*
X168444571Y-138598857D01*
X168480285Y-138527428D01*
X168480285Y-138313142D01*
X168444571Y-138241714D01*
X168408857Y-138206000D01*
X167730285Y-139313142D02*
X167730285Y-139170285D01*
X167766000Y-139098857D01*
X167801714Y-139063142D01*
X167908857Y-138991714D01*
X168051714Y-138956000D01*
X168337428Y-138956000D01*
X168408857Y-138991714D01*
X168444571Y-139027428D01*
X168480285Y-139098857D01*
X168480285Y-139241714D01*
X168444571Y-139313142D01*
X168408857Y-139348857D01*
X168337428Y-139384571D01*
X168158857Y-139384571D01*
X168087428Y-139348857D01*
X168051714Y-139313142D01*
X168016000Y-139241714D01*
X168016000Y-139098857D01*
X168051714Y-139027428D01*
X168087428Y-138991714D01*
X168158857Y-138956000D01*
X141881200Y-141987028D02*
X142131200Y-141987028D01*
X142131200Y-142379885D02*
X142131200Y-141629885D01*
X141774057Y-141629885D01*
X141238342Y-141987028D02*
X141131200Y-142022742D01*
X141095485Y-142058457D01*
X141059771Y-142129885D01*
X141059771Y-142237028D01*
X141095485Y-142308457D01*
X141131200Y-142344171D01*
X141202628Y-142379885D01*
X141488342Y-142379885D01*
X141488342Y-141629885D01*
X141238342Y-141629885D01*
X141166914Y-141665600D01*
X141131200Y-141701314D01*
X141095485Y-141772742D01*
X141095485Y-141844171D01*
X141131200Y-141915600D01*
X141166914Y-141951314D01*
X141238342Y-141987028D01*
X141488342Y-141987028D01*
X140416914Y-141629885D02*
X140559771Y-141629885D01*
X140631200Y-141665600D01*
X140666914Y-141701314D01*
X140738342Y-141808457D01*
X140774057Y-141951314D01*
X140774057Y-142237028D01*
X140738342Y-142308457D01*
X140702628Y-142344171D01*
X140631200Y-142379885D01*
X140488342Y-142379885D01*
X140416914Y-142344171D01*
X140381200Y-142308457D01*
X140345485Y-142237028D01*
X140345485Y-142058457D01*
X140381200Y-141987028D01*
X140416914Y-141951314D01*
X140488342Y-141915600D01*
X140631200Y-141915600D01*
X140702628Y-141951314D01*
X140738342Y-141987028D01*
X140774057Y-142058457D01*
X165152628Y-143675600D02*
X165152628Y-143425600D01*
X165545485Y-143425600D02*
X164795485Y-143425600D01*
X164795485Y-143782742D01*
X165152628Y-144318457D02*
X165188342Y-144425600D01*
X165224057Y-144461314D01*
X165295485Y-144497028D01*
X165402628Y-144497028D01*
X165474057Y-144461314D01*
X165509771Y-144425600D01*
X165545485Y-144354171D01*
X165545485Y-144068457D01*
X164795485Y-144068457D01*
X164795485Y-144318457D01*
X164831200Y-144389885D01*
X164866914Y-144425600D01*
X164938342Y-144461314D01*
X165009771Y-144461314D01*
X165081200Y-144425600D01*
X165116914Y-144389885D01*
X165152628Y-144318457D01*
X165152628Y-144068457D01*
X164866914Y-144782742D02*
X164831200Y-144818457D01*
X164795485Y-144889885D01*
X164795485Y-145068457D01*
X164831200Y-145139885D01*
X164866914Y-145175600D01*
X164938342Y-145211314D01*
X165009771Y-145211314D01*
X165116914Y-145175600D01*
X165545485Y-144747028D01*
X165545485Y-145211314D01*
X144558342Y-140308457D02*
X144594057Y-140344171D01*
X144701200Y-140379885D01*
X144772628Y-140379885D01*
X144879771Y-140344171D01*
X144951200Y-140272742D01*
X144986914Y-140201314D01*
X145022628Y-140058457D01*
X145022628Y-139951314D01*
X144986914Y-139808457D01*
X144951200Y-139737028D01*
X144879771Y-139665600D01*
X144772628Y-139629885D01*
X144701200Y-139629885D01*
X144594057Y-139665600D01*
X144558342Y-139701314D01*
X144308342Y-139629885D02*
X143808342Y-139629885D01*
X144129771Y-140379885D01*
X143201200Y-139879885D02*
X143201200Y-140379885D01*
X143379771Y-139594171D02*
X143558342Y-140129885D01*
X143094057Y-140129885D01*
X173401200Y-68708457D02*
X173436914Y-68744171D01*
X173544057Y-68779885D01*
X173615485Y-68779885D01*
X173722628Y-68744171D01*
X173794057Y-68672742D01*
X173829771Y-68601314D01*
X173865485Y-68458457D01*
X173865485Y-68351314D01*
X173829771Y-68208457D01*
X173794057Y-68137028D01*
X173722628Y-68065600D01*
X173615485Y-68029885D01*
X173544057Y-68029885D01*
X173436914Y-68065600D01*
X173401200Y-68101314D01*
X173151200Y-68029885D02*
X172651200Y-68029885D01*
X172972628Y-68779885D01*
X182794057Y-72868457D02*
X182829771Y-72832742D01*
X182865485Y-72725600D01*
X182865485Y-72654171D01*
X182829771Y-72547028D01*
X182758342Y-72475600D01*
X182686914Y-72439885D01*
X182544057Y-72404171D01*
X182436914Y-72404171D01*
X182294057Y-72439885D01*
X182222628Y-72475600D01*
X182151200Y-72547028D01*
X182115485Y-72654171D01*
X182115485Y-72725600D01*
X182151200Y-72832742D01*
X182186914Y-72868457D01*
X182865485Y-73582742D02*
X182865485Y-73154171D01*
X182865485Y-73368457D02*
X182115485Y-73368457D01*
X182222628Y-73297028D01*
X182294057Y-73225600D01*
X182329771Y-73154171D01*
X182115485Y-74047028D02*
X182115485Y-74118457D01*
X182151200Y-74189885D01*
X182186914Y-74225600D01*
X182258342Y-74261314D01*
X182401200Y-74297028D01*
X182579771Y-74297028D01*
X182722628Y-74261314D01*
X182794057Y-74225600D01*
X182829771Y-74189885D01*
X182865485Y-74118457D01*
X182865485Y-74047028D01*
X182829771Y-73975600D01*
X182794057Y-73939885D01*
X182722628Y-73904171D01*
X182579771Y-73868457D01*
X182401200Y-73868457D01*
X182258342Y-73904171D01*
X182186914Y-73939885D01*
X182151200Y-73975600D01*
X182115485Y-74047028D01*
X187548342Y-80508457D02*
X187584057Y-80544171D01*
X187691200Y-80579885D01*
X187762628Y-80579885D01*
X187869771Y-80544171D01*
X187941200Y-80472742D01*
X187976914Y-80401314D01*
X188012628Y-80258457D01*
X188012628Y-80151314D01*
X187976914Y-80008457D01*
X187941200Y-79937028D01*
X187869771Y-79865600D01*
X187762628Y-79829885D01*
X187691200Y-79829885D01*
X187584057Y-79865600D01*
X187548342Y-79901314D01*
X187262628Y-79901314D02*
X187226914Y-79865600D01*
X187155485Y-79829885D01*
X186976914Y-79829885D01*
X186905485Y-79865600D01*
X186869771Y-79901314D01*
X186834057Y-79972742D01*
X186834057Y-80044171D01*
X186869771Y-80151314D01*
X187298342Y-80579885D01*
X186834057Y-80579885D01*
X186191200Y-80079885D02*
X186191200Y-80579885D01*
X186369771Y-79794171D02*
X186548342Y-80329885D01*
X186084057Y-80329885D01*
X173904057Y-60635600D02*
X173939771Y-60599885D01*
X173975485Y-60492742D01*
X173975485Y-60421314D01*
X173939771Y-60314171D01*
X173868342Y-60242742D01*
X173796914Y-60207028D01*
X173654057Y-60171314D01*
X173546914Y-60171314D01*
X173404057Y-60207028D01*
X173332628Y-60242742D01*
X173261200Y-60314171D01*
X173225485Y-60421314D01*
X173225485Y-60492742D01*
X173261200Y-60599885D01*
X173296914Y-60635600D01*
X173296914Y-60921314D02*
X173261200Y-60957028D01*
X173225485Y-61028457D01*
X173225485Y-61207028D01*
X173261200Y-61278457D01*
X173296914Y-61314171D01*
X173368342Y-61349885D01*
X173439771Y-61349885D01*
X173546914Y-61314171D01*
X173975485Y-60885600D01*
X173975485Y-61349885D01*
X186808342Y-95778457D02*
X186844057Y-95814171D01*
X186951200Y-95849885D01*
X187022628Y-95849885D01*
X187129771Y-95814171D01*
X187201200Y-95742742D01*
X187236914Y-95671314D01*
X187272628Y-95528457D01*
X187272628Y-95421314D01*
X187236914Y-95278457D01*
X187201200Y-95207028D01*
X187129771Y-95135600D01*
X187022628Y-95099885D01*
X186951200Y-95099885D01*
X186844057Y-95135600D01*
X186808342Y-95171314D01*
X186558342Y-95099885D02*
X186094057Y-95099885D01*
X186344057Y-95385600D01*
X186236914Y-95385600D01*
X186165485Y-95421314D01*
X186129771Y-95457028D01*
X186094057Y-95528457D01*
X186094057Y-95707028D01*
X186129771Y-95778457D01*
X186165485Y-95814171D01*
X186236914Y-95849885D01*
X186451200Y-95849885D01*
X186522628Y-95814171D01*
X186558342Y-95778457D01*
X185736914Y-95849885D02*
X185594057Y-95849885D01*
X185522628Y-95814171D01*
X185486914Y-95778457D01*
X185415485Y-95671314D01*
X185379771Y-95528457D01*
X185379771Y-95242742D01*
X185415485Y-95171314D01*
X185451200Y-95135600D01*
X185522628Y-95099885D01*
X185665485Y-95099885D01*
X185736914Y-95135600D01*
X185772628Y-95171314D01*
X185808342Y-95242742D01*
X185808342Y-95421314D01*
X185772628Y-95492742D01*
X185736914Y-95528457D01*
X185665485Y-95564171D01*
X185522628Y-95564171D01*
X185451200Y-95528457D01*
X185415485Y-95492742D01*
X185379771Y-95421314D01*
X175674057Y-60875600D02*
X175709771Y-60839885D01*
X175745485Y-60732742D01*
X175745485Y-60661314D01*
X175709771Y-60554171D01*
X175638342Y-60482742D01*
X175566914Y-60447028D01*
X175424057Y-60411314D01*
X175316914Y-60411314D01*
X175174057Y-60447028D01*
X175102628Y-60482742D01*
X175031200Y-60554171D01*
X174995485Y-60661314D01*
X174995485Y-60732742D01*
X175031200Y-60839885D01*
X175066914Y-60875600D01*
X174995485Y-61125600D02*
X174995485Y-61589885D01*
X175281200Y-61339885D01*
X175281200Y-61447028D01*
X175316914Y-61518457D01*
X175352628Y-61554171D01*
X175424057Y-61589885D01*
X175602628Y-61589885D01*
X175674057Y-61554171D01*
X175709771Y-61518457D01*
X175745485Y-61447028D01*
X175745485Y-61232742D01*
X175709771Y-61161314D01*
X175674057Y-61125600D01*
X186088342Y-90898457D02*
X186124057Y-90934171D01*
X186231200Y-90969885D01*
X186302628Y-90969885D01*
X186409771Y-90934171D01*
X186481200Y-90862742D01*
X186516914Y-90791314D01*
X186552628Y-90648457D01*
X186552628Y-90541314D01*
X186516914Y-90398457D01*
X186481200Y-90327028D01*
X186409771Y-90255600D01*
X186302628Y-90219885D01*
X186231200Y-90219885D01*
X186124057Y-90255600D01*
X186088342Y-90291314D01*
X185838342Y-90219885D02*
X185374057Y-90219885D01*
X185624057Y-90505600D01*
X185516914Y-90505600D01*
X185445485Y-90541314D01*
X185409771Y-90577028D01*
X185374057Y-90648457D01*
X185374057Y-90827028D01*
X185409771Y-90898457D01*
X185445485Y-90934171D01*
X185516914Y-90969885D01*
X185731200Y-90969885D01*
X185802628Y-90934171D01*
X185838342Y-90898457D01*
X185124057Y-90219885D02*
X184624057Y-90219885D01*
X184945485Y-90969885D01*
X166424057Y-68345600D02*
X166459771Y-68309885D01*
X166495485Y-68202742D01*
X166495485Y-68131314D01*
X166459771Y-68024171D01*
X166388342Y-67952742D01*
X166316914Y-67917028D01*
X166174057Y-67881314D01*
X166066914Y-67881314D01*
X165924057Y-67917028D01*
X165852628Y-67952742D01*
X165781200Y-68024171D01*
X165745485Y-68131314D01*
X165745485Y-68202742D01*
X165781200Y-68309885D01*
X165816914Y-68345600D01*
X165745485Y-69024171D02*
X165745485Y-68667028D01*
X166102628Y-68631314D01*
X166066914Y-68667028D01*
X166031200Y-68738457D01*
X166031200Y-68917028D01*
X166066914Y-68988457D01*
X166102628Y-69024171D01*
X166174057Y-69059885D01*
X166352628Y-69059885D01*
X166424057Y-69024171D01*
X166459771Y-68988457D01*
X166495485Y-68917028D01*
X166495485Y-68738457D01*
X166459771Y-68667028D01*
X166424057Y-68631314D01*
X187498342Y-98758457D02*
X187534057Y-98794171D01*
X187641200Y-98829885D01*
X187712628Y-98829885D01*
X187819771Y-98794171D01*
X187891200Y-98722742D01*
X187926914Y-98651314D01*
X187962628Y-98508457D01*
X187962628Y-98401314D01*
X187926914Y-98258457D01*
X187891200Y-98187028D01*
X187819771Y-98115600D01*
X187712628Y-98079885D01*
X187641200Y-98079885D01*
X187534057Y-98115600D01*
X187498342Y-98151314D01*
X186855485Y-98329885D02*
X186855485Y-98829885D01*
X187034057Y-98044171D02*
X187212628Y-98579885D01*
X186748342Y-98579885D01*
X186355485Y-98401314D02*
X186426914Y-98365600D01*
X186462628Y-98329885D01*
X186498342Y-98258457D01*
X186498342Y-98222742D01*
X186462628Y-98151314D01*
X186426914Y-98115600D01*
X186355485Y-98079885D01*
X186212628Y-98079885D01*
X186141200Y-98115600D01*
X186105485Y-98151314D01*
X186069771Y-98222742D01*
X186069771Y-98258457D01*
X186105485Y-98329885D01*
X186141200Y-98365600D01*
X186212628Y-98401314D01*
X186355485Y-98401314D01*
X186426914Y-98437028D01*
X186462628Y-98472742D01*
X186498342Y-98544171D01*
X186498342Y-98687028D01*
X186462628Y-98758457D01*
X186426914Y-98794171D01*
X186355485Y-98829885D01*
X186212628Y-98829885D01*
X186141200Y-98794171D01*
X186105485Y-98758457D01*
X186069771Y-98687028D01*
X186069771Y-98544171D01*
X186105485Y-98472742D01*
X186141200Y-98437028D01*
X186212628Y-98401314D01*
X167604057Y-68375600D02*
X167639771Y-68339885D01*
X167675485Y-68232742D01*
X167675485Y-68161314D01*
X167639771Y-68054171D01*
X167568342Y-67982742D01*
X167496914Y-67947028D01*
X167354057Y-67911314D01*
X167246914Y-67911314D01*
X167104057Y-67947028D01*
X167032628Y-67982742D01*
X166961200Y-68054171D01*
X166925485Y-68161314D01*
X166925485Y-68232742D01*
X166961200Y-68339885D01*
X166996914Y-68375600D01*
X166925485Y-69018457D02*
X166925485Y-68875600D01*
X166961200Y-68804171D01*
X166996914Y-68768457D01*
X167104057Y-68697028D01*
X167246914Y-68661314D01*
X167532628Y-68661314D01*
X167604057Y-68697028D01*
X167639771Y-68732742D01*
X167675485Y-68804171D01*
X167675485Y-68947028D01*
X167639771Y-69018457D01*
X167604057Y-69054171D01*
X167532628Y-69089885D01*
X167354057Y-69089885D01*
X167282628Y-69054171D01*
X167246914Y-69018457D01*
X167211200Y-68947028D01*
X167211200Y-68804171D01*
X167246914Y-68732742D01*
X167282628Y-68697028D01*
X167354057Y-68661314D01*
X158658342Y-94408457D02*
X158694057Y-94444171D01*
X158801200Y-94479885D01*
X158872628Y-94479885D01*
X158979771Y-94444171D01*
X159051200Y-94372742D01*
X159086914Y-94301314D01*
X159122628Y-94158457D01*
X159122628Y-94051314D01*
X159086914Y-93908457D01*
X159051200Y-93837028D01*
X158979771Y-93765600D01*
X158872628Y-93729885D01*
X158801200Y-93729885D01*
X158694057Y-93765600D01*
X158658342Y-93801314D01*
X158015485Y-93979885D02*
X158015485Y-94479885D01*
X158194057Y-93694171D02*
X158372628Y-94229885D01*
X157908342Y-94229885D01*
X157658342Y-93801314D02*
X157622628Y-93765600D01*
X157551200Y-93729885D01*
X157372628Y-93729885D01*
X157301200Y-93765600D01*
X157265485Y-93801314D01*
X157229771Y-93872742D01*
X157229771Y-93944171D01*
X157265485Y-94051314D01*
X157694057Y-94479885D01*
X157229771Y-94479885D01*
X179634057Y-72605600D02*
X179669771Y-72569885D01*
X179705485Y-72462742D01*
X179705485Y-72391314D01*
X179669771Y-72284171D01*
X179598342Y-72212742D01*
X179526914Y-72177028D01*
X179384057Y-72141314D01*
X179276914Y-72141314D01*
X179134057Y-72177028D01*
X179062628Y-72212742D01*
X178991200Y-72284171D01*
X178955485Y-72391314D01*
X178955485Y-72462742D01*
X178991200Y-72569885D01*
X179026914Y-72605600D01*
X179276914Y-73034171D02*
X179241200Y-72962742D01*
X179205485Y-72927028D01*
X179134057Y-72891314D01*
X179098342Y-72891314D01*
X179026914Y-72927028D01*
X178991200Y-72962742D01*
X178955485Y-73034171D01*
X178955485Y-73177028D01*
X178991200Y-73248457D01*
X179026914Y-73284171D01*
X179098342Y-73319885D01*
X179134057Y-73319885D01*
X179205485Y-73284171D01*
X179241200Y-73248457D01*
X179276914Y-73177028D01*
X179276914Y-73034171D01*
X179312628Y-72962742D01*
X179348342Y-72927028D01*
X179419771Y-72891314D01*
X179562628Y-72891314D01*
X179634057Y-72927028D01*
X179669771Y-72962742D01*
X179705485Y-73034171D01*
X179705485Y-73177028D01*
X179669771Y-73248457D01*
X179634057Y-73284171D01*
X179562628Y-73319885D01*
X179419771Y-73319885D01*
X179348342Y-73284171D01*
X179312628Y-73248457D01*
X179276914Y-73177028D01*
X158918342Y-86708457D02*
X158954057Y-86744171D01*
X159061200Y-86779885D01*
X159132628Y-86779885D01*
X159239771Y-86744171D01*
X159311200Y-86672742D01*
X159346914Y-86601314D01*
X159382628Y-86458457D01*
X159382628Y-86351314D01*
X159346914Y-86208457D01*
X159311200Y-86137028D01*
X159239771Y-86065600D01*
X159132628Y-86029885D01*
X159061200Y-86029885D01*
X158954057Y-86065600D01*
X158918342Y-86101314D01*
X158668342Y-86029885D02*
X158204057Y-86029885D01*
X158454057Y-86315600D01*
X158346914Y-86315600D01*
X158275485Y-86351314D01*
X158239771Y-86387028D01*
X158204057Y-86458457D01*
X158204057Y-86637028D01*
X158239771Y-86708457D01*
X158275485Y-86744171D01*
X158346914Y-86779885D01*
X158561200Y-86779885D01*
X158632628Y-86744171D01*
X158668342Y-86708457D01*
X157918342Y-86101314D02*
X157882628Y-86065600D01*
X157811200Y-86029885D01*
X157632628Y-86029885D01*
X157561200Y-86065600D01*
X157525485Y-86101314D01*
X157489771Y-86172742D01*
X157489771Y-86244171D01*
X157525485Y-86351314D01*
X157954057Y-86779885D01*
X157489771Y-86779885D01*
X181374057Y-72695600D02*
X181409771Y-72659885D01*
X181445485Y-72552742D01*
X181445485Y-72481314D01*
X181409771Y-72374171D01*
X181338342Y-72302742D01*
X181266914Y-72267028D01*
X181124057Y-72231314D01*
X181016914Y-72231314D01*
X180874057Y-72267028D01*
X180802628Y-72302742D01*
X180731200Y-72374171D01*
X180695485Y-72481314D01*
X180695485Y-72552742D01*
X180731200Y-72659885D01*
X180766914Y-72695600D01*
X181445485Y-73052742D02*
X181445485Y-73195600D01*
X181409771Y-73267028D01*
X181374057Y-73302742D01*
X181266914Y-73374171D01*
X181124057Y-73409885D01*
X180838342Y-73409885D01*
X180766914Y-73374171D01*
X180731200Y-73338457D01*
X180695485Y-73267028D01*
X180695485Y-73124171D01*
X180731200Y-73052742D01*
X180766914Y-73017028D01*
X180838342Y-72981314D01*
X181016914Y-72981314D01*
X181088342Y-73017028D01*
X181124057Y-73052742D01*
X181159771Y-73124171D01*
X181159771Y-73267028D01*
X181124057Y-73338457D01*
X181088342Y-73374171D01*
X181016914Y-73409885D01*
X158658342Y-93098457D02*
X158694057Y-93134171D01*
X158801200Y-93169885D01*
X158872628Y-93169885D01*
X158979771Y-93134171D01*
X159051200Y-93062742D01*
X159086914Y-92991314D01*
X159122628Y-92848457D01*
X159122628Y-92741314D01*
X159086914Y-92598457D01*
X159051200Y-92527028D01*
X158979771Y-92455600D01*
X158872628Y-92419885D01*
X158801200Y-92419885D01*
X158694057Y-92455600D01*
X158658342Y-92491314D01*
X158015485Y-92669885D02*
X158015485Y-93169885D01*
X158194057Y-92384171D02*
X158372628Y-92919885D01*
X157908342Y-92919885D01*
X157229771Y-93169885D02*
X157658342Y-93169885D01*
X157444057Y-93169885D02*
X157444057Y-92419885D01*
X157515485Y-92527028D01*
X157586914Y-92598457D01*
X157658342Y-92634171D01*
X158878342Y-77878457D02*
X158914057Y-77914171D01*
X159021200Y-77949885D01*
X159092628Y-77949885D01*
X159199771Y-77914171D01*
X159271200Y-77842742D01*
X159306914Y-77771314D01*
X159342628Y-77628457D01*
X159342628Y-77521314D01*
X159306914Y-77378457D01*
X159271200Y-77307028D01*
X159199771Y-77235600D01*
X159092628Y-77199885D01*
X159021200Y-77199885D01*
X158914057Y-77235600D01*
X158878342Y-77271314D01*
X158164057Y-77949885D02*
X158592628Y-77949885D01*
X158378342Y-77949885D02*
X158378342Y-77199885D01*
X158449771Y-77307028D01*
X158521200Y-77378457D01*
X158592628Y-77414171D01*
X157806914Y-77949885D02*
X157664057Y-77949885D01*
X157592628Y-77914171D01*
X157556914Y-77878457D01*
X157485485Y-77771314D01*
X157449771Y-77628457D01*
X157449771Y-77342742D01*
X157485485Y-77271314D01*
X157521200Y-77235600D01*
X157592628Y-77199885D01*
X157735485Y-77199885D01*
X157806914Y-77235600D01*
X157842628Y-77271314D01*
X157878342Y-77342742D01*
X157878342Y-77521314D01*
X157842628Y-77592742D01*
X157806914Y-77628457D01*
X157735485Y-77664171D01*
X157592628Y-77664171D01*
X157521200Y-77628457D01*
X157485485Y-77592742D01*
X157449771Y-77521314D01*
X159028342Y-85348457D02*
X159064057Y-85384171D01*
X159171200Y-85419885D01*
X159242628Y-85419885D01*
X159349771Y-85384171D01*
X159421200Y-85312742D01*
X159456914Y-85241314D01*
X159492628Y-85098457D01*
X159492628Y-84991314D01*
X159456914Y-84848457D01*
X159421200Y-84777028D01*
X159349771Y-84705600D01*
X159242628Y-84669885D01*
X159171200Y-84669885D01*
X159064057Y-84705600D01*
X159028342Y-84741314D01*
X158778342Y-84669885D02*
X158314057Y-84669885D01*
X158564057Y-84955600D01*
X158456914Y-84955600D01*
X158385485Y-84991314D01*
X158349771Y-85027028D01*
X158314057Y-85098457D01*
X158314057Y-85277028D01*
X158349771Y-85348457D01*
X158385485Y-85384171D01*
X158456914Y-85419885D01*
X158671200Y-85419885D01*
X158742628Y-85384171D01*
X158778342Y-85348457D01*
X157599771Y-85419885D02*
X158028342Y-85419885D01*
X157814057Y-85419885D02*
X157814057Y-84669885D01*
X157885485Y-84777028D01*
X157956914Y-84848457D01*
X158028342Y-84884171D01*
X136702342Y-97319657D02*
X136738057Y-97355371D01*
X136845200Y-97391085D01*
X136916628Y-97391085D01*
X137023771Y-97355371D01*
X137095200Y-97283942D01*
X137130914Y-97212514D01*
X137166628Y-97069657D01*
X137166628Y-96962514D01*
X137130914Y-96819657D01*
X137095200Y-96748228D01*
X137023771Y-96676800D01*
X136916628Y-96641085D01*
X136845200Y-96641085D01*
X136738057Y-96676800D01*
X136702342Y-96712514D01*
X136059485Y-96891085D02*
X136059485Y-97391085D01*
X136238057Y-96605371D02*
X136416628Y-97141085D01*
X135952342Y-97141085D01*
X135738057Y-96641085D02*
X135238057Y-96641085D01*
X135559485Y-97391085D01*
X131614057Y-95708457D02*
X131649771Y-95672742D01*
X131685485Y-95565600D01*
X131685485Y-95494171D01*
X131649771Y-95387028D01*
X131578342Y-95315600D01*
X131506914Y-95279885D01*
X131364057Y-95244171D01*
X131256914Y-95244171D01*
X131114057Y-95279885D01*
X131042628Y-95315600D01*
X130971200Y-95387028D01*
X130935485Y-95494171D01*
X130935485Y-95565600D01*
X130971200Y-95672742D01*
X131006914Y-95708457D01*
X131185485Y-96351314D02*
X131685485Y-96351314D01*
X130899771Y-96172742D02*
X131435485Y-95994171D01*
X131435485Y-96458457D01*
X131185485Y-97065600D02*
X131685485Y-97065600D01*
X130899771Y-96887028D02*
X131435485Y-96708457D01*
X131435485Y-97172742D01*
X169368342Y-127598457D02*
X169404057Y-127634171D01*
X169511200Y-127669885D01*
X169582628Y-127669885D01*
X169689771Y-127634171D01*
X169761200Y-127562742D01*
X169796914Y-127491314D01*
X169832628Y-127348457D01*
X169832628Y-127241314D01*
X169796914Y-127098457D01*
X169761200Y-127027028D01*
X169689771Y-126955600D01*
X169582628Y-126919885D01*
X169511200Y-126919885D01*
X169404057Y-126955600D01*
X169368342Y-126991314D01*
X168689771Y-126919885D02*
X169046914Y-126919885D01*
X169082628Y-127277028D01*
X169046914Y-127241314D01*
X168975485Y-127205600D01*
X168796914Y-127205600D01*
X168725485Y-127241314D01*
X168689771Y-127277028D01*
X168654057Y-127348457D01*
X168654057Y-127527028D01*
X168689771Y-127598457D01*
X168725485Y-127634171D01*
X168796914Y-127669885D01*
X168975485Y-127669885D01*
X169046914Y-127634171D01*
X169082628Y-127598457D01*
X168404057Y-126919885D02*
X167904057Y-126919885D01*
X168225485Y-127669885D01*
X132888342Y-82578457D02*
X132924057Y-82614171D01*
X133031200Y-82649885D01*
X133102628Y-82649885D01*
X133209771Y-82614171D01*
X133281200Y-82542742D01*
X133316914Y-82471314D01*
X133352628Y-82328457D01*
X133352628Y-82221314D01*
X133316914Y-82078457D01*
X133281200Y-82007028D01*
X133209771Y-81935600D01*
X133102628Y-81899885D01*
X133031200Y-81899885D01*
X132924057Y-81935600D01*
X132888342Y-81971314D01*
X132602628Y-81971314D02*
X132566914Y-81935600D01*
X132495485Y-81899885D01*
X132316914Y-81899885D01*
X132245485Y-81935600D01*
X132209771Y-81971314D01*
X132174057Y-82042742D01*
X132174057Y-82114171D01*
X132209771Y-82221314D01*
X132638342Y-82649885D01*
X132174057Y-82649885D01*
X131745485Y-82221314D02*
X131816914Y-82185600D01*
X131852628Y-82149885D01*
X131888342Y-82078457D01*
X131888342Y-82042742D01*
X131852628Y-81971314D01*
X131816914Y-81935600D01*
X131745485Y-81899885D01*
X131602628Y-81899885D01*
X131531200Y-81935600D01*
X131495485Y-81971314D01*
X131459771Y-82042742D01*
X131459771Y-82078457D01*
X131495485Y-82149885D01*
X131531200Y-82185600D01*
X131602628Y-82221314D01*
X131745485Y-82221314D01*
X131816914Y-82257028D01*
X131852628Y-82292742D01*
X131888342Y-82364171D01*
X131888342Y-82507028D01*
X131852628Y-82578457D01*
X131816914Y-82614171D01*
X131745485Y-82649885D01*
X131602628Y-82649885D01*
X131531200Y-82614171D01*
X131495485Y-82578457D01*
X131459771Y-82507028D01*
X131459771Y-82364171D01*
X131495485Y-82292742D01*
X131531200Y-82257028D01*
X131602628Y-82221314D01*
X133218342Y-81278457D02*
X133254057Y-81314171D01*
X133361200Y-81349885D01*
X133432628Y-81349885D01*
X133539771Y-81314171D01*
X133611200Y-81242742D01*
X133646914Y-81171314D01*
X133682628Y-81028457D01*
X133682628Y-80921314D01*
X133646914Y-80778457D01*
X133611200Y-80707028D01*
X133539771Y-80635600D01*
X133432628Y-80599885D01*
X133361200Y-80599885D01*
X133254057Y-80635600D01*
X133218342Y-80671314D01*
X132932628Y-80671314D02*
X132896914Y-80635600D01*
X132825485Y-80599885D01*
X132646914Y-80599885D01*
X132575485Y-80635600D01*
X132539771Y-80671314D01*
X132504057Y-80742742D01*
X132504057Y-80814171D01*
X132539771Y-80921314D01*
X132968342Y-81349885D01*
X132504057Y-81349885D01*
X132254057Y-80599885D02*
X131754057Y-80599885D01*
X132075485Y-81349885D01*
X133038342Y-79418457D02*
X133074057Y-79454171D01*
X133181200Y-79489885D01*
X133252628Y-79489885D01*
X133359771Y-79454171D01*
X133431200Y-79382742D01*
X133466914Y-79311314D01*
X133502628Y-79168457D01*
X133502628Y-79061314D01*
X133466914Y-78918457D01*
X133431200Y-78847028D01*
X133359771Y-78775600D01*
X133252628Y-78739885D01*
X133181200Y-78739885D01*
X133074057Y-78775600D01*
X133038342Y-78811314D01*
X132752628Y-78811314D02*
X132716914Y-78775600D01*
X132645485Y-78739885D01*
X132466914Y-78739885D01*
X132395485Y-78775600D01*
X132359771Y-78811314D01*
X132324057Y-78882742D01*
X132324057Y-78954171D01*
X132359771Y-79061314D01*
X132788342Y-79489885D01*
X132324057Y-79489885D01*
X132074057Y-78739885D02*
X131609771Y-78739885D01*
X131859771Y-79025600D01*
X131752628Y-79025600D01*
X131681200Y-79061314D01*
X131645485Y-79097028D01*
X131609771Y-79168457D01*
X131609771Y-79347028D01*
X131645485Y-79418457D01*
X131681200Y-79454171D01*
X131752628Y-79489885D01*
X131966914Y-79489885D01*
X132038342Y-79454171D01*
X132074057Y-79418457D01*
X227748342Y-92328457D02*
X227784057Y-92364171D01*
X227891200Y-92399885D01*
X227962628Y-92399885D01*
X228069771Y-92364171D01*
X228141200Y-92292742D01*
X228176914Y-92221314D01*
X228212628Y-92078457D01*
X228212628Y-91971314D01*
X228176914Y-91828457D01*
X228141200Y-91757028D01*
X228069771Y-91685600D01*
X227962628Y-91649885D01*
X227891200Y-91649885D01*
X227784057Y-91685600D01*
X227748342Y-91721314D01*
X227105485Y-91899885D02*
X227105485Y-92399885D01*
X227284057Y-91614171D02*
X227462628Y-92149885D01*
X226998342Y-92149885D01*
X226569771Y-91649885D02*
X226498342Y-91649885D01*
X226426914Y-91685600D01*
X226391200Y-91721314D01*
X226355485Y-91792742D01*
X226319771Y-91935600D01*
X226319771Y-92114171D01*
X226355485Y-92257028D01*
X226391200Y-92328457D01*
X226426914Y-92364171D01*
X226498342Y-92399885D01*
X226569771Y-92399885D01*
X226641200Y-92364171D01*
X226676914Y-92328457D01*
X226712628Y-92257028D01*
X226748342Y-92114171D01*
X226748342Y-91935600D01*
X226712628Y-91792742D01*
X226676914Y-91721314D01*
X226641200Y-91685600D01*
X226569771Y-91649885D01*
X206628342Y-74808457D02*
X206664057Y-74844171D01*
X206771200Y-74879885D01*
X206842628Y-74879885D01*
X206949771Y-74844171D01*
X207021200Y-74772742D01*
X207056914Y-74701314D01*
X207092628Y-74558457D01*
X207092628Y-74451314D01*
X207056914Y-74308457D01*
X207021200Y-74237028D01*
X206949771Y-74165600D01*
X206842628Y-74129885D01*
X206771200Y-74129885D01*
X206664057Y-74165600D01*
X206628342Y-74201314D01*
X205914057Y-74879885D02*
X206342628Y-74879885D01*
X206128342Y-74879885D02*
X206128342Y-74129885D01*
X206199771Y-74237028D01*
X206271200Y-74308457D01*
X206342628Y-74344171D01*
X205235485Y-74129885D02*
X205592628Y-74129885D01*
X205628342Y-74487028D01*
X205592628Y-74451314D01*
X205521200Y-74415600D01*
X205342628Y-74415600D01*
X205271200Y-74451314D01*
X205235485Y-74487028D01*
X205199771Y-74558457D01*
X205199771Y-74737028D01*
X205235485Y-74808457D01*
X205271200Y-74844171D01*
X205342628Y-74879885D01*
X205521200Y-74879885D01*
X205592628Y-74844171D01*
X205628342Y-74808457D01*
X227588342Y-93648457D02*
X227624057Y-93684171D01*
X227731200Y-93719885D01*
X227802628Y-93719885D01*
X227909771Y-93684171D01*
X227981200Y-93612742D01*
X228016914Y-93541314D01*
X228052628Y-93398457D01*
X228052628Y-93291314D01*
X228016914Y-93148457D01*
X227981200Y-93077028D01*
X227909771Y-93005600D01*
X227802628Y-92969885D01*
X227731200Y-92969885D01*
X227624057Y-93005600D01*
X227588342Y-93041314D01*
X226945485Y-93219885D02*
X226945485Y-93719885D01*
X227124057Y-92934171D02*
X227302628Y-93469885D01*
X226838342Y-93469885D01*
X226195485Y-92969885D02*
X226552628Y-92969885D01*
X226588342Y-93327028D01*
X226552628Y-93291314D01*
X226481200Y-93255600D01*
X226302628Y-93255600D01*
X226231200Y-93291314D01*
X226195485Y-93327028D01*
X226159771Y-93398457D01*
X226159771Y-93577028D01*
X226195485Y-93648457D01*
X226231200Y-93684171D01*
X226302628Y-93719885D01*
X226481200Y-93719885D01*
X226552628Y-93684171D01*
X226588342Y-93648457D01*
X227658342Y-89358457D02*
X227694057Y-89394171D01*
X227801200Y-89429885D01*
X227872628Y-89429885D01*
X227979771Y-89394171D01*
X228051200Y-89322742D01*
X228086914Y-89251314D01*
X228122628Y-89108457D01*
X228122628Y-89001314D01*
X228086914Y-88858457D01*
X228051200Y-88787028D01*
X227979771Y-88715600D01*
X227872628Y-88679885D01*
X227801200Y-88679885D01*
X227694057Y-88715600D01*
X227658342Y-88751314D01*
X227015485Y-88929885D02*
X227015485Y-89429885D01*
X227194057Y-88644171D02*
X227372628Y-89179885D01*
X226908342Y-89179885D01*
X226694057Y-88679885D02*
X226229771Y-88679885D01*
X226479771Y-88965600D01*
X226372628Y-88965600D01*
X226301200Y-89001314D01*
X226265485Y-89037028D01*
X226229771Y-89108457D01*
X226229771Y-89287028D01*
X226265485Y-89358457D01*
X226301200Y-89394171D01*
X226372628Y-89429885D01*
X226586914Y-89429885D01*
X226658342Y-89394171D01*
X226694057Y-89358457D01*
X227888342Y-86378457D02*
X227924057Y-86414171D01*
X228031200Y-86449885D01*
X228102628Y-86449885D01*
X228209771Y-86414171D01*
X228281200Y-86342742D01*
X228316914Y-86271314D01*
X228352628Y-86128457D01*
X228352628Y-86021314D01*
X228316914Y-85878457D01*
X228281200Y-85807028D01*
X228209771Y-85735600D01*
X228102628Y-85699885D01*
X228031200Y-85699885D01*
X227924057Y-85735600D01*
X227888342Y-85771314D01*
X227638342Y-85699885D02*
X227174057Y-85699885D01*
X227424057Y-85985600D01*
X227316914Y-85985600D01*
X227245485Y-86021314D01*
X227209771Y-86057028D01*
X227174057Y-86128457D01*
X227174057Y-86307028D01*
X227209771Y-86378457D01*
X227245485Y-86414171D01*
X227316914Y-86449885D01*
X227531200Y-86449885D01*
X227602628Y-86414171D01*
X227638342Y-86378457D01*
X226495485Y-85699885D02*
X226852628Y-85699885D01*
X226888342Y-86057028D01*
X226852628Y-86021314D01*
X226781200Y-85985600D01*
X226602628Y-85985600D01*
X226531200Y-86021314D01*
X226495485Y-86057028D01*
X226459771Y-86128457D01*
X226459771Y-86307028D01*
X226495485Y-86378457D01*
X226531200Y-86414171D01*
X226602628Y-86449885D01*
X226781200Y-86449885D01*
X226852628Y-86414171D01*
X226888342Y-86378457D01*
X227698342Y-79518457D02*
X227734057Y-79554171D01*
X227841200Y-79589885D01*
X227912628Y-79589885D01*
X228019771Y-79554171D01*
X228091200Y-79482742D01*
X228126914Y-79411314D01*
X228162628Y-79268457D01*
X228162628Y-79161314D01*
X228126914Y-79018457D01*
X228091200Y-78947028D01*
X228019771Y-78875600D01*
X227912628Y-78839885D01*
X227841200Y-78839885D01*
X227734057Y-78875600D01*
X227698342Y-78911314D01*
X227412628Y-78911314D02*
X227376914Y-78875600D01*
X227305485Y-78839885D01*
X227126914Y-78839885D01*
X227055485Y-78875600D01*
X227019771Y-78911314D01*
X226984057Y-78982742D01*
X226984057Y-79054171D01*
X227019771Y-79161314D01*
X227448342Y-79589885D01*
X226984057Y-79589885D01*
X226341200Y-78839885D02*
X226484057Y-78839885D01*
X226555485Y-78875600D01*
X226591200Y-78911314D01*
X226662628Y-79018457D01*
X226698342Y-79161314D01*
X226698342Y-79447028D01*
X226662628Y-79518457D01*
X226626914Y-79554171D01*
X226555485Y-79589885D01*
X226412628Y-79589885D01*
X226341200Y-79554171D01*
X226305485Y-79518457D01*
X226269771Y-79447028D01*
X226269771Y-79268457D01*
X226305485Y-79197028D01*
X226341200Y-79161314D01*
X226412628Y-79125600D01*
X226555485Y-79125600D01*
X226626914Y-79161314D01*
X226662628Y-79197028D01*
X226698342Y-79268457D01*
X227718342Y-76348457D02*
X227754057Y-76384171D01*
X227861200Y-76419885D01*
X227932628Y-76419885D01*
X228039771Y-76384171D01*
X228111200Y-76312742D01*
X228146914Y-76241314D01*
X228182628Y-76098457D01*
X228182628Y-75991314D01*
X228146914Y-75848457D01*
X228111200Y-75777028D01*
X228039771Y-75705600D01*
X227932628Y-75669885D01*
X227861200Y-75669885D01*
X227754057Y-75705600D01*
X227718342Y-75741314D01*
X227004057Y-76419885D02*
X227432628Y-76419885D01*
X227218342Y-76419885D02*
X227218342Y-75669885D01*
X227289771Y-75777028D01*
X227361200Y-75848457D01*
X227432628Y-75884171D01*
X226575485Y-75991314D02*
X226646914Y-75955600D01*
X226682628Y-75919885D01*
X226718342Y-75848457D01*
X226718342Y-75812742D01*
X226682628Y-75741314D01*
X226646914Y-75705600D01*
X226575485Y-75669885D01*
X226432628Y-75669885D01*
X226361200Y-75705600D01*
X226325485Y-75741314D01*
X226289771Y-75812742D01*
X226289771Y-75848457D01*
X226325485Y-75919885D01*
X226361200Y-75955600D01*
X226432628Y-75991314D01*
X226575485Y-75991314D01*
X226646914Y-76027028D01*
X226682628Y-76062742D01*
X226718342Y-76134171D01*
X226718342Y-76277028D01*
X226682628Y-76348457D01*
X226646914Y-76384171D01*
X226575485Y-76419885D01*
X226432628Y-76419885D01*
X226361200Y-76384171D01*
X226325485Y-76348457D01*
X226289771Y-76277028D01*
X226289771Y-76134171D01*
X226325485Y-76062742D01*
X226361200Y-76027028D01*
X226432628Y-75991314D01*
X227578342Y-73548457D02*
X227614057Y-73584171D01*
X227721200Y-73619885D01*
X227792628Y-73619885D01*
X227899771Y-73584171D01*
X227971200Y-73512742D01*
X228006914Y-73441314D01*
X228042628Y-73298457D01*
X228042628Y-73191314D01*
X228006914Y-73048457D01*
X227971200Y-72977028D01*
X227899771Y-72905600D01*
X227792628Y-72869885D01*
X227721200Y-72869885D01*
X227614057Y-72905600D01*
X227578342Y-72941314D01*
X226864057Y-73619885D02*
X227292628Y-73619885D01*
X227078342Y-73619885D02*
X227078342Y-72869885D01*
X227149771Y-72977028D01*
X227221200Y-73048457D01*
X227292628Y-73084171D01*
X226221200Y-73119885D02*
X226221200Y-73619885D01*
X226399771Y-72834171D02*
X226578342Y-73369885D01*
X226114057Y-73369885D01*
X227608342Y-72398457D02*
X227644057Y-72434171D01*
X227751200Y-72469885D01*
X227822628Y-72469885D01*
X227929771Y-72434171D01*
X228001200Y-72362742D01*
X228036914Y-72291314D01*
X228072628Y-72148457D01*
X228072628Y-72041314D01*
X228036914Y-71898457D01*
X228001200Y-71827028D01*
X227929771Y-71755600D01*
X227822628Y-71719885D01*
X227751200Y-71719885D01*
X227644057Y-71755600D01*
X227608342Y-71791314D01*
X226894057Y-72469885D02*
X227322628Y-72469885D01*
X227108342Y-72469885D02*
X227108342Y-71719885D01*
X227179771Y-71827028D01*
X227251200Y-71898457D01*
X227322628Y-71934171D01*
X226608342Y-71791314D02*
X226572628Y-71755600D01*
X226501200Y-71719885D01*
X226322628Y-71719885D01*
X226251200Y-71755600D01*
X226215485Y-71791314D01*
X226179771Y-71862742D01*
X226179771Y-71934171D01*
X226215485Y-72041314D01*
X226644057Y-72469885D01*
X226179771Y-72469885D01*
X158828342Y-141398457D02*
X158864057Y-141434171D01*
X158971200Y-141469885D01*
X159042628Y-141469885D01*
X159149771Y-141434171D01*
X159221200Y-141362742D01*
X159256914Y-141291314D01*
X159292628Y-141148457D01*
X159292628Y-141041314D01*
X159256914Y-140898457D01*
X159221200Y-140827028D01*
X159149771Y-140755600D01*
X159042628Y-140719885D01*
X158971200Y-140719885D01*
X158864057Y-140755600D01*
X158828342Y-140791314D01*
X158578342Y-140719885D02*
X158078342Y-140719885D01*
X158399771Y-141469885D01*
X157471200Y-140719885D02*
X157614057Y-140719885D01*
X157685485Y-140755600D01*
X157721200Y-140791314D01*
X157792628Y-140898457D01*
X157828342Y-141041314D01*
X157828342Y-141327028D01*
X157792628Y-141398457D01*
X157756914Y-141434171D01*
X157685485Y-141469885D01*
X157542628Y-141469885D01*
X157471200Y-141434171D01*
X157435485Y-141398457D01*
X157399771Y-141327028D01*
X157399771Y-141148457D01*
X157435485Y-141077028D01*
X157471200Y-141041314D01*
X157542628Y-141005600D01*
X157685485Y-141005600D01*
X157756914Y-141041314D01*
X157792628Y-141077028D01*
X157828342Y-141148457D01*
X157118342Y-133338457D02*
X157154057Y-133374171D01*
X157261200Y-133409885D01*
X157332628Y-133409885D01*
X157439771Y-133374171D01*
X157511200Y-133302742D01*
X157546914Y-133231314D01*
X157582628Y-133088457D01*
X157582628Y-132981314D01*
X157546914Y-132838457D01*
X157511200Y-132767028D01*
X157439771Y-132695600D01*
X157332628Y-132659885D01*
X157261200Y-132659885D01*
X157154057Y-132695600D01*
X157118342Y-132731314D01*
X156439771Y-132659885D02*
X156796914Y-132659885D01*
X156832628Y-133017028D01*
X156796914Y-132981314D01*
X156725485Y-132945600D01*
X156546914Y-132945600D01*
X156475485Y-132981314D01*
X156439771Y-133017028D01*
X156404057Y-133088457D01*
X156404057Y-133267028D01*
X156439771Y-133338457D01*
X156475485Y-133374171D01*
X156546914Y-133409885D01*
X156725485Y-133409885D01*
X156796914Y-133374171D01*
X156832628Y-133338457D01*
X156046914Y-133409885D02*
X155904057Y-133409885D01*
X155832628Y-133374171D01*
X155796914Y-133338457D01*
X155725485Y-133231314D01*
X155689771Y-133088457D01*
X155689771Y-132802742D01*
X155725485Y-132731314D01*
X155761200Y-132695600D01*
X155832628Y-132659885D01*
X155975485Y-132659885D01*
X156046914Y-132695600D01*
X156082628Y-132731314D01*
X156118342Y-132802742D01*
X156118342Y-132981314D01*
X156082628Y-133052742D01*
X156046914Y-133088457D01*
X155975485Y-133124171D01*
X155832628Y-133124171D01*
X155761200Y-133088457D01*
X155725485Y-133052742D01*
X155689771Y-132981314D01*
X162708342Y-136578457D02*
X162744057Y-136614171D01*
X162851200Y-136649885D01*
X162922628Y-136649885D01*
X163029771Y-136614171D01*
X163101200Y-136542742D01*
X163136914Y-136471314D01*
X163172628Y-136328457D01*
X163172628Y-136221314D01*
X163136914Y-136078457D01*
X163101200Y-136007028D01*
X163029771Y-135935600D01*
X162922628Y-135899885D01*
X162851200Y-135899885D01*
X162744057Y-135935600D01*
X162708342Y-135971314D01*
X162458342Y-135899885D02*
X161958342Y-135899885D01*
X162279771Y-136649885D01*
X161529771Y-135899885D02*
X161458342Y-135899885D01*
X161386914Y-135935600D01*
X161351200Y-135971314D01*
X161315485Y-136042742D01*
X161279771Y-136185600D01*
X161279771Y-136364171D01*
X161315485Y-136507028D01*
X161351200Y-136578457D01*
X161386914Y-136614171D01*
X161458342Y-136649885D01*
X161529771Y-136649885D01*
X161601200Y-136614171D01*
X161636914Y-136578457D01*
X161672628Y-136507028D01*
X161708342Y-136364171D01*
X161708342Y-136185600D01*
X161672628Y-136042742D01*
X161636914Y-135971314D01*
X161601200Y-135935600D01*
X161529771Y-135899885D01*
X161198342Y-137868457D02*
X161234057Y-137904171D01*
X161341200Y-137939885D01*
X161412628Y-137939885D01*
X161519771Y-137904171D01*
X161591200Y-137832742D01*
X161626914Y-137761314D01*
X161662628Y-137618457D01*
X161662628Y-137511314D01*
X161626914Y-137368457D01*
X161591200Y-137297028D01*
X161519771Y-137225600D01*
X161412628Y-137189885D01*
X161341200Y-137189885D01*
X161234057Y-137225600D01*
X161198342Y-137261314D01*
X160948342Y-137189885D02*
X160448342Y-137189885D01*
X160769771Y-137939885D01*
X160198342Y-137261314D02*
X160162628Y-137225600D01*
X160091200Y-137189885D01*
X159912628Y-137189885D01*
X159841200Y-137225600D01*
X159805485Y-137261314D01*
X159769771Y-137332742D01*
X159769771Y-137404171D01*
X159805485Y-137511314D01*
X160234057Y-137939885D01*
X159769771Y-137939885D01*
X164088342Y-138298457D02*
X164124057Y-138334171D01*
X164231200Y-138369885D01*
X164302628Y-138369885D01*
X164409771Y-138334171D01*
X164481200Y-138262742D01*
X164516914Y-138191314D01*
X164552628Y-138048457D01*
X164552628Y-137941314D01*
X164516914Y-137798457D01*
X164481200Y-137727028D01*
X164409771Y-137655600D01*
X164302628Y-137619885D01*
X164231200Y-137619885D01*
X164124057Y-137655600D01*
X164088342Y-137691314D01*
X163838342Y-137619885D02*
X163338342Y-137619885D01*
X163659771Y-138369885D01*
X163124057Y-137619885D02*
X162659771Y-137619885D01*
X162909771Y-137905600D01*
X162802628Y-137905600D01*
X162731200Y-137941314D01*
X162695485Y-137977028D01*
X162659771Y-138048457D01*
X162659771Y-138227028D01*
X162695485Y-138298457D01*
X162731200Y-138334171D01*
X162802628Y-138369885D01*
X163016914Y-138369885D01*
X163088342Y-138334171D01*
X163124057Y-138298457D01*
X161504057Y-143198457D02*
X161539771Y-143162742D01*
X161575485Y-143055600D01*
X161575485Y-142984171D01*
X161539771Y-142877028D01*
X161468342Y-142805600D01*
X161396914Y-142769885D01*
X161254057Y-142734171D01*
X161146914Y-142734171D01*
X161004057Y-142769885D01*
X160932628Y-142805600D01*
X160861200Y-142877028D01*
X160825485Y-142984171D01*
X160825485Y-143055600D01*
X160861200Y-143162742D01*
X160896914Y-143198457D01*
X160825485Y-143448457D02*
X160825485Y-143948457D01*
X161575485Y-143627028D01*
X161146914Y-144341314D02*
X161111200Y-144269885D01*
X161075485Y-144234171D01*
X161004057Y-144198457D01*
X160968342Y-144198457D01*
X160896914Y-144234171D01*
X160861200Y-144269885D01*
X160825485Y-144341314D01*
X160825485Y-144484171D01*
X160861200Y-144555600D01*
X160896914Y-144591314D01*
X160968342Y-144627028D01*
X161004057Y-144627028D01*
X161075485Y-144591314D01*
X161111200Y-144555600D01*
X161146914Y-144484171D01*
X161146914Y-144341314D01*
X161182628Y-144269885D01*
X161218342Y-144234171D01*
X161289771Y-144198457D01*
X161432628Y-144198457D01*
X161504057Y-144234171D01*
X161539771Y-144269885D01*
X161575485Y-144341314D01*
X161575485Y-144484171D01*
X161539771Y-144555600D01*
X161504057Y-144591314D01*
X161432628Y-144627028D01*
X161289771Y-144627028D01*
X161218342Y-144591314D01*
X161182628Y-144555600D01*
X161146914Y-144484171D01*
X159364057Y-144558457D02*
X159399771Y-144522742D01*
X159435485Y-144415600D01*
X159435485Y-144344171D01*
X159399771Y-144237028D01*
X159328342Y-144165600D01*
X159256914Y-144129885D01*
X159114057Y-144094171D01*
X159006914Y-144094171D01*
X158864057Y-144129885D01*
X158792628Y-144165600D01*
X158721200Y-144237028D01*
X158685485Y-144344171D01*
X158685485Y-144415600D01*
X158721200Y-144522742D01*
X158756914Y-144558457D01*
X158685485Y-144808457D02*
X158685485Y-145308457D01*
X159435485Y-144987028D01*
X158685485Y-145951314D02*
X158685485Y-145594171D01*
X159042628Y-145558457D01*
X159006914Y-145594171D01*
X158971200Y-145665600D01*
X158971200Y-145844171D01*
X159006914Y-145915600D01*
X159042628Y-145951314D01*
X159114057Y-145987028D01*
X159292628Y-145987028D01*
X159364057Y-145951314D01*
X159399771Y-145915600D01*
X159435485Y-145844171D01*
X159435485Y-145665600D01*
X159399771Y-145594171D01*
X159364057Y-145558457D01*
X163854057Y-144588457D02*
X163889771Y-144552742D01*
X163925485Y-144445600D01*
X163925485Y-144374171D01*
X163889771Y-144267028D01*
X163818342Y-144195600D01*
X163746914Y-144159885D01*
X163604057Y-144124171D01*
X163496914Y-144124171D01*
X163354057Y-144159885D01*
X163282628Y-144195600D01*
X163211200Y-144267028D01*
X163175485Y-144374171D01*
X163175485Y-144445600D01*
X163211200Y-144552742D01*
X163246914Y-144588457D01*
X163175485Y-144838457D02*
X163175485Y-145338457D01*
X163925485Y-145017028D01*
X163925485Y-145659885D02*
X163925485Y-145802742D01*
X163889771Y-145874171D01*
X163854057Y-145909885D01*
X163746914Y-145981314D01*
X163604057Y-146017028D01*
X163318342Y-146017028D01*
X163246914Y-145981314D01*
X163211200Y-145945600D01*
X163175485Y-145874171D01*
X163175485Y-145731314D01*
X163211200Y-145659885D01*
X163246914Y-145624171D01*
X163318342Y-145588457D01*
X163496914Y-145588457D01*
X163568342Y-145624171D01*
X163604057Y-145659885D01*
X163639771Y-145731314D01*
X163639771Y-145874171D01*
X163604057Y-145945600D01*
X163568342Y-145981314D01*
X163496914Y-146017028D01*
X156604057Y-148528457D02*
X156639771Y-148492742D01*
X156675485Y-148385600D01*
X156675485Y-148314171D01*
X156639771Y-148207028D01*
X156568342Y-148135600D01*
X156496914Y-148099885D01*
X156354057Y-148064171D01*
X156246914Y-148064171D01*
X156104057Y-148099885D01*
X156032628Y-148135600D01*
X155961200Y-148207028D01*
X155925485Y-148314171D01*
X155925485Y-148385600D01*
X155961200Y-148492742D01*
X155996914Y-148528457D01*
X156246914Y-148957028D02*
X156211200Y-148885600D01*
X156175485Y-148849885D01*
X156104057Y-148814171D01*
X156068342Y-148814171D01*
X155996914Y-148849885D01*
X155961200Y-148885600D01*
X155925485Y-148957028D01*
X155925485Y-149099885D01*
X155961200Y-149171314D01*
X155996914Y-149207028D01*
X156068342Y-149242742D01*
X156104057Y-149242742D01*
X156175485Y-149207028D01*
X156211200Y-149171314D01*
X156246914Y-149099885D01*
X156246914Y-148957028D01*
X156282628Y-148885600D01*
X156318342Y-148849885D01*
X156389771Y-148814171D01*
X156532628Y-148814171D01*
X156604057Y-148849885D01*
X156639771Y-148885600D01*
X156675485Y-148957028D01*
X156675485Y-149099885D01*
X156639771Y-149171314D01*
X156604057Y-149207028D01*
X156532628Y-149242742D01*
X156389771Y-149242742D01*
X156318342Y-149207028D01*
X156282628Y-149171314D01*
X156246914Y-149099885D01*
X156175485Y-149885600D02*
X156675485Y-149885600D01*
X155889771Y-149707028D02*
X156425485Y-149528457D01*
X156425485Y-149992742D01*
X152738342Y-146428457D02*
X152774057Y-146464171D01*
X152881200Y-146499885D01*
X152952628Y-146499885D01*
X153059771Y-146464171D01*
X153131200Y-146392742D01*
X153166914Y-146321314D01*
X153202628Y-146178457D01*
X153202628Y-146071314D01*
X153166914Y-145928457D01*
X153131200Y-145857028D01*
X153059771Y-145785600D01*
X152952628Y-145749885D01*
X152881200Y-145749885D01*
X152774057Y-145785600D01*
X152738342Y-145821314D01*
X152309771Y-146071314D02*
X152381200Y-146035600D01*
X152416914Y-145999885D01*
X152452628Y-145928457D01*
X152452628Y-145892742D01*
X152416914Y-145821314D01*
X152381200Y-145785600D01*
X152309771Y-145749885D01*
X152166914Y-145749885D01*
X152095485Y-145785600D01*
X152059771Y-145821314D01*
X152024057Y-145892742D01*
X152024057Y-145928457D01*
X152059771Y-145999885D01*
X152095485Y-146035600D01*
X152166914Y-146071314D01*
X152309771Y-146071314D01*
X152381200Y-146107028D01*
X152416914Y-146142742D01*
X152452628Y-146214171D01*
X152452628Y-146357028D01*
X152416914Y-146428457D01*
X152381200Y-146464171D01*
X152309771Y-146499885D01*
X152166914Y-146499885D01*
X152095485Y-146464171D01*
X152059771Y-146428457D01*
X152024057Y-146357028D01*
X152024057Y-146214171D01*
X152059771Y-146142742D01*
X152095485Y-146107028D01*
X152166914Y-146071314D01*
X151774057Y-145749885D02*
X151309771Y-145749885D01*
X151559771Y-146035600D01*
X151452628Y-146035600D01*
X151381200Y-146071314D01*
X151345485Y-146107028D01*
X151309771Y-146178457D01*
X151309771Y-146357028D01*
X151345485Y-146428457D01*
X151381200Y-146464171D01*
X151452628Y-146499885D01*
X151666914Y-146499885D01*
X151738342Y-146464171D01*
X151774057Y-146428457D01*
X137651200Y-144557028D02*
X137901200Y-144557028D01*
X137901200Y-144949885D02*
X137901200Y-144199885D01*
X137544057Y-144199885D01*
X137008342Y-144557028D02*
X136901200Y-144592742D01*
X136865485Y-144628457D01*
X136829771Y-144699885D01*
X136829771Y-144807028D01*
X136865485Y-144878457D01*
X136901200Y-144914171D01*
X136972628Y-144949885D01*
X137258342Y-144949885D01*
X137258342Y-144199885D01*
X137008342Y-144199885D01*
X136936914Y-144235600D01*
X136901200Y-144271314D01*
X136865485Y-144342742D01*
X136865485Y-144414171D01*
X136901200Y-144485600D01*
X136936914Y-144521314D01*
X137008342Y-144557028D01*
X137258342Y-144557028D01*
X136579771Y-144199885D02*
X136115485Y-144199885D01*
X136365485Y-144485600D01*
X136258342Y-144485600D01*
X136186914Y-144521314D01*
X136151200Y-144557028D01*
X136115485Y-144628457D01*
X136115485Y-144807028D01*
X136151200Y-144878457D01*
X136186914Y-144914171D01*
X136258342Y-144949885D01*
X136472628Y-144949885D01*
X136544057Y-144914171D01*
X136579771Y-144878457D01*
X172575485Y-121539885D02*
X172825485Y-121182742D01*
X173004057Y-121539885D02*
X173004057Y-120789885D01*
X172718342Y-120789885D01*
X172646914Y-120825600D01*
X172611200Y-120861314D01*
X172575485Y-120932742D01*
X172575485Y-121039885D01*
X172611200Y-121111314D01*
X172646914Y-121147028D01*
X172718342Y-121182742D01*
X173004057Y-121182742D01*
X171861200Y-121539885D02*
X172289771Y-121539885D01*
X172075485Y-121539885D02*
X172075485Y-120789885D01*
X172146914Y-120897028D01*
X172218342Y-120968457D01*
X172289771Y-121004171D01*
X171396914Y-120789885D02*
X171325485Y-120789885D01*
X171254057Y-120825600D01*
X171218342Y-120861314D01*
X171182628Y-120932742D01*
X171146914Y-121075600D01*
X171146914Y-121254171D01*
X171182628Y-121397028D01*
X171218342Y-121468457D01*
X171254057Y-121504171D01*
X171325485Y-121539885D01*
X171396914Y-121539885D01*
X171468342Y-121504171D01*
X171504057Y-121468457D01*
X171539771Y-121397028D01*
X171575485Y-121254171D01*
X171575485Y-121075600D01*
X171539771Y-120932742D01*
X171504057Y-120861314D01*
X171468342Y-120825600D01*
X171396914Y-120789885D01*
X170896914Y-120789885D02*
X170432628Y-120789885D01*
X170682628Y-121075600D01*
X170575485Y-121075600D01*
X170504057Y-121111314D01*
X170468342Y-121147028D01*
X170432628Y-121218457D01*
X170432628Y-121397028D01*
X170468342Y-121468457D01*
X170504057Y-121504171D01*
X170575485Y-121539885D01*
X170789771Y-121539885D01*
X170861200Y-121504171D01*
X170896914Y-121468457D01*
X177515485Y-126299885D02*
X177765485Y-125942742D01*
X177944057Y-126299885D02*
X177944057Y-125549885D01*
X177658342Y-125549885D01*
X177586914Y-125585600D01*
X177551200Y-125621314D01*
X177515485Y-125692742D01*
X177515485Y-125799885D01*
X177551200Y-125871314D01*
X177586914Y-125907028D01*
X177658342Y-125942742D01*
X177944057Y-125942742D01*
X176801200Y-126299885D02*
X177229771Y-126299885D01*
X177015485Y-126299885D02*
X177015485Y-125549885D01*
X177086914Y-125657028D01*
X177158342Y-125728457D01*
X177229771Y-125764171D01*
X176515485Y-125621314D02*
X176479771Y-125585600D01*
X176408342Y-125549885D01*
X176229771Y-125549885D01*
X176158342Y-125585600D01*
X176122628Y-125621314D01*
X176086914Y-125692742D01*
X176086914Y-125764171D01*
X176122628Y-125871314D01*
X176551200Y-126299885D01*
X176086914Y-126299885D01*
X175372628Y-126299885D02*
X175801200Y-126299885D01*
X175586914Y-126299885D02*
X175586914Y-125549885D01*
X175658342Y-125657028D01*
X175729771Y-125728457D01*
X175801200Y-125764171D01*
X128288342Y-94079885D02*
X128538342Y-93722742D01*
X128716914Y-94079885D02*
X128716914Y-93329885D01*
X128431200Y-93329885D01*
X128359771Y-93365600D01*
X128324057Y-93401314D01*
X128288342Y-93472742D01*
X128288342Y-93579885D01*
X128324057Y-93651314D01*
X128359771Y-93687028D01*
X128431200Y-93722742D01*
X128716914Y-93722742D01*
X127609771Y-93329885D02*
X127966914Y-93329885D01*
X128002628Y-93687028D01*
X127966914Y-93651314D01*
X127895485Y-93615600D01*
X127716914Y-93615600D01*
X127645485Y-93651314D01*
X127609771Y-93687028D01*
X127574057Y-93758457D01*
X127574057Y-93937028D01*
X127609771Y-94008457D01*
X127645485Y-94044171D01*
X127716914Y-94079885D01*
X127895485Y-94079885D01*
X127966914Y-94044171D01*
X128002628Y-94008457D01*
X127109771Y-93329885D02*
X127038342Y-93329885D01*
X126966914Y-93365600D01*
X126931200Y-93401314D01*
X126895485Y-93472742D01*
X126859771Y-93615600D01*
X126859771Y-93794171D01*
X126895485Y-93937028D01*
X126931200Y-94008457D01*
X126966914Y-94044171D01*
X127038342Y-94079885D01*
X127109771Y-94079885D01*
X127181200Y-94044171D01*
X127216914Y-94008457D01*
X127252628Y-93937028D01*
X127288342Y-93794171D01*
X127288342Y-93615600D01*
X127252628Y-93472742D01*
X127216914Y-93401314D01*
X127181200Y-93365600D01*
X127109771Y-93329885D01*
X132298342Y-94069885D02*
X132548342Y-93712742D01*
X132726914Y-94069885D02*
X132726914Y-93319885D01*
X132441200Y-93319885D01*
X132369771Y-93355600D01*
X132334057Y-93391314D01*
X132298342Y-93462742D01*
X132298342Y-93569885D01*
X132334057Y-93641314D01*
X132369771Y-93677028D01*
X132441200Y-93712742D01*
X132726914Y-93712742D01*
X131619771Y-93319885D02*
X131976914Y-93319885D01*
X132012628Y-93677028D01*
X131976914Y-93641314D01*
X131905485Y-93605600D01*
X131726914Y-93605600D01*
X131655485Y-93641314D01*
X131619771Y-93677028D01*
X131584057Y-93748457D01*
X131584057Y-93927028D01*
X131619771Y-93998457D01*
X131655485Y-94034171D01*
X131726914Y-94069885D01*
X131905485Y-94069885D01*
X131976914Y-94034171D01*
X132012628Y-93998457D01*
X130869771Y-94069885D02*
X131298342Y-94069885D01*
X131084057Y-94069885D02*
X131084057Y-93319885D01*
X131155485Y-93427028D01*
X131226914Y-93498457D01*
X131298342Y-93534171D01*
X132358342Y-92589885D02*
X132608342Y-92232742D01*
X132786914Y-92589885D02*
X132786914Y-91839885D01*
X132501200Y-91839885D01*
X132429771Y-91875600D01*
X132394057Y-91911314D01*
X132358342Y-91982742D01*
X132358342Y-92089885D01*
X132394057Y-92161314D01*
X132429771Y-92197028D01*
X132501200Y-92232742D01*
X132786914Y-92232742D01*
X131715485Y-92089885D02*
X131715485Y-92589885D01*
X131894057Y-91804171D02*
X132072628Y-92339885D01*
X131608342Y-92339885D01*
X130965485Y-91839885D02*
X131322628Y-91839885D01*
X131358342Y-92197028D01*
X131322628Y-92161314D01*
X131251200Y-92125600D01*
X131072628Y-92125600D01*
X131001200Y-92161314D01*
X130965485Y-92197028D01*
X130929771Y-92268457D01*
X130929771Y-92447028D01*
X130965485Y-92518457D01*
X131001200Y-92554171D01*
X131072628Y-92589885D01*
X131251200Y-92589885D01*
X131322628Y-92554171D01*
X131358342Y-92518457D01*
X130628342Y-110899885D02*
X130878342Y-110542742D01*
X131056914Y-110899885D02*
X131056914Y-110149885D01*
X130771200Y-110149885D01*
X130699771Y-110185600D01*
X130664057Y-110221314D01*
X130628342Y-110292742D01*
X130628342Y-110399885D01*
X130664057Y-110471314D01*
X130699771Y-110507028D01*
X130771200Y-110542742D01*
X131056914Y-110542742D01*
X130199771Y-110471314D02*
X130271200Y-110435600D01*
X130306914Y-110399885D01*
X130342628Y-110328457D01*
X130342628Y-110292742D01*
X130306914Y-110221314D01*
X130271200Y-110185600D01*
X130199771Y-110149885D01*
X130056914Y-110149885D01*
X129985485Y-110185600D01*
X129949771Y-110221314D01*
X129914057Y-110292742D01*
X129914057Y-110328457D01*
X129949771Y-110399885D01*
X129985485Y-110435600D01*
X130056914Y-110471314D01*
X130199771Y-110471314D01*
X130271200Y-110507028D01*
X130306914Y-110542742D01*
X130342628Y-110614171D01*
X130342628Y-110757028D01*
X130306914Y-110828457D01*
X130271200Y-110864171D01*
X130199771Y-110899885D01*
X130056914Y-110899885D01*
X129985485Y-110864171D01*
X129949771Y-110828457D01*
X129914057Y-110757028D01*
X129914057Y-110614171D01*
X129949771Y-110542742D01*
X129985485Y-110507028D01*
X130056914Y-110471314D01*
X129449771Y-110149885D02*
X129378342Y-110149885D01*
X129306914Y-110185600D01*
X129271200Y-110221314D01*
X129235485Y-110292742D01*
X129199771Y-110435600D01*
X129199771Y-110614171D01*
X129235485Y-110757028D01*
X129271200Y-110828457D01*
X129306914Y-110864171D01*
X129378342Y-110899885D01*
X129449771Y-110899885D01*
X129521200Y-110864171D01*
X129556914Y-110828457D01*
X129592628Y-110757028D01*
X129628342Y-110614171D01*
X129628342Y-110435600D01*
X129592628Y-110292742D01*
X129556914Y-110221314D01*
X129521200Y-110185600D01*
X129449771Y-110149885D01*
X130368342Y-113019885D02*
X130618342Y-112662742D01*
X130796914Y-113019885D02*
X130796914Y-112269885D01*
X130511200Y-112269885D01*
X130439771Y-112305600D01*
X130404057Y-112341314D01*
X130368342Y-112412742D01*
X130368342Y-112519885D01*
X130404057Y-112591314D01*
X130439771Y-112627028D01*
X130511200Y-112662742D01*
X130796914Y-112662742D01*
X130011200Y-113019885D02*
X129868342Y-113019885D01*
X129796914Y-112984171D01*
X129761200Y-112948457D01*
X129689771Y-112841314D01*
X129654057Y-112698457D01*
X129654057Y-112412742D01*
X129689771Y-112341314D01*
X129725485Y-112305600D01*
X129796914Y-112269885D01*
X129939771Y-112269885D01*
X130011200Y-112305600D01*
X130046914Y-112341314D01*
X130082628Y-112412742D01*
X130082628Y-112591314D01*
X130046914Y-112662742D01*
X130011200Y-112698457D01*
X129939771Y-112734171D01*
X129796914Y-112734171D01*
X129725485Y-112698457D01*
X129689771Y-112662742D01*
X129654057Y-112591314D01*
X128975485Y-112269885D02*
X129332628Y-112269885D01*
X129368342Y-112627028D01*
X129332628Y-112591314D01*
X129261200Y-112555600D01*
X129082628Y-112555600D01*
X129011200Y-112591314D01*
X128975485Y-112627028D01*
X128939771Y-112698457D01*
X128939771Y-112877028D01*
X128975485Y-112948457D01*
X129011200Y-112984171D01*
X129082628Y-113019885D01*
X129261200Y-113019885D01*
X129332628Y-112984171D01*
X129368342Y-112948457D01*
X132498342Y-117439885D02*
X132748342Y-117082742D01*
X132926914Y-117439885D02*
X132926914Y-116689885D01*
X132641200Y-116689885D01*
X132569771Y-116725600D01*
X132534057Y-116761314D01*
X132498342Y-116832742D01*
X132498342Y-116939885D01*
X132534057Y-117011314D01*
X132569771Y-117047028D01*
X132641200Y-117082742D01*
X132926914Y-117082742D01*
X132141200Y-117439885D02*
X131998342Y-117439885D01*
X131926914Y-117404171D01*
X131891200Y-117368457D01*
X131819771Y-117261314D01*
X131784057Y-117118457D01*
X131784057Y-116832742D01*
X131819771Y-116761314D01*
X131855485Y-116725600D01*
X131926914Y-116689885D01*
X132069771Y-116689885D01*
X132141200Y-116725600D01*
X132176914Y-116761314D01*
X132212628Y-116832742D01*
X132212628Y-117011314D01*
X132176914Y-117082742D01*
X132141200Y-117118457D01*
X132069771Y-117154171D01*
X131926914Y-117154171D01*
X131855485Y-117118457D01*
X131819771Y-117082742D01*
X131784057Y-117011314D01*
X131534057Y-116689885D02*
X131034057Y-116689885D01*
X131355485Y-117439885D01*
X129995485Y-118879885D02*
X130245485Y-118522742D01*
X130424057Y-118879885D02*
X130424057Y-118129885D01*
X130138342Y-118129885D01*
X130066914Y-118165600D01*
X130031200Y-118201314D01*
X129995485Y-118272742D01*
X129995485Y-118379885D01*
X130031200Y-118451314D01*
X130066914Y-118487028D01*
X130138342Y-118522742D01*
X130424057Y-118522742D01*
X129281200Y-118879885D02*
X129709771Y-118879885D01*
X129495485Y-118879885D02*
X129495485Y-118129885D01*
X129566914Y-118237028D01*
X129638342Y-118308457D01*
X129709771Y-118344171D01*
X128816914Y-118129885D02*
X128745485Y-118129885D01*
X128674057Y-118165600D01*
X128638342Y-118201314D01*
X128602628Y-118272742D01*
X128566914Y-118415600D01*
X128566914Y-118594171D01*
X128602628Y-118737028D01*
X128638342Y-118808457D01*
X128674057Y-118844171D01*
X128745485Y-118879885D01*
X128816914Y-118879885D01*
X128888342Y-118844171D01*
X128924057Y-118808457D01*
X128959771Y-118737028D01*
X128995485Y-118594171D01*
X128995485Y-118415600D01*
X128959771Y-118272742D01*
X128924057Y-118201314D01*
X128888342Y-118165600D01*
X128816914Y-118129885D01*
X128102628Y-118129885D02*
X128031200Y-118129885D01*
X127959771Y-118165600D01*
X127924057Y-118201314D01*
X127888342Y-118272742D01*
X127852628Y-118415600D01*
X127852628Y-118594171D01*
X127888342Y-118737028D01*
X127924057Y-118808457D01*
X127959771Y-118844171D01*
X128031200Y-118879885D01*
X128102628Y-118879885D01*
X128174057Y-118844171D01*
X128209771Y-118808457D01*
X128245485Y-118737028D01*
X128281200Y-118594171D01*
X128281200Y-118415600D01*
X128245485Y-118272742D01*
X128209771Y-118201314D01*
X128174057Y-118165600D01*
X128102628Y-118129885D01*
X206788342Y-77848457D02*
X206824057Y-77884171D01*
X206931200Y-77919885D01*
X207002628Y-77919885D01*
X207109771Y-77884171D01*
X207181200Y-77812742D01*
X207216914Y-77741314D01*
X207252628Y-77598457D01*
X207252628Y-77491314D01*
X207216914Y-77348457D01*
X207181200Y-77277028D01*
X207109771Y-77205600D01*
X207002628Y-77169885D01*
X206931200Y-77169885D01*
X206824057Y-77205600D01*
X206788342Y-77241314D01*
X206502628Y-77241314D02*
X206466914Y-77205600D01*
X206395485Y-77169885D01*
X206216914Y-77169885D01*
X206145485Y-77205600D01*
X206109771Y-77241314D01*
X206074057Y-77312742D01*
X206074057Y-77384171D01*
X206109771Y-77491314D01*
X206538342Y-77919885D01*
X206074057Y-77919885D01*
X205359771Y-77919885D02*
X205788342Y-77919885D01*
X205574057Y-77919885D02*
X205574057Y-77169885D01*
X205645485Y-77277028D01*
X205716914Y-77348457D01*
X205788342Y-77384171D01*
X195248342Y-71379885D02*
X195498342Y-71022742D01*
X195676914Y-71379885D02*
X195676914Y-70629885D01*
X195391200Y-70629885D01*
X195319771Y-70665600D01*
X195284057Y-70701314D01*
X195248342Y-70772742D01*
X195248342Y-70879885D01*
X195284057Y-70951314D01*
X195319771Y-70987028D01*
X195391200Y-71022742D01*
X195676914Y-71022742D01*
X194962628Y-70701314D02*
X194926914Y-70665600D01*
X194855485Y-70629885D01*
X194676914Y-70629885D01*
X194605485Y-70665600D01*
X194569771Y-70701314D01*
X194534057Y-70772742D01*
X194534057Y-70844171D01*
X194569771Y-70951314D01*
X194998342Y-71379885D01*
X194534057Y-71379885D01*
X194069771Y-70629885D02*
X193998342Y-70629885D01*
X193926914Y-70665600D01*
X193891200Y-70701314D01*
X193855485Y-70772742D01*
X193819771Y-70915600D01*
X193819771Y-71094171D01*
X193855485Y-71237028D01*
X193891200Y-71308457D01*
X193926914Y-71344171D01*
X193998342Y-71379885D01*
X194069771Y-71379885D01*
X194141200Y-71344171D01*
X194176914Y-71308457D01*
X194212628Y-71237028D01*
X194248342Y-71094171D01*
X194248342Y-70915600D01*
X194212628Y-70772742D01*
X194176914Y-70701314D01*
X194141200Y-70665600D01*
X194069771Y-70629885D01*
M02*
