M48
; DRILL file {KiCad 5.1.6-c6e7f7d~87~ubuntu18.04.1} date Sat Aug  8 17:26:14 2020
; FORMAT={-:-/ absolute / inch / decimal}
; #@! TF.CreationDate,2020-08-08T17:26:14+05:30
; #@! TF.GenerationSoftware,Kicad,Pcbnew,5.1.6-c6e7f7d~87~ubuntu18.04.1
; #@! TF.FileFunction,Plated,1,4,PTH
FMAT,2
INCH
T1C0.0079
T2C0.0080
T3C0.0120
T4C0.0157
T5C0.0158
T6C0.0160
T7C0.0256
T8C0.0276
T9C0.0315
T10C0.0320
T11C0.0362
T12C0.0394
T13C0.0917
%
G90
G05
T1
X8.5657Y-5.4107
X8.5657Y-5.45
X8.5657Y-5.4894
X8.6169Y-5.4107
X8.6169Y-5.45
X8.6169Y-5.4894
X9.749Y-5.7136
X9.749Y-5.753
X9.749Y-5.7924
X9.8001Y-5.7136
X9.8001Y-5.753
X9.8001Y-5.7924
X8.5901Y-5.9865
X8.5901Y-6.0259
X8.5901Y-6.0653
X8.6413Y-5.9865
X8.6413Y-6.0259
X8.6413Y-6.0653
T2
X4.921Y-4.715
X4.922Y-4.76
X5.013Y-4.037
X5.033Y-3.003
X5.048Y-4.747
X5.049Y-3.09
X5.073Y-3.173
X5.079Y-4.691
X5.099Y-3.631
X5.099Y-4.141
X5.105Y-2.213
X5.112Y-2.264
X5.129Y-3.747
X5.137Y-3.963
X5.148Y-3.214
X5.16Y-4.582
X5.163Y-4.438
X5.1662Y-3.0888
X5.1739Y-4.7521
X5.1754Y-3.1656
X5.1783Y-4.1123
X5.181Y-4.689
X5.2484Y-2.1846
X5.249Y-3.733
X5.259Y-3.595
X5.272Y-2.271
X5.274Y-4.749
X5.2848Y-4.6989
X5.297Y-3.143
X5.315Y-4.155
X5.319Y-3.868
X5.333Y-4.129
X5.355Y-4.107
X5.369Y-3.117
X5.369Y-3.559
X5.3722Y-3.2152
X5.384Y-4.736
X5.421Y-3.817
X5.455Y-2.195
X5.462Y-3.2541
X5.487Y-4.701
X5.5109Y-3.1771
X5.528Y-4.734
X5.535Y-2.105
X5.555Y-2.313
X5.6018Y-3.4395
X5.6028Y-3.539
X5.6041Y-3.4971
X5.606Y-3.115
X5.621Y-3.345
X5.6246Y-3.2913
X5.6263Y-3.4037
X5.6271Y-3.315
X5.6271Y-3.373
X5.643Y-3.005
X5.6851Y-3.5159
X5.7247Y-3.1543
X5.725Y-3.487
X5.761Y-4.171
X5.779Y-2.1
X5.7969Y-3.7327
X5.7984Y-3.1087
X5.7997Y-3.7768
X5.8005Y-3.8217
X5.8371Y-3.5418
X5.8379Y-3.5823
X5.8379Y-3.6256
X5.8387Y-3.6772
X5.8457Y-3.0178
X5.852Y-3.237
X5.855Y-3.195
X5.867Y-5.361
X5.8675Y-2.9825
X5.87Y-2.951
X5.871Y-3.937
X5.901Y-5.537
X5.921Y-5.153
X5.939Y-5.327
X5.961Y-5.146
X5.983Y-5.497
X6.005Y-4.441
X6.053Y-5.391
X6.0644Y-5.5646
X6.065Y-5.86
X6.0969Y-3.913
X6.0974Y-5.6126
X6.1Y-3.097
X6.1166Y-3.8347
X6.117Y-3.7422
X6.1288Y-3.4398
X6.1292Y-3.0181
X6.137Y-5.189
X6.155Y-5.73
X6.1619Y-3.7496
X6.1678Y-3.0941
X6.1702Y-3.4319
X6.195Y-5.795
X6.204Y-3.609
X6.214Y-3.309
X6.218Y-5.534
X6.23Y-5.189
X6.23Y-5.455
X6.26Y-5.58
X6.263Y-6.269
X6.2841Y-5.5109
X6.29Y-5.645
X6.307Y-5.785
X6.3126Y-5.8974
X6.367Y-5.199
X6.375Y-6.075
X6.38Y-4.075
X6.39Y-5.33
X6.406Y-4.417
X6.41Y-4.08
X6.41Y-6.0
X6.4117Y-4.1069
X6.427Y-5.203
X6.4285Y-5.3435
X6.433Y-4.675
X6.435Y-4.985
X6.448Y-4.083
X6.455Y-5.405
X6.462Y-4.411
X6.485Y-5.315
X6.5018Y-5.4405
X6.505Y-5.985
X6.5054Y-5.2026
X6.5075Y-5.8375
X6.513Y-5.359
X6.533Y-5.313
X6.5447Y-5.4647
X6.545Y-5.39
X6.55Y-5.5338
X6.5725Y-2.475
X6.581Y-5.74
X6.595Y-2.505
X6.597Y-4.735
X6.597Y-4.735
X6.607Y-5.167
X6.625Y-5.679
X6.642Y-4.401
X6.646Y-4.732
X6.649Y-4.887
X6.6514Y-2.8
X6.66Y-5.4709
X6.661Y-5.553
X6.67Y-4.461
X6.681Y-4.951
X6.685Y-2.83
X6.702Y-4.3988
X6.75Y-2.7918
X6.7619Y-2.7422
X6.775Y-4.957
X6.7754Y-4.1164
X6.7764Y-2.6964
X6.8076Y-4.1154
X6.837Y-4.771
X6.85Y-5.187
X6.8788Y-2.7414
X6.881Y-4.966
X6.886Y-2.701
X6.897Y-4.735
X6.901Y-2.444
X6.926Y-2.701
X6.947Y-4.749
X6.9902Y-2.7469
X6.999Y-5.69
X7.004Y-5.503
X7.036Y-2.733
X7.058Y-2.825
X7.0591Y-4.0921
X7.0717Y-4.2753
X7.09Y-4.05
X7.0933Y-4.2901
X7.095Y-4.0149
X7.1Y-4.109
X7.1132Y-4.3117
X7.115Y-3.995
X7.124Y-2.825
X7.126Y-2.721
X7.132Y-2.531
X7.133Y-4.2883
X7.14Y-4.377
X7.141Y-4.721
X7.166Y-2.529
X7.169Y-4.749
X7.1692Y-5.123
X7.1761Y-2.7142
X7.1828Y-2.8311
X7.2252Y-4.8038
X7.2317Y-2.7267
X7.24Y-4.045
X7.248Y-4.371
X7.26Y-4.93
X7.2717Y-2.7033
X7.2726Y-5.2726
X7.2917Y-4.0817
X7.3117Y-2.7233
X7.3222Y-4.8822
X7.36Y-3.569
X7.374Y-5.252
X7.375Y-3.531
X7.39Y-3.197
X7.398Y-3.917
X7.416Y-4.015
X7.4297Y-3.1021
X7.4309Y-3.8216
X7.445Y-3.055
X7.445Y-6.01
X7.452Y-3.97
X7.455Y-2.975
X7.455Y-3.355
X7.4591Y-3.4138
X7.465Y-2.835
X7.465Y-3.275
X7.468Y-3.903
X7.4776Y-3.2004
X7.48Y-3.035
X7.485Y-2.795
X7.485Y-2.955
X7.485Y-5.54
X7.49Y-3.335
X7.49Y-2.875
X7.5Y-3.235
X7.5Y-3.82
X7.5133Y-3.3917
X7.535Y-5.935
X7.585Y-5.435
X7.6056Y-6.0296
X7.643Y-4.897
X7.645Y-5.22
X7.664Y-5.54
X7.67Y-5.345
X7.68Y-3.767
X7.69Y-4.285
X7.715Y-5.95
X7.725Y-4.25
X7.75Y-4.205
X7.765Y-5.59
X7.775Y-4.07
X7.775Y-6.01
X7.798Y-3.371
X7.8Y-4.18
X7.805Y-5.54
X7.835Y-4.015
X7.855Y-3.925
X7.855Y-5.945
X7.865Y-3.875
X7.88Y-5.25
X7.88Y-5.375
X7.935Y-6.01
X7.971Y-4.883
X7.98Y-5.185
X8.012Y-4.738
X8.042Y-4.942
X8.138Y-3.436
X8.139Y-3.559
X8.145Y-5.905
X8.18Y-6.065
X8.185Y-5.745
X8.192Y-2.906
X8.192Y-3.021
X8.199Y-4.981
X8.207Y-3.423
X8.213Y-4.742
X8.229Y-2.959
X8.229Y-3.084
X8.23Y-3.29
X8.235Y-3.33
X8.24Y-5.71
X8.241Y-3.555
X8.246Y-2.876
X8.247Y-2.838
X8.248Y-2.996
X8.26Y-5.185
X8.265Y-6.005
X8.3Y-5.75
X8.3529Y-3.5059
X8.355Y-5.145
X8.364Y-3.23
X8.385Y-3.35
X8.398Y-3.248
X8.41Y-3.315
X8.4316Y-4.881
X8.435Y-3.275
X8.435Y-5.18
X8.455Y-5.7
X8.4688Y-4.6412
X8.485Y-6.23
X8.505Y-5.145
X8.507Y-4.644
X8.515Y-2.98
X8.533Y-5.167
X8.54Y-2.985
X8.555Y-6.16
X8.564Y-3.0242
X8.59Y-2.995
X8.6163Y-3.3713
X8.619Y-5.164
X8.6339Y-4.8004
X8.638Y-4.688
X8.64Y-3.045
X8.655Y-3.2694
X8.665Y-6.22
X8.685Y-3.2497
X8.692Y-4.685
X8.7Y-5.15
X8.7513Y-4.7754
X8.78Y-5.195
X8.79Y-5.67
X8.8Y-5.775
X8.803Y-3.053
X8.811Y-2.935
X8.811Y-3.447
X8.82Y-6.17
X8.835Y-3.711
X8.836Y-2.963
X8.836Y-3.088
X8.836Y-3.362
X8.836Y-3.474
X8.836Y-3.593
X8.873Y-2.808
X8.873Y-3.09
X8.873Y-3.362
X8.874Y-2.915
X8.874Y-2.968
X8.875Y-3.467
X8.875Y-3.595
X8.875Y-3.708
X8.875Y-5.72
X8.995Y-5.625
X9.01Y-5.455
X9.025Y-3.09
X9.05Y-3.065
X9.065Y-5.82
X9.18Y-5.51
X9.185Y-5.685
X9.22Y-5.24
X9.256Y-4.999
X9.295Y-5.205
X9.315Y-6.14
X9.32Y-5.73
X9.345Y-6.05
X9.41Y-5.29
X9.41Y-6.255
X9.449Y-2.292
X9.46Y-2.59
X9.46Y-5.79
X9.48Y-4.97
X9.492Y-2.516
X9.52Y-5.27
X9.555Y-5.54
X9.5884Y-2.5949
X9.59Y-5.365
X9.61Y-2.605
X9.62Y-5.495
X9.685Y-6.305
X9.7Y-5.555
X9.7099Y-3.6126
X9.7115Y-3.5744
X9.7166Y-3.5374
X9.755Y-5.51
X9.76Y-6.09
X9.78Y-6.245
X9.805Y-3.495
X9.811Y-5.587
X9.825Y-5.9
X9.86Y-5.865
X9.865Y-5.015
X9.88Y-6.305
X9.885Y-6.015
X9.92Y-5.89
X9.94Y-6.25
X9.951Y-5.095
X10.018Y-2.916
X10.02Y-6.09
X10.03Y-6.31
X10.069Y-3.054
X10.071Y-2.956
X10.1928Y-3.5518
X10.205Y-4.97
X10.24Y-5.51
X10.255Y-6.265
X10.273Y-6.105
X10.343Y-3.232
X10.345Y-5.45
X10.349Y-3.713
X10.4235Y-3.4425
X10.425Y-6.33
X10.437Y-3.2327
X10.445Y-5.52
X10.445Y-5.99
X10.449Y-3.382
X10.505Y-6.255
X10.54Y-5.455
X10.61Y-5.53
X10.895Y-5.165
X10.895Y-5.285
X10.9Y-5.415
X10.96Y-5.355
X10.97Y-5.22
T3
X5.012Y-3.505
X5.033Y-3.4
X5.0375Y-3.2825
X5.665Y-5.179
X5.671Y-5.299
X5.683Y-5.443
X6.26Y-5.387
X6.42Y-5.546
X6.422Y-2.879
X6.494Y-2.877
X6.5384Y-2.8166
X6.544Y-2.521
X6.557Y-6.34
X6.834Y-2.441
X7.124Y-2.919
X7.232Y-3.055
X7.442Y-6.34
X7.728Y-3.543
X7.733Y-3.154
X7.8398Y-3.5428
X7.841Y-3.354
X7.916Y-2.875
X7.924Y-3.077
X7.924Y-3.127
X8.758Y-5.476
X8.758Y-5.476
X8.852Y-4.795
X8.862Y-6.34
X9.4913Y-2.3212
X9.494Y-2.393
X9.885Y-2.84
X9.961Y-4.356
X10.051Y-4.425
X10.248Y-3.747
T4
X4.99Y-4.102
X5.325Y-5.69
X5.62Y-5.14
X5.6609Y-6.1909
X5.67Y-6.035
X5.737Y-5.585
X5.97Y-6.095
T5
X6.4996Y-5.621
X6.5008Y-5.5602
T6
X6.004Y-6.01
X6.353Y-3.865
X7.392Y-3.763
X7.446Y-5.625
X7.451Y-4.553
X7.714Y-4.949
X8.219Y-5.497
X8.267Y-5.317
X8.291Y-5.427
X8.403Y-5.403
X10.367Y-4.539
X10.439Y-4.631
X10.535Y-4.175
X10.591Y-4.651
X10.61Y-4.115
X10.66Y-4.18
X10.689Y-4.859
X10.735Y-4.12
X10.8Y-4.19
X10.875Y-4.14
T9
X4.9902Y-4.3294
X4.9902Y-4.4294
X4.9902Y-4.5294
X5.2902Y-4.3294
X5.2902Y-4.4294
X5.2902Y-4.5294
T10
X10.674Y-5.02
X10.874Y-5.02
T11
X5.3957Y-5.2726
X5.3957Y-5.371
X5.4744Y-5.2726
X5.4744Y-5.371
T12
X5.939Y-4.851
X6.039Y-4.851
X6.139Y-4.851
X7.985Y-6.21
X8.085Y-6.21
X8.185Y-6.21
X9.093Y-6.249
X9.193Y-6.249
X9.293Y-6.249
X8.8991Y-2.0079
X8.9991Y-2.0079
X9.0991Y-2.0079
X9.1991Y-2.0079
X9.2991Y-2.0079
X9.3991Y-2.0079
X9.4991Y-2.0079
X9.5991Y-2.0079
X9.6991Y-2.0079
X9.7991Y-2.0079
X5.6Y-5.78
X5.7Y-5.78
X5.8Y-5.78
X9.63Y-4.3
X9.73Y-4.3
X9.83Y-4.3
X9.635Y-4.575
X9.735Y-4.575
X9.835Y-4.575
X8.94Y-4.455
X9.04Y-4.455
X9.14Y-4.455
X9.24Y-4.455
X9.34Y-4.455
X9.44Y-4.455
X10.695Y-5.524
X10.8919Y-5.524
X9.259Y-3.908
X9.359Y-3.908
X9.459Y-3.908
X9.559Y-3.908
X9.659Y-3.908
X9.759Y-3.908
X9.859Y-3.908
X9.959Y-3.908
X5.504Y-1.9898
X5.604Y-1.9898
X5.704Y-1.9898
X5.804Y-1.9898
X10.159Y-3.908
X10.259Y-3.908
X10.359Y-3.908
X10.459Y-3.908
X10.559Y-3.908
X10.659Y-3.908
X4.9401Y-4.8648
X5.0401Y-4.8648
X5.1401Y-4.8648
X5.2401Y-4.8648
X5.3401Y-4.8648
X5.4401Y-4.8648
X5.5401Y-4.8648
X5.6401Y-4.8648
X7.11Y-6.205
X7.21Y-6.205
X7.31Y-6.205
X7.41Y-6.205
X7.51Y-6.205
X7.61Y-6.205
X7.71Y-6.205
X7.81Y-6.205
X9.9591Y-2.0079
X10.0591Y-2.0079
X10.1591Y-2.0079
X10.2591Y-2.0079
X10.3591Y-2.0079
X10.4591Y-2.0079
X10.5591Y-2.0079
X10.6591Y-2.0079
X7.305Y-5.055
X7.405Y-5.055
X7.505Y-5.055
X7.605Y-5.055
X6.065Y-1.985
X6.165Y-1.985
X6.265Y-1.985
X6.365Y-1.985
X6.465Y-1.985
X6.565Y-1.985
T13
X5.289Y-5.0848
X5.289Y-5.5588
T7
G00X5.8219Y-6.1789
M15
G01X5.8219Y-6.1632
M16
G05
G00X6.0124Y-6.1789
M15
G01X6.0124Y-6.1632
M16
G05
T8
G00X5.8096Y-6.299
M15
G01X5.8096Y-6.2793
M16
G05
G00X6.0246Y-6.299
M15
G01X6.0246Y-6.2793
M16
G05
T12
G00X10.5026Y-4.3532
M15
G01X10.5026Y-4.4516
M16
G05
G00X10.5813Y-4.2173
M15
G01X10.6601Y-4.2173
M16
G05
G00X10.7388Y-4.363
M15
G01X10.7388Y-4.4418
M16
G05
T0
M30
